<svg xmlns="http://www.w3.org/2000/svg" width="48" height="48" viewBox="0 0 16 16">
  <metadata><?xpacket begin="﻿" id="W5M0MpCehiHzreSzNTczkc9d"?>
<x:xmpmeta xmlns:x="adobe:ns:meta/" x:xmptk="Adobe XMP Core 5.6-c138 79.159824, 2016/09/14-01:09:01        ">
   <rdf:RDF xmlns:rdf="http://www.w3.org/1999/02/22-rdf-syntax-ns#">
      <rdf:Description rdf:about=""/>
   </rdf:RDF>
</x:xmpmeta>
                                                                                                    
                                                                                                    
                                                                                                    
                                                                                                    
                                                                                                    
                                                                                                    
                                                                                                    
                                                                                                    
                                                                                                    
                                                                                                    
                                                                                                    
                                                                                                    
                                                                                                    
                                                                                                    
                                                                                                    
                                                                                                    
                                                                                                    
                                                                                                    
                                                                                                    
                                                                                                    
                           
<?xpacket end="w"?></metadata>
<defs>
    <style>
      .cls-1 {
        fill: #fff;
        fill-rule: evenodd;
      }
    </style>
  </defs>
  <path id="_9" data-name="9" class="cls-1" d="M1220.4,109h11.2a1.4,1.4,0,0,1,1.4,1.4v11.2a1.4,1.4,0,0,1-1.4,1.4h-11.2a1.4,1.4,0,0,1-1.4-1.4V110.4A1.4,1.4,0,0,1,1220.4,109Zm6.57,9.182a0.954,0.954,0,0,1-.51.255l-4.35,2.152a0.517,0.517,0,0,1-.7-0.7l2.15-4.353a0.888,0.888,0,0,1,.25-0.515l7.73-7.732a0.986,0.986,0,0,1,1.4,0l1.76,1.757a0.991,0.991,0,0,1,0,1.406Zm-4.61,1.1a0.256,0.256,0,0,0,.35.35l2.68-1.627-1.41-1.411Zm2.15-3.564,5.61-5.611,1.77,1.745-5.62,5.623C1225.61,116.82,1224.7,115.909,1224.51,115.722Zm9.13-6.327-1.05-1.054a0.494,0.494,0,0,0-.7,0l-1.03,1.03,1.73,1.782,1.05-1.055A0.487,0.487,0,0,0,1233.64,109.4Z" transform="translate(-1219 -107)"/>
</svg>
