<?xml version="1.0" standalone="no"?>
<!DOCTYPE svg PUBLIC "-//W3C//DTD SVG 1.1//EN" "http://www.w3.org/Graphics/SVG/1.1/DTD/svg11.dtd" >
<svg>
<metadata>
Created by FontForge 20090914 at Fri Mar 30 10:50:24 2012
 By www-data
Copyright 2010 Monotype Imaging Inc. All rights reserved. Designed by Nick Job.
</metadata>
<defs>
<font id="CamphorW01-Regular" horiz-adv-x="250" >
  <font-face 
    font-family="Camphor W01 Regular"
    font-weight="400"
    font-stretch="normal"
    units-per-em="1000"
    panose-1="2 11 5 4 3 4 4 2 2 4"
    ascent="735"
    descent="-265"
    x-height="500"
    cap-height="688"
    bbox="-90 -250 1165 929"
    underline-thickness="62"
    underline-position="-63"
    unicode-range="U+0020-U+2122"
  />
<missing-glyph 
 />
    <glyph glyph-name=".notdef" 
 />
    <glyph glyph-name="space" unicode=" " 
 />
    <glyph glyph-name="exclam" unicode="!" horiz-adv-x="267" 
d="M94 688h79v-492h-79v492zM80 41c0 16 5 29 15 39s22.667 15 38 15c16 0 29 -5 39 -15s15 -23 15 -39c0 -15.333 -5 -28 -15 -38s-23 -15 -39 -15c-15.333 0 -28 5 -38 15s-15 22.667 -15 38z" />
    <glyph glyph-name="quotedbl" unicode="&#x22;" horiz-adv-x="419" 
d="M259 688h69v-223h-69v223zM91 688h69v-223h-69v223z" />
    <glyph glyph-name="numbersign" unicode="#" horiz-adv-x="563" 
d="M10 260h108l21 168h-100v68h109l24 192h69l-24 -192h167l24 192h69l-24 -192h100v-68h-108l-21 -168h99v-68h-108l-24 -192h-69l24 192h-167l-24 -192h-69l24 192h-100v68zM188 260h166l21 168h-166z" />
    <glyph glyph-name="dollar" unicode="$" horiz-adv-x="563" 
d="M247 21c-25.333 1.33301 -51.167 5.49902 -77.5 12.499s-52.166 17.167 -77.499 30.5v81c56.667 -39.333 114 -59 172 -59c20 0 38.5 2.66699 55.5 8s31.667 12.833 44 22.5s22 21.334 29 35.001s10.5 28.834 10.5 45.501c0 26 -8 46.5 -24 61.5s-35.833 27.5 -59.5 37.5
s-49.334 19.5 -77.001 28.5s-53.334 20.167 -77.001 33.5s-43.5 30.666 -59.5 51.999s-24 49.666 -24 84.999c0 22 4 42.5 12 61.5s19.167 35.833 33.5 50.5s31.666 26.834 51.999 36.501s42.833 16.5 67.5 20.5v149h69v-146c46.667 -2 93.334 -13.667 140.001 -35v-79
c-53.333 32.667 -105.666 49 -156.999 49c-40 0 -72.5 -9.5 -97.5 -28.5s-37.5 -44.5 -37.5 -76.5c0 -18.667 4.66699 -34.167 14 -46.5s21.5 -23 36.5 -32s32 -16.833 51 -23.5l59 -21c20.333 -7.33301 40 -15.5 59 -24.5s36 -20 51 -33s27.167 -29 36.5 -48
s14 -42.167 14 -69.5c0 -23.333 -4 -44.833 -12 -64.5s-19.5 -37 -34.5 -52s-32.833 -27.667 -53.5 -38s-43.667 -17.5 -69 -21.5v-148h-69v146z" />
    <glyph glyph-name="percent" unicode="%" horiz-adv-x="845" 
d="M477 172c0 26.667 4 51.334 12 74.001s19.167 42.167 33.5 58.5s31.333 29 51 38s41.5 13.5 65.5 13.5s45.833 -4.5 65.5 -13.5s36.834 -21.667 51.501 -38s26 -35.833 34 -58.5s12 -47.334 12 -74.001c0 -27.333 -4 -52.166 -12 -74.499s-19.333 -41.666 -34 -57.999
s-31.834 -29 -51.501 -38s-41.5 -13.5 -65.5 -13.5s-45.833 4.5 -65.5 13.5s-36.667 21.667 -51 38s-25.5 35.666 -33.5 57.999s-12 47.166 -12 74.499zM539 172c0 -39.333 9.16699 -71.333 27.5 -96s42.5 -37 72.5 -37s54.333 12.333 73 37s28 56.667 28 96
c0 40 -9.33301 72.167 -28 96.5s-43 36.5 -73 36.5s-54.167 -12.167 -72.5 -36.5s-27.5 -56.5 -27.5 -96.5zM43 516c0 26.667 4 51.334 12 74.001s19.167 42.167 33.5 58.5s31.333 29 51 38s41.5 13.5 65.5 13.5s45.833 -4.5 65.5 -13.5s36.834 -21.667 51.501 -38
s26 -35.833 34 -58.5s12 -47.334 12 -74.001c0 -27.333 -4 -52.166 -12 -74.499s-19.333 -41.666 -34 -57.999s-31.834 -29 -51.501 -38s-41.5 -13.5 -65.5 -13.5s-45.833 4.5 -65.5 13.5s-36.667 21.667 -51 38s-25.5 35.666 -33.5 57.999s-12 47.166 -12 74.499zM105 516
c0 -39.333 9.16699 -71.166 27.5 -95.499s42.5 -36.5 72.5 -36.5s54.333 12.167 73 36.5s28 56.166 28 95.499c0 40 -9.33301 72.167 -28 96.5s-43 36.5 -73 36.5s-54.167 -12.167 -72.5 -36.5s-27.5 -56.5 -27.5 -96.5zM647 688h67l-516 -688h-67z" />
    <glyph glyph-name="ampersand" unicode="&#x26;" horiz-adv-x="643" 
d="M630 318l-134.001 0.000976562v-276c-69.333 -36 -138 -54 -206 -54c-34.667 0 -66.5 4.66699 -95.5 14s-53.833 22.333 -74.5 39s-36.667 36.5 -48 59.5s-17 48.167 -17 75.5c0 42 12.167 79 36.5 111s57.5 54.667 99.5 68c-38 12 -67.667 32.667 -89 62s-32 63 -32 101
c0 26.667 5.16699 51.167 15.5 73.5s24.833 41.5 43.5 57.5s40.834 28.5 66.501 37.5s54.167 13.5 85.5 13.5c56 0 111.667 -14 167 -42v-76c-53.333 33.333 -106.333 50 -159 50c-40 0 -72.833 -11.167 -98.5 -33.5s-38.5 -51.5 -38.5 -87.5c0 -19.333 4 -36.833 12 -52.5
s19.167 -29.334 33.5 -41.001s31.5 -20.667 51.5 -27s42 -9.5 66 -9.5h315v-63zM136.999 183.001c0 -18.667 3.99805 -35.8311 11.998 -51.498s19 -29 33 -40s30.667 -19.667 50 -26s40.666 -9.5 63.999 -9.5c20 0 40.167 2.5 60.5 7.5s40.5 12.167 60.5 21.5v233h-107
c-25.333 0 -48.666 -3.33301 -69.999 -10s-39.666 -15.834 -54.999 -27.501s-27.166 -25.834 -35.499 -42.501s-12.5 -35 -12.5 -55z" />
    <glyph glyph-name="quotesingle" unicode="'" 
d="M91 688h69v-223h-69v223z" />
    <glyph glyph-name="parenleft" unicode="(" horiz-adv-x="321" 
d="M78 282c0 78.667 12.5 154.834 37.5 228.501s61.833 143.167 110.5 208.5h84c-50 -64 -88 -132.833 -114 -206.5s-39 -150.5 -39 -230.5c0 -80.667 13 -157.834 39 -231.501s64 -142.5 114 -206.5h-84c-48.667 65.333 -85.5 135 -110.5 209s-37.5 150.333 -37.5 229z" />
    <glyph glyph-name="parenright" unicode=")" horiz-adv-x="321" 
d="M243 282c0 -78.667 -12.333 -155 -37 -229s-61.334 -143.667 -110.001 -209h-85c50 64 88 132.833 114 206.5s39 150.834 39 231.501c0 80 -13 156.833 -39 230.5s-64 142.5 -114 206.5h85c48.667 -65.333 85.334 -134.833 110.001 -208.5s37 -149.834 37 -228.501z" />
    <glyph glyph-name="asterisk" unicode="*" horiz-adv-x="446" 
d="M255 537l145 46l19 -61l-144 -47l90 -123l-53 -38l-89 123l-89 -123l-52 38l89 123l-144 47l19 61l144 -46v151h65v-151z" />
    <glyph glyph-name="plus" unicode="+" horiz-adv-x="563" 
d="M31 316h216v216h69v-216h216v-69h-216v-216h-69v216h-216v69z" />
    <glyph glyph-name="comma" unicode="," 
d="M93 83h77l-87 -208h-67z" />
    <glyph glyph-name="hyphen" unicode="-" horiz-adv-x="313" 
d="M35 286h243v-63h-243v63z" />
    <glyph glyph-name="period" unicode="." 
d="M72 41c0 16 5 29 15 39s22.667 15 38 15s28 -5 38 -15s15 -23 15 -39c0 -15.333 -5 -28 -15 -38s-22.667 -15 -38 -15s-28 5 -38 15s-15 22.667 -15 38z" />
    <glyph glyph-name="slash" unicode="/" horiz-adv-x="375" 
d="M257 719h81l-219 -875h-81z" />
    <glyph glyph-name="zero" unicode="0" horiz-adv-x="563" 
d="M33 344c0 52.667 6 100.834 18 144.501s29 81.167 51 112.5s48.167 55.666 78.5 72.999s64.166 26 101.499 26c36.667 0 70.167 -8.66699 100.5 -26s56.5 -41.666 78.5 -72.999s39 -68.833 51 -112.5s18 -91.834 18 -144.501s-6 -100.834 -18 -144.501
s-29 -81.167 -51 -112.5s-48.167 -55.666 -78.5 -72.999s-63.833 -26 -100.5 -26c-37.333 0 -71.166 8.66699 -101.499 26s-56.5 41.666 -78.5 72.999s-39 68.833 -51 112.5s-18 91.834 -18 144.501zM115 344c0 -43.333 4 -82.5 12 -117.5s19.333 -65.167 34 -90.5
s32.167 -44.833 52.5 -58.5s43.166 -20.5 68.499 -20.5c24.667 0 47.167 6.83301 67.5 20.5s37.833 33.167 52.5 58.5s26 55.5 34 90.5s12 74.167 12 117.5c0 42.667 -4 81.667 -12 117s-19.333 65.666 -34 90.999s-32.167 44.833 -52.5 58.5s-42.833 20.5 -67.5 20.5
c-25.333 0 -48.166 -6.83301 -68.499 -20.5s-37.833 -33.167 -52.5 -58.5s-26 -55.666 -34 -90.999s-12 -74.333 -12 -117z" />
    <glyph glyph-name="one" unicode="1" horiz-adv-x="563" 
d="M292 600l-177 -103v75l202 116h57v-688h-82v600z" />
    <glyph glyph-name="two" unicode="2" horiz-adv-x="563" 
d="M61 56c60 54.667 110.667 103.666 152 146.999s74.666 82.333 99.999 117s43.666 65.834 54.999 93.501s17 53.5 17 77.5c0 42 -12.5 75.667 -37.5 101s-57.167 38 -96.5 38c-28 0 -56.667 -5.5 -86 -16.5s-58.666 -28.167 -87.999 -51.5v80c62 38.667 125.333 58 190 58
c29.333 0 56.333 -4.83301 81 -14.5s45.834 -23.167 63.501 -40.5s31.5 -38 41.5 -62s15 -50.333 15 -79c0 -27.333 -5.33301 -55.666 -16 -84.999s-27.667 -61.333 -51 -96s-54 -72.834 -92 -114.501s-84.333 -88.167 -139 -139.5h308v-69h-417v56z" />
    <glyph glyph-name="three" unicode="3" horiz-adv-x="563" 
d="M189 382l34 -0.000976562c22.667 0 43.667 3.16699 63 9.5s35.833 15.166 49.5 26.499s24.334 24.833 32.001 40.5s11.5 33.167 11.5 52.5c0 36 -12.833 65.167 -38.5 87.5s-58.5 33.5 -98.5 33.5c-52.667 0 -105.667 -16.667 -159 -50v76
c54.667 28 110.334 42 167.001 42c30.667 0 59 -4.5 85 -13.5s48.333 -21.5 67 -37.5s33.167 -35.167 43.5 -57.5s15.5 -46.833 15.5 -73.5c0 -38 -10.833 -71.667 -32.5 -101s-51.167 -50 -88.5 -62c42 -13.333 75.167 -36 99.5 -68s36.5 -69 36.5 -111
c0 -27.333 -5.66699 -52.5 -17 -75.5s-27.333 -42.833 -48 -59.5s-45.167 -29.667 -73.5 -39s-59.833 -14 -94.5 -14c-58.667 0 -117.334 15.333 -176.001 46v78c55.333 -37.333 111.333 -56 168 -56c23.333 0 44.666 3.16699 63.999 9.5s36 15 50 26s24.833 24.333 32.5 40
s11.5 32.834 11.5 51.501c0 20 -4 38.167 -12 54.5s-19.333 30.333 -34 42s-32.167 20.834 -52.5 27.501s-42.5 10 -66.5 10h-39v65z" />
    <glyph glyph-name="four" unicode="4" horiz-adv-x="563" 
d="M342 191h-311v53l324 444h66v-434h109v-63h-109v-191h-79v191zM342 254v314l-227 -314h227z" />
    <glyph glyph-name="five" unicode="5" horiz-adv-x="563" 
d="M450 619h-274v-208c14.667 2.66699 29 4.83398 43 6.50098s27.667 2.5 41 2.5c33.333 0 63.666 -5.16699 90.999 -15.5s50.833 -24.833 70.5 -43.5s34.834 -41 45.501 -67s16 -54.667 16 -86c0 -32 -6 -61.5 -18 -88.5s-28.667 -50.167 -50 -69.5
s-46.833 -34.5 -76.5 -45.5s-62.5 -16.5 -98.5 -16.5c-53.333 0 -106 13 -158 39v81c50 -34 100.667 -51 152 -51c24 0 46.167 3.66699 66.5 11s37.833 17.666 52.5 30.999s26.167 29.333 34.5 48s12.5 39 12.5 61c0 21.333 -4 41 -12 59s-19 33.667 -33 47
s-31 23.666 -51 30.999s-42 11 -66 11c-22.667 0 -45.167 -1.66699 -67.5 -5s-44.833 -7.66602 -67.5 -12.999v350h347v-69z" />
    <glyph glyph-name="six" unicode="6" horiz-adv-x="563" 
d="M411 688c-62.667 -48.667 -114.504 -98.501 -155.504 -149.501s-71.5 -102.5 -91.5 -154.5c21.333 16 43.5 28.167 66.5 36.5s47.167 12.5 72.5 12.5c31.333 0 59.833 -5.16699 85.5 -15.5s47.667 -25 66 -44s32.5 -41.667 42.5 -68s15 -55.166 15 -86.499
c0 -34 -5.66699 -65 -17 -93s-27.166 -52.333 -47.499 -73s-44.666 -36.667 -72.999 -48s-59.5 -17 -93.5 -17c-33.333 0 -63.666 6.16699 -90.999 18.5s-50.833 29.5 -70.5 51.5s-35 48.333 -46 79s-16.5 64.667 -16.5 102c0 76.667 20.833 153.5 62.5 230.5
s102.834 149.833 183.501 218.5h108zM143.996 297.999c-2 -10 -3.49609 -20.832 -4.49609 -32.499s-1.5 -22.5 -1.5 -32.5c0 -26 3.5 -49.833 10.5 -71.5s17 -40.167 30 -55.5s28.167 -27.333 45.5 -36s36.666 -13 57.999 -13c22 0 42.167 3.83301 60.5 11.5
s34.166 18.5 47.499 32.5s23.666 30.667 30.999 50s11 40.666 11 63.999c0 22 -3.5 42.167 -10.5 60.5s-16.833 34.333 -29.5 48s-27.834 24.167 -45.501 31.5s-37.167 11 -58.5 11c-50.667 0 -98.667 -22.667 -144 -68z" />
    <glyph glyph-name="seven" unicode="7" horiz-adv-x="563" 
d="M397 619h-334v69h425v-48l-271 -640h-84z" />
    <glyph glyph-name="eight" unicode="8" horiz-adv-x="563" 
d="M70 514c0 27.333 5.16895 52.333 15.502 75s24.833 42.334 43.5 59.001s41 29.5 67 38.5s54.667 13.5 86 13.5c30.667 0 59 -4.5 85 -13.5s48.333 -21.833 67 -38.5s33.167 -36.334 43.5 -59.001s15.5 -47.667 15.5 -75c0 -39.333 -10.5 -73.333 -31.5 -102
s-49.5 -48.667 -85.5 -60c41.333 -11.333 73.666 -32.5 96.999 -63.5s35 -67.5 35 -109.5c0 -28 -5.5 -53.667 -16.5 -77s-26.5 -43.5 -46.5 -60.5s-43.833 -30.167 -71.5 -39.5s-58.167 -14 -91.5 -14c-34 0 -64.833 4.66699 -92.5 14s-51.5 22.5 -71.5 39.5
s-35.5 37.167 -46.5 60.5s-16.5 49 -16.5 77c0 42 11.667 78.5 35 109.5s55.666 52.167 96.999 63.5c-36 11.333 -64.5 31.333 -85.5 60s-31.5 62.667 -31.5 102zM135.002 186c0 -19.333 3.5 -37 10.5 -53s17 -29.833 30 -41.5s28.5 -20.834 46.5 -27.501s38 -10 60 -10
c21.333 0 41 3.33301 59 10s33.5 15.834 46.5 27.501s23 25.5 30 41.5s10.5 33.667 10.5 53s-3.5 37 -10.5 53s-17 29.833 -30 41.5s-28.5 20.667 -46.5 27s-37.667 9.5 -59 9.5c-22 0 -42 -3.16699 -60 -9.5s-33.5 -15.333 -46.5 -27s-23 -25.5 -30 -41.5
s-10.5 -33.667 -10.5 -53zM149.002 508c0 -36.667 12.333 -66.834 37 -90.501s56.667 -35.5 96 -35.5c38.667 0 70.334 11.833 95.001 35.5s37 53.834 37 90.501s-12.333 66.834 -37 90.501s-56.334 35.5 -95.001 35.5c-39.333 0 -71.333 -11.833 -96 -35.5
s-37 -53.834 -37 -90.501z" />
    <glyph glyph-name="nine" unicode="9" horiz-adv-x="563" 
d="M152 0c124 98 206.334 199.668 247.001 305.001c-43.333 -33.333 -89.666 -50 -138.999 -50c-31.333 0 -59.833 5.16699 -85.5 15.5s-47.667 25 -66 44s-32.5 41.667 -42.5 68s-15 55.166 -15 86.499c0 34 5.66699 65 17 93s27.166 52.333 47.499 73
s44.833 36.667 73.5 48s60 17 94 17c32.667 0 62.667 -6.16699 90 -18.5s50.833 -29.5 70.5 -51.5s35 -48.5 46 -79.5s16.5 -64.833 16.5 -101.5c0 -76.667 -20.833 -153.5 -62.5 -230.5s-102.834 -149.833 -183.501 -218.5h-108zM420.001 390.001
c1.33301 10.667 2.50098 21.666 3.50098 32.999s1.5 22 1.5 32c0 26 -3.5 49.833 -10.5 71.5s-16.833 40.167 -29.5 55.5s-27.834 27.333 -45.501 36s-36.834 13 -57.501 13c-22 0 -42.333 -3.83301 -61 -11.5s-34.667 -18.5 -48 -32.5s-23.666 -30.667 -30.999 -50
s-11 -40.666 -11 -63.999c0 -22 3.5 -42.167 10.5 -60.5s16.833 -34.333 29.5 -48s27.834 -24.167 45.501 -31.5s37.167 -11 58.5 -11c25.333 0 50.166 5.83301 74.499 17.5s47.833 28.5 70.5 50.5z" />
    <glyph glyph-name="colon" unicode=":" 
d="M72 459c0 15.333 5 28 15 38s22.667 15 38 15s28 -5 38 -15s15 -22.667 15 -38c0 -16 -5 -29 -15 -39s-22.667 -15 -38 -15s-28 5 -38 15s-15 23 -15 39zM72 41c0 16 5 29 15 39s22.667 15 38 15s28 -5 38 -15s15 -23 15 -39c0 -15.333 -5 -28 -15 -38
s-22.667 -15 -38 -15s-28 5 -38 15s-15 22.667 -15 38z" />
    <glyph glyph-name="semicolon" unicode=";" 
d="M93 83h77l-87 -208h-67zM72 459c0 15.333 5 28 15 38s22.667 15 38 15s28 -5 38 -15s15 -22.667 15 -38c0 -16 -5 -29 -15 -39s-22.667 -15 -38 -15s-28 5 -38 15s-15 23 -15 39z" />
    <glyph glyph-name="less" unicode="&#x3c;" horiz-adv-x="563" 
d="M31 253v57l501 215v-74l-394 -169l394 -170v-74z" />
    <glyph glyph-name="equal" unicode="=" horiz-adv-x="563" 
d="M31 215h501v-69h-501v69zM31 417h501v-69h-501v69z" />
    <glyph glyph-name="greater" unicode="&#x3e;" horiz-adv-x="563" 
d="M532 310v-57l-501 -215v74l394 170l-394 169v74z" />
    <glyph glyph-name="question" unicode="?" horiz-adv-x="444" 
d="M139 41c0 16 5 29 15 39s22.667 15 38 15s28 -5 38 -15s15 -23 15 -39c0 -15.333 -5 -28 -15 -38s-22.667 -15 -38 -15s-28 5 -38 15s-15 22.667 -15 38zM154 220c0 24 3.66602 45.3291 10.999 63.9961s16.5 35.834 27.5 51.501s22.833 30.334 35.5 44.001
s24.5 27.667 35.5 42s20.167 29.5 27.5 45.5s11 34 11 54c0 32.667 -10.5 59.334 -31.5 80.001s-48.5 31 -82.5 31c-50.667 0 -101 -23 -151 -69v79c50.667 38.667 105.334 58 164.001 58c27.333 0 52.333 -4.16699 75 -12.5s42 -20 58 -35s28.5 -33 37.5 -54
s13.5 -43.833 13.5 -68.5s-3.83301 -46.834 -11.5 -66.501s-17.167 -38 -28.5 -55s-23.833 -33 -37.5 -48s-26.167 -30.167 -37.5 -45.5s-20.833 -31.166 -28.5 -47.499s-11.5 -34.166 -11.5 -53.499v-18h-76v24z" />
    <glyph glyph-name="at" unicode="@" horiz-adv-x="978" 
d="M673 163c0 -23.333 5.83398 -41.667 17.501 -55s26.834 -20 45.501 -20c16.667 0 32.167 4.83301 46.5 14.5s26.833 23.5 37.5 41.5s18.834 39.5 24.501 64.5s8.5 53.167 8.5 84.5c0 50 -8.66699 96 -26 138s-41.5 78.167 -72.5 108.5s-68 54 -111 71
s-90.167 25.5 -141.5 25.5c-55.333 0 -106 -9.5 -152 -28.5s-85.667 -45.667 -119 -80s-59.333 -75.166 -78 -122.499s-28 -99 -28 -155s9.5 -107.5 28.5 -154.5s45.5 -87.667 79.5 -122s74.333 -61.166 121 -80.499s97.667 -29 153 -29c39.333 0 78.166 6 116.499 18
s76.5 29 114.5 51v-70c-38 -20.667 -76.333 -36.334 -115 -47.001s-77.334 -16 -116.001 -16c-66 0 -127 11.167 -183 33.5s-104.167 53.5 -144.5 93.5s-71.833 87.5 -94.5 142.5s-34 115.167 -34 180.5c0 66 11 126.5 33 181.5s53 102.333 93 142s87.667 70.667 143 93
s116 33.5 182 33.5c61.333 0 118 -10.167 170 -30.5s96.833 -48.5 134.5 -84.5s67.167 -78.5 88.5 -127.5s32 -102.167 32 -159.5c0 -40.667 -4.83301 -78 -14.5 -112s-23.334 -63.167 -41.001 -87.5s-38.834 -43.166 -63.501 -56.499s-52 -20 -82 -20
c-24.667 0 -47.167 5.16699 -67.5 15.5s-36.166 25.166 -47.499 44.499c-18 -18.667 -38.167 -33.334 -60.5 -44.001s-47.5 -16 -75.5 -16s-54 5.5 -78 16.5s-44.667 26.5 -62 46.5s-30.833 44 -40.5 72s-14.5 59 -14.5 93s4.83301 65 14.5 93s23.167 52.167 40.5 72.5
s38 36 62 47s50 16.5 78 16.5c22 0 43.333 -4.33301 64 -13s39.667 -20.667 57 -36v39h77v-306zM360.001 249.999c0 -24 3.16699 -46 9.5 -66s15.166 -37.167 26.499 -51.5s24.833 -25.5 40.5 -33.5s33.167 -12 52.5 -12c41.333 0 77 16.667 107 50v226
c-30 33.333 -65.667 50 -107 50c-19.333 0 -36.833 -4 -52.5 -12s-29.167 -19.167 -40.5 -33.5s-20.166 -31.5 -26.499 -51.5s-9.5 -42 -9.5 -66z" />
    <glyph glyph-name="A" unicode="A" horiz-adv-x="642" 
d="M287 688h67l274 -688h-82l-77 197h-296l-78 -197h-81zM197 260h248l-124 317z" />
    <glyph glyph-name="B" unicode="B" horiz-adv-x="606" 
d="M179 64h153c42.667 0 76.334 11.667 101.001 35s37 54 37 92s-12.333 68.667 -37 92s-58.334 35 -101.001 35h-153v-254zM179 381h137c39.333 0 71 11.333 95 34s36 52 36 88s-12 65.167 -36 87.5s-55.667 33.5 -95 33.5h-137v-243zM100 688h230
c29.333 0 56.166 -4.33301 80.499 -13s45.333 -21 63 -37s31.334 -35 41.001 -57s14.5 -46 14.5 -72c0 -36.667 -9.83301 -69 -29.5 -97s-46.5 -48 -80.5 -60c41.333 -11.333 73.833 -32 97.5 -62s35.5 -65 35.5 -105c0 -27.333 -5 -52.333 -15 -75s-24 -42.167 -42 -58.5
s-39.667 -29 -65 -38s-53 -13.5 -83 -13.5h-247v688z" />
    <glyph glyph-name="C" unicode="C" horiz-adv-x="616" 
d="M51 344c0 52 8 99.833 24 143.5s38.5 81.167 67.5 112.5s63.5 55.833 103.5 73.5s84 26.5 132 26.5c32 0 64 -4.33301 96 -13s63 -21 93 -37v-79c-30 20 -60.167 35 -90.5 45s-60.166 15 -89.499 15c-37.333 0 -71.5 -7 -102.5 -21s-57.5 -33.833 -79.5 -59.5
s-39.167 -56 -51.5 -91s-18.5 -73.5 -18.5 -115.5s6.16699 -80.5 18.5 -115.5s29.5 -65.333 51.5 -91s48.5 -45.5 79.5 -59.5s65.167 -21 102.5 -21c29.333 0 59.166 5 89.499 15s60.5 25 90.5 45v-79c-30 -16 -61 -28.333 -93 -37s-64 -13 -96 -13
c-48 0 -92 8.83301 -132 26.5s-74.5 42.167 -103.5 73.5s-51.5 68.833 -67.5 112.5s-24 91.5 -24 143.5z" />
    <glyph glyph-name="D" unicode="D" horiz-adv-x="700" 
d="M100 688h215c48.667 0 93.667 -8.5 135 -25.5s76.666 -40.667 105.999 -71s52.333 -66.5 69 -108.5s25 -88.333 25 -139s-8.33301 -97 -25 -139s-39.667 -78.167 -69 -108.5s-64.666 -54 -105.999 -71s-86.333 -25.5 -135 -25.5h-215v688zM181 66l129 -0.00195312
c38 0 72.667 6.83301 104 20.5s58.166 32.834 80.499 57.501s39.833 54 52.5 88s19 71.333 19 112s-6.33301 78 -19 112s-30.167 63.333 -52.5 88s-49.166 43.834 -80.499 57.501s-66 20.5 -104 20.5h-129v-556z" />
    <glyph glyph-name="E" unicode="E" horiz-adv-x="553" 
d="M100 688h393v-66h-312v-240h273v-65h-273v-251h320v-66h-401v688z" />
    <glyph glyph-name="F" unicode="F" horiz-adv-x="530" 
d="M100 688h393v-66h-312v-254h273v-67h-273v-301h-81v688z" />
    <glyph glyph-name="G" unicode="G" horiz-adv-x="677" 
d="M608 46c-74 -38.667 -148.662 -58.002 -223.995 -58.002c-48.667 0 -93.334 8.83301 -134.001 26.5s-75.834 42.167 -105.501 73.5s-52.667 68.833 -69 112.5s-24.5 91.5 -24.5 143.5s8.16699 99.833 24.5 143.5s39.166 81.167 68.499 112.5s64.333 55.833 105 73.5
s85.334 26.5 134.001 26.5c67.333 0 134 -18.333 200 -55v-80c-66 44.667 -129.667 67 -191 67c-38 0 -72.833 -7 -104.5 -21s-58.834 -33.667 -81.501 -59s-40.334 -55.666 -53.001 -90.999s-19 -74.333 -19 -117c0 -42 6.16699 -80.667 18.5 -116
s29.833 -65.833 52.5 -91.5s49.667 -45.5 81 -59.5s65.666 -21 102.999 -21c23.333 0 46.833 2.83301 70.5 8.5s47.5 13.834 71.5 24.501v202h-165v63h242v-308z" />
    <glyph glyph-name="H" unicode="H" horiz-adv-x="739" 
d="M100 688h81v-305h378v305h81v-688h-81v317h-378v-317h-81v688z" />
    <glyph glyph-name="I" unicode="I" horiz-adv-x="280" 
d="M100 688h81v-688h-81v688z" />
    <glyph glyph-name="J" unicode="J" horiz-adv-x="462" 
d="M366 180c0 -28 -4.83301 -53.833 -14.5 -77.5s-23.334 -44 -41.001 -61s-38.667 -30.167 -63 -39.5s-50.833 -14 -79.5 -14c-40.667 0 -84.667 10.333 -132 31v75c42.667 -24.667 82.334 -37 119.001 -37c38 0 69.167 12 93.5 36s36.5 55 36.5 93v502h81v-508z" />
    <glyph glyph-name="K" unicode="K" horiz-adv-x="612" 
d="M100 688h80v-312l308 312h101l-330 -338l340 -350h-105l-314 324v-324h-80v688z" />
    <glyph glyph-name="L" unicode="L" horiz-adv-x="501" 
d="M100 688h81v-622h298v-66h-379v688z" />
    <glyph glyph-name="M" unicode="M" horiz-adv-x="831" 
d="M100 688h72l244 -346l244 346h72v-688h-78v555l-212 -302h-53l-211 302v-555h-78v688z" />
    <glyph glyph-name="N" unicode="N" horiz-adv-x="739" 
d="M100 688h72l390 -555v555h78v-688h-72l-390 555v-555h-78v688z" />
    <glyph glyph-name="O" unicode="O" horiz-adv-x="739" 
d="M51 344c0 52 7.83301 99.833 23.5 143.5s37.5 81.334 65.5 113.001s61.5 56.167 100.5 73.5s82.167 26 129.5 26c46.667 0 89.5 -8.66699 128.5 -26s72.667 -41.833 101 -73.5s50.333 -69.334 66 -113.001s23.5 -91.5 23.5 -143.5s-7.83301 -99.833 -23.5 -143.5
s-37.667 -81.334 -66 -113.001s-62 -56.167 -101 -73.5s-81.833 -26 -128.5 -26c-47.333 0 -90.5 8.66699 -129.5 26s-72.5 41.833 -100.5 73.5s-49.833 69.334 -65.5 113.001s-23.5 91.5 -23.5 143.5zM135 344c0 -42 5.66699 -80.667 17 -116s27.333 -65.666 48 -90.999
s45.5 -45 74.5 -59s60.833 -21 95.5 -21s66.5 7 95.5 21s53.833 33.667 74.5 59s36.667 55.666 48 90.999s17 74 17 116s-5.66699 80.667 -17 116s-27.333 65.666 -48 90.999s-45.5 45 -74.5 59s-60.833 21 -95.5 21s-66.5 -7 -95.5 -21s-53.833 -33.667 -74.5 -59
s-36.667 -55.666 -48 -90.999s-17 -74 -17 -116z" />
    <glyph glyph-name="P" unicode="P" horiz-adv-x="585" 
d="M100 688h213c34 0 65.167 -5.16699 93.5 -15.5s52.666 -24.833 72.999 -43.5s36.333 -41 48 -67s17.5 -54.667 17.5 -86s-5.83301 -60 -17.5 -86s-27.667 -48.333 -48 -67s-44.666 -33.167 -72.999 -43.5s-59.5 -15.5 -93.5 -15.5h-133v-264h-80v688zM180 329h121
c24 0 45.833 3.5 65.5 10.5s36.5 17 50.5 30s25 28.5 33 46.5s12 38 12 60s-4 42 -12 60s-19 33.5 -33 46.5s-30.833 23 -50.5 30s-41.5 10.5 -65.5 10.5h-121v-294z" />
    <glyph glyph-name="Q" unicode="Q" horiz-adv-x="739" 
d="M51 344c0 52 7.83301 99.832 23.5 143.499s37.5 81.334 65.5 113.001s61.5 56.167 100.5 73.5s82.167 26 129.5 26c46.667 0 89.5 -8.66699 128.5 -26s72.667 -41.833 101 -73.5s50.333 -69.334 66 -113.001s23.5 -91.5 23.5 -143.5c0 -66.667 -12.333 -126 -37 -178
s-59 -93 -103 -123l136 -145h-98l-103 112c-36.667 -14.667 -74.667 -22 -114 -22c-47.333 0 -90.5 8.66699 -129.5 26s-72.5 41.833 -100.5 73.5s-49.833 69.334 -65.5 113.001s-23.5 91.5 -23.5 143.5zM135 343.999c0 -42 5.66699 -80.667 17 -116
s27.333 -65.666 48 -90.999s45.5 -45 74.5 -59s60.833 -21 95.5 -21s66.5 7 95.5 21s53.833 33.667 74.5 59s36.667 55.666 48 90.999s17 74 17 116s-5.66699 80.667 -17 116s-27.333 65.666 -48 90.999s-45.5 45 -74.5 59s-60.833 21 -95.5 21s-66.5 -7 -95.5 -21
s-53.833 -33.667 -74.5 -59s-36.667 -55.666 -48 -90.999s-17 -74 -17 -116z" />
    <glyph glyph-name="R" unicode="R" horiz-adv-x="606" 
d="M180 337l117 -0.000976562c23.333 0 44.666 3.5 63.999 10.5s35.833 16.833 49.5 29.5s24.334 27.667 32.001 45s11.5 36.666 11.5 57.999c0 20.667 -3.83301 39.834 -11.5 57.501s-18.334 32.834 -32.001 45.501s-30.167 22.5 -49.5 29.5s-40.666 10.5 -63.999 10.5
h-117v-286zM100 687.999l209.001 0.000976562c33.333 0 64 -5 92 -15s52.167 -24.167 72.5 -42.5s36.166 -40.333 47.499 -66s17 -53.834 17 -84.501c0 -50 -14 -92.333 -42 -127s-66.333 -58.667 -115 -72l175 -281h-90l-168 272h-118v-272h-80v688z" />
    <glyph glyph-name="S" unicode="S" horiz-adv-x="544" 
d="M67 119c31.333 -20.667 62.6709 -36.4961 94.0039 -47.4961s62.333 -16.5 93 -16.5c23.333 0 44.666 3.16699 63.999 9.5s36 15 50 26s24.833 24.167 32.5 39.5s11.5 32.333 11.5 51c0 29.333 -8.83301 52.333 -26.5 69s-39.667 30.667 -66 42s-55 21.666 -86 30.999
s-59.667 21.5 -86 36.5s-48.333 34.167 -66 57.5s-26.5 54.666 -26.5 93.999c0 28 5.5 53.667 16.5 77s26.667 43.166 47 59.499s44.5 29.166 72.5 38.499s59 14 93 14c29.333 0 58.666 -3.33301 87.999 -10s59 -16.667 89 -30v-81c-57.333 36 -114.333 54 -171 54
c-23.333 0 -44.333 -3 -63 -9s-34.834 -14.167 -48.501 -24.5s-24.167 -22.833 -31.5 -37.5s-11 -31 -11 -49c0 -28.667 8.83301 -51.167 26.5 -67.5s39.667 -30 66 -41s55 -21.333 86 -31s59.667 -22 86 -37s48.333 -34.333 66 -58s26.5 -55.5 26.5 -95.5
c0 -28.667 -5.66699 -55 -17 -79s-27.333 -44.5 -48 -61.5s-45.334 -30.333 -74.001 -40s-60 -14.5 -94 -14.5c-32 0 -64.167 4 -96.5 12s-64.5 20 -96.5 36v83z" />
    <glyph glyph-name="T" unicode="T" horiz-adv-x="587" 
d="M253 622h-224v66h528v-66h-223v-622h-81v622z" />
    <glyph glyph-name="U" unicode="U" horiz-adv-x="739" 
d="M644 253c0 -38.667 -6.83398 -74.167 -20.501 -106.5s-32.5 -60.333 -56.5 -84s-52.833 -42 -86.5 -55s-70.5 -19.5 -110.5 -19.5s-76.833 6.5 -110.5 19.5s-62.667 31.333 -87 55s-43.166 51.667 -56.499 84s-20 67.833 -20 106.5v435h81v-429
c0 -29.333 4.83301 -56.333 14.5 -81s23 -46 40 -64s37.333 -32 61 -42s49.5 -15 77.5 -15s53.833 5 77.5 15s44 24 61 42s30.333 39.333 40 64s14.5 51.667 14.5 81v429h81v-435z" />
    <glyph glyph-name="V" unicode="V" horiz-adv-x="642" 
d="M354 0h-67l-273 688h83l224 -571l223 571h84z" />
    <glyph glyph-name="W" unicode="W" horiz-adv-x="1029" 
d="M775 0h-71l-190 581l-188 -581h-72l-235 688h82l189 -581l189 581h71l189 -581l189 581h82z" />
    <glyph glyph-name="X" unicode="X" horiz-adv-x="642" 
d="M272 350l-240 338h96l193 -280l194 280h95l-240 -338l248 -350h-97l-200 292l-199 -292h-98z" />
    <glyph glyph-name="Y" unicode="Y" horiz-adv-x="595" 
d="M257 299l-247 389h93l194 -315l195 315h94l-247 -389v-299h-82v299z" />
    <glyph glyph-name="Z" unicode="Z" horiz-adv-x="618" 
d="M43 52l414 570h-394v66h495v-52l-413 -570h420v-66h-522v52z" />
    <glyph glyph-name="bracketleft" unicode="[" horiz-adv-x="321" 
d="M105 719h187v-62h-109v-751h109v-62h-187v875z" />
    <glyph glyph-name="backslash" unicode="\" horiz-adv-x="375" 
d="M38 719h81l219 -875h-81z" />
    <glyph glyph-name="bracketright" unicode="]" horiz-adv-x="321" 
d="M216 -156h-187v62h109v751h-109v62h187v-875z" />
    <glyph glyph-name="asciicircum" unicode="^" horiz-adv-x="563" 
d="M253 688h57l215 -500h-74l-169 394l-170 -394h-74z" />
    <glyph glyph-name="underscore" unicode="_" horiz-adv-x="500" 
d="M0 -94h500v-63h-500v63z" />
    <glyph glyph-name="grave" unicode="`" 
d="M-9 719h83l102 -148h-68z" />
    <glyph glyph-name="a" unicode="a" horiz-adv-x="510" 
d="M358 52c-24 -21.333 -49.5 -37.3301 -76.5 -47.9971s-54.5 -16 -82.5 -16c-23.333 0 -44.5 3.5 -63.5 10.5s-35.333 16.833 -49 29.5s-24.334 27.667 -32.001 45s-11.5 36.666 -11.5 57.999c0 25.333 5.83301 48.5 17.5 69.5s27.834 39.167 48.501 54.5
s45.5 27.166 74.5 35.499s61.167 12.5 96.5 12.5c26.667 0 52.667 -1 78 -3v43c0 31.333 -10.667 56.833 -32 76.5s-49 29.5 -83 29.5c-50.667 0 -103 -15 -157 -45v69c56 26 111 39 165 39c27.333 0 52.333 -4.16699 75 -12.5s42 -20 58 -35s28.5 -32.833 37.5 -53.5
s13.5 -43.334 13.5 -68.001v-343h-77v52zM123 140.003c0 -26 9 -47.333 27 -64s41.333 -25 70 -25c23.333 0 46.833 6 70.5 18s46.167 28.667 67.5 50v127c-12 1.33301 -24 2.33301 -36 3s-24.667 1 -38 1c-48 0 -86.833 -10.167 -116.5 -30.5s-44.5 -46.833 -44.5 -79.5z
" />
    <glyph glyph-name="b" unicode="b" horiz-adv-x="567" 
d="M443 250c0 28.667 -3.83301 55 -11.5 79s-18.334 44.5 -32.001 61.5s-30 30.333 -49 40s-39.833 14.5 -62.5 14.5c-46 0 -89 -20 -129 -60v-270c40 -40 83 -60 129 -60c22.667 0 43.5 4.83301 62.5 14.5s35.333 23 49 40s24.334 37.5 32.001 61.5s11.5 50.333 11.5 79z
M80 719h79v-263c43.333 37.333 90.333 56 141 56c32.667 0 62.834 -6.5 90.501 -19.5s51.5 -31 71.5 -54s35.5 -50.5 46.5 -82.5s16.5 -67.333 16.5 -106s-5.5 -74 -16.5 -106s-26.5 -59.5 -46.5 -82.5s-43.833 -41 -71.5 -54s-57.834 -19.5 -90.501 -19.5
c-50.667 0 -97.667 19 -141 57v-45h-79v719z" />
    <glyph glyph-name="c" unicode="c" horiz-adv-x="475" 
d="M43 250c0 38.667 6 74 18 106s28.833 59.5 50.5 82.5s47.5 41 77.5 54s63 19.5 99 19.5c49.333 0 96.666 -11.667 141.999 -35v-74c-21.333 14.667 -43.166 25.5 -65.499 32.5s-44.166 10.5 -65.499 10.5c-25.333 0 -48.833 -4.83301 -70.5 -14.5
s-40.167 -23.167 -55.5 -40.5s-27.333 -38 -36 -62s-13 -50.333 -13 -79s4.33301 -55 13 -79s20.667 -44.667 36 -62s33.833 -30.833 55.5 -40.5s45.167 -14.5 70.5 -14.5c21.333 0 43.166 3.5 65.499 10.5s44.166 17.833 65.499 32.5v-74
c-45.333 -23.333 -92.666 -35 -141.999 -35c-36 0 -69 6.5 -99 19.5s-55.833 31 -77.5 54s-38.5 50.667 -50.5 83s-18 67.5 -18 105.5z" />
    <glyph glyph-name="d" unicode="d" horiz-adv-x="567" 
d="M124 250c0 -28.667 3.83301 -55 11.5 -79s18.334 -44.5 32.001 -61.5s30 -30.333 49 -40s40.167 -14.5 63.5 -14.5c46.667 0 89.334 20 128.001 60v270c-38.667 40 -81.334 60 -128.001 60c-23.333 0 -44.5 -4.83301 -63.5 -14.5s-35.333 -23 -49 -40
s-24.334 -37.5 -32.001 -61.5s-11.5 -50.333 -11.5 -79zM488 0h-80v45c-42 -38 -89 -57 -141 -57c-33.333 0 -63.666 6.5 -90.999 19.5s-50.833 31 -70.5 54s-35 50.5 -46 82.5s-16.5 67.333 -16.5 106s5.5 74 16.5 106s26.333 59.5 46 82.5s43.167 41 70.5 54
s57.666 19.5 90.999 19.5c25.333 0 50 -4.83301 74 -14.5s46.333 -23.5 67 -41.5v263h80v-719z" />
    <glyph glyph-name="e" unicode="e" horiz-adv-x="518" 
d="M43 254c0 38 5.83496 72.6689 17.502 104.002s27.667 58.5 48 81.5s44.666 40.833 72.999 53.5s59.5 19 93.5 19c30.667 0 58.5 -6 83.5 -18s46.5 -28.833 64.5 -50.5s31.833 -47.5 41.5 -77.5s14.5 -63 14.5 -99v-17.5c0 -5.66699 -0.333008 -11.5 -1 -17.5h-355
c0.666992 -26.667 5.66699 -51.167 15 -73.5s21.666 -41.5 36.999 -57.5s33.5 -28.333 54.5 -37s43.833 -13 68.5 -13c23.333 0 47.5 4.16699 72.5 12.5s49.833 20.166 74.5 35.499v-72c-52 -26 -104.333 -39 -157 -39c-36 0 -69 6.5 -99 19.5s-55.833 31.333 -77.5 55
s-38.5 51.667 -50.5 84s-18 68.166 -18 107.499zM401.002 288.002c-0.666992 48 -12.833 86.833 -36.5 116.5s-54.5 44.5 -92.5 44.5c-42 0 -76.5 -14.833 -103.5 -44.5s-42.167 -68.5 -45.5 -116.5h278z" />
    <glyph glyph-name="f" unicode="f" horiz-adv-x="366" 
d="M117 437h-95.9971v63h96v85c0 21.333 3.66699 41 11 59s17.666 33.5 30.999 46.5s29.333 23 48 30s39 10.5 61 10.5c15.333 0 31.166 -1.83301 47.499 -5.5s33.166 -9.16699 50.499 -16.5v-69c-30 16.667 -57.667 25 -83 25c-26 0 -47 -8 -63 -24s-24 -37.333 -24 -64
v-77h148v-63h-148v-437h-79v437z" />
    <glyph glyph-name="g" unicode="g" horiz-adv-x="567" 
d="M488 -8c0 -32.667 -5.66699 -62.667 -17 -90s-27.333 -50.833 -48 -70.5s-45.167 -35 -73.5 -46s-59.5 -16.5 -93.5 -16.5c-54.667 0 -110 12.667 -166 38v73c27.333 -15.333 54.333 -27 81 -35s52.667 -12 78 -12c23.333 0 44.833 4 64.5 12s36.5 19 50.5 33
s24.833 30.833 32.5 50.5s11.5 41.167 11.5 64.5v52c-42 -38 -89 -57 -141 -57c-33.333 0 -63.666 6.5 -90.999 19.5s-50.833 31 -70.5 54s-35 50.5 -46 82.5s-16.5 67.333 -16.5 106s5.5 74 16.5 106s26.333 59.5 46 82.5s43.167 41 70.5 54s57.666 19.5 90.999 19.5
c25.333 0 50 -4.83301 74 -14.5s46.333 -23.5 67 -41.5v44h80v-508zM124 250c0 -28.667 3.83301 -55 11.5 -79s18.334 -44.5 32.001 -61.5s30 -30.333 49 -40s40.167 -14.5 63.5 -14.5c46.667 0 89.334 20 128.001 60v270c-38.667 40 -81.334 60 -128.001 60
c-23.333 0 -44.5 -4.83301 -63.5 -14.5s-35.333 -23 -49 -40s-24.334 -37.5 -32.001 -61.5s-11.5 -50.333 -11.5 -79z" />
    <glyph glyph-name="h" unicode="h" horiz-adv-x="567" 
d="M80 719l79.002 -0.000976562v-274c48.667 44.667 101.667 67 159 67c25.333 0 48.666 -4.33301 69.999 -13s39.666 -20.667 54.999 -36s27.333 -33.666 36 -54.999s13 -45 13 -71v-337h-80v326c0 34.667 -10.5 63 -31.5 85s-48.5 33 -82.5 33c-24 0 -47.833 -6 -71.5 -18
s-46.167 -29.667 -67.5 -53v-373h-79v719z" />
    <glyph glyph-name="i" unicode="i" horiz-adv-x="239" 
d="M80 500h79v-500h-79v500zM70 645c0 14.667 4.66699 26.5 14 35.5s21 13.5 35 13.5c14.667 0 26.667 -4.5 36 -13.5s14 -20.833 14 -35.5s-4.66699 -26.5 -14 -35.5s-21.333 -13.5 -36 -13.5c-14 0 -25.667 4.5 -35 13.5s-14 20.833 -14 35.5z" />
    <glyph glyph-name="j" unicode="j" horiz-adv-x="239" 
d="M70 645c0 14.667 4.66699 26.5 14 35.5s21 13.5 35 13.5c14.667 0 26.667 -4.5 36 -13.5s14 -20.833 14 -35.5s-4.66699 -26.5 -14 -35.5s-21.333 -13.5 -36 -13.5c-14 0 -25.667 4.5 -35 13.5s-14 20.833 -14 35.5zM159 -85c0 -21.333 -3.66797 -40.833 -11.001 -58.5
s-17.666 -33 -30.999 -46s-29.333 -23.167 -48 -30.5s-39 -11 -61 -11c-29.333 0 -62 7.66699 -98 23v69c14.667 -8 28.834 -14.333 42.501 -19s27.167 -7 40.5 -7c25.333 0 46.166 8.16699 62.499 24.5s24.5 37.5 24.5 63.5v577h79v-585z" />
    <glyph glyph-name="k" unicode="k" horiz-adv-x="482" 
d="M80 719h78v-435l203 216h97l-230 -246l238 -254h-100l-208 224v-224h-78v719z" />
    <glyph glyph-name="l" unicode="l" horiz-adv-x="239" 
d="M80 719h79v-719h-79v719z" />
    <glyph glyph-name="m" unicode="m" horiz-adv-x="862" 
d="M80 500l79.001 0.000976562v-52c48 42.667 99 64 153 64c32 0 60.333 -6.66699 85 -20s43.667 -32.666 57 -57.999c53.333 52 110.666 78 171.999 78c24 0 45.833 -4 65.5 -12s36.5 -19.333 50.5 -34s25 -32.167 33 -52.5s12 -42.833 12 -67.5v-346h-80v335
c0 32 -9.33301 58.167 -28 78.5s-43 30.5 -73 30.5c-22 0 -44.333 -5.83301 -67 -17.5s-44.667 -28.834 -66 -51.501v-375h-79v335c0 32 -9.5 58.167 -28.5 78.5s-43.5 30.5 -73.5 30.5c-22 0 -44.333 -5.83301 -67 -17.5s-44.667 -28.834 -66 -51.501v-375h-79v500z" />
    <glyph glyph-name="n" unicode="n" horiz-adv-x="567" 
d="M80 500l79.002 -0.000976562v-55c48.667 44.667 101.667 67 159 67c25.333 0 48.666 -4.33301 69.999 -13s39.666 -20.667 54.999 -36s27.333 -33.666 36 -54.999s13 -45 13 -71v-337h-80v326c0 34.667 -10.5 63 -31.5 85s-48.5 33 -82.5 33c-24 0 -47.833 -6 -71.5 -18
s-46.167 -29.667 -67.5 -53v-373h-79v500z" />
    <glyph glyph-name="o" unicode="o" horiz-adv-x="567" 
d="M43 250c0 38.667 5.83301 74 17.5 106s28.167 59.5 49.5 82.5s46.833 41 76.5 54s62.167 19.5 97.5 19.5s67.666 -6.5 96.999 -19.5s54.666 -31 75.999 -54s38 -50.5 50 -82.5s18 -67.333 18 -106s-6 -74 -18 -106s-28.667 -59.5 -50 -82.5s-46.666 -41 -75.999 -54
s-61.666 -19.5 -96.999 -19.5s-67.833 6.5 -97.5 19.5s-55.167 31 -76.5 54s-37.833 50.5 -49.5 82.5s-17.5 67.333 -17.5 106zM124 250c0 -28.667 4 -55 12 -79s19 -44.667 33 -62s30.833 -30.833 50.5 -40.5s41.167 -14.5 64.5 -14.5s44.666 4.83301 63.999 14.5
s36 23.167 50 40.5s25 38 33 62s12 50.333 12 79s-4 55 -12 79s-19 44.667 -33 62s-30.667 30.833 -50 40.5s-40.666 14.5 -63.999 14.5s-44.833 -4.83301 -64.5 -14.5s-36.5 -23.167 -50.5 -40.5s-25 -38 -33 -62s-12 -50.333 -12 -79z" />
    <glyph glyph-name="p" unicode="p" horiz-adv-x="567" 
d="M443 250c0 28.667 -3.83301 55 -11.5 79s-18.334 44.5 -32.001 61.5s-30 30.333 -49 40s-39.833 14.5 -62.5 14.5c-46 0 -89 -20 -129 -60v-270c40 -40 83 -60 129 -60c22.667 0 43.5 4.83301 62.5 14.5s35.333 23 49 40s24.334 37.5 32.001 61.5s11.5 50.333 11.5 79z
M80 500h79v-44c43.333 37.333 90.333 56 141 56c32.667 0 62.834 -6.5 90.501 -19.5s51.5 -31 71.5 -54s35.5 -50.5 46.5 -82.5s16.5 -67.333 16.5 -106s-5.5 -74 -16.5 -106s-26.5 -59.5 -46.5 -82.5s-43.833 -41 -71.5 -54s-57.834 -19.5 -90.501 -19.5
c-50.667 0 -97.667 19 -141 57v-264h-79v719z" />
    <glyph glyph-name="q" unicode="q" horiz-adv-x="567" 
d="M124 250c0 -28.667 3.83301 -55 11.5 -79s18.334 -44.5 32.001 -61.5s30 -30.333 49 -40s40.167 -14.5 63.5 -14.5c46.667 0 89.334 20 128.001 60v270c-38.667 40 -81.334 60 -128.001 60c-23.333 0 -44.5 -4.83301 -63.5 -14.5s-35.333 -23 -49 -40
s-24.334 -37.5 -32.001 -61.5s-11.5 -50.333 -11.5 -79zM488 -219h-80v264c-42 -38 -89 -57 -141 -57c-33.333 0 -63.666 6.5 -90.999 19.5s-50.833 31 -70.5 54s-35 50.5 -46 82.5s-16.5 67.333 -16.5 106s5.5 74 16.5 106s26.333 59.5 46 82.5s43.167 41 70.5 54
s57.666 19.5 90.999 19.5c25.333 0 50 -4.83301 74 -14.5s46.333 -23.5 67 -41.5v44h80v-719z" />
    <glyph glyph-name="r" unicode="r" horiz-adv-x="376" 
d="M80 500h78.998v-60c19.333 23.333 41 41.166 65 53.499s48.333 18.5 73 18.5c16.667 0 33 -2.33301 49 -7v-72c-18 5.33301 -35.667 8 -53 8c-23.333 0 -46.666 -6.66699 -69.999 -20s-44.666 -32.666 -63.999 -57.999v-363h-79v500z" />
    <glyph glyph-name="s" unicode="s" horiz-adv-x="422" 
d="M56 99c46.667 -31.333 93.334 -47.001 140.001 -47.001c30 0 55 7.5 75 22.5s30 34.833 30 59.5c0 19.333 -6.33301 34.5 -19 45.5s-28.334 20.333 -47.001 28s-39 15 -61 22s-42.333 16 -61 27s-34.334 25.167 -47.001 42.5s-19 40.333 -19 69
c0 21.333 4.33301 40.833 13 58.5s20.667 32.834 36 45.501s33.666 22.5 54.999 29.5s44.666 10.5 69.999 10.5c44.667 0 89.334 -9.66699 134.001 -29v-74c-42 26 -84.667 39 -128 39c-30 0 -54.333 -7.16699 -73 -21.5s-28 -33.166 -28 -56.499
c0 -18.667 6.33301 -33.334 19 -44.001s28.334 -19.667 47.001 -27s39 -14.5 61 -21.5s42.333 -16 61 -27s34.334 -25.5 47.001 -43.5s19 -41.667 19 -71c0 -22 -4.33301 -42 -13 -60s-21 -33.5 -37 -46.5s-35 -23.167 -57 -30.5s-46 -11 -72 -11
c-48 0 -96.333 11.667 -145 35v76z" />
    <glyph glyph-name="t" unicode="t" horiz-adv-x="405" 
d="M196 500h169.998v-63h-170v-295c0 -26 8 -47.167 24 -63.5s37 -24.5 63 -24.5c12.667 0 25.834 2.33301 39.501 7s28.167 11 43.5 19v-69c-36 -15.333 -68.667 -23 -98 -23c-22 0 -42.333 3.66699 -61 11s-34.667 17.5 -48 30.5s-23.666 28.333 -30.999 46
s-11 37.167 -11 58.5v303h-96v63h96v141h79v-141z" />
    <glyph glyph-name="u" unicode="u" horiz-adv-x="567" 
d="M488 0h-80v56c-48.667 -45.333 -101.334 -68 -158.001 -68c-25.333 0 -48.666 4.33301 -69.999 13s-39.666 20.667 -54.999 36s-27.333 33.833 -36 55.5s-13 45.167 -13 70.5v337h79v-326c0 -34.667 10.667 -63 32 -85s49 -33 83 -33c24 0 47.667 6 71 18
s45.666 29.667 66.999 53v373h80v-500z" />
    <glyph glyph-name="v" unicode="v" horiz-adv-x="497" 
d="M281 0h-65l-199 500h82l149 -391l151 391h81z" />
    <glyph glyph-name="w" unicode="w" horiz-adv-x="778" 
d="M587 0h-71l-127 398l-127 -398h-71l-170 500h79l127 -398l127 398h71l126 -398l127 398h79z" />
    <glyph glyph-name="x" unicode="x" horiz-adv-x="501" 
d="M203 254l-173 246h91l129 -190l131 190h90l-172 -246l179 -254h-93l-135 198l-133 -198h-93z" />
    <glyph glyph-name="y" unicode="y" horiz-adv-x="497" 
d="M195 -219h-78l94 232l-194 487h82l149 -391l151 391h81z" />
    <glyph glyph-name="z" unicode="z" horiz-adv-x="477" 
d="M41 48l283 389h-268v63h367v-47l-282 -389h287v-64h-387v48z" />
    <glyph glyph-name="braceleft" unicode="{" horiz-adv-x="321" 
d="M292 657l-10 0.00195312c-27.333 0 -49.5 -8.83301 -66.5 -26.5s-25.5 -40.5 -25.5 -68.5v-156c0 -30 -7.5 -56 -22.5 -78s-35.833 -37.333 -62.5 -46c26.667 -9.33301 47.5 -25 62.5 -47s22.5 -48 22.5 -78v-156c0 -28 8.5 -50.833 25.5 -68.5s39.167 -26.5 66.5 -26.5
h10v-62h-21c-23.333 0 -44.666 3.66699 -63.999 11s-36 17.833 -50 31.5s-25 29.667 -33 48s-12 38.5 -12 60.5v157c0 29.333 -7.5 53.166 -22.5 71.499s-34.167 27.5 -57.5 27.5h-11v61h11c23.333 0 42.5 9.16699 57.5 27.5s22.5 42.166 22.5 71.499v157
c0 22 4 42.167 12 60.5s19 34.333 33 48s30.667 24.167 50 31.5s40.666 11 63.999 11h21v-62z" />
    <glyph glyph-name="bar" unicode="|" 
d="M91 751h69v-1001h-69v1001z" />
    <glyph glyph-name="braceright" unicode="}" horiz-adv-x="321" 
d="M29 -94l10 -0.00195312c27.333 0 49.5 8.83301 66.5 26.5s25.5 40.5 25.5 68.5v156c0 30 7.5 56 22.5 78s36.167 37.667 63.5 47c-27.333 8.66699 -48.5 24 -63.5 46s-22.5 48 -22.5 78v156c0 28 -8.5 50.833 -25.5 68.5s-39.167 26.5 -66.5 26.5h-10v62h22
c23.333 0 44.666 -3.66699 63.999 -11s36 -17.833 50 -31.5s24.833 -29.667 32.5 -48s11.5 -38.5 11.5 -60.5v-157c0 -29.333 7.5 -53.166 22.5 -71.499s34.167 -27.5 57.5 -27.5h10v-61h-10c-23.333 0 -42.5 -9.16699 -57.5 -27.5s-22.5 -42.166 -22.5 -71.499v-157
c0 -22 -3.83301 -42.167 -11.5 -60.5s-18.5 -34.333 -32.5 -48s-30.667 -24.167 -50 -31.5s-40.666 -11 -63.999 -11h-22v62z" />
    <glyph glyph-name="asciitilde" unicode="~" horiz-adv-x="563" 
d="M35 208c0 24 3.33301 45.833 10 65.5s16 36.667 28 51s26.333 25.5 43 33.5s35.334 12 56.001 12c24.667 0 46.5 -5.66699 65.5 -17s36.667 -23.666 53 -36.999l46.5 -37c14.667 -11.333 30.334 -17 47.001 -17c22 0 40.167 8.5 54.5 25.5s21.5 39.5 21.5 67.5h68
c0 -24 -3.33301 -45.833 -10 -65.5s-16 -36.667 -28 -51s-26.333 -25.5 -43 -33.5s-35.334 -12 -56.001 -12c-24.667 0 -46.5 5.66699 -65.5 17s-36.667 23.666 -53 36.999l-46.5 37c-14.667 11.333 -30.334 17 -47.001 17c-22 0 -40.167 -8.5 -54.5 -25.5
s-21.5 -39.5 -21.5 -67.5h-68z" />
    <glyph glyph-name="uni00A0" unicode="&#xa0;" 
 />
    <glyph glyph-name="exclamdown" unicode="&#xa1;" horiz-adv-x="267" 
d="M174 -188h-81v493h81v-493zM187 459c0 -16 -5 -29 -15 -39s-23 -15 -39 -15c-15.333 0 -28 5 -38 15s-15 23 -15 39c0 15.333 5 28 15 38s22.667 15 38 15c16 0 29 -5 39 -15s15 -22.667 15 -38z" />
    <glyph glyph-name="cent" unicode="&#xa2;" horiz-adv-x="563" 
d="M285 87c-29.333 4.66699 -56.166 14.3369 -80.499 29.0039s-45.166 33.167 -62.499 55.5s-30.833 48.166 -40.5 77.499s-14.5 61 -14.5 95s4.83301 65.667 14.5 95s23.167 55.166 40.5 77.499s38.166 40.666 62.499 54.999s51.166 24.166 80.499 29.499v150h69v-146
c20.667 -1.33301 41 -5 61 -11s39.667 -13.667 59 -23v-74c-21.333 14.667 -43.166 25.5 -65.499 32.5s-44.166 10.5 -65.499 10.5c-25.333 0 -48.666 -4.83301 -69.999 -14.5s-39.666 -23.167 -54.999 -40.5s-27.333 -38 -36 -62s-13 -50.333 -13 -79s4.33301 -55 13 -79
s20.667 -44.667 36 -62s33.666 -30.833 54.999 -40.5s44.666 -14.5 69.999 -14.5c21.333 0 43.166 3.5 65.499 10.5s44.166 17.833 65.499 32.5v-74c-39.333 -20 -79.333 -31.333 -120 -34v-146h-69v150z" />
    <glyph glyph-name="sterling" unicode="&#xa3;" horiz-adv-x="563" 
d="M59 44l80 274h-73v64h91l53 179c12 42.667 33.5 76.5 64.5 101.5s67.5 37.5 109.5 37.5c36 0 71 -8 105 -24v-73c-32 18.667 -63 28 -93 28c-26.667 0 -49.667 -8.16699 -69 -24.5s-33.333 -38.5 -42 -66.5l-46 -158h156v-64h-175l-73 -252h365v-66h-453v44z" />
    <glyph glyph-name="currency" unicode="&#xa4;" horiz-adv-x="563" 
d="M80 344c0 23.333 3.00293 44.8311 9.00293 64.498s14.667 37.5 26 53.5l-90 90l49 48l90 -90c33.333 24 72.666 36 117.999 36c44.667 0 83.667 -12 117 -36l91 90l48 -48l-91 -90c11.333 -16.667 20.166 -34.667 26.499 -54s9.5 -40.666 9.5 -63.999
c0 -45.333 -12 -84.666 -36 -117.999l91 -90l-48 -48l-91 90c-32.667 -23.333 -71.667 -35 -117 -35c-46.667 0 -86.334 11.667 -119.001 35l-90 -90l-48 48l90 90c-11.333 16 -20 33.833 -26 53.5s-9 41.167 -9 64.5zM144.003 343.998
c0 -20 3.33398 -38.332 10.001 -54.999s16.167 -31.167 28.5 -43.5s27 -21.833 44 -28.5s35.5 -10 55.5 -10s38.333 3.33301 55 10s31.167 16.167 43.5 28.5s21.833 26.833 28.5 43.5s10 35 10 55s-3.33301 38.5 -10 55.5s-16.167 31.667 -28.5 44
s-26.833 21.833 -43.5 28.5s-35 10 -55 10c-40.667 0 -73.834 -12.833 -99.501 -38.5s-38.5 -58.834 -38.5 -99.501z" />
    <glyph glyph-name="yen" unicode="&#xa5;" horiz-adv-x="563" 
d="M241 150h-155v57h155v98h-155v57h135l-208 326h93l176 -284l175 284h93l-208 -326h135v-57h-155v-98h155v-57h-155v-150h-81v150z" />
    <glyph glyph-name="brokenbar" unicode="&#xa6;" 
d="M91 688h69v-375h-69v375zM91 188h69v-376h-69v376z" />
    <glyph glyph-name="section" unicode="&#xa7;" horiz-adv-x="495" 
d="M69 -19c52 -34 104.67 -50.9951 158.003 -50.9951c36 0 65 8.83301 87 26.5s33 40.5 33 68.5c0 22 -7.16699 39.667 -21.5 53s-32 24.666 -53 33.999s-44 18.333 -69 27s-48 19.5 -69 32.5s-38.667 29.667 -53 50s-21.5 47.166 -21.5 80.499
c0 23.333 5.16699 46.166 15.5 68.499s25.166 43.166 44.499 62.499c-16 13.333 -28.167 29.166 -36.5 47.499s-12.5 38.166 -12.5 59.499c0 23.333 4.66699 44.833 14 64.5s22.5 36.5 39.5 50.5s37.333 25 61 33s49.5 12 77.5 12c50 0 99.667 -11 149 -33v-77
c-46.667 28.667 -94.334 43 -143.001 43c-34.667 0 -62.834 -8.5 -84.501 -25.5s-32.5 -38.833 -32.5 -65.5c0 -21.333 7.16699 -38.333 21.5 -51s32 -23.667 53 -33s44 -18.333 69 -27s48 -19.667 69 -33s38.667 -30.5 53 -51.5s21.5 -48.167 21.5 -81.5
c0 -47.333 -19.333 -90.333 -58 -129c15.333 -13.333 27 -29.5 35 -48.5s12 -39.167 12 -60.5c0 -24 -4.83301 -46.167 -14.5 -66.5s-23 -37.666 -40 -51.999s-37.667 -25.5 -62 -33.5s-50.833 -12 -79.5 -12c-54 0 -108.333 12.667 -163 38v80zM184.003 397.005
c-14.667 -12.667 -26.167 -26.8311 -34.5 -42.498s-12.5 -32.167 -12.5 -49.5c0 -20.667 5.5 -37.5 16.5 -50.5s25.333 -24.167 43 -33.5s37.167 -17.666 58.5 -24.999s42 -15.333 62 -24c14 12 25 25.667 33 41s12 31.666 12 48.999c0 21.333 -5.33301 38.666 -16 51.999
s-24.5 24.666 -41.5 33.999s-36 17.5 -57 24.5s-42.167 15.167 -63.5 24.5z" />
    <glyph glyph-name="dieresis" unicode="&#xa8;" 
d="M178 645c0 14.667 4.33301 26.334 13 35.001s20.334 13 35.001 13c14 0 25.667 -4.33301 35 -13s14 -20.334 14 -35.001c0 -14 -4.66699 -25.667 -14 -35s-21 -14 -35 -14c-14.667 0 -26.334 4.66699 -35.001 14s-13 21 -13 35zM-24 645c0 14.667 4.5 26.334 13.5 35.001
s20.5 13 34.5 13c14.667 0 26.5 -4.33301 35.5 -13s13.5 -20.334 13.5 -35.001c0 -14 -4.5 -25.667 -13.5 -35s-20.833 -14 -35.5 -14c-14 0 -25.5 4.66699 -34.5 14s-13.5 21 -13.5 35z" />
    <glyph glyph-name="copyright" unicode="&#xa9;" horiz-adv-x="845" 
d="M63 344c0 52.667 8.83301 101 26.5 145s42.334 82 74.001 114s69.5 56.833 113.5 74.5s92.333 26.5 145 26.5s101 -8.83301 145 -26.5s82 -42.5 114 -74.5s56.833 -70 74.5 -114s26.5 -92.333 26.5 -145s-8.83301 -101 -26.5 -145s-42.5 -82 -74.5 -114
s-70 -56.833 -114 -74.5s-92.333 -26.5 -145 -26.5s-101 8.83301 -145 26.5s-81.833 42.5 -113.5 74.5s-56.334 70 -74.001 114s-26.5 92.333 -26.5 145zM116 344c0 -45.333 7.5 -86.666 22.5 -123.999s36 -69.666 63 -96.999s59.333 -48.5 97 -63.5
s78.834 -22.5 123.501 -22.5s85.834 7.5 123.501 22.5s70.167 36.167 97.5 63.5s48.5 59.666 63.5 96.999s22.5 78.666 22.5 123.999c0 44.667 -7.5 85.834 -22.5 123.501s-36.167 70.167 -63.5 97.5s-59.833 48.5 -97.5 63.5s-78.834 22.5 -123.501 22.5
s-85.834 -7.5 -123.501 -22.5s-70 -36.167 -97 -63.5s-48 -59.833 -63 -97.5s-22.5 -78.834 -22.5 -123.501zM238 344c0 30.667 4.83301 58.832 14.5 84.499s23.334 47.834 41.001 66.501s38.5 33.167 62.5 43.5s50.667 15.5 80 15.5c40.667 0 78.667 -9.66699 114 -29v-61
c-17.333 11.333 -34.833 20.166 -52.5 26.499s-35.167 9.5 -52.5 9.5c-20.667 0 -39.5 -3.83301 -56.5 -11.5s-31.667 -18.5 -44 -32.5s-21.833 -30.5 -28.5 -49.5s-10 -39.833 -10 -62.5s3.33301 -43.5 10 -62.5s16.167 -35.333 28.5 -49s27 -24.334 44 -32.001
s35.833 -11.5 56.5 -11.5c34.667 0 69.667 11.667 105 35v-61c-17.333 -9.33301 -35.833 -16.5 -55.5 -21.5s-39.167 -7.5 -58.5 -7.5c-29.333 0 -56 5.16699 -80 15.5s-44.833 24.833 -62.5 43.5s-31.334 40.834 -41.001 66.501s-14.5 53.834 -14.5 84.501z" />
    <glyph glyph-name="ordfeminine" unicode="&#xaa;" horiz-adv-x="335" 
d="M43 306h250v-49h-250v49zM224 405c-14 -12.667 -29 -21.999 -45 -27.999s-32.667 -9 -50 -9c-29.333 0 -53 8.5 -71 25.5s-27 38.833 -27 65.5c0 32 13.667 58.167 41 78.5s63.333 30.5 108 30.5h22c7.33301 0 14.666 -0.666992 21.999 -2v20
c0 17.333 -6.16699 31.666 -18.5 42.999s-28.166 17 -47.499 17c-15.333 0 -31.5 -2.33301 -48.5 -7s-34.167 -12 -51.5 -22v54c37.333 16.667 73 25 107 25c36 0 65 -10.167 87 -30.5s33 -46.833 33 -79.5v-211h-61v30zM94 467.001c0 -14.667 5.00098 -26.667 15.001 -36
s23.333 -14 40 -14c26.667 0 51.667 12.667 75 38v71c-6.66699 0.666992 -13.334 1.16699 -20.001 1.5s-13.667 0.5 -21 0.5c-26.667 0 -48.167 -5.66699 -64.5 -17s-24.5 -26 -24.5 -44z" />
    <glyph glyph-name="guillemotleft" unicode="&#xab;" horiz-adv-x="596" 
d="M365 250l182 -207h-85l-198 207l198 208h85zM150 250l182 -207h-86l-197 207l197 208h86z" />
    <glyph glyph-name="logicalnot" unicode="&#xac;" horiz-adv-x="563" 
d="M31 316h501v-285h-69v216h-432v69z" />
    <glyph glyph-name="uni00AD" unicode="&#xad;" horiz-adv-x="313" 
d="M35 286h243v-63h-243v63z" />
    <glyph glyph-name="registered" unicode="&#xae;" horiz-adv-x="500" 
d="M35 485c0 31.333 5.33301 60.166 16 86.499s25.5 49 44.5 68s41.667 33.833 68 44.5s55.166 16 86.499 16s60.166 -5.33301 86.499 -16s49 -25.5 68 -44.5s33.833 -41.667 44.5 -68s16 -55.166 16 -86.499s-5.33301 -60.166 -16 -86.499s-25.5 -49 -44.5 -68
s-41.667 -33.833 -68 -44.5s-55.166 -16 -86.499 -16s-60.166 5.33301 -86.499 16s-49 25.5 -68 44.5s-33.833 41.667 -44.5 68s-16 55.166 -16 86.499zM72 485c0 -26 4.33301 -49.833 13 -71.5s21 -40.5 37 -56.5s34.833 -28.333 56.5 -37s45.5 -13 71.5 -13
s49.833 4.33301 71.5 13s40.5 21 56.5 37s28.333 34.833 37 56.5s13 45.5 13 71.5s-4.33301 49.833 -13 71.5s-21 40.5 -37 56.5s-34.833 28.333 -56.5 37s-45.5 13 -71.5 13s-49.833 -4.33301 -71.5 -13s-40.5 -21 -56.5 -37s-28.333 -34.833 -37 -56.5
s-13 -45.5 -13 -71.5zM219 488l32 0.000976562c13.333 0 24 3.83301 32 11.5s12 17.5 12 29.5c0 11.333 -4 20.666 -12 27.999s-18.667 11 -32 11h-32v-80zM177 602.001l79.999 0.000976562c24 0 43.333 -6.83301 58 -20.5s22 -31.167 22 -52.5
c0 -16.667 -4.16699 -30.834 -12.5 -42.501s-20.166 -20.167 -35.499 -25.5l56 -93h-45l-52 87h-29v-87h-42v234z" />
    <glyph glyph-name="macron" unicode="&#xaf;" 
d="M-26 674h302v-57h-302v57z" />
    <glyph glyph-name="degree" unicode="&#xb0;" horiz-adv-x="352" 
d="M53 577c0 36 11.5 65.5 34.5 88.5s52.5 34.5 88.5 34.5c36.667 0 66.334 -11.5 89.001 -34.5s34 -52.5 34 -88.5c0 -36.667 -11.333 -66.5 -34 -89.5s-52.334 -34.5 -89.001 -34.5c-36 0 -65.5 11.5 -88.5 34.5s-34.5 52.833 -34.5 89.5zM106 577
c0 -21.333 6.5 -38.5 19.5 -51.5s29.833 -19.5 50.5 -19.5c21.333 0 38.333 6.5 51 19.5s19 30.167 19 51.5c0 20 -6.33301 36.667 -19 50s-29.667 20 -51 20c-20.667 0 -37.5 -6.66699 -50.5 -20s-19.5 -30 -19.5 -50z" />
    <glyph glyph-name="plusminus" unicode="&#xb1;" horiz-adv-x="563" 
d="M31 410h216v217h69v-217h216v-68h-216v-216h-69v216h-216v68zM31 69h501v-69h-501v69z" />
    <glyph glyph-name="uni00B2" unicode="&#xb2;" horiz-adv-x="309" 
d="M21 449c32.667 28.667 60.499 54.8291 83.499 78.4961s41.667 45.167 56 64.5s24.666 37 30.999 53s9.5 30.667 9.5 44c0 22 -6.66699 40 -20 54s-30.666 21 -51.999 21c-15.333 0 -31.666 -3.16699 -48.999 -9.5s-33.666 -16.166 -48.999 -29.499v62
c18 10.667 36.833 18.834 56.5 24.501s39.167 8.5 58.5 8.5c36 0 65.333 -11 88 -33s34 -51 34 -87c0 -31.333 -12.333 -65.666 -37 -102.999s-65.334 -82.666 -122.001 -135.999h164v-54h-252v42z" />
    <glyph glyph-name="uni00B3" unicode="&#xb3;" horiz-adv-x="305" 
d="M95 639h19.9951c24 0 43.667 6.16699 59 18.5s23 28.166 23 47.499c0 18 -6.5 32.667 -19.5 44s-30.167 17 -51.5 17c-31.333 0 -62.333 -9.33301 -93 -28v58c32.667 16 66.334 24 101.001 24c38 0 68.833 -10.167 92.5 -30.5s35.5 -46.5 35.5 -78.5
c0 -22 -5.83301 -41.5 -17.5 -58.5s-28.167 -29.167 -49.5 -36.5c23.333 -7.33301 41.833 -20.333 55.5 -39s20.5 -40 20.5 -64c0 -34 -13 -61.333 -39 -82s-60 -31 -102 -31c-35.333 0 -70.666 8.33301 -105.999 25v60c32.667 -20.667 65.334 -31 98.001 -31
c24.667 0 44.834 6 60.501 18s23.5 27.667 23.5 47c0 20.667 -8.16699 37.334 -24.5 50.001s-37.166 19 -62.499 19h-24v51z" />
    <glyph glyph-name="acute" unicode="&#xb4;" 
d="M176 719h83l-117 -148h-68z" />
    <glyph glyph-name="uni00B5" unicode="&#xb5;" horiz-adv-x="571" 
d="M80 500h79.001v-326c0 -34.667 10.667 -63 32 -85s49 -33 83 -33c24 0 47.667 6 71 18s45.666 29.667 66.999 53v373h80v-500h-80v56c-46 -44 -95.333 -66 -148 -66c-40.667 0 -75.667 13.667 -105 41v-250h-79v719z" />
    <glyph glyph-name="paragraph" unicode="&#xb6;" horiz-adv-x="573" 
d="M252 296c-31.333 0 -59.833 4.83301 -85.5 14.5s-48 23.167 -67 40.5s-33.667 38 -44 62s-15.5 50.333 -15.5 79s5.16699 55 15.5 79s25 44.667 44 62s41.333 30.833 67 40.5s54.167 14.5 85.5 14.5h222v-813h-69v744h-99v-323h-54z" />
    <glyph glyph-name="periodcentered" unicode="&#xb7;" 
d="M72 250c0 16 5 29 15 39s22.667 15 38 15s28 -5 38 -15s15 -23 15 -39c0 -15.333 -5 -28 -15 -38s-22.667 -15 -38 -15s-28 5 -38 15s-15 22.667 -15 38z" />
    <glyph glyph-name="cedilla" unicode="&#xb8;" 
d="M148 -57c22.667 -4 40.332 -13.667 52.999 -29s19 -33 19 -53c0 -27.333 -10.833 -49.5 -32.5 -66.5s-49.5 -25.5 -83.5 -25.5c-26 0 -50.667 6.33301 -74 19v55c24 -14.667 46.333 -22 67 -22c18 0 32.167 4 42.5 12s15.5 18.333 15.5 31c0 14 -5.66699 25.167 -17 33.5
s-27.666 12.5 -48.999 12.5h-7l22 90h57z" />
    <glyph glyph-name="uni00B9" unicode="&#xb9;" horiz-adv-x="252" 
d="M123 743l-102 -58v59l124 69h44v-406h-66v336z" />
    <glyph glyph-name="ordmasculine" unicode="&#xba;" horiz-adv-x="372" 
d="M43 306h287v-49h-287v49zM31 532c0 24 3.83301 46 11.5 66s18.334 37.333 32.001 52s30 26 49 34s39.833 12 62.5 12s43.5 -4 62.5 -12s35.333 -19.333 49 -34s24.334 -32 32.001 -52s11.5 -42 11.5 -66s-3.83301 -46.167 -11.5 -66.5s-18.334 -37.666 -32.001 -51.999
s-30 -25.5 -49 -33.5s-39.833 -12 -62.5 -12s-43.5 4 -62.5 12s-35.333 19.167 -49 33.5s-24.334 31.666 -32.001 51.999s-11.5 42.5 -11.5 66.5zM96 532c0 -33.333 8.33301 -60.166 25 -80.499s38.334 -30.5 65.001 -30.5c27.333 0 49.333 10.167 66 30.5
s25 47.166 25 80.499c0 32.667 -8.33301 59.334 -25 80.001s-38.667 31 -66 31c-26.667 0 -48.334 -10.333 -65.001 -31s-25 -47.334 -25 -80.001z" />
    <glyph glyph-name="guillemotright" unicode="&#xbb;" horiz-adv-x="596" 
d="M231 250l-182 208h85l198 -208l-198 -207h-85zM446 250l-182 208h86l197 -208l-197 -207h-86z" />
    <glyph glyph-name="onequarter" unicode="&#xbc;" horiz-adv-x="845" 
d="M169 618l-102 -58v59l124 69h44v-406h-66v336zM647 688h67l-516 -688h-67zM699 106h-179v40l189 260h52v-250h62v-50h-62v-106h-62v106zM699 156v158l-115 -158h115z" />
    <glyph glyph-name="onehalf" unicode="&#xbd;" horiz-adv-x="845" 
d="M169 618l-102 -58v59l124 69h44v-406h-66v336zM647 688h67l-516 -688h-67zM539 42c32.667 28.667 60.499 54.8291 83.499 78.4961s41.667 45.167 56 64.5s24.666 37 30.999 53s9.5 30.667 9.5 44c0 22 -6.66699 40 -20 54s-30.666 21 -51.999 21
c-15.333 0 -31.666 -3.16699 -48.999 -9.5s-33.666 -16.166 -48.999 -29.499v62c18 10.667 36.833 18.834 56.5 24.501s39.167 8.5 58.5 8.5c36 0 65.333 -11 88 -33s34 -51 34 -87c0 -31.333 -12.333 -65.666 -37 -102.999s-65.334 -82.666 -122.001 -135.999h164v-54h-252
v42z" />
    <glyph glyph-name="threequarters" unicode="&#xbe;" horiz-adv-x="845" 
d="M115 514h19.9951c24 0 43.667 6.16699 59 18.5s23 28.166 23 47.499c0 18 -6.5 32.667 -19.5 44s-30.167 17 -51.5 17c-31.333 0 -62.333 -9.33301 -93 -28v58c32.667 16 66.334 24 101.001 24c38 0 68.833 -10.167 92.5 -30.5s35.5 -46.5 35.5 -78.5
c0 -22 -5.83301 -41.5 -17.5 -58.5s-28.167 -29.167 -49.5 -36.5c23.333 -7.33301 41.833 -20.333 55.5 -39s20.5 -40 20.5 -64c0 -34 -13 -61.333 -39 -82s-60 -31 -102 -31c-35.333 0 -70.666 8.33301 -105.999 25v60c32.667 -20.667 65.334 -31 98.001 -31
c24.667 0 44.834 6 60.501 18s23.5 27.667 23.5 47c0 20.667 -8.16699 37.334 -24.5 50.001s-37.166 19 -62.499 19h-24v51zM646.995 688h67l-516 -688h-67zM698.995 106h-179v40l189 260h52v-250h62v-50h-62v-106h-62v106zM698.995 156v158l-115 -158h115z" />
    <glyph glyph-name="questiondown" unicode="&#xbf;" horiz-adv-x="444" 
d="M306 459c0 -16 -5.16699 -29 -15.5 -39s-23.166 -15 -38.499 -15s-28 5 -38 15s-15 23 -15 39c0 15.333 5 28 15 38s22.667 15 38 15s28.166 -5 38.499 -15s15.5 -22.667 15.5 -38zM290 280c0 -23.333 -3.66895 -44.3281 -11.002 -62.9951s-16.5 -35.834 -27.5 -51.501
s-22.833 -30.334 -35.5 -44.001s-24.5 -27.667 -35.5 -42s-20.167 -29.5 -27.5 -45.5s-11 -34 -11 -54c0 -32.667 10.5 -59.334 31.5 -80.001s48.5 -31 82.5 -31c50.667 0 101 23 151 69v-80c-51.333 -38 -106 -57 -164 -57c-27.333 0 -52.333 4.16699 -75 12.5
s-42 20 -58 35s-28.5 32.833 -37.5 53.5s-13.5 43.667 -13.5 69c0 24 3.83301 45.833 11.5 65.5s17.334 38 29.001 55s24.167 33 37.5 48s25.833 30.167 37.5 45.5s21.334 31.166 29.001 47.499s11.5 34.166 11.5 53.499v19h75v-25z" />
    <glyph glyph-name="Agrave" unicode="&#xc0;" horiz-adv-x="642" 
d="M287 688h67l274 -688h-82l-77 197h-296l-78 -197h-81zM197 260h248l-124 317zM187 907h83l102 -148h-68z" />
    <glyph glyph-name="Aacute" unicode="&#xc1;" horiz-adv-x="642" 
d="M287 688h67l274 -688h-82l-77 197h-296l-78 -197h-81zM197 260h248l-124 317zM372 907h83l-117 -148h-68z" />
    <glyph glyph-name="Acircumflex" unicode="&#xc2;" horiz-adv-x="642" 
d="M287 688h67l274 -688h-82l-77 197h-296l-78 -197h-81zM197 260h248l-124 317zM288 907h67l102 -148h-65l-71 92l-70 -92h-66z" />
    <glyph glyph-name="Atilde" unicode="&#xc3;" horiz-adv-x="642" 
d="M287 688h67l274 -688h-82l-77 197h-296l-78 -197h-81zM197 260h248l-124 317zM171 787c0 30 8.16992 54.667 24.5029 74s37.166 29 62.499 29c13.333 0 25.666 -3 36.999 -9s21.833 -12.5 31.5 -19.5l27.5 -19.5c8.66699 -6 17 -9 25 -9
c11.333 0 20.666 4.16699 27.999 12.5s11 19.5 11 33.5h53c0 -30.667 -8 -55.5 -24 -74.5s-36.667 -28.5 -62 -28.5c-14 0 -26.5 3 -37.5 9s-21.333 12.5 -31 19.5l-27.5 19.5c-8.66699 6 -17.334 9 -26.001 9c-11.333 0 -20.666 -4.16699 -27.999 -12.5
s-11 -19.5 -11 -33.5h-53z" />
    <glyph glyph-name="Adieresis" unicode="&#xc4;" horiz-adv-x="642" 
d="M287 688h67l274 -688h-82l-77 197h-296l-78 -197h-81zM197 260h248l-124 317zM374 833c0 14.667 4.33301 26.334 13 35.001s20.334 13 35.001 13c14 0 25.667 -4.33301 35 -13s14 -20.334 14 -35.001c0 -14 -4.66699 -25.667 -14 -35s-21 -14 -35 -14
c-14.667 0 -26.334 4.66699 -35.001 14s-13 21 -13 35zM172 833c0 14.667 4.5 26.334 13.5 35.001s20.5 13 34.5 13c14.667 0 26.5 -4.33301 35.5 -13s13.5 -20.334 13.5 -35.001c0 -14 -4.5 -25.667 -13.5 -35s-20.833 -14 -35.5 -14c-14 0 -25.5 4.66699 -34.5 14
s-13.5 21 -13.5 35z" />
    <glyph glyph-name="Aring" unicode="&#xc5;" horiz-adv-x="642" 
d="M287 688h67l274 -688h-82l-77 197h-296l-78 -197h-81zM197 260h248l-124 317zM225 833c0 28 9 51 27 69s41 27 69 27c28.667 0 51.834 -9 69.501 -27s26.5 -41 26.5 -69c0 -28.667 -8.83301 -51.834 -26.5 -69.501s-40.834 -26.5 -69.501 -26.5
c-28 0 -51 8.83301 -69 26.5s-27 40.834 -27 69.501zM268 833c0 -15.333 5 -28 15 -38s22.667 -15 38 -15s28 5 38 15s15 22.667 15 38s-5 28 -15 38s-22.667 15 -38 15s-28 -5 -38 -15s-15 -22.667 -15 -38z" />
    <glyph glyph-name="AE" unicode="&#xc6;" horiz-adv-x="902" 
d="M240 256h208v333zM428 688h413v-66h-312v-240h273v-65h-273v-251h320v-66h-401v193h-247l-121 -193h-87z" />
    <glyph glyph-name="Ccedilla" unicode="&#xc7;" horiz-adv-x="616" 
d="M51 344c0 52 8.00098 99.833 24.001 143.5s38.5 81.167 67.5 112.5s63.5 55.833 103.5 73.5s84 26.5 132 26.5c32 0 64 -4.33301 96 -13s63 -21 93 -37v-79c-30 20 -60.167 35 -90.5 45s-60.166 15 -89.499 15c-37.333 0 -71.5 -7 -102.5 -21s-57.5 -33.833 -79.5 -59.5
s-39.167 -56 -51.5 -91s-18.5 -73.5 -18.5 -115.5s6.16699 -80.5 18.5 -115.5s29.5 -65.333 51.5 -91s48.5 -45.5 79.5 -59.5s65.167 -21 102.5 -21c29.333 0 59.166 5 89.499 15s60.5 25 90.5 45v-79c-56.667 -30 -115.334 -46.667 -176.001 -50l-10 -45
c22 -4 39.5 -13.667 52.5 -29s19.5 -33 19.5 -53c0 -27.333 -11 -49.5 -33 -66.5s-50 -25.5 -84 -25.5c-26 0 -50.333 6.33301 -73 19v55c23.333 -14.667 45.666 -22 66.999 -22c18 0 32.167 4 42.5 12s15.5 18.333 15.5 31c0 14 -5.66699 25.167 -17 33.5
s-27.666 12.5 -48.999 12.5h-7l21 81c-42.667 4.66699 -81.5 16.667 -116.5 36s-65 44.5 -90 75.5s-44.333 67 -58 108s-20.5 85.5 -20.5 133.5z" />
    <glyph glyph-name="Egrave" unicode="&#xc8;" horiz-adv-x="553" 
d="M100 688h393v-66h-312v-240h273v-65h-273v-251h320v-66h-401v688zM157 907h83l102 -148h-68z" />
    <glyph glyph-name="Eacute" unicode="&#xc9;" horiz-adv-x="553" 
d="M100 688h393v-66h-312v-240h273v-65h-273v-251h320v-66h-401v688zM342 907h83l-117 -148h-68z" />
    <glyph glyph-name="Ecircumflex" unicode="&#xca;" horiz-adv-x="553" 
d="M100 688h393v-66h-312v-240h273v-65h-273v-251h320v-66h-401v688zM258 907h67l102 -148h-65l-71 92l-70 -92h-66z" />
    <glyph glyph-name="Edieresis" unicode="&#xcb;" horiz-adv-x="553" 
d="M100 688h393v-66h-312v-240h273v-65h-273v-251h320v-66h-401v688zM344 833c0 14.667 4.33301 26.334 13 35.001s20.334 13 35.001 13c14 0 25.667 -4.33301 35 -13s14 -20.334 14 -35.001c0 -14 -4.66699 -25.667 -14 -35s-21 -14 -35 -14
c-14.667 0 -26.334 4.66699 -35.001 14s-13 21 -13 35zM142 833c0 14.667 4.5 26.334 13.5 35.001s20.5 13 34.5 13c14.667 0 26.5 -4.33301 35.5 -13s13.5 -20.334 13.5 -35.001c0 -14 -4.5 -25.667 -13.5 -35s-20.833 -14 -35.5 -14c-14 0 -25.5 4.66699 -34.5 14
s-13.5 21 -13.5 35z" />
    <glyph glyph-name="Igrave" unicode="&#xcc;" horiz-adv-x="280" 
d="M100 688h81v-688h-81v688zM6 907h83l102 -148h-68z" />
    <glyph glyph-name="Iacute" unicode="&#xcd;" horiz-adv-x="280" 
d="M100 688h81v-688h-81v688zM191 907h83l-117 -148h-68z" />
    <glyph glyph-name="Icircumflex" unicode="&#xce;" horiz-adv-x="280" 
d="M100 688h81v-688h-81v688zM107 907h67l102 -148h-65l-71 92l-70 -92h-66z" />
    <glyph glyph-name="Idieresis" unicode="&#xcf;" horiz-adv-x="280" 
d="M100 688h81v-688h-81v688zM193 833c0 14.667 4.33301 26.334 13 35.001s20.334 13 35.001 13c14 0 25.667 -4.33301 35 -13s14 -20.334 14 -35.001c0 -14 -4.66699 -25.667 -14 -35s-21 -14 -35 -14c-14.667 0 -26.334 4.66699 -35.001 14s-13 21 -13 35zM-9 833
c0 14.667 4.5 26.334 13.5 35.001s20.5 13 34.5 13c14.667 0 26.5 -4.33301 35.5 -13s13.5 -20.334 13.5 -35.001c0 -14 -4.5 -25.667 -13.5 -35s-20.833 -14 -35.5 -14c-14 0 -25.5 4.66699 -34.5 14s-13.5 21 -13.5 35z" />
    <glyph glyph-name="Eth" unicode="&#xd0;" horiz-adv-x="716" 
d="M115 321h-88v58h88v309h216c48.667 0 93.667 -8.5 135 -25.5s76.666 -40.667 105.999 -71s52.333 -66.5 69 -108.5s25 -88.333 25 -139s-8.33301 -97 -25 -139s-39.667 -78.167 -69 -108.5s-64.666 -54 -105.999 -71s-86.333 -25.5 -135 -25.5h-216v321zM197 379
l159 -0.00195312v-58h-159v-255h129c37.333 0 71.666 6.83301 102.999 20.5s58.166 32.834 80.499 57.501s39.833 54 52.5 88s19 71.333 19 112s-6.33301 78 -19 112s-30.167 63.333 -52.5 88s-49.166 43.834 -80.499 57.501s-65.666 20.5 -102.999 20.5h-129v-243z" />
    <glyph glyph-name="Ntilde" unicode="&#xd1;" horiz-adv-x="739" 
d="M100 688h72l390 -555v555h78v-688h-72l-390 555v-555h-78v688zM219 787c0 30 8.16992 54.667 24.5029 74s37.166 29 62.499 29c13.333 0 25.666 -3 36.999 -9s21.833 -12.5 31.5 -19.5l27.5 -19.5c8.66699 -6 17 -9 25 -9c11.333 0 20.666 4.16699 27.999 12.5
s11 19.5 11 33.5h53c0 -30.667 -8 -55.5 -24 -74.5s-36.667 -28.5 -62 -28.5c-14 0 -26.5 3 -37.5 9s-21.333 12.5 -31 19.5l-27.5 19.5c-8.66699 6 -17.334 9 -26.001 9c-11.333 0 -20.666 -4.16699 -27.999 -12.5s-11 -19.5 -11 -33.5h-53z" />
    <glyph glyph-name="Ograve" unicode="&#xd2;" horiz-adv-x="739" 
d="M51 344c0 52 7.83301 99.833 23.5 143.5s37.5 81.334 65.5 113.001s61.5 56.167 100.5 73.5s82.167 26 129.5 26c46.667 0 89.5 -8.66699 128.5 -26s72.667 -41.833 101 -73.5s50.333 -69.334 66 -113.001s23.5 -91.5 23.5 -143.5s-7.83301 -99.833 -23.5 -143.5
s-37.667 -81.334 -66 -113.001s-62 -56.167 -101 -73.5s-81.833 -26 -128.5 -26c-47.333 0 -90.5 8.66699 -129.5 26s-72.5 41.833 -100.5 73.5s-49.833 69.334 -65.5 113.001s-23.5 91.5 -23.5 143.5zM135 344c0 -42 5.66699 -80.667 17 -116s27.333 -65.666 48 -90.999
s45.5 -45 74.5 -59s60.833 -21 95.5 -21s66.5 7 95.5 21s53.833 33.667 74.5 59s36.667 55.666 48 90.999s17 74 17 116s-5.66699 80.667 -17 116s-27.333 65.666 -48 90.999s-45.5 45 -74.5 59s-60.833 21 -95.5 21s-66.5 -7 -95.5 -21s-53.833 -33.667 -74.5 -59
s-36.667 -55.666 -48 -90.999s-17 -74 -17 -116zM236 907h83l102 -148h-68z" />
    <glyph glyph-name="Oacute" unicode="&#xd3;" horiz-adv-x="739" 
d="M51 344c0 52 7.83301 99.833 23.5 143.5s37.5 81.334 65.5 113.001s61.5 56.167 100.5 73.5s82.167 26 129.5 26c46.667 0 89.5 -8.66699 128.5 -26s72.667 -41.833 101 -73.5s50.333 -69.334 66 -113.001s23.5 -91.5 23.5 -143.5s-7.83301 -99.833 -23.5 -143.5
s-37.667 -81.334 -66 -113.001s-62 -56.167 -101 -73.5s-81.833 -26 -128.5 -26c-47.333 0 -90.5 8.66699 -129.5 26s-72.5 41.833 -100.5 73.5s-49.833 69.334 -65.5 113.001s-23.5 91.5 -23.5 143.5zM135 344c0 -42 5.66699 -80.667 17 -116s27.333 -65.666 48 -90.999
s45.5 -45 74.5 -59s60.833 -21 95.5 -21s66.5 7 95.5 21s53.833 33.667 74.5 59s36.667 55.666 48 90.999s17 74 17 116s-5.66699 80.667 -17 116s-27.333 65.666 -48 90.999s-45.5 45 -74.5 59s-60.833 21 -95.5 21s-66.5 -7 -95.5 -21s-53.833 -33.667 -74.5 -59
s-36.667 -55.666 -48 -90.999s-17 -74 -17 -116zM421 907h83l-117 -148h-68z" />
    <glyph glyph-name="Ocircumflex" unicode="&#xd4;" horiz-adv-x="739" 
d="M51 344c0 52 7.83301 99.833 23.5 143.5s37.5 81.334 65.5 113.001s61.5 56.167 100.5 73.5s82.167 26 129.5 26c46.667 0 89.5 -8.66699 128.5 -26s72.667 -41.833 101 -73.5s50.333 -69.334 66 -113.001s23.5 -91.5 23.5 -143.5s-7.83301 -99.833 -23.5 -143.5
s-37.667 -81.334 -66 -113.001s-62 -56.167 -101 -73.5s-81.833 -26 -128.5 -26c-47.333 0 -90.5 8.66699 -129.5 26s-72.5 41.833 -100.5 73.5s-49.833 69.334 -65.5 113.001s-23.5 91.5 -23.5 143.5zM135 344c0 -42 5.66699 -80.667 17 -116s27.333 -65.666 48 -90.999
s45.5 -45 74.5 -59s60.833 -21 95.5 -21s66.5 7 95.5 21s53.833 33.667 74.5 59s36.667 55.666 48 90.999s17 74 17 116s-5.66699 80.667 -17 116s-27.333 65.666 -48 90.999s-45.5 45 -74.5 59s-60.833 21 -95.5 21s-66.5 -7 -95.5 -21s-53.833 -33.667 -74.5 -59
s-36.667 -55.666 -48 -90.999s-17 -74 -17 -116zM337 907h67l102 -148h-65l-71 92l-70 -92h-66z" />
    <glyph glyph-name="Otilde" unicode="&#xd5;" horiz-adv-x="739" 
d="M51 344c0 52 7.83301 99.833 23.5 143.5s37.5 81.334 65.5 113.001s61.5 56.167 100.5 73.5s82.167 26 129.5 26c46.667 0 89.5 -8.66699 128.5 -26s72.667 -41.833 101 -73.5s50.333 -69.334 66 -113.001s23.5 -91.5 23.5 -143.5s-7.83301 -99.833 -23.5 -143.5
s-37.667 -81.334 -66 -113.001s-62 -56.167 -101 -73.5s-81.833 -26 -128.5 -26c-47.333 0 -90.5 8.66699 -129.5 26s-72.5 41.833 -100.5 73.5s-49.833 69.334 -65.5 113.001s-23.5 91.5 -23.5 143.5zM135 344c0 -42 5.66699 -80.667 17 -116s27.333 -65.666 48 -90.999
s45.5 -45 74.5 -59s60.833 -21 95.5 -21s66.5 7 95.5 21s53.833 33.667 74.5 59s36.667 55.666 48 90.999s17 74 17 116s-5.66699 80.667 -17 116s-27.333 65.666 -48 90.999s-45.5 45 -74.5 59s-60.833 21 -95.5 21s-66.5 -7 -95.5 -21s-53.833 -33.667 -74.5 -59
s-36.667 -55.666 -48 -90.999s-17 -74 -17 -116zM220 787c0 30 8.16992 54.667 24.5029 74s37.166 29 62.499 29c13.333 0 25.666 -3 36.999 -9s21.833 -12.5 31.5 -19.5l27.5 -19.5c8.66699 -6 17 -9 25 -9c11.333 0 20.666 4.16699 27.999 12.5s11 19.5 11 33.5h53
c0 -30.667 -8 -55.5 -24 -74.5s-36.667 -28.5 -62 -28.5c-14 0 -26.5 3 -37.5 9s-21.333 12.5 -31 19.5l-27.5 19.5c-8.66699 6 -17.334 9 -26.001 9c-11.333 0 -20.666 -4.16699 -27.999 -12.5s-11 -19.5 -11 -33.5h-53z" />
    <glyph glyph-name="Odieresis" unicode="&#xd6;" horiz-adv-x="739" 
d="M51 344c0 52 7.83301 99.833 23.5 143.5s37.5 81.334 65.5 113.001s61.5 56.167 100.5 73.5s82.167 26 129.5 26c46.667 0 89.5 -8.66699 128.5 -26s72.667 -41.833 101 -73.5s50.333 -69.334 66 -113.001s23.5 -91.5 23.5 -143.5s-7.83301 -99.833 -23.5 -143.5
s-37.667 -81.334 -66 -113.001s-62 -56.167 -101 -73.5s-81.833 -26 -128.5 -26c-47.333 0 -90.5 8.66699 -129.5 26s-72.5 41.833 -100.5 73.5s-49.833 69.334 -65.5 113.001s-23.5 91.5 -23.5 143.5zM135 344c0 -42 5.66699 -80.667 17 -116s27.333 -65.666 48 -90.999
s45.5 -45 74.5 -59s60.833 -21 95.5 -21s66.5 7 95.5 21s53.833 33.667 74.5 59s36.667 55.666 48 90.999s17 74 17 116s-5.66699 80.667 -17 116s-27.333 65.666 -48 90.999s-45.5 45 -74.5 59s-60.833 21 -95.5 21s-66.5 -7 -95.5 -21s-53.833 -33.667 -74.5 -59
s-36.667 -55.666 -48 -90.999s-17 -74 -17 -116zM423 833c0 14.667 4.33301 26.334 13 35.001s20.334 13 35.001 13c14 0 25.667 -4.33301 35 -13s14 -20.334 14 -35.001c0 -14 -4.66699 -25.667 -14 -35s-21 -14 -35 -14c-14.667 0 -26.334 4.66699 -35.001 14
s-13 21 -13 35zM221 833c0 14.667 4.5 26.334 13.5 35.001s20.5 13 34.5 13c14.667 0 26.5 -4.33301 35.5 -13s13.5 -20.334 13.5 -35.001c0 -14 -4.5 -25.667 -13.5 -35s-20.833 -14 -35.5 -14c-14 0 -25.5 4.66699 -34.5 14s-13.5 21 -13.5 35z" />
    <glyph glyph-name="multiply" unicode="&#xd7;" horiz-adv-x="563" 
d="M58 107l175 175l-175 174l49 49l175 -175l174 175l49 -49l-175 -174l175 -175l-49 -49l-174 175l-175 -175z" />
    <glyph glyph-name="Oslash" unicode="&#xd8;" horiz-adv-x="739" 
d="M51 344c0 52 7.83398 99.8311 23.501 143.498s37.5 81.334 65.5 113.001s61.5 56.167 100.5 73.5s82.167 26 129.5 26c36 0 69.667 -5.5 101 -16.5s59.666 -26.167 84.999 -45.5l38 50h67l-65 -86c29.333 -32 52.166 -69.667 68.499 -113s24.5 -91.666 24.5 -144.999
c0 -52 -7.83301 -99.833 -23.5 -143.5s-37.667 -81.334 -66 -113.001s-62 -56.167 -101 -73.5s-81.833 -26 -128.5 -26c-36.667 0 -70.667 5.5 -102 16.5s-59.666 26.167 -84.999 45.5l-38 -50h-67l65 86c-29.333 32 -52 69.833 -68 113.5s-24 91.834 -24 144.501z
M135.001 343.998c0 -38.667 4.83301 -74.334 14.5 -107.001s23.5 -61.667 41.5 -87l320 428c-39.333 35.333 -86.333 53 -141 53c-34.667 0 -66.5 -7 -95.5 -21s-53.833 -33.667 -74.5 -59s-36.667 -55.666 -48 -90.999s-17 -74 -17 -116zM605.001 343.998
c0 38.667 -4.99902 74.334 -14.999 107.001s-23.667 61.667 -41 87l-321 -428c39.333 -35.333 86.666 -53 141.999 -53c34.667 0 66.5 7 95.5 21s53.833 33.667 74.5 59s36.667 55.666 48 90.999s17 74 17 116z" />
    <glyph glyph-name="Ugrave" unicode="&#xd9;" horiz-adv-x="739" 
d="M644 253c0 -38.667 -6.83398 -74.167 -20.501 -106.5s-32.5 -60.333 -56.5 -84s-52.833 -42 -86.5 -55s-70.5 -19.5 -110.5 -19.5s-76.833 6.5 -110.5 19.5s-62.667 31.333 -87 55s-43.166 51.667 -56.499 84s-20 67.833 -20 106.5v435h81v-429
c0 -29.333 4.83301 -56.333 14.5 -81s23 -46 40 -64s37.333 -32 61 -42s49.5 -15 77.5 -15s53.833 5 77.5 15s44 24 61 42s30.333 39.333 40 64s14.5 51.667 14.5 81v429h81v-435zM235.999 907h83l102 -148h-68z" />
    <glyph glyph-name="Uacute" unicode="&#xda;" horiz-adv-x="739" 
d="M644 253c0 -38.667 -6.83398 -74.167 -20.501 -106.5s-32.5 -60.333 -56.5 -84s-52.833 -42 -86.5 -55s-70.5 -19.5 -110.5 -19.5s-76.833 6.5 -110.5 19.5s-62.667 31.333 -87 55s-43.166 51.667 -56.499 84s-20 67.833 -20 106.5v435h81v-429
c0 -29.333 4.83301 -56.333 14.5 -81s23 -46 40 -64s37.333 -32 61 -42s49.5 -15 77.5 -15s53.833 5 77.5 15s44 24 61 42s30.333 39.333 40 64s14.5 51.667 14.5 81v429h81v-435zM420.999 907h83l-117 -148h-68z" />
    <glyph glyph-name="Ucircumflex" unicode="&#xdb;" horiz-adv-x="739" 
d="M644 253c0 -38.667 -6.83398 -74.167 -20.501 -106.5s-32.5 -60.333 -56.5 -84s-52.833 -42 -86.5 -55s-70.5 -19.5 -110.5 -19.5s-76.833 6.5 -110.5 19.5s-62.667 31.333 -87 55s-43.166 51.667 -56.499 84s-20 67.833 -20 106.5v435h81v-429
c0 -29.333 4.83301 -56.333 14.5 -81s23 -46 40 -64s37.333 -32 61 -42s49.5 -15 77.5 -15s53.833 5 77.5 15s44 24 61 42s30.333 39.333 40 64s14.5 51.667 14.5 81v429h81v-435zM336.999 907h67l102 -148h-65l-71 92l-70 -92h-66z" />
    <glyph glyph-name="Udieresis" unicode="&#xdc;" horiz-adv-x="739" 
d="M644 253c0 -38.667 -6.83398 -74.167 -20.501 -106.5s-32.5 -60.333 -56.5 -84s-52.833 -42 -86.5 -55s-70.5 -19.5 -110.5 -19.5s-76.833 6.5 -110.5 19.5s-62.667 31.333 -87 55s-43.166 51.667 -56.499 84s-20 67.833 -20 106.5v435h81v-429
c0 -29.333 4.83301 -56.333 14.5 -81s23 -46 40 -64s37.333 -32 61 -42s49.5 -15 77.5 -15s53.833 5 77.5 15s44 24 61 42s30.333 39.333 40 64s14.5 51.667 14.5 81v429h81v-435zM422.999 833c0 14.667 4.33301 26.334 13 35.001s20.334 13 35.001 13
c14 0 25.667 -4.33301 35 -13s14 -20.334 14 -35.001c0 -14 -4.66699 -25.667 -14 -35s-21 -14 -35 -14c-14.667 0 -26.334 4.66699 -35.001 14s-13 21 -13 35zM220.999 833c0 14.667 4.5 26.334 13.5 35.001s20.5 13 34.5 13c14.667 0 26.5 -4.33301 35.5 -13
s13.5 -20.334 13.5 -35.001c0 -14 -4.5 -25.667 -13.5 -35s-20.833 -14 -35.5 -14c-14 0 -25.5 4.66699 -34.5 14s-13.5 21 -13.5 35z" />
    <glyph glyph-name="Yacute" unicode="&#xdd;" horiz-adv-x="595" 
d="M257 299l-247 389h93l194 -315l195 315h94l-247 -389v-299h-82v299zM348 907h83l-117 -148h-68z" />
    <glyph glyph-name="Thorn" unicode="&#xde;" horiz-adv-x="585" 
d="M100 688h80v-129h136c33.333 0 64 -5.16699 92 -15.5s52.167 -24.666 72.5 -42.999s36.166 -40.333 47.499 -66s17 -53.834 17 -84.501s-5.66699 -58.834 -17 -84.501s-27.166 -47.667 -47.499 -66s-44.5 -32.666 -72.5 -42.999s-58.667 -15.5 -92 -15.5h-136v-141h-80
v688zM180 206l124 -0.00195312c23.333 0 44.666 3.5 63.999 10.5s36 16.833 50 29.5s24.833 27.834 32.5 45.501s11.5 37.167 11.5 58.5s-3.83301 40.833 -11.5 58.5s-18.5 32.834 -32.5 45.501s-30.667 22.5 -50 29.5s-40.666 10.5 -63.999 10.5h-124v-288z" />
    <glyph glyph-name="germandbls" unicode="&#xdf;" horiz-adv-x="636" 
d="M285 99c46.667 -31.333 92.9971 -47.0049 138.997 -47.0049c31.333 0 56.833 7.66699 76.5 23s29.5 35.333 29.5 60c0 19.333 -5.83301 34.666 -17.5 45.999s-26.5 21 -44.5 29s-37.167 15.5 -57.5 22.5s-39.5 16 -57.5 27s-32.833 25.167 -44.5 42.5
s-17.5 40.333 -17.5 69c0 24.667 4.33301 45.334 13 62.001s18.334 32.167 29.001 46.5s20.334 28.666 29.001 42.999s13 31.5 13 51.5c0 27.333 -9.5 49.5 -28.5 66.5s-43.833 25.5 -74.5 25.5c-33.333 0 -60.5 -10.667 -81.5 -32s-31.5 -49 -31.5 -83v-551h-79v554
c0 26 4.66699 49.833 14 71.5s22.5 40.334 39.5 56.001s37.333 27.834 61 36.501s49.5 13 77.5 13c27.333 0 52.166 -3.66699 74.499 -11s41.5 -17.666 57.5 -30.999s28.5 -29.333 37.5 -48s13.5 -39.334 13.5 -62.001c0 -24.667 -4.5 -45.667 -13.5 -63
s-18.667 -33.166 -29 -47.499s-20 -28.666 -29 -42.999s-13.5 -31.166 -13.5 -50.499s6 -34.666 18 -45.999s26.833 -21 44.5 -29s36.834 -15.5 57.501 -22.5s39.834 -16 57.501 -27s32.5 -25.333 44.5 -43s18 -41.167 18 -70.5c0 -22 -4.33301 -42.167 -13 -60.5
s-21 -34 -37 -47s-35 -23.167 -57 -30.5s-46.333 -11 -73 -11c-48 0 -96.333 11.667 -145 35v76z" />
    <glyph glyph-name="agrave" unicode="&#xe0;" horiz-adv-x="510" 
d="M358 52c-24 -21.333 -49.5 -37.3301 -76.5 -47.9971s-54.5 -16 -82.5 -16c-23.333 0 -44.5 3.5 -63.5 10.5s-35.333 16.833 -49 29.5s-24.334 27.667 -32.001 45s-11.5 36.666 -11.5 57.999c0 25.333 5.83301 48.5 17.5 69.5s27.834 39.167 48.501 54.5
s45.5 27.166 74.5 35.499s61.167 12.5 96.5 12.5c26.667 0 52.667 -1 78 -3v43c0 31.333 -10.667 56.833 -32 76.5s-49 29.5 -83 29.5c-50.667 0 -103 -15 -157 -45v69c56 26 111 39 165 39c27.333 0 52.333 -4.16699 75 -12.5s42 -20 58 -35s28.5 -32.833 37.5 -53.5
s13.5 -43.334 13.5 -68.001v-343h-77v52zM123 140.003c0 -26 9 -47.333 27 -64s41.333 -25 70 -25c23.333 0 46.833 6 70.5 18s46.167 28.667 67.5 50v127c-12 1.33301 -24 2.33301 -36 3s-24.667 1 -38 1c-48 0 -86.833 -10.167 -116.5 -30.5s-44.5 -46.833 -44.5 -79.5z
M120 719.003h83l102 -148h-68z" />
    <glyph glyph-name="aacute" unicode="&#xe1;" horiz-adv-x="510" 
d="M358 52c-24 -21.333 -49.5 -37.3301 -76.5 -47.9971s-54.5 -16 -82.5 -16c-23.333 0 -44.5 3.5 -63.5 10.5s-35.333 16.833 -49 29.5s-24.334 27.667 -32.001 45s-11.5 36.666 -11.5 57.999c0 25.333 5.83301 48.5 17.5 69.5s27.834 39.167 48.501 54.5
s45.5 27.166 74.5 35.499s61.167 12.5 96.5 12.5c26.667 0 52.667 -1 78 -3v43c0 31.333 -10.667 56.833 -32 76.5s-49 29.5 -83 29.5c-50.667 0 -103 -15 -157 -45v69c56 26 111 39 165 39c27.333 0 52.333 -4.16699 75 -12.5s42 -20 58 -35s28.5 -32.833 37.5 -53.5
s13.5 -43.334 13.5 -68.001v-343h-77v52zM123 140.003c0 -26 9 -47.333 27 -64s41.333 -25 70 -25c23.333 0 46.833 6 70.5 18s46.167 28.667 67.5 50v127c-12 1.33301 -24 2.33301 -36 3s-24.667 1 -38 1c-48 0 -86.833 -10.167 -116.5 -30.5s-44.5 -46.833 -44.5 -79.5z
M305 719.003h83l-117 -148h-68z" />
    <glyph glyph-name="acircumflex" unicode="&#xe2;" horiz-adv-x="510" 
d="M358 52c-24 -21.333 -49.5 -37.3301 -76.5 -47.9971s-54.5 -16 -82.5 -16c-23.333 0 -44.5 3.5 -63.5 10.5s-35.333 16.833 -49 29.5s-24.334 27.667 -32.001 45s-11.5 36.666 -11.5 57.999c0 25.333 5.83301 48.5 17.5 69.5s27.834 39.167 48.501 54.5
s45.5 27.166 74.5 35.499s61.167 12.5 96.5 12.5c26.667 0 52.667 -1 78 -3v43c0 31.333 -10.667 56.833 -32 76.5s-49 29.5 -83 29.5c-50.667 0 -103 -15 -157 -45v69c56 26 111 39 165 39c27.333 0 52.333 -4.16699 75 -12.5s42 -20 58 -35s28.5 -32.833 37.5 -53.5
s13.5 -43.334 13.5 -68.001v-343h-77v52zM123 140.003c0 -26 9 -47.333 27 -64s41.333 -25 70 -25c23.333 0 46.833 6 70.5 18s46.167 28.667 67.5 50v127c-12 1.33301 -24 2.33301 -36 3s-24.667 1 -38 1c-48 0 -86.833 -10.167 -116.5 -30.5s-44.5 -46.833 -44.5 -79.5z
M221 719.003h67l102 -148h-65l-71 92l-70 -92h-66z" />
    <glyph glyph-name="atilde" unicode="&#xe3;" horiz-adv-x="510" 
d="M358 52c-24 -21.333 -49.5 -37.3301 -76.5 -47.9971s-54.5 -16 -82.5 -16c-23.333 0 -44.5 3.5 -63.5 10.5s-35.333 16.833 -49 29.5s-24.334 27.667 -32.001 45s-11.5 36.666 -11.5 57.999c0 25.333 5.83301 48.5 17.5 69.5s27.834 39.167 48.501 54.5
s45.5 27.166 74.5 35.499s61.167 12.5 96.5 12.5c26.667 0 52.667 -1 78 -3v43c0 31.333 -10.667 56.833 -32 76.5s-49 29.5 -83 29.5c-50.667 0 -103 -15 -157 -45v69c56 26 111 39 165 39c27.333 0 52.333 -4.16699 75 -12.5s42 -20 58 -35s28.5 -32.833 37.5 -53.5
s13.5 -43.334 13.5 -68.001v-343h-77v52zM123 140.003c0 -26 9 -47.333 27 -64s41.333 -25 70 -25c23.333 0 46.833 6 70.5 18s46.167 28.667 67.5 50v127c-12 1.33301 -24 2.33301 -36 3s-24.667 1 -38 1c-48 0 -86.833 -10.167 -116.5 -30.5s-44.5 -46.833 -44.5 -79.5z
M104 599.003c0 30 8.16992 54.667 24.5029 74s37.166 29 62.499 29c13.333 0 25.666 -3 36.999 -9s21.833 -12.5 31.5 -19.5l27.5 -19.5c8.66699 -6 17 -9 25 -9c11.333 0 20.666 4.16699 27.999 12.5s11 19.5 11 33.5h53c0 -30.667 -8 -55.5 -24 -74.5
s-36.667 -28.5 -62 -28.5c-14 0 -26.5 3 -37.5 9s-21.333 12.5 -31 19.5l-27.5 19.5c-8.66699 6 -17.334 9 -26.001 9c-11.333 0 -20.666 -4.16699 -27.999 -12.5s-11 -19.5 -11 -33.5h-53z" />
    <glyph glyph-name="adieresis" unicode="&#xe4;" horiz-adv-x="510" 
d="M358 52c-24 -21.333 -49.5 -37.3301 -76.5 -47.9971s-54.5 -16 -82.5 -16c-23.333 0 -44.5 3.5 -63.5 10.5s-35.333 16.833 -49 29.5s-24.334 27.667 -32.001 45s-11.5 36.666 -11.5 57.999c0 25.333 5.83301 48.5 17.5 69.5s27.834 39.167 48.501 54.5
s45.5 27.166 74.5 35.499s61.167 12.5 96.5 12.5c26.667 0 52.667 -1 78 -3v43c0 31.333 -10.667 56.833 -32 76.5s-49 29.5 -83 29.5c-50.667 0 -103 -15 -157 -45v69c56 26 111 39 165 39c27.333 0 52.333 -4.16699 75 -12.5s42 -20 58 -35s28.5 -32.833 37.5 -53.5
s13.5 -43.334 13.5 -68.001v-343h-77v52zM123 140.003c0 -26 9 -47.333 27 -64s41.333 -25 70 -25c23.333 0 46.833 6 70.5 18s46.167 28.667 67.5 50v127c-12 1.33301 -24 2.33301 -36 3s-24.667 1 -38 1c-48 0 -86.833 -10.167 -116.5 -30.5s-44.5 -46.833 -44.5 -79.5z
M307 645.003c0 14.667 4.33301 26.334 13 35.001s20.334 13 35.001 13c14 0 25.667 -4.33301 35 -13s14 -20.334 14 -35.001c0 -14 -4.66699 -25.667 -14 -35s-21 -14 -35 -14c-14.667 0 -26.334 4.66699 -35.001 14s-13 21 -13 35zM105 645.003
c0 14.667 4.5 26.334 13.5 35.001s20.5 13 34.5 13c14.667 0 26.5 -4.33301 35.5 -13s13.5 -20.334 13.5 -35.001c0 -14 -4.5 -25.667 -13.5 -35s-20.833 -14 -35.5 -14c-14 0 -25.5 4.66699 -34.5 14s-13.5 21 -13.5 35z" />
    <glyph glyph-name="aring" unicode="&#xe5;" horiz-adv-x="510" 
d="M358 52c-24 -21.333 -49.5 -37.3301 -76.5 -47.9971s-54.5 -16 -82.5 -16c-23.333 0 -44.5 3.5 -63.5 10.5s-35.333 16.833 -49 29.5s-24.334 27.667 -32.001 45s-11.5 36.666 -11.5 57.999c0 25.333 5.83301 48.5 17.5 69.5s27.834 39.167 48.501 54.5
s45.5 27.166 74.5 35.499s61.167 12.5 96.5 12.5c26.667 0 52.667 -1 78 -3v43c0 31.333 -10.667 56.833 -32 76.5s-49 29.5 -83 29.5c-50.667 0 -103 -15 -157 -45v69c56 26 111 39 165 39c27.333 0 52.333 -4.16699 75 -12.5s42 -20 58 -35s28.5 -32.833 37.5 -53.5
s13.5 -43.334 13.5 -68.001v-343h-77v52zM123 140.003c0 -26 9 -47.333 27 -64s41.333 -25 70 -25c23.333 0 46.833 6 70.5 18s46.167 28.667 67.5 50v127c-12 1.33301 -24 2.33301 -36 3s-24.667 1 -38 1c-48 0 -86.833 -10.167 -116.5 -30.5s-44.5 -46.833 -44.5 -79.5z
M158 645.003c0 28 9 51 27 69s41 27 69 27c28.667 0 51.834 -9 69.501 -27s26.5 -41 26.5 -69c0 -28.667 -8.83301 -51.834 -26.5 -69.501s-40.834 -26.5 -69.501 -26.5c-28 0 -51 8.83301 -69 26.5s-27 40.834 -27 69.501zM201 645.003c0 -15.333 5 -28 15 -38
s22.667 -15 38 -15s28 5 38 15s15 22.667 15 38s-5 28 -15 38s-22.667 15 -38 15s-28 -5 -38 -15s-15 -22.667 -15 -38z" />
    <glyph glyph-name="ae" unicode="&#xe6;" horiz-adv-x="831" 
d="M435 232c1.33301 -26.667 6.50586 -51.168 15.5059 -73.501s21.333 -41.5 37 -57.5s34 -28.333 55 -37s43.833 -13 68.5 -13c23.333 0 47.5 4.16699 72.5 12.5s49.833 20.166 74.5 35.499v-72c-52 -26 -104.333 -39 -157 -39c-40 0 -76.667 8.33301 -110 25
s-61 40 -83 70c-30 -31.333 -61.833 -55 -95.5 -71s-67.834 -24 -102.501 -24c-24.667 0 -47.334 3.33301 -68.001 10s-38.334 16.334 -53.001 29.001s-26 27.834 -34 45.501s-12 37.167 -12 58.5c0 25.333 5.83301 48.5 17.5 69.5s27.834 39.167 48.501 54.5
s45.5 27.166 74.5 35.499s61.167 12.5 96.5 12.5c14 0 27.167 -0.166992 39.5 -0.5s25.166 -1.16602 38.499 -2.49902v43c0 31.333 -10.5 56.833 -31.5 76.5s-48.167 29.5 -81.5 29.5c-52 0 -105 -15 -159 -45v69c56 26 111 39 165 39c36.667 0 69.167 -7.66699 97.5 -23
s49.166 -37 62.499 -65c21.333 28.667 47.166 50.5 77.499 65.5s63.166 22.5 98.499 22.5c30.667 0 58.667 -6 84 -18s47 -28.833 65 -50.5s31.833 -47.5 41.5 -77.5s14.5 -63 14.5 -99c0 -6 -0.166992 -11.833 -0.5 -17.5s-0.5 -11.5 -0.5 -17.5h-356zM123.006 139.999
c0 -28 9.50098 -50 28.501 -66s43.5 -24 73.5 -24c27.333 0 54.333 7.33301 81 22s50.667 35 72 61c-13.333 32.667 -20 69 -20 109v4c-12.667 1.33301 -24.834 2.33301 -36.501 3s-24.167 1 -37.5 1c-48 0 -86.833 -10.333 -116.5 -31s-44.5 -47 -44.5 -79z
M714.007 287.999c-0.666992 24 -4.16992 45.833 -10.5029 65.5s-15.166 36.5 -26.499 50.5s-25 25 -41 33s-33.333 12 -52 12c-41.333 0 -75.666 -14.833 -102.999 -44.5s-42.666 -68.5 -45.999 -116.5h279z" />
    <glyph glyph-name="ccedilla" unicode="&#xe7;" horiz-adv-x="475" 
d="M43 250c0 38.667 6.00195 73.999 18.002 105.999s28.833 59.5 50.5 82.5s47.5 41 77.5 54s63 19.5 99 19.5c49.333 0 96.666 -11.667 141.999 -35v-74c-21.333 14.667 -43.166 25.5 -65.499 32.5s-44.166 10.5 -65.499 10.5c-25.333 0 -48.833 -4.83301 -70.5 -14.5
s-40.167 -23.167 -55.5 -40.5s-27.333 -38 -36 -62s-13 -50.333 -13 -79s4.33301 -55 13 -79s20.667 -44.667 36 -62s33.833 -30.833 55.5 -40.5s45.167 -14.5 70.5 -14.5c21.333 0 43.166 3.5 65.499 10.5s44.166 17.833 65.499 32.5v-74
c-38 -19.333 -78.333 -30.666 -121 -33.999l-11 -46c22.667 -4 40.5 -13.667 53.5 -29s19.5 -33 19.5 -53c0 -27.333 -11 -49.5 -33 -66.5s-50 -25.5 -84 -25.5c-26 0 -50.333 6.33301 -73 19v55c23.333 -14.667 45.666 -22 66.999 -22c18 0 32.167 4 42.5 12
s15.5 18.333 15.5 31c0 14 -5.66699 25.167 -17 33.5s-27.666 12.5 -48.999 12.5h-7l20 81c-31.333 4 -59.833 13 -85.5 27s-47.834 32.333 -66.501 55s-33 49 -43 79s-15 62.667 -15 98z" />
    <glyph glyph-name="egrave" unicode="&#xe8;" horiz-adv-x="518" 
d="M43 254c0 38 5.83496 72.6689 17.502 104.002s27.667 58.5 48 81.5s44.666 40.833 72.999 53.5s59.5 19 93.5 19c30.667 0 58.5 -6 83.5 -18s46.5 -28.833 64.5 -50.5s31.833 -47.5 41.5 -77.5s14.5 -63 14.5 -99v-17.5c0 -5.66699 -0.333008 -11.5 -1 -17.5h-355
c0.666992 -26.667 5.66699 -51.167 15 -73.5s21.666 -41.5 36.999 -57.5s33.5 -28.333 54.5 -37s43.833 -13 68.5 -13c23.333 0 47.5 4.16699 72.5 12.5s49.833 20.166 74.5 35.499v-72c-52 -26 -104.333 -39 -157 -39c-36 0 -69 6.5 -99 19.5s-55.833 31.333 -77.5 55
s-38.5 51.667 -50.5 84s-18 68.166 -18 107.499zM401.002 288.002c-0.666992 48 -12.833 86.833 -36.5 116.5s-54.5 44.5 -92.5 44.5c-42 0 -76.5 -14.833 -103.5 -44.5s-42.167 -68.5 -45.5 -116.5h278zM137.003 719.002h83l102 -148h-68z" />
    <glyph glyph-name="eacute" unicode="&#xe9;" horiz-adv-x="518" 
d="M43 254c0 38 5.83496 72.6689 17.502 104.002s27.667 58.5 48 81.5s44.666 40.833 72.999 53.5s59.5 19 93.5 19c30.667 0 58.5 -6 83.5 -18s46.5 -28.833 64.5 -50.5s31.833 -47.5 41.5 -77.5s14.5 -63 14.5 -99v-17.5c0 -5.66699 -0.333008 -11.5 -1 -17.5h-355
c0.666992 -26.667 5.66699 -51.167 15 -73.5s21.666 -41.5 36.999 -57.5s33.5 -28.333 54.5 -37s43.833 -13 68.5 -13c23.333 0 47.5 4.16699 72.5 12.5s49.833 20.166 74.5 35.499v-72c-52 -26 -104.333 -39 -157 -39c-36 0 -69 6.5 -99 19.5s-55.833 31.333 -77.5 55
s-38.5 51.667 -50.5 84s-18 68.166 -18 107.499zM401.002 288.002c-0.666992 48 -12.833 86.833 -36.5 116.5s-54.5 44.5 -92.5 44.5c-42 0 -76.5 -14.833 -103.5 -44.5s-42.167 -68.5 -45.5 -116.5h278zM322.003 719.002h83l-117 -148h-68z" />
    <glyph glyph-name="ecircumflex" unicode="&#xea;" horiz-adv-x="518" 
d="M43 254c0 38 5.83496 72.6689 17.502 104.002s27.667 58.5 48 81.5s44.666 40.833 72.999 53.5s59.5 19 93.5 19c30.667 0 58.5 -6 83.5 -18s46.5 -28.833 64.5 -50.5s31.833 -47.5 41.5 -77.5s14.5 -63 14.5 -99v-17.5c0 -5.66699 -0.333008 -11.5 -1 -17.5h-355
c0.666992 -26.667 5.66699 -51.167 15 -73.5s21.666 -41.5 36.999 -57.5s33.5 -28.333 54.5 -37s43.833 -13 68.5 -13c23.333 0 47.5 4.16699 72.5 12.5s49.833 20.166 74.5 35.499v-72c-52 -26 -104.333 -39 -157 -39c-36 0 -69 6.5 -99 19.5s-55.833 31.333 -77.5 55
s-38.5 51.667 -50.5 84s-18 68.166 -18 107.499zM401.002 288.002c-0.666992 48 -12.833 86.833 -36.5 116.5s-54.5 44.5 -92.5 44.5c-42 0 -76.5 -14.833 -103.5 -44.5s-42.167 -68.5 -45.5 -116.5h278zM238.003 719.002h67l102 -148h-65l-71 92l-70 -92h-66z" />
    <glyph glyph-name="edieresis" unicode="&#xeb;" horiz-adv-x="518" 
d="M43 254c0 38 5.83496 72.6689 17.502 104.002s27.667 58.5 48 81.5s44.666 40.833 72.999 53.5s59.5 19 93.5 19c30.667 0 58.5 -6 83.5 -18s46.5 -28.833 64.5 -50.5s31.833 -47.5 41.5 -77.5s14.5 -63 14.5 -99v-17.5c0 -5.66699 -0.333008 -11.5 -1 -17.5h-355
c0.666992 -26.667 5.66699 -51.167 15 -73.5s21.666 -41.5 36.999 -57.5s33.5 -28.333 54.5 -37s43.833 -13 68.5 -13c23.333 0 47.5 4.16699 72.5 12.5s49.833 20.166 74.5 35.499v-72c-52 -26 -104.333 -39 -157 -39c-36 0 -69 6.5 -99 19.5s-55.833 31.333 -77.5 55
s-38.5 51.667 -50.5 84s-18 68.166 -18 107.499zM401.002 288.002c-0.666992 48 -12.833 86.833 -36.5 116.5s-54.5 44.5 -92.5 44.5c-42 0 -76.5 -14.833 -103.5 -44.5s-42.167 -68.5 -45.5 -116.5h278zM324.003 645.002c0 14.667 4.33301 26.334 13 35.001
s20.334 13 35.001 13c14 0 25.667 -4.33301 35 -13s14 -20.334 14 -35.001c0 -14 -4.66699 -25.667 -14 -35s-21 -14 -35 -14c-14.667 0 -26.334 4.66699 -35.001 14s-13 21 -13 35zM122.003 645.002c0 14.667 4.5 26.334 13.5 35.001s20.5 13 34.5 13
c14.667 0 26.5 -4.33301 35.5 -13s13.5 -20.334 13.5 -35.001c0 -14 -4.5 -25.667 -13.5 -35s-20.833 -14 -35.5 -14c-14 0 -25.5 4.66699 -34.5 14s-13.5 21 -13.5 35z" />
    <glyph glyph-name="igrave" unicode="&#xec;" horiz-adv-x="239" 
d="M80 500h79v-500h-79v500zM-14 719h83l102 -148h-68z" />
    <glyph glyph-name="iacute" unicode="&#xed;" horiz-adv-x="239" 
d="M80 500h79v-500h-79v500zM171 719h83l-117 -148h-68z" />
    <glyph glyph-name="icircumflex" unicode="&#xee;" horiz-adv-x="239" 
d="M80 500h79v-500h-79v500zM87 719h67l102 -148h-65l-71 92l-70 -92h-66z" />
    <glyph glyph-name="idieresis" unicode="&#xef;" horiz-adv-x="239" 
d="M80 500h79v-500h-79v500zM173 645c0 14.667 4.33301 26.334 13 35.001s20.334 13 35.001 13c14 0 25.667 -4.33301 35 -13s14 -20.334 14 -35.001c0 -14 -4.66699 -25.667 -14 -35s-21 -14 -35 -14c-14.667 0 -26.334 4.66699 -35.001 14s-13 21 -13 35zM-29 645
c0 14.667 4.5 26.334 13.5 35.001s20.5 13 34.5 13c14.667 0 26.5 -4.33301 35.5 -13s13.5 -20.334 13.5 -35.001c0 -14 -4.5 -25.667 -13.5 -35s-20.833 -14 -35.5 -14c-14 0 -25.5 4.66699 -34.5 14s-13.5 21 -13.5 35z" />
    <glyph glyph-name="eth" unicode="&#xf0;" horiz-adv-x="565" 
d="M43 250c0 38.667 5.6709 74.001 17.0039 106.001s27 59.5 47 82.5s44 41 72 54s59 19.5 93 19.5c19.333 0 38.833 -2.66699 58.5 -8s38.834 -14 57.501 -26c-15.333 24.667 -32 48 -50 70s-37 43 -57 63l-132 -55v59l88 37c-28.667 24.667 -58.334 47 -89.001 67h107
c8.66699 -6 17 -12.333 25 -19l24 -20l112 47v-59l-68 -30c53.333 -52 95.666 -109 126.999 -171s47 -129.667 47 -203c0 -40.667 -6 -77.834 -18 -111.501s-28.667 -62.667 -50 -87s-47 -43.333 -77 -57s-63 -20.5 -99 -20.5c-34.667 0 -66.334 6.5 -95.001 19.5
s-53.334 31 -74.001 54s-36.834 50.667 -48.501 83s-17.5 67.5 -17.5 105.5zM124.004 250.001c0 -28.667 4 -55.002 12 -79.002s19 -44.667 33 -62s30.667 -30.833 50 -40.5s40.666 -14.5 63.999 -14.5c22.667 0 43.667 5 63 15s36 23.833 50 41.5s25 38.834 33 63.501
s12 51.667 12 81c0 22.667 -2.16699 45.334 -6.5 68.001s-10.5 45 -18.5 67c-20.667 18 -42.667 31.833 -66 41.5s-46.666 14.5 -69.999 14.5c-22.667 0 -43.5 -4.83301 -62.5 -14.5s-35.5 -23.167 -49.5 -40.5s-24.833 -38 -32.5 -62s-11.5 -50.333 -11.5 -79z" />
    <glyph glyph-name="ntilde" unicode="&#xf1;" horiz-adv-x="567" 
d="M80 500l79.002 -0.000976562v-55c48.667 44.667 101.667 67 159 67c25.333 0 48.666 -4.33301 69.999 -13s39.666 -20.667 54.999 -36s27.333 -33.666 36 -54.999s13 -45 13 -71v-337h-80v326c0 34.667 -10.5 63 -31.5 85s-48.5 33 -82.5 33c-24 0 -47.833 -6 -71.5 -18
s-46.167 -29.667 -67.5 -53v-373h-79v500zM135.002 598.999c0 30 8.16992 54.667 24.5029 74s37.166 29 62.499 29c13.333 0 25.666 -3 36.999 -9s21.833 -12.5 31.5 -19.5l27.5 -19.5c8.66699 -6 17 -9 25 -9c11.333 0 20.666 4.16699 27.999 12.5s11 19.5 11 33.5h53
c0 -30.667 -8 -55.5 -24 -74.5s-36.667 -28.5 -62 -28.5c-14 0 -26.5 3 -37.5 9s-21.333 12.5 -31 19.5l-27.5 19.5c-8.66699 6 -17.334 9 -26.001 9c-11.333 0 -20.666 -4.16699 -27.999 -12.5s-11 -19.5 -11 -33.5h-53z" />
    <glyph glyph-name="ograve" unicode="&#xf2;" horiz-adv-x="567" 
d="M43 250c0 38.667 5.83301 74 17.5 106s28.167 59.5 49.5 82.5s46.833 41 76.5 54s62.167 19.5 97.5 19.5s67.666 -6.5 96.999 -19.5s54.666 -31 75.999 -54s38 -50.5 50 -82.5s18 -67.333 18 -106s-6 -74 -18 -106s-28.667 -59.5 -50 -82.5s-46.666 -41 -75.999 -54
s-61.666 -19.5 -96.999 -19.5s-67.833 6.5 -97.5 19.5s-55.167 31 -76.5 54s-37.833 50.5 -49.5 82.5s-17.5 67.333 -17.5 106zM124 250c0 -28.667 4 -55 12 -79s19 -44.667 33 -62s30.833 -30.833 50.5 -40.5s41.167 -14.5 64.5 -14.5s44.666 4.83301 63.999 14.5
s36 23.167 50 40.5s25 38 33 62s12 50.333 12 79s-4 55 -12 79s-19 44.667 -33 62s-30.667 30.833 -50 40.5s-40.666 14.5 -63.999 14.5s-44.833 -4.83301 -64.5 -14.5s-36.5 -23.167 -50.5 -40.5s-25 -38 -33 -62s-12 -50.333 -12 -79zM149 719h83l102 -148h-68z" />
    <glyph glyph-name="oacute" unicode="&#xf3;" horiz-adv-x="567" 
d="M43 250c0 38.667 5.83301 74 17.5 106s28.167 59.5 49.5 82.5s46.833 41 76.5 54s62.167 19.5 97.5 19.5s67.666 -6.5 96.999 -19.5s54.666 -31 75.999 -54s38 -50.5 50 -82.5s18 -67.333 18 -106s-6 -74 -18 -106s-28.667 -59.5 -50 -82.5s-46.666 -41 -75.999 -54
s-61.666 -19.5 -96.999 -19.5s-67.833 6.5 -97.5 19.5s-55.167 31 -76.5 54s-37.833 50.5 -49.5 82.5s-17.5 67.333 -17.5 106zM124 250c0 -28.667 4 -55 12 -79s19 -44.667 33 -62s30.833 -30.833 50.5 -40.5s41.167 -14.5 64.5 -14.5s44.666 4.83301 63.999 14.5
s36 23.167 50 40.5s25 38 33 62s12 50.333 12 79s-4 55 -12 79s-19 44.667 -33 62s-30.667 30.833 -50 40.5s-40.666 14.5 -63.999 14.5s-44.833 -4.83301 -64.5 -14.5s-36.5 -23.167 -50.5 -40.5s-25 -38 -33 -62s-12 -50.333 -12 -79zM334 719h83l-117 -148h-68z" />
    <glyph glyph-name="ocircumflex" unicode="&#xf4;" horiz-adv-x="567" 
d="M43 250c0 38.667 5.83301 74 17.5 106s28.167 59.5 49.5 82.5s46.833 41 76.5 54s62.167 19.5 97.5 19.5s67.666 -6.5 96.999 -19.5s54.666 -31 75.999 -54s38 -50.5 50 -82.5s18 -67.333 18 -106s-6 -74 -18 -106s-28.667 -59.5 -50 -82.5s-46.666 -41 -75.999 -54
s-61.666 -19.5 -96.999 -19.5s-67.833 6.5 -97.5 19.5s-55.167 31 -76.5 54s-37.833 50.5 -49.5 82.5s-17.5 67.333 -17.5 106zM124 250c0 -28.667 4 -55 12 -79s19 -44.667 33 -62s30.833 -30.833 50.5 -40.5s41.167 -14.5 64.5 -14.5s44.666 4.83301 63.999 14.5
s36 23.167 50 40.5s25 38 33 62s12 50.333 12 79s-4 55 -12 79s-19 44.667 -33 62s-30.667 30.833 -50 40.5s-40.666 14.5 -63.999 14.5s-44.833 -4.83301 -64.5 -14.5s-36.5 -23.167 -50.5 -40.5s-25 -38 -33 -62s-12 -50.333 -12 -79zM250 719h67l102 -148h-65l-71 92
l-70 -92h-66z" />
    <glyph glyph-name="otilde" unicode="&#xf5;" horiz-adv-x="567" 
d="M43 250c0 38.667 5.83301 74 17.5 106s28.167 59.5 49.5 82.5s46.833 41 76.5 54s62.167 19.5 97.5 19.5s67.666 -6.5 96.999 -19.5s54.666 -31 75.999 -54s38 -50.5 50 -82.5s18 -67.333 18 -106s-6 -74 -18 -106s-28.667 -59.5 -50 -82.5s-46.666 -41 -75.999 -54
s-61.666 -19.5 -96.999 -19.5s-67.833 6.5 -97.5 19.5s-55.167 31 -76.5 54s-37.833 50.5 -49.5 82.5s-17.5 67.333 -17.5 106zM124 250c0 -28.667 4 -55 12 -79s19 -44.667 33 -62s30.833 -30.833 50.5 -40.5s41.167 -14.5 64.5 -14.5s44.666 4.83301 63.999 14.5
s36 23.167 50 40.5s25 38 33 62s12 50.333 12 79s-4 55 -12 79s-19 44.667 -33 62s-30.667 30.833 -50 40.5s-40.666 14.5 -63.999 14.5s-44.833 -4.83301 -64.5 -14.5s-36.5 -23.167 -50.5 -40.5s-25 -38 -33 -62s-12 -50.333 -12 -79zM133 599
c0 30 8.16992 54.667 24.5029 74s37.166 29 62.499 29c13.333 0 25.666 -3 36.999 -9s21.833 -12.5 31.5 -19.5l27.5 -19.5c8.66699 -6 17 -9 25 -9c11.333 0 20.666 4.16699 27.999 12.5s11 19.5 11 33.5h53c0 -30.667 -8 -55.5 -24 -74.5s-36.667 -28.5 -62 -28.5
c-14 0 -26.5 3 -37.5 9s-21.333 12.5 -31 19.5l-27.5 19.5c-8.66699 6 -17.334 9 -26.001 9c-11.333 0 -20.666 -4.16699 -27.999 -12.5s-11 -19.5 -11 -33.5h-53z" />
    <glyph glyph-name="odieresis" unicode="&#xf6;" horiz-adv-x="567" 
d="M43 250c0 38.667 5.83301 74 17.5 106s28.167 59.5 49.5 82.5s46.833 41 76.5 54s62.167 19.5 97.5 19.5s67.666 -6.5 96.999 -19.5s54.666 -31 75.999 -54s38 -50.5 50 -82.5s18 -67.333 18 -106s-6 -74 -18 -106s-28.667 -59.5 -50 -82.5s-46.666 -41 -75.999 -54
s-61.666 -19.5 -96.999 -19.5s-67.833 6.5 -97.5 19.5s-55.167 31 -76.5 54s-37.833 50.5 -49.5 82.5s-17.5 67.333 -17.5 106zM124 250c0 -28.667 4 -55 12 -79s19 -44.667 33 -62s30.833 -30.833 50.5 -40.5s41.167 -14.5 64.5 -14.5s44.666 4.83301 63.999 14.5
s36 23.167 50 40.5s25 38 33 62s12 50.333 12 79s-4 55 -12 79s-19 44.667 -33 62s-30.667 30.833 -50 40.5s-40.666 14.5 -63.999 14.5s-44.833 -4.83301 -64.5 -14.5s-36.5 -23.167 -50.5 -40.5s-25 -38 -33 -62s-12 -50.333 -12 -79zM336 645
c0 14.667 4.33301 26.334 13 35.001s20.334 13 35.001 13c14 0 25.667 -4.33301 35 -13s14 -20.334 14 -35.001c0 -14 -4.66699 -25.667 -14 -35s-21 -14 -35 -14c-14.667 0 -26.334 4.66699 -35.001 14s-13 21 -13 35zM134 645c0 14.667 4.5 26.334 13.5 35.001
s20.5 13 34.5 13c14.667 0 26.5 -4.33301 35.5 -13s13.5 -20.334 13.5 -35.001c0 -14 -4.5 -25.667 -13.5 -35s-20.833 -14 -35.5 -14c-14 0 -25.5 4.66699 -34.5 14s-13.5 21 -13.5 35z" />
    <glyph glyph-name="divide" unicode="&#xf7;" horiz-adv-x="563" 
d="M233 94c0 14 4.5 25.5 13.5 34.5s20.833 13.5 35.5 13.5c14 0 25.5 -4.5 34.5 -13.5s13.5 -20.5 13.5 -34.5c0 -14.667 -4.5 -26.334 -13.5 -35.001s-20.5 -13 -34.5 -13c-14.667 0 -26.5 4.33301 -35.5 13s-13.5 20.334 -13.5 35.001zM31 316h501v-69h-501v69zM233 469
c0 14.667 4.5 26.334 13.5 35.001s20.833 13 35.5 13c14 0 25.5 -4.33301 34.5 -13s13.5 -20.334 13.5 -35.001c0 -14 -4.5 -25.5 -13.5 -34.5s-20.5 -13.5 -34.5 -13.5c-14.667 0 -26.5 4.5 -35.5 13.5s-13.5 20.5 -13.5 34.5z" />
    <glyph glyph-name="oslash" unicode="&#xf8;" horiz-adv-x="567" 
d="M43 250c0 38.667 5.83105 73.999 17.498 105.999s28.167 59.5 49.5 82.5s46.833 41 76.5 54s62.167 19.5 97.5 19.5c26 0 50.5 -3.66699 73.5 -11s43.833 -17.666 62.5 -30.999l24 30h56l-45 -59c22 -23.333 39.167 -51 51.5 -83s18.5 -68 18.5 -108
c0 -38.667 -6 -74 -18 -106s-28.667 -59.5 -50 -82.5s-46.666 -41 -75.999 -54s-61.666 -19.5 -96.999 -19.5c-53.333 0 -99 14.333 -137 43l-23 -31h-56l45 60c-22.667 23.333 -40 51 -52 83s-18 67.667 -18 107zM122.998 249.999c0 -52 11.999 -95.001 35.999 -129.001
l219 293c-27.333 22 -58.666 33 -93.999 33c-24 0 -45.833 -4.83301 -65.5 -14.5s-36.5 -23.167 -50.5 -40.5s-25 -38.166 -33 -62.499s-12 -50.833 -12 -79.5zM444.997 249.998c0 26 -3.16797 49.833 -9.50098 71.5s-15.166 41.167 -26.499 58.5l-219 -293
c26 -22.667 57.333 -34 94 -34c24 0 45.833 4.83301 65.5 14.5s36.5 23.167 50.5 40.5s25 38 33 62s12 50.667 12 80z" />
    <glyph glyph-name="ugrave" unicode="&#xf9;" horiz-adv-x="567" 
d="M488 0h-80v56c-48.667 -45.333 -101.334 -68 -158.001 -68c-25.333 0 -48.666 4.33301 -69.999 13s-39.666 20.667 -54.999 36s-27.333 33.833 -36 55.5s-13 45.167 -13 70.5v337h79v-326c0 -34.667 10.667 -63 32 -85s49 -33 83 -33c24 0 47.667 6 71 18
s45.666 29.667 66.999 53v373h80v-500zM148 719h83l102 -148h-68z" />
    <glyph glyph-name="uacute" unicode="&#xfa;" horiz-adv-x="567" 
d="M488 0h-80v56c-48.667 -45.333 -101.334 -68 -158.001 -68c-25.333 0 -48.666 4.33301 -69.999 13s-39.666 20.667 -54.999 36s-27.333 33.833 -36 55.5s-13 45.167 -13 70.5v337h79v-326c0 -34.667 10.667 -63 32 -85s49 -33 83 -33c24 0 47.667 6 71 18
s45.666 29.667 66.999 53v373h80v-500zM333 719h83l-117 -148h-68z" />
    <glyph glyph-name="ucircumflex" unicode="&#xfb;" horiz-adv-x="567" 
d="M488 0h-80v56c-48.667 -45.333 -101.334 -68 -158.001 -68c-25.333 0 -48.666 4.33301 -69.999 13s-39.666 20.667 -54.999 36s-27.333 33.833 -36 55.5s-13 45.167 -13 70.5v337h79v-326c0 -34.667 10.667 -63 32 -85s49 -33 83 -33c24 0 47.667 6 71 18
s45.666 29.667 66.999 53v373h80v-500zM249 719h67l102 -148h-65l-71 92l-70 -92h-66z" />
    <glyph glyph-name="udieresis" unicode="&#xfc;" horiz-adv-x="567" 
d="M488 0h-80v56c-48.667 -45.333 -101.334 -68 -158.001 -68c-25.333 0 -48.666 4.33301 -69.999 13s-39.666 20.667 -54.999 36s-27.333 33.833 -36 55.5s-13 45.167 -13 70.5v337h79v-326c0 -34.667 10.667 -63 32 -85s49 -33 83 -33c24 0 47.667 6 71 18
s45.666 29.667 66.999 53v373h80v-500zM335 645c0 14.667 4.33301 26.334 13 35.001s20.334 13 35.001 13c14 0 25.667 -4.33301 35 -13s14 -20.334 14 -35.001c0 -14 -4.66699 -25.667 -14 -35s-21 -14 -35 -14c-14.667 0 -26.334 4.66699 -35.001 14s-13 21 -13 35z
M133 645c0 14.667 4.5 26.334 13.5 35.001s20.5 13 34.5 13c14.667 0 26.5 -4.33301 35.5 -13s13.5 -20.334 13.5 -35.001c0 -14 -4.5 -25.667 -13.5 -35s-20.833 -14 -35.5 -14c-14 0 -25.5 4.66699 -34.5 14s-13.5 21 -13.5 35z" />
    <glyph glyph-name="yacute" unicode="&#xfd;" horiz-adv-x="497" 
d="M195 -219h-78l94 232l-194 487h82l149 -391l151 391h81zM299 719h83l-117 -148h-68z" />
    <glyph glyph-name="thorn" unicode="&#xfe;" horiz-adv-x="567" 
d="M443 250c0 28.667 -3.83301 55 -11.5 79s-18.334 44.5 -32.001 61.5s-30 30.333 -49 40s-39.833 14.5 -62.5 14.5c-46 0 -89 -20 -129 -60v-270c40 -40 83 -60 129 -60c22.667 0 43.5 4.83301 62.5 14.5s35.333 23 49 40s24.334 37.5 32.001 61.5s11.5 50.333 11.5 79z
M80 719h79v-263c43.333 37.333 90.333 56 141 56c32.667 0 62.834 -6.5 90.501 -19.5s51.5 -31 71.5 -54s35.5 -50.5 46.5 -82.5s16.5 -67.333 16.5 -106s-5.5 -74 -16.5 -106s-26.5 -59.5 -46.5 -82.5s-43.833 -41 -71.5 -54s-57.834 -19.5 -90.501 -19.5
c-50.667 0 -97.667 19 -141 57v-264h-79v938z" />
    <glyph glyph-name="ydieresis" unicode="&#xff;" horiz-adv-x="497" 
d="M195 -219h-78l94 232l-194 487h82l149 -391l151 391h81zM301 645c0 14.667 4.33301 26.334 13 35.001s20.334 13 35.001 13c14 0 25.667 -4.33301 35 -13s14 -20.334 14 -35.001c0 -14 -4.66699 -25.667 -14 -35s-21 -14 -35 -14c-14.667 0 -26.334 4.66699 -35.001 14
s-13 21 -13 35zM99 645c0 14.667 4.5 26.334 13.5 35.001s20.5 13 34.5 13c14.667 0 26.5 -4.33301 35.5 -13s13.5 -20.334 13.5 -35.001c0 -14 -4.5 -25.667 -13.5 -35s-20.833 -14 -35.5 -14c-14 0 -25.5 4.66699 -34.5 14s-13.5 21 -13.5 35z" />
    <glyph glyph-name="dotlessi" unicode="&#x131;" horiz-adv-x="239" 
d="M80 500h79v-500h-79v500z" />
    <glyph glyph-name="OE" unicode="&#x152;" horiz-adv-x="954" 
d="M894 622h-313v-240h273v-65h-273v-251h320v-66h-516c-49.333 0 -94.333 8.5 -135 25.5s-75.834 40.667 -105.501 71s-52.667 66.5 -69 108.5s-24.5 88.333 -24.5 139s8.16699 97 24.5 139s39.333 78.167 69 108.5s64.834 54 105.501 71s85.667 25.5 135 25.5h509v-66z
M500 622l-109.999 0.00195312c-38 0 -72.5 -6.83301 -103.5 -20.5s-57.833 -32.834 -80.5 -57.501s-40.167 -54 -52.5 -88s-18.5 -71.333 -18.5 -112s6.16699 -78 18.5 -112s29.833 -63.333 52.5 -88s49.667 -43.834 81 -57.501s65.666 -20.5 102.999 -20.5h110v556z" />
    <glyph glyph-name="oe" unicode="&#x153;" horiz-adv-x="918" 
d="M43 250c0 38.667 5.83691 74 17.5039 106s28.167 59.5 49.5 82.5s46.833 41 76.5 54s62.167 19.5 97.5 19.5c44 0 83.167 -10.167 117.5 -30.5s61.166 -48.5 80.499 -84.5c19.333 36 45.666 64.167 78.999 84.5s71 30.5 113 30.5c30.667 0 58.667 -6 84 -18
s47 -28.833 65 -50.5s31.833 -47.5 41.5 -77.5s14.5 -63 14.5 -99c0 -6 -0.166992 -11.833 -0.5 -17.5s-0.5 -11.5 -0.5 -17.5h-357c1.33301 -26.667 6.66602 -51.167 15.999 -73.5s21.666 -41.5 36.999 -57.5s33.5 -28.333 54.5 -37s44.167 -13 69.5 -13
c46.667 0 95.667 16 147 48v-72c-52 -26 -104.333 -39 -157 -39c-46 0 -86.5 10.5 -121.5 31.5s-62.5 49.5 -82.5 85.5c-20 -36 -47.333 -64.5 -82 -85.5s-74 -31.5 -118 -31.5c-35.333 0 -67.833 6.5 -97.5 19.5s-55.167 31 -76.5 54s-37.833 50.5 -49.5 82.5
s-17.5 67.333 -17.5 106zM124.004 250c0 -28.667 4 -55 12 -79s19 -44.667 33 -62s30.833 -30.833 50.5 -40.5s41.167 -14.5 64.5 -14.5s44.666 4.83301 63.999 14.5s36 23.167 50 40.5s25 38 33 62s12 50.333 12 79s-4 55 -12 79s-19 44.667 -33 62
s-30.667 30.833 -50 40.5s-40.666 14.5 -63.999 14.5s-44.833 -4.83301 -64.5 -14.5s-36.5 -23.167 -50.5 -40.5s-25 -38 -33 -62s-12 -50.333 -12 -79zM800.004 288c0 24 -3.33301 45.833 -10 65.5s-15.667 36.5 -27 50.5s-25 25 -41 33s-33.333 12 -52 12
c-20 0 -38.833 -3.83301 -56.5 -11.5s-33 -18.667 -46 -33s-23.5 -31.333 -31.5 -51s-13 -41.5 -15 -65.5h279z" />
    <glyph glyph-name="Scaron" unicode="&#x160;" horiz-adv-x="544" 
d="M67 119c31.333 -20.667 62.6709 -36.4961 94.0039 -47.4961s62.333 -16.5 93 -16.5c23.333 0 44.666 3.16699 63.999 9.5s36 15 50 26s24.833 24.167 32.5 39.5s11.5 32.333 11.5 51c0 29.333 -8.83301 52.333 -26.5 69s-39.667 30.667 -66 42s-55 21.666 -86 30.999
s-59.667 21.5 -86 36.5s-48.333 34.167 -66 57.5s-26.5 54.666 -26.5 93.999c0 28 5.5 53.667 16.5 77s26.667 43.166 47 59.499s44.5 29.166 72.5 38.499s59 14 93 14c29.333 0 58.666 -3.33301 87.999 -10s59 -16.667 89 -30v-81c-57.333 36 -114.333 54 -171 54
c-23.333 0 -44.333 -3 -63 -9s-34.834 -14.167 -48.501 -24.5s-24.167 -22.833 -31.5 -37.5s-11 -31 -11 -49c0 -28.667 8.83301 -51.167 26.5 -67.5s39.667 -30 66 -41s55 -21.333 86 -31s59.667 -22 86 -37s48.333 -34.333 66 -58s26.5 -55.5 26.5 -95.5
c0 -28.667 -5.66699 -55 -17 -79s-27.333 -44.5 -48 -61.5s-45.334 -30.333 -74.001 -40s-60 -14.5 -94 -14.5c-32 0 -64.167 4 -96.5 12s-64.5 20 -96.5 36v83zM306.005 759.004h-67l-103 148h66l70 -91l71 91h65z" />
    <glyph glyph-name="scaron" unicode="&#x161;" horiz-adv-x="422" 
d="M56 99c46.667 -31.333 93.334 -47.001 140.001 -47.001c30 0 55 7.5 75 22.5s30 34.833 30 59.5c0 19.333 -6.33301 34.5 -19 45.5s-28.334 20.333 -47.001 28s-39 15 -61 22s-42.333 16 -61 27s-34.334 25.167 -47.001 42.5s-19 40.333 -19 69
c0 21.333 4.33301 40.833 13 58.5s20.667 32.834 36 45.501s33.666 22.5 54.999 29.5s44.666 10.5 69.999 10.5c44.667 0 89.334 -9.66699 134.001 -29v-74c-42 26 -84.667 39 -128 39c-30 0 -54.333 -7.16699 -73 -21.5s-28 -33.166 -28 -56.499
c0 -18.667 6.33301 -33.334 19 -44.001s28.334 -19.667 47.001 -27s39 -14.5 61 -21.5s42.333 -16 61 -27s34.334 -25.5 47.001 -43.5s19 -41.667 19 -71c0 -22 -4.33301 -42 -13 -60s-21 -33.5 -37 -46.5s-35 -23.167 -57 -30.5s-46 -11 -72 -11
c-48 0 -96.333 11.667 -145 35v76zM245 570.999h-67l-103 148h66l70 -91l71 91h65z" />
    <glyph glyph-name="Ydieresis" unicode="&#x178;" horiz-adv-x="595" 
d="M257 299l-247 389h93l194 -315l195 315h94l-247 -389v-299h-82v299zM350 833c0 14.667 4.33301 26.334 13 35.001s20.334 13 35.001 13c14 0 25.667 -4.33301 35 -13s14 -20.334 14 -35.001c0 -14 -4.66699 -25.667 -14 -35s-21 -14 -35 -14
c-14.667 0 -26.334 4.66699 -35.001 14s-13 21 -13 35zM148 833c0 14.667 4.5 26.334 13.5 35.001s20.5 13 34.5 13c14.667 0 26.5 -4.33301 35.5 -13s13.5 -20.334 13.5 -35.001c0 -14 -4.5 -25.667 -13.5 -35s-20.833 -14 -35.5 -14c-14 0 -25.5 4.66699 -34.5 14
s-13.5 21 -13.5 35z" />
    <glyph glyph-name="Zcaron" unicode="&#x17d;" horiz-adv-x="618" 
d="M43 52l414 570h-394v66h495v-52l-413 -570h420v-66h-522v52zM343 759h-67l-103 148h66l70 -91l71 91h65z" />
    <glyph glyph-name="zcaron" unicode="&#x17e;" horiz-adv-x="477" 
d="M41 48l283 389h-268v63h367v-47l-282 -389h287v-64h-387v48zM272 571h-67l-103 148h66l70 -91l71 91h65z" />
    <glyph glyph-name="florin" unicode="&#x192;" horiz-adv-x="563" 
d="M125 436l108.002 -0.00292969v121c0 20.667 3.66699 39.834 11 57.501s17.666 32.834 30.999 45.501s29.166 22.5 47.499 29.5s38.5 10.5 60.5 10.5c28.667 0 56 -5.33301 82 -16v-73c-11.333 7.33301 -22.5 12.5 -33.5 15.5s-22.167 4.5 -33.5 4.5
c-24.667 0 -44.834 -7.66699 -60.501 -23s-23.5 -35.333 -23.5 -60v-112h136v-63h-136v-367c0 -21.333 -3.66699 -40.666 -11 -57.999s-17.666 -32.333 -30.999 -45s-29.166 -22.5 -47.499 -29.5s-38.5 -10.5 -60.5 -10.5c-26 0 -53.333 5.33301 -82 16v73
c11.333 -7.33301 22.5 -12.5 33.5 -15.5s22.167 -4.5 33.5 -4.5c25.333 0 45.666 7.66699 60.999 23s23 35.333 23 60v358h-108v63z" />
    <glyph glyph-name="circumflex" unicode="&#x2c6;" 
d="M92 719h67l102 -148h-65l-71 92l-70 -92h-66z" />
    <glyph glyph-name="caron" unicode="&#x2c7;" 
d="M159 571h-67l-103 148h66l70 -91l71 91h65z" />
    <glyph glyph-name="ring" unicode="&#x2da;" 
d="M29 645c0 28 9 51 27 69s41 27 69 27c28.667 0 51.834 -9 69.501 -27s26.5 -41 26.5 -69c0 -28.667 -8.83301 -51.834 -26.5 -69.501s-40.834 -26.5 -69.501 -26.5c-28 0 -51 8.83301 -69 26.5s-27 40.834 -27 69.501zM72 645c0 -15.333 5 -28 15 -38s22.667 -15 38 -15
s28 5 38 15s15 22.667 15 38s-5 28 -15 38s-22.667 15 -38 15s-28 -5 -38 -15s-15 -22.667 -15 -38z" />
    <glyph glyph-name="tilde" unicode="&#x2dc;" 
d="M-25 599c0 30 8.16992 54.667 24.5029 74s37.166 29 62.499 29c13.333 0 25.666 -3 36.999 -9s21.833 -12.5 31.5 -19.5l27.5 -19.5c8.66699 -6 17 -9 25 -9c11.333 0 20.666 4.16699 27.999 12.5s11 19.5 11 33.5h53c0 -30.667 -8 -55.5 -24 -74.5
s-36.667 -28.5 -62 -28.5c-14 0 -26.5 3 -37.5 9s-21.333 12.5 -31 19.5l-27.5 19.5c-8.66699 6 -17.334 9 -26.001 9c-11.333 0 -20.666 -4.16699 -27.999 -12.5s-11 -19.5 -11 -33.5h-53z" />
    <glyph glyph-name="endash" unicode="&#x2013;" horiz-adv-x="500" 
d="M35 286h430v-63h-430v63z" />
    <glyph glyph-name="emdash" unicode="&#x2014;" horiz-adv-x="1000" 
d="M35 286h930v-63h-930v63z" />
    <glyph glyph-name="quoteleft" unicode="&#x2018;" 
d="M126 480h-78l87 208h68z" />
    <glyph glyph-name="quoteright" unicode="&#x2019;" 
d="M124 688h79l-87 -208h-68z" />
    <glyph glyph-name="quotesinglbase" unicode="&#x201a;" 
d="M93 83h77l-87 -208h-67z" />
    <glyph glyph-name="quotedblleft" unicode="&#x201c;" horiz-adv-x="419" 
d="M295 480h-79l88 208h67zM126 480h-78l87 208h68z" />
    <glyph glyph-name="quotedblright" unicode="&#x201d;" horiz-adv-x="419" 
d="M124 688h79l-87 -208h-68zM293 688h78l-87 -208h-68z" />
    <glyph glyph-name="quotedblbase" unicode="&#x201e;" horiz-adv-x="419" 
d="M261 83h78l-87 -208h-67zM93 83h77l-87 -208h-67z" />
    <glyph glyph-name="dagger" unicode="&#x2020;" horiz-adv-x="446" 
d="M188 458h-161v69h161v161h69v-161h162v-69h-162v-458h-69v458z" />
    <glyph glyph-name="daggerdbl" unicode="&#x2021;" horiz-adv-x="446" 
d="M188 162h-161v68h161v228h-161v69h161v161h69v-161h162v-69h-162v-228h162v-68h-162v-162h-69v162z" />
    <glyph glyph-name="bullet" unicode="&#x2022;" horiz-adv-x="500" 
d="M109 344c0 19.333 3.66699 37.666 11 54.999s17.5 32.333 30.5 45s28 22.667 45 30s35.167 11 54.5 11s37.666 -3.66699 54.999 -11s32.333 -17.333 45 -30s22.667 -27.667 30 -45s11 -35.666 11 -54.999s-3.66699 -37.666 -11 -54.999s-17.333 -32.333 -30 -45
s-27.667 -22.667 -45 -30s-35.666 -11 -54.999 -11s-37.5 3.66699 -54.5 11s-32 17.333 -45 30s-23.167 27.667 -30.5 45s-11 35.666 -11 54.999z" />
    <glyph glyph-name="ellipsis" unicode="&#x2026;" horiz-adv-x="1001" 
d="M447 41c0 16 5 29 15 39s22.667 15 38 15s28.166 -5 38.499 -15s15.5 -23 15.5 -39c0 -15.333 -5.16699 -28 -15.5 -38s-23.166 -15 -38.499 -15s-28 5 -38 15s-15 22.667 -15 38zM114 41c0 16 5 29 15 39s22.667 15 38 15s28 -5 38 -15s15 -23 15 -39
c0 -15.333 -5 -28 -15 -38s-22.667 -15 -38 -15s-28 5 -38 15s-15 22.667 -15 38zM781 41c0 16 5 29 15 39s22.667 15 38 15s28 -5 38 -15s15 -23 15 -39c0 -15.333 -5 -28 -15 -38s-22.667 -15 -38 -15s-28 5 -38 15s-15 22.667 -15 38z" />
    <glyph glyph-name="perthousand" unicode="&#x2030;" horiz-adv-x="1208" 
d="M841 172c0 26.667 4 51.334 12 74.001s19.167 42.167 33.5 58.5s31.333 29 51 38s41.5 13.5 65.5 13.5s46 -4.5 66 -13.5s37 -21.667 51 -38s25 -35.833 33 -58.5s12 -47.334 12 -74.001c0 -27.333 -4 -52.166 -12 -74.499s-19 -41.666 -33 -57.999s-31 -29 -51 -38
s-42 -13.5 -66 -13.5s-45.833 4.5 -65.5 13.5s-36.667 21.667 -51 38s-25.5 35.666 -33.5 57.999s-12 47.166 -12 74.499zM903 172c0 -39.333 9.16699 -71.333 27.5 -96s42.5 -37 72.5 -37s54.167 12.333 72.5 37s27.5 56.667 27.5 96c0 40 -9.16699 72.167 -27.5 96.5
s-42.5 36.5 -72.5 36.5s-54.167 -12.167 -72.5 -36.5s-27.5 -56.5 -27.5 -96.5zM477 172c0 26.667 4 51.334 12 74.001s19.167 42.167 33.5 58.5s31.333 29 51 38s41.5 13.5 65.5 13.5s45.833 -4.5 65.5 -13.5s36.834 -21.667 51.501 -38s26 -35.833 34 -58.5
s12 -47.334 12 -74.001c0 -27.333 -4 -52.166 -12 -74.499s-19.333 -41.666 -34 -57.999s-31.834 -29 -51.501 -38s-41.5 -13.5 -65.5 -13.5s-45.833 4.5 -65.5 13.5s-36.667 21.667 -51 38s-25.5 35.666 -33.5 57.999s-12 47.166 -12 74.499zM539 172
c0 -39.333 9.16699 -71.333 27.5 -96s42.5 -37 72.5 -37s54.333 12.333 73 37s28 56.667 28 96c0 40 -9.33301 72.167 -28 96.5s-43 36.5 -73 36.5s-54.167 -12.167 -72.5 -36.5s-27.5 -56.5 -27.5 -96.5zM43 516c0 26.667 4 51.334 12 74.001s19.167 42.167 33.5 58.5
s31.333 29 51 38s41.5 13.5 65.5 13.5s45.833 -4.5 65.5 -13.5s36.834 -21.667 51.501 -38s26 -35.833 34 -58.5s12 -47.334 12 -74.001c0 -27.333 -4 -52.166 -12 -74.499s-19.333 -41.666 -34 -57.999s-31.834 -29 -51.501 -38s-41.5 -13.5 -65.5 -13.5
s-45.833 4.5 -65.5 13.5s-36.667 21.667 -51 38s-25.5 35.666 -33.5 57.999s-12 47.166 -12 74.499zM105 516c0 -39.333 9.16699 -71.166 27.5 -95.499s42.5 -36.5 72.5 -36.5s54.333 12.167 73 36.5s28 56.166 28 95.499c0 40 -9.33301 72.167 -28 96.5s-43 36.5 -73 36.5
s-54.167 -12.167 -72.5 -36.5s-27.5 -56.5 -27.5 -96.5zM647 688h67l-516 -688h-67z" />
    <glyph glyph-name="guilsinglleft" unicode="&#x2039;" horiz-adv-x="380" 
d="M150 250l182 -207h-86l-197 207l197 208h86z" />
    <glyph glyph-name="guilsinglright" unicode="&#x203a;" horiz-adv-x="380" 
d="M231 250l-182 208h85l198 -208l-198 -207h-85z" />
    <glyph glyph-name="Euro" unicode="&#x20ac;" horiz-adv-x="563" 
d="M14 297l72 0.00195312c-0.666992 8 -1.16699 15.833 -1.5 23.5s-0.5 15.5 -0.5 23.5s0.166992 15.833 0.5 23.5s0.5 15.5 0.5 23.5h-71v57h81c8 38 20.5 72.5 37.5 103.5s37.5 57.5 61.5 79.5s51.167 39 81.5 51s63.166 18 98.499 18c49.333 0 98 -12.667 146 -38v-75
c-22.667 15.333 -45.5 26.666 -68.5 33.999s-45.5 11 -67.5 11c-50 0 -92.833 -16.5 -128.5 -49.5s-60.5 -77.833 -74.5 -134.5h224v-57h-237c-0.666992 -8 -1.16699 -15.833 -1.5 -23.5s-0.5 -15.5 -0.5 -23.5s0.166992 -15.833 0.5 -23.5s0.833008 -15.5 1.5 -23.5h237
v-57h-224c14 -56.667 38.833 -101.5 74.5 -134.5s78.5 -49.5 128.5 -49.5c22 0 44.5 3.66699 67.5 11s45.833 18.666 68.5 33.999v-75c-48 -25.333 -96.667 -38 -146 -38c-35.333 0 -68.166 6 -98.499 18s-57.5 29 -81.5 51s-44.5 48.5 -61.5 79.5s-29.5 65.5 -37.5 103.5
h-81v57z" />
    <glyph glyph-name="trademark" unicode="&#x2122;" horiz-adv-x="872" 
d="M149 635h-127v53h320v-53h-127v-353h-66v353zM425 688h57l136 -191l136 191h57v-406h-62v301l-111 -157h-40l-111 157v-301h-62v406z" />
    <glyph glyph-name="glyph221" 
d="M176 907h83l-117 -148h-68z" />
    <glyph glyph-name="glyph222" 
d="M159 759h-67l-103 148h66l70 -91l71 91h65z" />
    <glyph glyph-name="glyph223" 
d="M92 907h67l102 -148h-65l-71 92l-70 -92h-66z" />
    <glyph glyph-name="glyph224" 
d="M178 833c0 14.667 4.33301 26.334 13 35.001s20.334 13 35.001 13c14 0 25.667 -4.33301 35 -13s14 -20.334 14 -35.001c0 -14 -4.66699 -25.667 -14 -35s-21 -14 -35 -14c-14.667 0 -26.334 4.66699 -35.001 14s-13 21 -13 35zM-24 833c0 14.667 4.5 26.334 13.5 35.001
s20.5 13 34.5 13c14.667 0 26.5 -4.33301 35.5 -13s13.5 -20.334 13.5 -35.001c0 -14 -4.5 -25.667 -13.5 -35s-20.833 -14 -35.5 -14c-14 0 -25.5 4.66699 -34.5 14s-13.5 21 -13.5 35z" />
    <glyph glyph-name="glyph225" 
d="M-9 907h83l102 -148h-68z" />
    <glyph glyph-name="glyph226" 
d="M29 833c0 28 9 51 27 69s41 27 69 27c28.667 0 51.834 -9 69.501 -27s26.5 -41 26.5 -69c0 -28.667 -8.83301 -51.834 -26.5 -69.501s-40.834 -26.5 -69.501 -26.5c-28 0 -51 8.83301 -69 26.5s-27 40.834 -27 69.501zM72 833c0 -15.333 5 -28 15 -38s22.667 -15 38 -15
s28 5 38 15s15 22.667 15 38s-5 28 -15 38s-22.667 15 -38 15s-28 -5 -38 -15s-15 -22.667 -15 -38z" />
    <glyph glyph-name="glyph227" 
d="M-25 787c0 30 8.16992 54.667 24.5029 74s37.166 29 62.499 29c13.333 0 25.666 -3 36.999 -9s21.833 -12.5 31.5 -19.5l27.5 -19.5c8.66699 -6 17 -9 25 -9c11.333 0 20.666 4.16699 27.999 12.5s11 19.5 11 33.5h53c0 -30.667 -8 -55.5 -24 -74.5
s-36.667 -28.5 -62 -28.5c-14 0 -26.5 3 -37.5 9s-21.333 12.5 -31 19.5l-27.5 19.5c-8.66699 6 -17.334 9 -26.001 9c-11.333 0 -20.666 -4.16699 -27.999 -12.5s-11 -19.5 -11 -33.5h-53z" />
    </font>
</defs>
</svg>
