<?xml version="1.0" encoding="utf-8"?>
<!-- Generator: Adobe Illustrator 16.0.0, SVG Export Plug-In . SVG Version: 6.00 Build 0)  -->
<!DOCTYPE svg PUBLIC "-//W3C//DTD SVG 1.1//EN" "http://www.w3.org/Graphics/SVG/1.1/DTD/svg11.dtd">
<svg version="1.1" id="Calque_1" xmlns="http://www.w3.org/2000/svg" xmlns:xlink="http://www.w3.org/1999/xlink" x="0px" y="0px"
	 width="22px" height="21px" viewBox="0 0 22 21" enable-background="new 0 0 22 21" xml:space="preserve">
<path fill="none" stroke="#CAA663" stroke-miterlimit="10" d="M19.722,17.852H1.654c-0.614,0-1.14-0.527-1.14-1.14V3.641
	c0-0.614,0.526-1.14,1.14-1.14h18.068c0.614,0,1.14,0.526,1.14,1.14v13.071C20.861,17.324,20.336,17.852,19.722,17.852z"/>
<path fill="none" stroke="#CAA663" stroke-miterlimit="10" d="M9.723,12.764H4.197c-0.613,0-1.053-0.525-1.053-1.054V6.185
	c0-0.614,0.526-1.052,1.053-1.052h5.525c0.615,0,1.054,0.526,1.054,1.052v5.525C10.776,12.324,10.338,12.764,9.723,12.764z"/>
<path fill="#CAA663" d="M17.617,7.5h-3.946c-0.353,0-0.703-0.351-0.703-0.702l0,0c0-0.351,0.351-0.701,0.703-0.701h3.946
	c0.35,0,0.702,0.35,0.702,0.701l0,0C18.319,7.237,18.056,7.5,17.617,7.5z"/>
<path fill="#CAA663" d="M17.617,9.606h-3.946c-0.353,0-0.703-0.351-0.703-0.702l0,0c0-0.351,0.351-0.702,0.703-0.702h3.946
	c0.35,0,0.702,0.351,0.702,0.702l0,0C18.319,9.342,18.056,9.606,17.617,9.606z"/>
<path fill="#CAA663" d="M16.565,11.799h-2.895c-0.353,0-0.703-0.351-0.703-0.701l0,0c0-0.353,0.351-0.703,0.703-0.703h2.895
	c0.351,0,0.701,0.35,0.701,0.703l0,0C17.178,11.448,16.916,11.799,16.565,11.799z"/>
</svg>
