<?xml version="1.0" encoding="utf-8"?>
<!-- Generator: Adobe Illustrator 16.0.0, SVG Export Plug-In . SVG Version: 6.00 Build 0)  -->
<!DOCTYPE svg PUBLIC "-//W3C//DTD SVG 1.1//EN" "http://www.w3.org/Graphics/SVG/1.1/DTD/svg11.dtd">
<svg version="1.1" id="Calque_1" xmlns="http://www.w3.org/2000/svg" xmlns:xlink="http://www.w3.org/1999/xlink" x="0px" y="0px"
	 width="595.279px" height="841.891px" viewBox="0 0 595.279 841.891" enable-background="new 0 0 595.279 841.891"
	 xml:space="preserve">
<path fill="none" stroke="#B0B0B0" stroke-width="7" stroke-miterlimit="10" d="M509.14,262.404h-70.667
	c-13.947,0-26.035-12.058-26.035-25.971l0,0c0-27.826-18.596-38.956-44.631-38.956H233.912c-27.894,0-52.07,12.985-52.07,38.956l0,0
	c0,13.913-12.087,25.971-26.035,25.971H85.14c-40.912,0-74.386,33.391-74.386,74.202v222.605c0,40.812,33.474,74.202,74.386,74.202
	h424c40.912,0,74.386-33.391,74.386-74.202V336.605C583.526,295.794,550.052,262.404,509.14,262.404z"/>
<line fill="none" stroke="#B0B0B0" stroke-width="7" stroke-miterlimit="10" x1="155.807" y1="262.404" x2="438.473" y2="262.404"/>
</svg>
