<?xml version="1.0" encoding="utf-8"?>
<!-- Generator: Adobe Illustrator 16.0.0, SVG Export Plug-In . SVG Version: 6.00 Build 0)  -->
<!DOCTYPE svg PUBLIC "-//W3C//DTD SVG 1.1//EN" "http://www.w3.org/Graphics/SVG/1.1/DTD/svg11.dtd">
<svg version="1.1" id="Calque_1" xmlns="http://www.w3.org/2000/svg" xmlns:xlink="http://www.w3.org/1999/xlink" x="0px" y="0px"
	 width="22px" height="20px" viewBox="0 0 22 20" enable-background="new 0 0 22 20" xml:space="preserve">
<path fill="#010101" d="M21.192,6.51l-9.897-6.096c-0.196-0.131-0.394-0.131-0.59,0l-9.896,6.03l0,0L0.743,6.51
	C0.612,6.575,0.48,6.772,0.48,6.969v12.125c0,0.328,0.263,0.59,0.59,0.59H20.93c0.328,0,0.59-0.262,0.59-0.59V6.969
	C21.454,6.772,21.389,6.575,21.192,6.51z M10.967,1.594l8.848,5.375l-2.557,1.573V6.969c0-0.328-0.262-0.59-0.589-0.59H5.265
	c-0.328,0-0.589,0.262-0.589,0.59v1.573L2.053,6.969L10.967,1.594z M16.145,7.559v1.704l-5.177,3.081L5.855,9.197V7.559H16.145z
	 M20.341,18.504H1.595V8.018l3.408,2.031l5.702,3.475c0.066,0.066,0.196,0.066,0.262,0.066c0.066,0,0.197,0,0.263-0.066l5.703-3.475
	l3.408-2.031V18.504L20.341,18.504z"/>
</svg>
