<?xml version="1.0" encoding="utf-8"?>
<!-- Generator: Adobe Illustrator 16.0.0, SVG Export Plug-In . SVG Version: 6.00 Build 0)  -->
<!DOCTYPE svg PUBLIC "-//W3C//DTD SVG 1.1//EN" "http://www.w3.org/Graphics/SVG/1.1/DTD/svg11.dtd">
<svg version="1.1" id="Calque_1" xmlns="http://www.w3.org/2000/svg" xmlns:xlink="http://www.w3.org/1999/xlink" x="0px" y="0px"
	 width="595.279px" height="841.891px" viewBox="0 0 595.279 841.891" enable-background="new 0 0 595.279 841.891"
	 xml:space="preserve">
<path fill="#B0B0B0" stroke="#FFFFFF" stroke-miterlimit="10" d="M502.301,610.109c-115.423,0-150.69-44.887-150.69-74.811
	c26.718-25.649,63.055-64.124,79.086-111.147c2.138-5.344,5.344-9.619,10.687-11.756l0,0c19.237-9.619,27.787-71.605,21.375-96.186
	c-1.068-2.138-1.068-5.344-1.068-7.481c1.068-6.413,1.068-13.894,1.068-21.375c0-37.405-12.825-71.605-35.268-99.392
	c-14.963-18.168-34.199-33.13-55.574-43.818c-16.031-7.481-34.199-12.825-53.437-16.031c-6.412-1.069-12.824-1.069-19.236-1.069
	h-1.069l0,0l0,0h-1.068c-6.412,0-12.824,0-19.237,1.069c-19.236,2.137-37.405,7.481-53.436,16.031
	c-21.375,10.688-40.612,25.649-55.574,43.818c-22.443,26.718-35.268,61.986-35.268,99.392c0,7.481,0,13.894,1.068,21.375
	c0,2.137,0,5.343-1.068,7.481c-7.481,24.581,2.137,86.567,21.374,96.186l0,0c5.344,2.137,8.55,6.412,10.688,11.756
	c16.031,45.955,52.367,84.43,79.086,111.147c0,29.924-34.199,74.811-150.69,74.811c-76.948,0-85.498,41.681-87.636,96.186l0,0
	c0,9.618,3.206,9.618,10.688,9.618h262.906h19.237h19.236h262.907c7.48,0,9.618,0,10.687-9.618l0,0
	C587.799,650.721,579.249,610.109,502.301,610.109z"/>
</svg>
