<?xml version="1.0" standalone="no"?>
<!DOCTYPE svg PUBLIC "-//W3C//DTD SVG 1.1//EN" "http://www.w3.org/Graphics/SVG/1.1/DTD/svg11.dtd" >
<svg>
<metadata>
Created by FontForge 20090914 at Fri Mar 30 10:49:14 2012
 By www-data
Copyright 2010 Monotype Imaging Inc. All rights reserved. Designed by Nick Job.
</metadata>
<defs>
<font id="CamphorW01-Heavy" horiz-adv-x="250" >
  <font-face 
    font-family="Camphor W01 Heavy"
    font-weight="400"
    font-stretch="normal"
    units-per-em="1000"
    panose-1="2 11 9 4 3 4 4 2 2 4"
    ascent="735"
    descent="-265"
    x-height="500"
    cap-height="688"
    bbox="-69 -250 1189 935"
    underline-thickness="62"
    underline-position="-63"
    unicode-range="U+0020-U+E808"
  />
<missing-glyph 
 />
    <glyph glyph-name=".notdef" 
 />
    <glyph glyph-name="space" unicode=" " 
 />
    <glyph glyph-name="exclam" unicode="!" horiz-adv-x="312" 
d="M74 688h164v-469h-164v469zM63 81c0 28 8.66699 50.667 26 68s39.666 26 66.999 26s49.666 -8.66699 66.999 -26s26 -40 26 -68c0 -27.333 -8.66699 -49.666 -26 -66.999s-39.666 -26 -66.999 -26s-49.666 8.66699 -66.999 26s-26 39.666 -26 66.999z" />
    <glyph glyph-name="quotedbl" unicode="&#x22;" horiz-adv-x="453" 
d="M258 688h140v-280h-140v280zM56 688h139v-280h-139v280z" />
    <glyph glyph-name="numbersign" unicode="#" horiz-adv-x="563" 
d="M-8 288h88l13 112h-70v139h88l19 149h139l-18 -149h109l20 149h140l-19 -149h70v-139h-88l-13 -112h70v-138h-88l-18 -150h-140l18 150h-109l-20 -150h-139l18 150h-70v138zM219 288h110l15 112h-110z" />
    <glyph glyph-name="dollar" unicode="$" horiz-adv-x="563" 
d="M212 22c-47.333 6 -94.6689 19.334 -142.002 40.001v149c61.333 -40 122 -60 182 -60c27.333 0 49 5.83301 65 17.5s24 27.167 24 46.5c0 16.667 -7 29.667 -21 39s-31.333 17.666 -52 24.999l-68 23c-24.667 8 -47.334 18.833 -68.001 32.5s-38 31.834 -52 54.501
s-21 52 -21 88c0 44 13.833 81.667 41.5 113s64.834 53.666 111.501 66.999v156h139v-147c42 -5.33301 84 -16.333 126 -33v-146c-53.333 33.333 -108.666 50 -165.999 50c-25.333 0 -45.833 -5.16699 -61.5 -15.5s-23.5 -24.5 -23.5 -42.5c0 -15.333 7 -27.333 21 -36
s31.333 -16.5 52 -23.5l68 -22.5c24.667 -8 47.334 -19.167 68.001 -33.5s38 -33 52 -56s21 -53.167 21 -90.5c0 -46 -14.167 -85.333 -42.5 -118s-66.5 -55.667 -114.5 -69v-155h-139v147z" />
    <glyph glyph-name="percent" unicode="%" horiz-adv-x="845" 
d="M465 172c0 26.667 4.33301 51.334 13 74.001s20.667 42.167 36 58.5s33.666 29 54.999 38s44.666 13.5 69.999 13.5s48.666 -4.5 69.999 -13.5s39.666 -21.667 54.999 -38s27.333 -35.833 36 -58.5s13 -47.334 13 -74.001s-4.33301 -51.334 -13 -74.001
s-20.667 -42.167 -36 -58.5s-33.666 -29 -54.999 -38s-44.666 -13.5 -69.999 -13.5s-48.666 4.5 -69.999 13.5s-39.666 21.667 -54.999 38s-27.333 35.833 -36 58.5s-13 47.334 -13 74.001zM574 172c0 -28 6 -50.833 18 -68.5s27.667 -26.5 47 -26.5
s35.166 8.83301 47.499 26.5s18.5 40.5 18.5 68.5s-6.16699 50.833 -18.5 68.5s-28.166 26.5 -47.499 26.5s-35 -8.83301 -47 -26.5s-18 -40.5 -18 -68.5zM31 516c0 26.667 4.33301 51.334 13 74.001s20.667 42.167 36 58.5s33.666 29 54.999 38s44.666 13.5 69.999 13.5
s48.666 -4.5 69.999 -13.5s39.666 -21.667 54.999 -38s27.333 -35.833 36 -58.5s13 -47.334 13 -74.001s-4.33301 -51.334 -13 -74.001s-20.667 -42.167 -36 -58.5s-33.666 -29 -54.999 -38s-44.666 -13.5 -69.999 -13.5s-48.666 4.5 -69.999 13.5
s-39.666 21.667 -54.999 38s-27.333 35.833 -36 58.5s-13 47.334 -13 74.001zM140 516c0 -28 6 -50.833 18 -68.5s27.667 -26.5 47 -26.5s35.166 8.83301 47.499 26.5s18.5 40.5 18.5 68.5s-6.16699 50.833 -18.5 68.5s-28.166 26.5 -47.499 26.5s-35 -8.83301 -47 -26.5
s-18 -40.5 -18 -68.5zM622 688h117l-516 -688h-117z" />
    <glyph glyph-name="ampersand" unicode="&#x26;" horiz-adv-x="672" 
d="M664 288l-118.004 -0.00195312v-237c-38.667 -20.667 -79.667 -36.334 -123 -47.001s-85.333 -16 -126 -16c-37.333 0 -71.666 4.83301 -102.999 14.5s-58.166 23.334 -80.499 41.001s-39.666 38.834 -51.999 63.501s-18.5 51.667 -18.5 81
c0 38.667 10 72.834 30 102.501s48 51.5 84 65.5c-31.333 12 -55.5 31.833 -72.5 59.5s-25.5 58.5 -25.5 92.5c0 28.667 5.66699 54.667 17 78s27 43.5 47 60.5s44.167 30.167 72.5 39.5s59.5 14 93.5 14c60 0 118.667 -13 176 -39v-144c-52.667 31.333 -104.667 47 -156 47
c-25.333 0 -46.166 -6.5 -62.499 -19.5s-24.5 -30.167 -24.5 -51.5c0 -24 10 -43.5 30 -58.5s46.667 -22.5 80 -22.5h332v-124zM209.996 202.998c0 -23.333 9.83496 -42.332 29.502 -56.999s45.5 -22 77.5 -22c11.333 0 23.166 1.16699 35.499 3.5
s24.166 5.16602 35.499 8.49902v152h-63c-34.667 0 -62.5 -7.83301 -83.5 -23.5s-31.5 -36.167 -31.5 -61.5z" />
    <glyph glyph-name="quotesingle" unicode="'" 
d="M56 688h139v-280h-139v280z" />
    <glyph glyph-name="parenleft" unicode="(" horiz-adv-x="344" 
d="M55 282c0 78.667 12.167 154.667 36.5 228s60.166 143 107.499 209h168c-50 -63.333 -88 -131.833 -114 -205.5s-39 -150.834 -39 -231.501s13 -158 39 -232s64 -142.667 114 -206h-168c-47.333 66 -83.166 135.833 -107.499 209.5s-36.5 149.834 -36.5 228.501z" />
    <glyph glyph-name="parenright" unicode=")" horiz-adv-x="344" 
d="M288 282c0 -78.667 -12.167 -154.834 -36.5 -228.501s-60.166 -143.5 -107.499 -209.5h-166c50 63.333 87.833 132 113.5 206s38.5 151.333 38.5 232s-12.833 157.834 -38.5 231.501s-63.5 142.167 -113.5 205.5h166c47.333 -66 83.166 -135.667 107.499 -209
s36.5 -149.333 36.5 -228z" />
    <glyph glyph-name="asterisk" unicode="*" horiz-adv-x="469" 
d="M296 555l128 41l37 -118l-126 -41l78 -109l-100 -72l-78 108l-79 -108l-101 72l79 109l-127 41l38 118l127 -41v133h124v-133z" />
    <glyph glyph-name="plus" unicode="+" horiz-adv-x="563" 
d="M31 351h181v181h139v-181h181v-139h-181v-181h-139v181h-181v139z" />
    <glyph glyph-name="comma" unicode="," 
d="M56 140h154l-112 -265h-136z" />
    <glyph glyph-name="hyphen" unicode="-" horiz-adv-x="313" 
d="M23 320h266v-131h-266v131z" />
    <glyph glyph-name="period" unicode="." 
d="M32 81c0 28 8.5 50.667 25.5 68s39.5 26 67.5 26s50.5 -8.66699 67.5 -26s25.5 -40 25.5 -68c0 -27.333 -8.5 -49.666 -25.5 -66.999s-39.5 -26 -67.5 -26s-50.5 8.66699 -67.5 26s-25.5 39.666 -25.5 66.999z" />
    <glyph glyph-name="slash" unicode="/" horiz-adv-x="375" 
d="M216 719h162l-219 -875h-162z" />
    <glyph glyph-name="zero" unicode="0" horiz-adv-x="563" 
d="M16 344c0 52.667 6.5 100.834 19.5 144.501s31.167 81.167 54.5 112.5s51.333 55.666 84 72.999s68.667 26 108 26s75.166 -8.66699 107.499 -26s60.166 -41.666 83.499 -72.999s41.5 -68.833 54.5 -112.5s19.5 -91.834 19.5 -144.501s-6.5 -100.834 -19.5 -144.501
s-31.167 -81.167 -54.5 -112.5s-51.166 -55.666 -83.499 -72.999s-68.166 -26 -107.499 -26s-75.333 8.66699 -108 26s-60.667 41.666 -84 72.999s-41.5 68.833 -54.5 112.5s-19.5 91.834 -19.5 144.501zM179 344c0 -66.667 9.16699 -119.334 27.5 -158.001
s43.5 -58 75.5 -58s57 19.333 75 58s27 91.334 27 158.001c0 67.333 -9 120.166 -27 158.499s-43 57.5 -75 57.5s-57.167 -19.167 -75.5 -57.5s-27.5 -91.166 -27.5 -158.499z" />
    <glyph glyph-name="one" unicode="1" horiz-adv-x="563" 
d="M247 510l-160 -87v148l218 117h108v-688h-166v510z" />
    <glyph glyph-name="two" unicode="2" horiz-adv-x="563" 
d="M47 101c94.667 78 163.499 145.671 206.499 203.004s64.5 107.666 64.5 150.999c0 30 -9.5 54.333 -28.5 73s-43.5 28 -73.5 28c-24 0 -49.167 -5.33301 -75.5 -16s-52.166 -26 -77.499 -46v151c64 36.667 131.667 55 203 55c32.667 0 62.667 -5.33301 90 -16
s50.833 -25.834 70.5 -45.501s35 -42.834 46 -69.501s16.5 -56 16.5 -88c0 -51.333 -18.167 -104.833 -54.5 -160.5s-90.5 -115.834 -162.5 -180.501h221v-140h-446v101z" />
    <glyph glyph-name="three" unicode="3" horiz-adv-x="563" 
d="M180 413l31.001 0.00488281c32 0 57.833 7.5 77.5 22.5s29.5 34.167 29.5 57.5c0 21.333 -8.16699 38.5 -24.5 51.5s-37.166 19.5 -62.499 19.5c-50.667 0 -103 -16.333 -157 -49v146c28.667 13.333 57.834 23.166 87.501 29.499s59.167 9.5 88.5 9.5
c34 0 65.167 -4.66699 93.5 -14s52.666 -22.5 72.999 -39.5s36.166 -37.167 47.499 -60.5s17 -49.333 17 -78c0 -34.667 -8.83301 -65.834 -26.5 -93.501s-41.834 -47.167 -72.501 -58.5c36 -14 64.167 -35.833 84.5 -65.5s30.5 -63.834 30.5 -102.501
c0 -29.333 -6.16699 -56.333 -18.5 -81s-29.5 -45.834 -51.5 -63.501s-48.5 -31.334 -79.5 -41.001s-64.833 -14.5 -101.5 -14.5c-62 0 -124.333 14.333 -187 43v148c58 -36.667 112.667 -55 164 -55c32 0 57.667 7.33301 77 22s29 33.667 29 57c0 24.667 -10 44.667 -30 60
s-46.667 23 -80 23h-39v127z" />
    <glyph glyph-name="four" unicode="4" horiz-adv-x="563" 
d="M294 157h-286v101l310 430h131v-406h98v-125h-98v-157h-155v157zM294 282v185l-133 -185h133z" />
    <glyph glyph-name="five" unicode="5" horiz-adv-x="563" 
d="M461 548l-230.998 0.00488281v-113c14.667 2 30.667 3 48 3c32.667 0 62.667 -5 90 -15s50.666 -24.333 69.999 -43s34.5 -41.334 45.5 -68.001s16.5 -56.334 16.5 -89.001c0 -34.667 -6.5 -66.334 -19.5 -95.001s-31.167 -53.334 -54.5 -74.001
s-51.333 -36.834 -84 -48.501s-68.334 -17.5 -107.001 -17.5c-56 0 -111 13 -165 39v152c52 -34 101.667 -51 149 -51c34 0 61.5 8.83301 82.5 26.5s31.5 40.5 31.5 68.5s-10.833 50.833 -32.5 68.5s-50.167 26.5 -85.5 26.5c-21.333 0 -42.833 -1.5 -64.5 -4.5
s-43.167 -8.16699 -64.5 -15.5v390h375v-140z" />
    <glyph glyph-name="six" unicode="6" horiz-adv-x="563" 
d="M456 688c-54 -41.333 -100.501 -84.167 -139.501 -128.5s-69.167 -88.5 -90.5 -132.5c28.667 18 60.334 27 95.001 27c32 0 61.167 -5.5 87.5 -16.5s49 -26.167 68 -45.5s33.667 -42.833 44 -70.5s15.5 -57.834 15.5 -90.501c0 -36 -6.33301 -68.833 -19 -98.5
s-30.5 -55.167 -53.5 -76.5s-50.167 -38 -81.5 -50s-66 -18 -104 -18c-36.667 0 -70.167 6.66699 -100.5 20s-56.333 32 -78 56s-38.5 52.833 -50.5 86.5s-18 70.834 -18 111.501c0 72 19.333 144.5 58 217.5s94 142.5 166 208.5h201zM194.999 277.999
c-2.66699 -11.333 -4 -24.333 -4 -39c0 -33.333 8.33301 -60.166 25 -80.499s38.667 -30.5 66 -30.5c28 0 50.667 9 68 27s26 41.333 26 70c0 27.333 -8.33301 49.666 -25 66.999s-38.667 26 -66 26c-32 0 -62 -13.333 -90 -40z" />
    <glyph glyph-name="seven" unicode="7" horiz-adv-x="563" 
d="M326 548h-283v140h465v-93l-243 -595h-166z" />
    <glyph glyph-name="eight" unicode="8" horiz-adv-x="563" 
d="M47 503c0 29.333 5.66406 56 16.9971 80s27.333 44.667 48 62s45.334 30.833 74.001 40.5s60.667 14.5 96 14.5c34.667 0 66.334 -4.83301 95.001 -14.5s53.334 -23.167 74.001 -40.5s36.667 -38 48 -62s17 -50.667 17 -80c0 -34 -8.5 -64.333 -25.5 -91
s-40.167 -46.667 -69.5 -60c34 -13.333 61 -34.5 81 -63.5s30 -62.167 30 -99.5c0 -30 -6 -57.333 -18 -82s-29 -45.834 -51 -63.501s-48.333 -31.334 -79 -41.001s-64.667 -14.5 -102 -14.5s-71.5 4.83301 -102.5 14.5s-57.5 23.334 -79.5 41.001s-39 38.834 -51 63.501
s-18 52 -18 82c0 37.333 10 70.5 30 99.5s47 50.167 81 63.5c-29.333 13.333 -52.5 33.333 -69.5 60s-25.5 57 -25.5 91zM190.997 202c0 -24.667 8.16699 -45.167 24.5 -61.5s38.5 -24.5 66.5 -24.5s50 8.16699 66 24.5s24 36.833 24 61.5s-8 45.167 -24 61.5
s-38 24.5 -66 24.5s-50.167 -8.16699 -66.5 -24.5s-24.5 -36.833 -24.5 -61.5zM197.997 492c0 -23.333 7.66699 -42.5 23 -57.5s35.666 -22.5 60.999 -22.5s45.5 7.5 60.5 22.5s22.5 34.167 22.5 57.5s-7.5 42.5 -22.5 57.5s-35.167 22.5 -60.5 22.5
s-45.666 -7.5 -60.999 -22.5s-23 -34.167 -23 -57.5z" />
    <glyph glyph-name="nine" unicode="9" horiz-adv-x="563" 
d="M107 0c54 42 100.5 85 139.5 129s69.167 88 90.5 132c-28 -17.333 -59.667 -26 -95 -26c-32 0 -61.167 5.33301 -87.5 16s-49 25.834 -68 45.501s-33.667 43 -44 70s-15.5 57.167 -15.5 90.5c0 36 6.33301 68.833 19 98.5s30.5 55.167 53.5 76.5s50.167 38 81.5 50
s66 18 104 18c36.667 0 70.167 -6.66699 100.5 -20s56.333 -32 78 -56s38.5 -52.833 50.5 -86.5s18 -70.834 18 -111.501c0 -72 -19.333 -144.5 -58 -217.5s-94 -142.5 -166 -208.5h-201zM369 411c2 12 3.00098 25.001 3.00098 39.001c0 32.667 -8.33301 59.167 -25 79.5
s-38.334 30.5 -65.001 30.5c-28 0 -50.833 -8.83301 -68.5 -26.5s-26.5 -41.167 -26.5 -70.5c0 -26.667 8.33301 -48.834 25 -66.501s38.667 -26.5 66 -26.5c32 0 62.333 13.667 91 41z" />
    <glyph glyph-name="colon" unicode=":" 
d="M32 419c0 27.333 8.5 49.666 25.5 66.999s39.5 26 67.5 26s50.5 -8.66699 67.5 -26s25.5 -39.666 25.5 -66.999s-8.5 -49.666 -25.5 -66.999s-39.5 -26 -67.5 -26s-50.5 8.66699 -67.5 26s-25.5 39.666 -25.5 66.999zM32 81c0 28 8.5 50.667 25.5 68s39.5 26 67.5 26
s50.5 -8.66699 67.5 -26s25.5 -40 25.5 -68c0 -27.333 -8.5 -49.666 -25.5 -66.999s-39.5 -26 -67.5 -26s-50.5 8.66699 -67.5 26s-25.5 39.666 -25.5 66.999z" />
    <glyph glyph-name="semicolon" unicode=";" 
d="M56 140h154l-112 -265h-136zM32 419c0 27.333 8.5 49.666 25.5 66.999s39.5 26 67.5 26s50.5 -8.66699 67.5 -26s25.5 -39.666 25.5 -66.999s-8.5 -49.666 -25.5 -66.999s-39.5 -26 -67.5 -26s-50.5 8.66699 -67.5 26s-25.5 39.666 -25.5 66.999z" />
    <glyph glyph-name="less" unicode="&#x3c;" horiz-adv-x="563" 
d="M31 224v115l501 212v-151l-284 -118l284 -119v-151z" />
    <glyph glyph-name="equal" unicode="=" horiz-adv-x="563" 
d="M31 242h501v-139h-501v139zM31 460h501v-139h-501v139z" />
    <glyph glyph-name="greater" unicode="&#x3e;" horiz-adv-x="563" 
d="M532 339v-115l-501 -212v151l284 119l-284 118v151z" />
    <glyph glyph-name="question" unicode="?" horiz-adv-x="461" 
d="M110 81c0 28 8.66699 50.667 26 68s39.666 26 66.999 26s49.666 -8.66699 66.999 -26s26 -40 26 -68c0 -27.333 -8.66699 -49.666 -26 -66.999s-39.666 -26 -66.999 -26s-49.666 8.66699 -66.999 26s-26 39.666 -26 66.999zM126 257
c0 20.667 2.83398 39.166 8.50098 55.499s12.834 30.833 21.501 43.5s18.167 24.334 28.5 35.001s19.833 21.167 28.5 31.5s15.834 20.833 21.501 31.5s8.5 22.667 8.5 36c0 19.333 -7 35.166 -21 47.499s-32.333 18.5 -55 18.5c-42 0 -87.333 -19.333 -136 -58v147
c57.333 36.667 115.666 55 174.999 55c30.667 0 58.667 -4.66699 84 -14s47.166 -22.333 65.499 -39s32.5 -36.5 42.5 -59.5s15 -48.167 15 -75.5c0 -35.333 -6.83301 -65.666 -20.5 -90.999s-28.834 -48 -45.501 -68l-45.5 -55.5c-13.667 -17 -20.5 -34.5 -20.5 -52.5v-26
h-155v38z" />
    <glyph glyph-name="at" unicode="@" horiz-adv-x="1001" 
d="M711 202c0 -12.667 3.66309 -22.9971 10.9961 -30.9971s17 -12 29 -12c8.66699 0 17.334 3.16699 26.001 9.5s16.334 15.333 23.001 27s12 25.667 16 42s6 34.833 6 55.5c0 41.333 -7.66699 79.166 -23 113.499s-36.833 63.666 -64.5 87.999s-60.834 43.333 -99.501 57
s-81 20.5 -127 20.5c-48 0 -92.167 -7.83301 -132.5 -23.5s-75 -37.834 -104 -66.501s-51.667 -62.667 -68 -102s-24.5 -82.666 -24.5 -129.999s8.33301 -90.666 25 -129.999s39.834 -73.166 69.501 -101.499s65.167 -50.5 106.5 -66.5s86.666 -24 135.999 -24
c39.333 0 78.666 5 117.999 15s78.333 24.667 117 44v-136c-38.667 -16.667 -77.667 -29.334 -117 -38.001s-78.666 -13 -117.999 -13c-70 0 -134.167 11.167 -192.5 33.5s-108.5 53.333 -150.5 93s-74.833 87 -98.5 142s-35.5 115.5 -35.5 181.5s11.5 126.5 34.5 181.5
s55.333 102.333 97 142s91.167 70.667 148.5 93s120.333 33.5 189 33.5c66.667 0 127.834 -9.83301 183.501 -29.5s103.5 -47.167 143.5 -82.5s71 -77.333 93 -126s33 -102.334 33 -161.001c0 -41.333 -5.83301 -79 -17.5 -113s-28 -63.333 -49 -88
s-46.167 -43.834 -75.5 -57.501s-61.333 -20.5 -96 -20.5c-27.333 0 -52.833 4.66699 -76.5 14s-44.167 23.333 -61.5 42c-17.333 -18.667 -37.166 -32.667 -59.499 -42s-45.166 -14 -68.499 -14c-27.333 0 -52.5 5.5 -75.5 16.5s-43.167 26.5 -60.5 46.5
s-30.833 44 -40.5 72s-14.5 59 -14.5 93s4.83301 65 14.5 93s23.167 52.167 40.5 72.5s37.5 36 60.5 47s48.167 16.5 75.5 16.5c36.667 0 69.667 -11 99 -33v23h155v-267zM424.996 250.003c0 -26.667 7 -49.167 21 -67.5s32 -27.5 54 -27.5c20 0 38.667 8.66699 56 26v139
c-18 16.667 -36.667 25 -56 25c-22 0 -40 -9.16699 -54 -27.5s-21 -40.833 -21 -67.5z" />
    <glyph glyph-name="A" unicode="A" horiz-adv-x="675" 
d="M266 688h144l269 -688h-162l-53 142h-253l-52 -142h-163zM257 266h161l-80 221z" />
    <glyph glyph-name="B" unicode="B" horiz-adv-x="640" 
d="M241 128h107c25.333 0 46.166 7.5 62.499 22.5s24.5 34.167 24.5 57.5s-8.16699 42.5 -24.5 57.5s-37.166 22.5 -62.499 22.5h-107v-160zM241 412h93c23.333 0 42.666 7 57.999 21s23 31.667 23 53c0 22 -7.66699 39.833 -23 53.5s-34.666 20.5 -57.999 20.5h-93v-148z
M82 688l282.999 0.00195312c30.667 0 58.667 -4.66699 84 -14s47.333 -22.333 66 -39s33.167 -36.334 43.5 -59.001s15.5 -47.334 15.5 -74.001c0 -34 -8 -64.333 -24 -91s-38 -46.334 -66 -59.001c36 -13.333 63.833 -34.166 83.5 -62.499s29.5 -60.833 29.5 -97.5
c0 -28 -5.33301 -53.833 -16 -77.5s-25.5 -44 -44.5 -61s-41.667 -30.167 -68 -39.5s-55.166 -14 -86.499 -14h-300v688z" />
    <glyph glyph-name="C" unicode="C" horiz-adv-x="633" 
d="M39 344c0 52 8.5 99.833 25.5 143.5s40.833 81.167 71.5 112.5s67.167 55.833 109.5 73.5s88.833 26.5 139.5 26.5c68 0 136.333 -16.333 205 -49v-148c-59.333 38 -117.666 57 -174.999 57c-30 0 -57.667 -5.33301 -83 -16s-47 -25.5 -65 -44.5s-32 -41.667 -42 -68
s-15 -55.5 -15 -87.5s5 -61.167 15 -87.5s24 -49 42 -68s39.667 -33.833 65 -44.5s53 -16 83 -16c57.333 0 115.666 19 174.999 57v-148c-68.667 -32.667 -137 -49 -205 -49c-50.667 0 -97.167 8.83301 -139.5 26.5s-78.833 42.167 -109.5 73.5s-54.5 68.833 -71.5 112.5
s-25.5 91.5 -25.5 143.5z" />
    <glyph glyph-name="D" unicode="D" horiz-adv-x="734" 
d="M82 688l273 -0.00195312c50 0 95.833 -8.5 137.5 -25.5s77.5 -40.667 107.5 -71s53.333 -66.666 70 -108.999s25 -88.5 25 -138.5s-8.33301 -96.167 -25 -138.5s-40 -78.666 -70 -108.999s-65.833 -54 -107.5 -71s-87.5 -25.5 -137.5 -25.5h-273v688zM249 135.998
l98 -0.00195312c26 0 50 5 72 15s40.833 24.167 56.5 42.5s27.834 40.333 36.501 66s13 53.834 13 84.501s-4.33301 58.834 -13 84.501s-20.834 47.667 -36.501 66s-34.5 32.5 -56.5 42.5s-46 15 -72 15h-98v-416z" />
    <glyph glyph-name="E" unicode="E" horiz-adv-x="571" 
d="M82 688h434v-136h-267v-137h228v-131h-228v-148h275v-136h-442v688z" />
    <glyph glyph-name="F" unicode="F" horiz-adv-x="547" 
d="M82 688h434v-136h-267v-163h228v-136h-228v-253h-167v688z" />
    <glyph glyph-name="G" unicode="G" horiz-adv-x="711" 
d="M648 43c-83.333 -36.667 -166.336 -54.999 -249.003 -54.999c-52.667 0 -101 8.83301 -145 26.5s-82 42.167 -114 73.5s-56.833 68.833 -74.5 112.5s-26.5 91.5 -26.5 143.5s8.66699 99.833 26 143.5s41.833 81.167 73.5 112.5s69.334 55.833 113.001 73.5
s91.5 26.5 143.5 26.5c74.667 0 148.667 -18.333 222 -55v-151c-66.667 46.667 -132 70 -196 70c-31.333 0 -60.166 -5.33301 -86.499 -16s-49 -25.667 -68 -45s-33.833 -42.5 -44.5 -69.5s-16 -56.833 -16 -89.5c0 -32 5 -61.5 15 -88.5s24.167 -50.333 42.5 -70
s40 -34.834 65 -45.501s52.5 -16 82.5 -16c13.333 0 26.833 1.33301 40.5 4s27.834 6.66699 42.501 12v119h-134v123h288v-339z" />
    <glyph glyph-name="H" unicode="H" horiz-adv-x="773" 
d="M82 688h167v-271h276v271h166v-688h-166v283h-276v-283h-167v688z" />
    <glyph glyph-name="I" unicode="I" horiz-adv-x="331" 
d="M82 688h167v-688h-167v688z" />
    <glyph glyph-name="J" unicode="J" horiz-adv-x="485" 
d="M406 207c0 -32 -5.66602 -61.3311 -16.999 -87.998s-27 -49.834 -47 -69.501s-43.833 -34.834 -71.5 -45.501s-57.834 -16 -90.501 -16c-46.667 0 -95 10 -145 30v137c34.667 -18 68.667 -27 102 -27c30 0 54.667 9.16699 74 27.5s29 41.833 29 70.5v462h166v-481z" />
    <glyph glyph-name="K" unicode="K" horiz-adv-x="672" 
d="M82 688h163v-267l228 267h195l-286 -338l295 -350h-198l-234 279v-279h-163v688z" />
    <glyph glyph-name="L" unicode="L" horiz-adv-x="524" 
d="M82 688h167v-552h258v-136h-425v688z" />
    <glyph glyph-name="M" unicode="M" horiz-adv-x="859" 
d="M82 688h144l204 -278l203 278h144v-688h-154v424l-145 -197h-97l-143 197v-424h-156v688z" />
    <glyph glyph-name="N" unicode="N" horiz-adv-x="773" 
d="M82 688h144l310 -424v424h155v-688h-144l-309 424v-424h-156v688z" />
    <glyph glyph-name="O" unicode="O" horiz-adv-x="773" 
d="M39 344c0 52 8.5 99.833 25.5 143.5s41 81.167 72 112.5s67.667 55.833 110 73.5s89.166 26.5 140.499 26.5c50.667 0 97.334 -8.83301 140.001 -26.5s79.334 -42.167 110.001 -73.5s54.5 -68.833 71.5 -112.5s25.5 -91.5 25.5 -143.5s-8.5 -99.833 -25.5 -143.5
s-40.833 -81.167 -71.5 -112.5s-67.334 -55.833 -110.001 -73.5s-89.334 -26.5 -140.001 -26.5c-51.333 0 -98.166 8.83301 -140.499 26.5s-79 42.167 -110 73.5s-55 68.833 -72 112.5s-25.5 91.5 -25.5 143.5zM210 344c0 -32 4.33301 -61.167 13 -87.5s20.667 -49 36 -68
s34 -33.833 56 -44.5s46 -16 72 -16s49.833 5.33301 71.5 16s40.334 25.5 56.001 44.5s27.834 41.667 36.501 68s13 55.5 13 87.5s-4.33301 61.167 -13 87.5s-20.834 49 -36.501 68s-34.334 33.833 -56.001 44.5s-45.5 16 -71.5 16s-50 -5.33301 -72 -16
s-40.667 -25.5 -56 -44.5s-27.333 -41.667 -36 -68s-13 -55.5 -13 -87.5z" />
    <glyph glyph-name="P" unicode="P" horiz-adv-x="625" 
d="M82 688l265 0.000976562c36 0 69 -5.66699 99 -17s56 -27 78 -47s39 -43.833 51 -71.5s18 -58.167 18 -91.5s-6 -63.833 -18 -91.5s-29 -51.334 -51 -71.001s-48 -35 -78 -46s-63 -16.5 -99 -16.5h-102v-236h-163v688zM245 367.001h80c30 0 54.5 8.66699 73.5 26
s28.5 40 28.5 68c0 28.667 -9.5 51.667 -28.5 69s-43.5 26 -73.5 26h-80v-189z" />
    <glyph glyph-name="Q" unicode="Q" horiz-adv-x="773" 
d="M39 344c0 52 8.49805 99.833 25.498 143.5s41 81.167 72 112.5s67.667 55.833 110 73.5s89.166 26.5 140.499 26.5c50.667 0 97.334 -8.83301 140.001 -26.5s79.334 -42.167 110.001 -73.5s54.5 -68.833 71.5 -112.5s25.5 -91.5 25.5 -143.5
c0 -61.333 -11.5 -116.333 -34.5 -165s-55.167 -89 -96.5 -121l139 -160h-186l-85 100c-13.333 -3.33301 -27 -5.83301 -41 -7.5s-28.333 -2.5 -43 -2.5c-51.333 0 -98.166 8.83301 -140.499 26.5s-79 42.167 -110 73.5s-55 68.833 -72 112.5s-25.5 91.5 -25.5 143.5z
M209.998 344c0 -32 4.33301 -61.167 13 -87.5s20.667 -49 36 -68s34 -33.833 56 -44.5s46 -16 72 -16s49.833 5.33301 71.5 16s40.334 25.5 56.001 44.5s27.834 41.667 36.501 68s13 55.5 13 87.5s-4.33301 61.167 -13 87.5s-20.834 49 -36.501 68
s-34.334 33.833 -56.001 44.5s-45.5 16 -71.5 16s-50 -5.33301 -72 -16s-40.667 -25.5 -56 -44.5s-27.333 -41.667 -36 -68s-13 -55.5 -13 -87.5z" />
    <glyph glyph-name="R" unicode="R" horiz-adv-x="640" 
d="M245 374h76c28.667 0 52.167 8.66699 70.5 26s27.5 39 27.5 65c0 27.333 -9.16699 49.333 -27.5 66s-41.833 25 -70.5 25h-76v-182zM82 688l260.999 -0.000976562c35.333 0 67.833 -5.5 97.5 -16.5s55.334 -26.333 77.001 -46s38.5 -43.167 50.5 -70.5s18 -57.333 18 -90
c0 -44.667 -11 -84.167 -33 -118.5s-53 -61.166 -93 -80.499l153 -266h-178l-134 243h-56v-243h-163v688z" />
    <glyph glyph-name="S" unicode="S" horiz-adv-x="567" 
d="M59 181c32 -20.667 64.5 -35.998 97.5 -45.998s65.5 -15 97.5 -15s57.833 7.33301 77.5 22s29.5 33.667 29.5 57c0 19.333 -7.83301 34.5 -23.5 45.5s-35.334 20.833 -59.001 29.5s-49.167 17.5 -76.5 26.5s-52.833 21 -76.5 36s-43.334 34.833 -59.001 59.5
s-23.5 57 -23.5 97c0 30.667 6.33301 58.667 19 84s30.334 47.166 53.001 65.499s49.834 32.5 81.501 42.5s66.5 15 104.5 15c32 0 63.833 -3 95.5 -9s63.5 -15.333 95.5 -28v-146c-30 17.333 -60 30.166 -90 38.499s-59.667 12.5 -89 12.5
c-30.667 0 -55.5 -6.66699 -74.5 -20s-28.5 -31 -28.5 -53c0 -18.667 7.83301 -33.334 23.5 -44.001s35.167 -20.167 58.5 -28.5s48.833 -17 76.5 -26s53.167 -21.167 76.5 -36.5s42.833 -35.5 58.5 -60.5s23.5 -57.833 23.5 -98.5c0 -31.333 -6.5 -60.166 -19.5 -86.499
s-31 -48.833 -54 -67.5s-50.5 -33.167 -82.5 -43.5s-67 -15.5 -105 -15.5c-70 0 -139 15 -207 45v148z" />
    <glyph glyph-name="T" unicode="T" horiz-adv-x="610" 
d="M222 552h-199v136h563v-136h-198v-552h-166v552z" />
    <glyph glyph-name="U" unicode="U" horiz-adv-x="773" 
d="M695 260c0 -40 -7.66797 -76.667 -23.001 -110s-36.5 -62 -63.5 -86s-59.5 -42.667 -97.5 -56s-79.333 -20 -124 -20c-45.333 0 -86.833 6.66699 -124.5 20s-70.167 32 -97.5 56s-48.666 52.667 -63.999 86s-23 70 -23 110v428h167v-416
c0 -21.333 3.5 -40.833 10.5 -58.5s16.833 -32.834 29.5 -45.501s27.667 -22.5 45 -29.5s36.333 -10.5 57 -10.5s39.667 3.5 57 10.5s32.333 16.833 45 29.5s22.5 27.834 29.5 45.501s10.5 37.167 10.5 58.5v416h166v-428z" />
    <glyph glyph-name="V" unicode="V" horiz-adv-x="675" 
d="M410 0h-144l-270 688h171l171 -463l171 463h170z" />
    <glyph glyph-name="W" unicode="W" horiz-adv-x="1063" 
d="M826 0h-150l-144 479l-144 -479h-151l-235 688h167l144 -479l143 479h151l144 -479l143 479h167z" />
    <glyph glyph-name="X" unicode="X" horiz-adv-x="687" 
d="M244 350l-230 338h190l140 -220l140 220h190l-231 -338l240 -350h-193l-146 232l-146 -232h-194z" />
    <glyph glyph-name="Y" unicode="Y" horiz-adv-x="640" 
d="M237 282l-245 406h191l138 -251l137 251h190l-244 -406v-282h-167v282z" />
    <glyph glyph-name="Z" unicode="Z" horiz-adv-x="641" 
d="M37 97l336 455h-318v136h530v-97l-337 -455h345v-136h-556v97z" />
    <glyph glyph-name="bracketleft" unicode="[" horiz-adv-x="344" 
d="M71 719h249v-124h-94v-627h94v-124h-249v875z" />
    <glyph glyph-name="backslash" unicode="\" horiz-adv-x="375" 
d="M-3 719h162l219 -875h-162z" />
    <glyph glyph-name="bracketright" unicode="]" horiz-adv-x="344" 
d="M273 -156h-250v124h94v627h-94v124h250v-875z" />
    <glyph glyph-name="asciicircum" unicode="^" horiz-adv-x="563" 
d="M224 688h115l212 -500h-151l-118 283l-119 -283h-151z" />
    <glyph glyph-name="underscore" unicode="_" horiz-adv-x="500" 
d="M0 -60h500v-131h-500v131z" />
    <glyph glyph-name="grave" unicode="`" 
d="M-54 719h152l112 -172h-128z" />
    <glyph glyph-name="a" unicode="a" horiz-adv-x="539" 
d="M326 31c-43.333 -28.667 -88.002 -43.002 -134.002 -43.002c-23.333 0 -44.833 3.66699 -64.5 11s-36.667 17.833 -51 31.5s-25.5 29.834 -33.5 48.501s-12 39.334 -12 62.001c0 26.667 5.83301 51 17.5 73s28.334 41 50.001 57s47.334 28.333 77.001 37s62.5 13 98.5 13
c7.33301 0 15.333 -0.166992 24 -0.5s18 -0.833008 28 -1.5v9c0 18 -7.5 32.5 -22.5 43.5s-34.167 16.5 -57.5 16.5c-27.333 0 -55.333 -4.16699 -84 -12.5s-58 -21.166 -88 -38.499v132c63.333 28.667 127.333 43 192 43c32.667 0 62.167 -4.83301 88.5 -14.5
s48.833 -23.167 67.5 -40.5s33 -37.833 43 -61.5s15 -49.834 15 -78.501v-317h-154v31zM190.998 165.998c0 -16 5.33105 -29 15.998 -39s24.667 -15 42 -15c26 0 51.667 12 77 36v77c-7.33301 0.666992 -14.666 1.16699 -21.999 1.5s-14.666 0.5 -21.999 0.5
c-28 0 -50.167 -5.83301 -66.5 -17.5s-24.5 -26.167 -24.5 -43.5z" />
    <glyph glyph-name="b" unicode="b" horiz-adv-x="601" 
d="M404 250c0 36.667 -9.16699 66.167 -27.5 88.5s-42.166 33.5 -71.499 33.5s-55.666 -11.667 -78.999 -35v-174c23.333 -23.333 49.666 -35 78.999 -35s53.166 11.333 71.499 34s27.5 52 27.5 88zM63 719h163v-246c38 26 77 39 117 39c33.333 0 64 -6.5 92 -19.5
s52 -31 72 -54s35.5 -50.5 46.5 -82.5s16.5 -67.333 16.5 -106s-5.5 -74 -16.5 -106s-26.5 -59.5 -46.5 -82.5s-44 -41 -72 -54s-58.667 -19.5 -92 -19.5c-40 0 -79 13 -117 39v-27h-163v719z" />
    <glyph glyph-name="c" unicode="c" horiz-adv-x="493" 
d="M31 250c0 38.667 6.5 73.999 19.5 105.999s31.333 59.5 55 82.5s51.667 41 84 54s68.166 19.5 107.499 19.5c50.667 0 103 -11.667 157 -35v-144c-44 28.667 -86.333 43 -127 43c-38 0 -69 -11.5 -93 -34.5s-36 -53.5 -36 -91.5c0 -37.333 12 -67.666 36 -90.999
s55 -35 93 -35c40.667 0 83 14.333 127 43v-144c-54 -23.333 -106.333 -35 -157 -35c-39.333 0 -75.166 6.5 -107.499 19.5s-60.333 31 -84 54s-42 50.667 -55 83s-19.5 67.5 -19.5 105.5z" />
    <glyph glyph-name="d" unicode="d" horiz-adv-x="601" 
d="M198 250c0 -36 9 -65.333 27 -88s42 -34 72 -34c28 0 54.333 11.667 79 35v174c-24.667 23.333 -51 35 -79 35c-30 0 -54 -11.167 -72 -33.5s-27 -51.833 -27 -88.5zM539 0h-163v27c-38 -26 -77.333 -39 -118 -39c-33.333 0 -63.833 6.5 -91.5 19.5s-51.5 31 -71.5 54
s-35.667 50.5 -47 82.5s-17 67.333 -17 106s5.66699 74 17 106s27 59.5 47 82.5s43.833 41 71.5 54s58.167 19.5 91.5 19.5c40.667 0 80 -13 118 -39v246h163v-719z" />
    <glyph glyph-name="e" unicode="e" horiz-adv-x="546" 
d="M31 254c0 38 6.50098 72.668 19.501 104.001s31 58.5 54 81.5s50.167 40.833 81.5 53.5s65.666 19 102.999 19c34 0 65.167 -6.16699 93.5 -18.5s52.5 -29.833 72.5 -52.5s35.667 -49.5 47 -80.5s17 -65.167 17 -102.5v-25.5c0 -9 -0.666992 -18.5 -2 -28.5h-326
c5.33301 -28 20 -50.333 44 -67s54 -25 90 -25c23.333 0 47.666 4 72.999 12s51.333 19.667 78 35v-132c-60 -26 -119.667 -39 -179 -39c-39.333 0 -75.166 6.5 -107.499 19.5s-60.333 31.333 -84 55s-42 51.667 -55 84s-19.5 68.166 -19.5 107.499zM365.001 305.001
c-2.66699 24.667 -11.667 44.667 -27 60s-34 23 -56 23c-24 0 -44.333 -7.5 -61 -22.5s-26.667 -35.167 -30 -60.5h174z" />
    <glyph glyph-name="f" unicode="f" horiz-adv-x="383" 
d="M94 369l-78 0.000976562v131h78v59c0 25.333 4.5 48.5 13.5 69.5s21.5 39.167 37.5 54.5s35 27.166 57 35.499s46 12.5 72 12.5c17.333 0 35.166 -1.66699 53.499 -5s36.833 -8 55.5 -14v-132c-22 10 -43 15 -63 15c-19.333 0 -34.666 -5.33301 -45.999 -16
s-17 -24.667 -17 -42v-37h111v-131h-111v-369h-163v369z" />
    <glyph glyph-name="g" unicode="g" horiz-adv-x="601" 
d="M539 16c0 -36 -6.83203 -69.165 -20.499 -99.498s-32.667 -56.333 -57 -78s-53.5 -38.667 -87.5 -51s-71.333 -18.5 -112 -18.5c-62 0 -123.333 13 -184 39v140c29.333 -16.667 58.166 -29.334 86.499 -38.001s55.5 -13 81.5 -13c38 0 69.167 10.167 93.5 30.5
s36.5 47.166 36.5 80.499v19c-38 -26 -77.333 -39 -118 -39c-33.333 0 -63.833 6.5 -91.5 19.5s-51.5 31 -71.5 54s-35.667 50.5 -47 82.5s-17 67.333 -17 106s5.66699 74 17 106s27 59.5 47 82.5s43.833 41 71.5 54s58.167 19.5 91.5 19.5c40.667 0 80 -13 118 -39v27h163
v-484zM198.001 250.002c0 -36 9 -65.333 27 -88s42 -34 72 -34c28 0 54.333 11.667 79 35v174c-24.667 23.333 -51 35 -79 35c-30 0 -54 -11.167 -72 -33.5s-27 -51.833 -27 -88.5z" />
    <glyph glyph-name="h" unicode="h" horiz-adv-x="601" 
d="M63 719l163 0.000976562v-254c43.333 31.333 89 47 137 47c26 0 50 -4.5 72 -13.5s41 -21.667 57 -38s28.5 -35.833 37.5 -58.5s13.5 -47.334 13.5 -74.001v-328h-163v298c0 20.667 -6.5 37.667 -19.5 51s-29.5 20 -49.5 20c-30 0 -58.333 -13.333 -85 -40v-329h-163v719
z" />
    <glyph glyph-name="i" unicode="i" horiz-adv-x="288" 
d="M63 500h163v-500h-163v500zM55 633c0 26.667 8.33301 48.167 25 64.5s38.334 24.5 65.001 24.5c25.333 0 46.5 -8.16699 63.5 -24.5s25.5 -37.833 25.5 -64.5c0 -25.333 -8.5 -46.333 -25.5 -63s-38.167 -25 -63.5 -25c-26.667 0 -48.334 8.33301 -65.001 25
s-25 37.667 -25 63z" />
    <glyph glyph-name="j" unicode="j" horiz-adv-x="288" 
d="M55 633c0 26.667 8.33301 48.167 25 64.5s38.334 24.5 65.001 24.5c25.333 0 46.5 -8.16699 63.5 -24.5s25.5 -37.833 25.5 -64.5c0 -25.333 -8.5 -46.333 -25.5 -63s-38.167 -25 -63.5 -25c-26.667 0 -48.334 8.33301 -65.001 25s-25 37.667 -25 63zM226 -59
c0 -25.333 -4.50098 -48.501 -13.501 -69.501s-21.5 -39.167 -37.5 -54.5s-35 -27.166 -57 -35.499s-46 -12.5 -72 -12.5c-34.667 0 -71 6.66699 -109 20v132c23.333 -10.667 44.333 -16 63 -16s33.834 5.5 45.501 16.5s17.5 25.167 17.5 42.5v536h163v-559z" />
    <glyph glyph-name="k" unicode="k" horiz-adv-x="539" 
d="M63 719h159v-392l126 173h187l-185 -246l193 -254h-191l-130 181v-181h-159v719z" />
    <glyph glyph-name="l" unicode="l" horiz-adv-x="288" 
d="M63 719h163v-719h-163v719z" />
    <glyph glyph-name="m" unicode="m" horiz-adv-x="891" 
d="M63 500h163v-31c21.333 15.333 43 26.333 65 33s44.667 10 68 10c60.667 0 107.334 -24 140.001 -72c48.667 48 103 72 163 72c25.333 0 48.5 -4.5 69.5 -13.5s39 -21.5 54 -37.5s26.5 -35.167 34.5 -57.5s12 -46.833 12 -73.5v-330h-162v304
c0 19.333 -5.83301 35 -17.5 47s-26.5 18 -44.5 18c-12.667 0 -25.834 -3.16699 -39.501 -9.5s-26.834 -15.833 -39.501 -28.5v-331h-163v304c0 19.333 -5.66699 35 -17 47s-26 18 -44 18c-27.333 0 -53.666 -12.667 -78.999 -38v-331h-163v500z" />
    <glyph glyph-name="n" unicode="n" horiz-adv-x="601" 
d="M63 500l163 0.000976562v-35c43.333 31.333 89 47 137 47c26 0 50 -4.5 72 -13.5s41 -21.667 57 -38s28.5 -35.833 37.5 -58.5s13.5 -47.334 13.5 -74.001v-328h-163v298c0 20.667 -6.5 37.667 -19.5 51s-29.5 20 -49.5 20c-30 0 -58.333 -13.333 -85 -40v-329h-163v500z
" />
    <glyph glyph-name="o" unicode="o" horiz-adv-x="601" 
d="M31 250c0 38.667 6.66699 74 20 106s32 59.5 56 82.5s52.5 41 85.5 54s69.167 19.5 108.5 19.5s75.5 -6.5 108.5 -19.5s61.333 -31 85 -54s42.167 -50.5 55.5 -82.5s20 -67.333 20 -106c0 -38 -6.66699 -73.167 -20 -105.5s-31.833 -60 -55.5 -83s-52 -41 -85 -54
s-69.167 -19.5 -108.5 -19.5s-75.5 6.5 -108.5 19.5s-61.5 31 -85.5 54s-42.667 50.667 -56 83s-20 67.5 -20 105.5zM198 250c0 -38 9.5 -68.5 28.5 -91.5s43.833 -34.5 74.5 -34.5c30 0 54.667 11.5 74 34.5s29 53.5 29 91.5s-9.66699 68.5 -29 91.5s-44 34.5 -74 34.5
c-30.667 0 -55.5 -11.5 -74.5 -34.5s-28.5 -53.5 -28.5 -91.5z" />
    <glyph glyph-name="p" unicode="p" horiz-adv-x="601" 
d="M404 250c0 36.667 -9.16699 66.167 -27.5 88.5s-42.166 33.5 -71.499 33.5s-55.666 -11.667 -78.999 -35v-174c23.333 -23.333 49.666 -35 78.999 -35s53.166 11.333 71.499 34s27.5 52 27.5 88zM63 500h163v-27c38 26 77 39 117 39c33.333 0 64 -6.5 92 -19.5
s52 -31 72 -54s35.5 -50.5 46.5 -82.5s16.5 -67.333 16.5 -106s-5.5 -74 -16.5 -106s-26.5 -59.5 -46.5 -82.5s-44 -41 -72 -54s-58.667 -19.5 -92 -19.5c-40 0 -79 13 -117 39v-246h-163v719z" />
    <glyph glyph-name="q" unicode="q" horiz-adv-x="601" 
d="M198 250c0 -36 9 -65.333 27 -88s42 -34 72 -34c28 0 54.333 11.667 79 35v174c-24.667 23.333 -51 35 -79 35c-30 0 -54 -11.167 -72 -33.5s-27 -51.833 -27 -88.5zM539 -219h-163v246c-38 -26 -77.333 -39 -118 -39c-33.333 0 -63.833 6.5 -91.5 19.5
s-51.5 31 -71.5 54s-35.667 50.5 -47 82.5s-17 67.333 -17 106s5.66699 74 17 106s27 59.5 47 82.5s43.833 41 71.5 54s58.167 19.5 91.5 19.5c40.667 0 80 -13 118 -39v27h163v-719z" />
    <glyph glyph-name="r" unicode="r" horiz-adv-x="399" 
d="M63 500h163v-43c34.667 36.667 72 55 112 55c6 0 12.167 -0.333008 18.5 -1s12.166 -1.66699 17.499 -3v-143c-6 1.33301 -12.167 2.33301 -18.5 3s-13.166 1 -20.499 1c-18.667 0 -38 -4.83301 -58 -14.5s-37 -23.167 -51 -40.5v-314h-163v500z" />
    <glyph glyph-name="s" unicode="s" horiz-adv-x="446" 
d="M47 161c50 -30 99.665 -44.998 148.998 -44.998c16.667 0 30 3.16699 40 9.5s15 15.166 15 26.499c0 10 -5.33301 17.833 -16 23.5s-24 10.834 -40 15.501s-33.333 10.167 -52 16.5s-36 15.166 -52 26.499s-29.333 26.166 -40 44.499s-16 42.166 -16 71.499
c0 24 5 46 15 66s24 37 42 51s39.5 25 64.5 33s52.5 12 82.5 12c49.333 0 98.333 -9.66699 147 -29v-138c-45.333 26 -90.666 39 -135.999 39c-15.333 0 -27.833 -3 -37.5 -9s-14.5 -13.667 -14.5 -23s5.33301 -16.5 16 -21.5s24 -9.83301 40 -14.5
s33.167 -10.167 51.5 -16.5s35.5 -15.166 51.5 -26.499s29.333 -26.5 40 -45.5s16 -43.5 16 -73.5c0 -24.667 -5 -47.167 -15 -67.5s-24 -37.833 -42 -52.5s-39.667 -26 -65 -34s-53.333 -12 -84 -12c-51.333 0 -104.666 11.333 -159.999 34v139z" />
    <glyph glyph-name="t" unicode="t" horiz-adv-x="422" 
d="M257 500l126.001 0.000976562v-131h-126v-186c0 -17.333 5.66699 -31.5 17 -42.5s26.666 -16.5 45.999 -16.5c18.667 0 39.667 5.33301 63 16v-132c-38 -13.333 -74.333 -20 -109 -20c-26 0 -50 4.16699 -72 12.5s-41 20.166 -57 35.499s-28.5 33.5 -37.5 54.5
s-13.5 44.167 -13.5 69.5v209h-78v131h78v141h163v-141z" />
    <glyph glyph-name="u" unicode="u" horiz-adv-x="601" 
d="M539 0l-163 0.00195312v35c-44.667 -31.333 -90.334 -47 -137.001 -47c-26.667 0 -51 4.5 -73 13.5s-41 21.667 -57 38s-28.333 35.666 -37 57.999s-13 47.166 -13 74.499v328h163v-298c0 -20 6.33301 -36.667 19 -50s29.334 -20 50.001 -20c28.667 0 57 13 85 39v329
h163v-500z" />
    <glyph glyph-name="v" unicode="v" horiz-adv-x="531" 
d="M335 0h-139l-196 500h167l99 -283l99 283h166z" />
    <glyph glyph-name="w" unicode="w" horiz-adv-x="812" 
d="M636 0h-147l-82 299l-83 -299h-148l-172 500h163l83 -299l82 299h148l83 -299l83 299h162z" />
    <glyph glyph-name="x" unicode="x" horiz-adv-x="546" 
d="M176 254l-164 246h183l79 -131l79 131h182l-165 -246l173 -254h-186l-83 139l-83 -139h-187z" />
    <glyph glyph-name="y" unicode="y" horiz-adv-x="531" 
d="M249 -219h-159l98 241l-188 478h167l99 -283l99 283h166z" />
    <glyph glyph-name="z" unicode="z" horiz-adv-x="500" 
d="M35 93l205 276h-193v131h403v-92l-206 -276h212v-132h-421v93z" />
    <glyph glyph-name="braceleft" unicode="{" horiz-adv-x="344" 
d="M320 595l-11 -0.00195312c-20 0 -36.333 -6.5 -49 -19.5s-19 -29.833 -19 -50.5v-111c0 -31.333 -8 -58.666 -24 -81.999s-38.333 -40 -67 -50c28.667 -10.667 51 -27.667 67 -51s24 -50.666 24 -81.999v-111c0 -20.667 6.33301 -37.5 19 -50.5s29 -19.5 49 -19.5h11
v-124h-42c-28 0 -53.833 4.5 -77.5 13.5s-44 21.5 -61 37.5s-30.167 35.167 -39.5 57.5s-14 46.833 -14 73.5v115c0 22.667 -5.83301 41.5 -17.5 56.5s-26.834 22.5 -45.501 22.5h-7v123h7c18.667 0 33.834 7.5 45.501 22.5s17.5 33.833 17.5 56.5v115
c0 26.667 4.66699 51.167 14 73.5s22.5 41.5 39.5 57.5s37.333 28.5 61 37.5s49.5 13.5 77.5 13.5h42v-124z" />
    <glyph glyph-name="bar" unicode="|" 
d="M56 751h139v-1001h-139v1001z" />
    <glyph glyph-name="braceright" unicode="}" horiz-adv-x="344" 
d="M23 -32l12 0.00195312c19.333 0 35.5 6.5 48.5 19.5s19.5 29.833 19.5 50.5v111c0 31.333 7.83301 58.666 23.5 81.999s38.167 40.333 67.5 51c-29.333 10 -51.833 26.667 -67.5 50s-23.5 50.666 -23.5 81.999v111c0 20.667 -6.5 37.5 -19.5 50.5
s-29.167 19.5 -48.5 19.5h-12v124h43c28 0 53.667 -4.5 77 -13.5s43.5 -21.5 60.5 -37.5s30.167 -35.167 39.5 -57.5s14 -46.833 14 -73.5v-115c0 -22.667 5.83301 -41.5 17.5 -56.5s26.834 -22.5 45.501 -22.5h7v-123h-7c-18.667 0 -33.834 -7.5 -45.501 -22.5
s-17.5 -33.833 -17.5 -56.5v-115c0 -26.667 -4.66699 -51.167 -14 -73.5s-22.5 -41.5 -39.5 -57.5s-37.167 -28.5 -60.5 -37.5s-49 -13.5 -77 -13.5h-43v124z" />
    <glyph glyph-name="asciitilde" unicode="~" horiz-adv-x="563" 
d="M1 188c0 30 4 57.5 12 82.5s19.5 46.5 34.5 64.5s33 31.833 54 41.5s44.5 14.5 70.5 14.5c25.333 0 47.666 -4.16699 66.999 -12.5s36.666 -17.333 51.999 -27l42 -27c12.667 -8.33301 25.334 -12.5 38.001 -12.5c15.333 0 27.833 5.66699 37.5 17
s14.5 26.666 14.5 45.999h139c0 -30 -4 -57.5 -12 -82.5s-19.5 -46.5 -34.5 -64.5s-33 -31.833 -54 -41.5s-44.5 -14.5 -70.5 -14.5c-25.333 0 -47.666 4.16699 -66.999 12.5s-36.666 17.333 -51.999 27l-42 27c-12.667 8.33301 -25.334 12.5 -38.001 12.5
c-15.333 0 -27.833 -5.66699 -37.5 -17s-14.5 -26.666 -14.5 -45.999h-139z" />
    <glyph glyph-name="uni00A0" unicode="&#xa0;" 
 />
    <glyph glyph-name="exclamdown" unicode="&#xa1;" horiz-adv-x="312" 
d="M238 -188h-164v470h164v-470zM249 419c0 -27.333 -8.66699 -49.666 -26 -66.999s-39.666 -26 -66.999 -26s-49.666 8.66699 -66.999 26s-26 39.666 -26 66.999s8.66699 49.666 26 66.999s39.666 26 66.999 26s49.666 -8.66699 66.999 -26s26 -39.666 26 -66.999z" />
    <glyph glyph-name="cent" unicode="&#xa2;" horiz-adv-x="563" 
d="M247 94c-27.333 8 -52.166 19.6641 -74.499 34.9971s-41.333 33.833 -57 55.5s-27.834 45.834 -36.501 72.501s-13 55.667 -13 87c0 30.667 4.33301 59.5 13 86.5s20.834 51.333 36.501 73s34.667 40.167 57 55.5s47.166 27 74.499 35v157h139v-149
c36 -6 70.333 -16.333 103 -31v-144c-44 28.667 -85.667 43 -125 43c-38.667 0 -70 -11.667 -94 -35s-36 -53.666 -36 -90.999s12 -67.666 36 -90.999s55.333 -35 94 -35c39.333 0 81 14.333 125 43v-144c-34 -15.333 -68.333 -25.333 -103 -30v-150h-139v157z" />
    <glyph glyph-name="sterling" unicode="&#xa3;" horiz-adv-x="563" 
d="M47 89l56.0029 195h-48v131h84l34 118c15.333 52 41.833 92.833 79.5 122.5s82.5 44.5 134.5 44.5c19.333 0 38.166 -1.66699 56.499 -5s37.166 -8.33301 56.499 -15v-139c-27.333 12.667 -53.333 19 -78 19c-23.333 0 -43.333 -6.66699 -60 -20
s-28.334 -31.333 -35.001 -54l-19 -71h121v-131h-158l-41 -148h294v-136h-477v89z" />
    <glyph glyph-name="currency" unicode="&#xa4;" horiz-adv-x="563" 
d="M63 344c0 18 1.66699 35.167 5 51.5s8.66602 31.833 15.999 46.5l-84 84l99 100l84 -85c28.667 14.667 61.667 22 99 22c36.667 0 69.334 -7.33301 98.001 -22l84 85l100 -100l-86 -84c14.667 -28.667 22 -61.334 22 -98.001c0 -37.333 -7.33301 -70.333 -22 -99l86 -83
l-100 -100l-84 85c-28.667 -14.667 -61.334 -22 -98.001 -22c-37.333 0 -70.333 7.33301 -99 22l-84 -85l-99 100l84 83c-7.33301 14.667 -12.666 30.334 -15.999 47.001s-5 34 -5 52zM187 344c0 -28 8.83301 -50.833 26.5 -68.5s40.5 -26.5 68.5 -26.5
c27.333 0 49.833 8.83301 67.5 26.5s26.5 40.5 26.5 68.5s-8.83301 50.833 -26.5 68.5s-40.167 26.5 -67.5 26.5c-28 0 -50.833 -8.83301 -68.5 -26.5s-26.5 -40.5 -26.5 -68.5z" />
    <glyph glyph-name="yen" unicode="&#xa5;" horiz-adv-x="563" 
d="M198 110h-135v109h135v63h-135v108h89l-178 298h187l121 -220l120 220h187l-177 -298h88v-108h-135v-63h135v-109h-135v-110h-167v110z" />
    <glyph glyph-name="brokenbar" unicode="&#xa6;" 
d="M56 688h139v-375h-139v375zM56 188h139v-376h-139v376z" />
    <glyph glyph-name="section" unicode="&#xa7;" horiz-adv-x="523" 
d="M66 46c55.333 -34 110.335 -51.002 165.002 -51.002c21.333 0 38.5 4.16699 51.5 12.5s19.5 20.166 19.5 35.499c0 12.667 -6.16699 23 -18.5 31s-27.666 15.5 -45.999 22.5l-60 22.5c-21.667 8 -41.667 18.667 -60 32s-33.666 30.5 -45.999 51.5
s-18.5 47.833 -18.5 80.5c0 23.333 4.16699 46.5 12.5 69.5s20.5 43.5 36.5 61.5c-14 15.333 -24.333 32.333 -31 51s-10 37.667 -10 57c0 26 5.33301 50 16 72s25.834 40.833 45.501 56.5s43 27.834 70 36.501s56.833 13 89.5 13c54 0 109 -11 165 -33v-144
c-25.333 14.667 -51 25.834 -77 33.501s-51.667 11.5 -77 11.5c-20 0 -35.833 -4 -47.5 -12s-17.5 -18.667 -17.5 -32c0 -12 6.16699 -21.667 18.5 -29s27.666 -14.5 45.999 -21.5l59.5 -22.5c21.333 -8 41.166 -19 59.499 -33s33.666 -31.667 45.999 -53
s18.5 -48.666 18.5 -81.999c0 -44 -15.667 -86.333 -47 -127c13.333 -14 23.166 -30.833 29.499 -50.5s9.5 -39.834 9.5 -60.501c0 -27.333 -5.5 -52.166 -16.5 -74.499s-26.333 -41.5 -46 -57.5s-43.334 -28.333 -71.001 -37s-58.5 -13 -92.5 -13
c-58 0 -116.667 12.333 -176 37v146zM224.002 350.998c-6 -6.66699 -10.833 -14.501 -14.5 -23.501s-5.5 -18.5 -5.5 -28.5c0 -12 2.66699 -22 8 -30s12.666 -14.833 21.999 -20.5s20.333 -10.667 33 -15l40 -13.5c5.33301 6.66699 9.83301 14 13.5 22s5.5 16.667 5.5 26
c0 12.667 -2.83301 23.334 -8.5 32.001s-13.167 16 -22.5 22s-20.166 11.167 -32.499 15.5z" />
    <glyph glyph-name="dieresis" unicode="&#xa8;" 
d="M150 633c0 25.333 7.83301 46 23.5 62s36.167 24 61.5 24c24.667 0 45 -8 61 -24s24 -36.667 24 -62c0 -24.667 -8 -45 -24 -61s-36.333 -24 -61 -24c-25.333 0 -45.833 8 -61.5 24s-23.5 36.333 -23.5 61zM-69 633c0 25.333 7.83301 46 23.5 62s36.167 24 61.5 24
s45.833 -8 61.5 -24s23.5 -36.667 23.5 -62c0 -24.667 -7.83301 -45 -23.5 -61s-36.167 -24 -61.5 -24s-45.833 8 -61.5 24s-23.5 36.333 -23.5 61z" />
    <glyph glyph-name="copyright" unicode="&#xa9;" horiz-adv-x="845" 
d="M63 344c0 52.667 8.83301 101 26.5 145s42.334 82 74.001 114s69.5 56.833 113.5 74.5s92.333 26.5 145 26.5s101 -8.83301 145 -26.5s82 -42.5 114 -74.5s56.833 -70 74.5 -114s26.5 -92.333 26.5 -145s-8.83301 -101 -26.5 -145s-42.5 -82 -74.5 -114
s-70 -56.833 -114 -74.5s-92.333 -26.5 -145 -26.5s-101 8.83301 -145 26.5s-81.833 42.5 -113.5 74.5s-56.334 70 -74.001 114s-26.5 92.333 -26.5 145zM148 344c0 -40 6.83301 -76.833 20.5 -110.5s32.5 -62.667 56.5 -87s52.833 -43.333 86.5 -57s70.5 -20.5 110.5 -20.5
s76.833 6.83301 110.5 20.5s62.667 32.667 87 57s43.333 53.333 57 87s20.5 70.5 20.5 110.5s-6.83301 76.833 -20.5 110.5s-32.667 62.667 -57 87s-53.333 43.333 -87 57s-70.5 20.5 -110.5 20.5s-76.833 -6.83301 -110.5 -20.5s-62.5 -32.667 -86.5 -57
s-42.833 -53.333 -56.5 -87s-20.5 -70.5 -20.5 -110.5zM227 344c0 30.667 5.16699 58.8281 15.5 84.4951s24.666 47.834 42.999 66.501s40.166 33.167 65.499 43.5s53.333 15.5 84 15.5c40.667 0 82.334 -9.33301 125.001 -28v-102
c-17.333 10.667 -34.666 18.834 -51.999 24.501s-34 8.5 -50 8.5c-34 0 -61.167 -10.5 -81.5 -31.5s-30.5 -48.167 -30.5 -81.5s10.167 -60.5 30.5 -81.5s47.5 -31.5 81.5 -31.5c16 0 32.667 2.83301 50 8.5s34.666 13.834 51.999 24.501v-102
c-42.667 -18.667 -84.334 -28 -125.001 -28c-30.667 0 -58.667 5.16699 -84 15.5s-47.166 24.833 -65.499 43.5s-32.666 40.834 -42.999 66.501s-15.5 53.834 -15.5 84.501z" />
    <glyph glyph-name="ordfeminine" unicode="&#xaa;" horiz-adv-x="353" 
d="M31 326h290v-89h-290v89zM205 392c-24 -16 -50.667 -24 -80 -24c-30 0 -54.333 9 -73 27s-28 41.333 -28 70c0 33.333 14 60.5 42 81.5s65 31.5 111 31.5h13c4.66699 0 9.66699 -0.333008 15 -1v2c0 9.33301 -4 16.833 -12 22.5s-18.667 8.5 -32 8.5
c-16 0 -33.333 -2.5 -52 -7.5s-38 -13.167 -58 -24.5v90c42.667 18.667 83.667 28 123 28c20.667 0 39.5 -3 56.5 -9s31.667 -14.5 44 -25.5s21.833 -24 28.5 -39s10 -31.5 10 -49.5v-198h-108v17zM134 482c0 -8.66699 2.83301 -15.667 8.5 -21s13.834 -8 24.501 -8
c13.333 0 26 6.33301 38 19v41c-4.66699 0.666992 -8.83398 1 -12.501 1h-10.5c-14 0 -25.5 -3 -34.5 -9s-13.5 -13.667 -13.5 -23z" />
    <glyph glyph-name="guillemotleft" unicode="&#xab;" horiz-adv-x="686" 
d="M467 250l188 -219h-170l-203 219l203 219h170zM218 250l188 -219h-171l-204 219l204 219h171z" />
    <glyph glyph-name="logicalnot" unicode="&#xac;" horiz-adv-x="563" 
d="M31 351h501v-320h-140v181h-361v139z" />
    <glyph glyph-name="uni00AD" unicode="&#xad;" horiz-adv-x="313" 
d="M23 320h266v-131h-266v131z" />
    <glyph glyph-name="registered" unicode="&#xae;" horiz-adv-x="500" 
d="M35 485c0 31.333 5.33301 60.166 16 86.499s25.5 49 44.5 68s41.667 33.833 68 44.5s55.166 16 86.499 16s60.166 -5.33301 86.499 -16s49 -25.5 68 -44.5s33.833 -41.667 44.5 -68s16 -55.166 16 -86.499s-5.33301 -60.166 -16 -86.499s-25.5 -49 -44.5 -68
s-41.667 -33.833 -68 -44.5s-55.166 -16 -86.499 -16s-60.166 5.33301 -86.499 16s-49 25.5 -68 44.5s-33.833 41.667 -44.5 68s-16 55.166 -16 86.499zM90 485c0 -23.333 4 -44.833 12 -64.5s19 -36.5 33 -50.5s30.833 -25 50.5 -33s41.167 -12 64.5 -12s44.833 4 64.5 12
s36.667 19 51 33s25.5 30.833 33.5 50.5s12 41.167 12 64.5s-4 44.833 -12 64.5s-19.167 36.5 -33.5 50.5s-31.333 25 -51 33s-41.167 12 -64.5 12s-44.833 -4 -64.5 -12s-36.5 -19 -50.5 -33s-25 -30.833 -33 -50.5s-12 -41.167 -12 -64.5zM229 498h23
c8.66699 0 15.834 2.5 21.501 7.5s8.5 11.5 8.5 19.5s-2.83301 14.667 -8.5 20s-12.834 8 -21.501 8h-23v-55zM168 602l93 0.000976562c24 0 43.833 -7.16699 59.5 -21.5s23.5 -32.833 23.5 -55.5c0 -30.667 -13.333 -53.334 -40 -68.001l50 -89h-67l-43 81h-15v-81h-61v234
z" />
    <glyph glyph-name="macron" unicode="&#xaf;" 
d="M-54 688h358v-108h-358v108z" />
    <glyph glyph-name="degree" unicode="&#xb0;" horiz-adv-x="375" 
d="M35 548c0 22 3.66699 42.333 11 61s17.833 34.834 31.5 48.501s29.834 24.167 48.501 31.5s39.334 11 62.001 11c22 0 42.333 -3.66699 61 -11s34.667 -17.833 48 -31.5s23.666 -29.834 30.999 -48.501s11 -39 11 -61s-3.66699 -42.333 -11 -61
s-17.666 -34.834 -30.999 -48.501s-29.333 -24.167 -48 -31.5s-39 -11 -61 -11c-22.667 0 -43.334 3.66699 -62.001 11s-34.834 17.833 -48.501 31.5s-24.167 29.834 -31.5 48.501s-11 39 -11 61zM129 548c0 -17.333 5.5 -31.5 16.5 -42.5s25.167 -16.5 42.5 -16.5
s31.333 5.5 42 16.5s16 25.167 16 42.5s-5.33301 31.5 -16 42.5s-24.667 16.5 -42 16.5s-31.5 -5.5 -42.5 -16.5s-16.5 -25.167 -16.5 -42.5z" />
    <glyph glyph-name="plusminus" unicode="&#xb1;" horiz-adv-x="563" 
d="M31 492h181v180h139v-180h181v-140h-181v-181h-139v181h-181v140zM31 140h501v-140h-501v140z" />
    <glyph glyph-name="uni00B2" unicode="&#xb2;" horiz-adv-x="319" 
d="M18 476c50.667 40 88.168 75.833 112.501 107.5s36.5 59.5 36.5 83.5c0 15.333 -5.16699 28 -15.5 38s-23.5 15 -39.5 15c-28.667 0 -57 -12 -85 -36v104c39.333 21.333 80.333 32 123 32c40 0 72.667 -12.333 98 -37s38 -57 38 -97c0 -30 -9.83301 -60.167 -29.5 -90.5
s-46.834 -60.833 -81.501 -91.5h112v-97h-269v69z" />
    <glyph glyph-name="uni00B3" unicode="&#xb3;" horiz-adv-x="315" 
d="M95 658l18.001 -0.000976562c15.333 0 28 3.33301 38 10s15 15.334 15 26.001c0 9.33301 -4 17 -12 23s-17.667 9 -29 9c-32 0 -62.667 -9.33301 -92 -28v100c33.333 14.667 68.333 22 105 22c20.667 0 39.667 -2.83301 57 -8.5s32.166 -13.5 44.499 -23.5
s22 -22.167 29 -36.5s10.5 -29.833 10.5 -46.5c0 -20 -4.66699 -37.833 -14 -53.5s-22.666 -27.167 -39.999 -34.5c19.333 -8 34.666 -20.5 45.999 -37.5s17 -36.833 17 -59.5c0 -36 -14 -65 -42 -87s-64.667 -33 -110 -33c-36 0 -73.667 8.33301 -113 25v102
c34.667 -22 67 -33 97 -33c15.333 0 27.833 3.33301 37.5 10s14.5 15.667 14.5 27s-5 20.333 -15 27s-23 10 -39 10h-23v90z" />
    <glyph glyph-name="acute" unicode="&#xb4;" 
d="M152 719h152l-136 -172h-128z" />
    <glyph glyph-name="uni00B5" unicode="&#xb5;" horiz-adv-x="605" 
d="M63 500h163v-298c0 -20 6.33301 -36.667 19 -50s29.334 -20 50.001 -20c28.667 0 57 13 85 39v329h163v-500h-163v35c-33.333 -26 -66 -39 -98 -39c-20.667 0 -39.334 4 -56.001 12v-227h-163v719z" />
    <glyph glyph-name="paragraph" unicode="&#xb6;" horiz-adv-x="601" 
d="M270 251c-35.333 0 -67.5 5.33105 -96.5 15.998s-54.167 25.667 -75.5 45s-37.833 42.333 -49.5 69s-17.5 56 -17.5 88s5.83301 61.333 17.5 88s28.167 49.834 49.5 69.501s46.5 34.834 75.5 45.501s61.167 16 96.5 16h249v-813h-140v673h-70v-297h-39z" />
    <glyph glyph-name="periodcentered" unicode="&#xb7;" 
d="M32 250c0 28 8.5 50.667 25.5 68s39.5 26 67.5 26s50.5 -8.66699 67.5 -26s25.5 -40 25.5 -68c0 -27.333 -8.5 -49.666 -25.5 -66.999s-39.5 -26 -67.5 -26s-50.5 8.66699 -67.5 26s-25.5 39.666 -25.5 66.999z" />
    <glyph glyph-name="cedilla" unicode="&#xb8;" 
d="M172 -33c20 -6 35.499 -16.833 46.499 -32.5s16.5 -34.167 16.5 -55.5c0 -34 -13.333 -60.833 -40 -80.5s-60.334 -29.5 -101.001 -29.5c-13.333 0 -26.333 1.33301 -39 4s-25.667 6.66699 -39 12v89c20.667 -10.667 41.334 -16 62.001 -16c12.667 0 22.5 3 29.5 9
s10.5 14 10.5 24c0 8.66699 -4.16699 16 -12.5 22s-20.166 9 -35.499 9h-4l20 78h94z" />
    <glyph glyph-name="uni00B9" unicode="&#xb9;" horiz-adv-x="280" 
d="M109 689l-90 -47v101l133 70h74v-406h-117v282z" />
    <glyph glyph-name="ordmasculine" unicode="&#xba;" horiz-adv-x="393" 
d="M31 326h330v-89h-330v89zM24 532c0 24 4.16699 46 12.5 66s20.166 37.333 35.499 52s33.5 26 54.5 34s44.167 12 69.5 12s48.666 -4 69.999 -12s39.666 -19.333 54.999 -34s27.166 -32 35.499 -52s12.5 -42 12.5 -66s-4.16699 -46 -12.5 -66s-20.166 -37.333 -35.499 -52
s-33.666 -26 -54.999 -34s-44.666 -12 -69.999 -12s-48.5 4 -69.5 12s-39.167 19.333 -54.5 34s-27.166 32 -35.499 52s-12.5 42 -12.5 66zM139 532c0 -20.667 5.16699 -37.667 15.5 -51s24.166 -20 41.499 -20s31.166 6.66699 41.499 20s15.5 30.333 15.5 51
s-5.16699 37.5 -15.5 50.5s-24.166 19.5 -41.499 19.5s-31.166 -6.5 -41.499 -19.5s-15.5 -29.833 -15.5 -50.5z" />
    <glyph glyph-name="guillemotright" unicode="&#xbb;" horiz-adv-x="686" 
d="M219 250l-188 219h171l204 -219l-204 -219h-171zM469 250l-187 219h170l203 -219l-203 -219h-170z" />
    <glyph glyph-name="onequarter" unicode="&#xbc;" horiz-adv-x="845" 
d="M141 564l-90 -47v101l133 70h74v-406h-117v282zM622 688h117l-516 -688h-118zM670 85h-164v70l180 251h92v-234h56v-87h-56v-85h-108v85zM670 172v82l-59 -82h59z" />
    <glyph glyph-name="onehalf" unicode="&#xbd;" horiz-adv-x="845" 
d="M141 564l-90 -47v101l133 70h74v-406h-117v282zM622 688h117l-516 -688h-118zM531 69c50.667 40 88.168 75.833 112.501 107.5s36.5 59.5 36.5 83.5c0 15.333 -5.16699 28 -15.5 38s-23.5 15 -39.5 15c-28.667 0 -57 -12 -85 -36v104c39.333 21.333 80.333 32 123 32
c40 0 72.667 -12.333 98 -37s38 -57 38 -97c0 -30 -9.83301 -60.167 -29.5 -90.5s-46.834 -60.833 -81.501 -91.5h112v-97h-269v69z" />
    <glyph glyph-name="threequarters" unicode="&#xbe;" horiz-adv-x="845" 
d="M110 533l18.001 -0.000976562c15.333 0 28 3.33301 38 10s15 15.334 15 26.001c0 9.33301 -4 17 -12 23s-17.667 9 -29 9c-32 0 -62.667 -9.33301 -92 -28v100c33.333 14.667 68.333 22 105 22c20.667 0 39.667 -2.83301 57 -8.5s32.166 -13.5 44.499 -23.5
s22 -22.167 29 -36.5s10.5 -29.833 10.5 -46.5c0 -20 -4.66699 -37.833 -14 -53.5s-22.666 -27.167 -39.999 -34.5c19.333 -8 34.666 -20.5 45.999 -37.5s17 -36.833 17 -59.5c0 -36 -14 -65 -42 -87s-64.667 -33 -110 -33c-36 0 -73.667 8.33301 -113 25v102
c34.667 -22 67 -33 97 -33c15.333 0 27.833 3.33301 37.5 10s14.5 15.667 14.5 27s-5 20.333 -15 27s-23 10 -39 10h-23v90zM622.001 687.999h117l-516 -688h-118zM670.001 84.999h-164v70l180 251h92v-234h56v-87h-56v-85h-108v85zM670.001 171.999v82l-59 -82h59z" />
    <glyph glyph-name="questiondown" unicode="&#xbf;" horiz-adv-x="461" 
d="M351 419c0 -27.333 -8.66699 -49.666 -26 -66.999s-39.666 -26 -66.999 -26c-28 0 -50.5 8.66699 -67.5 26s-25.5 39.666 -25.5 66.999s8.5 49.666 25.5 66.999s39.5 26 67.5 26c27.333 0 49.666 -8.66699 66.999 -26s26 -39.666 26 -66.999zM335 243
c0 -20.667 -2.83105 -39.001 -8.49805 -55.001s-12.834 -30.5 -21.501 -43.5s-18.167 -24.667 -28.5 -35s-19.833 -20.666 -28.5 -30.999s-15.834 -20.833 -21.501 -31.5s-8.5 -22.667 -8.5 -36c0 -19.333 7.16699 -35.333 21.5 -48s32.166 -19 53.499 -19
s43.666 5 66.999 15s46.666 24.667 69.999 44v-148c-57.333 -36 -115.666 -54 -174.999 -54c-30.667 0 -58.667 4.5 -84 13.5s-47.166 21.833 -65.499 38.5s-32.666 36.5 -42.999 59.5s-15.5 48.167 -15.5 75.5c0 35.333 7 65.833 21 91.5s29.333 48.5 46 68.5l46 55
c14 16.667 21 34 21 52v27h154v-39z" />
    <glyph glyph-name="Agrave" unicode="&#xc0;" horiz-adv-x="675" 
d="M266 688h144l269 -688h-162l-53 142h-253l-52 -142h-163zM257 266h161l-80 221zM159 907h152l112 -172h-128z" />
    <glyph glyph-name="Aacute" unicode="&#xc1;" horiz-adv-x="675" 
d="M266 688h144l269 -688h-162l-53 142h-253l-52 -142h-163zM257 266h161l-80 221zM365 907h152l-136 -172h-128z" />
    <glyph glyph-name="Acircumflex" unicode="&#xc2;" horiz-adv-x="675" 
d="M266 688h144l269 -688h-162l-53 142h-253l-52 -142h-163zM257 266h161l-80 221zM265 907h146l114 -172h-120l-67 87l-66 -87h-121z" />
    <glyph glyph-name="Atilde" unicode="&#xc3;" horiz-adv-x="675" 
d="M266 688h144l269 -688h-162l-53 142h-253l-52 -142h-163zM257 266h161l-80 221zM151 756c0 20.667 2.83594 39.834 8.50293 57.501s13.667 33 24 46s22.666 23 36.999 30s30.166 10.5 47.499 10.5c15.333 0 29.166 -2.83301 41.499 -8.5s23.5 -12 33.5 -19l27.5 -19
c8.33301 -5.66699 16.5 -8.5 24.5 -8.5c11.333 0 20.333 4 27 12s10 18.333 10 31h93c0 -42.667 -10.833 -77.334 -32.5 -104.001s-49.5 -40 -83.5 -40c-16 0 -30.167 2.83301 -42.5 8.5s-23.5 12 -33.5 19l-27.5 19c-8.33301 5.66699 -16.5 8.5 -24.5 8.5
c-11.333 0 -20.333 -4 -27 -12s-10 -18.333 -10 -31h-93z" />
    <glyph glyph-name="Adieresis" unicode="&#xc4;" horiz-adv-x="675" 
d="M266 688h144l269 -688h-162l-53 142h-253l-52 -142h-163zM257 266h161l-80 221zM363 821c0 25.333 7.83301 46 23.5 62s36.167 24 61.5 24c24.667 0 45 -8 61 -24s24 -36.667 24 -62c0 -24.667 -8 -45 -24 -61s-36.333 -24 -61 -24c-25.333 0 -45.833 8 -61.5 24
s-23.5 36.333 -23.5 61zM144 821c0 25.333 7.83301 46 23.5 62s36.167 24 61.5 24s45.833 -8 61.5 -24s23.5 -36.667 23.5 -62c0 -24.667 -7.83301 -45 -23.5 -61s-36.167 -24 -61.5 -24s-45.833 8 -61.5 24s-23.5 36.333 -23.5 61z" />
    <glyph glyph-name="Aring" unicode="&#xc5;" horiz-adv-x="675" 
d="M266 688h144l269 -688h-162l-53 142h-253l-52 -142h-163zM257 266h161l-80 221zM225 821c0 34 10.5 61.5 31.5 82.5s48.167 31.5 81.5 31.5c34 0 61.5 -10.5 82.5 -31.5s31.5 -48.5 31.5 -82.5c0 -33.333 -10.5 -60.333 -31.5 -81s-48.5 -31 -82.5 -31
c-33.333 0 -60.5 10.333 -81.5 31s-31.5 47.667 -31.5 81zM291 821c0 -13.333 4.5 -24.333 13.5 -33s20.167 -13 33.5 -13s24.5 4.33301 33.5 13s13.5 19.667 13.5 33c0 14 -4.5 25.333 -13.5 34s-20.167 13 -33.5 13s-24.5 -4.33301 -33.5 -13s-13.5 -20 -13.5 -34z" />
    <glyph glyph-name="AE" unicode="&#xc6;" horiz-adv-x="930" 
d="M300 250h142v241zM400 688h475v-136h-266v-137h227v-131h-227v-148h274v-136h-441v126h-216l-75 -126h-167z" />
    <glyph glyph-name="Ccedilla" unicode="&#xc7;" horiz-adv-x="633" 
d="M39 344c0 52 8.5 99.8311 25.5 143.498s40.833 81.167 71.5 112.5s67.167 55.833 109.5 73.5s88.833 26.5 139.5 26.5c68 0 136.333 -16.333 205 -49v-148c-59.333 38 -117.666 57 -174.999 57c-30 0 -57.667 -5.33301 -83 -16s-47 -25.5 -65 -44.5s-32 -41.667 -42 -68
s-15 -55.5 -15 -87.5s5 -61.167 15 -87.5s24 -49 42 -68s39.667 -33.833 65 -44.5s53 -16 83 -16c57.333 0 115.666 19 174.999 57v-148c-56.667 -26.667 -114.667 -42.667 -174 -48l-6 -22c20.667 -6 36.334 -16.833 47.001 -32.5s16 -34.167 16 -55.5
c0 -34 -13.333 -60.833 -40 -80.5s-60.334 -29.5 -101.001 -29.5c-12.667 0 -25.5 1.33301 -38.5 4s-26.167 6.66699 -39.5 12v89c20.667 -10.667 41.667 -16 63 -16c12 0 21.667 3 29 9s11 14 11 24c0 8.66699 -4.16699 16 -12.5 22s-20.166 9 -35.499 9h-4l18 71
c-42.667 6.66699 -81.334 20 -116.001 40s-64.5 45.333 -89.5 76s-44.333 65.834 -58 105.501s-20.5 82.834 -20.5 129.501z" />
    <glyph glyph-name="Egrave" unicode="&#xc8;" horiz-adv-x="571" 
d="M82 688h434v-136h-267v-137h228v-131h-228v-148h275v-136h-442v688zM118 907h152l112 -172h-128z" />
    <glyph glyph-name="Eacute" unicode="&#xc9;" horiz-adv-x="571" 
d="M82 688h434v-136h-267v-137h228v-131h-228v-148h275v-136h-442v688zM324 907h152l-136 -172h-128z" />
    <glyph glyph-name="Ecircumflex" unicode="&#xca;" horiz-adv-x="571" 
d="M82 688h434v-136h-267v-137h228v-131h-228v-148h275v-136h-442v688zM224 907h146l114 -172h-120l-67 87l-66 -87h-121z" />
    <glyph glyph-name="Edieresis" unicode="&#xcb;" horiz-adv-x="571" 
d="M82 688h434v-136h-267v-137h228v-131h-228v-148h275v-136h-442v688zM322 821c0 25.333 7.83301 46 23.5 62s36.167 24 61.5 24c24.667 0 45 -8 61 -24s24 -36.667 24 -62c0 -24.667 -8 -45 -24 -61s-36.333 -24 -61 -24c-25.333 0 -45.833 8 -61.5 24
s-23.5 36.333 -23.5 61zM103 821c0 25.333 7.83301 46 23.5 62s36.167 24 61.5 24s45.833 -8 61.5 -24s23.5 -36.667 23.5 -62c0 -24.667 -7.83301 -45 -23.5 -61s-36.167 -24 -61.5 -24s-45.833 8 -61.5 24s-23.5 36.333 -23.5 61z" />
    <glyph glyph-name="Igrave" unicode="&#xcc;" horiz-adv-x="331" 
d="M82 688h167v-688h-167v688zM-13 907h152l112 -172h-128z" />
    <glyph glyph-name="Iacute" unicode="&#xcd;" horiz-adv-x="331" 
d="M82 688h167v-688h-167v688zM193 907h152l-136 -172h-128z" />
    <glyph glyph-name="Icircumflex" unicode="&#xce;" horiz-adv-x="331" 
d="M82 688h167v-688h-167v688zM93 907h146l114 -172h-120l-67 87l-66 -87h-121z" />
    <glyph glyph-name="Idieresis" unicode="&#xcf;" horiz-adv-x="331" 
d="M82 688h167v-688h-167v688zM191 821c0 25.333 7.83301 46 23.5 62s36.167 24 61.5 24c24.667 0 45 -8 61 -24s24 -36.667 24 -62c0 -24.667 -8 -45 -24 -61s-36.333 -24 -61 -24c-25.333 0 -45.833 8 -61.5 24s-23.5 36.333 -23.5 61zM-28 821
c0 25.333 7.83301 46 23.5 62s36.167 24 61.5 24s45.833 -8 61.5 -24s23.5 -36.667 23.5 -62c0 -24.667 -7.83301 -45 -23.5 -61s-36.167 -24 -61.5 -24s-45.833 8 -61.5 24s-23.5 36.333 -23.5 61z" />
    <glyph glyph-name="Eth" unicode="&#xd0;" horiz-adv-x="750" 
d="M98 295l-82 -0.00195312v110h82v283h272c50 0 95.833 -8.5 137.5 -25.5s77.5 -40.667 107.5 -71s53.5 -66.666 70.5 -108.999s25.5 -88.5 25.5 -138.5s-8.5 -96.167 -25.5 -138.5s-40.5 -78.666 -70.5 -108.999s-65.833 -54 -107.5 -71s-87.5 -25.5 -137.5 -25.5h-272
v295zM265 404.998l125 -0.00195312v-110h-125v-159h98c26 0 49.833 5 71.5 15s40.5 24.167 56.5 42.5s28.333 40.333 37 66s13 53.834 13 84.501s-4.33301 58.834 -13 84.501s-21 47.667 -37 66s-34.833 32.5 -56.5 42.5s-45.5 15 -71.5 15h-98v-147z" />
    <glyph glyph-name="Ntilde" unicode="&#xd1;" horiz-adv-x="773" 
d="M82 688h144l310 -424v424h155v-688h-144l-309 424v-424h-156v688zM196 756c0 20.667 2.83594 39.834 8.50293 57.501s13.667 33 24 46s22.666 23 36.999 30s30.166 10.5 47.499 10.5c15.333 0 29.166 -2.83301 41.499 -8.5s23.5 -12 33.5 -19l27.5 -19
c8.33301 -5.66699 16.5 -8.5 24.5 -8.5c11.333 0 20.333 4 27 12s10 18.333 10 31h93c0 -42.667 -10.833 -77.334 -32.5 -104.001s-49.5 -40 -83.5 -40c-16 0 -30.167 2.83301 -42.5 8.5s-23.5 12 -33.5 19l-27.5 19c-8.33301 5.66699 -16.5 8.5 -24.5 8.5
c-11.333 0 -20.333 -4 -27 -12s-10 -18.333 -10 -31h-93z" />
    <glyph glyph-name="Ograve" unicode="&#xd2;" horiz-adv-x="773" 
d="M39 344c0 52 8.5 99.833 25.5 143.5s41 81.167 72 112.5s67.667 55.833 110 73.5s89.166 26.5 140.499 26.5c50.667 0 97.334 -8.83301 140.001 -26.5s79.334 -42.167 110.001 -73.5s54.5 -68.833 71.5 -112.5s25.5 -91.5 25.5 -143.5s-8.5 -99.833 -25.5 -143.5
s-40.833 -81.167 -71.5 -112.5s-67.334 -55.833 -110.001 -73.5s-89.334 -26.5 -140.001 -26.5c-51.333 0 -98.166 8.83301 -140.499 26.5s-79 42.167 -110 73.5s-55 68.833 -72 112.5s-25.5 91.5 -25.5 143.5zM210 344c0 -32 4.33301 -61.167 13 -87.5s20.667 -49 36 -68
s34 -33.833 56 -44.5s46 -16 72 -16s49.833 5.33301 71.5 16s40.334 25.5 56.001 44.5s27.834 41.667 36.501 68s13 55.5 13 87.5s-4.33301 61.167 -13 87.5s-20.834 49 -36.501 68s-34.334 33.833 -56.001 44.5s-45.5 16 -71.5 16s-50 -5.33301 -72 -16
s-40.667 -25.5 -56 -44.5s-27.333 -41.667 -36 -68s-13 -55.5 -13 -87.5zM208 907h152l112 -172h-128z" />
    <glyph glyph-name="Oacute" unicode="&#xd3;" horiz-adv-x="773" 
d="M39 344c0 52 8.5 99.833 25.5 143.5s41 81.167 72 112.5s67.667 55.833 110 73.5s89.166 26.5 140.499 26.5c50.667 0 97.334 -8.83301 140.001 -26.5s79.334 -42.167 110.001 -73.5s54.5 -68.833 71.5 -112.5s25.5 -91.5 25.5 -143.5s-8.5 -99.833 -25.5 -143.5
s-40.833 -81.167 -71.5 -112.5s-67.334 -55.833 -110.001 -73.5s-89.334 -26.5 -140.001 -26.5c-51.333 0 -98.166 8.83301 -140.499 26.5s-79 42.167 -110 73.5s-55 68.833 -72 112.5s-25.5 91.5 -25.5 143.5zM210 344c0 -32 4.33301 -61.167 13 -87.5s20.667 -49 36 -68
s34 -33.833 56 -44.5s46 -16 72 -16s49.833 5.33301 71.5 16s40.334 25.5 56.001 44.5s27.834 41.667 36.501 68s13 55.5 13 87.5s-4.33301 61.167 -13 87.5s-20.834 49 -36.501 68s-34.334 33.833 -56.001 44.5s-45.5 16 -71.5 16s-50 -5.33301 -72 -16
s-40.667 -25.5 -56 -44.5s-27.333 -41.667 -36 -68s-13 -55.5 -13 -87.5zM414 907h152l-136 -172h-128z" />
    <glyph glyph-name="Ocircumflex" unicode="&#xd4;" horiz-adv-x="773" 
d="M39 344c0 52 8.5 99.833 25.5 143.5s41 81.167 72 112.5s67.667 55.833 110 73.5s89.166 26.5 140.499 26.5c50.667 0 97.334 -8.83301 140.001 -26.5s79.334 -42.167 110.001 -73.5s54.5 -68.833 71.5 -112.5s25.5 -91.5 25.5 -143.5s-8.5 -99.833 -25.5 -143.5
s-40.833 -81.167 -71.5 -112.5s-67.334 -55.833 -110.001 -73.5s-89.334 -26.5 -140.001 -26.5c-51.333 0 -98.166 8.83301 -140.499 26.5s-79 42.167 -110 73.5s-55 68.833 -72 112.5s-25.5 91.5 -25.5 143.5zM210 344c0 -32 4.33301 -61.167 13 -87.5s20.667 -49 36 -68
s34 -33.833 56 -44.5s46 -16 72 -16s49.833 5.33301 71.5 16s40.334 25.5 56.001 44.5s27.834 41.667 36.501 68s13 55.5 13 87.5s-4.33301 61.167 -13 87.5s-20.834 49 -36.501 68s-34.334 33.833 -56.001 44.5s-45.5 16 -71.5 16s-50 -5.33301 -72 -16
s-40.667 -25.5 -56 -44.5s-27.333 -41.667 -36 -68s-13 -55.5 -13 -87.5zM314 907h146l114 -172h-120l-67 87l-66 -87h-121z" />
    <glyph glyph-name="Otilde" unicode="&#xd5;" horiz-adv-x="773" 
d="M39 344c0 52 8.5 99.833 25.5 143.5s41 81.167 72 112.5s67.667 55.833 110 73.5s89.166 26.5 140.499 26.5c50.667 0 97.334 -8.83301 140.001 -26.5s79.334 -42.167 110.001 -73.5s54.5 -68.833 71.5 -112.5s25.5 -91.5 25.5 -143.5s-8.5 -99.833 -25.5 -143.5
s-40.833 -81.167 -71.5 -112.5s-67.334 -55.833 -110.001 -73.5s-89.334 -26.5 -140.001 -26.5c-51.333 0 -98.166 8.83301 -140.499 26.5s-79 42.167 -110 73.5s-55 68.833 -72 112.5s-25.5 91.5 -25.5 143.5zM210 344c0 -32 4.33301 -61.167 13 -87.5s20.667 -49 36 -68
s34 -33.833 56 -44.5s46 -16 72 -16s49.833 5.33301 71.5 16s40.334 25.5 56.001 44.5s27.834 41.667 36.501 68s13 55.5 13 87.5s-4.33301 61.167 -13 87.5s-20.834 49 -36.501 68s-34.334 33.833 -56.001 44.5s-45.5 16 -71.5 16s-50 -5.33301 -72 -16
s-40.667 -25.5 -56 -44.5s-27.333 -41.667 -36 -68s-13 -55.5 -13 -87.5zM200 756c0 20.667 2.83594 39.834 8.50293 57.501s13.667 33 24 46s22.666 23 36.999 30s30.166 10.5 47.499 10.5c15.333 0 29.166 -2.83301 41.499 -8.5s23.5 -12 33.5 -19l27.5 -19
c8.33301 -5.66699 16.5 -8.5 24.5 -8.5c11.333 0 20.333 4 27 12s10 18.333 10 31h93c0 -42.667 -10.833 -77.334 -32.5 -104.001s-49.5 -40 -83.5 -40c-16 0 -30.167 2.83301 -42.5 8.5s-23.5 12 -33.5 19l-27.5 19c-8.33301 5.66699 -16.5 8.5 -24.5 8.5
c-11.333 0 -20.333 -4 -27 -12s-10 -18.333 -10 -31h-93z" />
    <glyph glyph-name="Odieresis" unicode="&#xd6;" horiz-adv-x="773" 
d="M39 344c0 52 8.5 99.833 25.5 143.5s41 81.167 72 112.5s67.667 55.833 110 73.5s89.166 26.5 140.499 26.5c50.667 0 97.334 -8.83301 140.001 -26.5s79.334 -42.167 110.001 -73.5s54.5 -68.833 71.5 -112.5s25.5 -91.5 25.5 -143.5s-8.5 -99.833 -25.5 -143.5
s-40.833 -81.167 -71.5 -112.5s-67.334 -55.833 -110.001 -73.5s-89.334 -26.5 -140.001 -26.5c-51.333 0 -98.166 8.83301 -140.499 26.5s-79 42.167 -110 73.5s-55 68.833 -72 112.5s-25.5 91.5 -25.5 143.5zM210 344c0 -32 4.33301 -61.167 13 -87.5s20.667 -49 36 -68
s34 -33.833 56 -44.5s46 -16 72 -16s49.833 5.33301 71.5 16s40.334 25.5 56.001 44.5s27.834 41.667 36.501 68s13 55.5 13 87.5s-4.33301 61.167 -13 87.5s-20.834 49 -36.501 68s-34.334 33.833 -56.001 44.5s-45.5 16 -71.5 16s-50 -5.33301 -72 -16
s-40.667 -25.5 -56 -44.5s-27.333 -41.667 -36 -68s-13 -55.5 -13 -87.5zM412 821c0 25.333 7.83301 46 23.5 62s36.167 24 61.5 24c24.667 0 45 -8 61 -24s24 -36.667 24 -62c0 -24.667 -8 -45 -24 -61s-36.333 -24 -61 -24c-25.333 0 -45.833 8 -61.5 24
s-23.5 36.333 -23.5 61zM193 821c0 25.333 7.83301 46 23.5 62s36.167 24 61.5 24s45.833 -8 61.5 -24s23.5 -36.667 23.5 -62c0 -24.667 -7.83301 -45 -23.5 -61s-36.167 -24 -61.5 -24s-45.833 8 -61.5 24s-23.5 36.333 -23.5 61z" />
    <glyph glyph-name="multiply" unicode="&#xd7;" horiz-adv-x="563" 
d="M33 132l150 150l-150 149l99 99l150 -150l149 150l99 -99l-150 -149l150 -150l-99 -99l-149 150l-150 -150z" />
    <glyph glyph-name="Oslash" unicode="&#xd8;" horiz-adv-x="773" 
d="M39 344c0 52 8.50098 99.833 25.501 143.5s41 81.167 72 112.5s67.667 55.833 110 73.5s89.166 26.5 140.499 26.5c33.333 0 64.5 -3.83301 93.5 -11.5s56.167 -18.5 81.5 -32.5l25 32h116l-68 -90c30 -31.333 54 -68.5 72 -111.5s27 -90.5 27 -142.5
s-8.5 -99.833 -25.5 -143.5s-40.833 -81.167 -71.5 -112.5s-67.334 -55.833 -110.001 -73.5s-89.334 -26.5 -140.001 -26.5c-33.333 0 -64.666 3.83301 -93.999 11.5s-56.666 18.5 -81.999 32.5l-24 -32h-117l68 90c-30 31.333 -54 68.5 -72 111.5s-27 90.5 -27 142.5z
M210.001 344c0 -46 9.00098 -86.333 27.001 -121l236 314c-26.667 15.333 -55.334 23 -86.001 23c-26 0 -50 -5.33301 -72 -16s-40.667 -25.5 -56 -44.5s-27.333 -41.667 -36 -68s-13 -55.5 -13 -87.5zM564.002 344c0 47.333 -9.33496 87.667 -28.002 121l-234 -314
c24.667 -15.333 53 -23 85 -23c26 0 49.833 5.33301 71.5 16s40.334 25.5 56.001 44.5s27.834 41.667 36.501 68s13 55.5 13 87.5z" />
    <glyph glyph-name="Ugrave" unicode="&#xd9;" horiz-adv-x="773" 
d="M695 260c0 -40 -7.66797 -76.667 -23.001 -110s-36.5 -62 -63.5 -86s-59.5 -42.667 -97.5 -56s-79.333 -20 -124 -20c-45.333 0 -86.833 6.66699 -124.5 20s-70.167 32 -97.5 56s-48.666 52.667 -63.999 86s-23 70 -23 110v428h167v-416
c0 -21.333 3.5 -40.833 10.5 -58.5s16.833 -32.834 29.5 -45.501s27.667 -22.5 45 -29.5s36.333 -10.5 57 -10.5s39.667 3.5 57 10.5s32.333 16.833 45 29.5s22.5 27.834 29.5 45.501s10.5 37.167 10.5 58.5v416h166v-428zM207.999 907h152l112 -172h-128z" />
    <glyph glyph-name="Uacute" unicode="&#xda;" horiz-adv-x="773" 
d="M695 260c0 -40 -7.66797 -76.667 -23.001 -110s-36.5 -62 -63.5 -86s-59.5 -42.667 -97.5 -56s-79.333 -20 -124 -20c-45.333 0 -86.833 6.66699 -124.5 20s-70.167 32 -97.5 56s-48.666 52.667 -63.999 86s-23 70 -23 110v428h167v-416
c0 -21.333 3.5 -40.833 10.5 -58.5s16.833 -32.834 29.5 -45.501s27.667 -22.5 45 -29.5s36.333 -10.5 57 -10.5s39.667 3.5 57 10.5s32.333 16.833 45 29.5s22.5 27.834 29.5 45.501s10.5 37.167 10.5 58.5v416h166v-428zM413.999 907h152l-136 -172h-128z" />
    <glyph glyph-name="Ucircumflex" unicode="&#xdb;" horiz-adv-x="773" 
d="M695 260c0 -40 -7.66797 -76.667 -23.001 -110s-36.5 -62 -63.5 -86s-59.5 -42.667 -97.5 -56s-79.333 -20 -124 -20c-45.333 0 -86.833 6.66699 -124.5 20s-70.167 32 -97.5 56s-48.666 52.667 -63.999 86s-23 70 -23 110v428h167v-416
c0 -21.333 3.5 -40.833 10.5 -58.5s16.833 -32.834 29.5 -45.501s27.667 -22.5 45 -29.5s36.333 -10.5 57 -10.5s39.667 3.5 57 10.5s32.333 16.833 45 29.5s22.5 27.834 29.5 45.501s10.5 37.167 10.5 58.5v416h166v-428zM313.999 907h146l114 -172h-120l-67 87l-66 -87
h-121z" />
    <glyph glyph-name="Udieresis" unicode="&#xdc;" horiz-adv-x="773" 
d="M695 260c0 -40 -7.66797 -76.667 -23.001 -110s-36.5 -62 -63.5 -86s-59.5 -42.667 -97.5 -56s-79.333 -20 -124 -20c-45.333 0 -86.833 6.66699 -124.5 20s-70.167 32 -97.5 56s-48.666 52.667 -63.999 86s-23 70 -23 110v428h167v-416
c0 -21.333 3.5 -40.833 10.5 -58.5s16.833 -32.834 29.5 -45.501s27.667 -22.5 45 -29.5s36.333 -10.5 57 -10.5s39.667 3.5 57 10.5s32.333 16.833 45 29.5s22.5 27.834 29.5 45.501s10.5 37.167 10.5 58.5v416h166v-428zM411.999 821c0 25.333 7.83301 46 23.5 62
s36.167 24 61.5 24c24.667 0 45 -8 61 -24s24 -36.667 24 -62c0 -24.667 -8 -45 -24 -61s-36.333 -24 -61 -24c-25.333 0 -45.833 8 -61.5 24s-23.5 36.333 -23.5 61zM192.999 821c0 25.333 7.83301 46 23.5 62s36.167 24 61.5 24s45.833 -8 61.5 -24s23.5 -36.667 23.5 -62
c0 -24.667 -7.83301 -45 -23.5 -61s-36.167 -24 -61.5 -24s-45.833 8 -61.5 24s-23.5 36.333 -23.5 61z" />
    <glyph glyph-name="Yacute" unicode="&#xdd;" horiz-adv-x="640" 
d="M237 282l-245 406h191l138 -251l137 251h190l-244 -406v-282h-167v282zM348 907h152l-136 -172h-128z" />
    <glyph glyph-name="Thorn" unicode="&#xde;" horiz-adv-x="625" 
d="M82 688h163v-111h102c36 0 69 -5.66699 99 -17s56 -27 78 -47s39 -43.833 51 -71.5s18 -58.167 18 -91.5s-6 -63.833 -18 -91.5s-29 -51.5 -51 -71.5s-48 -35.667 -78 -47s-63 -17 -99 -17h-102v-123h-163v688zM245 255h80c30 0 54.5 8.83301 73.5 26.5
s28.5 40.5 28.5 68.5s-9.5 50.833 -28.5 68.5s-43.5 26.5 -73.5 26.5h-80v-190z" />
    <glyph glyph-name="germandbls" unicode="&#xdf;" horiz-adv-x="687" 
d="M305 161c50 -30 99.334 -44.9971 148.001 -44.9971c17.333 0 30.833 3.66699 40.5 11s14.5 17 14.5 29c0 10.667 -4.83301 19.167 -14.5 25.5s-22 12.166 -37 17.499s-31 11.5 -48 18.5s-33 16.167 -48 27.5s-27.333 26.166 -37 44.499s-14.5 41.833 -14.5 70.5
c0 21.333 3.16699 39.833 9.5 55.5s13.5 30 21.5 43s15.167 25.5 21.5 37.5s9.5 25.667 9.5 41c0 18.667 -6.5 33.667 -19.5 45s-30.167 17 -51.5 17s-39 -7 -53 -21s-21 -32 -21 -54v-524h-163v528c0 30 5.83301 57.5 17.5 82.5s28 46.333 49 64s46 31.5 75 41.5
s60.833 15 95.5 15c35.333 0 67.5 -4.5 96.5 -13.5s53.667 -21.5 74 -37.5s36.166 -35.333 47.499 -58s17 -47.334 17 -74.001c0 -23.333 -3.33301 -43.333 -10 -60s-14 -31.5 -22 -44.5l-22 -36.5c-6.66699 -11.333 -10 -23.333 -10 -36c0 -13.333 5 -23.833 15 -31.5
s22.333 -14.5 37 -20.5l48.5 -19.5c17.667 -7 33.834 -16.167 48.501 -27.5s27 -26 37 -44s15 -41.333 15 -70c0 -25.333 -5 -48.333 -15 -69s-24.167 -38.5 -42.5 -53.5s-40.333 -26.667 -66 -35s-53.834 -12.5 -84.501 -12.5c-50.667 0 -103.667 11.333 -159 34v139z" />
    <glyph glyph-name="agrave" unicode="&#xe0;" horiz-adv-x="539" 
d="M326 31c-43.333 -28.667 -88.002 -43.002 -134.002 -43.002c-23.333 0 -44.833 3.66699 -64.5 11s-36.667 17.833 -51 31.5s-25.5 29.834 -33.5 48.501s-12 39.334 -12 62.001c0 26.667 5.83301 51 17.5 73s28.334 41 50.001 57s47.334 28.333 77.001 37s62.5 13 98.5 13
c7.33301 0 15.333 -0.166992 24 -0.5s18 -0.833008 28 -1.5v9c0 18 -7.5 32.5 -22.5 43.5s-34.167 16.5 -57.5 16.5c-27.333 0 -55.333 -4.16699 -84 -12.5s-58 -21.166 -88 -38.499v132c63.333 28.667 127.333 43 192 43c32.667 0 62.167 -4.83301 88.5 -14.5
s48.833 -23.167 67.5 -40.5s33 -37.833 43 -61.5s15 -49.834 15 -78.501v-317h-154v31zM190.998 165.998c0 -16 5.33105 -29 15.998 -39s24.667 -15 42 -15c26 0 51.667 12 77 36v77c-7.33301 0.666992 -14.666 1.16699 -21.999 1.5s-14.666 0.5 -21.999 0.5
c-28 0 -50.167 -5.83301 -66.5 -17.5s-24.5 -26.167 -24.5 -43.5zM86.9961 718.998h152l112 -172h-128z" />
    <glyph glyph-name="aacute" unicode="&#xe1;" horiz-adv-x="539" 
d="M326 31c-43.333 -28.667 -88.002 -43.002 -134.002 -43.002c-23.333 0 -44.833 3.66699 -64.5 11s-36.667 17.833 -51 31.5s-25.5 29.834 -33.5 48.501s-12 39.334 -12 62.001c0 26.667 5.83301 51 17.5 73s28.334 41 50.001 57s47.334 28.333 77.001 37s62.5 13 98.5 13
c7.33301 0 15.333 -0.166992 24 -0.5s18 -0.833008 28 -1.5v9c0 18 -7.5 32.5 -22.5 43.5s-34.167 16.5 -57.5 16.5c-27.333 0 -55.333 -4.16699 -84 -12.5s-58 -21.166 -88 -38.499v132c63.333 28.667 127.333 43 192 43c32.667 0 62.167 -4.83301 88.5 -14.5
s48.833 -23.167 67.5 -40.5s33 -37.833 43 -61.5s15 -49.834 15 -78.501v-317h-154v31zM190.998 165.998c0 -16 5.33105 -29 15.998 -39s24.667 -15 42 -15c26 0 51.667 12 77 36v77c-7.33301 0.666992 -14.666 1.16699 -21.999 1.5s-14.666 0.5 -21.999 0.5
c-28 0 -50.167 -5.83301 -66.5 -17.5s-24.5 -26.167 -24.5 -43.5zM292.996 718.998h152l-136 -172h-128z" />
    <glyph glyph-name="acircumflex" unicode="&#xe2;" horiz-adv-x="539" 
d="M326 31c-43.333 -28.667 -88.002 -43.002 -134.002 -43.002c-23.333 0 -44.833 3.66699 -64.5 11s-36.667 17.833 -51 31.5s-25.5 29.834 -33.5 48.501s-12 39.334 -12 62.001c0 26.667 5.83301 51 17.5 73s28.334 41 50.001 57s47.334 28.333 77.001 37s62.5 13 98.5 13
c7.33301 0 15.333 -0.166992 24 -0.5s18 -0.833008 28 -1.5v9c0 18 -7.5 32.5 -22.5 43.5s-34.167 16.5 -57.5 16.5c-27.333 0 -55.333 -4.16699 -84 -12.5s-58 -21.166 -88 -38.499v132c63.333 28.667 127.333 43 192 43c32.667 0 62.167 -4.83301 88.5 -14.5
s48.833 -23.167 67.5 -40.5s33 -37.833 43 -61.5s15 -49.834 15 -78.501v-317h-154v31zM190.998 165.998c0 -16 5.33105 -29 15.998 -39s24.667 -15 42 -15c26 0 51.667 12 77 36v77c-7.33301 0.666992 -14.666 1.16699 -21.999 1.5s-14.666 0.5 -21.999 0.5
c-28 0 -50.167 -5.83301 -66.5 -17.5s-24.5 -26.167 -24.5 -43.5zM192.996 718.998h146l114 -172h-120l-67 87l-66 -87h-121z" />
    <glyph glyph-name="atilde" unicode="&#xe3;" horiz-adv-x="539" 
d="M326 31c-43.333 -28.667 -88.002 -43.002 -134.002 -43.002c-23.333 0 -44.833 3.66699 -64.5 11s-36.667 17.833 -51 31.5s-25.5 29.834 -33.5 48.501s-12 39.334 -12 62.001c0 26.667 5.83301 51 17.5 73s28.334 41 50.001 57s47.334 28.333 77.001 37s62.5 13 98.5 13
c7.33301 0 15.333 -0.166992 24 -0.5s18 -0.833008 28 -1.5v9c0 18 -7.5 32.5 -22.5 43.5s-34.167 16.5 -57.5 16.5c-27.333 0 -55.333 -4.16699 -84 -12.5s-58 -21.166 -88 -38.499v132c63.333 28.667 127.333 43 192 43c32.667 0 62.167 -4.83301 88.5 -14.5
s48.833 -23.167 67.5 -40.5s33 -37.833 43 -61.5s15 -49.834 15 -78.501v-317h-154v31zM190.998 165.998c0 -16 5.33105 -29 15.998 -39s24.667 -15 42 -15c26 0 51.667 12 77 36v77c-7.33301 0.666992 -14.666 1.16699 -21.999 1.5s-14.666 0.5 -21.999 0.5
c-28 0 -50.167 -5.83301 -66.5 -17.5s-24.5 -26.167 -24.5 -43.5zM78.9961 567.998c0 20.667 2.83594 39.834 8.50293 57.501s13.667 33 24 46s22.666 23 36.999 30s30.166 10.5 47.499 10.5c15.333 0 29.166 -2.83301 41.499 -8.5s23.5 -12 33.5 -19l27.5 -19
c8.33301 -5.66699 16.5 -8.5 24.5 -8.5c11.333 0 20.333 4 27 12s10 18.333 10 31h93c0 -42.667 -10.833 -77.334 -32.5 -104.001s-49.5 -40 -83.5 -40c-16 0 -30.167 2.83301 -42.5 8.5s-23.5 12 -33.5 19l-27.5 19c-8.33301 5.66699 -16.5 8.5 -24.5 8.5
c-11.333 0 -20.333 -4 -27 -12s-10 -18.333 -10 -31h-93z" />
    <glyph glyph-name="adieresis" unicode="&#xe4;" horiz-adv-x="539" 
d="M326 31c-43.333 -28.667 -88.002 -43.002 -134.002 -43.002c-23.333 0 -44.833 3.66699 -64.5 11s-36.667 17.833 -51 31.5s-25.5 29.834 -33.5 48.501s-12 39.334 -12 62.001c0 26.667 5.83301 51 17.5 73s28.334 41 50.001 57s47.334 28.333 77.001 37s62.5 13 98.5 13
c7.33301 0 15.333 -0.166992 24 -0.5s18 -0.833008 28 -1.5v9c0 18 -7.5 32.5 -22.5 43.5s-34.167 16.5 -57.5 16.5c-27.333 0 -55.333 -4.16699 -84 -12.5s-58 -21.166 -88 -38.499v132c63.333 28.667 127.333 43 192 43c32.667 0 62.167 -4.83301 88.5 -14.5
s48.833 -23.167 67.5 -40.5s33 -37.833 43 -61.5s15 -49.834 15 -78.501v-317h-154v31zM190.998 165.998c0 -16 5.33105 -29 15.998 -39s24.667 -15 42 -15c26 0 51.667 12 77 36v77c-7.33301 0.666992 -14.666 1.16699 -21.999 1.5s-14.666 0.5 -21.999 0.5
c-28 0 -50.167 -5.83301 -66.5 -17.5s-24.5 -26.167 -24.5 -43.5zM290.996 632.998c0 25.333 7.83301 46 23.5 62s36.167 24 61.5 24c24.667 0 45 -8 61 -24s24 -36.667 24 -62c0 -24.667 -8 -45 -24 -61s-36.333 -24 -61 -24c-25.333 0 -45.833 8 -61.5 24
s-23.5 36.333 -23.5 61zM71.9961 632.998c0 25.333 7.83301 46 23.5 62s36.167 24 61.5 24s45.833 -8 61.5 -24s23.5 -36.667 23.5 -62c0 -24.667 -7.83301 -45 -23.5 -61s-36.167 -24 -61.5 -24s-45.833 8 -61.5 24s-23.5 36.333 -23.5 61z" />
    <glyph glyph-name="aring" unicode="&#xe5;" horiz-adv-x="539" 
d="M326 31c-43.333 -28.667 -88.002 -43.002 -134.002 -43.002c-23.333 0 -44.833 3.66699 -64.5 11s-36.667 17.833 -51 31.5s-25.5 29.834 -33.5 48.501s-12 39.334 -12 62.001c0 26.667 5.83301 51 17.5 73s28.334 41 50.001 57s47.334 28.333 77.001 37s62.5 13 98.5 13
c7.33301 0 15.333 -0.166992 24 -0.5s18 -0.833008 28 -1.5v9c0 18 -7.5 32.5 -22.5 43.5s-34.167 16.5 -57.5 16.5c-27.333 0 -55.333 -4.16699 -84 -12.5s-58 -21.166 -88 -38.499v132c63.333 28.667 127.333 43 192 43c32.667 0 62.167 -4.83301 88.5 -14.5
s48.833 -23.167 67.5 -40.5s33 -37.833 43 -61.5s15 -49.834 15 -78.501v-317h-154v31zM190.998 165.998c0 -16 5.33105 -29 15.998 -39s24.667 -15 42 -15c26 0 51.667 12 77 36v77c-7.33301 0.666992 -14.666 1.16699 -21.999 1.5s-14.666 0.5 -21.999 0.5
c-28 0 -50.167 -5.83301 -66.5 -17.5s-24.5 -26.167 -24.5 -43.5zM152.996 632.998c0 34 10.5 61.5 31.5 82.5s48.167 31.5 81.5 31.5c34 0 61.5 -10.5 82.5 -31.5s31.5 -48.5 31.5 -82.5c0 -33.333 -10.5 -60.333 -31.5 -81s-48.5 -31 -82.5 -31
c-33.333 0 -60.5 10.333 -81.5 31s-31.5 47.667 -31.5 81zM218.996 632.998c0 -13.333 4.5 -24.333 13.5 -33s20.167 -13 33.5 -13s24.5 4.33301 33.5 13s13.5 19.667 13.5 33c0 14 -4.5 25.333 -13.5 34s-20.167 13 -33.5 13s-24.5 -4.33301 -33.5 -13s-13.5 -20 -13.5 -34
z" />
    <glyph glyph-name="ae" unicode="&#xe6;" horiz-adv-x="837" 
d="M480 204c5.33301 -28 19.999 -50.334 43.999 -67.001s54 -25 90 -25c23.333 0 47.833 4 73.5 12s51.834 19.667 78.501 35v-132c-61.333 -26 -121 -39 -179 -39c-40.667 0 -76.834 6.5 -108.501 19.5s-59.5 31.5 -83.5 55.5c-30 -24.667 -60.833 -43.334 -92.5 -56.001
s-63.5 -19 -95.5 -19c-26.667 0 -50.834 3.66699 -72.501 11s-40.167 17.833 -55.5 31.5s-27.166 29.834 -35.499 48.501s-12.5 39.334 -12.5 62.001c0 26.667 5.83301 51 17.5 73s28.334 41 50.001 57s47.334 28.333 77.001 37s62.5 13 98.5 13
c9.33301 0 17.666 -0.166992 24.999 -0.5s16.333 -0.833008 27 -1.5v9c0 18 -7.5 32.5 -22.5 43.5s-34.167 16.5 -57.5 16.5c-27.333 0 -55.333 -4.16699 -84 -12.5s-58 -21.166 -88 -38.499v132c63.333 28.667 127.333 43 192 43c65.333 0 116 -18 152 -54
c22.667 19.333 47.5 33.166 74.5 41.499s55.833 12.5 86.5 12.5c33.333 0 64 -6.16699 92 -18.5s52.333 -29.833 73 -52.5s36.667 -49.5 48 -80.5s17 -65.167 17 -102.5v-25.5c0 -9 -0.666992 -18.5 -2 -28.5h-327zM190.999 163.999c0 -16 5.66699 -28.999 17 -38.999
s26.333 -15 45 -15c15.333 0 30.333 3.83301 45 11.5s27.667 18.5 39 32.5c-7.33301 21.333 -11 43.666 -11 66.999v4c-8.66699 0.666992 -16.5 1.16699 -23.5 1.5s-13.833 0.5 -20.5 0.5c-28 0 -50.167 -6 -66.5 -18s-24.5 -27 -24.5 -45zM653.999 305
c-2.66699 24.667 -11.333 44.667 -26 60s-33.667 23 -57 23s-43.5 -7.5 -60.5 -22.5s-27.167 -35.167 -30.5 -60.5h174z" />
    <glyph glyph-name="ccedilla" unicode="&#xe7;" horiz-adv-x="493" 
d="M31 250c0 38.667 6.50098 73.999 19.501 105.999s31.333 59.5 55 82.5s51.667 41 84 54s68.166 19.5 107.499 19.5c50.667 0 103 -11.667 157 -35v-144c-44 28.667 -86.333 43 -127 43c-38 0 -69 -11.5 -93 -34.5s-36 -53.5 -36 -91.5c0 -37.333 12 -67.666 36 -90.999
s55 -35 93 -35c40.667 0 83 14.333 127 43v-144c-20.667 -9.33301 -41 -16.5 -61 -21.5s-39.667 -8.83301 -59 -11.5l-7 -23c21.333 -6 37.333 -16.833 48 -32.5s16 -34.167 16 -55.5c0 -34 -13.333 -60.833 -40 -80.5s-60.334 -29.5 -101.001 -29.5
c-12.667 0 -25.5 1.33301 -38.5 4s-26.167 6.66699 -39.5 12v89c20.667 -10.667 41.667 -16 63 -16c12 0 21.667 3 29 9s11 14 11 24c0 8.66699 -4.16699 16 -12.5 22s-20.166 9 -35.499 9h-4l17 71c-31.333 6 -59.833 16.333 -85.5 31s-47.667 33.167 -66 55.5
s-32.5 48 -42.5 77s-15 60.167 -15 93.5z" />
    <glyph glyph-name="egrave" unicode="&#xe8;" horiz-adv-x="546" 
d="M31 254c0 38 6.50098 72.668 19.501 104.001s31 58.5 54 81.5s50.167 40.833 81.5 53.5s65.666 19 102.999 19c34 0 65.167 -6.16699 93.5 -18.5s52.5 -29.833 72.5 -52.5s35.667 -49.5 47 -80.5s17 -65.167 17 -102.5v-25.5c0 -9 -0.666992 -18.5 -2 -28.5h-326
c5.33301 -28 20 -50.333 44 -67s54 -25 90 -25c23.333 0 47.666 4 72.999 12s51.333 19.667 78 35v-132c-60 -26 -119.667 -39 -179 -39c-39.333 0 -75.166 6.5 -107.499 19.5s-60.333 31.333 -84 55s-42 51.667 -55 84s-19.5 68.166 -19.5 107.499zM365.001 305.001
c-2.66699 24.667 -11.667 44.667 -27 60s-34 23 -56 23c-24 0 -44.333 -7.5 -61 -22.5s-26.667 -35.167 -30 -60.5h174zM106.001 719.001h152l112 -172h-128z" />
    <glyph glyph-name="eacute" unicode="&#xe9;" horiz-adv-x="546" 
d="M31 254c0 38 6.50098 72.668 19.501 104.001s31 58.5 54 81.5s50.167 40.833 81.5 53.5s65.666 19 102.999 19c34 0 65.167 -6.16699 93.5 -18.5s52.5 -29.833 72.5 -52.5s35.667 -49.5 47 -80.5s17 -65.167 17 -102.5v-25.5c0 -9 -0.666992 -18.5 -2 -28.5h-326
c5.33301 -28 20 -50.333 44 -67s54 -25 90 -25c23.333 0 47.666 4 72.999 12s51.333 19.667 78 35v-132c-60 -26 -119.667 -39 -179 -39c-39.333 0 -75.166 6.5 -107.499 19.5s-60.333 31.333 -84 55s-42 51.667 -55 84s-19.5 68.166 -19.5 107.499zM365.001 305.001
c-2.66699 24.667 -11.667 44.667 -27 60s-34 23 -56 23c-24 0 -44.333 -7.5 -61 -22.5s-26.667 -35.167 -30 -60.5h174zM312.001 719.001h152l-136 -172h-128z" />
    <glyph glyph-name="ecircumflex" unicode="&#xea;" horiz-adv-x="546" 
d="M31 254c0 38 6.50098 72.668 19.501 104.001s31 58.5 54 81.5s50.167 40.833 81.5 53.5s65.666 19 102.999 19c34 0 65.167 -6.16699 93.5 -18.5s52.5 -29.833 72.5 -52.5s35.667 -49.5 47 -80.5s17 -65.167 17 -102.5v-25.5c0 -9 -0.666992 -18.5 -2 -28.5h-326
c5.33301 -28 20 -50.333 44 -67s54 -25 90 -25c23.333 0 47.666 4 72.999 12s51.333 19.667 78 35v-132c-60 -26 -119.667 -39 -179 -39c-39.333 0 -75.166 6.5 -107.499 19.5s-60.333 31.333 -84 55s-42 51.667 -55 84s-19.5 68.166 -19.5 107.499zM365.001 305.001
c-2.66699 24.667 -11.667 44.667 -27 60s-34 23 -56 23c-24 0 -44.333 -7.5 -61 -22.5s-26.667 -35.167 -30 -60.5h174zM212.001 719.001h146l114 -172h-120l-67 87l-66 -87h-121z" />
    <glyph glyph-name="edieresis" unicode="&#xeb;" horiz-adv-x="546" 
d="M31 254c0 38 6.50098 72.668 19.501 104.001s31 58.5 54 81.5s50.167 40.833 81.5 53.5s65.666 19 102.999 19c34 0 65.167 -6.16699 93.5 -18.5s52.5 -29.833 72.5 -52.5s35.667 -49.5 47 -80.5s17 -65.167 17 -102.5v-25.5c0 -9 -0.666992 -18.5 -2 -28.5h-326
c5.33301 -28 20 -50.333 44 -67s54 -25 90 -25c23.333 0 47.666 4 72.999 12s51.333 19.667 78 35v-132c-60 -26 -119.667 -39 -179 -39c-39.333 0 -75.166 6.5 -107.499 19.5s-60.333 31.333 -84 55s-42 51.667 -55 84s-19.5 68.166 -19.5 107.499zM365.001 305.001
c-2.66699 24.667 -11.667 44.667 -27 60s-34 23 -56 23c-24 0 -44.333 -7.5 -61 -22.5s-26.667 -35.167 -30 -60.5h174zM310.001 633.001c0 25.333 7.83301 46 23.5 62s36.167 24 61.5 24c24.667 0 45 -8 61 -24s24 -36.667 24 -62c0 -24.667 -8 -45 -24 -61
s-36.333 -24 -61 -24c-25.333 0 -45.833 8 -61.5 24s-23.5 36.333 -23.5 61zM91.001 633.001c0 25.333 7.83301 46 23.5 62s36.167 24 61.5 24s45.833 -8 61.5 -24s23.5 -36.667 23.5 -62c0 -24.667 -7.83301 -45 -23.5 -61s-36.167 -24 -61.5 -24s-45.833 8 -61.5 24
s-23.5 36.333 -23.5 61z" />
    <glyph glyph-name="igrave" unicode="&#xec;" horiz-adv-x="288" 
d="M63 500h163v-500h-163v500zM-34 719h152l112 -172h-128z" />
    <glyph glyph-name="iacute" unicode="&#xed;" horiz-adv-x="288" 
d="M63 500h163v-500h-163v500zM172 719h152l-136 -172h-128z" />
    <glyph glyph-name="icircumflex" unicode="&#xee;" horiz-adv-x="288" 
d="M63 500h163v-500h-163v500zM72 719h146l114 -172h-120l-67 87l-66 -87h-121z" />
    <glyph glyph-name="idieresis" unicode="&#xef;" horiz-adv-x="288" 
d="M63 500h163v-500h-163v500zM170 633c0 25.333 7.83301 46 23.5 62s36.167 24 61.5 24c24.667 0 45 -8 61 -24s24 -36.667 24 -62c0 -24.667 -8 -45 -24 -61s-36.333 -24 -61 -24c-25.333 0 -45.833 8 -61.5 24s-23.5 36.333 -23.5 61zM-49 633
c0 25.333 7.83301 46 23.5 62s36.167 24 61.5 24s45.833 -8 61.5 -24s23.5 -36.667 23.5 -62c0 -24.667 -7.83301 -45 -23.5 -61s-36.167 -24 -61.5 -24s-45.833 8 -61.5 24s-23.5 36.333 -23.5 61z" />
    <glyph glyph-name="eth" unicode="&#xf0;" horiz-adv-x="593" 
d="M31 250c0 38.667 5.66895 74 17.002 106s27.333 59.5 48 82.5s45.5 41 74.5 54s60.833 19.5 95.5 19.5c13.333 0 27 -1.5 41 -4.5s27.333 -7.83301 40 -14.5l-28.5 39.5l-30.5 39.5l-147 -55v101l73 27l-47 37.5c-16 12.333 -33.667 24.5 -53 36.5h202
c5.33301 -3.33301 10.5 -7 15.5 -11l15.5 -12l106 39v-101l-29 -11c44 -50 78 -104.167 102 -162.5s36 -117.833 36 -178.5c0 -43.333 -6.66699 -83 -20 -119s-32 -67 -56 -93s-52.833 -46.167 -86.5 -60.5s-70.5 -21.5 -110.5 -21.5c-38 0 -72.833 6.5 -104.5 19.5
s-58.834 31 -81.501 54s-40.334 50.667 -53.001 83s-19 67.5 -19 105.5zM198.002 250c0 -38 8.99902 -68.5 26.999 -91.5s42 -34.5 72 -34.5c28.667 0 52.334 12.667 71.001 38s28 57.333 28 96c0 13.333 -1 27.333 -3 42s-5.66699 29.667 -11 45
c-26 20.667 -54.333 31 -85 31c-30 0 -54 -11.5 -72 -34.5s-27 -53.5 -27 -91.5z" />
    <glyph glyph-name="ntilde" unicode="&#xf1;" horiz-adv-x="601" 
d="M63 500l163 0.000976562v-35c43.333 31.333 89 47 137 47c26 0 50 -4.5 72 -13.5s41 -21.667 57 -38s28.5 -35.833 37.5 -58.5s13.5 -47.334 13.5 -74.001v-328h-163v298c0 20.667 -6.5 37.667 -19.5 51s-29.5 20 -49.5 20c-30 0 -58.333 -13.333 -85 -40v-329h-163v500z
M116 568.001c0 20.667 2.83594 39.834 8.50293 57.501s13.667 33 24 46s22.666 23 36.999 30s30.166 10.5 47.499 10.5c15.333 0 29.166 -2.83301 41.499 -8.5s23.5 -12 33.5 -19l27.5 -19c8.33301 -5.66699 16.5 -8.5 24.5 -8.5c11.333 0 20.333 4 27 12s10 18.333 10 31
h93c0 -42.667 -10.833 -77.334 -32.5 -104.001s-49.5 -40 -83.5 -40c-16 0 -30.167 2.83301 -42.5 8.5s-23.5 12 -33.5 19l-27.5 19c-8.33301 5.66699 -16.5 8.5 -24.5 8.5c-11.333 0 -20.333 -4 -27 -12s-10 -18.333 -10 -31h-93z" />
    <glyph glyph-name="ograve" unicode="&#xf2;" horiz-adv-x="601" 
d="M31 250c0 38.667 6.66699 74 20 106s32 59.5 56 82.5s52.5 41 85.5 54s69.167 19.5 108.5 19.5s75.5 -6.5 108.5 -19.5s61.333 -31 85 -54s42.167 -50.5 55.5 -82.5s20 -67.333 20 -106c0 -38 -6.66699 -73.167 -20 -105.5s-31.833 -60 -55.5 -83s-52 -41 -85 -54
s-69.167 -19.5 -108.5 -19.5s-75.5 6.5 -108.5 19.5s-61.5 31 -85.5 54s-42.667 50.667 -56 83s-20 67.5 -20 105.5zM198 250c0 -38 9.5 -68.5 28.5 -91.5s43.833 -34.5 74.5 -34.5c30 0 54.667 11.5 74 34.5s29 53.5 29 91.5s-9.66699 68.5 -29 91.5s-44 34.5 -74 34.5
c-30.667 0 -55.5 -11.5 -74.5 -34.5s-28.5 -53.5 -28.5 -91.5zM122 719h152l112 -172h-128z" />
    <glyph glyph-name="oacute" unicode="&#xf3;" horiz-adv-x="601" 
d="M31 250c0 38.667 6.66699 74 20 106s32 59.5 56 82.5s52.5 41 85.5 54s69.167 19.5 108.5 19.5s75.5 -6.5 108.5 -19.5s61.333 -31 85 -54s42.167 -50.5 55.5 -82.5s20 -67.333 20 -106c0 -38 -6.66699 -73.167 -20 -105.5s-31.833 -60 -55.5 -83s-52 -41 -85 -54
s-69.167 -19.5 -108.5 -19.5s-75.5 6.5 -108.5 19.5s-61.5 31 -85.5 54s-42.667 50.667 -56 83s-20 67.5 -20 105.5zM198 250c0 -38 9.5 -68.5 28.5 -91.5s43.833 -34.5 74.5 -34.5c30 0 54.667 11.5 74 34.5s29 53.5 29 91.5s-9.66699 68.5 -29 91.5s-44 34.5 -74 34.5
c-30.667 0 -55.5 -11.5 -74.5 -34.5s-28.5 -53.5 -28.5 -91.5zM328 719h152l-136 -172h-128z" />
    <glyph glyph-name="ocircumflex" unicode="&#xf4;" horiz-adv-x="601" 
d="M31 250c0 38.667 6.66699 74 20 106s32 59.5 56 82.5s52.5 41 85.5 54s69.167 19.5 108.5 19.5s75.5 -6.5 108.5 -19.5s61.333 -31 85 -54s42.167 -50.5 55.5 -82.5s20 -67.333 20 -106c0 -38 -6.66699 -73.167 -20 -105.5s-31.833 -60 -55.5 -83s-52 -41 -85 -54
s-69.167 -19.5 -108.5 -19.5s-75.5 6.5 -108.5 19.5s-61.5 31 -85.5 54s-42.667 50.667 -56 83s-20 67.5 -20 105.5zM198 250c0 -38 9.5 -68.5 28.5 -91.5s43.833 -34.5 74.5 -34.5c30 0 54.667 11.5 74 34.5s29 53.5 29 91.5s-9.66699 68.5 -29 91.5s-44 34.5 -74 34.5
c-30.667 0 -55.5 -11.5 -74.5 -34.5s-28.5 -53.5 -28.5 -91.5zM228 719h146l114 -172h-120l-67 87l-66 -87h-121z" />
    <glyph glyph-name="otilde" unicode="&#xf5;" horiz-adv-x="601" 
d="M31 250c0 38.667 6.66699 74 20 106s32 59.5 56 82.5s52.5 41 85.5 54s69.167 19.5 108.5 19.5s75.5 -6.5 108.5 -19.5s61.333 -31 85 -54s42.167 -50.5 55.5 -82.5s20 -67.333 20 -106c0 -38 -6.66699 -73.167 -20 -105.5s-31.833 -60 -55.5 -83s-52 -41 -85 -54
s-69.167 -19.5 -108.5 -19.5s-75.5 6.5 -108.5 19.5s-61.5 31 -85.5 54s-42.667 50.667 -56 83s-20 67.5 -20 105.5zM198 250c0 -38 9.5 -68.5 28.5 -91.5s43.833 -34.5 74.5 -34.5c30 0 54.667 11.5 74 34.5s29 53.5 29 91.5s-9.66699 68.5 -29 91.5s-44 34.5 -74 34.5
c-30.667 0 -55.5 -11.5 -74.5 -34.5s-28.5 -53.5 -28.5 -91.5zM114 568c0 20.667 2.83594 39.834 8.50293 57.501s13.667 33 24 46s22.666 23 36.999 30s30.166 10.5 47.499 10.5c15.333 0 29.166 -2.83301 41.499 -8.5s23.5 -12 33.5 -19l27.5 -19
c8.33301 -5.66699 16.5 -8.5 24.5 -8.5c11.333 0 20.333 4 27 12s10 18.333 10 31h93c0 -42.667 -10.833 -77.334 -32.5 -104.001s-49.5 -40 -83.5 -40c-16 0 -30.167 2.83301 -42.5 8.5s-23.5 12 -33.5 19l-27.5 19c-8.33301 5.66699 -16.5 8.5 -24.5 8.5
c-11.333 0 -20.333 -4 -27 -12s-10 -18.333 -10 -31h-93z" />
    <glyph glyph-name="odieresis" unicode="&#xf6;" horiz-adv-x="601" 
d="M31 250c0 38.667 6.66699 74 20 106s32 59.5 56 82.5s52.5 41 85.5 54s69.167 19.5 108.5 19.5s75.5 -6.5 108.5 -19.5s61.333 -31 85 -54s42.167 -50.5 55.5 -82.5s20 -67.333 20 -106c0 -38 -6.66699 -73.167 -20 -105.5s-31.833 -60 -55.5 -83s-52 -41 -85 -54
s-69.167 -19.5 -108.5 -19.5s-75.5 6.5 -108.5 19.5s-61.5 31 -85.5 54s-42.667 50.667 -56 83s-20 67.5 -20 105.5zM198 250c0 -38 9.5 -68.5 28.5 -91.5s43.833 -34.5 74.5 -34.5c30 0 54.667 11.5 74 34.5s29 53.5 29 91.5s-9.66699 68.5 -29 91.5s-44 34.5 -74 34.5
c-30.667 0 -55.5 -11.5 -74.5 -34.5s-28.5 -53.5 -28.5 -91.5zM326 633c0 25.333 7.83301 46 23.5 62s36.167 24 61.5 24c24.667 0 45 -8 61 -24s24 -36.667 24 -62c0 -24.667 -8 -45 -24 -61s-36.333 -24 -61 -24c-25.333 0 -45.833 8 -61.5 24s-23.5 36.333 -23.5 61z
M107 633c0 25.333 7.83301 46 23.5 62s36.167 24 61.5 24s45.833 -8 61.5 -24s23.5 -36.667 23.5 -62c0 -24.667 -7.83301 -45 -23.5 -61s-36.167 -24 -61.5 -24s-45.833 8 -61.5 24s-23.5 36.333 -23.5 61z" />
    <glyph glyph-name="divide" unicode="&#xf7;" horiz-adv-x="563" 
d="M197 94c0 25.333 7.83301 45.833 23.5 61.5s36.167 23.5 61.5 23.5s45.833 -7.83301 61.5 -23.5s23.5 -36.167 23.5 -61.5s-7.83301 -45.833 -23.5 -61.5s-36.167 -23.5 -61.5 -23.5s-45.833 7.83301 -61.5 23.5s-23.5 36.167 -23.5 61.5zM31 351h501v-139h-501v139z
M197 469c0 25.333 7.83301 45.833 23.5 61.5s36.167 23.5 61.5 23.5s45.833 -7.83301 61.5 -23.5s23.5 -36.167 23.5 -61.5s-7.83301 -45.833 -23.5 -61.5s-36.167 -23.5 -61.5 -23.5s-45.833 7.83301 -61.5 23.5s-23.5 36.167 -23.5 61.5z" />
    <glyph glyph-name="oslash" unicode="&#xf8;" horiz-adv-x="601" 
d="M31 250c0 38.667 6.66797 74.001 20.001 106.001s32 59.5 56 82.5s52.5 41 85.5 54s69.167 19.5 108.5 19.5c24.667 0 47.834 -2.5 69.501 -7.5s42.167 -12.167 61.5 -21.5l13 17h87l-43 -56c25.333 -23.333 45.166 -51.5 59.499 -84.5s21.5 -69.5 21.5 -109.5
c0 -38 -6.66699 -73.167 -20 -105.5s-31.833 -60 -55.5 -83s-52 -41 -85 -54s-69.167 -19.5 -108.5 -19.5c-24.667 0 -47.834 2.66699 -69.501 8s-41.834 12.666 -60.501 21.999l-15 -18h-87l43 57c-25.333 23.333 -45.166 51.333 -59.499 84s-21.5 69 -21.5 109z
M191.001 250.001c0 -13.333 1 -25.833 3 -37.5s5.66699 -22.167 11 -31.5l143 190c-15.333 6 -31 9 -47 9c-33.333 0 -60 -12 -80 -36s-30 -55.333 -30 -94zM412.001 250.001c0 25.333 -5.33301 48.667 -16 70l-141 -190c6.66699 -3.33301 13.667 -5.83301 21 -7.5
s15.666 -2.5 24.999 -2.5c32.667 0 59.334 12 80.001 36s31 55.333 31 94z" />
    <glyph glyph-name="ugrave" unicode="&#xf9;" horiz-adv-x="601" 
d="M539 0l-163 0.00195312v35c-44.667 -31.333 -90.334 -47 -137.001 -47c-26.667 0 -51 4.5 -73 13.5s-41 21.667 -57 38s-28.333 35.666 -37 57.999s-13 47.166 -13 74.499v328h163v-298c0 -20 6.33301 -36.667 19 -50s29.334 -20 50.001 -20c28.667 0 57 13 85 39v329
h163v-500zM120 719.002h152l112 -172h-128z" />
    <glyph glyph-name="uacute" unicode="&#xfa;" horiz-adv-x="601" 
d="M539 0l-163 0.00195312v35c-44.667 -31.333 -90.334 -47 -137.001 -47c-26.667 0 -51 4.5 -73 13.5s-41 21.667 -57 38s-28.333 35.666 -37 57.999s-13 47.166 -13 74.499v328h163v-298c0 -20 6.33301 -36.667 19 -50s29.334 -20 50.001 -20c28.667 0 57 13 85 39v329
h163v-500zM326 719.002h152l-136 -172h-128z" />
    <glyph glyph-name="ucircumflex" unicode="&#xfb;" horiz-adv-x="601" 
d="M539 0l-163 0.00195312v35c-44.667 -31.333 -90.334 -47 -137.001 -47c-26.667 0 -51 4.5 -73 13.5s-41 21.667 -57 38s-28.333 35.666 -37 57.999s-13 47.166 -13 74.499v328h163v-298c0 -20 6.33301 -36.667 19 -50s29.334 -20 50.001 -20c28.667 0 57 13 85 39v329
h163v-500zM226 719.002h146l114 -172h-120l-67 87l-66 -87h-121z" />
    <glyph glyph-name="udieresis" unicode="&#xfc;" horiz-adv-x="601" 
d="M539 0l-163 0.00195312v35c-44.667 -31.333 -90.334 -47 -137.001 -47c-26.667 0 -51 4.5 -73 13.5s-41 21.667 -57 38s-28.333 35.666 -37 57.999s-13 47.166 -13 74.499v328h163v-298c0 -20 6.33301 -36.667 19 -50s29.334 -20 50.001 -20c28.667 0 57 13 85 39v329
h163v-500zM324 633.002c0 25.333 7.83301 46 23.5 62s36.167 24 61.5 24c24.667 0 45 -8 61 -24s24 -36.667 24 -62c0 -24.667 -8 -45 -24 -61s-36.333 -24 -61 -24c-25.333 0 -45.833 8 -61.5 24s-23.5 36.333 -23.5 61zM105 633.002c0 25.333 7.83301 46 23.5 62
s36.167 24 61.5 24s45.833 -8 61.5 -24s23.5 -36.667 23.5 -62c0 -24.667 -7.83301 -45 -23.5 -61s-36.167 -24 -61.5 -24s-45.833 8 -61.5 24s-23.5 36.333 -23.5 61z" />
    <glyph glyph-name="yacute" unicode="&#xfd;" horiz-adv-x="531" 
d="M249 -219h-159l98 241l-188 478h167l99 -283l99 283h166zM293 719h152l-136 -172h-128z" />
    <glyph glyph-name="thorn" unicode="&#xfe;" horiz-adv-x="601" 
d="M404 250c0 36.667 -9.16699 66.167 -27.5 88.5s-42.166 33.5 -71.499 33.5s-55.666 -11.667 -78.999 -35v-174c23.333 -23.333 49.666 -35 78.999 -35s53.166 11.333 71.499 34s27.5 52 27.5 88zM63 719h163v-246c38 26 77 39 117 39c33.333 0 64 -6.5 92 -19.5
s52 -31 72 -54s35.5 -50.5 46.5 -82.5s16.5 -67.333 16.5 -106s-5.5 -74 -16.5 -106s-26.5 -59.5 -46.5 -82.5s-44 -41 -72 -54s-58.667 -19.5 -92 -19.5c-40 0 -79 13 -117 39v-246h-163v938z" />
    <glyph glyph-name="ydieresis" unicode="&#xff;" horiz-adv-x="531" 
d="M249 -219h-159l98 241l-188 478h167l99 -283l99 283h166zM291 633c0 25.333 7.83301 46 23.5 62s36.167 24 61.5 24c24.667 0 45 -8 61 -24s24 -36.667 24 -62c0 -24.667 -8 -45 -24 -61s-36.333 -24 -61 -24c-25.333 0 -45.833 8 -61.5 24s-23.5 36.333 -23.5 61z
M72 633c0 25.333 7.83301 46 23.5 62s36.167 24 61.5 24s45.833 -8 61.5 -24s23.5 -36.667 23.5 -62c0 -24.667 -7.83301 -45 -23.5 -61s-36.167 -24 -61.5 -24s-45.833 8 -61.5 24s-23.5 36.333 -23.5 61z" />
    <glyph glyph-name="dotlessi" unicode="&#x131;" horiz-adv-x="288" 
d="M63 500h163v-500h-163v500z" />
    <glyph glyph-name="OE" unicode="&#x152;" horiz-adv-x="954" 
d="M899 552l-267 0.00195312v-137h228v-131h-228v-148h275v-136h-528c-50 0 -95.833 8.5 -137.5 25.5s-77.5 40.667 -107.5 71s-53.333 66.666 -70 108.999s-25 88.5 -25 138.5s8.33301 96.167 25 138.5s40 78.666 70 108.999s65.833 54 107.5 71s87.5 25.5 137.5 25.5h520
v-136zM466 552.002l-79.001 0.000976562c-26 0 -50 -5 -72 -15s-40.667 -24.167 -56 -42.5s-27.333 -40.333 -36 -66s-13 -53.834 -13 -84.501c0 -30 4.5 -57.667 13.5 -83s21.333 -47.333 37 -66s34.334 -33.167 56.001 -43.5s45.167 -15.5 70.5 -15.5h79v416z" />
    <glyph glyph-name="oe" unicode="&#x153;" horiz-adv-x="915" 
d="M31 250c0 38.667 6.66992 74.001 20.0029 106.001s32 59.5 56 82.5s52.5 41 85.5 54s69.167 19.5 108.5 19.5c36 0 69.5 -5.5 100.5 -16.5s58.167 -26.5 81.5 -46.5c22 20 48 35.5 78 46.5s62 16.5 96 16.5s65.167 -6.16699 93.5 -18.5s52.666 -29.833 72.999 -52.5
s36.166 -49.5 47.499 -80.5s17 -65.167 17 -102.5c0 -8 -0.166992 -16.5 -0.5 -25.5s-0.833008 -18.5 -1.5 -28.5h-328c5.33301 -28 20.166 -50.333 44.499 -67s54.166 -25 89.499 -25c23.333 0 47.833 4 73.5 12s52.167 19.667 79.5 35v-132c-62 -26 -122 -39 -180 -39
c-38 0 -72.167 6 -102.5 18s-56.166 28 -77.499 48c-23.333 -20.667 -50.833 -36.834 -82.5 -48.501s-65.5 -17.5 -101.5 -17.5c-40 0 -76.5 6.5 -109.5 19.5s-61.333 31 -85 54s-42.167 50.667 -55.5 83s-20 67.5 -20 105.5zM198.003 250.001c0 -38 9.5 -68.5 28.5 -91.5
s43.833 -34.5 74.5 -34.5c30 0 54.667 11.5 74 34.5s29 53.5 29 91.5s-9.66699 68.5 -29 91.5s-44 34.5 -74 34.5c-30.667 0 -55.5 -11.5 -74.5 -34.5s-28.5 -53.5 -28.5 -91.5zM732.003 305.001c-2.66699 24.667 -11.333 44.667 -26 60s-33.667 23 -57 23
s-43.5 -7.5 -60.5 -22.5s-27.167 -35.167 -30.5 -60.5h174z" />
    <glyph glyph-name="Scaron" unicode="&#x160;" horiz-adv-x="567" 
d="M59 181c32 -20.667 64.5 -35.998 97.5 -45.998s65.5 -15 97.5 -15s57.833 7.33301 77.5 22s29.5 33.667 29.5 57c0 19.333 -7.83301 34.5 -23.5 45.5s-35.334 20.833 -59.001 29.5s-49.167 17.5 -76.5 26.5s-52.833 21 -76.5 36s-43.334 34.833 -59.001 59.5
s-23.5 57 -23.5 97c0 30.667 6.33301 58.667 19 84s30.334 47.166 53.001 65.499s49.834 32.5 81.501 42.5s66.5 15 104.5 15c32 0 63.833 -3 95.5 -9s63.5 -15.333 95.5 -28v-146c-30 17.333 -60 30.166 -90 38.499s-59.667 12.5 -89 12.5
c-30.667 0 -55.5 -6.66699 -74.5 -20s-28.5 -31 -28.5 -53c0 -18.667 7.83301 -33.334 23.5 -44.001s35.167 -20.167 58.5 -28.5s48.833 -17 76.5 -26s53.167 -21.167 76.5 -36.5s42.833 -35.5 58.5 -60.5s23.5 -57.833 23.5 -98.5c0 -31.333 -6.5 -60.166 -19.5 -86.499
s-31 -48.833 -54 -67.5s-50.5 -33.167 -82.5 -43.5s-67 -15.5 -105 -15.5c-70 0 -139 15 -207 45v148zM356 735.002h-146l-114 172h121l66 -86l67 86h120z" />
    <glyph glyph-name="scaron" unicode="&#x161;" horiz-adv-x="446" 
d="M47 161c50 -30 99.665 -44.998 148.998 -44.998c16.667 0 30 3.16699 40 9.5s15 15.166 15 26.499c0 10 -5.33301 17.833 -16 23.5s-24 10.834 -40 15.501s-33.333 10.167 -52 16.5s-36 15.166 -52 26.499s-29.333 26.166 -40 44.499s-16 42.166 -16 71.499
c0 24 5 46 15 66s24 37 42 51s39.5 25 64.5 33s52.5 12 82.5 12c49.333 0 98.333 -9.66699 147 -29v-138c-45.333 26 -90.666 39 -135.999 39c-15.333 0 -27.833 -3 -37.5 -9s-14.5 -13.667 -14.5 -23s5.33301 -16.5 16 -21.5s24 -9.83301 40 -14.5
s33.167 -10.167 51.5 -16.5s35.5 -15.166 51.5 -26.499s29.333 -26.5 40 -45.5s16 -43.5 16 -73.5c0 -24.667 -5 -47.167 -15 -67.5s-24 -37.833 -42 -52.5s-39.667 -26 -65 -34s-53.333 -12 -84 -12c-51.333 0 -104.666 11.333 -159.999 34v139zM295.998 547.002h-146
l-114 172h121l66 -86l67 86h120z" />
    <glyph glyph-name="Ydieresis" unicode="&#x178;" horiz-adv-x="640" 
d="M237 282l-245 406h191l138 -251l137 251h190l-244 -406v-282h-167v282zM346 821c0 25.333 7.83301 46 23.5 62s36.167 24 61.5 24c24.667 0 45 -8 61 -24s24 -36.667 24 -62c0 -24.667 -8 -45 -24 -61s-36.333 -24 -61 -24c-25.333 0 -45.833 8 -61.5 24
s-23.5 36.333 -23.5 61zM127 821c0 25.333 7.83301 46 23.5 62s36.167 24 61.5 24s45.833 -8 61.5 -24s23.5 -36.667 23.5 -62c0 -24.667 -7.83301 -45 -23.5 -61s-36.167 -24 -61.5 -24s-45.833 8 -61.5 24s-23.5 36.333 -23.5 61z" />
    <glyph glyph-name="Zcaron" unicode="&#x17d;" horiz-adv-x="641" 
d="M37 97l336 455h-318v136h530v-97l-337 -455h345v-136h-556v97zM394 735h-146l-114 172h121l66 -86l67 86h120z" />
    <glyph glyph-name="zcaron" unicode="&#x17e;" horiz-adv-x="500" 
d="M35 93l205 276h-193v131h403v-92l-206 -276h212v-132h-421v93zM323 547h-146l-114 172h121l66 -86l67 86h120z" />
    <glyph glyph-name="florin" unicode="&#x192;" horiz-adv-x="563" 
d="M102 454l89 -0.000976562v75c0 25.333 4.5 48.5 13.5 69.5s21.5 39 37.5 54s35 26.667 57 35s46 12.5 72 12.5c36.667 0 72 -5.33301 106 -16v-139c-20 10 -39.667 15 -59 15c-18 0 -32.667 -5.5 -44 -16.5s-17 -25.167 -17 -42.5v-47h104v-132h-104v-288
c0 -25.333 -4.5 -48.333 -13.5 -69s-21.5 -38.667 -37.5 -54s-35.167 -27.166 -57.5 -35.499s-46.5 -12.5 -72.5 -12.5c-17.333 0 -35 1.33301 -53 4s-35.667 6.66699 -53 12v140c19.333 -10.667 39 -16 59 -16c18 0 32.833 5.5 44.5 16.5s17.5 25.167 17.5 42.5v260h-89
v132z" />
    <glyph glyph-name="circumflex" unicode="&#x2c6;" 
d="M52 719h146l114 -172h-120l-67 87l-66 -87h-121z" />
    <glyph glyph-name="caron" unicode="&#x2c7;" 
d="M198 547h-146l-114 172h121l66 -86l67 86h120z" />
    <glyph glyph-name="ring" unicode="&#x2da;" 
d="M12 633c0 34 10.5 61.5 31.5 82.5s48.167 31.5 81.5 31.5c34 0 61.5 -10.5 82.5 -31.5s31.5 -48.5 31.5 -82.5c0 -33.333 -10.5 -60.333 -31.5 -81s-48.5 -31 -82.5 -31c-33.333 0 -60.5 10.333 -81.5 31s-31.5 47.667 -31.5 81zM78 633c0 -13.333 4.5 -24.333 13.5 -33
s20.167 -13 33.5 -13s24.5 4.33301 33.5 13s13.5 19.667 13.5 33c0 14 -4.5 25.333 -13.5 34s-20.167 13 -33.5 13s-24.5 -4.33301 -33.5 -13s-13.5 -20 -13.5 -34z" />
    <glyph glyph-name="tilde" unicode="&#x2dc;" 
d="M-62 568c0 20.667 2.83594 39.834 8.50293 57.501s13.667 33 24 46s22.666 23 36.999 30s30.166 10.5 47.499 10.5c15.333 0 29.166 -2.83301 41.499 -8.5s23.5 -12 33.5 -19l27.5 -19c8.33301 -5.66699 16.5 -8.5 24.5 -8.5c11.333 0 20.333 4 27 12s10 18.333 10 31h93
c0 -42.667 -10.833 -77.334 -32.5 -104.001s-49.5 -40 -83.5 -40c-16 0 -30.167 2.83301 -42.5 8.5s-23.5 12 -33.5 19l-27.5 19c-8.33301 5.66699 -16.5 8.5 -24.5 8.5c-11.333 0 -20.333 -4 -27 -12s-10 -18.333 -10 -31h-93z" />
    <glyph glyph-name="endash" unicode="&#x2013;" horiz-adv-x="500" 
d="M23 320h454v-131h-454v131z" />
    <glyph glyph-name="emdash" unicode="&#x2014;" horiz-adv-x="1000" 
d="M23 320h954v-131h-954v131z" />
    <glyph glyph-name="quoteleft" unicode="&#x2018;" 
d="M155 423h-154l112 265h136z" />
    <glyph glyph-name="quoteright" unicode="&#x2019;" 
d="M95 688h154l-112 -265h-136z" />
    <glyph glyph-name="quotesinglbase" unicode="&#x201a;" 
d="M56 140h154l-112 -265h-136z" />
    <glyph glyph-name="quotedblleft" unicode="&#x201c;" horiz-adv-x="453" 
d="M359 423h-156l114 265h136zM155 423h-154l112 265h136z" />
    <glyph glyph-name="quotedblright" unicode="&#x201d;" horiz-adv-x="453" 
d="M95 688h154l-112 -265h-136zM297 688h156l-114 -265h-136z" />
    <glyph glyph-name="quotedblbase" unicode="&#x201e;" horiz-adv-x="453" 
d="M258 140h155l-113 -265h-136zM56 140h154l-112 -265h-136z" />
    <glyph glyph-name="dagger" unicode="&#x2020;" horiz-adv-x="469" 
d="M164 400h-148v140h148v148h140v-148h149v-140h-149v-400h-140v400z" />
    <glyph glyph-name="daggerdbl" unicode="&#x2021;" horiz-adv-x="469" 
d="M164 149h-148v139h148v112h-148v140h148v148h140v-148h149v-140h-149v-112h149v-139h-149v-149h-140v149z" />
    <glyph glyph-name="bullet" unicode="&#x2022;" horiz-adv-x="500" 
d="M109 344c0 19.333 3.66699 37.666 11 54.999s17.5 32.333 30.5 45s28 22.667 45 30s35.167 11 54.5 11s37.666 -3.66699 54.999 -11s32.333 -17.333 45 -30s22.667 -27.667 30 -45s11 -35.666 11 -54.999s-3.66699 -37.666 -11 -54.999s-17.333 -32.333 -30 -45
s-27.667 -22.667 -45 -30s-35.666 -11 -54.999 -11s-37.5 3.66699 -54.5 11s-32 17.333 -45 30s-23.167 27.667 -30.5 45s-11 35.666 -11 54.999z" />
    <glyph glyph-name="ellipsis" unicode="&#x2026;" horiz-adv-x="1001" 
d="M408 81c0 28 8.5 50.667 25.5 68s39.167 26 66.5 26c28 0 50.5 -8.66699 67.5 -26s25.5 -40 25.5 -68c0 -27.333 -8.5 -49.666 -25.5 -66.999s-39.5 -26 -67.5 -26c-27.333 0 -49.5 8.66699 -66.5 26s-25.5 39.666 -25.5 66.999zM74 81c0 28 8.5 50.667 25.5 68
s39.5 26 67.5 26c27.333 0 49.666 -8.66699 66.999 -26s26 -40 26 -68c0 -27.333 -8.66699 -49.666 -26 -66.999s-39.666 -26 -66.999 -26c-28 0 -50.5 8.66699 -67.5 26s-25.5 39.666 -25.5 66.999zM741 81c0 28 8.66699 50.667 26 68s39.666 26 66.999 26
c28 0 50.5 -8.66699 67.5 -26s25.5 -40 25.5 -68c0 -27.333 -8.5 -49.666 -25.5 -66.999s-39.5 -26 -67.5 -26c-27.333 0 -49.666 8.66699 -66.999 26s-26 39.666 -26 66.999z" />
    <glyph glyph-name="perthousand" unicode="&#x2030;" horiz-adv-x="1220" 
d="M841 172c0 26.667 4.33301 51.334 13 74.001s20.667 42.167 36 58.5s33.666 29 54.999 38s44.666 13.5 69.999 13.5s48.666 -4.5 69.999 -13.5s39.666 -21.667 54.999 -38s27.333 -35.833 36 -58.5s13 -47.334 13 -74.001s-4.33301 -51.334 -13 -74.001
s-20.667 -42.167 -36 -58.5s-33.666 -29 -54.999 -38s-44.666 -13.5 -69.999 -13.5s-48.666 4.5 -69.999 13.5s-39.666 21.667 -54.999 38s-27.333 35.833 -36 58.5s-13 47.334 -13 74.001zM949 172c0 -28 6 -50.833 18 -68.5s28 -26.5 48 -26.5
c19.333 0 34.833 8.83301 46.5 26.5s17.5 40.5 17.5 68.5s-5.83301 50.833 -17.5 68.5s-27.167 26.5 -46.5 26.5c-20 0 -36 -8.83301 -48 -26.5s-18 -40.5 -18 -68.5zM465 172c0 26.667 4.33301 51.334 13 74.001s20.667 42.167 36 58.5s33.666 29 54.999 38
s44.666 13.5 69.999 13.5s48.666 -4.5 69.999 -13.5s39.666 -21.667 54.999 -38s27.333 -35.833 36 -58.5s13 -47.334 13 -74.001s-4.33301 -51.334 -13 -74.001s-20.667 -42.167 -36 -58.5s-33.666 -29 -54.999 -38s-44.666 -13.5 -69.999 -13.5s-48.666 4.5 -69.999 13.5
s-39.666 21.667 -54.999 38s-27.333 35.833 -36 58.5s-13 47.334 -13 74.001zM574 172c0 -28 6 -50.833 18 -68.5s27.667 -26.5 47 -26.5s35.166 8.83301 47.499 26.5s18.5 40.5 18.5 68.5s-6.16699 50.833 -18.5 68.5s-28.166 26.5 -47.499 26.5s-35 -8.83301 -47 -26.5
s-18 -40.5 -18 -68.5zM31 516c0 26.667 4.33301 51.334 13 74.001s20.667 42.167 36 58.5s33.666 29 54.999 38s44.666 13.5 69.999 13.5s48.666 -4.5 69.999 -13.5s39.666 -21.667 54.999 -38s27.333 -35.833 36 -58.5s13 -47.334 13 -74.001s-4.33301 -51.334 -13 -74.001
s-20.667 -42.167 -36 -58.5s-33.666 -29 -54.999 -38s-44.666 -13.5 -69.999 -13.5s-48.666 4.5 -69.999 13.5s-39.666 21.667 -54.999 38s-27.333 35.833 -36 58.5s-13 47.334 -13 74.001zM140 516c0 -28 6 -50.833 18 -68.5s27.667 -26.5 47 -26.5
s35.166 8.83301 47.499 26.5s18.5 40.5 18.5 68.5s-6.16699 50.833 -18.5 68.5s-28.166 26.5 -47.499 26.5s-35 -8.83301 -47 -26.5s-18 -40.5 -18 -68.5zM622 688h117l-516 -688h-117z" />
    <glyph glyph-name="guilsinglleft" unicode="&#x2039;" horiz-adv-x="437" 
d="M218 250l188 -219h-171l-204 219l204 219h171z" />
    <glyph glyph-name="guilsinglright" unicode="&#x203a;" horiz-adv-x="437" 
d="M219 250l-188 219h171l204 -219l-204 -219h-171z" />
    <glyph glyph-name="Euro" unicode="&#x20ac;" horiz-adv-x="563" 
d="M8 321l48 -0.00195312v23v24h-48v108h66c10.667 34 25.5 64.833 44.5 92.5s41.333 51.334 67 71.001s54 34.667 85 45s64.5 15.5 100.5 15.5c28 0 55.5 -2.66699 82.5 -8s53.167 -14.333 78.5 -27v-142c-42.667 27.333 -85.667 41 -129 41
c-33.333 0 -62.833 -7.66699 -88.5 -23s-46.5 -37 -62.5 -65h193v-108h-227v-24v-23h227v-109h-193c16 -28 36.833 -49.667 62.5 -65s55.167 -23 88.5 -23c43.333 0 86.333 13.667 129 41v-142c-25.333 -12 -51.5 -20.833 -78.5 -26.5s-54.5 -8.5 -82.5 -8.5
c-36 0 -69.5 5.16699 -100.5 15.5s-59.333 25.333 -85 45s-48 43.334 -67 71.001s-33.833 58.5 -44.5 92.5h-66v109z" />
    <glyph glyph-name="trademark" unicode="&#x2122;" horiz-adv-x="902" 
d="M130 593h-111v95h340v-95h-113v-311h-116v311zM428 688h99l113 -151l112 151h99v-406h-107v222l-70 -93h-68l-70 93v-222h-108v406z" />
    <glyph glyph-name="uniE800" unicode="&#xe800;" 
d="M-54 907h152l112 -172h-128z" />
    <glyph glyph-name="uniE801" unicode="&#xe801;" 
d="M152 907h152l-136 -172h-128z" />
    <glyph glyph-name="uniE802" unicode="&#xe802;" 
d="M52 907h146l114 -172h-120l-67 87l-66 -87h-121z" />
    <glyph glyph-name="uniE803" unicode="&#xe803;" 
d="M198 735h-146l-114 172h121l66 -86l67 86h120z" />
    <glyph glyph-name="uniE804" unicode="&#xe804;" 
d="M-62 756c0 20.667 2.83594 39.834 8.50293 57.501s13.667 33 24 46s22.666 23 36.999 30s30.166 10.5 47.499 10.5c15.333 0 29.166 -2.83301 41.499 -8.5s23.5 -12 33.5 -19l27.5 -19c8.33301 -5.66699 16.5 -8.5 24.5 -8.5c11.333 0 20.333 4 27 12s10 18.333 10 31h93
c0 -42.667 -10.833 -77.334 -32.5 -104.001s-49.5 -40 -83.5 -40c-16 0 -30.167 2.83301 -42.5 8.5s-23.5 12 -33.5 19l-27.5 19c-8.33301 5.66699 -16.5 8.5 -24.5 8.5c-11.333 0 -20.333 -4 -27 -12s-10 -18.333 -10 -31h-93z" />
    <glyph glyph-name="uniE805" unicode="&#xe805;" 
d="M150 821c0 25.333 7.83301 46 23.5 62s36.167 24 61.5 24c24.667 0 45 -8 61 -24s24 -36.667 24 -62c0 -24.667 -8 -45 -24 -61s-36.333 -24 -61 -24c-25.333 0 -45.833 8 -61.5 24s-23.5 36.333 -23.5 61zM-69 821c0 25.333 7.83301 46 23.5 62s36.167 24 61.5 24
s45.833 -8 61.5 -24s23.5 -36.667 23.5 -62c0 -24.667 -7.83301 -45 -23.5 -61s-36.167 -24 -61.5 -24s-45.833 8 -61.5 24s-23.5 36.333 -23.5 61z" />
    <glyph glyph-name="uniE808" unicode="&#xe808;" 
d="M12 821c0 34 10.5 61.5 31.5 82.5s48.167 31.5 81.5 31.5c34 0 61.5 -10.5 82.5 -31.5s31.5 -48.5 31.5 -82.5c0 -33.333 -10.5 -60.333 -31.5 -81s-48.5 -31 -82.5 -31c-33.333 0 -60.5 10.333 -81.5 31s-31.5 47.667 -31.5 81zM78 821c0 -13.333 4.5 -24.333 13.5 -33
s20.167 -13 33.5 -13s24.5 4.33301 33.5 13s13.5 19.667 13.5 33c0 14 -4.5 25.333 -13.5 34s-20.167 13 -33.5 13s-24.5 -4.33301 -33.5 -13s-13.5 -20 -13.5 -34z" />
    </font>
</defs>
</svg>
