<?xml version="1.0" encoding="utf-8"?>
<!-- Generator: Adobe Illustrator 16.0.0, SVG Export Plug-In . SVG Version: 6.00 Build 0)  -->
<!DOCTYPE svg PUBLIC "-//W3C//DTD SVG 1.1//EN" "http://www.w3.org/Graphics/SVG/1.1/DTD/svg11.dtd">
<svg version="1.1" id="Calque_1" xmlns="http://www.w3.org/2000/svg" xmlns:xlink="http://www.w3.org/1999/xlink" x="0px" y="0px"
	 width="52px" height="49px" viewBox="0 0 52 49" enable-background="new 0 0 52 49" xml:space="preserve">
<g>
	<g>
		<g>
			<g>
				<path fill="#B1B0B1" d="M47.307,7.285H36.998l-2.979-1.604c-0.229-0.229-0.457-0.229-0.687-0.229h-7.331l0,0l0,0H18.44
					c-0.228,0-0.458,0-0.458,0.229l-3.207,1.604H4.694c-0.458,0-0.916,0.458-0.916,0.916v28.18c0,0.686,0.458,1.145,0.916,1.145
					h42.611c0.458,0,0.917-0.459,0.917-0.915V8.201C48.224,7.743,47.765,7.285,47.307,7.285z M46.161,35.464H5.611V9.119h9.622
					c0.458,0,0.688-0.229,0.688-0.458l2.75-1.603h6.873l0,0l0,0h6.873l3.436,1.603c0.23,0.229,0.459,0.458,0.688,0.458h9.851
					L46.161,35.464L46.161,35.464z"/>
			</g>
		</g>
	</g>
	<g>
		<path fill="#B1B0B1" d="M26.001,31.57c-5.27,0-9.394-4.354-9.394-9.393c0-5.04,4.353-9.393,9.394-9.393
			c5.04,0,9.394,4.353,9.394,9.393C35.395,27.217,31.271,31.57,26.001,31.57z M26.001,17.137c-2.749,0-5.041,2.291-5.041,5.04
			s2.292,5.038,5.041,5.038c2.749,0,5.04-2.29,5.04-5.038C31.041,19.428,28.75,17.137,26.001,17.137z"/>
		<circle fill="#FFFFFF" cx="26" cy="22.177" r="7.505"/>
	</g>
	<path fill="#B1B0B1" d="M10.422,15.991h-0.229c-0.916,0-1.375-0.688-1.375-1.375v-0.458c0-0.916,0.688-1.374,1.375-1.374h0.229
		c0.917,0,1.375,0.687,1.375,1.374v0.229C12.025,15.303,11.338,15.991,10.422,15.991z"/>
</g>
</svg>
