<?xml version="1.0" encoding="utf-8"?>
<!-- Generator: Adobe Illustrator 16.0.0, SVG Export Plug-In . SVG Version: 6.00 Build 0)  -->
<!DOCTYPE svg PUBLIC "-//W3C//DTD SVG 1.1//EN" "http://www.w3.org/Graphics/SVG/1.1/DTD/svg11.dtd">
<svg version="1.1" id="Calque_1" xmlns="http://www.w3.org/2000/svg" xmlns:xlink="http://www.w3.org/1999/xlink" x="0px" y="0px"
	 width="52px" height="49px" viewBox="0 0 52 49" enable-background="new 0 0 52 49" xml:space="preserve">
<path fill="#D0D1D0" d="M40.82,5.083L29.516,0.99c-0.192,0-0.39,0-0.584,0L17.823,4.887L6.909,0.99c-0.39,0-0.78,0-0.975,0.195
	c-0.195,0.194-0.39,0.584-0.39,0.779v28.063c0,0.391,0.195,0.779,0.584,0.976l11.304,5.065c0.195,0.195,0.585,0.195,0.779,0
	l10.914-4.871l10.914,4.871c0.195,0,0.195,0,0.391,0c0.194,0,0.391,0,0.584-0.193c0.195-0.195,0.391-0.391,0.391-0.779V6.057
	C41.6,5.667,41.21,5.277,40.82,5.083z M17.433,33.73l-9.939-4.287V3.329l9.939,3.508V33.73z M28.736,29.055l-10.329,4.481v-26.7
	l10.329-3.703V29.055z M39.65,33.536l-9.939-4.287V3.329l9.939,3.508V33.536z"/>
</svg>
