<?xml version="1.0" encoding="utf-8"?>
<!-- Generator: Adobe Illustrator 19.1.0, SVG Export Plug-In . SVG Version: 6.00 Build 0)  -->
<svg version="1.1" id="Calque_1" xmlns="http://www.w3.org/2000/svg" xmlns:xlink="http://www.w3.org/1999/xlink" x="0px" y="0px"
	 viewBox="0 0 21 21" style="enable-background:new 0 0 21 21;" xml:space="preserve">
<g>
	<path d="M8.4,5c-0.3-0.3-0.7-0.3-1,0L5,7.4c-0.3,0.3-0.3,0.7,0,1l7.7,7.7c0.3,0.3,0.7,0.3,1,0l2.4-2.4c0.3-0.3,0.3-0.7,0-1L8.4,5z"
		/>
	<path d="M19.4,1.6c-2-2-5-2.2-7.2-0.4l7.6,7.6C21.6,6.6,21.4,3.6,19.4,1.6z"/>
	<path d="M10.4,5.5l5.2,5.2c1,0.2,2.4-0.3,3.4-1.1l-7.5-7.5C10.6,3.1,10.1,4.5,10.4,5.5z"/>
	<path d="M0.2,18.1c-0.2,0.3-0.2,0.7,0,0.9L2,20.8c0.3,0.3,0.7,0.3,0.9,0l7.1-6.2l-3.6-3.6L0.2,18.1z"/>
</g>
</svg>
