<?xml version="1.0" encoding="utf-8"?>
<!-- Generator: Adobe Illustrator 16.0.0, SVG Export Plug-In . SVG Version: 6.00 Build 0)  -->
<!DOCTYPE svg PUBLIC "-//W3C//DTD SVG 1.1//EN" "http://www.w3.org/Graphics/SVG/1.1/DTD/svg11.dtd">
<svg version="1.1" id="Calque_1" xmlns="http://www.w3.org/2000/svg" xmlns:xlink="http://www.w3.org/1999/xlink" x="0px" y="0px"
	 width="33px" height="23px" viewBox="0 0 33 23" enable-background="new 0 0 33 23" xml:space="preserve">
<g>
	<circle fill="#CAA663" cx="6.361" cy="4.356" r="2.877"/>
	<circle fill="#CAA663" cx="16.5" cy="4.356" r="2.877"/>
	<path fill="#CAA663" d="M31.571,13.125L31.571,13.125L31.571,13.125c-0.411-0.548-0.823-1.097-1.233-1.507l-2.604-3.014
		c-0.547-0.685-1.506-0.685-2.191,0l-3.835,4.384c-0.138,0.138-0.138,0.274-0.138,0.274l0,0c0-0.137-0.138-0.274-0.138-0.411
		l-3.836-4.384c-0.41,0-0.822-0.137-1.096-0.137c-0.411,0-0.685,0.137-0.959,0.548l-3.973,4.248c0,0.137-0.137,0.273-0.137,0.273
		l0,0c0-0.137-0.137-0.273-0.137-0.273L7.32,8.741c-0.548-0.685-1.507-0.685-2.192,0l-2.603,3.014
		c-0.411,0.273-0.822,0.822-1.096,1.37l0,0l0,0c-0.822,1.232-1.37,2.74-1.37,3.836v1.233c0,2.466,2.055,4.658,4.658,4.658H16.5
		h11.783c2.466,0,4.659-2.055,4.659-4.658v-1.233C32.804,15.865,32.393,14.357,31.571,13.125z"/>
	<circle fill="#CAA663" cx="26.501" cy="4.356" r="2.877"/>
</g>
</svg>
