<?xml version="1.0" encoding="utf-8"?>
<!-- Generator: Adobe Illustrator 16.0.0, SVG Export Plug-In . SVG Version: 6.00 Build 0)  -->
<!DOCTYPE svg PUBLIC "-//W3C//DTD SVG 1.1//EN" "http://www.w3.org/Graphics/SVG/1.1/DTD/svg11.dtd">
<svg version="1.1" id="Calque_1" xmlns="http://www.w3.org/2000/svg" xmlns:xlink="http://www.w3.org/1999/xlink" x="0px" y="0px"
	 width="33px" height="23px" viewBox="0 0 33 23" enable-background="new 0 0 33 23" xml:space="preserve">
<path fill="#CAA663" d="M9.724,15.906l6.293-6.294c1.831,0.801,4.12,0.458,5.607-1.03c1.716-1.716,1.944-4.234,0.687-6.293
	l-0.916,2.518L19.68,6.523l-2.632-0.572l0,0l-0.572-2.518l1.717-1.716l2.518-0.916c-1.945-1.258-4.578-1.03-6.294,0.687
	c-1.487,1.488-1.831,3.776-1.03,5.607l-6.293,6.293c-1.831-0.801-4.119-0.459-5.607,1.029c-1.716,1.717-1.945,4.348-0.687,6.293
	l0.916-2.518l1.831-1.83l2.632,0.572l0,0l0.572,2.633l-1.716,1.715l-2.632,0.916c1.945,1.258,4.577,1.029,6.293-0.686
	C10.296,20.025,10.525,17.852,9.724,15.906z"/>
</svg>
