<?xml version="1.0" encoding="utf-8"?>
<!-- Generator: Adobe Illustrator 19.1.0, SVG Export Plug-In . SVG Version: 6.00 Build 0)  -->
<svg version="1.1" id="Calque_1" xmlns="http://www.w3.org/2000/svg" xmlns:xlink="http://www.w3.org/1999/xlink" x="0px" y="0px"
	 viewBox="0 0 19.4 14" style="enable-background:new 0 0 19.4 14;" xml:space="preserve">
<g>
	<g>
		<g>
			<g>
				<path d="M19,0.8h-4.5l-1.3-0.7C13.1,0,13,0,12.9,0H9.7c0,0,0,0,0,0h0H6.4C6.3,0,6.2,0,6.2,0.1L4.8,0.8H0.4C0.2,0.8,0,1,0,1.2
					v12.3C0,13.8,0.2,14,0.4,14H19c0.2,0,0.4-0.2,0.4-0.4V1.2C19.4,1,19.2,0.8,19,0.8z M18.5,13.1H0.8V1.6H5c0.2,0,0.3-0.1,0.3-0.2
					l1.2-0.7h3h0c0,0,0,0,0,0h3L14,1.4c0.1,0.1,0.2,0.2,0.3,0.2h4.3L18.5,13.1L18.5,13.1z"/>
			</g>
		</g>
	</g>
	<g>
		<path d="M9.7,11.4c-2.3,0-4.1-1.9-4.1-4.1s1.9-4.1,4.1-4.1s4.1,1.9,4.1,4.1S12,11.4,9.7,11.4z M9.7,5.1c-1.2,0-2.2,1-2.2,2.2
			s1,2.2,2.2,2.2s2.2-1,2.2-2.2S10.9,5.1,9.7,5.1z"/>
	</g>
	<path d="M2.9,4.6H2.8c-0.4,0-0.6-0.3-0.6-0.6V3.8c0-0.4,0.3-0.6,0.6-0.6h0.1c0.4,0,0.6,0.3,0.6,0.6l0,0.1C3.6,4.3,3.3,4.6,2.9,4.6z
		"/>
</g>
</svg>
