<?xml version="1.0" encoding="utf-8"?>
<!-- Generator: Adobe Illustrator 19.1.0, SVG Export Plug-In . SVG Version: 6.00 Build 0)  -->
<svg version="1.1" id="Calque_1" xmlns="http://www.w3.org/2000/svg" xmlns:xlink="http://www.w3.org/1999/xlink" x="0px" y="0px"
	 viewBox="0 0 26.4 18.4" style="enable-background:new 0 0 26.4 18.4;" xml:space="preserve">
<g>
	<path d="M25.4,4.5L25.4,4.5C25,4.2,24.5,4.1,24,4.1H2.3v0c-0.5,0-1,0.1-1.3,0.3l0,0C0.4,4.8,0,5.3,0,5.9l1.7,10.8
		c0,0.9,1,1.7,2.3,1.7h18.3c1.3,0,2.3-0.8,2.3-1.7l1.7-10.8C26.4,5.3,26,4.8,25.4,4.5z" fill="#b0b0b0" />
	<path d="M24,3.5c0.5,0,1,0.1,1.4,0.3l0-0.1c0-1.1-1-1.9-2.2-1.9h-11c-0.1,0-0.9-0.3-1.7-1.4C10.4,0.2,10,0,9.6,0l0,0H6.2l0,0
		C5.7,0,5.4,0.2,5.1,0.5C4.3,1.5,3.5,1.8,3.4,1.8H3.1c-1.2,0-2.2,0.9-2.2,1.9l0,0.1c0.4-0.2,0.9-0.3,1.4-0.3H24z" fill="#b0b0b0"/>
</g>
</svg>
