<?xml version="1.0" encoding="UTF-8" standalone="no"?>
<!-- Generator: Adobe Illustrator 17.0.0, SVG Export Plug-In . SVG Version: 6.00 Build 0)  -->

<svg
   xmlns:dc="http://purl.org/dc/elements/1.1/"
   xmlns:cc="http://creativecommons.org/ns#"
   xmlns:rdf="http://www.w3.org/1999/02/22-rdf-syntax-ns#"
   xmlns:svg="http://www.w3.org/2000/svg"
   xmlns="http://www.w3.org/2000/svg"
   xmlns:sodipodi="http://sodipodi.sourceforge.net/DTD/sodipodi-0.dtd"
   xmlns:inkscape="http://www.inkscape.org/namespaces/inkscape"
   version="1.1"
   x="0px"
   y="0px"
   width="50px"
   height="39px"
   viewBox="0 0 50 39"
   enable-background="new 0 0 50 39"
   xml:space="preserve"
   id="svg2"
   inkscape:version="0.48.4 r9939"
   sodipodi:docname="Letter.svgz"><metadata
   id="metadata515"><rdf:RDF><cc:Work
       rdf:about=""><dc:format>image/svg+xml</dc:format><dc:type
         rdf:resource="http://purl.org/dc/dcmitype/StillImage" /><dc:title></dc:title></cc:Work></rdf:RDF></metadata><defs
   id="defs513" /><sodipodi:namedview
   pagecolor="#c8a461"
   bordercolor="#666666"
   borderopacity="1"
   objecttolerance="10"
   gridtolerance="10"
   guidetolerance="10"
   inkscape:pageopacity="0"
   inkscape:pageshadow="2"
   inkscape:window-width="640"
   inkscape:window-height="480"
   id="namedview511"
   showgrid="false"
   inkscape:zoom="6.0512821"
   inkscape:cx="25"
   inkscape:cy="19.5"
   inkscape:window-x="0"
   inkscape:window-y="0"
   inkscape:window-maximized="0"
   inkscape:current-layer="svg2" />
<g
   id="Calque_1">
	<rect
   x="-631.667"
   y="-690"
   width="454"
   height="978"
   id="rect5" />
	<g
   id="g7">
		<path
   fill="#C8A461"
   d="M-420.171-523.879c-12.853,0-23.312-10.456-23.312-23.31c0-12.856,10.459-23.311,23.312-23.311    c12.854,0,23.31,10.455,23.31,23.311C-396.861-534.335-407.317-523.879-420.171-523.879z M-420.171-558.494    c-6.234,0-11.307,5.07-11.307,11.305c0,6.232,5.072,11.306,11.307,11.306s11.303-5.074,11.303-11.306    C-408.868-553.424-413.936-558.494-420.171-558.494z"
   id="path9" />
	</g>
	<path
   fill="#c8a461"
   d="M-358.623-544.852c0,6.427-5.216,11.642-11.639,11.642c-6.428,0-11.641-5.215-11.641-11.642   c0-6.428,5.213-11.642,11.641-11.642C-363.839-556.494-358.623-551.28-358.623-544.852z"
   id="path11" />
	<g
   id="g13">
		<polygon
   fill="#C8A461"
   points="-335.363,-537.688 -346.747,-549.076 -343.915,-551.904 -335.363,-543.349 -326.8,-551.904     -323.972,-549.076   "
   id="polygon15" />
	</g>
	<g
   id="g17">
		<polygon
   fill="#C8A461"
   points="-294.903,-541.072 -303.453,-549.63 -312.007,-541.072 -314.84,-543.9 -303.453,-555.287     -292.07,-543.9   "
   id="polygon19" />
	</g>
	<g
   id="g21">
		<g
   id="g23">
			<polygon
   fill="#C8A461"
   points="-299.667,-605 -306.667,-605 -306.667,-609 -304.667,-609 -304.667,-637 -349.667,-637      -349.667,-642 -299.667,-642    "
   id="polygon25" />
		</g>
		<g
   id="g27">
			<g
   id="g29">
				<path
   fill="#C8A461"
   d="M-308.667-595h-51v-37h51V-595z M-354.667-600h42v-27h-42V-600z"
   id="path31" />
			</g>
			<circle
   fill="#C8A461"
   cx="-346.957"
   cy="-620.452"
   r="3.767"
   id="circle33" />
			<polygon
   fill="#C8A461"
   points="-342.772,-603 -315.667,-603 -315.667,-616.411 -321.247,-623.568 -329.162,-614.132      -333.691,-616.812    "
   id="polygon35" />
		</g>
	</g>
	<polygon
   fill="#C8A461"
   points="-399.667,-641.875 -399.667,-595.25 -377.132,-618.562  "
   id="polygon37" />
	<g
   id="g39">
		<g
   id="g41">
			<rect
   x="-262.667"
   y="-642"
   fill="#C8A461"
   width="36"
   height="5"
   id="rect43" />
		</g>
		<g
   id="g45">
			<rect
   x="-223.667"
   y="-642"
   fill="#C8A461"
   width="5"
   height="5"
   id="rect47" />
		</g>
		<g
   id="g49">
			<rect
   x="-254.667"
   y="-628"
   fill="#C8A461"
   width="28"
   height="5"
   id="rect51" />
		</g>
		<g
   id="g53">
			<rect
   x="-223.667"
   y="-628"
   fill="#C8A461"
   width="5"
   height="5"
   id="rect55" />
		</g>
		<g
   id="g57">
			<rect
   x="-267.667"
   y="-614"
   fill="#C8A461"
   width="41"
   height="5"
   id="rect59" />
		</g>
		<g
   id="g61">
			<rect
   x="-223.667"
   y="-614"
   fill="#C8A461"
   width="5"
   height="5"
   id="rect63" />
		</g>
		<g
   id="g65">
			<rect
   x="-267.667"
   y="-600"
   fill="#C8A461"
   width="22"
   height="5"
   id="rect67" />
		</g>
		<polygon
   fill="#C8A461"
   points="-273.667,-642 -273.667,-613.75 -260.012,-627.875   "
   id="polygon69" />
	</g>
	<g
   id="g71">
		<path
   fill="#C8A461"
   d="M-547.667-636v-6h-4v6h-29v-6h-4v6h-4v41h45v-41H-547.667z M-547.667-600h-37v-26h37V-600z"
   id="path73" />
		<g
   id="g75">
			<path
   fill="#C8A461"
   d="M-575.296-617.719h-0.054l-3.354,1.596l-0.677-3.084l4.68-2.164h3.382v17.583h-3.977V-617.719z"
   id="path77" />
			<path
   fill="#C8A461"
   d="M-552.924-621.371v2.597l-7.249,14.986h-4.356l7.249-14.147v-0.054h-8.06v-3.381H-552.924z"
   id="path79" />
		</g>
	</g>
	<g
   id="g81">
		<path
   fill="#c8a461"
   d="M-401.667-112v-6h-4v6h-29v-6h-4v6h-4v41h45v-41H-401.667z M-401.667-76h-37v-26h37V-76z"
   id="path83" />
		<g
   id="g85">
			<path
   fill="#c8a461"
   d="M-429.296-93.719h-0.054l-3.355,1.596l-0.677-3.084l4.68-2.164h3.382v17.583h-3.977V-93.719z"
   id="path87" />
			<path
   fill="#c8a461"
   d="M-406.924-97.371v2.598l-7.249,14.985h-4.355l7.249-14.147v-0.054h-8.06v-3.382H-406.924z"
   id="path89" />
		</g>
	</g>
	<g
   id="g91">
		<g
   id="g93">
			<rect
   x="-477.667"
   y="-642"
   fill="#C8A461"
   width="55"
   height="5"
   id="rect95" />
		</g>
		<g
   id="g97">
			<rect
   x="-477.667"
   y="-628"
   fill="#C8A461"
   width="55"
   height="5"
   id="rect99" />
		</g>
		<g
   id="g101">
			<rect
   x="-477.667"
   y="-614"
   fill="#C8A461"
   width="55"
   height="5"
   id="rect103" />
		</g>
		<g
   id="g105">
			<rect
   x="-477.667"
   y="-600"
   fill="#C8A461"
   width="27"
   height="5"
   id="rect107" />
		</g>
	</g>
	<g
   id="g109">
		<polygon
   fill="#C8A461"
   points="-278.026,-535.1 -280.857,-537.93 -272.296,-546.486 -280.857,-555.043 -278.026,-557.873     -266.639,-546.486   "
   id="polygon111" />
	</g>
	<g
   id="g113">
		<g
   id="g115">
			<path
   fill="#C8A461"
   d="M-499.832-571c-23.744,0-42.82,10.563-42.82,23.36c0,12.796,18.885,23.355,42.82,23.355     c23.794,0,42.814-10.558,42.814-23.355C-457.017-560.437-476.132-571-499.832-571z M-499.877-525.5     c-21.844,0-40.536-10.112-40.536-22.152c0-12.04,19.121-22.374,40.536-22.374c21.794,0,40.512,10.334,40.512,22.374     C-459.365-535.612-478.178-525.5-499.877-525.5z"
   id="path117" />
			<path
   fill="#C8A461"
   d="M-467.548-550.549c-1.318,0.269-2.542,0.69-3.796,1.064c-0.808,0.242-1.628,0.463-2.496,0.612     l-0.355-0.005l0.155-0.234c0.121-0.126,0.244-0.25,0.369-0.373c1.253-1.229,2.673-2.29,3.983-3.482     c0.411-0.481,1.313-0.847,1.022-1.72c-0.268-0.139-0.989,0.152-1.335,0.306c-2.55,1.316-4.896,2.795-7.051,4.851     c-0.062,0.06-0.125,0.12-0.188,0.18c-1.224,0.924-1.448,3.063-3.28,2.94c-1.161-0.107-1.328-0.095-1.774-0.253     c1.867-1.442,5.461-6.209,5.782-7.348c0,0,0.322-1.031-0.123-0.997c-1.713,0.623-3.329,2.074-4.663,3.247     c0.125-0.578,1.062-1.683,0.605-2.35c-2.965,0.625-7.146,4.592-7.166,4.605c-0.795,0.526-1.088,2.22-2.324,1.968     c-0.774-0.105-1.705-0.116-2.161-0.377c0.796-0.474,1.557-1.004,2.295-1.571c1.712-1.315,3.302-2.826,4.923-4.281     c0.092-0.213,0.626-0.424,0.322-0.745c-0.517-0.414-1.123,0.196-1.684,0.295c-2.567,1.125-4.302,2.639-5.997,4.73     c-0.316,0.392-0.789,0.894-1.071,1.345c-1.21-0.142-1.855-0.078-2.447-0.462c0.36-0.298,0.728-0.59,1.096-0.883     c1.976-1.565,3.99-3.108,5.497-5.429c-0.152-0.788-0.944-0.156-1.325-0.006c-2.695,1.331-4.911,2.972-6.609,5.572     c-0.103,0.16-0.206,0.325-0.303,0.496c-1.187-0.032-2.213-0.265-3.238-0.498c-0.022-0.005-0.044-0.01-0.066-0.015l0.009-0.11     c2.585-1.321,4.887-3.589,6.668-6.27c0,0,1.479-2.594-1.765-0.45c-2.421,1.557-4.626,3.612-6.172,6.534     c0,0-1.628,0.061-1.628-0.116c1.568-1.925,3.388-4.408,4.309-6.943c0.088-0.396,0.328-1.224-0.253-1.312     c-2.181,0.915-3.62,3.478-4.788,5.88c-0.356,0.706-0.552,1.596-0.869,2.268c-1.458-0.072-2.466,0.056-3.865-0.361     c1.755-1.54,3.671-2.81,5.27-4.659c0.271-0.504,2.067-1.735,2.022-3.323c-0.559-0.343-1.122,0.062-1.465,0.314l-4.923,3.924     l-0.259,0.014c0.786-1.405,2.499-3.46,3.202-4.91c0.237-0.488,0.529-0.93,0.508-1.522l-0.435-0.141     c-3.559,1.531-6.628,5.02-7.832,9.519c-0.294,0.417-0.438,1.214-1.043,0.977c-0.077-1.222-0.456-2.361-0.875-3.466     c-1.527-3.191-3.717-5.519-6.518-7.201c-0.456-0.261-0.72,0.232-0.569,0.613c0.393,2.246,1.78,3.656,2.736,5.361     c1.136,1.757,2.679,3.346,3.976,4.933c-0.442,0.15-10.567,2.562-12.368,4.02c-0.944,0.521-2.457,1.728-2.434,4.377     c0.079,0.78,0.625,1.548,1.316,1.779c0.655,0.094,1.117,0.151,1.548-0.143c1.866-2.378,4.029-4.554,6.44-6.001     c1.654-0.866,2.869-1.715,4.769-1.954c0.782,0.731,1.29,1.692,2.36,2.578c2.105,1.918,3.954,3.219,6.859,3.695l0.29-0.097     l-0.107-0.267c-1.536-2.234-3.885-3.644-6.288-4.812c-0.41-0.311-1.407-0.837-1.462-1.469c1.479-0.496,3.451-0.64,5.229-0.213     c2.126,3.691,4.47,7.744,7.877,10.067c0.253,0.06,0.431-0.294,0.304-0.525c-2.362-5.752-3.872-6.27-6.293-8.913     c-0.13-0.196-0.311-0.654,0.034-0.807l2.262,0.036c0.729,0.1,1.724-0.107,1.901,0.213c0.109,3.804,2.559,6.712,4.036,9.604     c0,0,0.476,0.274,0.45-0.223l0.015-0.032c-0.604-6.698-3.113-8.24-3.493-9.379c0.387-0.027,0.81-0.003,1.127,0.171     c1.592,3.241,3.755,5.687,6.602,7.523c0.062,0.04,0.417,0.083,0.187-0.433c-0.828-2.784-3.387-4.208-5.044-6.306l-0.291-0.542     l0.336-0.044c0.711,0.141,1.67,0.302,2.193,0.642c0.946,1.814,2.224,3.215,3.584,4.513c1.127,1.02,2.091,2.21,3.793,2.543     l0.181-0.026l0.053-0.147l-0.053-0.216c-1.053-2.755-3.893-3.914-5.897-5.857c-0.136-0.123-0.387-0.624-0.012-0.702l3.228,0.469     c4.857,6.484,6.735,6.227,6.735,6.227s1.458,0.338,0.791-0.729c-1.584-1.646-2.964-2.401-4.858-3.902     c-0.34-0.325-1.191-0.898-1.103-1.479c0.693,0.106,0.81,0.098,2.224,0.258c0.445,0.063,1.047,0.141,1.388,0.293     c2.536,1.132,2.757,4.68,8.913,5.426c0.22,0.02,0.267-0.275,0.114-0.468c-1.759-1.37-6.344-4.444-6.625-4.798     c0.587,0.053,3.053,0.406,3.441,0.587c3.096,1.672,4.991,2.918,9.421,2.332c0.38-0.557-0.237-0.782-0.761-0.988l-2.495-0.97     c-0.323-0.102-1.708-0.374-2.207-0.534c2.652-0.836,6.149-1.802,8.483-3.218c0.37-0.29,0.808-0.512,1.169-0.831     c0.245-0.216,0.453-0.48,0.581-0.84C-466.936-550.719-467.548-550.549-467.548-550.549z M-512.12-550.086     c-0.279-0.172-0.058-0.513,0.028-0.652c0.083-0.103,1.035-1.814,1.875-1.374C-510.067-551.69-511.524-549.991-512.12-550.086z      M-482.912-549.481c-0.467,0.767-0.132,1.862-0.743,2.576l-4.136-0.533c2.4-0.854,4.353-2.495,5.506-3.163L-482.912-549.481z      M-478.45-546.293c-0.034-0.446,0.479-0.842,0.801-1.145c1.391-1.138,1.6-0.03,1.6-0.03     C-476.682-546.972-477.579-546.384-478.45-546.293z"
   id="path119" />
		</g>
	</g>
	<path
   fill="#c8a461"
   d="M-572.463-422.901c0,0-4.519,0-7.514,0c-4.464,0-9.423,1.871-9.423,8.33c0.022,2.248,0,4.403,0,6.828h-5.16   v8.199h5.32v23.605h9.774v-23.763h6.453l0.584-8.065h-7.206c0,0,0.02-3.59,0-4.631c0-2.551,2.661-2.406,2.817-2.406   c1.271,0,3.728,0.003,4.361,0v-8.099h-0.008V-422.901z"
   id="path121" />
	<path
   fill="#C8A461"
   d="M-572.463-335.901c0,0-4.519,0-7.514,0c-4.464,0-9.423,1.871-9.423,8.33c0.022,2.248,0,4.403,0,6.828h-5.16   v8.199h5.32v23.605h9.774v-23.762h6.453l0.584-8.065h-7.206c0,0,0.02-3.59,0-4.631c0-2.551,2.661-2.406,2.817-2.406   c1.271,0,3.728,0.003,4.361,0v-8.099h-0.008V-335.901z"
   id="path123" />
	<path
   fill="#999999"
   d="M-572.463-249.9c0,0-4.519,0-7.514,0c-4.464,0-9.423,1.87-9.423,8.329c0.022,2.248,0,4.403,0,6.827h-5.16   v8.199h5.32v23.605h9.774v-23.762h6.453l0.584-8.065h-7.206c0,0,0.02-3.591,0-4.631c0-2.551,2.661-2.405,2.817-2.405   c1.271,0,3.728,0.003,4.361,0v-8.1h-0.008V-249.9z"
   id="path125" />
	<path
   fill="#c8a461"
   d="M-506.16-422.902h-34.603c-3.224,0-5.836,2.614-5.836,5.836v35.022c0,3.224,2.612,5.836,5.836,5.836h34.603   c3.224,0,5.836-2.612,5.836-5.836v-35.022C-500.324-420.289-502.936-422.902-506.16-422.902z M-513.941-399.554   c0,5.25-4.271,9.522-9.519,9.522c-5.25,0-9.521-4.272-9.521-9.522c0-1.579,0.392-3.064,1.075-4.377   c1.588-3.051,4.773-5.145,8.446-5.145c3.671,0,6.857,2.092,8.445,5.145C-514.334-402.62-513.941-401.133-513.941-399.554z    M-505.536-383.811c0,1.321-1.071,2.393-2.393,2.393h-30.861c-1.321,0-2.393-1.071-2.393-2.393v-20.121h3.947   c-0.439,1.382-0.682,2.851-0.682,4.377c0,7.97,6.483,14.453,14.453,14.453c7.969,0,14.452-6.483,14.452-14.453   c0-1.526-0.241-2.995-0.682-4.377h4.155v20.121H-505.536z M-505.536-411.467c0,1.321-1.071,2.393-2.393,2.393h-3.624   c-1.321,0-2.394-1.071-2.394-2.393v-3.955c0-1.049,0.68-1.93,1.62-2.253h4.396c1.32,0,2.392,1.072,2.392,2.393v3.815H-505.536z"
   id="path127" />
	<path
   fill="#C8A461"
   d="M-506.16-335.768h-34.603c-3.224,0-5.836,2.614-5.836,5.836v35.022c0,3.224,2.612,5.836,5.836,5.836h34.603   c3.224,0,5.836-2.612,5.836-5.836v-35.022C-500.324-333.154-502.936-335.768-506.16-335.768z M-513.941-312.42   c0,5.25-4.271,9.521-9.519,9.521c-5.25,0-9.521-4.271-9.521-9.521c0-1.579,0.392-3.064,1.075-4.377   c1.588-3.051,4.773-5.145,8.446-5.145c3.671,0,6.857,2.092,8.445,5.145C-514.334-315.485-513.941-313.999-513.941-312.42z    M-505.536-296.678c0,1.322-1.071,2.393-2.393,2.393h-30.861c-1.321,0-2.393-1.07-2.393-2.393v-20.121h3.947   c-0.439,1.382-0.682,2.85-0.682,4.377c0,7.97,6.483,14.453,14.453,14.453c7.969,0,14.452-6.483,14.452-14.453   c0-1.526-0.241-2.995-0.682-4.377h4.155v20.121H-505.536z M-505.536-324.332c0,1.321-1.071,2.393-2.393,2.393h-3.624   c-1.321,0-2.394-1.071-2.394-2.393v-3.955c0-1.049,0.68-1.93,1.62-2.253h4.396c1.32,0,2.392,1.072,2.392,2.393v3.815H-505.536z"
   id="path129" />
	<path
   fill="#999999"
   d="M-506.16-249.768h-34.603c-3.224,0-5.836,2.613-5.836,5.836v35.021c0,3.224,2.612,5.836,5.836,5.836h34.603   c3.224,0,5.836-2.612,5.836-5.836v-35.021C-500.324-247.154-502.936-249.768-506.16-249.768z M-513.941-226.42   c0,5.25-4.271,9.521-9.519,9.521c-5.25,0-9.521-4.271-9.521-9.521c0-1.579,0.392-3.064,1.075-4.377   c1.588-3.051,4.773-5.145,8.446-5.145c3.671,0,6.857,2.092,8.445,5.145C-514.334-229.485-513.941-227.999-513.941-226.42z    M-505.536-210.678c0,1.322-1.071,2.393-2.393,2.393h-30.861c-1.321,0-2.393-1.07-2.393-2.393v-20.121h3.947   c-0.439,1.383-0.682,2.852-0.682,4.377c0,7.971,6.483,14.453,14.453,14.453c7.969,0,14.452-6.482,14.452-14.453   c0-1.525-0.241-2.994-0.682-4.377h4.155v20.121H-505.536z M-505.536-238.332c0,1.32-1.071,2.393-2.393,2.393h-3.624   c-1.321,0-2.394-1.072-2.394-2.393v-3.955c0-1.049,0.68-1.93,1.62-2.254h4.396c1.32,0,2.392,1.072,2.392,2.393v3.816H-505.536z"
   id="path131" />
	<path
   fill="#c8a461"
   d="M-462.994-422.9v12.066h11.99v7.57h-11.99v15.589c0,0-0.226,8.693,13.34,2.697v7.419   c0,0-4.722,1.8-12.291,1.8c-7.57,0-11.092-3.974-11.092-8.694c0-4.722,0-18.963,0-18.963h-5.996v-5.996   c0,0,9.744-3.523,9.817-13.49h6.222V-422.9z"
   id="path133" />
	<path
   fill="#C8A461"
   d="M-462.994-335.99v12.066h11.99v7.57h-11.99v15.589c0,0-0.226,8.692,13.34,2.696v7.42   c0,0-4.722,1.799-12.291,1.799c-7.57,0-11.092-3.974-11.092-8.693c0-4.723,0-18.963,0-18.963h-5.996v-5.996   c0,0,9.744-3.523,9.817-13.49h6.222V-335.99z"
   id="path135" />
	<path
   fill="#999999"
   d="M-462.994-249.99v12.066h11.99v7.57h-11.99v15.589c0,0-0.226,8.692,13.34,2.696v7.42   c0,0-4.722,1.799-12.291,1.799c-7.57,0-11.092-3.974-11.092-8.693c0-4.723,0-18.963,0-18.963h-5.996v-5.996   c0,0,9.744-3.523,9.817-13.49h6.222V-249.99z"
   id="path137" />
	<path
   fill="#c8a461"
   d="M-370.44-417.34c-2.128,0.944-4.413,1.582-6.816,1.869c2.452-1.468,4.332-3.795,5.219-6.565   c-2.291,1.36-4.831,2.348-7.538,2.88c-2.164-2.306-5.249-3.746-8.663-3.746c-6.552,0-11.865,5.311-11.865,11.868   c0,0.929,0.105,1.835,0.306,2.705c-9.863-0.496-18.608-5.22-24.461-12.399c-1.022,1.753-1.607,3.792-1.607,5.967   c0,4.116,2.096,7.749,5.279,9.876c-1.945-0.061-3.774-0.595-5.376-1.484c0,0.049,0,0.099,0,0.15c0,5.751,4.09,10.546,9.52,11.636   c-0.997,0.273-2.044,0.416-3.127,0.416c-0.766,0-1.508-0.072-2.234-0.209c1.511,4.713,5.894,8.144,11.085,8.241   c-4.061,3.184-9.18,5.082-14.738,5.082c-0.957,0-1.903-0.057-2.832-0.169c5.253,3.368,11.489,5.334,18.191,5.334   c21.828,0,33.766-18.083,33.766-33.766c0-0.515-0.011-1.026-0.035-1.535C-374.044-412.87-372.031-414.96-370.44-417.34z"
   id="path139" />
	<path
   fill="#C8A461"
   d="M-370.44-330.367c-2.128,0.944-4.413,1.582-6.816,1.869c2.452-1.468,4.332-3.795,5.219-6.565   c-2.291,1.36-4.831,2.348-7.538,2.88c-2.164-2.306-5.249-3.746-8.663-3.746c-6.552,0-11.865,5.311-11.865,11.868   c0,0.929,0.105,1.835,0.306,2.705c-9.863-0.496-18.608-5.22-24.461-12.399c-1.022,1.753-1.607,3.792-1.607,5.967   c0,4.116,2.096,7.749,5.279,9.876c-1.945-0.061-3.774-0.595-5.376-1.484c0,0.049,0,0.099,0,0.15c0,5.751,4.09,10.546,9.52,11.636   c-0.997,0.273-2.044,0.416-3.127,0.416c-0.766,0-1.508-0.072-2.234-0.209c1.511,4.713,5.894,8.144,11.085,8.241   c-4.061,3.184-9.18,5.082-14.738,5.082c-0.957,0-1.903-0.057-2.832-0.169c5.253,3.368,11.489,5.335,18.191,5.335   c21.828,0,33.766-18.084,33.766-33.767c0-0.515-0.011-1.026-0.035-1.535C-374.044-325.897-372.031-327.986-370.44-330.367z"
   id="path141" />
	<path
   fill="#999999"
   d="M-370.44-244.365c-2.128,0.943-4.413,1.582-6.816,1.869c2.452-1.469,4.332-3.796,5.219-6.566   c-2.291,1.361-4.831,2.349-7.538,2.881c-2.164-2.307-5.249-3.746-8.663-3.746c-6.552,0-11.865,5.311-11.865,11.867   c0,0.929,0.105,1.835,0.306,2.705c-9.863-0.496-18.608-5.221-24.461-12.399c-1.022,1.753-1.607,3.792-1.607,5.968   c0,4.115,2.096,7.748,5.279,9.876c-1.945-0.062-3.774-0.595-5.376-1.483c0,0.049,0,0.099,0,0.149c0,5.751,4.09,10.546,9.52,11.636   c-0.997,0.273-2.044,0.416-3.127,0.416c-0.766,0-1.508-0.072-2.234-0.209c1.511,4.714,5.894,8.145,11.085,8.241   c-4.061,3.184-9.18,5.082-14.738,5.082c-0.957,0-1.903-0.057-2.832-0.169c5.253,3.368,11.489,5.335,18.191,5.335   c21.828,0,33.766-18.084,33.766-33.767c0-0.515-0.011-1.025-0.035-1.535C-374.044-239.895-372.031-241.985-370.44-244.365z"
   id="path143" />
	<path
   fill="#c8a461"
   d="M-284.776-413.496c0,0-0.122-8.767-10.217-9.129c-10.095-0.365-21.559-0.375-21.559-0.375h-2.089   c0,0-11.464,0.009-21.559,0.375c-10.095,0.365-10.216,9.186-10.216,9.186s-1.338,14.446-0.122,25.334   c0.919,8.228,2.676,11.009,12.284,11.494c9.607,0.487,19.627,0.612,19.627,0.612h2.059c0,0,10.02-0.14,19.628-0.626   c9.608-0.487,11.364-3.21,12.284-11.438C-283.439-398.952-284.776-413.496-284.776-413.496z M-324.667-390.392v-18.969   l18.001,9.608L-324.667-390.392z"
   id="path145" />
	<path
   fill="#C8A461"
   d="M-284.776-326.418c0,0-0.122-8.806-10.217-9.168c-10.095-0.365-21.559-0.414-21.559-0.414h-2.089   c0,0-11.464,0.049-21.559,0.414c-10.095,0.364-10.216,9.206-10.216,9.206s-1.338,14.456-0.122,25.343   c0.919,8.229,2.676,10.975,12.284,11.46c9.607,0.486,19.627,0.577,19.627,0.577h2.059c0,0,10.02-0.1,19.628-0.587   c9.608-0.487,11.364-3.19,12.284-11.419C-283.439-311.893-284.776-326.418-284.776-326.418z M-324.667-303.312v-18.969   l18.001,9.608L-324.667-303.312z"
   id="path147" />
	<path
   fill="#999999"
   d="M-284.776-240.338c0,0-0.122-8.806-10.217-9.168c-10.095-0.365-21.559-0.414-21.559-0.414h-2.089   c0,0-11.464,0.049-21.559,0.414c-10.095,0.364-10.216,9.205-10.216,9.205s-1.338,14.456-0.122,25.344   c0.919,8.229,2.676,10.975,12.284,11.46c9.607,0.486,19.627,0.577,19.627,0.577h2.059c0,0,10.02-0.1,19.628-0.587   c9.608-0.487,11.364-3.19,12.284-11.419C-283.439-225.812-284.776-240.338-284.776-240.338z M-324.667-217.232v-18.969   l18.001,9.607L-324.667-217.232z"
   id="path149" />
	<path
   fill="#c8a461"
   d="M-221.914-422.902l-9.829,2.037v14.557c-2.239-2.862-5.351-4.23-9.394-4.23   c-4.23,0-8.025,1.555-11.136,4.604c-3.483,3.36-5.35,7.652-5.35,12.442c0,5.226,1.99,9.705,5.848,13.126   c2.924,2.613,6.407,3.919,10.451,3.919c3.981,0,6.967-1.058,9.891-3.919v3.733h9.519V-422.902z M-239.145-385.344   c-5.04,0-8.647-3.546-8.647-8.212c0-4.479,3.607-8.274,8.273-8.274c4.604,0,8.149,3.608,8.149,8.398   C-231.37-388.828-234.916-385.344-239.145-385.344"
   id="path151" />
	<path
   fill="#C8A461"
   d="M-221.914-335.728l-9.829,2.037v14.557c-2.239-2.862-5.351-4.23-9.394-4.23   c-4.23,0-8.025,1.555-11.136,4.604c-3.483,3.36-5.35,7.652-5.35,12.442c0,5.226,1.99,9.705,5.848,13.126   c2.924,2.613,6.407,3.919,10.451,3.919c3.981,0,6.967-1.057,9.891-3.919v3.733h9.519V-335.728z M-239.145-298.169   c-5.04,0-8.647-3.546-8.647-8.212c0-4.479,3.607-8.274,8.273-8.274c4.604,0,8.149,3.608,8.149,8.398   C-231.37-301.652-234.916-298.169-239.145-298.169"
   id="path153" />
	<path
   fill="#999999"
   d="M-221.914-249.648l-9.829,2.037v14.557c-2.239-2.861-5.351-4.23-9.394-4.23   c-4.23,0-8.025,1.555-11.136,4.604c-3.483,3.359-5.35,7.652-5.35,12.442c0,5.226,1.99,9.705,5.848,13.126   c2.924,2.613,6.407,3.919,10.451,3.919c3.981,0,6.967-1.057,9.891-3.919v3.733h9.519V-249.648z M-239.145-212.09   c-5.04,0-8.647-3.546-8.647-8.212c0-4.479,3.607-8.274,8.273-8.274c4.604,0,8.149,3.609,8.149,8.398   C-231.37-215.573-234.916-212.09-239.145-212.09"
   id="path155" />
	<polygon
   fill="#14100A"
   points="-227.655,-554.644 -230.92,-557.908 -239.118,-549.71 -247.316,-557.908 -250.581,-554.644    -242.382,-546.445 -250.581,-538.247 -247.316,-534.982 -239.118,-543.18 -230.92,-534.982 -227.655,-538.248 -235.852,-546.445     "
   id="polygon157" />
	<g
   id="g159">
		<path
   fill="#c8a461"
   d="M-527.381-103.794c0,8.114-6.586,14.699-14.696,14.699c-8.116,0-14.698-6.585-14.698-14.699    c0-8.116,6.582-14.7,14.698-14.7C-533.966-118.494-527.381-111.91-527.381-103.794z"
   id="path161" />
		<path
   fill="#c8a461"
   d="M-515.815-71c-3.998-13-15.321-16.828-15.321-16.828c-3.576,3.845-11.196,4.088-11.196,4.088    s-6.99-0.225-10.566-4.069c0,0-10.102,3.81-14.1,16.81h24.41H-515.815z"
   id="path163" />
	</g>
	<path
   fill="#c8a461"
   d="M-597.426-118.494c-12.963,0-23.476,10.515-23.476,23.478c0,12.96,10.513,23.477,23.476,23.477   c12.952,0,23.471-10.517,23.471-23.477C-573.956-107.979-584.474-118.494-597.426-118.494z M-588.692-80.271l-11.01-12.27   l-0.965-2.46v-12h5v11.472l10.696,11.919L-588.692-80.271z"
   id="path165" />
	<path
   fill="#c8a461"
   d="M-364.695-118.078c-9.956,0-18.03,8.322-18.03,18.579c0,2.6,0.523,5.077,1.459,7.323   c0,0,2.111,3.879,3.266,5.181l13.268,15.827l13.048-15.496c1.379-1.481,3.558-5.512,3.558-5.512   c0.938-2.246,1.462-4.724,1.462-7.323C-346.666-109.756-354.744-118.078-364.695-118.078z M-364.753-94.352   c-3.696,0-6.693-2.998-6.693-6.692c0-3.696,2.997-6.694,6.693-6.694c3.692,0,6.691,2.998,6.691,6.694   C-358.061-97.35-361.06-94.352-364.753-94.352z"
   id="path167" />
	<path
   fill="#c8a461"
   d="M-456.947-79.738l-12.502-10.117c1.381-2.695,2.165-5.743,2.165-8.973c0-10.891-8.858-19.748-19.747-19.748   c-10.89,0-19.75,8.858-19.75,19.748c0,10.89,8.86,19.748,19.75,19.748c4.289,0,8.259-1.378,11.5-3.71l12.722,10.296   c0.863,0.698,1.899,1.037,2.929,1.037c1.358,0,2.704-0.591,3.625-1.729C-454.636-75.186-454.946-78.119-456.947-79.738z    M-487.026-85.537c-7.402,0-13.406-6.006-13.406-13.406c0-7.402,6.004-13.407,13.406-13.407c7.396,0,13.403,6.005,13.403,13.407   C-473.623-91.543-479.631-85.537-487.026-85.537z"
   id="path169" />
	<g
   id="g171">
		
			<rect
   x="-305.375"
   y="-115.439"
   transform="matrix(0.7277 0.6859 -0.6859 0.7277 -157.3799 175.2905)"
   fill="#c8a461"
   width="11.805"
   height="9.721"
   id="rect173" />
		<path
   fill="#c8a461"
   d="M-309.483-108.563l-25.453,27.007l-1.345,10.032l9.935-1.936l25.454-27.008L-309.483-108.563z     M-309.338-103.655l3.538,3.334l-22.306,23.666l-0.138,0.027l-3.419-3.222l0.019-0.139L-309.338-103.655z"
   id="path175" />
	</g>
	<g
   id="g177">
		<g
   id="g179">
			<path
   fill-rule="evenodd"
   clip-rule="evenodd"
   fill="#c8a461"
   d="M-256.048-113.879c0.546,0.386,1.813,0.544,3.151,0.363     C-253.612-113.05-255.744-113.138-256.048-113.879z"
   id="path181" />
			<path
   fill-rule="evenodd"
   clip-rule="evenodd"
   fill="#c8a461"
   d="M-252.048-118c1.135,0.14,2.266,0.301,3.394,0.485     c-0.1,1.14-3.188,1.432-3.636,2.303c0.027,0.154,0.361,0.158,0.363,0c0.072,0.129-2.439,1.087-0.728,0.97     c-0.765,0.203-1.531,0.203-2.302,0c-0.032-0.268,0.366-0.458,0.605-0.485c0.2-0.993-1.385-0.12-1.696-0.364     c-0.095-0.575-0.038,0.04-0.484-0.727c0.23-0.146,0.392-0.349,0.484-0.606c0.989,0.031,1.696,2.222,2.787,1.091     c-0.332-0.191-0.789-0.262-1.091-0.484c0.281-0.285,1.143,0.011,1.455-0.242c-0.713-0.401-1.48-0.604-2.303-0.606     C-254.484-117.199-252.942-118-252.048-118C-250.711-117.891-252.129-118-252.048-118z"
   id="path183" />
			<path
   fill-rule="evenodd"
   clip-rule="evenodd"
   fill="#c8a461"
   d="M-242.836-118c0.817,0,2.86,0.018,3.758,0.605     c-0.99,0.224-1.998,0.427-2.667,0.97c0.604,0.296,4.637-0.118,5.333-0.363c-1.511,1.413-2.661,1.365-1.576,3.515     c-0.337-0.078-0.458,0.003-0.362,0.242c-0.643,0.991-2.516-0.574-0.244,1.213c0.239-0.472-1.343,0.398-1.211,0.363     c0.214,0.276,0.496,0.358,0.848,0.243c-0.774,0.607-2.907,0.023-3.03,1.454c-1.7-0.077-1.343,1.735-2.424,2.424     c-1.1-0.525-2.279-3.535-1.639-4.244c1.207-1.336-3.647-2.192-4.179-2.423c0.085-0.617,1.135-0.582-0.606-0.727     c0.818-0.067,1.465-0.431,1.939-1.091c0.055-0.198-0.66-0.198-0.606,0C-247.426-117.649-244.078-116.708-242.836-118     C-242.756-118-242.955-117.876-242.836-118z"
   id="path185" />
			<path
   fill-rule="evenodd"
   clip-rule="evenodd"
   fill="#c8a461"
   d="M-222.11-110.001c0.373,0.087,5.704-0.408,6.061-0.605     c0.072-0.428-1.142-2.07,0.606-1.818c-0.298,1.703-0.086,1.516-0.849,2.424c-0.064,1.396,1.593-0.491,1.697-0.605     c0.258,0.329,0.581,0.571,0.97,0.728c0.071-1.253-1.953-0.911-1.213-2.303c0.191,0.405,0.514,0.606,0.971,0.605     c-1.086-0.178,1.603,0.185,1.212,0.242c0.631-0.753-0.843-0.946-0.486-1.455c2.474,0.042,4.723-1.797,7.758-1.212     c0.001,0.323-0.161,0.525-0.484,0.606c0.299,1.021,1.791,0.719,2.457,0.747c4.048,0.167-0.021,0.628,2.634,1.192     c0.861-0.842,3.059-0.764,3.394-0.363c1.621-0.761,9.713,1.312,10.909,2.182c-1.396,0.348-2.058,0.156-3.394,0.363     c0.142,0.399,0.386,0.723,0.728,0.97c-1.054,0.295-2.381,0.554-3.281,0.87c-1.064,0.375-0.83,3.332-2.294,3.13     c-0.752-2.352,2.055-2.442,2.06-4c-1.501,0.312-6.099,1.182-7.272,3.03c0.476,1.217,2.31,0.816,0.537,3.164     c-0.338,0.792-0.924,1.2-1.762,1.227c-0.626,0.705-0.129,2.094-0.594,2.397c-0.341-1.194-1.25-2.852-2.546-1.212     c-0.006,0.347,0.808,1.969,0.97,3.15c-0.625,1.939-2.798,1.557-3.999,2.788c0.639,0.644,1.52,2.65,0,3.03     c-0.282-1.213-0.768-1.414-1.455-0.605c-0.781-2.073-0.594-1.451-1.939-3.394c-1.909,0.626-3.044,2.142-3.273,4.12     c-1.567-1.535-0.77-3.687-2.259-4.44c-0.803-0.407-4.272-2.073-5.135-1.983c-0.116,0.793,1.37,3.355,1.939,1.575     c1.099,2.134-0.688,2.747-2.909,3.515c-0.539-1.562-1.12-3.906-2.666-4.847c-1.322,2.203,2.979,5.453,4.363,5.574     c0.076,2.754-3.728,3.081-2.8,6.192c0.343,1.147-1.68,5.606-2.663,6.51c-4.337,3.977-3.417-10.288-5.558-10.955     c-2.552-0.794-4.272,0.667-5.706-2.716c0.634-1.24-0.202-2.299,0.839-3.437c0.494-0.54,1.707-2.191,1.828-2.866     c3.849,0.832,3.021-0.707,6.061,1.574c1.132-0.024,4.882,0.214,4.363-2.302c-1.25,0.291-2.384,0.445-2.183-0.849     c1.082-1.103,2.511,0.188,3.637-0.606c0.005-0.475-0.733-1.333-0.849-1.817c-1.579-0.316-2.164,1.679-3.879,2.303     c0.179,0.309,0.219,0.632,0.122,0.97c-0.588-0.793-1.369-2.314-2.546-2.909c-0.676,0.742,0.603,1.45,0.97,1.939     c-1.741,0.174-1.872-2.665-3.768-0.347c-1.329,1.625-2.534,2.002-2.534-0.623c1.043,0.396,2.962-0.57,1.332-1.575     c0.679-0.306,3.066-1.672,3.152-2.425c1.556,1.113,2.979-0.504,3.758-0.727c-0.004-0.328-0.044-0.651-0.121-0.97     c0.556,0.124,1.04,0.003,1.454-0.364c-0.636-0.241-1.281-0.282-1.939-0.121c-0.04-0.767,0.242-1.372,0.849-1.817     c-0.034-0.229-0.155-0.391-0.363-0.485c-0.859,0.699-2.429,3.15-2.546,4c-0.29-0.461-0.533-0.945-0.728-1.455     c-0.301,0.299-0.664,0.461-1.091,0.485c0.389-2.788,5.708-7.351,8.363-3.272c-0.619,0.163-1.226,0.122-1.817-0.122     C-225.442-107.928-222.438-108.802-222.11-110.001C-221.074-109.758-222.308-109.278-222.11-110.001z"
   id="path187" />
			<path
   fill-rule="evenodd"
   clip-rule="evenodd"
   fill="#c8a461"
   d="M-248.896-102.001c-2.875,0.042-4.183,4.091-4.122,6.424     c-0.889-0.226-0.174-1.382-1.335-1.46c-1.303-0.09-0.297,0.377-2.001,0.273c-1.566-0.095-1.183,2.156-0.76,2.89     c0.929,1.611,1.452-0.345,2.399-0.37c-0.222,0.736,0.619,3.631,1.696,3.637c-0.747,0.124-3.824-2.085-4.761-2.47     c-1.654-0.68-2.546-2.796-3.48-4.317c-0.427,0.339,0.502,2.147,0.636,2.147c-1.558,0.002-3.533-6.487-2.576-7.238     c-0.772-3.162-4.386-5.252-6.908-4.606c-0.984-0.447-0.134,0.676-1.818,1.091c0.794,0.258-1.848-1.774-1.817-1.697     c0.515-0.37,0.879-0.854,1.092-1.453c-0.643,0.402-1.128,0.28-1.455-0.364c0.444,0.014,0.889,0.014,1.333,0     c-0.312-0.451-0.675-0.855-1.091-1.213c2.522-1.957,5.6-0.072,7.636,0.728c0.721,0.073,4.838-1.849,6.304,0.243     c0.042-0.867,2.866-1.13,3.515-1.212c0.041-0.188-0.17-0.59-0.121-0.849c0.492,0.071,1.73,1.567,1.817,1.817     c0.446-0.18,0.688-0.503,0.728-0.969c1.567-0.117-0.349,1.525-1.333,1.575c-0.075,0.649-1.201,1.206-1.333,2.666     c1.111,0.888,2.801,2.767,3.757,3.151c0.558-1.406,0.76-2.859,0.607-4.362c1.527-0.739,1.59,0.974,2.06,1.575     c0.424-0.047,0.746-0.249,0.97-0.606c0.853,1.182,1.211,1.408,1.091,2.303c0.32,0.146,0.644,0.146,0.97,0     c0.069,0.197,0.109,0.399,0.12,0.607c-0.958,0.486-3.251,0.064-3.515,1.575c0.436-0.186,0.881-0.347,1.334-0.485     c-0.173,0.083,0.148,1.256,0.121,1.454C-249.467-101.626-248.862-101.787-248.896-102.001     C-249.693-101.989-248.862-101.787-248.896-102.001z"
   id="path189" />
			<path
   fill-rule="evenodd"
   clip-rule="evenodd"
   fill="#c8a461"
   d="M-251.805-73.76c0.311-1.797,2.638-8.021,0.624-9.355     c-3.103-2.06,0.141-6.424-1.473-7.492c0.726-2.182,6.383,0.729,6.303,3.03c1.607,0.941,4.921-0.571,3.699,2.851     c-0.476,1.328-3.232,7.385-5.033,6.846c-0.142,1.188-0.041,1.752-1.817,2.061c-0.09,1.568-0.745,2.705-1.333,4.363     C-251.495-72.122-251.048-73.536-251.805-73.76C-251.782-73.897-251.493-73.668-251.805-73.76z"
   id="path191" />
			<path
   fill-rule="evenodd"
   clip-rule="evenodd"
   fill="#c8a461"
   d="M-199.201-78.365c-1.318-0.233-3.661,0.944-5.455,0.727     c-0.048-3.238-1.526-2.514,1.177-4.672c1.533-1.225,1.981-0.891,2.823-2.358c2.021,0.381-0.106,1.445,1.938,2.061     c0.39-0.586,0.592-1.232,0.607-1.94c1.552,2.482,3.207,4.385,1.872,7.324C-197-75.546-199.64-76.644-199.201-78.365     C-199.741-78.46-199.445-77.407-199.201-78.365z"
   id="path193" />
		</g>
	</g>
	<g
   id="g195">
		<path
   fill="#c8a461"
   d="M-605.2-12.092c0,0,44.525-2.191,48.034,44.744h-8.992c0,0,1.756-34.215-39.042-37.287V-12.092    L-605.2-12.092z"
   id="path197" />
		<path
   fill="#c8a461"
   d="M-605.2,3.483c0,0,26.102-0.88,31.146,29.169h-8.991c0,0-1.095-17.764-22.154-21.717V3.483L-605.2,3.483z"
   id="path199" />
		<path
   fill="#c8a461"
   d="M-600.312,23.05c3.147,0,5.703,2.551,5.703,5.704c0,3.146-2.557,5.702-5.703,5.702    c-3.151,0-5.704-2.554-5.704-5.702C-606.016,25.602-603.464,23.05-600.312,23.05z"
   id="path201" />
	</g>
	<g
   id="g203">
		<g
   id="g205">
			<path
   fill="#c8a461"
   d="M-514.631,25.823c-0.367,0-0.737-0.103-1.068-0.318c-4.306-2.796-6.875-7.522-6.875-12.646     c0-8.311,6.761-15.071,15.07-15.071c8.311,0,15.071,6.761,15.071,15.071c0,5.122-2.57,9.85-6.875,12.646     c-0.911,0.592-2.129,0.333-2.721-0.578c-0.592-0.912-0.332-2.13,0.578-2.721c3.184-2.068,5.084-5.562,5.084-9.347     c0-6.143-4.997-11.14-11.138-11.14c-6.141,0-11.139,4.997-11.139,11.14c0,3.785,1.901,7.278,5.086,9.347     c0.909,0.591,1.169,1.809,0.577,2.721C-513.356,25.506-513.987,25.823-514.631,25.823z"
   id="path207" />
		</g>
		<g
   id="g209">
			<path
   fill="#c8a461"
   d="M-521.794,31.44c-0.517,0-1.035-0.18-1.452-0.546c-5.213-4.553-8.204-11.128-8.204-18.039     c0-13.204,10.742-23.945,23.945-23.945c13.204,0,23.945,10.741,23.945,23.945c0,6.913-2.991,13.486-8.204,18.039     c-0.919,0.804-2.314,0.708-3.118-0.212c-0.803-0.919-0.709-2.315,0.212-3.117c4.251-3.713,6.69-9.075,6.69-14.71     c0-10.766-8.76-19.525-19.525-19.525c-10.767,0-19.524,8.76-19.524,19.525c0,5.635,2.439,10.997,6.689,14.71     c0.918,0.802,1.015,2.198,0.212,3.117C-520.564,31.182-521.179,31.44-521.794,31.44z"
   id="path211" />
		</g>
		<path
   fill="#c8a461"
   d="M-497.727,35.682l-8.918-14.405h-1.939l-8.697,14.405H-497.727z"
   id="path213" />
		<circle
   fill="#c8a461"
   cx="-507.533"
   cy="13.09"
   r="5.561"
   id="circle215" />
	</g>
	<path
   fill="#c8a461"
   d="M-461.667-12v47h26v-47H-461.667z M-448.724,32.217c-1.034,0-1.874-0.839-1.874-1.874   c0-1.033,0.84-1.873,1.874-1.873c1.033,0,1.872,0.84,1.872,1.873C-446.852,31.378-447.691,32.217-448.724,32.217z M-438.667,26h-20   V-9h20V26z"
   id="path217" />
	<g
   id="g219">
		<g
   id="g221">
			<g
   id="g223">
				<path
   fill="#C8A461"
   d="M-504.667-626.285v6.208c0,1.312-1.697,6.077-7.466,6.077c-5.765,0-7.534-4.963-7.534-6.275v-6.009      v-0.396v-8.718c0-1.313,1.77-6.276,7.534-6.276c5.769,0,7.466,4.765,7.466,6.078v8.917V-626.285z"
   id="path225" />
			</g>
		</g>
		<g
   id="g227">
			<rect
   x="-520.667"
   y="-600"
   fill="#C8A461"
   width="18"
   height="5"
   id="rect229" />
		</g>
		<g
   id="g231">
			<g
   id="g233">
				<path
   fill="#C8A461"
   d="M-512.106-605c-11.083,0-15.56-8.027-15.56-11.374V-620h4v3.626c0.031,0.915,2.496,7.374,11.56,7.374      c9.02,0,11.416-6.199,11.44-7.081V-620h4v3.921C-496.667-612.818-501.109-605-512.106-605z"
   id="path235" />
			</g>
		</g>
	</g>
</g>
<g
   id="Calque_2">
</g>
<g
   id="Calque_3">
	<g
   id="g239">
		<path
   fill="none"
   d="M-399.192,19.061c-0.081,0.197-0.148,0.399-0.203,0.606C-399.341,19.461-399.274,19.258-399.192,19.061    c0.117-0.283,0.262-0.554,0.433-0.81c0.15-0.225,0.322-0.437,0.513-0.637c-0.19,0.199-0.362,0.412-0.513,0.637    C-398.93,18.508-399.075,18.779-399.192,19.061z"
   id="path241" />
		<path
   fill="none"
   d="M-398.759,23.484c0.15,0.225,0.322,0.437,0.513,0.637C-398.436,23.922-398.608,23.709-398.759,23.484    c-0.171-0.256-0.316-0.527-0.433-0.81c-0.081-0.197-0.148-0.399-0.203-0.606c0.054,0.207,0.121,0.409,0.203,0.606    C-399.075,22.957-398.93,23.228-398.759,23.484z"
   id="path243" />
		<path
   fill="none"
   d="M-403.39,24.172c-0.053-0.139-0.104-0.279-0.15-0.42C-403.493,23.893-403.443,24.033-403.39,24.172z"
   id="path245" />
		<path
   fill="none"
   d="M-404,20.868c0-0.23,0.008-0.458,0.025-0.685C-403.992,20.41-404,20.638-404,20.868z"
   id="path247" />
		<path
   fill="none"
   d="M-403.975,21.553c-0.017-0.227-0.025-0.455-0.025-0.685C-404,21.098-403.992,21.326-403.975,21.553z"
   id="path249" />
		<path
   fill="none"
   d="M-403.54,23.752c-0.07-0.212-0.132-0.427-0.186-0.644C-403.672,23.325-403.61,23.54-403.54,23.752z"
   id="path251" />
		<path
   fill="none"
   d="M-396.637,25.23c-0.283-0.117-0.554-0.262-0.81-0.433c-0.128-0.086-0.252-0.178-0.373-0.277    c0.12,0.099,0.244,0.191,0.372,0.277C-397.191,24.968-396.92,25.112-396.637,25.23z"
   id="path253" />
		<path
   fill="none"
   d="M-393.471,29.938c0.149-0.022,0.297-0.048,0.443-0.077c0.294-0.058,0.583-0.131,0.868-0.217    c-0.285,0.086-0.575,0.159-0.868,0.217C-393.175,29.891-393.323,29.916-393.471,29.938z"
   id="path255" />
		<path
   fill="none"
   d="M-401.63,27.021c-0.204-0.225-0.396-0.459-0.575-0.7C-402.026,26.562-401.834,26.795-401.63,27.021z"
   id="path257" />
		<path
   fill="none"
   d="M-390.125,28.742c0.128-0.077,0.254-0.157,0.379-0.24s0.247-0.17,0.368-0.259    c-0.121,0.09-0.243,0.176-0.368,0.259C-389.871,28.585-389.997,28.665-390.125,28.742z"
   id="path259" />
		<path
   fill="none"
   d="M-394.503,7.61c0.176-0.153,0.355-0.3,0.541-0.438C-394.148,7.31-394.327,7.458-394.503,7.61z"
   id="path261" />
		<path
   fill="none"
   d="M-403.726,18.628c0.036-0.145,0.076-0.288,0.119-0.431C-403.65,18.339-403.69,18.483-403.726,18.628z"
   id="path263" />
		<path
   fill="none"
   d="M-392.609,25.033c0.109-0.058,0.215-0.122,0.319-0.189C-392.394,24.911-392.5,24.975-392.609,25.033z"
   id="path265" />
		<polygon
   fill="none"
   points="-383.606,22.611 -386.757,22.618 -383.606,22.611   "
   id="polygon267" />
		<path
   fill="none"
   d="M-388.678,27.667c-0.225,0.204-0.459,0.396-0.7,0.575C-389.137,28.064-388.903,27.872-388.678,27.667z"
   id="path269" />
		<path
   fill="none"
   d="M-394.146,30.013c-0.227,0.017-0.455,0.025-0.685,0.025C-394.601,30.038-394.373,30.029-394.146,30.013z"
   id="path271" />
		<path
   fill="none"
   d="M-393.471,29.938c-0.223,0.033-0.448,0.058-0.675,0.074C-393.919,29.996-393.694,29.971-393.471,29.938z"
   id="path273" />
		<path
   fill="none"
   d="M-400.283,28.243c-0.185-0.138-0.365-0.285-0.541-0.438C-400.648,27.958-400.468,28.105-400.283,28.243z"
   id="path275" />
		<path
   fill="none"
   d="M-383.058,7.173c0.241,0.179,0.475,0.371,0.7,0.575C-382.583,7.544-382.816,7.352-383.058,7.173z"
   id="path277" />
		<path
   fill="none"
   d="M-384.999,6.071c0.137,0.057,0.273,0.117,0.408,0.181C-384.726,6.188-384.862,6.128-384.999,6.071z"
   id="path279" />
		<path
   fill="none"
   d="M-384.715,11.742c0.046,0.062,0.091,0.125,0.133,0.189c0.171,0.256,0.316,0.527,0.433,0.81    c-0.117-0.283-0.262-0.554-0.433-0.81C-384.625,11.867-384.669,11.804-384.715,11.742z"
   id="path281" />
		<path
   fill="none"
   d="M-386.284,5.649c0.439,0.109,0.868,0.25,1.285,0.423C-385.415,5.899-385.845,5.758-386.284,5.649z"
   id="path283" />
		<path
   fill="none"
   d="M-380.876,9.463c-0.25-0.373-0.528-0.73-0.835-1.068C-381.404,8.733-381.126,9.09-380.876,9.463    L-380.876,9.463z"
   id="path285" />
		<path
   fill="none"
   d="M-383.058,7.173c-0.121-0.09-0.243-0.176-0.368-0.259c-0.187-0.125-0.377-0.243-0.572-0.353    c0.194,0.11,0.385,0.228,0.572,0.353C-383.301,6.997-383.178,7.083-383.058,7.173z"
   id="path287" />
		<path
   d="M-390.628,10.33c-0.146,0.074-0.289,0.155-0.427,0.244C-390.917,10.485-390.774,10.404-390.628,10.33z"
   id="path289" />
		<path
   d="M-391.182,10.658c-0.108,0.075-0.214,0.153-0.317,0.237C-391.396,10.812-391.29,10.733-391.182,10.658z"
   id="path291" />
		<path
   d="M-380.913,19.312c-0.134,0.069-0.269,0.135-0.405,0.198C-381.182,19.448-381.047,19.382-380.913,19.312z"
   id="path293" />
		<path
   d="M-381.499,19.59c-0.244,0.105-0.492,0.2-0.744,0.283C-381.991,19.79-381.743,19.695-381.499,19.59z"
   id="path295" />
		<path
   d="M-386.263,20.265c-0.15-0.018-0.298-0.04-0.446-0.066C-386.561,20.224-386.412,20.246-386.263,20.265z"
   id="path297" />
		<path
   d="M-382.143,1.507L-382.143,1.507c0.063-0.063,0.128-0.124,0.195-0.183C-382.014,1.383-382.079,1.444-382.143,1.507z"
   id="path299" />
		<path
   d="M-381.228,0.792c0.132-0.079,0.267-0.151,0.405-0.217C-380.961,0.641-381.096,0.713-381.228,0.792z"
   id="path301" />
		<path
   d="M-389.421,5.422c0.15-0.015,0.302-0.026,0.453-0.033C-389.119,5.396-389.27,5.408-389.421,5.422z"
   id="path303" />
		<path
   d="M-376.79,0.575c0.138,0.065,0.273,0.138,0.405,0.217C-376.517,0.713-376.652,0.641-376.79,0.575z"
   id="path305" />
		<path
   d="M-388.011,19.873c-0.283-0.093-0.56-0.2-0.832-0.321C-388.571,19.673-388.294,19.78-388.011,19.873z"
   id="path307" />
		<path
   d="M-388.843,19.553c-0.204-0.09-0.404-0.188-0.601-0.294C-389.247,19.364-389.047,19.462-388.843,19.553z"
   id="path309" />
		<path
   d="M-383.576,20.204c-0.138,0.023-0.276,0.044-0.415,0.061C-383.852,20.248-383.714,20.227-383.576,20.204z"
   id="path311" />
		<path
   d="M-390.313,5.554c0.22-0.044,0.443-0.079,0.667-0.107c-0.075,0.009-0.149,0.019-0.224,0.03    C-390.018,5.499-390.166,5.525-390.313,5.554c-0.073,0.015-0.147,0.03-0.22,0.046c-0.146,0.033-0.291,0.069-0.434,0.109    c-0.056,0.015-0.111,0.032-0.166,0.048C-390.864,5.677-390.59,5.609-390.313,5.554z"
   id="path313" />
		<path
   d="M-378.643,17.648L-378.643,17.648c-0.62,0.62-1.313,1.139-2.059,1.551C-379.956,18.787-379.263,18.268-378.643,17.648z"
   id="path315" />
		<path
   d="M-375.237,1.76c-0.075-0.086-0.152-0.171-0.233-0.253c-0.111-0.111-0.227-0.217-0.348-0.315    c0.12,0.099,0.236,0.204,0.348,0.315C-375.389,1.589-375.312,1.674-375.237,1.76z"
   id="path317" />
		<path
   d="M-370.151,7.885c-0.031,0.088-0.063,0.176-0.096,0.263C-370.214,8.061-370.182,7.973-370.151,7.885z"
   id="path319" />
		<path
   d="M-393.132,15.644L-393.132,15.644c0.407,0.725,0.917,1.4,1.521,2.004c0.649,0.649,1.379,1.189,2.167,1.611    c-0.788-0.421-1.517-0.961-2.167-1.611C-392.215,17.044-392.725,16.37-393.132,15.644z"
   id="path321" />
		<path
   d="M-370.76,9.249c-0.041,0.074-0.082,0.148-0.125,0.221C-370.843,9.396-370.801,9.323-370.76,9.249z"
   id="path323" />
		<path
   d="M-387.825,5.403c-0.227-0.017-0.455-0.025-0.685-0.025c0.306,0,0.61,0.015,0.911,0.044    C-387.674,5.415-387.75,5.408-387.825,5.403z"
   id="path325" />
		<path
   d="M-386.707,5.554c0.142,0.028,0.283,0.06,0.423,0.095C-386.424,5.614-386.565,5.582-386.707,5.554    c-0.147-0.029-0.295-0.055-0.443-0.077c-0.074-0.011-0.149-0.021-0.224-0.03C-387.15,5.475-386.927,5.51-386.707,5.554z"
   id="path327" />
		<path
   d="M-370.577,8.897c-0.028,0.057-0.056,0.113-0.086,0.169C-370.633,9.01-370.605,8.953-370.577,8.897z"
   id="path329" />
		<path
   fill="#c8a461"
   d="M-369.736,6.203c-0.022,0.149-0.048,0.297-0.077,0.443C-369.784,6.5-369.758,6.352-369.736,6.203z"
   id="path331" />
		<path
   fill="#c8a461"
   d="M-377.447-4.226c0.149,0.022,0.297,0.048,0.443,0.077C-377.15-4.179-377.298-4.204-377.447-4.226z"
   id="path333" />
		<path
   fill="#c8a461"
   d="M-369.911,7.084c-0.036,0.145-0.076,0.288-0.119,0.431C-369.987,7.372-369.947,7.229-369.911,7.084z"
   id="path335" />
		<path
   fill="#c8a461"
   d="M-370.248,8.148c-0.098,0.255-0.208,0.504-0.329,0.749C-370.456,8.652-370.346,8.402-370.248,8.148z"
   id="path337" />
		<path
   fill="#c8a461"
   d="M-370.03,7.515c-0.038,0.124-0.078,0.247-0.121,0.37C-370.108,7.762-370.068,7.639-370.03,7.515z"
   id="path339" />
		<path
   fill="#c8a461"
   d="M-375.711-3.793c0.77,0.275,1.501,0.654,2.175,1.13C-374.211-3.139-374.941-3.517-375.711-3.793z"
   id="path341" />
		<path
   fill="#c8a461"
   d="M-370.82,0.331c-0.404-0.713-0.908-1.376-1.503-1.971c-0.379-0.379-0.785-0.72-1.214-1.023    c0.429,0.303,0.835,0.644,1.214,1.023C-371.727-1.045-371.224-0.382-370.82,0.331z"
   id="path343" />
		<path
   fill="#c8a461"
   d="M-369.813,3.041c0.029,0.147,0.055,0.295,0.077,0.443C-369.758,3.336-369.784,3.188-369.813,3.041z"
   id="path345" />
		<path
   fill="#c8a461"
   d="M-370.03,2.173c0.043,0.142,0.083,0.286,0.119,0.431C-369.947,2.459-369.987,2.315-370.03,2.173z"
   id="path347" />
		<path
   fill="#c8a461"
   d="M-370.17,1.749c0.05,0.14,0.097,0.281,0.14,0.424C-370.073,2.03-370.12,1.889-370.17,1.749z"
   id="path349" />
		<path
   fill="#c8a461"
   d="M-370.82,0.331c0.074,0.13,0.144,0.261,0.211,0.394C-370.676,0.592-370.746,0.461-370.82,0.331z"
   id="path351" />
		<path
   fill="#c8a461"
   d="M-376.566-4.052c0.217,0.054,0.432,0.116,0.644,0.186C-376.134-3.935-376.349-3.997-376.566-4.052z"
   id="path353" />
		<path
   fill="#c8a461"
   d="M-377.004-4.15c0.147,0.029,0.293,0.062,0.437,0.098C-376.711-4.088-376.857-4.121-377.004-4.15z"
   id="path355" />
		<path
   fill="#c8a461"
   d="M-370.662,9.065c-0.032,0.061-0.065,0.122-0.098,0.183C-370.727,9.188-370.694,9.127-370.662,9.065z"
   id="path357" />
		<path
   fill="#c8a461"
   d="M-382.887,20.06c-0.145,0.036-0.291,0.069-0.437,0.098C-383.177,20.129-383.032,20.096-382.887,20.06z"
   id="path359" />
		<path
   fill="#c8a461"
   d="M-372.323,11.328c0.564-0.564,1.044-1.188,1.437-1.858C-371.278,10.139-371.759,10.764-372.323,11.328    L-372.323,11.328z"
   id="path361" />
		<path
   fill="#c8a461"
   d="M-381.318,19.51c-0.06,0.027-0.12,0.054-0.181,0.08C-381.439,19.564-381.378,19.538-381.318,19.51z"
   id="path363" />
		<path
   fill="#c8a461"
   d="M-380.702,19.2c-0.07,0.039-0.14,0.076-0.211,0.113C-380.842,19.276-380.772,19.238-380.702,19.2z"
   id="path365" />
		<path
   fill="#c8a461"
   d="M-382.243,19.873c-0.212,0.07-0.427,0.132-0.644,0.186C-382.67,20.006-382.455,19.943-382.243,19.873z"
   id="path367" />
		<path
   fill="#c8a461"
   d="M-370.609,0.725c0.134,0.266,0.254,0.538,0.361,0.815C-370.354,1.262-370.475,0.991-370.609,0.725z"
   id="path369" />
		<path
   fill="#c8a461"
   d="M-383.324,20.158c-0.084,0.017-0.168,0.032-0.252,0.046C-383.492,20.189-383.408,20.174-383.324,20.158z"
   id="path371" />
		<path
   fill="#c8a461"
   d="M-374.111,5.312c-0.023,0.232-0.062,0.461-0.118,0.684C-374.173,5.773-374.134,5.545-374.111,5.312z"
   id="path373" />
		<path
   fill="#c8a461"
   d="M-381.961,14.663c-0.29,0.263-0.607,0.486-0.944,0.667C-382.568,15.149-382.251,14.926-381.961,14.663z"
   id="path375" />
		<path
   fill="#c8a461"
   d="M-389.292,13.386c0.217,0.405,0.495,0.781,0.829,1.115c0.613,0.613,1.364,1.036,2.184,1.241    c-0.819-0.205-1.571-0.628-2.184-1.241C-388.798,14.167-389.075,13.791-389.292,13.386z"
   id="path377" />
		<path
   fill="#c8a461"
   d="M-389.695,12.352c0.035,0.137,0.076,0.272,0.124,0.405C-389.619,12.624-389.659,12.489-389.695,12.352    L-389.695,12.352z"
   id="path379" />
		<path
   fill="#c8a461"
   d="M-383.974,15.742c-0.149,0.037-0.3,0.067-0.453,0.09C-384.275,15.809-384.123,15.779-383.974,15.742z"
   id="path381" />
		<path
   fill="#c8a461"
   d="M-374.229,5.996c-0.037,0.149-0.082,0.296-0.133,0.44C-374.311,6.292-374.266,6.145-374.229,5.996z"
   id="path383" />
		<path
   fill="#c8a461"
   d="M-381.948,1.324c0.109-0.097,0.22-0.189,0.336-0.275C-381.728,1.135-381.84,1.227-381.948,1.324z"
   id="path385" />
		<path
   fill="#c8a461"
   d="M-374.641,7.065c-0.181,0.338-0.404,0.655-0.666,0.944C-375.045,7.72-374.822,7.403-374.641,7.065z"
   id="path387" />
		<path
   fill="#c8a461"
   d="M-374.229,3.691c0.037,0.149,0.067,0.3,0.09,0.453C-374.162,3.991-374.192,3.84-374.229,3.691z"
   id="path389" />
		<path
   fill="#c8a461"
   d="M-375.237,1.76c0.232,0.267,0.432,0.556,0.596,0.862C-374.805,2.316-375.005,2.027-375.237,1.76z"
   id="path391" />
		<path
   fill="#c8a461"
   d="M-385.596,15.86c-0.232-0.023-0.461-0.062-0.684-0.118C-386.056,15.798-385.828,15.837-385.596,15.86z"
   id="path393" />
		<path
   fill="#c8a461"
   d="M-369.736,3.484c-0.939-6.359-8.333-9.828-13.826-6.484c-1.413,0.86-2.542,2.174-3.703,3.335    c-0.981,0.981-1.962,1.962-2.943,2.943c1.392-0.207,2.823-0.159,4.196,0.148c0.178,0.04,1.448,0.502,1.513,0.437    c0.137-0.137,0.275-0.275,0.412-0.412c0.843-0.843,1.664-1.867,2.664-2.536c2.179-1.458,5.205-0.792,6.606,1.406    c1.191,1.868,0.864,4.341-0.689,5.894c-1.8,1.8-3.6,3.6-5.4,5.4c-0.837,0.837-1.618,1.676-2.792,2.048    c-2.538,0.803-5.33-0.726-5.997-3.311c-0.924,0.502-1.656,1.511-2.394,2.249c-0.338,0.338-0.676,0.676-1.014,1.014    c-0.32,0.32,1.975,2.493,2.255,2.717c3.632,2.91,8.973,2.548,12.24-0.72c1.73-1.73,3.46-3.46,5.191-5.191    c0.761-0.761,1.56-1.498,2.173-2.39C-369.934,8.131-369.399,5.767-369.736,3.484z"
   id="path395" />
		<path
   fill="#c8a461"
   d="M-387.374,5.447c0.075,0.009,0.149,0.019,0.224,0.03c-0.223-0.033-0.448-0.058-0.675-0.074    c0.076,0.006,0.151,0.012,0.226,0.019C-387.524,5.43-387.449,5.438-387.374,5.447z"
   id="path397" />
		<path
   fill="#c8a461"
   d="M-386.284,5.649c-0.14-0.035-0.281-0.066-0.423-0.095c-0.147-0.029-0.295-0.055-0.443-0.077    c0.149,0.022,0.297,0.048,0.443,0.077C-386.565,5.582-386.424,5.614-386.284,5.649z"
   id="path399" />
		<path
   fill="#c8a461"
   d="M-390.967,5.709c-0.072,0.02-0.143,0.041-0.215,0.062c0.016-0.005,0.032-0.009,0.048-0.014    C-391.078,5.741-391.022,5.724-390.967,5.709z"
   id="path401" />
		<path
   fill="#c8a461"
   d="M-390.967,5.709c0.144-0.04,0.288-0.076,0.434-0.109C-390.678,5.633-390.823,5.669-390.967,5.709z"
   id="path403" />
		<path
   fill="#c8a461"
   d="M-391.846,11.211c2.331-2.332,6.433-1.523,7.698,1.53c0.875-0.876,1.749-1.752,2.624-2.628    c0.549-0.55,0.787-0.514,0.253-1.197c-0.744-0.952-1.674-1.759-2.725-2.355c-2.066-1.172-4.57-1.486-6.865-0.879    c-1.967,0.52-3.444,1.695-4.852,3.103c-1.534,1.534-3.069,3.069-4.603,4.603c-1.42,1.42-2.691,2.833-3.29,4.81    c-0.752,2.483-0.408,5.241,0.949,7.454c2.897,4.721,9.527,5.806,13.752,2.217c1.88-1.597,3.556-3.512,5.3-5.256    c-2.082,0.004-4.164,0.008-6.246,0.013c-0.266,0.001-0.743,0.681-0.922,0.86c-0.458,0.458-0.899,0.95-1.44,1.312    c-1.884,1.26-4.472,0.96-6.032-0.675c-1.639-1.719-1.731-4.491-0.184-6.303c0.666-0.78,1.448-1.472,2.173-2.197    C-394.787,14.152-393.317,12.681-391.846,11.211z"
   id="path405" />
		<path
   d="M-390.01,10.072c-0.104,0.034-0.206,0.072-0.307,0.114C-390.216,10.144-390.113,10.106-390.01,10.072z"
   id="path407" />
		<path
   d="M-391.181,5.771c-0.142,0.043-0.284,0.09-0.424,0.14c0.156-0.056,0.313-0.107,0.472-0.154    C-391.149,5.762-391.165,5.766-391.181,5.771z"
   id="path409" />
		<path
   fill="#c8a461"
   d="M-389.869,5.477c-0.149,0.022-0.297,0.048-0.443,0.077c-0.073,0.015-0.147,0.03-0.219,0.046    c0.073-0.016,0.146-0.032,0.22-0.046C-390.166,5.525-390.018,5.499-389.869,5.477z"
   id="path411" />
		<path
   fill="#c8a461"
   d="M-389.704,12.317c0.003,0.012,0.007,0.023,0.01,0.035l0,0C-389.698,12.34-389.701,12.329-389.704,12.317z"
   id="path413" />
		<path
   fill="#c8a461"
   d="M-393.08,6.594L-393.08,6.594c-0.174,0.101-0.346,0.207-0.514,0.319    C-393.426,6.801-393.255,6.695-393.08,6.594L-393.08,6.594z"
   id="path415" />
		<path
   fill="#c8a461"
   d="M-386.767,25.772l-1.58,1.58c-0.108,0.108-0.219,0.213-0.331,0.316c0.113-0.102,0.223-0.207,0.331-0.316    L-386.767,25.772l1.58-1.58l1.58-1.58l0,0l-1.58,1.58L-386.767,25.772z"
   id="path417" />
		<path
   fill="#c8a461"
   d="M-401.63,27.021c0.102,0.113,0.207,0.223,0.316,0.331c0.158,0.158,0.323,0.308,0.491,0.453    c-0.168-0.145-0.332-0.295-0.491-0.453C-401.423,27.244-401.528,27.133-401.63,27.021z"
   id="path419" />
		<path
   fill="#c8a461"
   d="M-392.292,6.189c-0.09,0.041-0.179,0.083-0.267,0.126c-0.088,0.044-0.176,0.089-0.263,0.135    C-392.648,6.357-392.471,6.27-392.292,6.189z"
   id="path421" />
		<path
   fill="#c8a461"
   d="M-391.842,24.52c-0.12,0.099-0.244,0.191-0.372,0.277c-0.025,0.017-0.05,0.032-0.076,0.048    c0.025-0.016,0.051-0.031,0.076-0.048C-392.086,24.711-391.962,24.618-391.842,24.52z"
   id="path423" />
		<path
   fill="#c8a461"
   d="M-389.914,22.624l3.157-0.006L-389.914,22.624l-1.58,1.58c-0.056,0.056-0.113,0.11-0.17,0.162    c0.058-0.053,0.115-0.107,0.17-0.162L-389.914,22.624z"
   id="path425" />
		<path
   fill="#c8a461"
   d="M-395.288,30.026c-0.152-0.007-0.303-0.018-0.453-0.033C-395.591,30.008-395.44,30.019-395.288,30.026z"
   id="path427" />
		<path
   fill="#c8a461"
   d="M-399.395,19.667c-0.024,0.09-0.045,0.181-0.064,0.273C-399.44,19.848-399.418,19.758-399.395,19.667z"
   id="path429" />
		<polygon
   fill="#c8a461"
   points="-380.876,9.463 -380.876,9.463 -384.149,12.741   "
   id="polygon431" />
		<path
   fill="#c8a461"
   d="M-393.903,25.496c0.302-0.06,0.596-0.149,0.879-0.266C-393.307,25.347-393.601,25.436-393.903,25.496z"
   id="path433" />
		<path
   fill="#c8a461"
   d="M-394.595,25.581c0.234-0.011,0.466-0.04,0.692-0.085C-394.13,25.541-394.361,25.569-394.595,25.581z"
   id="path435" />
	</g>
	<g
   id="g437">
		<path
   fill="#c8a461"
   d="M-313.667,3h-2v-5.485c0-0.646-0.754-1.515-1.401-1.515h-16.967c-0.646,0-1.633,0.869-1.633,1.515V3h-2    v-5.485c0-1.938,1.695-3.515,3.633-3.515h16.967c1.938,0,3.401,1.577,3.401,3.515V3z"
   id="path439" />
		<g
   id="g441">
			<path
   fill="#c8a461"
   d="M-340.603,5.155c-2.2,0-4,1.8-4,4V20.98c0,2.2,1.8,4,4,4h1.663c2.2,0,4-1.36,4-3.023s1.8-3.023,4-3.023     h10.748c2.2,0,4,1.36,4,3.023s1.8,3.023,4,3.023h1.741c2.2,0,4-1.8,4-4V9.155c0-2.2-1.8-4-4-4H-340.603z M-311.213,12.755     c-1.242,0-2.25-1.007-2.25-2.25s1.007-2.25,2.25-2.25c1.242,0,2.25,1.007,2.25,2.25S-309.97,12.755-311.213,12.755z"
   id="path443" />
		</g>
		<path
   fill="#c8a461"
   d="M-334.667,19v12.964c0,0.508,0.156,1.036,0.664,1.036h16.873c0.508,0,0.463-0.528,0.463-1.036V19h3v12.964    c0,2.067-1.396,4.036-3.463,4.036h-16.873c-2.067,0-3.664-1.969-3.664-4.036V19H-334.667z"
   id="path445" />
		<rect
   x="-332.667"
   y="26"
   fill="#c8a461"
   width="11"
   height="3"
   id="rect447" />
		<rect
   x="-332.667"
   y="21"
   fill="#c8a461"
   width="14"
   height="3"
   id="rect449" />
	</g>
	<path
   fill="#c8a461"
   d="M-1038.667,5h-314v-210h314V5z M-1332.667-15h274v-170h-274V-15z"
   id="path451" />
	<g
   id="g453">
		<polygon
   fill="#c8a461"
   points="-1180.282,-87.506 -1056.356,-1.776 -1044.978,-18.224 -1163.092,-99.933   "
   id="polygon455" />
		<polygon
   fill="#c8a461"
   points="-1350.526,-12.104 -1338.808,4.104 -1212.797,-86.998 -1230.241,-99.067   "
   id="polygon457" />
		<polygon
   fill="#c8a461"
   points="-1336.978,-197.224 -1348.356,-180.776 -1230.241,-99.067 -1213.051,-111.494   "
   id="polygon459" />
		<polygon
   fill="#c8a461"
   points="-1042.808,-186.896 -1054.526,-203.104 -1180.537,-112.002 -1163.092,-99.933   "
   id="polygon461" />
		<polygon
   fill="#c8a461"
   points="-1212.797,-86.998 -1196.539,-75.752 -1180.282,-87.506 -1196.539,-98.752   "
   id="polygon463" />
		<polygon
   fill="#c8a461"
   points="-1180.537,-112.002 -1196.794,-100.248 -1213.051,-111.494 -1230.241,-99.067 -1212.797,-86.998     -1196.539,-98.752 -1180.282,-87.506 -1163.092,-99.933   "
   id="polygon465" />
	</g>
	<g
   id="g467">
		<path
   fill="#c8a461"
   d="M-237.667,28h-44V-3h44V28z M-279.667,25h40V-1h-40V25z"
   id="path469" />
		<g
   id="g471">
			<polygon
   fill="none"
   points="-260.569,12.226 -259.754,12.838 -258.939,12.226 -259.754,11.614    "
   id="polygon473" />
			<path
   fill="#c8a461"
   d="M-259.754,12.838l-0.408-0.306l-0.408-0.306l-0.827,0.621l-0.827,0.621c0,0,0.895,0.744,1.234,0.927     c0.276,0.149,0.832,0.299,1.218,0.299c0.386,0,0.967-0.148,1.251-0.299c0.341-0.181,1.234-0.927,1.234-0.927l-0.827-0.621     l-0.827-0.621l-0.408,0.306L-259.754,12.838z"
   id="path475" />
			<polygon
   fill="#c8a461"
   points="-238.173,-0.882 -239.365,-2.47 -257.285,10.984 -255.632,12.226    "
   id="polygon477" />
			<polygon
   fill="#c8a461"
   points="-280.144,-2.47 -281.336,-0.882 -263.877,12.226 -262.223,10.984    "
   id="polygon479" />
			<polygon
   fill="#c8a461"
   points="-281.336,25.334 -280.144,26.922 -262.223,13.468 -263.877,12.226    "
   id="polygon481" />
			<polygon
   fill="#c8a461"
   points="-257.285,13.468 -239.365,26.922 -238.173,25.334 -255.632,12.226    "
   id="polygon483" />
			<polygon
   fill="#c8a461"
   points="-262.223,10.984 -263.877,12.226 -262.223,13.468 -260.569,12.226    "
   id="polygon485" />
			<polygon
   fill="#c8a461"
   points="-257.285,10.984 -258.939,12.226 -257.285,13.468 -255.632,12.226    "
   id="polygon487" />
		</g>
	</g>
	<g
   id="g489">
		<path
   fill="#c8a461"
   d="M47.333,35h-44V4h44V35z M5.333,32h40V6h-40V32z"
   id="path491" />
		<g
   id="g493">
			<polygon
   fill="none"
   points="24.431,19.226 25.246,19.838 26.061,19.226 25.246,18.614    "
   id="polygon495" />
			<path
   fill="#c8a461"
   d="M25.246,19.838l-0.408-0.306l-0.408-0.306l-0.827,0.621l-0.827,0.621c0,0,0.895,0.744,1.234,0.927     c0.276,0.149,0.832,0.299,1.218,0.299c0.386,0,0.967-0.148,1.251-0.299c0.341-0.181,1.234-0.927,1.234-0.927l-0.827-0.621     l-0.827-0.621l-0.408,0.306L25.246,19.838z"
   id="path497" />
			<polygon
   fill="#c8a461"
   points="46.827,6.118 45.635,4.53 27.715,17.984 29.368,19.226    "
   id="polygon499" />
			<polygon
   fill="#c8a461"
   points="4.856,4.53 3.664,6.118 21.123,19.226 22.777,17.984    "
   id="polygon501" />
			<polygon
   fill="#c8a461"
   points="3.664,32.334 4.856,33.922 22.777,20.468 21.123,19.226    "
   id="polygon503" />
			<polygon
   fill="#c8a461"
   points="27.715,20.468 45.635,33.922 46.827,32.334 29.368,19.226    "
   id="polygon505" />
			<polygon
   fill="#c8a461"
   points="22.777,17.984 21.123,19.226 22.777,20.468 24.431,19.226    "
   id="polygon507" />
			<polygon
   fill="#c8a461"
   points="27.715,17.984 26.061,19.226 27.715,20.468 29.368,19.226    "
   id="polygon509" />
		</g>
	</g>
</g>
</svg>