<?xml version="1.0" encoding="utf-8"?>
<!-- Generator: Adobe Illustrator 19.1.0, SVG Export Plug-In . SVG Version: 6.00 Build 0)  -->
<svg version="1.1" id="Calque_1" xmlns="http://www.w3.org/2000/svg" xmlns:xlink="http://www.w3.org/1999/xlink" x="0px" y="0px"
	 viewBox="0 0 16 20" style="enable-background:new 0 0 16 20;" xml:space="preserve">
<g>
	<path d="M2.3,20L2.3,20C1,20,0,19,0,17.7L0,2.3C0,1,1,0,2.3,0h0c1.3,0,2.3,1,2.3,2.3v15.4C4.6,19,3.5,20,2.3,20z"  fill="#fff"/>
	<path d="M13.7,20L13.7,20c-1.3,0-2.3-1-2.3-2.3V2.3c0-1.3,1-2.3,2.3-2.3h0C15,0,16,1,16,2.3v15.4C16,19,15,20,13.7,20z"  fill="#fff"/>
</g>
</svg>
