<?xml version="1.0" encoding="utf-8"?>
<!-- Generator: Adobe Illustrator 19.1.0, SVG Export Plug-In . SVG Version: 6.00 Build 0)  -->
<svg version="1.1" id="Calque_1" xmlns="http://www.w3.org/2000/svg" xmlns:xlink="http://www.w3.org/1999/xlink" x="0px" y="0px"
	 viewBox="0 0 15.5 18" style="enable-background:new 0 0 15.5 18;" xml:space="preserve">
<path d="M13.2,4.4H8.9l3.3-3.3c0.2-0.2,0.2-0.6,0-0.9c-0.2-0.2-0.6-0.2-0.9,0L7.7,3.8L5.4,1.5c-0.2-0.2-0.6-0.2-0.9,0
	c-0.2,0.2-0.2,0.6,0,0.9l1.9,1.9H2.3C1.1,4.3,0,5.4,0,6.7v7.6c0,1.3,1,2.3,2.3,2.3h1.4v1c0,0.3,0.2,0.5,0.5,0.5h7.1
	c0.3,0,0.5-0.2,0.5-0.5v-1h1.4c1.3,0,2.3-1,2.3-2.3V6.7C15.5,5.4,14.5,4.4,13.2,4.4z M14.3,14.3c0,0.6-0.5,1.1-1.1,1.1H2.4
	c-0.6,0-1.1-0.5-1.1-1.1V6.7c0-0.6,0.5-1.1,1.1-1.1h10.8c0.6,0,1.1,0.5,1.1,1.1L14.3,14.3L14.3,14.3z"/>
</svg>
