<?xml version="1.0" encoding="UTF-8" standalone="no"?>
<!-- Generator: Adobe Illustrator 17.0.0, SVG Export Plug-In . SVG Version: 6.00 Build 0)  -->

<svg
   xmlns:dc="http://purl.org/dc/elements/1.1/"
   xmlns:cc="http://creativecommons.org/ns#"
   xmlns:rdf="http://www.w3.org/1999/02/22-rdf-syntax-ns#"
   xmlns:svg="http://www.w3.org/2000/svg"
   xmlns="http://www.w3.org/2000/svg"
   xmlns:sodipodi="http://sodipodi.sourceforge.net/DTD/sodipodi-0.dtd"
   xmlns:inkscape="http://www.inkscape.org/namespaces/inkscape"
   version="1.1"
   x="0px"
   y="0px"
   width="50px"
   height="50px"
   viewBox="0 0 50 50"
   enable-background="new 0 0 50 50"
   xml:space="preserve"
   id="svg2"
   inkscape:version="0.48.4 r9939"
   sodipodi:docname="Print.svgz"><metadata
   id="metadata529"><rdf:RDF><cc:Work
       rdf:about=""><dc:format>image/svg+xml</dc:format><dc:type
         rdf:resource="http://purl.org/dc/dcmitype/StillImage" /><dc:title></dc:title></cc:Work></rdf:RDF></metadata><defs
   id="defs527" /><sodipodi:namedview
   pagecolor="#c8a461"
   bordercolor="#666666"
   borderopacity="1"
   objecttolerance="10"
   gridtolerance="10"
   guidetolerance="10"
   inkscape:pageopacity="0"
   inkscape:pageshadow="2"
   inkscape:window-width="1920"
   inkscape:window-height="1017"
   id="namedview525"
   showgrid="false"
   inkscape:zoom="4.72"
   inkscape:cx="25"
   inkscape:cy="126.69492"
   inkscape:window-x="-8"
   inkscape:window-y="-8"
   inkscape:window-maximized="1"
   inkscape:current-layer="svg2" />
<g
   id="Calque_1">
	<rect
   x="-629"
   y="-787.667"
   width="454"
   height="978"
   id="rect5" />
	<g
   id="g7">
		<path
   fill="#C8A461"
   d="M-417.504-621.546c-12.854,0-23.312-10.456-23.312-23.31c0-12.856,10.459-23.311,23.312-23.311    c12.853,0,23.31,10.455,23.31,23.311C-394.194-632.002-404.65-621.546-417.504-621.546z M-417.504-656.16    c-6.234,0-11.307,5.07-11.307,11.305c0,6.232,5.072,11.306,11.307,11.306c6.234,0,11.303-5.074,11.303-11.306    C-406.201-651.09-411.27-656.16-417.504-656.16z"
   id="path9" />
	</g>
	<path
   fill="#C8A461"
   d="M-355.956-642.519c0,6.427-5.216,11.642-11.639,11.642c-6.428,0-11.641-5.215-11.641-11.642   c0-6.428,5.213-11.642,11.641-11.642C-361.172-654.161-355.956-648.947-355.956-642.519z"
   id="path11" />
	<g
   id="g13">
		<polygon
   fill="#C8A461"
   points="-332.696,-635.355 -344.08,-646.742 -341.248,-649.571 -332.696,-641.015 -324.134,-649.571     -321.306,-646.742   "
   id="polygon15" />
	</g>
	<g
   id="g17">
		<polygon
   fill="#C8A461"
   points="-292.236,-638.738 -300.786,-647.297 -309.341,-638.738 -312.174,-641.567 -300.786,-652.954     -289.403,-641.567   "
   id="polygon19" />
	</g>
	<g
   id="g21">
		<g
   id="g23">
			<polygon
   fill="#C8A461"
   points="-297,-702.667 -304,-702.667 -304,-706.667 -302,-706.667 -302,-734.667 -347,-734.667      -347,-739.667 -297,-739.667    "
   id="polygon25" />
		</g>
		<g
   id="g27">
			<g
   id="g29">
				<path
   fill="#C8A461"
   d="M-306-692.667h-51v-37h51V-692.667z M-352-697.667h42v-27h-42V-697.667z"
   id="path31" />
			</g>
			<circle
   fill="#C8A461"
   cx="-344.291"
   cy="-718.119"
   r="3.767"
   id="circle33" />
			<polygon
   fill="#C8A461"
   points="-340.106,-700.667 -313,-700.667 -313,-714.077 -318.58,-721.235 -326.495,-711.799      -331.024,-714.478    "
   id="polygon35" />
		</g>
	</g>
	<polygon
   fill="#C8A461"
   points="-397,-739.542 -397,-692.917 -374.465,-716.229  "
   id="polygon37" />
	<g
   id="g39">
		<g
   id="g41">
			<rect
   x="-260"
   y="-739.667"
   fill="#C8A461"
   width="36"
   height="5"
   id="rect43" />
		</g>
		<g
   id="g45">
			<rect
   x="-221"
   y="-739.667"
   fill="#C8A461"
   width="5"
   height="5"
   id="rect47" />
		</g>
		<g
   id="g49">
			<rect
   x="-252"
   y="-725.667"
   fill="#C8A461"
   width="28"
   height="5"
   id="rect51" />
		</g>
		<g
   id="g53">
			<rect
   x="-221"
   y="-725.667"
   fill="#C8A461"
   width="5"
   height="5"
   id="rect55" />
		</g>
		<g
   id="g57">
			<rect
   x="-265"
   y="-711.667"
   fill="#C8A461"
   width="41"
   height="5"
   id="rect59" />
		</g>
		<g
   id="g61">
			<rect
   x="-221"
   y="-711.667"
   fill="#C8A461"
   width="5"
   height="5"
   id="rect63" />
		</g>
		<g
   id="g65">
			<rect
   x="-265"
   y="-697.667"
   fill="#C8A461"
   width="22"
   height="5"
   id="rect67" />
		</g>
		<polygon
   fill="#C8A461"
   points="-271,-739.667 -271,-711.417 -257.346,-725.542   "
   id="polygon69" />
	</g>
	<g
   id="g71">
		<path
   fill="#C8A461"
   d="M-545-733.667v-6h-4v6h-29v-6h-4v6h-4v41h45v-41H-545z M-545-697.667h-37v-26h37V-697.667z"
   id="path73" />
		<g
   id="g75">
			<path
   fill="#C8A461"
   d="M-572.629-715.385h-0.054l-3.354,1.596l-0.677-3.084l4.68-2.164h3.382v17.583h-3.977V-715.385z"
   id="path77" />
			<path
   fill="#C8A461"
   d="M-550.258-719.037v2.597l-7.249,14.986h-4.355l7.249-14.147v-0.054h-8.06v-3.381H-550.258z"
   id="path79" />
		</g>
	</g>
	<g
   id="g81">
		<path
   fill="#c8a461"
   d="M-399-209.667v-6h-4v6h-29v-6h-4v6h-4v41h45v-41H-399z M-399-173.667h-37v-26h37V-173.667z"
   id="path83" />
		<g
   id="g85">
			<path
   fill="#c8a461"
   d="M-426.629-191.385h-0.054l-3.354,1.596l-0.677-3.084l4.68-2.164h3.382v17.583h-3.977V-191.385z"
   id="path87" />
			<path
   fill="#c8a461"
   d="M-404.258-195.038v2.598l-7.249,14.985h-4.355l7.249-14.147v-0.054h-8.061v-3.382H-404.258z"
   id="path89" />
		</g>
	</g>
	<g
   id="g91">
		<g
   id="g93">
			<rect
   x="-475"
   y="-739.667"
   fill="#C8A461"
   width="55"
   height="5"
   id="rect95" />
		</g>
		<g
   id="g97">
			<rect
   x="-475"
   y="-725.667"
   fill="#C8A461"
   width="55"
   height="5"
   id="rect99" />
		</g>
		<g
   id="g101">
			<rect
   x="-475"
   y="-711.667"
   fill="#C8A461"
   width="55"
   height="5"
   id="rect103" />
		</g>
		<g
   id="g105">
			<rect
   x="-475"
   y="-697.667"
   fill="#C8A461"
   width="27"
   height="5"
   id="rect107" />
		</g>
	</g>
	<g
   id="g109">
		<polygon
   fill="#C8A461"
   points="-275.359,-632.766 -278.19,-635.596 -269.629,-644.153 -278.19,-652.71 -275.359,-655.539     -263.973,-644.153   "
   id="polygon111" />
	</g>
	<g
   id="g113">
		<g
   id="g115">
			<path
   fill="#C8A461"
   d="M-497.165-668.667c-23.744,0-42.82,10.564-42.82,23.36s18.885,23.355,42.82,23.355     c23.794,0,42.814-10.559,42.814-23.355S-473.465-668.667-497.165-668.667z M-497.21-623.167     c-21.844,0-40.536-10.112-40.536-22.152c0-12.04,19.121-22.374,40.536-22.374c21.794,0,40.512,10.334,40.512,22.374     C-456.698-633.278-475.512-623.167-497.21-623.167z"
   id="path117" />
			<path
   fill="#C8A461"
   d="M-464.881-648.216c-1.318,0.269-2.542,0.69-3.796,1.064c-0.808,0.242-1.628,0.463-2.496,0.612     l-0.355-0.005l0.155-0.234c0.121-0.126,0.244-0.25,0.369-0.373c1.253-1.229,2.673-2.291,3.983-3.482     c0.411-0.48,1.312-0.847,1.022-1.72c-0.268-0.139-0.989,0.152-1.335,0.306c-2.55,1.316-4.896,2.795-7.051,4.851     c-0.062,0.06-0.125,0.12-0.188,0.18c-1.224,0.924-1.448,3.063-3.28,2.94c-1.161-0.107-1.328-0.095-1.775-0.253     c1.867-1.442,5.461-6.209,5.782-7.348c0,0,0.322-1.031-0.123-0.997c-1.713,0.623-3.329,2.074-4.663,3.247     c0.125-0.578,1.062-1.683,0.605-2.35c-2.965,0.625-7.146,4.592-7.166,4.605c-0.795,0.526-1.088,2.22-2.324,1.968     c-0.774-0.105-1.705-0.116-2.161-0.377c0.796-0.474,1.557-1.004,2.295-1.571c1.712-1.315,3.302-2.826,4.923-4.281     c0.092-0.213,0.626-0.424,0.322-0.745c-0.517-0.414-1.123,0.196-1.684,0.295c-2.567,1.125-4.302,2.639-5.997,4.73     c-0.316,0.392-0.789,0.894-1.071,1.345c-1.21-0.142-1.855-0.078-2.447-0.462c0.36-0.298,0.727-0.59,1.096-0.883     c1.976-1.565,3.99-3.108,5.497-5.429c-0.152-0.788-0.944-0.156-1.325-0.006c-2.695,1.331-4.911,2.972-6.609,5.572     c-0.104,0.16-0.206,0.325-0.303,0.496c-1.187-0.032-2.213-0.265-3.238-0.499c-0.021-0.005-0.044-0.01-0.065-0.015l0.009-0.11     c2.585-1.321,4.887-3.589,6.668-6.27c0,0,1.479-2.594-1.765-0.45c-2.421,1.557-4.626,3.612-6.172,6.534     c0,0-1.628,0.061-1.628-0.116c1.568-1.925,3.388-4.408,4.309-6.943c0.088-0.397,0.328-1.224-0.253-1.312     c-2.181,0.914-3.62,3.478-4.788,5.88c-0.356,0.706-0.552,1.596-0.869,2.268c-1.458-0.072-2.466,0.056-3.865-0.361     c1.755-1.541,3.671-2.81,5.27-4.659c0.27-0.504,2.067-1.735,2.022-3.323c-0.56-0.343-1.122,0.062-1.465,0.314l-4.923,3.924     l-0.259,0.014c0.786-1.405,2.499-3.459,3.202-4.91c0.237-0.488,0.529-0.93,0.508-1.521l-0.435-0.141     c-3.56,1.531-6.628,5.02-7.832,9.519c-0.294,0.417-0.438,1.214-1.043,0.977c-0.077-1.222-0.456-2.361-0.875-3.466     c-1.527-3.191-3.717-5.52-6.518-7.201c-0.456-0.261-0.72,0.232-0.569,0.613c0.393,2.246,1.78,3.656,2.736,5.361     c1.136,1.757,2.679,3.346,3.976,4.933c-0.442,0.15-10.567,2.562-12.368,4.02c-0.944,0.521-2.457,1.728-2.434,4.377     c0.079,0.78,0.625,1.548,1.316,1.779c0.655,0.094,1.117,0.151,1.548-0.143c1.866-2.378,4.029-4.554,6.44-6.001     c1.654-0.866,2.869-1.715,4.77-1.954c0.782,0.731,1.29,1.692,2.36,2.578c2.105,1.917,3.954,3.219,6.859,3.695l0.29-0.097     l-0.106-0.267c-1.536-2.234-3.885-3.644-6.288-4.812c-0.41-0.312-1.407-0.837-1.462-1.469c1.479-0.496,3.451-0.64,5.229-0.213     c2.126,3.691,4.47,7.744,7.877,10.067c0.253,0.06,0.431-0.294,0.304-0.525c-2.362-5.752-3.872-6.27-6.293-8.913     c-0.13-0.196-0.312-0.654,0.034-0.807l2.262,0.036c0.728,0.1,1.724-0.107,1.901,0.213c0.109,3.804,2.559,6.711,4.036,9.604     c0,0,0.476,0.274,0.45-0.223l0.015-0.032c-0.604-6.698-3.113-8.24-3.493-9.378c0.387-0.027,0.811-0.003,1.127,0.171     c1.592,3.241,3.755,5.687,6.602,7.522c0.061,0.04,0.417,0.084,0.186-0.433c-0.828-2.784-3.387-4.208-5.044-6.306l-0.291-0.542     l0.336-0.044c0.711,0.141,1.67,0.302,2.193,0.642c0.946,1.814,2.224,3.215,3.584,4.513c1.127,1.019,2.091,2.209,3.793,2.543     l0.181-0.026l0.053-0.147l-0.053-0.216c-1.053-2.755-3.893-3.914-5.898-5.857c-0.136-0.123-0.387-0.624-0.012-0.702l3.228,0.469     c4.857,6.484,6.735,6.227,6.735,6.227s1.458,0.338,0.791-0.729c-1.584-1.646-2.964-2.401-4.858-3.902     c-0.34-0.325-1.191-0.898-1.102-1.48c0.693,0.106,0.81,0.098,2.224,0.258c0.445,0.063,1.047,0.141,1.388,0.293     c2.536,1.132,2.757,4.68,8.913,5.426c0.22,0.02,0.267-0.275,0.114-0.468c-1.759-1.37-6.344-4.444-6.625-4.798     c0.587,0.053,3.053,0.406,3.441,0.587c3.096,1.672,4.991,2.918,9.421,2.332c0.38-0.557-0.237-0.782-0.761-0.988l-2.495-0.97     c-0.323-0.102-1.708-0.374-2.207-0.534c2.652-0.836,6.149-1.802,8.483-3.218c0.37-0.29,0.808-0.512,1.169-0.831     c0.245-0.216,0.453-0.48,0.581-0.84C-464.27-648.386-464.881-648.216-464.881-648.216z M-509.453-647.753     c-0.279-0.172-0.058-0.513,0.028-0.652c0.083-0.103,1.035-1.814,1.875-1.374C-507.4-649.356-508.857-647.657-509.453-647.753z      M-480.245-647.147c-0.467,0.767-0.132,1.862-0.743,2.576l-4.136-0.533c2.4-0.854,4.352-2.495,5.506-3.163L-480.245-647.147z      M-475.783-643.96c-0.034-0.446,0.479-0.842,0.801-1.146c1.391-1.138,1.6-0.03,1.6-0.03     C-474.016-644.638-474.912-644.05-475.783-643.96z"
   id="path119" />
		</g>
	</g>
	<path
   fill="#c8a461"
   d="M-569.796-520.568c0,0-4.519,0-7.514,0c-4.464,0-9.423,1.871-9.423,8.33c0.022,2.248,0,4.403,0,6.828h-5.16   v8.199h5.32v23.605h9.774v-23.763h6.453l0.584-8.065h-7.206c0,0,0.019-3.59,0-4.631c0-2.551,2.661-2.406,2.817-2.406   c1.271,0,3.727,0.003,4.361,0v-8.099h-0.008V-520.568z"
   id="path121" />
	<path
   fill="#C8A461"
   d="M-569.796-433.568c0,0-4.519,0-7.514,0c-4.464,0-9.423,1.871-9.423,8.33c0.022,2.248,0,4.403,0,6.828h-5.16   v8.199h5.32v23.605h9.774v-23.762h6.453l0.584-8.065h-7.206c0,0,0.019-3.59,0-4.631c0-2.551,2.661-2.406,2.817-2.406   c1.271,0,3.727,0.003,4.361,0v-8.099h-0.008V-433.568z"
   id="path123" />
	<path
   fill="#999999"
   d="M-569.796-347.567c0,0-4.519,0-7.514,0c-4.464,0-9.423,1.87-9.423,8.329c0.022,2.248,0,4.403,0,6.827h-5.16   v8.199h5.32v23.605h9.774v-23.762h6.453l0.584-8.065h-7.206c0,0,0.019-3.591,0-4.631c0-2.551,2.661-2.405,2.817-2.405   c1.271,0,3.727,0.003,4.361,0v-8.1h-0.008V-347.567z"
   id="path125" />
	<path
   fill="#c8a461"
   d="M-503.493-520.569h-34.604c-3.224,0-5.836,2.614-5.836,5.836v35.022c0,3.224,2.612,5.836,5.836,5.836   h34.604c3.224,0,5.836-2.612,5.836-5.836v-35.022C-497.657-517.955-500.27-520.569-503.493-520.569z M-511.274-497.221   c0,5.25-4.271,9.522-9.52,9.522c-5.25,0-9.521-4.272-9.521-9.522c0-1.579,0.393-3.064,1.075-4.377   c1.588-3.051,4.773-5.145,8.446-5.145c3.671,0,6.857,2.092,8.445,5.145C-511.667-500.286-511.274-498.8-511.274-497.221z    M-502.869-481.478c0,1.321-1.071,2.393-2.393,2.393h-30.861c-1.321,0-2.393-1.071-2.393-2.393v-20.121h3.947   c-0.439,1.382-0.682,2.851-0.682,4.377c0,7.97,6.483,14.453,14.453,14.453c7.969,0,14.452-6.483,14.452-14.453   c0-1.526-0.241-2.995-0.682-4.377h4.155v20.121H-502.869z M-502.869-509.133c0,1.321-1.071,2.393-2.393,2.393h-3.624   c-1.321,0-2.394-1.071-2.394-2.393v-3.955c0-1.049,0.68-1.93,1.62-2.253h4.396c1.32,0,2.392,1.072,2.392,2.393v3.815H-502.869z"
   id="path127" />
	<path
   fill="#C8A461"
   d="M-503.493-433.435h-34.604c-3.224,0-5.836,2.614-5.836,5.836v35.022c0,3.224,2.612,5.836,5.836,5.836   h34.604c3.224,0,5.836-2.612,5.836-5.836v-35.022C-497.657-430.821-500.27-433.435-503.493-433.435z M-511.274-410.087   c0,5.251-4.271,9.522-9.52,9.522c-5.25,0-9.521-4.271-9.521-9.522c0-1.579,0.393-3.064,1.075-4.377   c1.588-3.051,4.773-5.145,8.446-5.145c3.671,0,6.857,2.092,8.445,5.145C-511.667-413.152-511.274-411.666-511.274-410.087z    M-502.869-394.344c0,1.322-1.071,2.392-2.393,2.392h-30.861c-1.321,0-2.393-1.07-2.393-2.392v-20.121h3.947   c-0.439,1.382-0.682,2.85-0.682,4.377c0,7.97,6.483,14.453,14.453,14.453c7.969,0,14.452-6.482,14.452-14.453   c0-1.526-0.241-2.995-0.682-4.377h4.155v20.121H-502.869z M-502.869-421.999c0,1.321-1.071,2.393-2.393,2.393h-3.624   c-1.321,0-2.394-1.071-2.394-2.393v-3.955c0-1.049,0.68-1.93,1.62-2.253h4.396c1.32,0,2.392,1.072,2.392,2.393v3.815H-502.869z"
   id="path129" />
	<path
   fill="#999999"
   d="M-503.493-347.434h-34.604c-3.224,0-5.836,2.613-5.836,5.836v35.021c0,3.224,2.612,5.836,5.836,5.836   h34.604c3.224,0,5.836-2.612,5.836-5.836v-35.021C-497.657-344.821-500.27-347.434-503.493-347.434z M-511.274-324.087   c0,5.25-4.271,9.522-9.52,9.522c-5.25,0-9.521-4.272-9.521-9.522c0-1.579,0.393-3.064,1.075-4.377   c1.588-3.051,4.773-5.145,8.446-5.145c3.671,0,6.857,2.092,8.445,5.145C-511.667-327.152-511.274-325.666-511.274-324.087z    M-502.869-308.344c0,1.322-1.071,2.392-2.393,2.392h-30.861c-1.321,0-2.393-1.07-2.393-2.392v-20.121h3.947   c-0.439,1.383-0.682,2.852-0.682,4.377c0,7.971,6.483,14.453,14.453,14.453c7.969,0,14.452-6.482,14.452-14.453   c0-1.525-0.241-2.994-0.682-4.377h4.155v20.121H-502.869z M-502.869-335.999c0,1.32-1.071,2.392-2.393,2.392h-3.624   c-1.321,0-2.394-1.072-2.394-2.392v-3.955c0-1.049,0.68-1.93,1.62-2.254h4.396c1.32,0,2.392,1.072,2.392,2.393v3.816H-502.869z"
   id="path131" />
	<path
   fill="#c8a461"
   d="M-460.327-520.567v12.066h11.99v7.57h-11.99v15.589c0,0-0.226,8.693,13.34,2.697v7.419   c0,0-4.722,1.8-12.291,1.8c-7.57,0-11.092-3.974-11.092-8.694c0-4.722,0-18.963,0-18.963h-5.996v-5.996   c0,0,9.744-3.523,9.817-13.49h6.222V-520.567z"
   id="path133" />
	<path
   fill="#C8A461"
   d="M-460.327-433.656v12.066h11.99v7.57h-11.99v15.589c0,0-0.226,8.692,13.34,2.696v7.42   c0,0-4.722,1.799-12.291,1.799c-7.57,0-11.092-3.974-11.092-8.693c0-4.723,0-18.963,0-18.963h-5.996v-5.996   c0,0,9.744-3.523,9.817-13.49h6.222V-433.656z"
   id="path135" />
	<path
   fill="#999999"
   d="M-460.327-347.657v12.066h11.99v7.57h-11.99v15.589c0,0-0.226,8.692,13.34,2.696v7.42   c0,0-4.722,1.799-12.291,1.799c-7.57,0-11.092-3.974-11.092-8.693c0-4.723,0-18.963,0-18.963h-5.996v-5.996   c0,0,9.744-3.523,9.817-13.49h6.222V-347.657z"
   id="path137" />
	<path
   fill="#c8a461"
   d="M-367.773-515.007c-2.128,0.944-4.413,1.583-6.816,1.869c2.452-1.468,4.332-3.795,5.219-6.565   c-2.291,1.36-4.831,2.348-7.538,2.88c-2.164-2.306-5.249-3.746-8.663-3.746c-6.552,0-11.865,5.311-11.865,11.868   c0,0.929,0.105,1.835,0.306,2.705c-9.863-0.496-18.608-5.22-24.461-12.399c-1.022,1.753-1.607,3.792-1.607,5.967   c0,4.116,2.096,7.749,5.279,9.877c-1.945-0.061-3.774-0.595-5.376-1.484c0,0.049,0,0.099,0,0.15c0,5.751,4.09,10.546,9.52,11.636   c-0.997,0.273-2.044,0.416-3.127,0.416c-0.766,0-1.508-0.072-2.234-0.209c1.511,4.713,5.894,8.144,11.085,8.241   c-4.062,3.184-9.18,5.082-14.738,5.082c-0.957,0-1.903-0.057-2.832-0.169c5.253,3.368,11.489,5.335,18.191,5.335   c21.828,0,33.766-18.083,33.766-33.766c0-0.515-0.011-1.026-0.035-1.535C-371.377-510.537-369.364-512.627-367.773-515.007z"
   id="path139" />
	<path
   fill="#C8A461"
   d="M-367.773-428.033c-2.128,0.944-4.413,1.582-6.816,1.869c2.452-1.468,4.332-3.795,5.219-6.565   c-2.291,1.36-4.831,2.348-7.538,2.88c-2.164-2.306-5.249-3.746-8.663-3.746c-6.552,0-11.865,5.311-11.865,11.868   c0,0.929,0.105,1.835,0.306,2.705c-9.863-0.496-18.608-5.22-24.461-12.4c-1.022,1.754-1.607,3.792-1.607,5.967   c0,4.116,2.096,7.749,5.279,9.876c-1.945-0.061-3.774-0.595-5.376-1.484c0,0.049,0,0.099,0,0.15c0,5.751,4.09,10.546,9.52,11.636   c-0.997,0.274-2.044,0.416-3.127,0.416c-0.766,0-1.508-0.072-2.234-0.209c1.511,4.713,5.894,8.144,11.085,8.241   c-4.062,3.184-9.18,5.082-14.738,5.082c-0.957,0-1.903-0.057-2.832-0.169c5.253,3.368,11.489,5.335,18.191,5.335   c21.828,0,33.766-18.084,33.766-33.767c0-0.515-0.011-1.026-0.035-1.535C-371.377-423.563-369.364-425.653-367.773-428.033z"
   id="path141" />
	<path
   fill="#999999"
   d="M-367.773-342.032c-2.128,0.943-4.413,1.582-6.816,1.869c2.452-1.469,4.332-3.796,5.219-6.566   c-2.291,1.361-4.831,2.349-7.538,2.881c-2.164-2.307-5.249-3.746-8.663-3.746c-6.552,0-11.865,5.31-11.865,11.867   c0,0.929,0.105,1.835,0.306,2.705c-9.863-0.496-18.608-5.221-24.461-12.399c-1.022,1.753-1.607,3.792-1.607,5.968   c0,4.115,2.096,7.748,5.279,9.876c-1.945-0.062-3.774-0.595-5.376-1.483c0,0.049,0,0.099,0,0.149c0,5.751,4.09,10.546,9.52,11.636   c-0.997,0.273-2.044,0.416-3.127,0.416c-0.766,0-1.508-0.072-2.234-0.209c1.511,4.714,5.894,8.145,11.085,8.241   c-4.062,3.184-9.18,5.082-14.738,5.082c-0.957,0-1.903-0.057-2.832-0.169c5.253,3.368,11.489,5.335,18.191,5.335   c21.828,0,33.766-18.084,33.766-33.767c0-0.515-0.011-1.025-0.035-1.535C-371.377-337.562-369.364-339.652-367.773-342.032z"
   id="path143" />
	<path
   fill="#c8a461"
   d="M-282.109-511.163c0,0-0.122-8.767-10.217-9.129c-10.095-0.365-21.559-0.375-21.559-0.375h-2.089   c0,0-11.464,0.009-21.559,0.375c-10.095,0.365-10.216,9.186-10.216,9.186s-1.338,14.446-0.122,25.333   c0.919,8.228,2.676,11.009,12.284,11.494c9.607,0.487,19.627,0.612,19.627,0.612h2.059c0,0,10.02-0.14,19.628-0.626   c9.608-0.487,11.364-3.21,12.284-11.438C-280.773-496.619-282.109-511.163-282.109-511.163z M-322-488.058v-18.969l18.001,9.608   L-322-488.058z"
   id="path145" />
	<path
   fill="#C8A461"
   d="M-282.109-424.084c0,0-0.122-8.806-10.217-9.168c-10.095-0.365-21.559-0.414-21.559-0.414h-2.089   c0,0-11.464,0.049-21.559,0.414c-10.095,0.364-10.216,9.206-10.216,9.206s-1.338,14.456-0.122,25.343   c0.919,8.228,2.676,10.975,12.284,11.46c9.607,0.486,19.627,0.577,19.627,0.577h2.059c0,0,10.02-0.1,19.628-0.587   s11.364-3.19,12.284-11.419C-280.773-409.56-282.109-424.084-282.109-424.084z M-322-400.979v-18.969l18.001,9.608L-322-400.979z"
   id="path147" />
	<path
   fill="#999999"
   d="M-282.109-338.005c0,0-0.122-8.806-10.217-9.168c-10.095-0.365-21.559-0.414-21.559-0.414h-2.089   c0,0-11.464,0.049-21.559,0.414c-10.095,0.364-10.216,9.205-10.216,9.205s-1.338,14.456-0.122,25.344   c0.919,8.228,2.676,10.975,12.284,11.46c9.607,0.486,19.627,0.577,19.627,0.577h2.059c0,0,10.02-0.1,19.628-0.587   s11.364-3.19,12.284-11.419C-280.773-323.479-282.109-338.005-282.109-338.005z M-322-314.899v-18.969l18.001,9.607L-322-314.899z"
   id="path149" />
	<path
   fill="#c8a461"
   d="M-219.247-520.569l-9.829,2.037v14.557c-2.239-2.862-5.351-4.23-9.394-4.23   c-4.23,0-8.025,1.555-11.136,4.604c-3.483,3.36-5.35,7.652-5.35,12.442c0,5.226,1.99,9.705,5.848,13.126   c2.924,2.613,6.407,3.919,10.451,3.919c3.981,0,6.967-1.058,9.891-3.919v3.733h9.518V-520.569z M-236.479-483.01   c-5.04,0-8.647-3.546-8.647-8.212c0-4.479,3.607-8.274,8.273-8.274c4.604,0,8.149,3.608,8.149,8.398   C-228.703-486.494-232.249-483.01-236.479-483.01"
   id="path151" />
	<path
   fill="#C8A461"
   d="M-219.247-433.394l-9.829,2.037v14.557c-2.239-2.862-5.351-4.23-9.394-4.23   c-4.23,0-8.025,1.555-11.136,4.604c-3.483,3.36-5.35,7.652-5.35,12.442c0,5.226,1.99,9.705,5.848,13.126   c2.924,2.613,6.407,3.919,10.451,3.919c3.981,0,6.967-1.057,9.891-3.919v3.733h9.518V-433.394z M-236.479-395.836   c-5.04,0-8.647-3.546-8.647-8.212c0-4.479,3.607-8.274,8.273-8.274c4.604,0,8.149,3.608,8.149,8.398   C-228.703-399.319-232.249-395.836-236.479-395.836"
   id="path153" />
	<path
   fill="#999999"
   d="M-219.247-347.315l-9.829,2.037v14.557c-2.239-2.861-5.351-4.23-9.394-4.23   c-4.23,0-8.025,1.555-11.136,4.604c-3.483,3.359-5.35,7.652-5.35,12.442c0,5.226,1.99,9.705,5.848,13.126   c2.924,2.613,6.407,3.919,10.451,3.919c3.981,0,6.967-1.057,9.891-3.919v3.733h9.518V-347.315z M-236.479-309.756   c-5.04,0-8.647-3.546-8.647-8.212c0-4.479,3.607-8.274,8.273-8.274c4.604,0,8.149,3.609,8.149,8.398   C-228.703-313.24-232.249-309.756-236.479-309.756"
   id="path155" />
	<polygon
   fill="#14100A"
   points="-224.988,-652.31 -228.253,-655.575 -236.451,-647.377 -244.649,-655.575 -247.914,-652.31    -239.716,-644.112 -247.914,-635.913 -244.649,-632.649 -236.451,-640.847 -228.253,-632.649 -224.988,-635.914 -233.186,-644.112     "
   id="polygon157" />
	<g
   id="g159">
		<path
   fill="#c8a461"
   d="M-524.714-201.461c0,8.114-6.586,14.699-14.696,14.699c-8.116,0-14.698-6.585-14.698-14.699    c0-8.116,6.582-14.7,14.698-14.7C-531.3-216.161-524.714-209.577-524.714-201.461z"
   id="path161" />
		<path
   fill="#c8a461"
   d="M-513.148-168.667c-3.998-13-15.321-16.828-15.321-16.828c-3.576,3.845-11.196,4.088-11.196,4.088    s-6.99-0.225-10.566-4.069c0,0-10.102,3.81-14.1,16.81h24.41H-513.148z"
   id="path163" />
	</g>
	<path
   fill="#c8a461"
   d="M-594.76-216.161c-12.963,0-23.476,10.515-23.476,23.477c0,12.96,10.513,23.477,23.476,23.477   c12.952,0,23.471-10.517,23.471-23.477C-571.289-205.646-581.808-216.161-594.76-216.161z M-586.025-177.937l-11.01-12.27   l-0.965-2.46v-12h5v11.472l10.696,11.919L-586.025-177.937z"
   id="path165" />
	<path
   fill="#c8a461"
   d="M-362.028-215.745c-9.956,0-18.03,8.322-18.03,18.579c0,2.6,0.523,5.077,1.459,7.323   c0,0,2.111,3.879,3.266,5.181l13.268,15.827l13.048-15.496c1.379-1.481,3.558-5.512,3.558-5.512   c0.938-2.246,1.462-4.724,1.462-7.323C-343.999-207.423-352.077-215.745-362.028-215.745z M-362.086-192.018   c-3.696,0-6.693-2.998-6.693-6.692c0-3.696,2.997-6.694,6.693-6.694c3.692,0,6.691,2.998,6.691,6.694   C-355.395-195.016-358.394-192.018-362.086-192.018z"
   id="path167" />
	<path
   fill="#c8a461"
   d="M-454.28-177.405l-12.502-10.117c1.381-2.695,2.165-5.743,2.165-8.973c0-10.891-8.858-19.748-19.747-19.748   c-10.89,0-19.75,8.858-19.75,19.748c0,10.89,8.86,19.748,19.75,19.748c4.289,0,8.259-1.378,11.5-3.71l12.722,10.296   c0.863,0.698,1.899,1.037,2.929,1.037c1.358,0,2.704-0.591,3.625-1.729C-451.97-172.852-452.279-175.786-454.28-177.405z    M-484.359-183.204c-7.402,0-13.406-6.006-13.406-13.406c0-7.402,6.004-13.407,13.406-13.407c7.395,0,13.403,6.005,13.403,13.407   C-470.956-189.21-476.964-183.204-484.359-183.204z"
   id="path169" />
	<g
   id="g171">
		
			<rect
   x="-302.709"
   y="-213.106"
   transform="matrix(0.7277 0.6859 -0.6859 0.7277 -223.64 146.8697)"
   fill="#c8a461"
   width="11.805"
   height="9.721"
   id="rect173" />
		<path
   fill="#c8a461"
   d="M-306.816-206.23l-25.453,27.007l-1.345,10.032l9.935-1.936l25.454-27.008L-306.816-206.23z     M-306.671-201.322l3.538,3.334l-22.306,23.666l-0.138,0.027l-3.419-3.222l0.02-0.139L-306.671-201.322z"
   id="path175" />
	</g>
	<g
   id="g177">
		<g
   id="g179">
			<path
   fill-rule="evenodd"
   clip-rule="evenodd"
   fill="#c8a461"
   d="M-253.381-211.546c0.546,0.386,1.813,0.544,3.151,0.363     C-250.945-210.716-253.077-210.804-253.381-211.546z"
   id="path181" />
			<path
   fill-rule="evenodd"
   clip-rule="evenodd"
   fill="#c8a461"
   d="M-249.381-215.667c1.135,0.14,2.266,0.301,3.394,0.485     c-0.1,1.14-3.188,1.432-3.636,2.303c0.027,0.154,0.361,0.158,0.363,0c0.072,0.129-2.439,1.087-0.727,0.97     c-0.765,0.203-1.531,0.203-2.302,0c-0.032-0.269,0.366-0.458,0.604-0.485c0.2-0.993-1.385-0.12-1.696-0.364     c-0.095-0.575-0.038,0.04-0.484-0.727c0.23-0.146,0.393-0.349,0.484-0.606c0.989,0.031,1.696,2.222,2.787,1.091     c-0.332-0.191-0.789-0.262-1.091-0.484c0.281-0.285,1.143,0.011,1.455-0.242c-0.713-0.401-1.48-0.604-2.303-0.606     C-251.817-214.866-250.275-215.667-249.381-215.667C-248.044-215.557-249.462-215.667-249.381-215.667z"
   id="path183" />
			<path
   fill-rule="evenodd"
   clip-rule="evenodd"
   fill="#c8a461"
   d="M-240.169-215.667c0.817,0,2.86,0.018,3.758,0.605     c-0.99,0.224-1.998,0.427-2.667,0.97c0.604,0.296,4.637-0.118,5.333-0.363c-1.511,1.413-2.661,1.365-1.576,3.515     c-0.337-0.078-0.458,0.003-0.362,0.242c-0.643,0.991-2.516-0.574-0.244,1.213c0.239-0.472-1.343,0.398-1.211,0.363     c0.214,0.276,0.496,0.358,0.848,0.243c-0.774,0.607-2.907,0.023-3.03,1.454c-1.7-0.077-1.343,1.735-2.424,2.424     c-1.1-0.525-2.279-3.535-1.639-4.244c1.207-1.336-3.647-2.192-4.179-2.423c0.085-0.617,1.135-0.582-0.606-0.727     c0.818-0.067,1.465-0.431,1.939-1.091c0.055-0.198-0.66-0.198-0.606,0C-244.76-215.316-241.411-214.375-240.169-215.667     C-240.089-215.667-240.288-215.543-240.169-215.667z"
   id="path185" />
			<path
   fill-rule="evenodd"
   clip-rule="evenodd"
   fill="#c8a461"
   d="M-219.443-207.668c0.373,0.087,5.704-0.408,6.061-0.605     c0.072-0.428-1.142-2.07,0.606-1.818c-0.298,1.703-0.086,1.516-0.849,2.424c-0.064,1.396,1.593-0.491,1.697-0.605     c0.258,0.329,0.581,0.571,0.97,0.728c0.071-1.253-1.953-0.911-1.213-2.303c0.191,0.405,0.514,0.606,0.971,0.605     c-1.086-0.178,1.602,0.185,1.212,0.242c0.631-0.753-0.843-0.946-0.486-1.455c2.474,0.042,4.723-1.797,7.758-1.212     c0.001,0.323-0.161,0.525-0.484,0.606c0.299,1.021,1.791,0.719,2.457,0.747c4.048,0.167-0.021,0.628,2.634,1.192     c0.861-0.842,3.059-0.764,3.394-0.363c1.621-0.761,9.713,1.312,10.909,2.182c-1.396,0.348-2.058,0.156-3.395,0.363     c0.142,0.399,0.386,0.723,0.729,0.97c-1.054,0.295-2.381,0.554-3.281,0.87c-1.064,0.375-0.83,3.332-2.294,3.13     c-0.752-2.352,2.055-2.442,2.059-4c-1.501,0.312-6.099,1.182-7.272,3.03c0.477,1.217,2.31,0.816,0.537,3.164     c-0.338,0.792-0.924,1.2-1.762,1.227c-0.626,0.705-0.129,2.094-0.594,2.397c-0.341-1.194-1.25-2.852-2.546-1.212     c-0.006,0.347,0.808,1.969,0.97,3.15c-0.625,1.939-2.798,1.557-3.999,2.788c0.639,0.644,1.52,2.65,0,3.03     c-0.282-1.213-0.768-1.414-1.455-0.605c-0.781-2.073-0.594-1.451-1.939-3.393c-1.909,0.626-3.044,2.142-3.273,4.12     c-1.567-1.535-0.77-3.687-2.259-4.441c-0.803-0.407-4.272-2.073-5.135-1.983c-0.116,0.793,1.37,3.355,1.939,1.575     c1.099,2.134-0.688,2.747-2.909,3.515c-0.539-1.562-1.12-3.906-2.666-4.847c-1.322,2.203,2.979,5.453,4.363,5.574     c0.076,2.754-3.729,3.081-2.8,6.192c0.343,1.148-1.68,5.607-2.663,6.51c-4.337,3.976-3.417-10.288-5.558-10.955     c-2.552-0.794-4.272,0.667-5.706-2.716c0.634-1.24-0.202-2.299,0.839-3.436c0.494-0.54,1.707-2.191,1.828-2.866     c3.849,0.832,3.021-0.707,6.061,1.574c1.132-0.024,4.882,0.214,4.363-2.302c-1.25,0.291-2.384,0.445-2.183-0.849     c1.082-1.103,2.511,0.188,3.637-0.607c0.005-0.475-0.733-1.333-0.849-1.817c-1.579-0.316-2.164,1.679-3.879,2.303     c0.179,0.309,0.219,0.632,0.122,0.97c-0.588-0.793-1.369-2.314-2.546-2.909c-0.676,0.742,0.603,1.45,0.97,1.939     c-1.741,0.174-1.872-2.665-3.768-0.347c-1.329,1.625-2.534,2.002-2.534-0.623c1.043,0.396,2.962-0.57,1.332-1.575     c0.679-0.306,3.066-1.672,3.152-2.425c1.556,1.113,2.979-0.504,3.758-0.727c-0.004-0.328-0.044-0.651-0.121-0.97     c0.556,0.124,1.04,0.003,1.454-0.364c-0.636-0.241-1.281-0.282-1.939-0.121c-0.04-0.767,0.242-1.372,0.849-1.817     c-0.034-0.229-0.155-0.391-0.363-0.485c-0.859,0.699-2.429,3.15-2.546,4c-0.29-0.461-0.533-0.945-0.727-1.455     c-0.301,0.299-0.664,0.461-1.091,0.485c0.389-2.788,5.708-7.351,8.363-3.272c-0.619,0.163-1.226,0.122-1.817-0.122     C-222.775-205.594-219.772-206.468-219.443-207.668C-218.407-207.424-219.642-206.945-219.443-207.668z"
   id="path187" />
			<path
   fill-rule="evenodd"
   clip-rule="evenodd"
   fill="#c8a461"
   d="M-246.23-199.668c-2.875,0.042-4.183,4.091-4.122,6.424     c-0.889-0.226-0.174-1.382-1.335-1.46c-1.303-0.09-0.297,0.377-2.001,0.273c-1.566-0.095-1.183,2.156-0.76,2.89     c0.929,1.611,1.452-0.345,2.399-0.37c-0.222,0.736,0.619,3.631,1.696,3.637c-0.747,0.124-3.824-2.085-4.761-2.47     c-1.654-0.68-2.546-2.796-3.481-4.317c-0.427,0.339,0.502,2.147,0.636,2.147c-1.558,0.002-3.533-6.487-2.576-7.238     c-0.772-3.162-4.386-5.252-6.908-4.606c-0.984-0.447-0.134,0.676-1.818,1.091c0.794,0.258-1.848-1.774-1.817-1.697     c0.515-0.37,0.879-0.854,1.092-1.453c-0.644,0.402-1.128,0.28-1.455-0.364c0.444,0.014,0.889,0.014,1.333,0     c-0.311-0.451-0.675-0.855-1.091-1.213c2.522-1.957,5.6-0.072,7.636,0.728c0.721,0.073,4.838-1.849,6.304,0.243     c0.042-0.867,2.866-1.13,3.515-1.212c0.041-0.188-0.17-0.59-0.121-0.849c0.492,0.071,1.73,1.567,1.817,1.817     c0.446-0.18,0.689-0.503,0.728-0.969c1.567-0.117-0.349,1.525-1.333,1.575c-0.075,0.649-1.201,1.206-1.333,2.666     c1.111,0.888,2.801,2.767,3.757,3.151c0.558-1.406,0.76-2.859,0.607-4.362c1.527-0.739,1.59,0.974,2.06,1.575     c0.424-0.047,0.746-0.249,0.97-0.606c0.853,1.182,1.211,1.408,1.091,2.303c0.32,0.146,0.644,0.146,0.97,0     c0.069,0.197,0.109,0.399,0.12,0.607c-0.958,0.486-3.251,0.064-3.515,1.575c0.436-0.186,0.881-0.347,1.334-0.485     c-0.173,0.083,0.147,1.256,0.121,1.454C-246.801-199.293-246.195-199.454-246.23-199.668     C-247.026-199.656-246.195-199.454-246.23-199.668z"
   id="path189" />
			<path
   fill-rule="evenodd"
   clip-rule="evenodd"
   fill="#c8a461"
   d="M-249.139-171.426c0.311-1.797,2.638-8.021,0.624-9.355     c-3.103-2.06,0.141-6.424-1.473-7.492c0.726-2.182,6.383,0.729,6.303,3.03c1.608,0.941,4.921-0.571,3.699,2.85     c-0.475,1.328-3.232,7.385-5.033,6.846c-0.142,1.188-0.041,1.752-1.817,2.061c-0.09,1.568-0.745,2.705-1.333,4.363     C-248.828-169.789-248.382-171.203-249.139-171.426C-249.115-171.564-248.826-171.335-249.139-171.426z"
   id="path191" />
			<path
   fill-rule="evenodd"
   clip-rule="evenodd"
   fill="#c8a461"
   d="M-196.534-176.032c-1.318-0.233-3.661,0.944-5.455,0.727     c-0.048-3.238-1.526-2.514,1.177-4.672c1.533-1.225,1.981-0.891,2.823-2.358c2.021,0.381-0.106,1.445,1.939,2.061     c0.39-0.586,0.592-1.232,0.607-1.941c1.552,2.482,3.207,4.385,1.872,7.324C-194.333-173.213-196.974-174.31-196.534-176.032     C-197.074-176.127-196.778-175.074-196.534-176.032z"
   id="path193" />
		</g>
	</g>
	<g
   id="g195">
		<path
   fill="#c8a461"
   d="M-602.533-109.758c0,0,44.525-2.191,48.034,44.744h-8.992c0,0,1.756-34.215-39.042-37.287V-109.758    L-602.533-109.758z"
   id="path197" />
		<path
   fill="#c8a461"
   d="M-602.533-94.183c0,0,26.102-0.88,31.146,29.169h-8.991c0,0-1.095-17.764-22.154-21.717V-94.183    L-602.533-94.183z"
   id="path199" />
		<path
   fill="#c8a461"
   d="M-597.646-74.617c3.146,0,5.703,2.551,5.703,5.704c0,3.146-2.557,5.702-5.703,5.702    c-3.151,0-5.704-2.554-5.704-5.702C-603.35-72.065-600.797-74.617-597.646-74.617z"
   id="path201" />
	</g>
	<g
   id="g203">
		<g
   id="g205">
			<path
   fill="#c8a461"
   d="M-511.965-71.843c-0.367,0-0.737-0.103-1.068-0.318c-4.306-2.796-6.875-7.522-6.875-12.646     c0-8.311,6.761-15.071,15.07-15.071c8.311,0,15.071,6.761,15.071,15.071c0,5.122-2.57,9.85-6.875,12.646     c-0.911,0.592-2.129,0.333-2.721-0.578c-0.592-0.912-0.332-2.13,0.578-2.721c3.184-2.068,5.084-5.562,5.084-9.347     c0-6.143-4.997-11.14-11.138-11.14s-11.139,4.997-11.139,11.14c0,3.785,1.901,7.278,5.086,9.347     c0.909,0.591,1.169,1.808,0.577,2.721C-510.69-72.161-511.32-71.843-511.965-71.843z"
   id="path207" />
		</g>
		<g
   id="g209">
			<path
   fill="#c8a461"
   d="M-519.127-66.227c-0.517,0-1.035-0.18-1.452-0.546c-5.213-4.553-8.204-11.128-8.204-18.039     c0-13.204,10.742-23.945,23.945-23.945c13.204,0,23.945,10.741,23.945,23.945c0,6.913-2.991,13.486-8.204,18.039     c-0.919,0.804-2.314,0.708-3.118-0.212c-0.803-0.919-0.709-2.315,0.212-3.117c4.251-3.713,6.69-9.075,6.69-14.71     c0-10.766-8.76-19.525-19.525-19.525c-10.767,0-19.524,8.76-19.524,19.525c0,5.635,2.439,10.997,6.689,14.71     c0.918,0.802,1.015,2.198,0.212,3.117C-517.898-66.485-518.513-66.227-519.127-66.227z"
   id="path211" />
		</g>
		<path
   fill="#c8a461"
   d="M-495.061-61.985l-8.918-14.405h-1.939l-8.697,14.405H-495.061z"
   id="path213" />
		<circle
   fill="#c8a461"
   cx="-504.866"
   cy="-84.577"
   r="5.561"
   id="circle215" />
	</g>
	<path
   fill="#c8a461"
   d="M-459-109.667v47h26v-47H-459z M-446.058-65.45c-1.034,0-1.874-0.839-1.874-1.874   c0-1.033,0.84-1.873,1.874-1.873c1.033,0,1.872,0.84,1.872,1.873C-444.186-66.289-445.024-65.45-446.058-65.45z M-436-71.667h-20   v-35h20V-71.667z"
   id="path217" />
	<g
   id="g219">
		<g
   id="g221">
			<g
   id="g223">
				<path
   fill="#C8A461"
   d="M-502-723.951v6.208c0,1.312-1.697,6.077-7.466,6.077c-5.765,0-7.534-4.963-7.534-6.275v-6.009v-0.396      v-8.718c0-1.314,1.769-6.276,7.534-6.276c5.768,0,7.466,4.765,7.466,6.078v8.917V-723.951z"
   id="path225" />
			</g>
		</g>
		<g
   id="g227">
			<rect
   x="-518"
   y="-697.667"
   fill="#C8A461"
   width="18"
   height="5"
   id="rect229" />
		</g>
		<g
   id="g231">
			<g
   id="g233">
				<path
   fill="#C8A461"
   d="M-509.44-702.667c-11.083,0-15.56-8.027-15.56-11.374v-3.626h4v3.626      c0.031,0.914,2.496,7.374,11.56,7.374c9.02,0,11.416-6.199,11.44-7.081v-3.919h4v3.921      C-494-710.485-498.442-702.667-509.44-702.667z"
   id="path235" />
			</g>
		</g>
	</g>
</g>
<g
   id="Calque_2">
</g>
<g
   id="Calque_3">
	<g
   id="g239">
		<path
   fill="none"
   d="M-396.526-78.605c-0.081,0.197-0.148,0.399-0.202,0.606C-396.674-78.206-396.607-78.409-396.526-78.605    c0.117-0.283,0.262-0.554,0.433-0.81c0.15-0.225,0.322-0.437,0.513-0.637c-0.19,0.199-0.362,0.412-0.513,0.637    C-396.264-79.159-396.408-78.888-396.526-78.605z"
   id="path241" />
		<path
   fill="none"
   d="M-396.092-74.182c0.15,0.225,0.322,0.437,0.513,0.637C-395.77-73.745-395.942-73.957-396.092-74.182    c-0.171-0.256-0.316-0.527-0.433-0.81c-0.081-0.197-0.149-0.399-0.203-0.606c0.054,0.207,0.121,0.409,0.202,0.606    C-396.408-74.709-396.264-74.438-396.092-74.182z"
   id="path243" />
		<path
   fill="none"
   d="M-400.723-73.495c-0.053-0.139-0.104-0.279-0.15-0.42C-400.826-73.773-400.776-73.633-400.723-73.495z"
   id="path245" />
		<path
   fill="none"
   d="M-401.333-76.799c0-0.23,0.008-0.458,0.025-0.685C-401.325-77.257-401.333-77.028-401.333-76.799z"
   id="path247" />
		<path
   fill="none"
   d="M-401.309-76.114c-0.017-0.227-0.025-0.455-0.025-0.685C-401.333-76.569-401.325-76.341-401.309-76.114z"
   id="path249" />
		<path
   fill="none"
   d="M-400.873-73.915c-0.07-0.212-0.132-0.427-0.186-0.644C-401.005-74.341-400.943-74.127-400.873-73.915z"
   id="path251" />
		<path
   fill="none"
   d="M-393.971-72.437c-0.283-0.117-0.554-0.262-0.81-0.433c-0.128-0.086-0.252-0.178-0.372-0.277    c0.12,0.099,0.244,0.191,0.372,0.277C-394.524-72.699-394.253-72.554-393.971-72.437z"
   id="path253" />
		<path
   fill="none"
   d="M-390.805-67.729c0.149-0.022,0.297-0.048,0.443-0.077c0.294-0.058,0.583-0.131,0.868-0.217    c-0.285,0.086-0.575,0.159-0.868,0.217C-390.508-67.776-390.656-67.751-390.805-67.729z"
   id="path255" />
		<path
   fill="none"
   d="M-398.963-70.646c-0.204-0.225-0.396-0.459-0.575-0.7C-399.36-71.105-399.168-70.871-398.963-70.646z"
   id="path257" />
		<path
   fill="none"
   d="M-387.458-68.925c0.128-0.077,0.254-0.157,0.379-0.24c0.124-0.083,0.247-0.17,0.368-0.259    c-0.121,0.09-0.243,0.176-0.368,0.259C-387.204-69.081-387.33-69.001-387.458-68.925z"
   id="path259" />
		<path
   fill="none"
   d="M-391.836-90.056c0.176-0.153,0.355-0.3,0.541-0.438C-391.481-90.356-391.66-90.209-391.836-90.056z"
   id="path261" />
		<path
   fill="none"
   d="M-401.059-79.039c0.036-0.145,0.076-0.288,0.119-0.431C-400.984-79.327-401.023-79.184-401.059-79.039z"
   id="path263" />
		<path
   fill="none"
   d="M-389.943-72.633c0.109-0.058,0.215-0.122,0.319-0.189C-389.728-72.756-389.834-72.692-389.943-72.633z"
   id="path265" />
		<polygon
   fill="none"
   points="-380.94,-75.055 -384.09,-75.049 -380.94,-75.055   "
   id="polygon267" />
		<path
   fill="none"
   d="M-386.012-69.999c-0.225,0.204-0.459,0.396-0.7,0.575C-386.47-69.603-386.237-69.795-386.012-69.999z"
   id="path269" />
		<path
   fill="none"
   d="M-391.479-67.654c-0.227,0.017-0.455,0.025-0.685,0.025C-391.934-67.629-391.706-67.638-391.479-67.654z"
   id="path271" />
		<path
   fill="none"
   d="M-390.805-67.729c-0.223,0.033-0.448,0.058-0.675,0.074C-391.253-67.671-391.028-67.696-390.805-67.729z"
   id="path273" />
		<path
   fill="none"
   d="M-397.616-69.424c-0.185-0.138-0.365-0.285-0.541-0.438C-397.981-69.709-397.802-69.562-397.616-69.424z"
   id="path275" />
		<path
   fill="none"
   d="M-380.391-90.494c0.241,0.179,0.475,0.371,0.7,0.575C-379.916-90.123-380.15-90.315-380.391-90.494z"
   id="path277" />
		<path
   fill="none"
   d="M-382.332-91.595c0.137,0.057,0.273,0.117,0.408,0.181C-382.059-91.478-382.195-91.539-382.332-91.595z"
   id="path279" />
		<path
   fill="none"
   d="M-382.049-85.925c0.046,0.062,0.091,0.125,0.133,0.189c0.171,0.256,0.316,0.527,0.433,0.81    c-0.117-0.283-0.262-0.554-0.433-0.81C-381.958-85.8-382.002-85.863-382.049-85.925z"
   id="path281" />
		<path
   fill="none"
   d="M-383.617-92.018c0.439,0.109,0.868,0.25,1.285,0.423C-382.749-91.768-383.178-91.909-383.617-92.018z"
   id="path283" />
		<path
   fill="none"
   d="M-378.209-88.204c-0.25-0.373-0.528-0.73-0.835-1.068C-378.738-88.934-378.459-88.577-378.209-88.204    L-378.209-88.204z"
   id="path285" />
		<path
   fill="none"
   d="M-380.391-90.494c-0.121-0.09-0.243-0.176-0.368-0.259c-0.187-0.125-0.377-0.243-0.572-0.353    c0.194,0.11,0.385,0.228,0.572,0.353C-380.634-90.67-380.512-90.584-380.391-90.494z"
   id="path287" />
		<path
   d="M-387.961-87.337c-0.146,0.074-0.289,0.155-0.427,0.244C-388.25-87.182-388.108-87.263-387.961-87.337z"
   id="path289" />
		<path
   d="M-388.515-87.008c-0.108,0.075-0.214,0.153-0.317,0.237C-388.73-86.855-388.624-86.933-388.515-87.008z"
   id="path291" />
		<path
   d="M-378.246-78.354c-0.134,0.069-0.269,0.135-0.405,0.198C-378.515-78.219-378.38-78.285-378.246-78.354z"
   id="path293" />
		<path
   d="M-378.832-78.076c-0.244,0.105-0.492,0.2-0.744,0.283C-379.324-77.876-379.076-77.971-378.832-78.076z"
   id="path295" />
		<path
   d="M-383.596-77.402c-0.15-0.018-0.298-0.04-0.446-0.066C-383.894-77.442-383.746-77.42-383.596-77.402z"
   id="path297" />
		<path
   d="M-379.476-96.159L-379.476-96.159c0.063-0.063,0.128-0.124,0.195-0.183C-379.348-96.283-379.413-96.223-379.476-96.159z"
   id="path299" />
		<path
   d="M-378.561-96.875c0.132-0.079,0.267-0.151,0.405-0.217C-378.294-97.026-378.43-96.954-378.561-96.875z"
   id="path301" />
		<path
   d="M-386.754-92.244c0.15-0.015,0.302-0.026,0.453-0.033C-386.453-92.27-386.604-92.259-386.754-92.244z"
   id="path303" />
		<path
   d="M-374.123-97.091c0.138,0.065,0.273,0.138,0.405,0.217C-373.85-96.954-373.985-97.026-374.123-97.091z"
   id="path305" />
		<path
   d="M-385.344-77.793c-0.283-0.093-0.56-0.2-0.832-0.321C-385.904-77.994-385.627-77.886-385.344-77.793z"
   id="path307" />
		<path
   d="M-386.176-78.114c-0.204-0.09-0.404-0.188-0.601-0.294C-386.581-78.302-386.38-78.204-386.176-78.114z"
   id="path309" />
		<path
   d="M-380.909-77.463c-0.138,0.023-0.276,0.044-0.415,0.061C-381.185-77.419-381.047-77.44-380.909-77.463z"
   id="path311" />
		<path
   d="M-387.646-92.113c0.22-0.044,0.443-0.079,0.667-0.107c-0.075,0.009-0.149,0.019-0.224,0.03    C-387.351-92.167-387.499-92.142-387.646-92.113c-0.073,0.015-0.147,0.03-0.22,0.046c-0.146,0.033-0.291,0.069-0.434,0.109    c-0.056,0.015-0.111,0.032-0.166,0.048C-388.197-91.99-387.923-92.058-387.646-92.113z"
   id="path313" />
		<path
   d="M-375.977-80.018L-375.977-80.018c-0.62,0.62-1.313,1.139-2.059,1.551C-377.289-78.879-376.596-79.399-375.977-80.018z"
   id="path315" />
		<path
   d="M-372.57-95.907c-0.075-0.086-0.152-0.171-0.233-0.253c-0.111-0.111-0.227-0.217-0.348-0.315    c0.12,0.099,0.236,0.204,0.348,0.315C-372.722-96.078-372.645-95.993-372.57-95.907z"
   id="path317" />
		<path
   d="M-367.485-89.782c-0.031,0.088-0.063,0.176-0.096,0.263C-367.547-89.606-367.516-89.694-367.485-89.782z"
   id="path319" />
		<path
   d="M-390.465-82.023L-390.465-82.023c0.407,0.725,0.917,1.4,1.521,2.004c0.649,0.649,1.379,1.189,2.167,1.611    c-0.788-0.421-1.517-0.961-2.167-1.611C-389.549-80.623-390.058-81.297-390.465-82.023z"
   id="path321" />
		<path
   d="M-368.093-88.418c-0.041,0.074-0.082,0.148-0.125,0.221C-368.176-88.271-368.134-88.344-368.093-88.418z"
   id="path323" />
		<path
   d="M-385.159-92.264c-0.227-0.017-0.455-0.025-0.685-0.025c0.306,0,0.61,0.015,0.911,0.044    C-385.008-92.252-385.083-92.258-385.159-92.264z"
   id="path325" />
		<path
   d="M-384.04-92.113c0.142,0.028,0.283,0.06,0.423,0.095C-383.757-92.053-383.898-92.085-384.04-92.113    c-0.147-0.029-0.295-0.055-0.443-0.077c-0.074-0.011-0.149-0.021-0.224-0.03C-384.483-92.192-384.261-92.156-384.04-92.113z"
   id="path327" />
		<path
   d="M-367.91-88.77c-0.028,0.057-0.056,0.113-0.086,0.169C-367.967-88.657-367.938-88.713-367.91-88.77z"
   id="path329" />
		<path
   fill="#c8a461"
   d="M-367.07-91.464c-0.022,0.149-0.048,0.297-0.077,0.443C-367.117-91.167-367.092-91.315-367.07-91.464z"
   id="path331" />
		<path
   fill="#c8a461"
   d="M-374.78-101.893c0.149,0.022,0.297,0.048,0.443,0.077C-374.484-101.845-374.632-101.871-374.78-101.893z"
   id="path333" />
		<path
   fill="#c8a461"
   d="M-367.244-90.583c-0.036,0.145-0.076,0.288-0.119,0.431C-367.32-90.294-367.281-90.438-367.244-90.583z"
   id="path335" />
		<path
   fill="#c8a461"
   d="M-367.581-89.519c-0.098,0.255-0.208,0.504-0.329,0.749C-367.789-89.015-367.679-89.264-367.581-89.519z"
   id="path337" />
		<path
   fill="#c8a461"
   d="M-367.363-90.152c-0.038,0.124-0.078,0.247-0.121,0.37C-367.442-89.904-367.401-90.027-367.363-90.152z"
   id="path339" />
		<path
   fill="#c8a461"
   d="M-373.045-101.459c0.77,0.275,1.501,0.654,2.175,1.13C-371.544-100.805-372.275-101.184-373.045-101.459z"
   id="path341" />
		<path
   fill="#c8a461"
   d="M-368.153-97.336c-0.404-0.713-0.908-1.376-1.503-1.971c-0.379-0.379-0.785-0.72-1.214-1.023    c0.429,0.303,0.835,0.644,1.214,1.023C-369.061-98.711-368.557-98.049-368.153-97.336z"
   id="path343" />
		<path
   fill="#c8a461"
   d="M-367.146-94.626c0.029,0.147,0.055,0.295,0.077,0.443C-367.092-94.331-367.117-94.479-367.146-94.626z"
   id="path345" />
		<path
   fill="#c8a461"
   d="M-367.363-95.494c0.043,0.142,0.083,0.286,0.119,0.431C-367.281-95.208-367.32-95.352-367.363-95.494z"
   id="path347" />
		<path
   fill="#c8a461"
   d="M-367.503-95.918c0.05,0.14,0.097,0.281,0.14,0.424C-367.407-95.637-367.453-95.778-367.503-95.918z"
   id="path349" />
		<path
   fill="#c8a461"
   d="M-368.153-97.336c0.073,0.13,0.144,0.261,0.211,0.394C-368.009-97.075-368.079-97.206-368.153-97.336z"
   id="path351" />
		<path
   fill="#c8a461"
   d="M-373.899-101.718c0.217,0.054,0.432,0.116,0.644,0.186C-373.468-101.602-373.682-101.664-373.899-101.718    z"
   id="path353" />
		<path
   fill="#c8a461"
   d="M-374.337-101.816c0.147,0.029,0.293,0.062,0.437,0.098C-374.044-101.755-374.19-101.787-374.337-101.816z    "
   id="path355" />
		<path
   fill="#c8a461"
   d="M-367.996-88.601c-0.032,0.061-0.065,0.122-0.098,0.183C-368.06-88.479-368.028-88.54-367.996-88.601z"
   id="path357" />
		<path
   fill="#c8a461"
   d="M-380.22-77.607c-0.145,0.036-0.291,0.069-0.437,0.098C-380.511-77.538-380.365-77.571-380.22-77.607z"
   id="path359" />
		<path
   fill="#c8a461"
   d="M-369.656-86.339c0.564-0.564,1.044-1.188,1.437-1.858C-368.611-87.527-369.092-86.903-369.656-86.339    L-369.656-86.339z"
   id="path361" />
		<path
   fill="#c8a461"
   d="M-378.652-78.157c-0.06,0.027-0.12,0.054-0.181,0.08C-378.772-78.102-378.712-78.129-378.652-78.157z"
   id="path363" />
		<path
   fill="#c8a461"
   d="M-378.036-78.467c-0.07,0.039-0.14,0.076-0.211,0.113C-378.176-78.391-378.105-78.428-378.036-78.467z"
   id="path365" />
		<path
   fill="#c8a461"
   d="M-379.576-77.793c-0.212,0.07-0.427,0.132-0.644,0.186C-380.003-77.661-379.788-77.723-379.576-77.793z"
   id="path367" />
		<path
   fill="#c8a461"
   d="M-367.942-96.942c0.134,0.266,0.254,0.538,0.361,0.815C-367.688-96.404-367.808-96.676-367.942-96.942z"
   id="path369" />
		<path
   fill="#c8a461"
   d="M-380.658-77.509c-0.084,0.017-0.168,0.032-0.252,0.046C-380.825-77.477-380.741-77.492-380.658-77.509z"
   id="path371" />
		<path
   fill="#c8a461"
   d="M-371.444-92.354c-0.023,0.232-0.062,0.461-0.118,0.684C-371.507-91.894-371.467-92.122-371.444-92.354z"
   id="path373" />
		<path
   fill="#c8a461"
   d="M-379.295-83.004c-0.29,0.263-0.607,0.486-0.944,0.667C-379.901-82.518-379.584-82.741-379.295-83.004z"
   id="path375" />
		<path
   fill="#c8a461"
   d="M-386.626-84.281c0.217,0.405,0.495,0.781,0.829,1.115c0.613,0.613,1.364,1.036,2.184,1.241    c-0.819-0.205-1.571-0.628-2.184-1.241C-386.131-83.5-386.409-83.876-386.626-84.281z"
   id="path377" />
		<path
   fill="#c8a461"
   d="M-387.028-85.315c0.035,0.137,0.076,0.272,0.124,0.405C-386.952-85.042-386.993-85.178-387.028-85.315    L-387.028-85.315z"
   id="path379" />
		<path
   fill="#c8a461"
   d="M-381.308-81.925c-0.149,0.037-0.3,0.067-0.453,0.09C-381.608-81.858-381.457-81.888-381.308-81.925z"
   id="path381" />
		<path
   fill="#c8a461"
   d="M-371.562-91.67c-0.037,0.149-0.082,0.296-0.133,0.44C-371.644-91.374-371.6-91.521-371.562-91.67z"
   id="path383" />
		<path
   fill="#c8a461"
   d="M-379.281-96.343c0.109-0.097,0.22-0.189,0.336-0.275C-379.061-96.532-379.173-96.44-379.281-96.343z"
   id="path385" />
		<path
   fill="#c8a461"
   d="M-371.975-90.602c-0.181,0.338-0.404,0.655-0.667,0.944C-372.378-89.947-372.155-90.264-371.975-90.602z"
   id="path387" />
		<path
   fill="#c8a461"
   d="M-371.562-93.976c0.037,0.149,0.067,0.3,0.09,0.453C-371.495-93.676-371.525-93.827-371.562-93.976z"
   id="path389" />
		<path
   fill="#c8a461"
   d="M-372.57-95.907c0.232,0.267,0.432,0.556,0.596,0.862C-372.138-95.351-372.339-95.639-372.57-95.907z"
   id="path391" />
		<path
   fill="#c8a461"
   d="M-382.929-81.807c-0.232-0.023-0.461-0.062-0.684-0.118C-383.39-81.869-383.161-81.83-382.929-81.807z"
   id="path393" />
		<path
   fill="#c8a461"
   d="M-367.07-94.182c-0.939-6.359-8.333-9.828-13.826-6.484c-1.413,0.86-2.542,2.174-3.703,3.335    c-0.981,0.981-1.962,1.962-2.943,2.943c1.392-0.207,2.823-0.159,4.196,0.148c0.178,0.04,1.448,0.502,1.513,0.437    c0.137-0.137,0.275-0.275,0.412-0.412c0.843-0.843,1.664-1.867,2.664-2.536c2.179-1.458,5.205-0.792,6.606,1.406    c1.191,1.868,0.864,4.341-0.689,5.894c-1.8,1.8-3.6,3.6-5.4,5.4c-0.837,0.837-1.618,1.676-2.792,2.048    c-2.538,0.803-5.33-0.726-5.997-3.311c-0.924,0.502-1.656,1.511-2.394,2.249c-0.338,0.338-0.676,0.676-1.014,1.014    c-0.32,0.32,1.975,2.493,2.255,2.717c3.632,2.91,8.973,2.548,12.24-0.72c1.73-1.73,3.46-3.46,5.191-5.191    c0.761-0.761,1.56-1.498,2.173-2.39C-367.268-89.536-366.732-91.9-367.07-94.182z"
   id="path395" />
		<path
   fill="#c8a461"
   d="M-384.708-92.22c0.075,0.009,0.149,0.019,0.224,0.03c-0.223-0.033-0.448-0.058-0.675-0.074    c0.076,0.006,0.151,0.012,0.226,0.019S-384.782-92.229-384.708-92.22z"
   id="path397" />
		<path
   fill="#c8a461"
   d="M-383.617-92.018c-0.14-0.035-0.281-0.066-0.423-0.095c-0.147-0.029-0.295-0.055-0.443-0.077    c0.149,0.022,0.297,0.048,0.443,0.077C-383.898-92.085-383.757-92.053-383.617-92.018z"
   id="path399" />
		<path
   fill="#c8a461"
   d="M-388.3-91.958c-0.072,0.02-0.143,0.041-0.215,0.062c0.016-0.005,0.032-0.009,0.048-0.014    C-388.411-91.926-388.356-91.942-388.3-91.958z"
   id="path401" />
		<path
   fill="#c8a461"
   d="M-388.3-91.958c0.144-0.04,0.288-0.076,0.434-0.109C-388.011-92.034-388.156-91.998-388.3-91.958z"
   id="path403" />
		<path
   fill="#c8a461"
   d="M-389.18-86.456c2.331-2.332,6.433-1.523,7.698,1.53c0.875-0.876,1.749-1.752,2.624-2.628    c0.549-0.55,0.787-0.514,0.253-1.197c-0.744-0.952-1.674-1.759-2.725-2.355c-2.066-1.172-4.57-1.486-6.865-0.879    c-1.967,0.52-3.444,1.695-4.852,3.103c-1.534,1.534-3.069,3.069-4.603,4.603c-1.42,1.42-2.691,2.833-3.29,4.81    c-0.752,2.483-0.408,5.242,0.949,7.454c2.897,4.721,9.527,5.806,13.752,2.217c1.88-1.596,3.556-3.512,5.3-5.256    c-2.082,0.004-4.164,0.008-6.246,0.013c-0.266,0.001-0.743,0.681-0.922,0.86c-0.458,0.458-0.899,0.95-1.44,1.312    c-1.884,1.26-4.472,0.96-6.032-0.675c-1.639-1.719-1.731-4.491-0.184-6.302c0.666-0.78,1.448-1.472,2.173-2.197    C-392.12-83.515-390.65-84.985-389.18-86.456z"
   id="path405" />
		<path
   d="M-387.343-87.595c-0.104,0.034-0.206,0.072-0.307,0.114C-387.549-87.523-387.447-87.561-387.343-87.595z"
   id="path407" />
		<path
   d="M-388.515-91.896c-0.142,0.043-0.284,0.09-0.424,0.14c0.156-0.056,0.313-0.107,0.472-0.154    C-388.482-91.905-388.499-91.901-388.515-91.896z"
   id="path409" />
		<path
   fill="#c8a461"
   d="M-387.203-92.189c-0.149,0.022-0.297,0.048-0.443,0.077c-0.073,0.015-0.147,0.03-0.22,0.046    c0.073-0.016,0.146-0.032,0.22-0.046C-387.499-92.142-387.351-92.167-387.203-92.189z"
   id="path411" />
		<path
   fill="#c8a461"
   d="M-387.038-85.349c0.003,0.012,0.007,0.023,0.01,0.035l0,0C-387.031-85.326-387.035-85.338-387.038-85.349z    "
   id="path413" />
		<path
   fill="#c8a461"
   d="M-390.414-91.073L-390.414-91.073c-0.174,0.101-0.346,0.207-0.514,0.319    C-390.76-90.866-390.588-90.972-390.414-91.073L-390.414-91.073z"
   id="path415" />
		<path
   fill="#c8a461"
   d="M-384.1-71.895l-1.58,1.58c-0.108,0.108-0.219,0.213-0.331,0.316c0.113-0.102,0.223-0.207,0.331-0.316    L-384.1-71.895l1.58-1.58l1.58-1.58l0,0l-1.58,1.58L-384.1-71.895z"
   id="path417" />
		<path
   fill="#c8a461"
   d="M-398.963-70.646c0.102,0.113,0.207,0.223,0.316,0.331c0.158,0.158,0.323,0.308,0.491,0.453    c-0.168-0.145-0.332-0.295-0.491-0.453C-398.756-70.423-398.861-70.534-398.963-70.646z"
   id="path419" />
		<path
   fill="#c8a461"
   d="M-389.625-91.478c-0.09,0.041-0.179,0.083-0.267,0.126c-0.088,0.044-0.176,0.089-0.263,0.135    C-389.981-91.309-389.804-91.397-389.625-91.478z"
   id="path421" />
		<path
   fill="#c8a461"
   d="M-389.175-73.147c-0.12,0.099-0.244,0.191-0.372,0.277c-0.025,0.017-0.05,0.032-0.076,0.048    c0.025-0.016,0.051-0.031,0.076-0.048C-389.42-72.956-389.295-73.048-389.175-73.147z"
   id="path423" />
		<path
   fill="#c8a461"
   d="M-387.248-75.042l3.157-0.006L-387.248-75.042l-1.58,1.58c-0.056,0.056-0.113,0.11-0.17,0.162    c0.058-0.053,0.115-0.107,0.171-0.162L-387.248-75.042z"
   id="path425" />
		<path
   fill="#c8a461"
   d="M-392.621-67.64c-0.152-0.007-0.303-0.018-0.453-0.033C-392.924-67.659-392.773-67.648-392.621-67.64z"
   id="path427" />
		<path
   fill="#c8a461"
   d="M-396.728-77.999c-0.024,0.09-0.045,0.181-0.064,0.273C-396.773-77.818-396.752-77.909-396.728-77.999z"
   id="path429" />
		<polygon
   fill="#c8a461"
   points="-378.209,-88.204 -378.209,-88.204 -381.482,-84.926   "
   id="polygon431" />
		<path
   fill="#c8a461"
   d="M-391.236-72.171c0.302-0.06,0.596-0.149,0.879-0.266C-390.64-72.32-390.934-72.231-391.236-72.171z"
   id="path433" />
		<path
   fill="#c8a461"
   d="M-391.929-72.086c0.234-0.011,0.466-0.04,0.692-0.085C-391.463-72.126-391.694-72.098-391.929-72.086z"
   id="path435" />
	</g>
	<g
   id="g437">
		<path
   fill="#c8a461"
   d="M-311-94.667h-2v-5.485c0-0.646-0.754-1.515-1.401-1.515h-16.967c-0.646,0-1.633,0.869-1.633,1.515v5.485    h-2v-5.485c0-1.938,1.695-3.515,3.633-3.515h16.967c1.938,0,3.401,1.577,3.401,3.515V-94.667z"
   id="path439" />
		<g
   id="g441">
			<path
   fill="#c8a461"
   d="M-337.936-92.512c-2.2,0-4,1.8-4,4v11.825c0,2.2,1.8,4,4,4h1.663c2.2,0,4-1.36,4-3.023s1.8-3.023,4-3.023     h10.748c2.2,0,4,1.36,4,3.023s1.8,3.023,4,3.023h1.741c2.2,0,4-1.8,4-4v-11.825c0-2.2-1.8-4-4-4H-337.936z M-308.546-84.912     c-1.242,0-2.25-1.007-2.25-2.25s1.007-2.25,2.25-2.25c1.242,0,2.25,1.007,2.25,2.25S-307.304-84.912-308.546-84.912z"
   id="path443" />
		</g>
		<path
   fill="#c8a461"
   d="M-332-78.667v12.964c0,0.508,0.156,1.036,0.664,1.036h16.873c0.508,0,0.463-0.528,0.463-1.036v-12.964h3    v12.964c0,2.067-1.396,4.036-3.463,4.036h-16.873c-2.068,0-3.664-1.969-3.664-4.036v-12.964H-332z"
   id="path445" />
		<rect
   x="-330"
   y="-71.667"
   fill="#c8a461"
   width="11"
   height="3"
   id="rect447" />
		<rect
   x="-330"
   y="-76.667"
   fill="#c8a461"
   width="14"
   height="3"
   id="rect449" />
	</g>
	<g
   id="g451">
		<path
   fill="#c8a461"
   d="M37,12.333h-2V6.849c0-0.646-0.754-1.515-1.401-1.515H16.633C15.987,5.333,15,6.202,15,6.849v5.485h-2    V6.849c0-1.938,1.695-3.515,3.633-3.515h16.967C35.538,3.333,37,4.91,37,6.849V12.333z"
   id="path453" />
		<g
   id="g455">
			<path
   fill="#c8a461"
   d="M10.064,14.488c-2.2,0-4,1.8-4,4v11.825c0,2.2,1.8,4,4,4h1.663c2.2,0,4-1.36,4-3.023     c0-1.663,1.8-3.023,4-3.023h10.748c2.2,0,4,1.36,4,3.023c0,1.663,1.8,3.023,4,3.023h1.741c2.2,0,4-1.8,4-4V18.488     c0-2.2-1.8-4-4-4H10.064z M39.454,22.088c-1.242,0-2.25-1.007-2.25-2.25c0-1.242,1.007-2.25,2.25-2.25     c1.242,0,2.25,1.007,2.25,2.25C41.704,21.081,40.696,22.088,39.454,22.088z"
   id="path457" />
		</g>
		<path
   fill="#c8a461"
   d="M16,28.333v12.964c0,0.508,0.156,1.036,0.664,1.036h16.873c0.508,0,0.463-0.528,0.463-1.036V28.333h3    v12.964c0,2.067-1.396,4.036-3.463,4.036H16.664c-2.067,0-3.664-1.969-3.664-4.036V28.333H16z"
   id="path459" />
		<rect
   x="18"
   y="35.333"
   fill="#c8a461"
   width="11"
   height="3"
   id="rect461" />
		<rect
   x="18"
   y="30.333"
   fill="#c8a461"
   width="14"
   height="3"
   id="rect463" />
	</g>
	<path
   fill="#c8a461"
   d="M-1036-92.667h-314v-210h314V-92.667z M-1330-112.667h274v-170h-274V-112.667z"
   id="path465" />
	<g
   id="g467">
		<polygon
   fill="#c8a461"
   points="-1177.615,-185.172 -1053.689,-99.443 -1042.311,-115.89 -1160.426,-197.6   "
   id="polygon469" />
		<polygon
   fill="#c8a461"
   points="-1347.859,-109.77 -1336.141,-93.563 -1210.13,-184.665 -1227.574,-196.733   "
   id="polygon471" />
		<polygon
   fill="#c8a461"
   points="-1334.311,-294.89 -1345.689,-278.443 -1227.574,-196.733 -1210.385,-209.161   "
   id="polygon473" />
		<polygon
   fill="#c8a461"
   points="-1040.141,-284.563 -1051.859,-300.77 -1177.87,-209.668 -1160.426,-197.6   "
   id="polygon475" />
		<polygon
   fill="#c8a461"
   points="-1210.13,-184.665 -1193.873,-173.419 -1177.615,-185.172 -1193.873,-196.419   "
   id="polygon477" />
		<polygon
   fill="#c8a461"
   points="-1177.87,-209.668 -1194.127,-197.915 -1210.385,-209.161 -1227.574,-196.733 -1210.13,-184.665     -1193.873,-196.419 -1177.615,-185.172 -1160.426,-197.6   "
   id="polygon479" />
	</g>
	<g
   id="g481">
		<path
   fill="#c8a461"
   d="M-235-69.667h-44v-31h44V-69.667z M-277-72.667h40v-26h-40V-72.667z"
   id="path483" />
		<g
   id="g485">
			<polygon
   fill="none"
   points="-257.903,-85.441 -257.088,-84.829 -256.273,-85.441 -257.088,-86.052    "
   id="polygon487" />
			<path
   fill="#c8a461"
   d="M-257.088-84.829l-0.408-0.306l-0.408-0.306l-0.827,0.621l-0.827,0.621c0,0,0.895,0.744,1.234,0.927     c0.276,0.149,0.832,0.299,1.218,0.299c0.386,0,0.967-0.148,1.251-0.299c0.341-0.181,1.234-0.927,1.234-0.927l-0.827-0.621     l-0.827-0.621l-0.408,0.306L-257.088-84.829z"
   id="path489" />
			<polygon
   fill="#c8a461"
   points="-235.506,-98.549 -236.698,-100.137 -254.619,-86.682 -252.965,-85.441    "
   id="polygon491" />
			<polygon
   fill="#c8a461"
   points="-277.477,-100.137 -278.669,-98.549 -261.21,-85.441 -259.557,-86.682    "
   id="polygon493" />
			<polygon
   fill="#c8a461"
   points="-278.669,-72.333 -277.477,-70.744 -259.557,-84.199 -261.21,-85.441    "
   id="polygon495" />
			<polygon
   fill="#c8a461"
   points="-254.619,-84.199 -236.698,-70.744 -235.506,-72.333 -252.965,-85.441    "
   id="polygon497" />
			<polygon
   fill="#c8a461"
   points="-259.557,-86.682 -261.21,-85.441 -259.557,-84.199 -257.903,-85.441    "
   id="polygon499" />
			<polygon
   fill="#c8a461"
   points="-254.619,-86.682 -256.273,-85.441 -254.619,-84.199 -252.965,-85.441    "
   id="polygon501" />
		</g>
	</g>
	<g
   id="g503">
		<path
   fill="#c8a461"
   d="M49-62.667H5v-31h44V-62.667z M7-65.667h40v-26H7V-65.667z"
   id="path505" />
		<g
   id="g507">
			<polygon
   fill="none"
   points="26.431,-78.774 27.246,-78.162 28.061,-78.774 27.246,-79.386    "
   id="polygon509" />
			<path
   fill="#c8a461"
   d="M27.246-78.162l-0.408-0.306l-0.408-0.306l-0.827,0.621l-0.827,0.621c0,0,0.895,0.744,1.234,0.927     c0.276,0.149,0.832,0.299,1.218,0.299c0.386,0,0.967-0.148,1.251-0.299c0.341-0.181,1.234-0.927,1.234-0.927l-0.827-0.621     l-0.827-0.621l-0.408,0.306L27.246-78.162z"
   id="path511" />
			<polygon
   fill="#c8a461"
   points="48.827,-91.882 47.635,-93.47 29.715,-80.016 31.368,-78.774    "
   id="polygon513" />
			<polygon
   fill="#c8a461"
   points="6.856,-93.47 5.664,-91.882 23.123,-78.774 24.777,-80.016    "
   id="polygon515" />
			<polygon
   fill="#c8a461"
   points="5.664,-65.666 6.856,-64.078 24.777,-77.532 23.123,-78.774    "
   id="polygon517" />
			<polygon
   fill="#c8a461"
   points="29.715,-77.532 47.635,-64.078 48.827,-65.666 31.368,-78.774    "
   id="polygon519" />
			<polygon
   fill="#c8a461"
   points="24.777,-80.016 23.123,-78.774 24.777,-77.532 26.431,-78.774    "
   id="polygon521" />
			<polygon
   fill="#c8a461"
   points="29.715,-80.016 28.061,-78.774 29.715,-77.532 31.368,-78.774    "
   id="polygon523" />
		</g>
	</g>
</g>
</svg>