<?xml version="1.0" encoding="UTF-8" standalone="no"?>
<!-- Generator: Adobe Illustrator 14.0.0, SVG Export Plug-In . SVG Version: 6.00 Build 43363)  -->

<svg
   xmlns:dc="http://purl.org/dc/elements/1.1/"
   xmlns:cc="http://creativecommons.org/ns#"
   xmlns:rdf="http://www.w3.org/1999/02/22-rdf-syntax-ns#"
   xmlns:svg="http://www.w3.org/2000/svg"
   xmlns="http://www.w3.org/2000/svg"
   xmlns:sodipodi="http://sodipodi.sourceforge.net/DTD/sodipodi-0.dtd"
   xmlns:inkscape="http://www.inkscape.org/namespaces/inkscape"
   version="1.1"
   id="Calque_1"
   x="0px"
   y="0px"
   width="85.635px"
   height="60px"
   viewBox="0 0 85.635 60"
   enable-background="new 0 0 85.635 60"
   xml:space="preserve"
   inkscape:version="0.48.4 r9939"
   sodipodi:docname="share.svgz"><metadata
   id="metadata27"><rdf:RDF><cc:Work
       rdf:about=""><dc:format>image/svg+xml</dc:format><dc:type
         rdf:resource="http://purl.org/dc/dcmitype/StillImage" /><dc:title></dc:title></cc:Work></rdf:RDF></metadata><defs
   id="defs25" /><sodipodi:namedview
   pagecolor="#ffffff"
   bordercolor="#666666"
   borderopacity="1"
   objecttolerance="10"
   gridtolerance="10"
   guidetolerance="10"
   inkscape:pageopacity="0"
   inkscape:pageshadow="2"
   inkscape:window-width="1920"
   inkscape:window-height="1017"
   id="namedview23"
   showgrid="false"
   inkscape:zoom="3.9333333"
   inkscape:cx="42.817501"
   inkscape:cy="30"
   inkscape:window-x="-8"
   inkscape:window-y="-8"
   inkscape:window-maximized="1"
   inkscape:current-layer="Calque_1" />
<path
   d="M60.837,38.998c-2.704,0-5.16,1.036-7.014,2.723L33.864,31.544c0.08-0.52,0.134-1.048,0.134-1.59  c0-0.305-0.02-0.606-0.046-0.905l20.148-10.271c1.819,1.539,4.168,2.471,6.737,2.471c5.766,0,10.44-4.674,10.44-10.439  c0-5.766-4.675-10.441-10.44-10.441S50.397,5.042,50.397,10.809c0,0.318,0.02,0.631,0.047,0.942l-20.121,10.26  c-1.822-1.554-4.182-2.497-6.764-2.497c-5.766,0-10.441,4.674-10.441,10.44c0,5.767,4.675,10.44,10.441,10.44  c2.325,0,4.465-0.77,6.2-2.055l20.666,10.536c-0.01,0.188-0.028,0.371-0.028,0.56c0,5.768,4.674,10.44,10.44,10.44  c5.766,0,10.439-4.673,10.439-10.44C71.277,43.672,66.602,38.998,60.837,38.998"
   id="path21" fill="#c8a461" />
</svg>