<?xml version="1.0" encoding="utf-8"?>
<!-- Generator: Adobe Illustrator 19.1.0, SVG Export Plug-In . SVG Version: 6.00 Build 0)  -->
<svg version="1.1" id="Calque_1" xmlns="http://www.w3.org/2000/svg" xmlns:xlink="http://www.w3.org/1999/xlink" x="0px" y="0px"
	 viewBox="0 0 22.6 17.8" style="enable-background:new 0 0 22.6 17.8;" xml:space="preserve">
<g>
	<path d="M10.6,13.2c1,0,1.8,0.8,1.8,1.8c0,1-0.8,1.8-1.8,1.8c-1,0-1.8-0.8-1.8-1.8C8.8,14,9.6,13.2,10.6,13.2 M10.6,12.2
		c-1.5,0-2.8,1.2-2.8,2.8s1.2,2.8,2.8,2.8s2.8-1.2,2.8-2.8S12.1,12.2,10.6,12.2L10.6,12.2z"/>
	<path d="M6.5,3v3.5H1.6V3H6.5 M6.4,2.1H1.6C1.1,2.1,0.7,2.5,0.7,3v3.5c0,0.5,0.4,0.9,0.9,0.9h4.8c0.5,0,0.9-0.4,0.9-0.9V3
		C7.4,2.5,7,2.1,6.4,2.1L6.4,2.1z"/>
	<path d="M13.8,3v3.5H9V3H13.8 M13.8,2.1H9C8.5,2.1,8.1,2.5,8.1,3v3.5C8.1,7,8.5,7.4,9,7.4h4.8c0.5,0,0.9-0.4,0.9-0.9V3
		C14.8,2.5,14.3,2.1,13.8,2.1L13.8,2.1z"/>
	<path d="M18.7,3l0.9,4.8v4.8h-3.2V3H18.7 M18.7,2.1h-2.3c-0.5,0-0.9,0.4-0.9,0.9v9.7c0,0.5,0.4,0.9,0.9,0.9h3.2
		c0.5,0,0.9-0.4,0.9-0.9V7.8c0-0.1,0-0.1,0-0.2l-0.9-4.8C19.5,2.4,19.1,2.1,18.7,2.1L18.7,2.1z"/>
	<path d="M21.2,2.1C21,0.9,20.1,0,18.9,0H0v0.9h0.9h0.7h17.3c0.7,0,1.3,0.7,1.4,1.3l1.4,6.8v4.5c0,0.3-0.2,0.5-0.5,0.5h-6.3
		c-0.4-2.1-2.2-3.5-4.3-3.5S6.8,12,6.3,14.1H1.6H0.9H0V15h7.2c0-1.8,1.6-3.5,3.5-3.5s3.5,1.6,3.5,3.5h7.2c0.8,0,1.4-0.6,1.4-1.4
		c0-0.4,0-4.6,0-4.6L21.2,2.1z"/>
</g>
</svg>
