<?xml version="1.0" encoding="utf-8"?>
<!-- Generator: Adobe Illustrator 19.1.0, SVG Export Plug-In . SVG Version: 6.00 Build 0)  -->
<svg version="1.1" id="Calque_1" xmlns="http://www.w3.org/2000/svg" xmlns:xlink="http://www.w3.org/1999/xlink" x="0px" y="0px"
	 viewBox="0 0 26 18" style="enable-background:new 0 0 26 18;" xml:space="preserve">
<g>
	<g>
		<path d="M25.5,7.4c-0.1,0-0.3-0.1-0.4-0.2c-2.6-4-6.9-6.3-12.2-6.3S3.4,3.2,0.8,7.2C0.7,7.4,0.4,7.5,0.2,7.3
			C0,7.2-0.1,6.9,0.1,6.7C2.9,2.4,7.5,0,13,0s10.1,2.4,12.9,6.7c0.1,0.2,0.1,0.5-0.1,0.6C25.7,7.4,25.6,7.4,25.5,7.4z"/>
	</g>
	<g>
		<path d="M4.4,10.5c-0.1,0-0.2,0-0.2-0.1C3.9,10.3,3.9,10,4,9.8C6,6.8,9.1,5.2,13,5.2s7,1.7,8.9,4.6c0.1,0.2,0.1,0.5-0.1,0.6
			c-0.2,0.1-0.5,0.1-0.6-0.1c-1.8-2.7-4.7-4.3-8.2-4.3s-6.4,1.5-8.2,4.2C4.7,10.4,4.5,10.5,4.4,10.5z"/>
	</g>
	<g>
		<path d="M17.9,13.7c-0.1,0-0.3-0.1-0.4-0.2c-1-1.5-2.6-2.3-4.5-2.3c-1.9,0-3.5,0.8-4.5,2.3c-0.1,0.2-0.4,0.3-0.6,0.1
			c-0.2-0.1-0.3-0.4-0.1-0.6c1.1-1.7,3-2.7,5.3-2.7c2.2,0,4.1,1,5.3,2.7c0.1,0.2,0.1,0.5-0.1,0.6C18,13.7,17.9,13.7,17.9,13.7z"/>
	</g>
	<g>
		<path d="M12.9,18c-1.2,0-2.1-0.9-2.1-2.1s0.9-2.1,2.1-2.1s2.1,0.9,2.1,2.1S14,18,12.9,18z M12.9,14.7c-0.7,0-1.2,0.6-1.2,1.2
			c0,0.7,0.6,1.2,1.2,1.2c0.7,0,1.2-0.6,1.2-1.2C14.1,15.2,13.5,14.7,12.9,14.7z"/>
	</g>
</g>
</svg>
