<?xml version="1.0" encoding="utf-8"?>
<!-- Generator: Adobe Illustrator 19.1.0, SVG Export Plug-In . SVG Version: 6.00 Build 0)  -->
<svg version="1.1" id="Calque_1" xmlns="http://www.w3.org/2000/svg" xmlns:xlink="http://www.w3.org/1999/xlink" x="0px" y="0px"
   viewBox="-466.2 468.5 54.2 71.1" style="enable-background:new -466.2 468.5 54.2 71.1;" xml:space="preserve">
<g>
  <path d="M-414.6,498.7h-3.9c-0.5,0-1-0.4-1-1v-9.2c0-10.6-8.2-19.6-18.8-20c-11.1-0.4-20.3,8.5-20.3,19.6v9.7c0,0.5-0.4,1-1,1h-3.9
    c-1.5,0-2.7,1.2-2.7,2.7v35.4c0,1.5,1.2,2.7,2.7,2.7h48.8c1.5,0,2.7-1.2,2.7-2.7v-35.5C-411.9,499.9-413.1,498.7-414.6,498.7z
     M-452.5,488.1c0-7.7,6.4-13.9,14.2-13.5c7.3,0.4,12.9,6.6,12.9,13.9v9.3c0,0.5-0.4,1-1,1h-25.2c-0.5,0-1-0.4-1-1v-9.7H-452.5z" fill="#b0b0b0" />
</g>
</svg>
