<?xml version="1.0" encoding="utf-8"?>
<!-- Generator: Adobe Illustrator 19.1.0, SVG Export Plug-In . SVG Version: 6.00 Build 0)  -->
<svg version="1.1" id="Calque_1" xmlns="http://www.w3.org/2000/svg" xmlns:xlink="http://www.w3.org/1999/xlink" x="0px" y="0px"
	 viewBox="0 0 17.4 17.5" style="enable-background:new 0 0 17.4 17.5;" xml:space="preserve">
<g>
	<path d="M4.9,17.4H0V0.6h4.9V17.4z M0.7,16.7h3.5V1.3H0.7V16.7z"/>
	<rect x="1.2" y="14.1" width="2.5" height="0.7"/>
	<rect x="1.2" y="12.6" width="2.5" height="0.7"/>
	<rect x="1.2" y="3.1" width="2.5" height="0.7"/>
	<path d="M10.5,17.4H5.6V0.6h4.9V17.4z M6.3,16.7h3.5V1.3H6.3V16.7z"/>
	<rect x="6.8" y="14.1" width="2.5" height="0.7"/>
	<rect x="6.8" y="12.6" width="2.5" height="0.7"/>
	<rect x="6.8" y="3.1" width="2.5" height="0.7"/>
	<g>
		<path d="M12.5,17.5L10.3,0.8L15.2,0l2.2,16.6L12.5,17.5z M11.1,1.4l2,15.2l3.5-0.6l-2-15.2L11.1,1.4z"/>
		<rect x="14.2" y="12.9" transform="matrix(0.1573 0.9876 -0.9876 0.1573 26.2028 -2.4547)" width="0.7" height="2.5"/>
		<rect x="14" y="11.4" transform="matrix(0.1714 0.9852 -0.9852 0.1714 24.3437 -3.6186)" width="0.7" height="2.5"/>
		<rect x="12.7" y="2" transform="matrix(0.1577 0.9875 -0.9875 0.1577 14.2408 -10.1915)" width="0.7" height="2.5"/>
	</g>
</g>
</svg>
