<?xml version="1.0" encoding="utf-8"?>
<!-- Generator: Adobe Illustrator 16.0.0, SVG Export Plug-In . SVG Version: 6.00 Build 0)  -->
<!DOCTYPE svg PUBLIC "-//W3C//DTD SVG 1.1//EN" "http://www.w3.org/Graphics/SVG/1.1/DTD/svg11.dtd">
<svg version="1.1" id="Capa_1" xmlns="http://www.w3.org/2000/svg" xmlns:xlink="http://www.w3.org/1999/xlink" x="0px" y="0px"
	 width="533.334px" height="533.334px" viewBox="0 0 533.334 533.334" enable-background="new 0 0 533.334 533.334"
	 xml:space="preserve">
<g>
	
		<ellipse fill="none" stroke="#C8A461" stroke-width="4" stroke-miterlimit="10" cx="279.667" cy="259.68" rx="245.486" ry="234.513"/>
	<path fill="#C8A461" d="M532.566,174.032l-6.179,39.625c0,0-8.829-73.362-19.65-100.789
		c-16.587-42.025-23.966-41.688-24.016-41.626c11.109,28.231,9.094,43.398,9.094,43.398s-19.684-53.645-71.724-70.713
		c-57.649-18.897-88.839-13.73-92.442-12.753c-0.547-0.004-1.074-0.005-1.576-0.005c0.424,0.033,0.839,0.077,1.263,0.11
		c-0.019,0.011-0.047,0.022-0.042,0.028c0.232,0.285,63.7,11.094,74.956,26.56c0,0-26.958,0-53.787,7.731
		c-1.213,0.347,98.71,12.481,119.139,112.33c0,0-10.954-22.852-24.502-26.733c8.909,27.102,6.622,78.529-1.861,104.089
		c-1.093,3.287-2.209-14.209-18.921-21.745c5.354,38.358-0.32,99.196-26.932,115.955c-2.074,1.305,16.682-60.058,3.771-36.335
		c-74.327,113.96-162.19,52.59-201.693,25.579c20.243,4.406,58.674-0.687,75.686-13.341c0.021-0.016,0.039-0.028,0.062-0.046
		c18.474-12.631,29.412-21.854,39.235-19.672c9.83,2.194,16.375-7.671,8.74-16.423c-7.645-8.77-26.203-20.82-51.313-14.254
		c-17.708,4.639-39.654,24.231-73.15,4.393c-25.71-15.234-28.131-27.89-28.359-36.654c0.634-3.107,1.434-6.008,2.383-8.659
		c2.959-8.265,11.933-10.759,16.924-12.728c8.467,1.454,15.761,4.095,23.421,8.024c0.099-2.549,0.131-5.933-0.009-9.771
		c0.734-1.459,0.28-5.86-0.897-11.24c-0.678-5.369-1.781-10.924-3.517-15.985c0.006-0.001,0.01-0.005,0.016-0.007
		c0.029-0.01,0.056-0.021,0.082-0.037c0.041-0.023,0.076-0.059,0.108-0.099c0.006-0.01,0.016-0.017,0.023-0.027
		c0.043-0.064,0.08-0.142,0.103-0.243c0.531-2.405,6.262-7.044,13.395-12.031c6.392-4.469,13.907-9.217,19.827-12.892
		c5.24-3.254,9.229-5.668,10.077-6.301c0.321-0.243,0.707-0.527,1.127-0.852c0.078-0.061,0.156-0.121,0.236-0.185
		c0.049-0.038,0.099-0.077,0.149-0.117c2.817-2.244,7.023-6.483,7.905-15.405c0.002-0.022,0.005-0.042,0.006-0.064
		c0.026-0.262,0.048-0.528,0.067-0.799c0.015-0.188,0.026-0.378,0.038-0.571c0.007-0.148,0.017-0.295,0.023-0.445
		c0.016-0.352,0.026-0.711,0.031-1.075c0-0.021,0.001-0.04,0.002-0.061c0.012-0.864-0.003-1.764-0.054-2.709
		c-0.028-0.528-0.065-1.005-0.155-1.438c-0.004-0.023-0.01-0.048-0.015-0.071c-0.009-0.042-0.019-0.085-0.03-0.127
		c-0.019-0.076-0.04-0.152-0.063-0.224c-0.003-0.009-0.006-0.017-0.009-0.024c-0.027-0.083-0.058-0.164-0.09-0.242
		c-0.002-0.003-0.002-0.005-0.003-0.008c-0.913-2.139-4.333-2.947-18.459-3.187c-0.013-0.001-0.026-0.001-0.039-0.001l0,0
		c-5.764-0.098-13.301-0.102-23.179-0.062c-17.317,0.07-26.889-16.929-29.944-23.506c4.188-23.156,16.29-39.657,36.171-50.847
		c0.376-0.212,0.302-0.387-0.142-0.509c3.887-2.352-47.003-0.064-70.41,29.707c-20.775-5.164-38.882-4.816-54.487-1.154
		c-2.997-0.084-6.731-0.458-11.164-1.381C77.433,75.984,62.576,58.616,61.78,37.884c0,0-0.048,0.038-0.131,0.106
		c-0.011-0.199-0.03-0.396-0.038-0.595c0,0-31.623,24.304-26.89,90.563c-0.012,1.061-0.034,2.076-0.062,3.06
		c-8.558,11.608-12.805,21.365-13.121,23.519C13.957,169.977,6.262,193.212,0,228.486c0,0,4.379-13.888,13.169-29.618
		c-6.464,19.803-11.544,50.603-8.561,96.8c0,0,0.789-10.243,3.58-24.997c2.181,28.652,11.729,64.024,35.864,105.619
		c46.327,79.854,117.537,120.177,196.246,126.362c13.977,1.151,28.15,1.179,42.408,0.096c1.311-0.092,2.621-0.188,3.932-0.299
		c16.125-1.132,32.36-3.568,48.562-7.481C556.644,441.427,532.566,174.032,532.566,174.032z"/>
</g>
</svg>
