<?xml version="1.0" encoding="utf-8"?>
<!-- Generator: Adobe Illustrator 16.0.0, SVG Export Plug-In . SVG Version: 6.00 Build 0)  -->
<!DOCTYPE svg PUBLIC "-//W3C//DTD SVG 1.1//EN" "http://www.w3.org/Graphics/SVG/1.1/DTD/svg11.dtd">
<svg version="1.1"
	 id="Calque_1" xmlns:dc="http://purl.org/dc/elements/1.1/" xmlns:cc="http://creativecommons.org/ns#" xmlns:rdf="http://www.w3.org/1999/02/22-rdf-syntax-ns#" xmlns:svg="http://www.w3.org/2000/svg" xmlns:sodipodi="http://sodipodi.sourceforge.net/DTD/sodipodi-0.dtd" xmlns:inkscape="http://www.inkscape.org/namespaces/inkscape" sodipodi:docname="participer.svgz" inkscape:version="0.48.4 r9939"
	 xmlns="http://www.w3.org/2000/svg" xmlns:xlink="http://www.w3.org/1999/xlink" x="0px" y="0px" width="85.635px" height="60px"
	 viewBox="0 0 85.635 60" enable-background="new 0 0 85.635 60" xml:space="preserve">
<sodipodi:namedview  inkscape:cy="30" inkscape:cx="42.817501" inkscape:zoom="3.9333333" showgrid="false" guidetolerance="10" gridtolerance="10" objecttolerance="10" borderopacity="1" pagecolor="#ffffff" bordercolor="#666666" id="namedview23" inkscape:current-layer="Calque_1" inkscape:window-maximized="0" inkscape:window-y="0" inkscape:window-x="0" inkscape:window-height="480" inkscape:window-width="640" inkscape:pageopacity="0" inkscape:pageshadow="2">
	</sodipodi:namedview>
<path id="path21" fill="#FFFFFF" d="M42.819,0C30.068,0,19.727,10.659,19.727,23.796c0,3.33,0.67,6.502,1.868,9.38
	c0,0,2.704,4.969,4.183,6.635l16.993,20.271l16.712-19.848c1.766-1.897,4.557-7.06,4.557-7.06c1.201-2.877,1.872-6.05,1.872-9.38
	C65.911,10.659,55.563,0,42.819,0z M42.746,30.389c-4.734,0-8.573-3.84-8.573-8.572c0-4.734,3.839-8.574,8.573-8.574
	c4.729,0,8.569,3.84,8.569,8.574C51.315,26.549,47.476,30.389,42.746,30.389z"/>
</svg>
