<?xml version="1.0" encoding="utf-8"?>
<!-- Generator: Adobe Illustrator 16.0.0, SVG Export Plug-In . SVG Version: 6.00 Build 0)  -->
<!DOCTYPE svg PUBLIC "-//W3C//DTD SVG 1.1//EN" "http://www.w3.org/Graphics/SVG/1.1/DTD/svg11.dtd">
<svg version="1.1" id="Capa_1" xmlns="http://www.w3.org/2000/svg" xmlns:xlink="http://www.w3.org/1999/xlink" x="0px" y="0px"
	 width="22px" height="21px" viewBox="0 0 22 21" enable-background="new 0 0 22 21" xml:space="preserve">
<g>
	<g>
		<path fill="none" stroke="#C8A461" stroke-miterlimit="10" d="M11.202,1.188c-5.135,0-9.312,4.177-9.312,9.312
			c0,5.135,4.177,9.312,9.312,9.312c5.135,0,9.312-4.178,9.312-9.312C20.515,5.365,16.337,1.188,11.202,1.188z M15.219,6.889
			L12.6,11.775c-0.003,0.005-0.008,0.008-0.012,0.013c-0.012,0.02-0.029,0.035-0.046,0.051c-0.017,0.018-0.032,0.034-0.052,0.046
			c-0.004,0.004-0.008,0.01-0.014,0.012l-4.885,2.62c-0.044,0.024-0.094,0.037-0.142,0.037c-0.078,0-0.155-0.031-0.212-0.089
			c-0.094-0.094-0.115-0.237-0.053-0.354l2.62-4.886c0.003-0.005,0.009-0.008,0.012-0.013c0.012-0.02,0.029-0.035,0.045-0.052
			c0.017-0.017,0.032-0.033,0.051-0.045c0.005-0.003,0.008-0.009,0.014-0.012l4.885-2.62c0.117-0.062,0.261-0.042,0.354,0.052
			C15.261,6.628,15.282,6.772,15.219,6.889z"/>
	</g>
</g>
<polygon fill="#C8A461" points="9.756,9.383 7.298,14.293 12.634,11.771 15.106,6.707 "/>
</svg>
