<?xml version="1.0" encoding="utf-8"?>
<!-- Generator: Adobe Illustrator 19.1.0, SVG Export Plug-In . SVG Version: 6.00 Build 0)  -->
<svg version="1.1" id="Calque_1" xmlns="http://www.w3.org/2000/svg" xmlns:xlink="http://www.w3.org/1999/xlink" x="0px" y="0px"
	 viewBox="0 0 18.9 23.6" style="enable-background:new 0 0 18.9 23.6;" xml:space="preserve">
<path d="M15.2,0c-0.7,0-1.3,0.2-1.8,0.5l0,0l0,0c-1.1,0.6-1.9,1.8-1.9,3.2c0,0.1,0,0.3,0,0.4L3.1,9.4C2.9,9.5,2.9,9.7,3,9.8l0.6,1
	c-0.7,0.4-2.4,1.5-3.1,2.7c-1.1,1.9-0.3,3.7,0.3,5.2c0.2,0.5,0.4,1,0.5,1.4c0.3,1.3,0,2.4-0.9,3c-0.1,0.1-0.1,0.3-0.1,0.4
	c0.1,0.1,0.1,0.1,0.2,0.1c0.1,0,0.1,0,0.2-0.1c1.1-0.8,1.5-2.1,1.1-3.6c-0.1-0.4-0.3-0.9-0.5-1.5C0.7,17,0.1,15.4,1,13.8
	c0.6-1.1,2.2-2.1,2.8-2.5l0.7,1.1c0,0.1,0.1,0.1,0.2,0.1c0,0,0.1,0,0.1,0c0.1,0,0.1,0,0.1-0.1l4.9-3.1V16H6.2
	c-0.4,0-0.8,0.2-0.9,0.6c0,0.1-0.1,0.1-0.1,0.2V17c0,0.1,0,0.1,0.1,0.2c0.1,0.4,0.5,0.6,0.9,0.6h9.4c0.4,0,0.8-0.2,0.9-0.6
	c0-0.1,0.1-0.1,0.1-0.2v-0.2c0-0.1,0-0.1-0.1-0.2C16.4,16.3,16,16,15.6,16H12V8.1L13.7,7c0,0,0,0,0,0c0.5,0.2,1,0.3,1.5,0.3
	c0.8,0,1.5-0.2,2.1-0.7c0,0,0,0,0,0l0,0c0.9-0.7,1.5-1.8,1.5-3C18.9,1.6,17.2,0,15.2,0z M17.3,6L14,0.8c0.4-0.2,0.8-0.3,1.3-0.3
	c1.7,0,3.1,1.4,3.1,3.1C18.3,4.6,17.9,5.4,17.3,6z M13.2,6.7L12,7.4l-0.3,0.2l-0.3,0.2l-1.1,0.7l-0.3,0.2L9.8,8.7l-5,3.2l-0.6-1
	c0-0.1,0-0.1,0-0.1c0-0.1-0.1-0.1-0.1-0.1L3.6,9.7l8.1-5.1l0.1-0.1l0.4,0.6l0.4,0.6L13.2,6.7L13.2,6.7z M16,16.9
	c0,0.2-0.2,0.3-0.4,0.3H6.2c-0.2,0-0.4-0.1-0.4-0.3c0-0.2,0.2-0.3,0.4-0.3h3.9h1.6h3.9C15.8,16.6,15.9,16.7,16,16.9z M11.4,16h-1.1
	V9.1l1.1-0.7V16z M13.6,6.3l-1.4-2.2c0-0.1,0-0.3,0-0.4c0-1.1,0.5-2,1.4-2.6l3.3,5.3c-0.5,0.3-1,0.5-1.6,0.5
	C14.6,6.8,14,6.6,13.6,6.3z"/>
</svg>
