<?xml version="1.0" encoding="UTF-8" standalone="no"?>
<!-- Generator: Adobe Illustrator 15.1.0, SVG Export Plug-In . SVG Version: 6.00 Build 0)  -->

<svg
   xmlns:dc="http://purl.org/dc/elements/1.1/"
   xmlns:cc="http://creativecommons.org/ns#"
   xmlns:rdf="http://www.w3.org/1999/02/22-rdf-syntax-ns#"
   xmlns:svg="http://www.w3.org/2000/svg"
   xmlns="http://www.w3.org/2000/svg"
   xmlns:sodipodi="http://sodipodi.sourceforge.net/DTD/sodipodi-0.dtd"
   xmlns:inkscape="http://www.inkscape.org/namespaces/inkscape"
   version="1.1"
   id="Calque_1"
   x="0px"
   y="0px"
   width="85.635px"
   height="60px"
   viewBox="0 0 85.635 60"
   enable-background="new 0 0 85.635 60"
   xml:space="preserve"
   inkscape:version="0.48.4 r9939"
   sodipodi:docname="twitter.svgz"><metadata
   id="metadata27"><rdf:RDF><cc:Work
       rdf:about=""><dc:format>image/svg+xml</dc:format><dc:type
         rdf:resource="http://purl.org/dc/dcmitype/StillImage" /><dc:title></dc:title></cc:Work></rdf:RDF></metadata><defs
   id="defs25" /><sodipodi:namedview
   pagecolor="#ffffff"
   bordercolor="#666666"
   borderopacity="1"
   objecttolerance="10"
   gridtolerance="10"
   guidetolerance="10"
   inkscape:pageopacity="0"
   inkscape:pageshadow="2"
   inkscape:window-width="640"
   inkscape:window-height="480"
   id="namedview23"
   showgrid="false"
   inkscape:zoom="3.9333333"
   inkscape:cx="42.817501"
   inkscape:cy="30"
   inkscape:window-x="0"
   inkscape:window-y="0"
   inkscape:window-maximized="0"
   inkscape:current-layer="Calque_1" />
<path
   d="M79.583,7.312c-2.705,1.199-5.609,2.011-8.664,2.375c3.116-1.867,5.506-4.825,6.633-8.346  c-2.912,1.73-6.141,2.985-9.581,3.662C65.22,2.07,61.299,0.241,56.959,0.241c-8.328,0-15.082,6.75-15.082,15.084  c0,1.181,0.133,2.333,0.389,3.438c-12.537-0.631-23.653-6.636-31.092-15.761c-1.3,2.228-2.043,4.82-2.043,7.585  c0,5.231,2.664,9.849,6.711,12.553c-2.473-0.078-4.798-0.756-6.833-1.885c0,0.062,0,0.125,0,0.19c0,7.31,5.198,13.404,12.1,14.79  c-1.268,0.348-2.598,0.528-3.975,0.528c-0.973,0-1.917-0.092-2.84-0.266c1.92,5.992,7.492,10.353,14.09,10.476  c-5.163,4.048-11.668,6.46-18.734,6.46c-1.216,0-2.419-0.073-3.6-0.215C12.727,57.501,20.654,60,29.173,60  c27.745,0,42.919-22.985,42.919-42.919c0-0.654-0.014-1.304-0.045-1.952C75.003,12.993,77.561,10.336,79.583,7.312z"
   id="path21" fill="#fff" />
</svg>