<?xml version="1.0" encoding="utf-8"?>
<!-- Generator: Adobe Illustrator 19.1.0, SVG Export Plug-In . SVG Version: 6.00 Build 0)  -->
<svg version="1.1" id="Calque_1" xmlns="http://www.w3.org/2000/svg" xmlns:xlink="http://www.w3.org/1999/xlink" x="0px" y="0px"
	 viewBox="0 0 14.4 18" style="enable-background:new 0 0 14.4 18;" xml:space="preserve">
<path d="M7.2,0C4.5,0,0,0.4,0,1.9v3.2l0,0l0,0c0,0.7,1,1.2,2.3,1.5L0,17.5c0,0.2,0.1,0.4,0.3,0.5c0,0,0,0,0.1,0
	c0.2,0,0.3-0.1,0.4-0.3l2.3-11C4.3,6.9,5.7,7,6.8,7v6.6C6.8,13.8,7,14,7.2,14s0.4-0.2,0.4-0.4V7c1.2,0,2.5-0.1,3.6-0.3l2.3,11
	c0,0.2,0.2,0.3,0.4,0.3c0,0,0,0,0.1,0c0.2,0,0.3-0.2,0.3-0.5L12,6.6c1-0.2,1.7-0.5,2.1-0.9c0.2-0.2,0.3-0.4,0.3-0.6l0,0V1.9
	C14.4,0.4,9.9,0,7.2,0z M7.2,0.8c4,0,6.2,0.7,6.4,1.1C13.4,2.2,11.2,3,7.2,3C3.2,3,1,2.2,0.8,1.9l0,0C1,1.5,3.2,0.8,7.2,0.8z
	 M11.5,5.8C11.5,5.8,11.5,5.8,11.5,5.8c-0.1,0-0.1,0-0.1,0c-1.1,0.2-2.5,0.3-4.2,0.3C5.4,6.2,3.9,6,2.9,5.8c0,0,0,0,0,0h0
	c-1.3-0.2-2-0.5-2-0.7V2.9c1.5,0.7,4.4,0.9,6.4,0.9s5-0.2,6.4-0.9v2.2C13.5,5.3,12.8,5.6,11.5,5.8z"/>
</svg>
