<svg xmlns="http://www.w3.org/2000/svg" width="87" height="102" viewBox="0 0 87 102">
  <metadata><?xpacket begin="﻿" id="W5M0MpCehiHzreSzNTczkc9d"?>
<x:xmpmeta xmlns:x="adobe:ns:meta/" x:xmptk="Adobe XMP Core 5.6-c138 79.159824, 2016/09/14-01:09:01        ">
   <rdf:RDF xmlns:rdf="http://www.w3.org/1999/02/22-rdf-syntax-ns#">
      <rdf:Description rdf:about=""/>
   </rdf:RDF>
</x:xmpmeta>
                                                                                                    
                                                                                                    
                                                                                                    
                                                                                                    
                                                                                                    
                                                                                                    
                                                                                                    
                                                                                                    
                                                                                                    
                                                                                                    
                                                                                                    
                                                                                                    
                                                                                                    
                                                                                                    
                                                                                                    
                                                                                                    
                                                                                                    
                                                                                                    
                                                                                                    
                                                                                                    
                           
<?xpacket end="w"?></metadata>
<defs>
    <style>
      .cls-1 {
        fill: #fff;
        fill-rule: evenodd;
      }
    </style>
  </defs>
  <path class="cls-1" d="M835.056,137.058L830,149l12.241-5.207a12.978,12.978,0,0,0-2.663-4.149A11.461,11.461,0,0,0,835.056,137.058ZM855.5,116.373L837.59,134.284a19.075,19.075,0,0,1,4.416,2.932,18.019,18.019,0,0,1,2.709,4.195l17.9-17.9a16.285,16.285,0,0,0-3.011-4.485A13.324,13.324,0,0,0,855.5,116.373Zm11.034-3.911a5.073,5.073,0,0,0-7.273.149l-1.159,1.16a13.973,13.973,0,0,1,4.17,2.733,15.85,15.85,0,0,1,2.95,4.4l1.164-1.164A5.073,5.073,0,0,0,866.536,112.462Zm-42.3-23.473L809.785,99.706l-7.053-5.448-2.717,2.9,9.8,10.68,17.171-15.959Zm0,21.176-14.451,10.717-7.053-5.448-2.717,2.9,9.8,10.68,17.171-15.959ZM825.5,137.25H793.714V60.75h57.215v44.625h12.714V60.75A12.733,12.733,0,0,0,850.929,48H793.714A12.733,12.733,0,0,0,781,60.75v76.5A12.733,12.733,0,0,0,793.714,150h31.5v-6.375H825.5V137.25Z" transform="translate(-781 -48)"/>
</svg>
