<svg xmlns="http://www.w3.org/2000/svg" width="48" height="42" viewBox="0 0 16 14">
  <metadata><?xpacket begin="﻿" id="W5M0MpCehiHzreSzNTczkc9d"?>
<x:xmpmeta xmlns:x="adobe:ns:meta/" x:xmptk="Adobe XMP Core 5.6-c138 79.159824, 2016/09/14-01:09:01        ">
   <rdf:RDF xmlns:rdf="http://www.w3.org/1999/02/22-rdf-syntax-ns#">
      <rdf:Description rdf:about=""/>
   </rdf:RDF>
</x:xmpmeta>
                                                                                                    
                                                                                                    
                                                                                                    
                                                                                                    
                                                                                                    
                                                                                                    
                                                                                                    
                                                                                                    
                                                                                                    
                                                                                                    
                                                                                                    
                                                                                                    
                                                                                                    
                                                                                                    
                                                                                                    
                                                                                                    
                                                                                                    
                                                                                                    
                                                                                                    
                                                                                                    
                           
<?xpacket end="w"?></metadata>
<defs>
    <style>
      .cls-1 {
        fill: #fff;
        fill-rule: evenodd;
      }
    </style>
  </defs>
  <path id="_3" data-name="3" class="cls-1" d="M1166,120a2,2,0,0,1-2,2h-8a2,2,0,0,1-2-2v-4a1.986,1.986,0,0,1,1.04-1.745,3,3,0,1,1,4.18-.255h1.84a3.5,3.5,0,1,1,4.24.489A2.008,2.008,0,0,1,1166,116l3-2a1,1,0,0,1,1,1v6a1,1,0,0,1-1,1Zm-9-10a2,2,0,1,0,2,2A2,2,0,0,0,1157,110Zm9.01,1.5a2.51,2.51,0,1,0-2.51,2.506A2.512,2.512,0,0,0,1166.01,111.5Z" transform="translate(-1154 -108)"/>
</svg>
