<?xml version="1.0" encoding="utf-8"?>
<!-- Generator: Adobe Illustrator 19.2.0, SVG Export Plug-In . SVG Version: 6.00 Build 0)  -->
<svg version="1.1" id="Calque_1" xmlns="http://www.w3.org/2000/svg" xmlns:xlink="http://www.w3.org/1999/xlink" x="0px" y="0px"
	 viewBox="0 0 100 100" style="enable-background:new 0 0 100 100;" xml:space="preserve">
<g>
	<path d="M92.6,11.8H7.4c-4,0-7.4,3.4-7.4,7.4v61.6c0,4,3.4,7.4,7.4,7.4h85.1c4,0,7.4-3.4,7.4-7.4V19.2
		C100,15.2,96.6,11.8,92.6,11.8z M95.9,80.8c0,1.8-1.5,3.3-3.3,3.3H7.4c-1.8,0-3.3-1.5-3.3-3.3V19.2c0-1.8,1.5-3.3,3.3-3.3h85.1
		c1.8,0,3.3,1.5,3.3,3.3V80.8z"/>
	<path d="M45.5,24.2h-26c-3.4,0-7,2.8-7,7v26c0,3.4,2.8,7,7,7h26c4,0,7-3,7-7v-26C52.5,27.8,49.7,24.2,45.5,24.2z M48.3,57.2
		c0,1.8-1.1,2.9-2.9,2.9h-26c-1.7,0-2.9-1.5-2.9-2.9v-26c0-1.7,1.5-2.9,2.9-2.9h26c1.7,0,2.9,1.5,2.9,2.9V57.2z"/>
	<path d="M82.6,30.8H64c-1.7,0-3.3,1.7-3.3,3.3c0,1.7,1.7,3.3,3.3,3.3h18.6c2.1,0,3.3-1.2,3.3-3.3C86,32.4,84.3,30.8,82.6,30.8z"/>
	<path d="M82.6,40.7H64c-1.7,0-3.3,1.7-3.3,3.3c0,1.7,1.7,3.3,3.3,3.3h18.6c2.1,0,3.3-1.2,3.3-3.3C86,42.4,84.3,40.7,82.6,40.7z"/>
	<path d="M77.7,51H64c-1.7,0-3.3,1.7-3.3,3.3c0,1.7,1.7,3.3,3.3,3.3h13.6c1.7,0,2.9-1.7,3.3-3.3C81,52.7,79.3,51,77.7,51z"/>
</g>
</svg>
