<?xml version="1.0" encoding="utf-8"?>
<!-- Generator: Adobe Illustrator 19.2.0, SVG Export Plug-In . SVG Version: 6.00 Build 0)  -->
<svg version="1.1" id="Calque_1" xmlns="http://www.w3.org/2000/svg" xmlns:xlink="http://www.w3.org/1999/xlink" x="0px" y="0px"
	 viewBox="0 0 100 100" style="enable-background:new 0 0 100 100;" xml:space="preserve">
<path d="M11.7,0v100h76.9V67V0H11.7z M72.5,87.2H27.7c-1.9,0-3.8-1.9-3.8-3.8s1.9-3.8,3.8-3.8h44.8c1.9,0,3.8,1.9,3.8,3.8
	C76.3,85.8,74.4,87.2,72.5,87.2z M72.5,70.7H27.7c-1.9,0-3.8-1.9-3.8-3.8s1.9-3.8,3.8-3.8h44.8c1.9,0,3.8,1.9,3.8,3.8
	S74.4,70.7,72.5,70.7z M72.5,53.7H27.7c-1.9,0-3.8-1.9-3.8-3.8s1.9-3.8,3.8-3.8h44.8c1.9,0,3.8,1.9,3.8,3.8S74.4,53.7,72.5,53.7z
	 M72.5,37.2H27.7c-1.9,0-3.3-1.9-3.3-3.8c0-1.9,1.4-3.8,3.3-3.8h44.8c1.9,0,3.8,1.9,3.8,3.8C76.3,35.3,74.4,37.2,72.5,37.2z
	 M72.5,20.2H27.7c-1.9,0-3.3-1.9-3.3-3.8s1.9-3.8,3.8-3.8H73c1.9,0,3.8,1.9,3.8,3.8C76.3,18.3,74.4,20.2,72.5,20.2z"/>
</svg>
