<?xml version="1.0" encoding="utf-8"?>
<!-- Generator: Adobe Illustrator 19.2.0, SVG Export Plug-In . SVG Version: 6.00 Build 0)  -->
<svg version="1.1" id="Calque_1" xmlns="http://www.w3.org/2000/svg" xmlns:xlink="http://www.w3.org/1999/xlink" x="0px" y="0px"
	 viewBox="0 0 100 100" style="enable-background:new 0 0 100 100;" xml:space="preserve">
<g>
	<g>
		<path d="M65.3,33.4c0,13.3-10.9,24.2-24.2,24.2S16.9,46.7,16.9,33.4S27.8,9.2,41.1,9.2S65.3,20.1,65.3,33.4"/>
		<path d="M58.9,59.7c-5.7,6.3-18.1,6.6-18.1,6.6S29.3,66,23.3,59.7c0,0-16.6,6.3-23.3,27.8h40.2h18.7V59.7z"/>
	</g>
	<path d="M97.3,60.6V56h-3v4.5H73.1V56h-3v4.5h-3v30.2H100V60.6H97.3z M97.3,87.2H70.1v-19h27.2V87.2z"/>
</g>
</svg>
