<?xml version="1.0" encoding="utf-8"?>
<!-- Generator: Adobe Illustrator 19.2.0, SVG Export Plug-In . SVG Version: 6.00 Build 0)  -->
<svg version="1.1" id="Calque_1" xmlns="http://www.w3.org/2000/svg" xmlns:xlink="http://www.w3.org/1999/xlink" x="0px" y="0px"
	 viewBox="0 0 100 100" style="enable-background:new 0 0 100 100;" xml:space="preserve">
<g>
	<g>
		<g>
			<g>
				<path d="M97.9,18H74.7L68,14.4c-0.5-0.5-1-0.5-1.5-0.5H49.9l0,0l0,0h-17c-0.5,0-1,0-1,0.5L24.7,18H2c-1,0-2.1,1-2.1,2.1v63.4
					c0,1.5,1,2.6,2.1,2.6h95.9c1,0,2.1-1,2.1-2.1V20.1C99.9,19.1,98.9,18,97.9,18z M95.3,81.4H4.1V22.2h21.6c1,0,1.5-0.5,1.5-1
					l6.2-3.6h15.5l0,0l0,0h15.5l7.7,3.6c0.5,0.5,1,1,1.5,1h22.2L95.3,81.4L95.3,81.4z"/>
			</g>
		</g>
	</g>
	<g>
		<path d="M49.9,72.7c-11.9,0-21.1-9.8-21.1-21.1s9.8-21.1,21.1-21.1S71,40.3,71,51.6S61.8,72.7,49.9,72.7z M49.9,40.2
			c-6.2,0-11.3,5.2-11.3,11.3s5.2,11.3,11.3,11.3s11.3-5.2,11.3-11.3S56.1,40.2,49.9,40.2z"/>
	</g>
	<path d="M14.9,37.6h-0.5c-2.1,0-3.1-1.5-3.1-3.1v-1c0-2.1,1.5-3.1,3.1-3.1h0.5c2.1,0,3.1,1.5,3.1,3.1V34
		C18.5,36.1,17,37.6,14.9,37.6z"/>
</g>
</svg>
