<?xml version="1.0" encoding="utf-8"?>
<!-- Generator: Adobe Illustrator 19.2.0, SVG Export Plug-In . SVG Version: 6.00 Build 0)  -->
<svg version="1.1" id="Calque_1" xmlns="http://www.w3.org/2000/svg" xmlns:xlink="http://www.w3.org/1999/xlink" x="0px" y="0px"
	 viewBox="0 0 100 100" style="enable-background:new 0 0 100 100;" xml:space="preserve">
<g>
	<path d="M91.1,44.3c-5-8.5-17.8-8.8-18.3-8.8H0.2v1h72.7c0.1,0,8.7,0.2,14.4,4.8c-3.1-0.4-9.5-1-11.7,0.9c-0.5,0.4-0.8,1-0.8,1.7
		c0,0.6,0.3,1.1,0.7,1.5c1,0.8,2.9,1.1,5.2,1.1c4.1,0,9-0.9,10.2-1.2c1.1,0.3,8.2,2.7,8.2,6.7c0,4.5-9.7,9.6-25.9,10.3
		c-3.2,0.1-6.1,0.3-9,0.5c-13.2,0.9-26.8,1.7-63.9-2.5l-0.1,1c21.8,2.5,35.6,3.2,45.9,3.2c7.2,0,12.8-0.4,18.2-0.7
		c2.9-0.2,5.9-0.4,9-0.5C90.8,62.5,100,57,100,51.9C100,47.3,92.5,44.7,91.1,44.3z M76.1,44.6c-0.3-0.2-0.4-0.4-0.4-0.7
		c0-0.4,0.1-0.6,0.4-0.9c2-1.7,9.4-0.9,12.3-0.4c0.6,0.6,1.1,1.2,1.5,1.9C86.2,45.1,78.1,46.2,76.1,44.6z"/>
	<path d="M42.2,44.6c-0.3-0.9-1-1.7-1.9-2.1c-1.8-0.9-3.8-0.3-4.8,1.3c-3.2-1.5-5.3-2.3-5.3-2.4l-18.4,0c-0.9,0-1.9,1.8-2.7,4.2
		c-0.1-2-1.7-3.5-3.7-3.5c-2,0-3.7,1.7-3.7,3.7c0,2,1.7,3.7,3.7,3.7c1.2,0,2.2-0.6,2.9-1.4c-0.8,2.8-1.5,5.9-1.9,7.8l1,0.2
		c1.5-7.2,3.5-13.5,4.4-13.7h18.1c1.3,0.5,16.8,7,27.4,14.9l0.6-0.8c-4.8-3.6-10.7-6.9-15.8-9.5C42.4,46.3,42.5,45.4,42.2,44.6z
		 M5.5,48.5c-1.5,0-2.7-1.2-2.7-2.7c0-1.5,1.2-2.7,2.7-2.7c1.5,0,2.7,1.2,2.7,2.7C8.2,47.3,6.9,48.5,5.5,48.5z M36.5,44.3
		c0.3-0.5,0.8-0.9,1.4-1c0.7-0.2,1.4-0.2,2.1,0.2c0.6,0.3,1.1,0.9,1.3,1.6c0.2,0.5,0.2,1.1,0,1.6C39.5,45.7,37.9,44.9,36.5,44.3z"/>
	<path d="M53.5,45.8c0-2-1.7-3.7-3.7-3.7c-2,0-3.7,1.7-3.7,3.7c0,2,1.7,3.7,3.7,3.7C51.9,49.5,53.5,47.9,53.5,45.8z M47.1,45.8
		c0-1.5,1.2-2.7,2.7-2.7c1.5,0,2.7,1.2,2.7,2.7c0,1.5-1.2,2.7-2.7,2.7C48.3,48.5,47.1,47.3,47.1,45.8z"/>
	<path d="M63.4,45.8c0-2-1.7-3.7-3.7-3.7c-2,0-3.7,1.7-3.7,3.7c0,2,1.7,3.7,3.7,3.7C61.8,49.5,63.4,47.9,63.4,45.8z M57,45.8
		c0-1.5,1.2-2.7,2.7-2.7s2.7,1.2,2.7,2.7c0,1.5-1.2,2.7-2.7,2.7S57,47.3,57,45.8z"/>
</g>
</svg>
