<?xml version="1.0" encoding="utf-8"?>
<!-- Generator: Adobe Illustrator 19.1.0, SVG Export Plug-In . SVG Version: 6.00 Build 0)  -->
<svg version="1.1" id="Calque_1" xmlns="http://www.w3.org/2000/svg" xmlns:xlink="http://www.w3.org/1999/xlink" x="0px" y="0px"
	 viewBox="0 0 47.5 42.6" style="enable-background:new 0 0 47.5 42.6;" xml:space="preserve">
<style type="text/css">
	.st0{fill:#FFFFFF;}
</style>
<path class="st0" d="M43.6,26.7L43.6,26.7L43.6,26.7c0.2-1.5-0.9-2.8-2.4-2.8h-0.9v-0.4c4.5-1.3,7.6-5.7,7.1-10.7
	c-0.5-4.5-4-8.1-8.5-8.8c-4.7-0.7-8.8,1.9-10.6,5.8c-1-6.2-6.9-10.7-13.5-9.7C9.7,0.9,5.7,5,5,10C4.1,15.7,7.3,20.7,12,22.7v1.2
	h-0.8c-0.6,0-1.2,0.4-1.4,0.9l-7.4-1.8C1.1,22.7,0,23.6,0,25v7.7c0,1.2,1,2,2.2,1.7l5.2-1.6c1.1-0.4,2.3,0.5,2.3,1.7v0v0
	c0,4.5,3.7,8.1,8.1,8.1h23c0.8,0,1.6-0.7,1.8-1.5 M17.3,14.5c-1.9,0.4-3.5-1.3-3.2-3.2c0.2-1.1,1.1-1.9,2.1-2.1
	c1.9-0.4,3.5,1.3,3.2,3.2C19.2,13.4,18.3,14.3,17.3,14.5z M31.3,23.9h-9.4c-0.3-0.2-0.5-0.4-0.5-0.8c0-0.5,0.4-0.9,0.9-0.9h8.5
	c0.5,0,0.9,0.4,0.9,0.9C31.7,23.5,31.6,23.8,31.3,23.9z M38.4,16.1c-1.3,0.3-2.4-0.8-2.1-2.1c0.1-0.6,0.6-1.1,1.2-1.2
	c1.3-0.3,2.4,0.8,2.1,2.1C39.5,15.5,39,16,38.4,16.1z"/>
</svg>
