<?xml version="1.0" encoding="utf-8"?>
<!-- Generator: Adobe Illustrator 19.2.0, SVG Export Plug-In . SVG Version: 6.00 Build 0)  -->
<svg version="1.1" id="Calque_1" xmlns="http://www.w3.org/2000/svg" xmlns:xlink="http://www.w3.org/1999/xlink" x="0px" y="0px"
	 viewBox="0 0 100 100" style="enable-background:new 0 0 100 100;" xml:space="preserve">
<g>
	<path d="M97.7,49.4l-5.9-2.2c0-2.5-5.4-19.2-8.1-19.2h-23c-0.5-3.6-3.6-6.3-7.4-6.3H4.7c-2.5-0.2-4.7,2-4.7,4.5v38.5
		c0,2.5,2.2,4.7,4.7,4.7h6.5c0.9-3.6,4.1-6.3,8.1-6.3s7.2,2.7,8.1,6.3h25.9c0.2,0,0.5,0,0.7,0s0.5,0,0.7,0h17.3
		c0.9-3.6,4.1-6.3,8.1-6.3c4,0,7.2,2.7,8.1,6.3h7.2c2.5,0,4.7-2.2,4.7-4.7V52.6C100,51.2,99.1,49.9,97.7,49.4z M84.5,46.7
		c-1.6,0-15.1,0-15.1,0s-2.2-0.2-2.2-2.9v-7.6c0,0-0.4-2.2,2.5-2.2s9.7,0,9.7,0s2.9-0.2,3.4,1.1c0.5,1.3,3.4,10.3,3.4,10.3
		S86,46.7,84.5,46.7z"/>
	<path d="M19.2,64.7c-3.8,0-6.8,3.1-6.8,6.8s3.1,6.8,6.8,6.8s6.8-3.1,6.8-6.8C26.1,67.7,23,64.7,19.2,64.7z M19.2,75.1
		c-2,0-3.6-1.6-3.6-3.6c0-0.7,0.2-1.4,0.5-2c0.7-0.9,1.8-1.6,3.1-1.6c1.3,0,2.3,0.7,3.1,1.6c0.4,0.5,0.5,1.3,0.5,2
		C22.8,73.5,21.2,75.1,19.2,75.1z"/>
	<path d="M80,64.7c-3.8,0-6.8,3.1-6.8,6.8s3.1,6.8,6.8,6.8s6.8-3.1,6.8-6.8C86.9,67.7,83.8,64.7,80,64.7z M80,75.1
		c-2,0-3.6-1.6-3.6-3.6c0-0.7,0.2-1.4,0.5-2c0.7-0.9,1.8-1.6,3.1-1.6s2.3,0.7,3.1,1.6c0.4,0.5,0.5,1.3,0.5,2
		C83.5,73.5,82,75.1,80,75.1z"/>
</g>
</svg>
