<?xml version="1.0" encoding="utf-8"?>
<!-- Generator: Adobe Illustrator 19.2.0, SVG Export Plug-In . SVG Version: 6.00 Build 0)  -->
<svg version="1.1" id="Calque_1" xmlns="http://www.w3.org/2000/svg" xmlns:xlink="http://www.w3.org/1999/xlink" x="0px" y="0px"
	 viewBox="0 0 100 100" style="enable-background:new 0 0 100 100;" xml:space="preserve">
<path d="M86.4,88.3H13.6C6.1,88.3,0,82.2,0,74.8V36.4c0-7.5,6.1-13.6,13.6-13.6h12.1c2,0,3.7-1.7,3.7-3.7c0-4.5,3.9-7.5,9.7-7.5h23
	c5.5,0,8.5,2.7,8.5,7.5c0,2,1.7,3.7,3.7,3.7h12.1c7.5,0,13.6,6.1,13.6,13.6v38.3C100,82.2,93.9,88.3,86.4,88.3z M13.6,24.4
	c-6.6,0-12,5.4-12,12v38.3c0,6.6,5.4,12,12,12h72.8c6.6,0,12-5.4,12-12V36.4c0-6.6-5.4-12-12-12H74.3c-2.9,0-5.3-2.4-5.3-5.3
	c0-3.9-2.3-5.9-6.9-5.9h-23c-3.8,0-8.1,1.5-8.1,5.9c0,2.9-2.4,5.3-5.3,5.3H13.6z"/>
</svg>
