<?xml version="1.0" encoding="utf-8"?>
<!-- Generator: Adobe Illustrator 19.2.0, SVG Export Plug-In . SVG Version: 6.00 Build 0)  -->
<svg version="1.1" id="Calque_1" xmlns="http://www.w3.org/2000/svg" xmlns:xlink="http://www.w3.org/1999/xlink" x="0px" y="0px"
	 viewBox="0 0 100 100" style="enable-background:new 0 0 100 100;" xml:space="preserve">
<path d="M98.2,11.6L66.8,0c-0.5,0-1.1,0-1.6,0l-31,11.1L3.8,0C2.7,0,1.6,0,1.1,0.6S0,2.2,0,2.8v79.7c0,1.1,0.5,2.2,1.6,2.8
	l31.5,14.4c0.5,0.6,1.6,0.6,2.2,0l30.4-13.8l30.4,13.8c0.5,0,0.5,0,1.1,0c0.5,0,1.1,0,1.6-0.6s1.1-1.1,1.1-2.2V14.4
	C100.4,13.3,99.3,12.2,98.2,11.6z M33.1,92.9L5.4,80.8V6.6l27.7,10C33.1,16.6,33.1,92.9,33.1,92.9z M64.6,79.7L35.8,92.4V16.6
	L64.6,6.1V79.7z M95,92.4L67.3,80.2V6.6l27.7,10V92.4z"/>
</svg>
