<?xml version="1.0" encoding="utf-8"?>
<!-- Generator: Adobe Illustrator 19.2.0, SVG Export Plug-In . SVG Version: 6.00 Build 0)  -->
<svg version="1.1" id="Calque_1" xmlns="http://www.w3.org/2000/svg" xmlns:xlink="http://www.w3.org/1999/xlink" x="0px" y="0px"
	 viewBox="0 0 100 100" style="enable-background:new 0 0 100 100;" xml:space="preserve">
<g>
	<path d="M96.5,32.1L96.5,32.1c-1.5-1.1-3.4-1.5-5.3-1.5H8.7l0,0c-1.9,0-3.8,0.4-4.9,1.1l0,0C1.5,33.3,0,35.2,0,37.5l6.5,41
		c0,3.4,3.8,6.5,8.7,6.5h69.5c4.9,0,8.7-3,8.7-6.5l6.5-41C100.3,35.2,98.8,33.3,96.5,32.1z"/>
	<path d="M91.2,28.3c1.9,0,3.8,0.4,5.3,1.1V29c0-4.2-3.8-7.2-8.4-7.2H46.4c-0.4,0-3.4-1.1-6.5-5.3C39.5,15.8,38,15,36.5,15l0,0H23.6
		l0,0c-1.9,0-3,0.8-4.2,1.9c-3,3.8-6.1,4.9-6.5,4.9h-1.1c-4.6,0-8.4,3.4-8.4,7.2v0.4c1.5-0.8,3.4-1.1,5.3-1.1
		C8.7,28.3,91.2,28.3,91.2,28.3z"/>
</g>
</svg>
