<?xml version="1.0" encoding="utf-8"?>
<!-- Generator: Adobe Illustrator 19.2.0, SVG Export Plug-In . SVG Version: 6.00 Build 0)  -->
<svg version="1.1" id="Calque_1" xmlns="http://www.w3.org/2000/svg" xmlns:xlink="http://www.w3.org/1999/xlink" x="0px" y="0px"
	 viewBox="0 0 100 100" style="enable-background:new 0 0 100 100;" xml:space="preserve">
<path d="M31.2,7.7C29.4,0.3,42.7,0,42.7,0c0.7,0,1.9,0,2.8,0c0,0,13.1,0.3,11.5,7.7c-1.8,7.4-4.2,10.4-4.2,10.4
	c-0.4,0.6-1.5,0.9-2.2,0.9c0,0-2.5-0.4-6.4-0.4S37.8,19,37.8,19c-0.7,0.1-1.8-0.3-2.2-0.9C35.4,18.2,32.8,15.3,31.2,7.7z M51.5,24.1
	c-0.1-1.2-1-2.1-2.2-2.2l0,0c-1.5-0.1-3.3-0.3-5.2-0.3c-1.8,0-3.7,0.1-5.1,0.3c-1.2,0-2.4,1-2.5,2.2l-7,60.2c-0.1,1.2,0.4,3,1.3,3.9
	l11.6,11.2c0.9,0.9,2.4,0.9,3.3,0l11.6-11.2c0.9-0.9,1.5-2.7,1.3-3.9L51.5,24.1z M70.4,72.5c-4-10-8-20.1-12.1-30.1
	c-0.7-1.9-1.5-3.7-2.2-5.7l0,0c-0.7-1.8-0.7-1-0.6-0.4c0,0.1,0,0.4,0.1,0.6l0,0l0,0c0.4,3,0.9,6,1.2,8.9c0.9,6,1.6,11.8,2.5,17.7
	c0.6,4.2,1.2,8.2,1.8,12.4c0,0.4,0.4,0.9,0.7,1c1.9,0.7,3.9,1.5,6,2.2c0.9-1.6,1.6-3.3,2.5-4.9C70.7,73.9,70.7,73.3,70.4,72.5z"/>
</svg>
