<?xml version="1.0" encoding="utf-8"?>
<!-- Generator: Adobe Illustrator 19.2.0, SVG Export Plug-In . SVG Version: 6.00 Build 0)  -->
<svg version="1.1" id="Calque_1" xmlns="http://www.w3.org/2000/svg" xmlns:xlink="http://www.w3.org/1999/xlink" x="0px" y="0px"
	 viewBox="0 0 100 100" style="enable-background:new 0 0 100 100;" xml:space="preserve">
<g>
	<g>
		<path d="M53.9,31.2c0,11-9,20-20,20s-20-9-20-20s9-20,20-20S53.9,20.2,53.9,31.2"/>
		<path d="M48.6,52.9c-4.7,5.2-15,5.5-15,5.5s-9.5-0.2-14.5-5.5c0,0-13.7,5.2-19.2,22.9h33.2h15.5V52.9z"/>
	</g>
	<g>
		<path d="M53.9,31.2c0,11-9,20-20,20s-20-9-20-20s9-20,20-20S53.9,20.2,53.9,31.2"/>
		<path d="M48.6,52.9c-4.7,5.2-15,5.5-15,5.5s-9.5-0.2-14.5-5.5c0,0-13.7,5.2-19.2,22.9h33.2h15.5V52.9z"/>
	</g>
	<polygon points="73.3,45.1 73.3,62.1 56.1,62.1 56.1,71.8 73.3,71.8 73.3,88.8 83,88.8 83,71.8 100,71.8 100,62.1 83,62.1 83,45.1 
			"/>
</g>
</svg>
