<?xml version="1.0" encoding="utf-8"?>
<!-- Generator: Adobe Illustrator 19.2.0, SVG Export Plug-In . SVG Version: 6.00 Build 0)  -->
<svg version="1.1" id="Calque_1" xmlns="http://www.w3.org/2000/svg" xmlns:xlink="http://www.w3.org/1999/xlink" x="0px" y="0px"
	 viewBox="0 0 100 100" style="enable-background:new 0 0 100 100;" xml:space="preserve">
<g>
	<path d="M39.8,23.9c-1.4-1.4-3.3-1.4-4.8,0L23.6,35.3c-1.4,1.4-1.4,3.3,0,4.7l36.7,36.6c1.4,1.4,3.3,1.4,4.8,0l11.4-11.4
		c1.4-1.4,1.4-3.3,0-4.7L39.8,23.9z"/>
	<path d="M92.2,7.8C82.7-1.7,68.4-2.7,57.9,5.9L94.1,42C102.7,31.5,101.7,17.3,92.2,7.8z"/>
	<path d="M49.3,26.3L74.1,51c4.8,0.9,11.4-1.4,16.2-5.2L54.6,10.1C50.3,14.9,47.9,21.5,49.3,26.3z"/>
	<path d="M0.7,86.1c-1,1.4-1,3.3,0,4.3l8.6,8.5c1.4,1.4,3.3,1.4,4.3,0l33.8-29.4L30.3,52.4L0.7,86.1z"/>
</g>
</svg>
