<?xml version="1.0" encoding="utf-8"?>
<!-- Generator: Adobe Illustrator 19.1.0, SVG Export Plug-In . SVG Version: 6.00 Build 0)  -->
<svg version="1.1" id="Calque_1" xmlns="http://www.w3.org/2000/svg" xmlns:xlink="http://www.w3.org/1999/xlink" x="0px" y="0px"
	 viewBox="0 0 100 100" style="enable-background:new 0 0 100 100;" xml:space="preserve">
<style type="text/css">
	.st0{fill:#C9A45E;}
</style>
<g>
	<g>
		<g>
			<g>
				<path class="st0" d="M0.8,41.9C0.8,41.9,0.8,41.9,0.8,41.9C0.8,42.3,0.7,42.5,0.8,41.9z"/>
				<polygon class="st0" points="0.8,41.9 0.8,41.9 0.8,41.9 				"/>
				<path class="st0" d="M98.4,38.1c-0.4,3.4-0.9,5.1-1.4,5.2c0,0-0.2-18.1-6.2-24.1c1,10.6,0,6.3,0,6.4C82.7,11.5,67.5,2,50.1,2
					C35.6,2,22.6,8.6,13.9,19c-0.1-0.1-0.1-0.1-0.2-0.2c-1.4-1.2-2.1-7.2-2.1-7.2c0,0,0,0,0-0.1s0,0,0-0.1c0,0,0,0,0,0c0,0,0,0,0,0
					c0,0,0,0,0,0.1c0,0,0,0,0,0.1c0,0,0,0,0,0.1c0,0,0,0,0,0.1c0,0,0,0,0,0.1c0,0,0,0-0.1,0.1c0,0,0,0,0,0.1c0,0,0,0,0,0.1
					c0,0,0,0,0,0.1c0,0,0,0,0,0.1c0,0,0,0,0,0.1c0,0,0,0,0,0.1c0,0-2.5,3.3-3.4,6.9c-0.6,2.9,0,0,0,0c0,0,0,0,0,0.1c0,0,0,0,0,0.1
					c0,0,0,0,0,0c-0.7,3-1.1,6.5-1.1,10.7c0,0-0.1,0.1-0.1,0.1c0,0-4.4,4.8-5.2,10c-0.1,1-0.2,1.6-0.3,2c0,0,0,0,0,0
					c0,0.2,0,0.3,0,0.5c0,0,0,0,0-0.1c0,0.4,0,0.8,0.1,1.1l2.7-2.2c0,0.3-0.1,0.5-0.1,0.8c-0.8,2.4-1.5,4.8-1.8,7.4
					C0.9,57.4,2.6,65.2,6.8,73c0,0,1.7,3.1,2.7,4.5c0.1,0.2,0.2,0.4,0.4,0.6l0,0C18.8,90.2,33,98,49,98c14.1,0,26.8-6.1,35.7-15.9
					l0.2,0c0.6-0.7,1.1-1.4,1.7-2.2c1.5-1.8,2.8-3.8,4-5.8l-0.1,0c3.8-6.2,6.3-12.6,7.4-19.2C99.5,48.4,99.7,42.8,98.4,38.1z
					 M13.9,19C13.9,19,13.8,19,13.9,19c0-0.1-0.1-0.1-0.1-0.1c0,0,0,0,0-0.1c0,0,0,0,0-0.1C13.7,18.8,13.8,18.9,13.9,19
					C13.9,19,13.9,19,13.9,19z M84.8,35.9c-1-1.6-2.3-2.6-4-3.1c2.1,8.1,2.3,14.8,0.6,20.1c-1.2-3.5-2.2-5.6-3.2-6.4
					c1.3,10.9-0.5,18.9-5.4,24.1c0.9-3.2,1.3-5.8,1.1-7.9c-5.7,8.6-12.3,13-19.6,13.3c-2.9,0-5.6-0.5-8.2-1.3c0,0-0.1,0-0.2,0
					c-0.3-0.1-0.5-0.2-0.7-0.3c0,0,0,0,0,0c-0.2-0.1-0.4-0.2-0.6-0.3c-0.2-0.1-0.4-0.2-0.6-0.3c-0.2-0.1-0.4-0.2-0.6-0.3
					c-0.2-0.1-0.4-0.2-0.6-0.3c-0.2-0.1-0.4-0.2-0.6-0.3c-0.2-0.1-0.4-0.2-0.6-0.3c-0.2-0.1-0.4-0.2-0.6-0.3
					c-0.2-0.1-0.4-0.2-0.5-0.3c-0.2-0.1-0.3-0.2-0.5-0.3c-0.2-0.1-0.3-0.2-0.5-0.3c-0.2-0.1-0.3-0.2-0.5-0.4
					c-0.2-0.1-0.3-0.2-0.5-0.4c-0.2-0.1-0.3-0.3-0.5-0.4c-0.2-0.1-0.3-0.3-0.5-0.4c-0.1-0.1-0.3-0.3-0.5-0.4
					c-0.1-0.1-0.3-0.3-0.4-0.4c-0.1-0.1-0.3-0.3-0.4-0.4c-0.1-0.1-0.2-0.2-0.3-0.3c0,0,0.1,0,0.1,0c0.1,0,0.2,0,0.3,0
					c0.1,0,0.2,0,0.3,0c0.1,0,0.2,0,0.3,0c0.1,0,0.2,0,0.3,0c0.1,0,0.2,0,0.3,0c0.1,0,0.2,0,0.3,0c0.1,0,0.2,0,0.3,0
					c0.1,0,0.2,0,0.3,0c0.1,0,0.2,0,0.3,0c0.1,0,0.2,0,0.3,0c0.1,0,0.2,0,0.4,0c0.1,0,0.2,0,0.4,0c0.1,0,0.2,0,0.3,0
					c0.1,0,0.2,0,0.4,0c0.1,0,0.2,0,0.4,0c0.1,0,0.2,0,0.4-0.1c0.1,0,0.2,0,0.4-0.1c0.1,0,0.2,0,0.4,0c0.1,0,0.2,0,0.4-0.1
					c0.1,0,0.3-0.1,0.4-0.1c0.1,0,0.2-0.1,0.4-0.1c0.1,0,0.3-0.1,0.4-0.1c0.1,0,0.3,0,0.4-0.1c0.1,0,0.3-0.1,0.4-0.1
					c0.1,0,0.3-0.1,0.4-0.1c0.1,0,0.3-0.1,0.4-0.1c0.1,0,0.3-0.1,0.4-0.1c0.1,0,0.3-0.1,0.4-0.1c0.1-0.1,0.3-0.1,0.4-0.2
					c0.1,0,0.3-0.1,0.4-0.2c0.1-0.1,0.3-0.1,0.4-0.2c0.1-0.1,0.3-0.1,0.4-0.2c0.1-0.1,0.3-0.1,0.4-0.2c0.1-0.1,0.3-0.1,0.4-0.2
					c0.1,0,0.1-0.1,0.2-0.1l0.3-0.2l0.5-0.3l0.5-0.3l0.5-0.3l0.5-0.3l0.5-0.3l0.5-0.3l0.5-0.3l0.5-0.3l0.5-0.3l0.5-0.3l0.5-0.3
					l0.5-0.3l0.2-0.1l0,0c0.8-0.3,1.6-0.3,2.3,0.1c1.5-0.2,2.1-1,1.6-2.4c-0.7-1-1.9-1.9-3.3-2.8c-3.1-1.6-6.4-1.4-9.8,0.8
					c-3.2,1.8-6.4,1.8-9.4-0.2c-2-1.4-3.9-3.2-5.8-5.5L30,51c0,0,0,0.1,0,0.1c0,0,0-0.1,0-0.1v0c0,0,0-0.1,0-0.1
					c0-0.3,0-0.5,0.1-0.7c0-0.3,0.1-0.6,0.2-0.8c0.1-0.4,0.3-0.8,0.6-1.1c0.3-0.4,0.8-0.7,1.3-0.9c0.2-0.1,0.4-0.1,0.6-0.1
					c-0.1,0-0.2,0-0.4,0c-0.3,0-0.6-0.1-0.9-0.1c-0.4,0-0.7-0.1-0.9-0.1c-0.2,0-0.3,0-0.5,0c-0.2,0-0.3,0-0.5,0c-0.3,0-0.5,0-0.8,0
					c-0.1,0-0.1,0-0.2,0c-0.3,0-0.5,0-0.7-0.1c0.3,0,0.6,0,0.9,0c0.4,0,0.8,0,1.2,0.1c0.5,0,1.4,0.1,2.7,0.2c2,0.2,4.4,0.7,7,1.4
					c0.4-2.5-0.1-5.2-1.7-7.9c0,0,0,0,0,0c-0.1-0.3-0.3-0.6-0.6-0.9c0.1,0.1,0.2,0.2,0.3,0.3c0.1,0.2,0.2,0.3,0.3,0.5
					c0,0.1,0.1,0.1,0.1,0.2c0.1-0.1,0.1-0.1,0.2-0.2c0.1-0.1,0.2-0.2,0.3-0.3c0.1-0.1,0.2-0.2,0.3-0.3c0.1-0.1,0.2-0.2,0.3-0.3
					c0.1-0.1,0.2-0.2,0.3-0.3c0.1-0.1,0.2-0.2,0.3-0.3c0.1-0.1,0.2-0.2,0.3-0.3c0.1-0.1,0.2-0.2,0.3-0.2c0.1-0.1,0.2-0.2,0.3-0.3
					c0.1-0.1,0.2-0.2,0.3-0.3c0.1-0.1,0.2-0.2,0.3-0.3c0.1-0.1,0.2-0.2,0.3-0.2c0.1-0.1,0.2-0.1,0.3-0.2c0.1-0.1,0.2-0.1,0.3-0.2
					c0.1-0.1,0.2-0.2,0.3-0.2c0.1-0.1,0.2-0.2,0.3-0.2c0.1-0.1,0.2-0.1,0.3-0.2c0.1-0.1,0.2-0.1,0.3-0.2c0.1-0.1,0.2-0.1,0.3-0.2
					c0.1-0.1,0.2-0.1,0.3-0.2c0.1-0.1,0.2-0.1,0.3-0.2c0,0,0.1,0,0.1,0c0.1,0,0.2-0.1,0.2-0.2c0.1-0.1,0.2-0.1,0.3-0.2
					c0.1-0.1,0.2-0.2,0.3-0.3c0.1-0.1,0.2-0.3,0.3-0.5c0.1-0.3,0.2-0.5,0.3-0.9c0,0,0,0,0.1,0l0,0c0,0,0.1-0.1,0.1-0.1
					c0.5-0.7,0.3-1.3-0.5-1.8c-1.7,0.1-5.2-0.3-5.2-0.3c0,0,0,0-0.1,0c-4.1-1.7-6.4-5.3-6.4-5.3c0,0-0.1-0.1-0.1-0.1l-0.1-0.2
					c0,0,0,0,0,0c0,0,0,0,0.1,0c0,0,0,0,0,0c0,0,0,0,0,0c0,0,0,0,0,0h0c0,0,0,0,0,0c0,0,0,0,0,0c0,0,0,0,0-0.1c0,0-0.1,0.1,0,0
					c-0.8-6.3,7.5-10.4,7.5-10.4s-9.9,2.8-13,6.4l-0.5,0l0.4,0c0,0,0,0,0,0c0,0,0,0,0,0c0,0,0,0,0,0c0,0,0,0,0,0c0,0,0,0-0.1,0
					c-0.1,0-0.1,0-0.2-0.1c-6-1.4-10.9,0.7-10.9,0.7c0,0-0.1,0-0.1,0c0,0-0.1,0-0.1,0c0,0-0.1,0-0.1,0c0,0-0.1,0-0.1,0
					c-0.9-0.4-1.6-1.1-2.3-2C23,9.9,35.8,3.3,50.1,3.3c11,0,21.2,3.9,29.1,10.5c-1.3-0.6-2.6-1.2-4-1.6c-4-1.2-8.8-1.9-14.4-2.1
					c2.4,0.5,4.5,1.1,6.2,1.8c0.1,0,0.2,0.1,0.3,0.1c2.4,1.1,3.9,2.5,4.7,4.2c-2.4-0.4-4.5-0.3-6.4,0.5
					C79.1,22.1,85.6,28.5,84.8,35.9z"/>
				<path class="st0" d="M1.1,40.2c-0.1,0.6-0.2,1.1-0.2,1.7C0.9,41.1,1.1,40,1.1,40.2C1.1,40.1,1.1,40.1,1.1,40.2z"/>
				<path class="st0" d="M0.8,41.8C0.8,41.8,0.8,41.9,0.8,41.8C0.8,41.9,0.8,41.9,0.8,41.8C0.8,41.9,0.8,41.8,0.8,41.8z"/>
			</g>
		</g>
	</g>
</g>
</svg>
