<?xml version="1.0" encoding="utf-8"?>
<!-- Generator: Adobe Illustrator 16.0.0, SVG Export Plug-In . SVG Version: 6.00 Build 0)  -->
<!DOCTYPE svg PUBLIC "-//W3C//DTD SVG 1.1//EN" "http://www.w3.org/Graphics/SVG/1.1/DTD/svg11.dtd">
<svg version="1.1" id="Layer_1" xmlns="http://www.w3.org/2000/svg" xmlns:xlink="http://www.w3.org/1999/xlink" x="0px" y="0px"
	 width="512px" height="494.41px" viewBox="0 0 512 494.41" enable-background="new 0 0 512 494.41" xml:space="preserve">
<path fill="#C8A461" d="M285.016,19.375c11.687,0,23.178,0.883,34.401,2.593C384.959-6.22,441.881-8.435,472.363,22.047
	c24.834,24.84,27.963,67.246,13.014,117.559C502.358,171.428,512,207.765,512,246.354l-1.924,29.611H392.068h-57.702H177.962
	c8.613,55.998,53.265,98.678,107.054,98.678c40.172,0,75.256-23.811,94.026-59.211h122.245
	C472.071,407,386.285,473.321,285.016,473.321c-28.498,0-55.767-5.234-80.893-14.827c-77.526,40.793-147.152,48.791-182.077,13.865
	c-56.278-56.277-1.096-202.711,123.249-327.062l25.674-24.426c-37.914,19.831-75.615,48.56-108.732,81.812
	C82.596,98.223,174.597,19.375,285.016,19.375z M285.016,137.799c-47.264,0-87.473,32.953-102.378,78.95h204.757
	C372.493,170.752,332.271,137.799,285.016,137.799z M458.729,52.804c-16.202-16.215-43.215-19.404-76.375-11.559
	c36.446,17.329,67.55,44.092,90.144,77.131C477.27,90.158,473.143,67.217,458.729,52.804z M54.007,457.545
	c24.249,24.249,72.657,19.355,129.714-8.011C129.202,422.29,87.18,373.768,68.554,314.848
	C35.534,377.48,27.938,431.469,54.007,457.545z"/>
</svg>
