<?xml version="1.0" encoding="utf-8"?>
<!-- Generator: Adobe Illustrator 19.1.0, SVG Export Plug-In . SVG Version: 6.00 Build 0)  -->
<svg version="1.1" id="Calque_1" xmlns="http://www.w3.org/2000/svg" xmlns:xlink="http://www.w3.org/1999/xlink" x="0px" y="0px"
	 viewBox="0 0 21.1 21.1" style="enable-background:new 0 0 21.1 21.1;" xml:space="preserve">
<style type="text/css">
	.st0{fill:none;}
	.st1{fill:#C9A562;}
</style>
<g>
	<path class="st0" d="M10.6,2.5c-4.5,0-8.1,3.6-8.1,8.1c0,4.5,3.6,8.1,8.1,8.1c4.5,0,8.1-3.6,8.1-8.1C18.6,6.1,15,2.5,10.6,2.5z
		 M12.1,13c-0.3,0.1-0.6,0.2-0.8,0.3s-0.4,0.1-0.7,0.1c-0.4,0-0.7-0.1-0.9-0.3c-0.2-0.2-0.3-0.4-0.3-0.7c0-0.1,0-0.2,0-0.3
		s0-0.3,0.1-0.4l0.4-1.4c0-0.1,0.1-0.3,0.1-0.4s0-0.2,0-0.3c0-0.2,0-0.3-0.1-0.4S9.7,9,9.5,9c-0.1,0-0.2,0-0.3,0S9,9.1,8.9,9.1
		L9,8.7c0.3-0.1,0.5-0.2,0.8-0.3s0.5-0.1,0.7-0.1c0.4,0,0.7,0.1,0.9,0.3c0.2,0.2,0.3,0.4,0.3,0.7c0,0.1,0,0.2,0,0.3s0,0.3-0.1,0.4
		l-0.4,1.4c0,0.1-0.1,0.2-0.1,0.4c0,0.1,0,0.3,0,0.3c0,0.2,0,0.3,0.1,0.4c0.1,0.1,0.2,0.1,0.4,0.1c0.1,0,0.2,0,0.3-0.1
		c0.1,0,0.2-0.1,0.3-0.1L12.1,13z M12,7.2c-0.2,0.2-0.4,0.3-0.7,0.3s-0.5-0.1-0.7-0.3s-0.3-0.4-0.3-0.6s0.1-0.5,0.3-0.6
		s0.4-0.3,0.7-0.3S11.8,5.8,12,6c0.2,0.2,0.3,0.4,0.3,0.6S12.2,7.1,12,7.2z"/>
	<path class="st1" d="M10.6,0C4.7,0,0,4.7,0,10.6c0,5.8,4.7,10.6,10.6,10.6s10.6-4.7,10.6-10.6C21.1,4.7,16.4,0,10.6,0z M10.6,18.6
		c-4.5,0-8.1-3.6-8.1-8.1c0-4.5,3.6-8.1,8.1-8.1c4.5,0,8.1,3.6,8.1,8.1C18.6,15,15,18.6,10.6,18.6z"/>
	<path class="st1" d="M11.4,6.7c-0.3,0-0.5,0.1-0.7,0.3s-0.3,0.4-0.3,0.6s0.1,0.5,0.3,0.6s0.4,0.3,0.7,0.3s0.5-0.1,0.7-0.3
		c0.2-0.2,0.3-0.4,0.3-0.6S12.2,7.2,12,7C11.8,6.8,11.6,6.7,11.4,6.7z"/>
	<path class="st1" d="M11.6,13.7c-0.2,0-0.4,0-0.4-0.1c-0.1-0.1-0.1-0.2-0.1-0.4c0-0.1,0-0.2,0-0.3c0-0.1,0.1-0.3,0.1-0.4l0.4-1.4
		c0-0.1,0.1-0.3,0.1-0.4s0-0.3,0-0.3c0-0.3-0.1-0.5-0.3-0.7c-0.2-0.2-0.5-0.3-0.9-0.3c-0.2,0-0.4,0-0.7,0.1S9.3,9.6,9,9.7l-0.1,0.4
		c0.1,0,0.2-0.1,0.3-0.1s0.2,0,0.3,0c0.2,0,0.4,0,0.4,0.1s0.1,0.2,0.1,0.4c0,0.1,0,0.2,0,0.3s-0.1,0.3-0.1,0.4l-0.4,1.4
		c0,0.1-0.1,0.3-0.1,0.4s0,0.2,0,0.3c0,0.3,0.1,0.5,0.3,0.7c0.2,0.2,0.5,0.3,0.9,0.3c0.3,0,0.5,0,0.7-0.1s0.4-0.2,0.8-0.3l0.1-0.4
		c-0.1,0-0.1,0.1-0.3,0.1C11.8,13.7,11.7,13.7,11.6,13.7z"/>
</g>
</svg>
