<?xml version="1.0" encoding="utf-8"?>
<!-- Generator: Adobe Illustrator 19.2.0, SVG Export Plug-In . SVG Version: 6.00 Build 0)  -->
<svg version="1.1" id="Calque_1" xmlns="http://www.w3.org/2000/svg" xmlns:xlink="http://www.w3.org/1999/xlink" x="0px" y="0px"
	 viewBox="0 0 100 100" style="enable-background:new 0 0 100 100;" xml:space="preserve">
<path d="M0,14.8v70.5h100V14.8H0z M40.4,49.4L4.5,76.3V22.4L40.4,49.4z M90.3,78.4h-81l34.9-26.2c0,0,2,1.7,2.8,2.1
	c0.6,0.3,1.9,0.7,2.8,0.7s2.2-0.3,2.8-0.7c0.8-0.4,2.8-2.1,2.8-2.1 M47.9,49.4l-3.8-2.8L7.9,19.3h83.8L55.4,46.6l-3.8,2.8
	c0,0-0.8,0.6-1.9,0.6S47.9,49.4,47.9,49.4 M59.2,49.4l36.3-27.2v54.5L59.2,49.4z"/>
</svg>
