<?xml version="1.0" encoding="utf-8"?>
<!-- Generator: Adobe Illustrator 19.2.0, SVG Export Plug-In . SVG Version: 6.00 Build 0)  -->
<svg version="1.1" id="Calque_1" xmlns="http://www.w3.org/2000/svg" xmlns:xlink="http://www.w3.org/1999/xlink" x="0px" y="0px"
	 viewBox="0 0 100 100" style="enable-background:new 0 0 100 100;" xml:space="preserve">
<g>
	<path d="M34.5,98.9c-0.8,0.3-1.7,0.5-2.5,0.6C32.8,99.4,33.6,99.2,34.5,98.9z"/>
	<path d="M73.8,64c-1.8,1.8-3.8,3.3-6,4.5C70,67.3,72,65.8,73.8,64z"/>
	<path d="M82.3,1.5c2.2,0.8,4.4,1.9,6.3,3.3C86.7,3.4,84.6,2.3,82.3,1.5z"/>
	<path d="M93.4,44.3c-0.4,0.4-0.8,0.9-1.2,1.3C92.6,45.2,93,44.7,93.4,44.3z"/>
	<path d="M97.2,14.7c0.4,0.8,0.7,1.6,1.1,2.4C97.9,16.2,97.6,15.5,97.2,14.7z"/>
	<path d="M96.1,40.5c0.1-0.1,0.2-0.2,0.2-0.4C96.3,40.3,96.2,40.4,96.1,40.5c3.2-5.3,4.5-11.7,3.6-17.8C97,4.2,75.5-5.9,59.5,3.8
		c-4.1,2.5-7.4,6.3-10.8,9.7c-2.9,2.9-5.7,5.7-8.6,8.6c4.1-0.6,8.2-0.5,12.2,0.4c0.5,0.1,4.2,1.5,4.4,1.3c0.4-0.4,0.8-0.8,1.2-1.2
		c2.5-2.5,4.8-5.4,7.8-7.4c6.3-4.2,15.1-2.3,19.2,4.1c3.2,5,2.6,11.6-1.1,16.1c-0.1,0.1-0.1,0.2-0.2,0.2c-0.2,0.3-0.5,0.6-0.8,0.8
		C77.7,41.7,72.4,47,67.2,52.2c-2.4,2.4-4.7,4.9-8.1,6c-7.4,2.3-15.5-2.1-17.5-9.6c-2.7,1.5-4.8,4.4-7,6.6c-1,1-2,2-3,3
		c0,0,0,0.1-0.1,0.1c0,0,0,0,0-0.1c0,0,0,0,0,0.1c-0.2,0.6,1.3,2.5,3,4.2c0.5,0.5,0.9,1,1.4,1.5c-0.5-0.5-1-1-1.4-1.5
		c1.3,1.3,2.6,2.6,3.3,3.2c-0.6-0.5-1.3-1.1-1.8-1.7c0.6,0.6,1.2,1.1,1.9,1.7c0.2,0.1,0.3,0.3,0.4,0.3c0.1,0.1,0.2,0.2,0.3,0.2
		c0.4,0.3,0.9,0.7,1.4,1c0.2,0.1,0.3,0.2,0.5,0.3c0.6,0.4,1.3,0.8,1.9,1.1c-0.7-0.3-1.3-0.7-1.9-1.1c10.4,6.7,24.6,5.2,33.4-3.7
		c5-5,10.1-10.1,15.1-15.1c2.2-2.2,4.5-4.3,6.3-6.9c-0.6,0.9-1.2,1.7-1.9,2.5c0.7-0.8,1.3-1.6,1.9-2.5l0,0l0,0
		c0.1-0.2,0.3-0.4,0.4-0.7C95.9,40.9,96,40.7,96.1,40.5z M38.6,66.2c0.4,0.3,0.9,0.7,1.3,1C39.5,66.9,39,66.6,38.6,66.2z M83.8,35.5
		c-0.1,0.1-0.1,0.1-0.2,0.2C83.7,35.6,83.8,35.5,83.8,35.5z M95.3,41.8c0.1-0.2,0.3-0.4,0.4-0.6C95.6,41.3,95.5,41.5,95.3,41.8z"/>
	<path d="M41.2,78.5c-0.8,0-2.2,2-2.7,2.5c-1.3,1.3-2.6,2.8-4.2,3.8c-5.5,3.7-13,2.8-17.6-2c-0.1-0.1-0.2-0.2-0.3-0.3
		c0.1,0.1,0.2,0.2,0.3,0.3c-0.1-0.1-0.2-0.2-0.3-0.4c-0.2-0.2-0.4-0.4-0.5-0.6l0,0c-3.4-4.4-3.8-10.5-1.1-15.2c0,0,0,0,0-0.1
		c0.2-0.4,0.4-0.7,0.6-1l0,0c0.2-0.3,0.5-0.6,0.7-0.9c0.1-0.1,0.1-0.2,0.2-0.3c1.9-2.2,4.1-4.2,6.1-6.2c4.3-4.3,8.6-8.6,12.8-12.9
		c6.3-6.3,17-4.7,21.4,2.6c0.1,0.1,0.2,0.3,0.3,0.4c0.2,0.4,0.4,0.8,0.6,1.3c0,0,0,0.1,0.1,0.1c0,0,0-0.1-0.1-0.1c0,0,0,0.1,0.1,0.1
		c2.5-2.6,5.1-5.1,7.6-7.7c1.4-1.4,2.1-1.5,1.2-2.8c0.2,0.3,0.4,0.6,0.6,0.9c-0.2-0.3-0.4-0.6-0.7-0.9c-0.1-0.2-0.3-0.4-0.5-0.7
		c-0.4-0.5-0.7-0.9-1.1-1.4c0-0.1-0.1-0.1-0.1-0.2c0,0.1,0.1,0.1,0.1,0.2c-1.9-2.2-4.2-4.1-6.8-5.5c-2.6-1.5-5.4-2.5-8.4-3
		c0.2,0,0.3,0,0.5,0.1c-0.4-0.1-0.9-0.2-1.3-0.2l0,0l0,0c-0.2,0-0.4-0.1-0.7-0.1c-0.2,0-0.4,0-0.7-0.1c-0.2,0-0.4,0-0.7-0.1
		c-0.1,0-0.1,0-0.2,0c0.1,0,0.3,0,0.4,0c0.2,0,0.3,0,0.5,0.1c-0.4,0-0.8-0.1-1.3-0.1c0.1,0,0.2,0,0.3,0c-0.3,0-0.6,0-0.9,0
		c-0.1,0-0.1,0-0.2,0c-0.2,0-0.5,0-0.7,0c0.1,0,0.3,0,0.4,0c-1.4,0-2.7,0.1-4.1,0.2c0.1,0,0.2,0,0.4-0.1c-0.2,0-0.4,0.1-0.7,0.1
		c-0.1,0-0.2,0-0.3,0s-0.2,0-0.3,0c-0.2,0-0.5,0.1-0.7,0.1s-0.4,0.1-0.6,0.1c-0.1,0-0.2,0.1-0.3,0.1c0.1,0,0.3-0.1,0.4-0.1
		c-0.3,0.1-0.6,0.1-0.9,0.2c0.2,0,0.3-0.1,0.5-0.1c-0.2,0-0.4,0.1-0.5,0.1h-0.1l0,0c-0.1,0-0.2,0-0.3,0.1c-0.2,0-0.3,0.1-0.5,0.1
		c0.2-0.1,0.5-0.1,0.7-0.2c-5.7,1.5-10,4.9-14,9c-4.5,4.5-8.9,8.9-13.4,13.4c-4.1,4.1-7.8,8.3-9.6,14C-1,72.8,0,80.8,3.9,87.3
		c0.5,0.8,1,1.5,1.6,2.3c-0.1-0.1-0.2-0.2-0.2-0.3c0.1,0.1,0.2,0.2,0.2,0.3c0.1,0.1,0.2,0.2,0.3,0.4c0.2,0.3,0.5,0.6,0.8,0.9
		c0,0,0,0.1,0.1,0.1c0.1,0.1,0.2,0.3,0.3,0.4c-0.1-0.1-0.2-0.2-0.3-0.4c9,10.2,24.9,12.1,36,3.9l0,0l0,0c0.2-0.2,0.5-0.4,0.7-0.6
		c0.1-0.1,0.3-0.2,0.4-0.3c0.1-0.1,0.2-0.1,0.2-0.2c5.5-4.7,10.3-10.2,15.4-15.3C53.3,78.4,47.2,78.5,41.2,78.5z M56.8,47.8
		c0.1,0.1,0.2,0.3,0.3,0.4C57,48.1,56.9,48,56.8,47.8z M48.7,28.5c0.2,0,0.4,0.1,0.5,0.1c-0.2,0-0.4-0.1-0.7-0.1
		C48.6,28.5,48.7,28.5,48.7,28.5z M39.8,28.8L39.8,28.8C39.8,28.7,39.9,28.7,39.8,28.8c0.2,0,0.3,0,0.4-0.1c-0.2,0-0.4,0.1-0.6,0.1
		C39.6,28.8,39.7,28.8,39.8,28.8z M15.4,65.5L15.4,65.5L15.4,65.5z M16.4,64.3c-0.1,0.1-0.1,0.2-0.2,0.2l0,0
		C16.3,64.4,16.3,64.4,16.4,64.3z M5.8,89.9c0.2,0.3,0.5,0.6,0.7,0.9C6.2,90.5,6,90.2,5.8,89.9z M15.9,81.9L15.9,81.9L15.9,81.9z"/>
	<path d="M37.3,29.4c-0.4,0.1-0.8,0.3-1.2,0.4c0.5-0.2,0.9-0.3,1.4-0.4c0.2,0,0.3-0.1,0.5-0.1c-0.2,0-0.3,0.1-0.5,0.1
		C37.4,29.4,37.3,29.4,37.3,29.4z"/>
	<path d="M33.3,31c-0.3,0.1-0.5,0.3-0.8,0.4c0.5-0.3,1-0.5,1.5-0.8C33.8,30.7,33.5,30.8,33.3,31z"/>
</g>
</svg>
