<?xml version="1.0" encoding="utf-8"?>
<!-- Generator: Adobe Illustrator 19.2.0, SVG Export Plug-In . SVG Version: 6.00 Build 0)  -->
<svg version="1.1" id="Calque_1" xmlns="http://www.w3.org/2000/svg" xmlns:xlink="http://www.w3.org/1999/xlink" x="0px" y="0px"
	 viewBox="0 0 100 100" style="enable-background:new 0 0 100 100;" xml:space="preserve">
<g>
	<g>
		<polygon points="65.8,37.6 48.5,61 37.2,53.6 37.2,53.6 19.9,66.6 19.9,71 42.9,71 65.8,71 77.5,71 89.2,71 89.2,65.3 80.5,46.3 
					"/>
		<path d="M32.9,39.8c3.9,0,6.9-3,6.9-6.9s-3-6.9-6.9-6.9S26,29,26,32.9S29,39.8,32.9,39.8z"/>
		<path d="M100,80.5v-2.2V13.4c0-1.7-1.3-3-2.6-3h-3c-0.9-0.4-1.7-0.9-2.6-0.9l-13.4,0.9H11.7c-1.7,0-3,1.7-3,3v2.2L2.6,16
			C1.3,16.4,0,17.7,0,19.4l5.2,68.4c0,1.7,1.7,3,3,2.6L97,83.9C98.7,83.5,100,82.2,100,80.5z M13.9,20.3V16H68h22.5h3.9v54.5v5.6
			H13.9V20.3z M4.8,21.2l3.9-0.4v53.7L4.8,21.2z M9.1,80.9c0.4,0.9,1.3,1.3,2.2,1.3h39.4l-41.6,3L9.1,80.9z"/>
	</g>
</g>
</svg>
