<?xml version="1.0" encoding="utf-8"?>
<!-- Generator: Adobe Illustrator 19.2.0, SVG Export Plug-In . SVG Version: 6.00 Build 0)  -->
<svg version="1.1" id="Calque_1" xmlns="http://www.w3.org/2000/svg" xmlns:xlink="http://www.w3.org/1999/xlink" x="0px" y="0px"
	 viewBox="0 0 100 100" style="enable-background:new 0 0 100 100;" xml:space="preserve">
<style type="text/css">
	.st0{display:none;}
	.st1{display:inline;}
	.st2{fill:#020202;}
	.st3{display:inline;fill:#020202;}
</style>
<g class="st0">
	<g class="st1">
		<path class="st2" d="M35.1,78.2c-0.8,0-1.5-0.2-2.2-0.7c-9-5.8-14.4-15.7-14.4-26.4c0-17.4,14.1-31.5,31.5-31.5
			s31.5,14.1,31.5,31.5c0,10.7-5.4,20.6-14.4,26.4c-1.9,1.2-4.4,0.7-5.7-1.2c-1.2-1.9-0.7-4.4,1.2-5.7c6.6-4.3,10.6-11.6,10.6-19.5
			c0-12.8-10.4-23.3-23.3-23.3S26.7,38.4,26.7,51.2c0,7.9,4,15.2,10.6,19.5c1.9,1.2,2.4,3.8,1.2,5.7C37.7,77.6,36.4,78.2,35.1,78.2z
			"/>
	</g>
	<g class="st1">
		<path class="st2" d="M20.1,90c-1.1,0-2.2-0.4-3-1.1C6.2,79.3-0.1,65.6-0.1,51.2c0-27.6,22.4-50,50-50s50,22.4,50,50
			c0,14.4-6.2,28.2-17.1,37.7c-1.9,1.7-4.8,1.5-6.5-0.4s-1.5-4.8,0.4-6.5c8.9-7.8,14-19,14-30.7c0-22.5-18.3-40.8-40.8-40.8
			S9.2,28.7,9.2,51.2c0,11.8,5.1,23,14,30.7c1.9,1.7,2.1,4.6,0.4,6.5C22.7,89.4,21.4,90,20.1,90z"/>
	</g>
	<path class="st3" d="M70.4,98.8l-18.7-30h-4.1l-18.1,30H70.4z"/>
	<path class="st3" d="M61.5,51.7c0,6.4-5.2,11.6-11.6,11.6s-11.6-5.2-11.6-11.6s5.2-11.6,11.6-11.6C56.3,40,61.5,45.2,61.5,51.7z"/>
</g>
</svg>
