<?xml version="1.0" encoding="utf-8"?>
<!-- Generator: Adobe Illustrator 19.2.0, SVG Export Plug-In . SVG Version: 6.00 Build 0)  -->
<svg version="1.1" id="Calque_1" xmlns="http://www.w3.org/2000/svg" xmlns:xlink="http://www.w3.org/1999/xlink" x="0px" y="0px"
	 viewBox="0 0 100 100" style="enable-background:new 0 0 100 100;" xml:space="preserve">
<path d="M96.6,79.6L72.4,60c2.7-5.2,4.2-11.1,4.2-17.4c0-21.1-17.2-38.3-38.3-38.3C17.2,4.3,0,21.5,0,42.6s17.2,38.3,38.3,38.3
	c8.3,0,16-2.7,22.3-7.2l24.7,20c1.7,1.4,3.7,2,5.7,2c2.6,0,5.2-1.1,7-3.4C101.1,88.5,100.5,82.8,96.6,79.6z M38.3,68.4
	c-14.4,0-26-11.6-26-26s11.6-26,26-26c14.3,0,26,11.6,26,26C64.3,56.7,52.7,68.4,38.3,68.4z"/>
</svg>
