<?xml version="1.0" encoding="UTF-8" standalone="no"?>
<!-- Generator: Adobe Illustrator 15.1.0, SVG Export Plug-In . SVG Version: 6.00 Build 0)  -->

<svg
   xmlns:dc="http://purl.org/dc/elements/1.1/"
   xmlns:cc="http://creativecommons.org/ns#"
   xmlns:rdf="http://www.w3.org/1999/02/22-rdf-syntax-ns#"
   xmlns:svg="http://www.w3.org/2000/svg"
   xmlns="http://www.w3.org/2000/svg"
   xmlns:sodipodi="http://sodipodi.sourceforge.net/DTD/sodipodi-0.dtd"
   xmlns:inkscape="http://www.inkscape.org/namespaces/inkscape"
   version="1.1"
   id="Calque_1"
   x="0px"
   y="0px"
   width="85.635px"
   height="60px"
   viewBox="0 0 85.635 60"
   enable-background="new 0 0 85.635 60"
   xml:space="preserve"
   inkscape:version="0.48.4 r9939"
   sodipodi:docname="rss.svgz"><metadata
   id="metadata33"><rdf:RDF><cc:Work
       rdf:about=""><dc:format>image/svg+xml</dc:format><dc:type
         rdf:resource="http://purl.org/dc/dcmitype/StillImage" /><dc:title></dc:title></cc:Work></rdf:RDF></metadata><defs
   id="defs31" /><sodipodi:namedview
   pagecolor="#ffffff"
   bordercolor="#666666"
   borderopacity="1"
   objecttolerance="10"
   gridtolerance="10"
   guidetolerance="10"
   inkscape:pageopacity="0"
   inkscape:pageshadow="2"
   inkscape:window-width="640"
   inkscape:window-height="480"
   id="namedview29"
   showgrid="false"
   inkscape:zoom="3.9333333"
   inkscape:cx="42.817501"
   inkscape:cy="30"
   inkscape:window-x="0"
   inkscape:window-y="0"
   inkscape:window-maximized="0"
   inkscape:current-layer="Calque_1" />
<g
   id="g21">
	<path
   d="M12.443,0.021c0,0,57.287-2.819,61.801,57.566h-11.57c0,0,2.26-44.02-50.23-47.972V0.021L12.443,0.021z"
   id="path23" fill="#fff" />
	<path
   d="M12.443,20.06c0,0,33.584-1.132,40.072,37.527H40.947c0,0-1.408-22.854-28.504-27.939V20.06L12.443,20.06z"
   id="path25" fill="#fff" />
	<path
   d="M18.732,45.234c4.048,0,7.337,3.281,7.337,7.337c0,4.049-3.289,7.338-7.337,7.338c-4.055,0-7.339-3.287-7.339-7.338   C11.393,48.516,14.677,45.234,18.732,45.234z"
   id="path27" fill="#fff" />
</g>
</svg>