<?xml version="1.0" encoding="utf-8"?>
<!-- Generator: Adobe Illustrator 19.1.0, SVG Export Plug-In . SVG Version: 6.00 Build 0)  -->
<svg version="1.1" id="Calque_1" xmlns="http://www.w3.org/2000/svg" xmlns:xlink="http://www.w3.org/1999/xlink" x="0px" y="0px"
	 viewBox="0 0 100 100" style="enable-background:new 0 0 100 100;" xml:space="preserve">
<style type="text/css">
	.st0{fill:#C9A45E;}
</style>
<g>
	<path class="st0" d="M50,6.1c5.9,0,11.7,1.2,17.1,3.4C72.3,11.8,77,15,81,19c4,4,7.2,8.7,9.4,13.9c2.3,5.4,3.4,11.1,3.4,17.1
		s-1.2,11.7-3.4,17.1C88.2,72.3,85,77,81,81c-4,4-8.7,7.2-13.9,9.4c-5.4,2.3-11.1,3.4-17.1,3.4s-11.7-1.2-17.1-3.4
		C27.7,88.2,23,85,19,81c-4-4-7.2-8.7-9.4-13.9C7.3,61.7,6.1,55.9,6.1,50s1.2-11.7,3.4-17.1C11.8,27.7,15,23,19,19
		c4-4,8.7-7.2,13.9-9.4C38.3,7.3,44.1,6.1,50,6.1 M50,0.3C22.6,0.3,0.3,22.6,0.3,50S22.6,99.7,50,99.7S99.7,77.4,99.7,50
		S77.4,0.3,50,0.3L50,0.3z"/>
	<polygon class="st0" points="45,44.6 81.9,19.9 55.4,55.7 17.8,79.9 	"/>
</g>
</svg>
