<?xml version="1.0" encoding="utf-8"?>
<!-- Generator: Adobe Illustrator 19.2.0, SVG Export Plug-In . SVG Version: 6.00 Build 0)  -->
<svg version="1.1" id="Calque_1" xmlns="http://www.w3.org/2000/svg" xmlns:xlink="http://www.w3.org/1999/xlink" x="0px" y="0px"
	 viewBox="0 0 100 100" style="enable-background:new 0 0 100 100;" xml:space="preserve">
<path d="M74.7,0c-3,0-5.5,0.8-7.6,2.1l0,0l0,0C62.4,4.7,59,9.7,59,15.7c0,0.4,0,1.3,0,1.7L23.4,39.8c-0.8,0.4-0.8,1.3-0.4,1.7
	l2.5,4.2c-3,1.7-10.2,6.4-13.1,11.4c-4.7,8.1-1.3,15.7,1.3,22c0.8,2.1,1.7,4.2,2.1,5.9c1.3,5.5,0,10.2-3.8,12.7
	c-0.4,0.4-0.4,1.3-0.4,1.7C12,100,12,100,12.4,100s0.4,0,0.8-0.4c4.7-3.4,6.4-8.9,4.7-15.3c-0.4-1.7-1.3-3.8-2.1-6.4
	c-2.5-5.9-5.1-12.7-1.3-19.5c2.5-4.7,9.3-8.9,11.9-10.6c0,0,2.6,4.1,3,4.7s0.9,0.5,1.7,0c0.8-0.5,20.8-13.1,20.8-13.1v28.4H36.5
	c-1.7,0-4,0.8-4,3.8s2.3,3.8,4,3.8h39.8c1.7,0,4-0.9,4-3.8s-2.3-3.8-4-3.8H61.1V34.3l7.2-4.7l0,0c2.1,0.8,4.2,1.3,6.4,1.3
	c3.4,0,6.4-0.8,8.9-3l0,0l0,0c3.8-3,6.4-7.6,6.4-12.7C90.3,6.8,83.1,0,74.7,0z M83.6,25.4l-14-22c1.7-0.8,3.4-1.3,5.5-1.3
	c7.2,0,13.1,5.9,13.1,13.1C87.8,19.5,86.1,22.9,83.6,25.4z M66.2,28.4l-7.6,4.7l-4.7,3l-1.3,0.8l-0.7,0.4L30.6,50.4l-2.5-4.2
	l-0.4-0.8l-2.1-4.2l34.3-21.6l0.4-0.4l1.7,2.5l1.7,2.5L66.2,28.4L66.2,28.4z M78.1,71.6c0,0.8-0.8,1.3-1.7,1.3H36.5
	c-0.8,0-1.7-0.4-1.7-1.3c0-0.8,0.8-1.3,1.7-1.3H53h6.8h16.5C77.2,70.3,78.1,70.7,78.1,71.6z M58.6,67.8h-4.7V38.6l4.7-3V67.8z
	 M67.9,26.7L62,17.4c0-0.4,0-1.3,0-1.7c0-4.7,2.1-8.5,5.9-11l14,22.5c-2.1,1.3-4.2,2.1-6.8,2.1C72.1,28.8,69.6,28,67.9,26.7z"/>
</svg>
