<?xml version="1.0" encoding="utf-8"?>
<!-- Generator: Adobe Illustrator 19.2.0, SVG Export Plug-In . SVG Version: 6.00 Build 0)  -->
<svg version="1.1" id="Calque_1" xmlns="http://www.w3.org/2000/svg" xmlns:xlink="http://www.w3.org/1999/xlink" x="0px" y="0px"
	 viewBox="0 0 100 100" style="enable-background:new 0 0 100 100;" xml:space="preserve">
<g>
	<path d="M97.9,18.2H74.7l-7-3.7c-0.2-0.2-0.9-0.5-1.4-0.5H49.9c0,0,0,0-0.2,0H33.2c-0.5,0-0.9,0.2-1.4,0.5l-7,3.7H2.1
		c-1.2,0-2.1,0.9-2.1,2.1v63.6C0,85,0.9,86,2.1,86h95.8c1.2,0,2.1-0.9,2.1-2.1V20.3C100,19.1,99.1,18.2,97.9,18.2z M95.6,81.8H4.2
		V22.4h21.6c0.7,0,1.4-0.5,1.9-0.9l6.5-3.5H50c0,0,0,0,0.2,0h15.5l6.5,3.5c0.2,0.5,0.9,0.9,1.9,0.9h22L95.6,81.8z"/>
	<path d="M70.8,46.2l-2,2.2c-0.3-5.6-3.2-11-8-14.7l0,0c-4.2-3-9.6-4.2-14.7-3.3c-5.1,0.9-9.4,3.8-12.3,8.1
		c-0.5,0.9-0.2,2.5,0.8,3.1c0.5,0.4,1.1,0.5,1.7,0.4c0.7-0.1,1.3-0.5,1.6-1.1l0.1-0.2v-0.1c2.2-2.9,5.4-4.9,9.2-5.5
		c3.9-0.6,7.7,0.2,10.8,2.4c3.8,2.7,6,6.8,6.1,11.3l-2.3-1.9c-0.4-0.4-1.1-0.7-1.7-0.7l0,0c-0.7,0-1.3,0.3-1.7,0.7s-0.7,1.1-0.7,1.7
		c0,0.7,0.3,1.3,0.7,1.8l6.7,6c0.4,0.5,0.9,0.7,1.4,0.7c0.2,0,0.4,0,0.6-0.1c0.8-0.1,1.2-0.5,1.5-0.8l6-6.7c0.5-0.5,0.7-1.2,0.6-1.9
		c-0.1-0.6-0.4-1.2-0.9-1.5C73.3,45.3,71.7,45.3,70.8,46.2z"/>
	<path d="M65.4,58.5c-0.2-0.4-0.6-0.7-1.1-0.8c-0.7-0.2-1.5,0.1-2.1,0.7l-0.1,0.1c-4.7,6.6-13.7,8.2-20.4,3.7
		c-3.8-2.7-6-6.8-6.1-11.2l2.3,2.1c0.4,0.4,1.1,0.7,1.7,0.7l0,0c0.7,0,1.3-0.3,1.7-0.7c0.9-0.9,0.9-2.6-0.1-3.6l-6.9-6
		c-0.2-0.2-0.9-0.9-2-0.6c-0.8,0.1-1.2,0.5-1.5,0.8l-6,6.7c-0.5,0.5-0.7,1.2-0.6,1.9c0.1,0.6,0.4,1.2,0.9,1.5c0.4,0.4,1,0.6,1.6,0.6
		l0,0c0.7,0,1.3-0.3,1.8-0.7l2.1-2.3c0.3,5.9,3.3,11.4,8.2,14.8c3.3,2.3,7.2,3.6,11.2,3.6c1.2,0,2.3-0.1,3.5-0.3
		c5.1-0.9,9.4-3.8,12.3-8.1c0.3-0.5,0.3-1.2,0.1-1.9C65.9,59.1,65.7,58.8,65.4,58.5z"/>
</g>
</svg>
