<?xml version="1.0" encoding="utf-8"?>
<!-- Generator: Adobe Illustrator 19.1.0, SVG Export Plug-In . SVG Version: 6.00 Build 0)  -->
<svg version="1.1" id="Calque_1" xmlns="http://www.w3.org/2000/svg" xmlns:xlink="http://www.w3.org/1999/xlink" x="0px" y="0px"
	 viewBox="0 0 20.1 20.1" style="enable-background:new 0 0 20.1 20.1;" xml:space="preserve">
<style type="text/css">
	.st0{fill:#C9A562;}
</style>
<path class="st0" d="M8.4,13.9l5.5-5.5c1.6,0.7,3.6,0.4,4.9-0.9C20.3,6,20.5,3.8,19.4,2l-0.8,2.2l-1.5,1.5l-2.3-0.5l0,0L14.3,3
	l1.5-1.5l2.2-0.8c-1.7-1.1-4-0.9-5.5,0.6c-1.3,1.3-1.6,3.3-0.9,4.9l-5.5,5.5c-1.6-0.7-3.6-0.4-4.9,0.9c-1.5,1.5-1.7,3.8-0.6,5.5
	l0.8-2.2L3,14.3l2.3,0.5l0,0l0.5,2.3l-1.5,1.5L2,19.4c1.7,1.1,4,0.9,5.5-0.6C8.9,17.5,9.1,15.6,8.4,13.9z"/>
</svg>
