<?xml version="1.0" encoding="utf-8"?>
<!-- Generator: Adobe Illustrator 19.2.0, SVG Export Plug-In . SVG Version: 6.00 Build 0)  -->
<svg version="1.1" id="Calque_1" xmlns="http://www.w3.org/2000/svg" xmlns:xlink="http://www.w3.org/1999/xlink" x="0px" y="0px"
	 viewBox="0 0 100 100" style="enable-background:new 0 0 100 100;" xml:space="preserve">
<path d="M42.1,69.2l27.2-27.4c7.9,3.5,17.8,2,24.3-4.5c7.4-7.5,8.4-18.4,3-27.4l-4,10.9l-7.4,7.5l-11.4-2.5l0,0l-2.5-10.9l7.4-7.5
	l10.9-4C81.2-2,69.8-1,62.4,6.5C56,13,54.5,22.9,57.9,30.9L30.7,58.2c-7.9-3.5-17.8-2-24.3,4.5C-1,70.2-2,81.6,3.5,90.1l4-10.9
	l7.9-8l11.4,2.5l0,0l2.5,11.4l-7.4,7.5l-11.4,4c8.4,5.5,19.8,4.5,27.2-3C44.6,87.1,45.5,77.6,42.1,69.2z"/>
</svg>
