<?xml version="1.0" encoding="utf-8"?>
<!-- Generator: Adobe Illustrator 19.2.0, SVG Export Plug-In . SVG Version: 6.00 Build 0)  -->
<svg version="1.1" id="Calque_1" xmlns="http://www.w3.org/2000/svg" xmlns:xlink="http://www.w3.org/1999/xlink" x="0px" y="0px"
	 viewBox="0 0 100 100" style="enable-background:new 0 0 100 100;" xml:space="preserve">
<path d="M81.3,64.9c-4.5,0-8.7,1.7-11.8,4.6L36,52.4c0.1-0.9,0.2-1.8,0.2-2.7c0-0.5,0-1-0.1-1.5L70,30.9c3.1,2.6,7,4.2,11.3,4.2
	c9.7,0,17.5-7.9,17.5-17.5C98.9,7.9,91,0,81.3,0S63.8,7.9,63.8,17.5c0,0.5,0,1.1,0.1,1.6L30,36.4c-3.1-2.6-7-4.2-11.4-4.2
	C9,32.2,1.1,40,1.1,49.7S9,67.2,18.6,67.2c3.9,0,7.5-1.3,10.4-3.5l34.7,17.7c0,0.3,0,0.6,0,0.9c0,9.7,7.9,17.5,17.5,17.5
	s17.5-7.9,17.5-17.5C98.9,72.8,91,64.9,81.3,64.9"/>
</svg>
