<?xml version="1.0" encoding="utf-8"?>
<!-- Generator: Adobe Illustrator 19.2.0, SVG Export Plug-In . SVG Version: 6.00 Build 0)  -->
<svg version="1.1" id="Calque_1" xmlns="http://www.w3.org/2000/svg" xmlns:xlink="http://www.w3.org/1999/xlink" x="0px" y="0px"
	 viewBox="0 0 100 100" style="enable-background:new 0 0 100 100;" xml:space="preserve">
<style type="text/css">
	.st0{display:none;}
	.st1{display:inline;}
	.st2{fill:#020202;}
	.st3{display:inline;fill:#020202;}
</style>
<g id="espace_presse" class="st0">
	<path class="st1" d="M49.9,0C28.9,0,11.7,17.6,11.7,39.7c0,5.4,1,10.8,2.9,15.7c0,0,4.4,8.3,6.9,10.8L49.9,100l27.9-32.8
		c2.9-2.9,7.4-11.8,7.4-11.8c2-4.9,2.9-10.3,2.9-15.7C88.7,17.6,71,0,49.9,0 M49.9,50.5c-7.8,0-14.2-6.4-14.2-14.2
		s6.4-14.2,14.2-14.2s14.2,6.4,14.2,14.2C64.2,44.1,57.8,50.5,49.9,50.5"/>
	<path class="st1" d="M11.7,0v100h76.9v-33V0H11.7z M72.5,87.2H27.7c-1.9,0-3.8-1.9-3.8-3.8s1.9-3.8,3.8-3.8h44.8
		c1.9,0,3.8,1.9,3.8,3.8C76.3,85.8,74.4,87.2,72.5,87.2z M72.5,70.7H27.7c-1.9,0-3.8-1.9-3.8-3.8c0-1.9,1.9-3.8,3.8-3.8h44.8
		c1.9,0,3.8,1.9,3.8,3.8S74.4,70.7,72.5,70.7z M72.5,53.7H27.7c-1.9,0-3.8-1.9-3.8-3.8s1.9-3.8,3.8-3.8h44.8c1.9,0,3.8,1.9,3.8,3.8
		S74.4,53.7,72.5,53.7z M72.5,37.2H27.7c-1.9,0-3.3-1.9-3.3-3.8c0-1.9,1.4-3.8,3.3-3.8h44.8c1.9,0,3.8,1.9,3.8,3.8
		C76.3,35.3,74.4,37.2,72.5,37.2z M72.5,20.2H27.7c-1.9,0-3.3-1.9-3.3-3.8c0-1.9,1.9-3.8,3.8-3.8H73c1.9,0,3.8,1.9,3.8,3.8
		C76.3,18.3,74.4,20.2,72.5,20.2z"/>
	<g class="st1">
		<g>
			<path d="M65.3,33.4c0,13.3-10.9,24.2-24.2,24.2S16.9,46.7,16.9,33.4S27.8,9.2,41.1,9.2S65.3,20.1,65.3,33.4"/>
			<path d="M58.9,59.7c-5.7,6.3-18.1,6.6-18.1,6.6S29.3,66,23.3,59.7c0,0-16.6,6.3-23.3,27.8h40.2h18.7V59.7z"/>
		</g>
		<path d="M97.3,60.6V56h-3v4.5H73.1V56h-3v4.5h-3v30.2H100V60.6H97.3z M97.3,87.2H70.1v-19h27.2V87.2z"/>
	</g>
	<g class="st1">
		<g>
			<g>
				<g>
					<path d="M97.9,18H74.7L68,14.4c-0.5-0.5-1-0.5-1.5-0.5H49.9l0,0l0,0h-17c-0.5,0-1,0-1,0.5L24.7,18H2c-1,0-2.1,1-2.1,2.1v63.4
						c0,1.5,1,2.6,2.1,2.6h95.9c1,0,2.1-1,2.1-2.1V20.1C99.9,19.1,98.9,18,97.9,18z M95.3,81.4H4.1V22.2h21.6c1,0,1.5-0.5,1.5-1
						l6.2-3.6h15.5l0,0l0,0h15.5l7.7,3.6c0.5,0.5,1,1,1.5,1h22.2L95.3,81.4L95.3,81.4z"/>
				</g>
			</g>
		</g>
		<g>
			<path d="M49.9,72.7c-11.9,0-21.1-9.8-21.1-21.1s9.8-21.1,21.1-21.1s21.1,9.8,21.1,21.1S61.8,72.7,49.9,72.7z M49.9,40.2
				c-6.2,0-11.3,5.2-11.3,11.3s5.2,11.3,11.3,11.3s11.3-5.2,11.3-11.3S56.1,40.2,49.9,40.2z"/>
		</g>
		<path d="M14.9,37.6h-0.5c-2.1,0-3.1-1.5-3.1-3.1v-1c0-2.1,1.5-3.1,3.1-3.1h0.5c2.1,0,3.1,1.5,3.1,3.1V34
			C18.5,36.1,17,37.6,14.9,37.6z"/>
	</g>
	<path class="st1" d="M0,8.2v14.5L8.2,8.2H0L0,8.2z M91.8,25H81.4L91.8,8.2H81.4L70.9,25H60.5L70.9,8.2H60.5L50,25H39.5L50,8.2H39.5
		L29.1,25H18.6L29.1,8.2H18.6L8.6,25H0v62.7c0,4.1,0,4.1,4.1,4.1h91.8c4.1,0,4.1,0,4.1-4.1V10.5L91.8,25z"/>
	<g class="st1">
		<polygon points="47.4,37.8 47.4,47.3 37.9,47.3 37.9,53.2 47.4,53.2 47.4,62.8 52.6,62.8 52.6,53.2 62.1,53.2 62.1,47.3 
			52.6,47.3 52.6,37.8 		"/>
		<g>
			<path d="M100,100H0V0h100V100z M1.6,98.4h97.4V1.6H1.6V98.4z"/>
		</g>
	</g>
	<g class="st1">
		<path d="M28.2,99.4H0v-96h28.2V99.4z M4,95.4h20.1v-88H4V95.4z"/>
		<rect x="6.9" y="80.6" width="14.4" height="4"/>
		<rect x="6.9" y="72" width="14.4" height="4"/>
		<rect x="6.9" y="17.7" width="14.4" height="4"/>
		<path d="M60.3,99.4H32.2v-96h28.2V99.4z M36.2,95.4h20.1v-88H36.2V95.4z"/>
		<rect x="39.1" y="80.6" width="14.4" height="4"/>
		<rect x="39.1" y="72" width="14.4" height="4"/>
		<rect x="39.1" y="17.7" width="14.4" height="4"/>
		<g>
			<path d="M71.8,100L59.2,4.6L87.4,0L100,94.9L71.8,100z M63.8,8l11.5,86.9l20.1-3.4L83.9,4.6L63.8,8z"/>
			<polygon points="90.2,77.7 90.8,81.7 76.7,83.9 76,80 			"/>
			<polygon points="89.1,69.3 89.8,73.3 75.7,75.7 75,71.8 			"/>
			<polygon points="82,15.2 82.6,19.2 68.4,21.4 67.8,17.5 			"/>
		</g>
	</g>
	<g class="st1">
		<path d="M91.7,100H8.3V0h83.5V100z M13,95.3h73.6V4.7H13V95.3z"/>
		<g>
			<g>
				<rect x="27.6" y="20.8" width="25" height="9.4"/>
			</g>
			<g>
				<rect x="27.6" y="40.6" width="44.8" height="4.2"/>
			</g>
			<g>
				<rect x="27.6" y="55.2" width="44.8" height="4.2"/>
			</g>
			<g>
				<rect x="27.6" y="69.8" width="44.8" height="4.2"/>
			</g>
		</g>
	</g>
	<polygon class="st1" points="38.7,0 38.7,38.7 0,38.7 0,61.3 38.7,61.3 38.7,100 61.3,100 61.3,61.3 100,61.3 100,38.7 61.3,38.7 
		61.3,0 	"/>
	<path class="st1" d="M98.2,11.6L66.8,0c-0.5,0-1.1,0-1.6,0L34.2,11.1L3.8,0C2.7,0,1.6,0,1.1,0.6S0,2.2,0,2.8v79.7
		c0,1.1,0.5,2.2,1.6,2.8l31.5,14.4c0.5,0.6,1.6,0.6,2.2,0l30.4-13.8l30.4,13.8c0.5,0,0.5,0,1.1,0c0.5,0,1.1,0,1.6-0.6
		c0.5-0.6,1.1-1.1,1.1-2.2V14.4C100.4,13.3,99.3,12.2,98.2,11.6z M33.1,92.9L5.4,80.8V6.6l27.7,10V92.9z M64.6,79.7L35.8,92.4V16.6
		L64.6,6.1V79.7z M95,92.4L67.3,80.2V6.6l27.7,10V92.4z"/>
	<g class="st1">
		<path d="M96.5,32.1L96.5,32.1c-1.5-1.1-3.4-1.5-5.3-1.5H8.7l0,0c-1.9,0-3.8,0.4-4.9,1.1l0,0C1.5,33.3,0,35.2,0,37.5l6.5,41
			c0,3.4,3.8,6.5,8.7,6.5h69.5c4.9,0,8.7-3,8.7-6.5l6.5-41C100.3,35.2,98.8,33.3,96.5,32.1z"/>
		<path d="M91.2,28.3c1.9,0,3.8,0.4,5.3,1.1v-0.4c0-4.2-3.8-7.2-8.4-7.2H46.4c-0.4,0-3.4-1.1-6.5-5.3C39.5,15.8,38,15,36.5,15l0,0
			H23.6l0,0c-1.9,0-3,0.8-4.2,1.9c-3,3.8-6.1,4.9-6.5,4.9h-1.1c-4.6,0-8.4,3.4-8.4,7.2v0.4c1.5-0.8,3.4-1.1,5.3-1.1
			C8.7,28.3,91.2,28.3,91.2,28.3z"/>
	</g>
	<g class="st1">
		<circle cx="50" cy="9.4" r="9.4"/>
		<circle cx="50" cy="50" r="9.4"/>
		<circle cx="50" cy="90.6" r="9.4"/>
	</g>
	<g class="st1">
		<path d="M39.8,23.9c-1.4-1.4-3.3-1.4-4.8,0L23.6,35.3c-1.4,1.4-1.4,3.3,0,4.7l36.7,36.6c1.4,1.4,3.3,1.4,4.8,0l11.4-11.4
			c1.4-1.4,1.4-3.3,0-4.7L39.8,23.9z"/>
		<path d="M92.2,7.8C82.7-1.7,68.4-2.7,57.9,5.9l36.2,36.1C102.7,31.5,101.7,17.3,92.2,7.8z"/>
		<path d="M49.3,26.3L74.1,51c4.8,0.9,11.4-1.4,16.2-5.2L54.6,10.1C50.3,14.9,47.9,21.5,49.3,26.3z"/>
		<path d="M0.7,86.1c-1,1.4-1,3.3,0,4.3l8.6,8.5c1.4,1.4,3.3,1.4,4.3,0l33.8-29.4L30.3,52.4L0.7,86.1z"/>
	</g>
	<g class="st1">
		<g>
			<path d="M53.9,31.2c0,11-9,20-20,20s-20-9-20-20s9-20,20-20S53.9,20.2,53.9,31.2"/>
			<path d="M48.6,52.9c-4.7,5.2-15,5.5-15,5.5s-9.5-0.2-14.5-5.5c0,0-13.7,5.2-19.2,22.9h33.2h15.5V52.9z"/>
		</g>
		<g>
			<path d="M53.9,31.2c0,11-9,20-20,20s-20-9-20-20s9-20,20-20S53.9,20.2,53.9,31.2"/>
			<path d="M48.6,52.9c-4.7,5.2-15,5.5-15,5.5s-9.5-0.2-14.5-5.5c0,0-13.7,5.2-19.2,22.9h33.2h15.5V52.9z"/>
		</g>
		<polygon points="73.3,45.1 73.3,62.1 56.1,62.1 56.1,71.8 73.3,71.8 73.3,88.8 83,88.8 83,71.8 100,71.8 100,62.1 83,62.1 
			83,45.1 		"/>
	</g>
	<path class="st1" d="M92.9,14.2H7.1c-3.8,0-7.1,3.3-7.1,7.1v57.5c0,3.8,3.3,7.1,7.1,7.1h85.8c3.8,0,7.1-3.3,7.1-7.1V21.2
		C100,17.5,96.7,14.2,92.9,14.2z M42.5,72.1H14.6c-1.7,0-3.3-1.7-3.3-3.3c0-1.7,1.7-3.3,3.3-3.3h27.9c1.7,0,3.3,1.7,3.3,3.3
		C45.4,70.8,44.2,72.1,42.5,72.1z M42.5,52.9H14.6c-1.7,0-3.3-1.2-3.3-2.9s1.7-3.3,3.3-3.3h27.9c1.7,0,3.3,1.7,3.3,3.3
		C45.4,51.7,44.2,52.9,42.5,52.9z M42.5,33.8H14.6c-1.7,0-3.3-1.2-3.3-2.9c0-1.7,1.7-3.3,3.3-3.3h27.9c1.7,0,3.3,1.7,3.3,3.3
		S44.2,33.8,42.5,33.8z M88.7,57.9c0,1.7-1.7,3.3-3.3,3.3H62.1c-1.7,0-3.3-1.7-3.3-3.3V30.8c0-1.7,1.7-3.3,3.3-3.3h23.3
		c1.7,0,3.3,1.7,3.3,3.3V57.9L88.7,57.9z"/>
	<g class="st1">
		<path d="M70,46l30-17.5v43.3L70,54.4v10.3c0,7.2-5.7,12.9-12.9,12.9H12.9C5.7,77.6,0,71.9,0,64.6V35.4c0-7.2,5.7-12.9,12.9-12.9
			H57c7.2,0,12.9,5.7,12.9,12.9"/>
	</g>
	<g class="st1">
		<path d="M50,0C22.2,0,0,22.2,0,50c0,27.4,22.2,50,50,50s50-22.2,50-50C99.5,22.2,77.4,0,50,0z M50,87.7c-21.2,0-38.2-17-38.2-38.2
			s17-38.2,38.2-38.2s38.2,17,38.2,38.2C87.7,70.8,70.8,87.7,50,87.7z"/>
		<path d="M53.8,31.6c-1.4,0-2.4,0.5-3.3,1.4c-0.9,0.9-1.4,1.9-1.4,2.8c0,0.9,0.5,2.4,1.4,2.8c0.9,0.5,1.9,1.4,3.3,1.4
			c1.4,0,2.4-0.5,3.3-1.4c0.9-0.9,1.4-1.9,1.4-2.8c0-0.9-0.9-1.9-1.9-2.8C55.7,32.1,54.7,31.6,53.8,31.6z"/>
		<path d="M54.7,64.6c-0.9,0-1.9,0-1.9-0.5c-0.5-0.5-0.5-0.9-0.5-1.9c0-0.5,0-0.9,0-1.4s0.5-1.4,0.5-1.9l1.9-6.6
			c0-0.5,0.5-1.4,0.5-1.9s0-1.4,0-1.4c0-1.4-0.5-2.4-1.4-3.3c-0.9-0.9-2.4-1.4-4.2-1.4c-0.9,0-1.9,0-3.3,0.5
			c-1.4,0.5-2.4,0.5-3.8,0.9L42,47.6c0.5,0,0.9-0.5,1.4-0.5c0.5,0,0.9,0,1.4,0c0.9,0,1.9,0,1.9,0.5c0,0.5,0.5,0.9,0.5,1.9
			c0,0.5,0,0.9,0,1.4c0,0.5-0.5,1.4-0.5,1.9l-1.9,6.6c0,0.5-0.5,1.4-0.5,1.9s0,0.9,0,1.4c0,1.4,0.5,2.4,1.4,3.3
			c0.9,0.9,2.4,1.4,4.2,1.4c1.4,0,2.4,0,3.3-0.5c0.9-0.5,1.9-0.9,3.8-1.4l0.5-1.9c-0.5,0-0.5,0.5-1.4,0.5
			C55.7,64.6,55.2,64.6,54.7,64.6z"/>
	</g>
	<g class="st1">
		<polygon points="90.8,61.1 88.5,58.9 95.3,51.9 88.5,45.1 90.8,42.9 100,51.9 		"/>
		<polygon points="9,42.9 11.5,45.1 4.5,51.9 11.5,58.9 9,61.1 0,51.9 		"/>
		<g>
			<path d="M44.3,32.6c1.7,0,3,1.4,3,3.1v2.1c0-1.9,1.6-3.3,3.5-3.3c1.9,0,3.5,1.6,3.5,3.3v2.6c0-1.9,1.6-3.3,3.5-3.3
				c1.9,0,3.5,1.6,3.5,3.3v1.7c0-1.4,1.2-2.6,2.6-2.6s2.6,1.2,2.6,2.6c0,0,0,5,0,10.4s-5.4,11.1-5.4,14.8c-4.5,0-14.2,0-17.4,0
				c0-3.3-8.7-9.7-8.7-13.5V42c0-1.9,1.6-3.3,3.5-3.3v6.8c0,0.5,0.5,1,1.4,1c0.9,0,1.4-0.5,1.4-1v-9.7C41.3,34,42.7,32.6,44.3,32.6
				 M44.3,30c-3.1,0-5.6,2.6-5.6,5.7v0.3l0,0c-3.3,0-6.1,2.6-6.1,5.9v11.8c0,3,2.6,5.9,5.2,9c1.2,1.4,3.3,3.6,3.5,4.5V70h2.6h17.4
				h2.6v-2.6c0-1,1-3,1.9-4.7c1.6-3,3.3-6.4,3.3-10.1c0-5.4,0-10.4,0-10.4c0-2.8-2.3-5.2-5.2-5.2c-0.3,0-0.7,0-1,0.2
				c-1-1.6-3-2.8-5-2.8c-0.7,0-1.2,0.2-1.7,0.2c-1-1.7-3-2.8-5.2-2.8c-0.7,0-1.4,0.2-2.1,0.3C47.7,30.9,46,30,44.3,30L44.3,30z"/>
		</g>
	</g>
	<polygon class="st1" points="0,39.6 0,61.4 100,61.4 100,39.6 	"/>
	<g class="st1">
		<path d="M72.8,21v8.6h5.2v-11c0-1-0.5-1.9-1-2.4L59.5,0.5C59,0.5,58.1,0,57.1,0h-50C5.2,0,3.8,1.4,3.8,3.3v93.3
			c0,1.9,1.4,3.3,3.3,3.3h67.6c1.9,0,3.3-1.4,3.3-3.3V81.9h-5.2v12.9H9V5.2h47.1v15.2h16.7V21z"/>
		<g>
			<path d="M46.2,32.4c-0.5,0-1.4,0-2.9,0h-1.9v5.2h1.9c1.4,0,2.4,0,2.9-0.5c0.5,0,1-0.5,1-1c0.5-0.5,0.5-1,0.5-1.4
				c0-0.5,0-1.4-0.5-1.4C47.1,32.4,46.6,32.4,46.2,32.4z"/>
			<path d="M65.2,33.3c-0.5-0.5-1-1-1.9-1c-0.5,0-1.4,0-2.9,0h-1.9v12.4h2.9c1,0,1.9,0,2.4,0c0.5,0,1-0.5,1.4-1c0.5-1,1-1.4,1-2.4
				c0.5-1,0.5-1.9,0.5-3.3s0-2.4-0.5-3.3C66.2,34.3,65.7,33.3,65.2,33.3z"/>
			<path d="M91.4,20H30.9c-3.3,0-5.7,2.4-5.7,5.2V51c0,2.9,2.4,5.2,5.2,5.2h60.5c2.9,0,5.2-2.4,5.2-5.2V25.2
				C96.6,22.4,94.3,20,91.4,20z M51.4,37.6c-0.5,0.5-1,1.4-1.4,1.9c-1,0-1.4,0.5-1.9,0.5c-1,0-2.4,0.5-3.8,0.5h-2.9v7.1h-3.3V29h6.2
				c2.4,0,3.8,0,4.3,0.5c1,0.5,1.9,1,2.9,1.9c0,0.5,0.5,1.9,0.5,3.3C51.9,35.7,51.9,36.7,51.4,37.6z M70,42.4
				c-0.5,1.4-1,2.4-1.9,3.3c-0.5,0.5-1.4,1-2.4,1.4c-1,0.5-1.9,0.5-3.3,0.5h-7.1V29h6.7c1.4,0,2.9,0,3.3,0.5c1,0.5,1.9,1,2.9,1.9
				c1,1,1.4,1.9,1.9,2.9s0.5,2.4,0.5,4.3C70.4,40,70.4,41,70,42.4z M85.2,31.9h-9v4.3h7.6v3.3h-7.6v8.1h-3.8V29h12.9V31.9z"/>
		</g>
	</g>
	<g class="st1">
		<g>
			<polygon points="65.8,37.6 48.5,61 37.2,53.6 37.2,53.6 19.9,66.6 19.9,71 42.9,71 65.8,71 77.5,71 89.2,71 89.2,65.3 80.5,46.3 
							"/>
			<path d="M32.9,39.8c3.9,0,6.9-3,6.9-6.9s-3-6.9-6.9-6.9S26,29,26,32.9S29,39.8,32.9,39.8z"/>
			<path d="M100,80.5v-2.2V13.4c0-1.7-1.3-3-2.6-3h-3c-0.9-0.4-1.7-0.9-2.6-0.9l-13.4,0.9H11.7c-1.7,0-3,1.7-3,3v2.2L2.6,16
				C1.3,16.4,0,17.7,0,19.4l5.2,68.4c0,1.7,1.7,3,3,2.6L97,83.9C98.7,83.5,100,82.2,100,80.5z M13.9,20.3V16H68h22.5h3.9v54.5v5.6
				H13.9V20.3z M4.8,21.2l3.9-0.4v53.7L4.8,21.2z M9.1,80.9c0.4,0.9,1.3,1.3,2.2,1.3h39.4l-41.6,3L9.1,80.9z"/>
		</g>
	</g>
	<path class="st1" d="M80.2,24.1H56.4L74.7,5.8c1.1-1.1,1.1-3.3,0-5c-1.1-1.1-3.3-1.1-5,0L49.7,20.8L37,8c-1.1-1.1-3.3-1.1-5,0
		c-1.1,1.1-1.1,3.3,0,5l10.5,10.5H19.8c-6.6,0-12.7,6.1-12.7,13.3v42.1c0,7.2,5.5,12.7,12.7,12.7h7.8v5.5c0,1.7,1.1,2.8,2.8,2.8
		h39.3c1.7,0,2.8-1.1,2.8-2.8v-5.5h7.8c7.2,0,12.7-5.5,12.7-12.7V36.8C92.9,29.6,87.4,24.1,80.2,24.1z M86.3,78.9
		c0,3.3-2.8,6.1-6.1,6.1H20.4c-3.3,0-6.1-2.8-6.1-6.1V36.8c0-3.3,2.8-6.1,6.1-6.1h59.8c3.3,0,6.1,2.8,6.1,6.1L86.3,78.9L86.3,78.9z"
		/>
	<g class="st1">
		<circle cx="18.9" cy="29.4" r="7.8"/>
		<circle cx="50.2" cy="29.4" r="7.8"/>
		<circle cx="81.1" cy="29.4" r="7.8"/>
		<path d="M92.6,52.9c-0.8-7.4-5.8-13.2-11.5-13.2c-5.8,0-10.7,5.8-11.5,13.2h-8.2c-0.8-7.4-5.8-13.2-11.5-13.2s-10.7,5.8-11.5,13.2
			H30c-0.4-7.4-5.3-13.2-11.1-13.2S8.6,45.5,7.8,52.9H0v25.5h100V52.9H92.6z"/>
	</g>
	<path class="st1" d="M74.7,0c-3,0-5.5,0.8-7.6,2.1l0,0l0,0C62.4,4.7,59,9.7,59,15.7c0,0.4,0,1.3,0,1.7L23.4,39.8
		c-0.8,0.4-0.8,1.3-0.4,1.7l2.5,4.2c-3,1.7-10.2,6.4-13.1,11.4c-4.7,8.1-1.3,15.7,1.3,22c0.8,2.1,1.7,4.2,2.1,5.9
		c1.3,5.5,0,10.2-3.8,12.7c-0.4,0.4-0.4,1.3-0.4,1.7C12,100,12,100,12.4,100s0.4,0,0.8-0.4c4.7-3.4,6.4-8.9,4.7-15.3
		c-0.4-1.7-1.3-3.8-2.1-6.4c-2.5-5.9-5.1-12.7-1.3-19.5c2.5-4.7,9.3-8.9,11.9-10.6c0,0,2.6,4.1,3,4.7s0.9,0.5,1.7,0
		c0.8-0.5,20.8-13.1,20.8-13.1v28.4H36.5c-1.7,0-4,0.8-4,3.8s2.3,3.8,4,3.8h39.8c1.7,0,4-0.9,4-3.8s-2.3-3.8-4-3.8H61.1V34.3
		l7.2-4.7l0,0c2.1,0.8,4.2,1.3,6.4,1.3c3.4,0,6.4-0.8,8.9-3l0,0l0,0c3.8-3,6.4-7.6,6.4-12.7C90.3,6.8,83.1,0,74.7,0z M83.6,25.4
		l-14-22c1.7-0.8,3.4-1.3,5.5-1.3c7.2,0,13.1,5.9,13.1,13.1C87.8,19.5,86.1,22.9,83.6,25.4z M66.2,28.4l-7.6,4.7l-4.7,3l-1.3,0.8
		l-0.7,0.4L30.6,50.4l-2.5-4.2l-0.4-0.8l-2.1-4.2l34.3-21.6l0.4-0.4l1.7,2.5l1.7,2.5L66.2,28.4L66.2,28.4z M78.1,71.6
		c0,0.8-0.8,1.3-1.7,1.3H36.5c-0.8,0-1.7-0.4-1.7-1.3c0-0.8,0.8-1.3,1.7-1.3h16.5h6.8h16.5C77.2,70.3,78.1,70.7,78.1,71.6z
		 M58.6,67.8h-4.7V38.6l4.7-3V67.8z M67.9,26.7L62,17.4c0-0.4,0-1.3,0-1.7c0-4.7,2.1-8.5,5.9-11l14,22.5c-2.1,1.3-4.2,2.1-6.8,2.1
		C72.1,28.8,69.6,28,67.9,26.7z"/>
	<path class="st1" d="M42.1,69.2l27.2-27.4c7.9,3.5,17.8,2,24.3-4.5c7.4-7.5,8.4-18.4,3-27.4l-4,10.9l-7.4,7.5l-11.4-2.5l0,0
		l-2.5-10.9l7.4-7.5l10.9-4C81.2-2,69.8-1,62.4,6.5c-6.4,6.5-7.9,16.4-4.5,24.4L30.7,58.2c-7.9-3.5-17.8-2-24.3,4.5
		C-1,70.2-2,81.6,3.5,90.1l4-10.9l7.9-8l11.4,2.5l0,0l2.5,11.4l-7.4,7.5l-11.4,4c8.4,5.5,19.8,4.5,27.2-3
		C44.6,87.1,45.5,77.6,42.1,69.2z"/>
	<g class="st1">
		<polygon points="83.6,35.4 66.7,35.4 66.7,2.1 32.3,2.1 32.3,35.4 16.9,35.4 50.3,68.7 		"/>
		<polygon points="83.6,64.6 83.6,81.5 16.9,81.5 16.9,64.6 0,64.6 0,97.9 100,97.9 100,64.6 		"/>
	</g>
	<g class="st1">
		<path d="M46.5,68.9c4.4,0,7.9,3.5,7.9,7.9s-3.5,7.9-7.9,7.9s-7.9-3.5-7.9-7.9S42.1,68.9,46.5,68.9 M46.5,64.5
			c-6.6,0-12.3,5.3-12.3,12.3S39.5,89,46.5,89s12.3-5.3,12.3-12.3C58.8,69.7,53.1,64.5,46.5,64.5L46.5,64.5z"/>
		<path d="M28.5,24.1v15.4H7V24.1H28.5 M28.1,20.2H7c-2.2,0-3.9,1.8-3.9,3.9v15.4c0,2.2,1.8,3.9,3.9,3.9h21.1c2.2,0,3.9-1.8,3.9-3.9
			V24.1C32.5,21.9,30.7,20.2,28.1,20.2L28.1,20.2z"/>
		<path d="M60.5,24.1v15.4H39.5V24.1H60.5 M60.5,20.2H39.5c-2.2,0-3.9,1.8-3.9,3.9v15.4c0,2.2,1.8,3.9,3.9,3.9h21.1
			c2.2,0,3.9-1.8,3.9-3.9V24.1C64.9,21.9,62.7,20.2,60.5,20.2L60.5,20.2z"/>
		<path d="M82,24.1L86,45.2v21.1h-14V24.1H82 M82,20.2H71.9c-2.2,0-3.9,1.8-3.9,3.9v42.5c0,2.2,1.8,3.9,3.9,3.9h14
			c2.2,0,3.9-1.8,3.9-3.9V45.2c0-0.4,0-0.4,0-0.9L86,23.2C85.5,21.5,83.8,20.2,82,20.2L82,20.2z"/>
		<path d="M93,20.2c-0.9-5.3-4.8-9.2-10.1-9.2H0v3.9h3.9H7h75.9c3.1,0,5.7,3.1,6.1,5.7l6.1,29.8v19.7c0,1.3-0.9,2.2-2.2,2.2H65.4
			C63.6,63.2,55.7,57,46.5,57s-16.7,6.6-18.9,15.8H7H3.9H0v3.9h31.6c0-7.9,7-15.4,15.4-15.4s15.4,7,15.4,15.4h31.6
			c3.5,0,6.1-2.6,6.1-6.1c0-1.8,0-20.2,0-20.2L93,20.2z"/>
	</g>
	<g class="st1">
		<g>
			<path d="M98.2,43.8c-0.4,0-1.2-0.4-1.5-0.8c-10-15.4-26.6-24.3-47-24.3S13.1,27.7,3.1,43.1c-0.4,0.8-1.5,1.2-2.3,0.4
				c-0.8-0.4-1.2-1.5-0.4-2.3c10.8-16.6,28.5-25.8,49.7-25.8S89,24.6,99.7,41.1c0.4,0.8,0.4,1.9-0.4,2.3
				C99,43.8,98.6,43.8,98.2,43.8z"/>
		</g>
		<g>
			<path d="M17,55.8c-0.4,0-0.8,0-0.8-0.4C15,55,15,53.8,15.4,53.1c7.7-11.5,19.6-17.7,34.6-17.7S77,41.9,84.3,53.1
				c0.4,0.8,0.4,1.9-0.4,2.3S82,55.8,81.7,55c-6.9-10.4-18.1-16.6-31.6-16.6s-24.6,5.8-31.6,16.2C18.1,55.4,17.4,55.8,17,55.8z"/>
		</g>
		<g>
			<path d="M68.9,68.1c-0.4,0-1.2-0.4-1.5-0.8c-3.8-5.8-10-8.9-17.3-8.9s-13.5,3.1-17.3,8.9c-0.4,0.8-1.5,1.2-2.3,0.4
				c-0.8-0.4-1.2-1.5-0.4-2.3C34.3,58.9,41.6,55,50.5,55c8.5,0,15.8,3.8,20.4,10.4c0.4,0.8,0.4,1.9-0.4,2.3
				C69.3,68.1,68.9,68.1,68.9,68.1z"/>
		</g>
		<g>
			<path d="M49.7,84.6c-4.6,0-8.1-3.5-8.1-8.1s3.5-8.1,8.1-8.1s8.1,3.5,8.1,8.1S53.9,84.6,49.7,84.6z M49.7,71.9
				c-2.7,0-4.6,2.3-4.6,4.6c0,2.7,2.3,4.6,4.6,4.6c2.7,0,4.6-2.3,4.6-4.6C54.3,73.9,52,71.9,49.7,71.9z"/>
		</g>
	</g>
	<path class="st1" d="M49.7,0.3c-15,0-40,2.2-40,10.6v17.8l0,0l0,0c0,3.9,5.6,6.7,12.8,8.3L9.7,97.5c0,1.1,0.6,2.2,1.7,2.8
		c0,0,0,0,0.6,0c1.1,0,1.7-0.6,2.2-1.7l12.8-61.1c6.7,1.1,14.4,1.7,20.6,1.7v36.7c0,1.1,1.1,2.2,2.2,2.2s2.2-1.1,2.2-2.2V39.2
		c6.7,0,13.9-0.6,20-1.7l12.8,61.1c0,1.1,1.1,1.7,2.2,1.7c0,0,0,0,0.6,0c1.1,0,1.7-1.1,1.7-2.8L76.4,37c5.6-1.1,9.4-2.8,11.7-5
		c1.1-1.1,1.7-2.2,1.7-3.3l0,0V10.9C89.7,2.5,64.7,0.3,49.7,0.3z M49.7,4.7c22.2,0,34.4,3.9,35.6,6.1C84.1,12.5,71.9,17,49.7,17
		s-34.4-4.4-35.6-6.1l0,0C15.3,8.6,27.5,4.7,49.7,4.7z M73.6,32.5L73.6,32.5c-0.6,0-0.6,0-0.6,0c-6.1,1.1-13.9,1.7-23.3,1.7
		c-10,0.6-18.3-0.6-23.9-1.7l0,0l0,0c-7.2-1.1-11.1-2.8-11.1-3.9V16.4c8.3,3.9,24.4,5,35.6,5s27.8-1.1,35.6-5v12.2
		C84.7,29.7,80.8,31.4,73.6,32.5z"/>
	<path class="st1" d="M50,0C35,0,10,2.2,10,10.6v17.8l0,0l0,0c0,3.9,5.6,6.7,12.8,8.3L10,97.2c0,1.1,0.6,2.2,1.7,2.8c0,0,0,0,0.6,0
		c1.1,0,1.7-0.6,2.2-1.7l12.8-61.1c6.7,1.1,14.4,1.7,20.6,1.7v36.7c0,1.1,1.1,2.2,2.2,2.2s2.2-1.1,2.2-2.2V38.9
		c6.7,0,13.9-0.6,20-1.7L85,98.3c0,1.1,1.1,1.7,2.2,1.7c0,0,0,0,0.6,0c1.1,0,1.7-1.1,1.7-2.8L76.7,36.7c5.6-1.1,9.4-2.8,11.7-5
		c1.1-1.1,1.7-2.2,1.7-3.3l0,0V10.6C90,2.2,65,0,50,0z M50,4.4c22.2,0,34.4,3.9,35.6,6.1c-1.1,1.7-13.3,6.1-35.6,6.1
		s-34.4-4.4-35.6-6.1l0,0C15.6,8.3,27.8,4.4,50,4.4z M73.9,32.2L73.9,32.2c-0.6,0-0.6,0-0.6,0c-6.1,1.1-13.9,1.7-23.3,1.7
		c-10,0.6-18.3-0.6-23.9-1.7l0,0l0,0C18.9,31.1,15,29.4,15,28.3V16.1c8.3,3.9,24.4,5,35.6,5s27.8-1.1,35.6-5v12.2
		C85,29.4,81.1,31.1,73.9,32.2z"/>
</g>
<g id="home" class="st0">
	<path d="M22.5,0v100h55V0H22.5z M50,94.1c-2.2,0-4-1.8-4-4c0-2.2,1.8-4,4-4s4,1.8,4,4C54,92.3,52.2,94.1,50,94.1z M70.8,81.7H29.2
		v-75h41.7V81.7z"/>
	<g>
		<g class="st1">
			<rect y="7.1" width="100" height="8.6"/>
		</g>
		<g class="st1">
			<rect y="32.9" width="100" height="8.6"/>
		</g>
		<g class="st1">
			<rect y="58.6" width="100" height="8.6"/>
		</g>
		<g class="st1">
			<rect y="84.3" width="50" height="8.6"/>
		</g>
	</g>
	<g>
		<g class="st1">
			<g>
				<path d="M64.6,33v13.3c0,2.8-3.4,13-15.8,13c-12.4,0-15.9-10.6-15.9-13.4V33v-0.8V13.4C32.9,10.6,36.5,0,48.8,0
					c12.4,0,15.8,10.2,15.8,13v19.1V33z"/>
			</g>
		</g>
		<g class="st1">
			<rect x="31.2" y="90" width="38.4" height="10"/>
		</g>
		<g class="st1">
			<g>
				<path d="M50.3,78.6c-23.7,0-33.3-17.2-33.3-24.4v-7.8h8.6v7.8c0.1,2,5.3,15.8,24.8,15.8c19.3,0,24.5-13.3,24.5-15.2v-8.4h8.6
					v8.4C83.4,61.8,73.8,78.6,50.3,78.6z"/>
			</g>
		</g>
	</g>
	<polygon points="100,14.2 85.8,0 50,35.8 14.2,0 0,14.2 35.8,50 0,85.8 14.2,100 50,64.2 85.8,100 100,85.8 64.2,50 	"/>
	<path d="M88.4,0L67.3,4.4v31.3c-4.8-6.2-11.5-9.1-20.2-9.1c-9.1,0-17.3,3.3-24,9.9C15.6,43.8,11.6,53,11.6,63.3
		c0,11.2,4.3,20.9,12.6,28.3c6.3,5.6,13.8,8.4,22.5,8.4c8.6,0,15-2.3,21.3-8.4v8h20.5V0z M51.3,80.8c-10.8,0-18.6-7.6-18.6-17.7
		c0-9.6,7.8-17.8,17.8-17.8c9.9,0,17.5,7.8,17.5,18.1C68.1,73.3,60.4,80.8,51.3,80.8"/>
	<g>
		
			<rect x="70.9" y="3.6" transform="matrix(0.6859 -0.7277 0.7277 0.6859 13.6948 64.2559)" class="st1" width="20.8" height="25.3"/>
		<path class="st1" d="M59.8,20.6L5.2,78.5L2.4,100l21.3-4.2l54.6-57.9L59.8,20.6z M60.1,31.1l7.6,7.1L19.9,89l-0.3,0.1l-7.3-6.9
			l0-0.3L60.1,31.1z"/>
	</g>
	<path d="M73.5,0c0,0-9.6,0-16,0C48,0,37.4,4,37.4,17.7c0,4.8,0,9.4,0,14.5h-11v17.5h11.3V100h20.8V49.4h13.7l1.2-17.2H58.2
		c0,0,0-7.6,0-9.9c0-5.4,5.7-5.1,6-5.1c2.7,0,7.9,0,9.3,0L73.5,0L73.5,0C73.5,0,73.5,0,73.5,0z"/>
	<g>
		<polygon class="st1" points="50,81.2 0,31.2 12.4,18.8 50,56.4 87.6,18.8 100,31.2 		"/>
	</g>
	<g>
		<polygon class="st1" points="31.2,100 18.8,87.6 56.4,50 18.8,12.4 31.2,0 81.2,50 		"/>
	</g>
	<g>
		<polygon class="st1" points="87.6,81.2 50,43.6 12.4,81.2 0,68.8 50,18.8 100,68.8 		"/>
	</g>
	<path d="M87.1,0H12.9C6,0,0.4,5.6,0.4,12.5v75C0.4,94.4,6,100,12.9,100h74.1c6.9,0,12.5-5.6,12.5-12.5v-75C99.6,5.6,94,0,87.1,0z
		 M70.4,50c0,11.2-9.1,20.4-20.4,20.4c-11.2,0-20.4-9.1-20.4-20.4c0-3.4,0.8-6.6,2.3-9.4c3.4-6.5,10.2-11,18.1-11
		c7.9,0,14.7,4.5,18.1,11C69.5,43.4,70.4,46.6,70.4,50z M88.4,83.7c0,2.8-2.3,5.1-5.1,5.1H17.2c-2.8,0-5.1-2.3-5.1-5.1V40.6h8.5
		c-0.9,3-1.5,6.1-1.5,9.4c0,17.1,13.9,31,31,31s31-13.9,31-31c0-3.3-0.5-6.4-1.5-9.4h8.9L88.4,83.7L88.4,83.7L88.4,83.7z M88.4,24.5
		c0,2.8-2.3,5.1-5.1,5.1h-7.8c-2.8,0-5.1-2.3-5.1-5.1V16c0-2.2,1.5-4.1,3.5-4.8h9.4c2.8,0,5.1,2.3,5.1,5.1L88.4,24.5
		C88.4,24.5,88.4,24.5,88.4,24.5z"/>
	<g>
		<g class="st1">
			<path d="M20.6,28.1c0.6,0.4,2.1,0.6,3.6,0.4C23.4,29.1,21,29,20.6,28.1z"/>
			<path d="M25.2,23.4c1.3,0.2,2.6,0.3,3.9,0.6c-0.1,1.3-3.6,1.6-4.1,2.6c0,0.2,0.4,0.2,0.4,0c0.1,0.1-2.8,1.2-0.8,1.1
				c-0.9,0.2-1.7,0.2-2.6,0c0-0.3,0.4-0.5,0.7-0.6c0.2-1.1-1.6-0.1-1.9-0.4c-0.1-0.7,0,0-0.6-0.8c0.3-0.2,0.4-0.4,0.6-0.7
				c1.1,0,1.9,2.5,3.2,1.2c-0.4-0.2-0.9-0.3-1.2-0.6c0.3-0.3,1.3,0,1.7-0.3c-0.8-0.5-1.7-0.7-2.6-0.7C22.4,24.4,24.2,23.4,25.2,23.4
				C26.7,23.6,25.1,23.4,25.2,23.4z"/>
			<path d="M35.7,23.4c0.9,0,3.3,0,4.3,0.7c-1.1,0.3-2.3,0.5-3,1.1c0.7,0.3,5.3-0.1,6.1-0.4c-1.7,1.6-3,1.6-1.8,4
				c-0.4-0.1-0.5,0-0.4,0.3c-0.7,1.1-2.9-0.7-0.3,1.4c0.3-0.5-1.5,0.5-1.4,0.4c0.2,0.3,0.6,0.4,1,0.3c-0.9,0.7-3.3,0-3.5,1.7
				c-1.9-0.1-1.5,2-2.8,2.8c-1.3-0.6-2.6-4-1.9-4.8c1.4-1.5-4.2-2.5-4.8-2.8c0.1-0.7,1.3-0.7-0.7-0.8c0.9-0.1,1.7-0.5,2.2-1.2
				c0.1-0.2-0.8-0.2-0.7,0C30.4,23.8,34.3,24.9,35.7,23.4C35.8,23.4,35.5,23.6,35.7,23.4z"/>
			<path d="M59.3,32.6c0.4,0.1,6.5-0.5,6.9-0.7c0.1-0.5-1.3-2.4,0.7-2.1c-0.3,1.9-0.1,1.7-1,2.8c-0.1,1.6,1.8-0.6,1.9-0.7
				c0.3,0.4,0.7,0.7,1.1,0.8c0.1-1.4-2.2-1-1.4-2.6c0.2,0.5,0.6,0.7,1.1,0.7c-1.2-0.2,1.8,0.2,1.4,0.3c0.7-0.9-1-1.1-0.6-1.7
				c2.8,0,5.4-2.1,8.9-1.4c0,0.4-0.2,0.6-0.6,0.7c0.3,1.2,2,0.8,2.8,0.9c4.6,0.2,0,0.7,3,1.4c1-1,3.5-0.9,3.9-0.4
				C89.4,29.6,98.6,32,100,33c-1.6,0.4-2.3,0.2-3.9,0.4c0.2,0.5,0.4,0.8,0.8,1.1c-1.2,0.3-2.7,0.6-3.7,1c-1.2,0.4-0.9,3.8-2.6,3.6
				c-0.9-2.7,2.3-2.8,2.4-4.6c-1.7,0.4-7,1.3-8.3,3.5c0.5,1.4,2.6,0.9,0.6,3.6c-0.4,0.9-1.1,1.4-2,1.4c-0.7,0.8-0.1,2.4-0.7,2.7
				c-0.4-1.4-1.4-3.3-2.9-1.4c0,0.4,0.9,2.2,1.1,3.6c-0.7,2.2-3.2,1.8-4.6,3.2c0.7,0.7,1.7,3,0,3.5c-0.3-1.4-0.9-1.6-1.7-0.7
				c-0.9-2.4-0.7-1.7-2.2-3.9c-2.2,0.7-3.5,2.4-3.7,4.7c-1.8-1.8-0.9-4.2-2.6-5.1c-0.9-0.5-4.9-2.4-5.9-2.3
				c-0.1,0.9,1.6,3.8,2.2,1.8c1.3,2.4-0.8,3.1-3.3,4c-0.6-1.8-1.3-4.5-3-5.5c-1.5,2.5,3.4,6.2,5,6.4c0.1,3.1-4.3,3.5-3.2,7.1
				c0.4,1.3-1.9,6.4-3,7.4C49.8,73,50.9,56.8,48.4,56c-2.9-0.9-4.9,0.8-6.5-3.1c0.7-1.4-0.2-2.6,1-3.9c0.6-0.6,1.9-2.5,2.1-3.3
				c4.4,0.9,3.4-0.8,6.9,1.8c1.3,0,5.6,0.2,5-2.6c-1.4,0.3-2.7,0.5-2.5-1c1.2-1.3,2.9,0.2,4.2-0.7c0-0.5-0.8-1.5-1-2.1
				c-1.8-0.4-2.5,1.9-4.4,2.6c0.2,0.4,0.2,0.7,0.1,1.1c-0.7-0.9-1.6-2.6-2.9-3.3c-0.8,0.8,0.7,1.7,1.1,2.2c-2,0.2-2.1-3-4.3-0.4
				c-1.5,1.9-2.9,2.3-2.9-0.7c1.2,0.5,3.4-0.7,1.5-1.8c0.8-0.3,3.5-1.9,3.6-2.8c1.8,1.3,3.4-0.6,4.3-0.8c0-0.4-0.1-0.7-0.1-1.1
				c0.6,0.1,1.2,0,1.7-0.4c-0.7-0.3-1.5-0.3-2.2-0.1c0-0.9,0.3-1.6,1-2.1c0-0.3-0.2-0.4-0.4-0.6c-1,0.8-2.8,3.6-2.9,4.6
				c-0.3-0.5-0.6-1.1-0.8-1.7c-0.3,0.3-0.8,0.5-1.2,0.6c0.4-3.2,6.5-8.4,9.5-3.7c-0.7,0.2-1.4,0.1-2.1-0.1
				C55.5,34.9,59,33.9,59.3,32.6C60.5,32.8,59.1,33.4,59.3,32.6z"/>
			<path d="M28.8,41.7c-3.3,0-4.8,4.7-4.7,7.3c-1-0.3-0.2-1.6-1.5-1.7c-1.5-0.1-0.3,0.4-2.3,0.3c-1.8-0.1-1.3,2.5-0.9,3.3
				c1.1,1.8,1.7-0.4,2.7-0.4c-0.3,0.8,0.7,4.1,1.9,4.2c-0.9,0.1-4.4-2.4-5.4-2.8c-1.9-0.8-2.9-3.2-4-4.9c-0.5,0.4,0.6,2.5,0.7,2.5
				c-1.8,0-4-7.4-2.9-8.3c-0.9-3.6-5-6-7.9-5.3c-1.1-0.5-0.2,0.8-2.1,1.2c0.9,0.3-2.1-2-2.1-1.9c0.6-0.4,1-1,1.2-1.7
				C0.9,34,0.4,33.9,0,33.1c0.5,0,1,0,1.5,0c-0.4-0.5-0.8-1-1.2-1.4c2.9-2.2,6.4-0.1,8.7,0.8c0.8,0.1,5.5-2.1,7.2,0.3
				c0-1,3.3-1.3,4-1.4c0-0.2-0.2-0.7-0.1-1c0.6,0.1,2,1.8,2.1,2.1c0.5-0.2,0.8-0.6,0.8-1.1c1.8-0.1-0.4,1.7-1.5,1.8
				c-0.1,0.7-1.4,1.4-1.5,3c1.3,1,3.2,3.2,4.3,3.6c0.6-1.6,0.9-3.3,0.7-5c1.7-0.8,1.8,1.1,2.4,1.8c0.5-0.1,0.9-0.3,1.1-0.7
				c1,1.3,1.4,1.6,1.2,2.6c0.4,0.2,0.7,0.2,1.1,0c0.1,0.2,0.1,0.5,0.1,0.7c-1.1,0.6-3.7,0.1-4,1.8c0.5-0.2,1-0.4,1.5-0.6
				c-0.2,0.1,0.2,1.4,0.1,1.7C28.1,42.1,28.8,41.9,28.8,41.7C27.9,41.7,28.8,41.9,28.8,41.7z"/>
			<path d="M25.5,73.9c0.4-2.1,3-9.2,0.7-10.7c-3.5-2.3,0.2-7.3-1.7-8.5c0.8-2.5,7.3,0.8,7.2,3.5c1.8,1.1,5.6-0.7,4.2,3.3
				c-0.5,1.5-3.7,8.4-5.7,7.8c-0.2,1.4,0,2-2.1,2.4c-0.1,1.8-0.9,3.1-1.5,5C25.8,75.8,26.3,74.2,25.5,73.9
				C25.5,73.8,25.8,74,25.5,73.9z"/>
			<path d="M85.5,68.7c-1.5-0.3-4.2,1.1-6.2,0.8c-0.1-3.7-1.7-2.9,1.3-5.3c1.7-1.4,2.3-1,3.2-2.7c2.3,0.4-0.1,1.6,2.2,2.4
				c0.4-0.7,0.7-1.4,0.7-2.2c1.8,2.8,3.7,5,2.1,8.4C88,71.9,85,70.6,85.5,68.7C84.9,68.6,85.2,69.8,85.5,68.7z"/>
		</g>
	</g>
	<path d="M0,14.8v70.5h100V14.8H0z M40.4,49.4L4.5,76.3V22.4L40.4,49.4z M90.3,78.4h-81l34.9-26.2c0,0,2,1.7,2.8,2.1
		c0.6,0.3,1.9,0.7,2.8,0.7s2.2-0.3,2.8-0.7c0.8-0.4,2.8-2.1,2.8-2.1 M47.9,49.4l-3.8-2.8L7.9,19.3h83.8L55.4,46.6l-3.8,2.8
		c0,0-0.8,0.6-1.9,0.6S47.9,49.4,47.9,49.4 M47.9,49.4 M59.2,49.4l36.3-27.2v54.5L59.2,49.4z"/>
	<g>
		<path class="st1" d="M34.5,98.9c-0.8,0.3-1.7,0.5-2.5,0.6C32.8,99.4,33.6,99.2,34.5,98.9z"/>
		<path class="st1" d="M73.8,64c-1.8,1.8-3.8,3.3-6,4.5C70,67.3,72,65.8,73.8,64z"/>
		<path class="st1" d="M82.3,1.5c2.2,0.8,4.4,1.9,6.3,3.3C86.7,3.4,84.6,2.3,82.3,1.5z"/>
		<path class="st1" d="M93.4,44.3c-0.4,0.4-0.8,0.9-1.2,1.3C92.6,45.2,93,44.7,93.4,44.3z"/>
		<path class="st1" d="M97.2,14.7c0.4,0.8,0.7,1.6,1.1,2.4C97.9,16.2,97.6,15.5,97.2,14.7z"/>
		<path class="st1" d="M96.1,40.5c0.1-0.1,0.2-0.2,0.2-0.4C96.3,40.3,96.2,40.4,96.1,40.5c3.2-5.3,4.5-11.7,3.6-17.8
			C97,4.2,75.5-5.9,59.5,3.8c-4.1,2.5-7.4,6.3-10.8,9.7c-2.9,2.9-5.7,5.7-8.6,8.6c4.1-0.6,8.2-0.5,12.2,0.4c0.5,0.1,4.2,1.5,4.4,1.3
			c0.4-0.4,0.8-0.8,1.2-1.2c2.5-2.5,4.8-5.4,7.8-7.4c6.3-4.2,15.1-2.3,19.2,4.1c3.2,5,2.6,11.6-1.1,16.1c-0.1,0.1-0.1,0.2-0.2,0.2
			c-0.2,0.3-0.5,0.6-0.8,0.8C77.7,41.7,72.4,47,67.2,52.2c-2.4,2.4-4.7,4.9-8.1,6c-7.4,2.3-15.5-2.1-17.5-9.6
			c-2.7,1.5-4.8,4.4-7,6.6c-1,1-2,2-3,3c0,0,0,0.1-0.1,0.1c0,0,0,0,0-0.1c0,0,0,0,0,0.1c-0.2,0.6,1.3,2.5,3,4.2
			c0.5,0.5,0.9,1,1.4,1.5c-0.5-0.5-1-1-1.4-1.5c1.3,1.3,2.6,2.6,3.3,3.2c-0.6-0.5-1.3-1.1-1.8-1.7c0.6,0.6,1.2,1.1,1.9,1.7
			c0.2,0.1,0.3,0.3,0.4,0.3c0.1,0.1,0.2,0.2,0.3,0.2c0.4,0.3,0.9,0.7,1.4,1c0.2,0.1,0.3,0.2,0.5,0.3c0.6,0.4,1.3,0.8,1.9,1.1
			c-0.7-0.3-1.3-0.7-1.9-1.1c10.4,6.7,24.6,5.2,33.4-3.7c5-5,10.1-10.1,15.1-15.1c2.2-2.2,4.5-4.3,6.3-6.9c-0.6,0.9-1.2,1.7-1.9,2.5
			c0.7-0.8,1.3-1.6,1.9-2.5c0,0,0,0,0,0c0,0,0,0,0,0c0.1-0.2,0.3-0.4,0.4-0.7C95.9,40.9,96,40.7,96.1,40.5z M38.6,66.2
			c0.4,0.3,0.9,0.7,1.3,1C39.5,66.9,39,66.6,38.6,66.2z M83.8,35.5c-0.1,0.1-0.1,0.1-0.2,0.2C83.7,35.6,83.8,35.5,83.8,35.5z
			 M95.3,41.8c0.1-0.2,0.3-0.4,0.4-0.6C95.6,41.3,95.5,41.5,95.3,41.8z"/>
		<path class="st1" d="M41.2,78.5c-0.8,0-2.2,2-2.7,2.5c-1.3,1.3-2.6,2.8-4.2,3.8c-5.5,3.7-13,2.8-17.6-2c-0.1-0.1-0.2-0.2-0.3-0.3
			c0.1,0.1,0.2,0.2,0.3,0.3c-0.1-0.1-0.2-0.2-0.3-0.4c-0.2-0.2-0.4-0.4-0.5-0.6c0,0,0,0,0,0c-3.4-4.4-3.8-10.5-1.1-15.2
			c0,0,0,0,0-0.1c0.2-0.4,0.4-0.7,0.6-1c0,0,0,0,0,0c0.2-0.3,0.5-0.6,0.7-0.9c0.1-0.1,0.1-0.2,0.2-0.3c1.9-2.2,4.1-4.2,6.1-6.2
			c4.3-4.3,8.6-8.6,12.8-12.9c6.3-6.3,17-4.7,21.4,2.6c0.1,0.1,0.2,0.3,0.3,0.4c0.2,0.4,0.4,0.8,0.6,1.3c0,0,0,0.1,0.1,0.1
			c0,0,0-0.1-0.1-0.1c0,0,0,0.1,0.1,0.1c2.5-2.6,5.1-5.1,7.6-7.7c1.4-1.4,2.1-1.5,1.2-2.8c0.2,0.3,0.4,0.6,0.6,0.9
			c-0.2-0.3-0.4-0.6-0.7-0.9c-0.1-0.2-0.3-0.4-0.5-0.7c-0.4-0.5-0.7-0.9-1.1-1.4c0-0.1-0.1-0.1-0.1-0.2c0,0.1,0.1,0.1,0.1,0.2
			c-1.9-2.2-4.2-4.1-6.8-5.5c-2.6-1.5-5.4-2.5-8.4-3c0.2,0,0.3,0,0.5,0.1c-0.4-0.1-0.9-0.2-1.3-0.2c0,0,0,0,0,0c0,0,0,0,0,0
			c-0.2,0-0.4-0.1-0.7-0.1c-0.2,0-0.4,0-0.7-0.1c-0.2,0-0.4,0-0.7-0.1c-0.1,0-0.1,0-0.2,0c0.1,0,0.3,0,0.4,0c0.2,0,0.3,0,0.5,0.1
			c-0.4,0-0.8-0.1-1.3-0.1c0.1,0,0.2,0,0.3,0c-0.3,0-0.6,0-0.9,0c-0.1,0-0.1,0-0.2,0c-0.2,0-0.5,0-0.7,0c0.1,0,0.3,0,0.4,0
			c-1.4,0-2.7,0.1-4.1,0.2c0.1,0,0.2,0,0.4-0.1c-0.2,0-0.4,0.1-0.7,0.1c-0.1,0-0.2,0-0.3,0c-0.1,0-0.2,0-0.3,0
			c-0.2,0-0.5,0.1-0.7,0.1c-0.2,0-0.4,0.1-0.6,0.1c-0.1,0-0.2,0.1-0.3,0.1c0.1,0,0.3-0.1,0.4-0.1c-0.3,0.1-0.6,0.1-0.9,0.2
			c0.2,0,0.3-0.1,0.5-0.1c-0.2,0-0.4,0.1-0.5,0.1c0,0-0.1,0-0.1,0c0,0,0,0,0,0c-0.1,0-0.2,0-0.3,0.1c-0.2,0-0.3,0.1-0.5,0.1
			c0.2-0.1,0.5-0.1,0.7-0.2c-5.7,1.5-10,4.9-14,9c-4.5,4.5-8.9,8.9-13.4,13.4c-4.1,4.1-7.8,8.3-9.6,14C-1,72.8,0,80.8,3.9,87.3
			c0.5,0.8,1,1.5,1.6,2.3c-0.1-0.1-0.2-0.2-0.2-0.3c0.1,0.1,0.2,0.2,0.2,0.3c0.1,0.1,0.2,0.2,0.3,0.4c0.2,0.3,0.5,0.6,0.8,0.9
			c0,0,0,0.1,0.1,0.1c0.1,0.1,0.2,0.3,0.3,0.4c-0.1-0.1-0.2-0.2-0.3-0.4c9,10.2,24.9,12.1,36,3.9c0,0,0,0,0,0c0,0,0,0,0,0
			c0.2-0.2,0.5-0.4,0.7-0.6c0.1-0.1,0.3-0.2,0.4-0.3c0.1-0.1,0.2-0.1,0.2-0.2c5.5-4.7,10.3-10.2,15.4-15.3
			C53.3,78.4,47.2,78.5,41.2,78.5z M56.8,47.8c0.1,0.1,0.2,0.3,0.3,0.4C57,48.1,56.9,48,56.8,47.8z M48.7,28.5
			c0.2,0,0.4,0.1,0.5,0.1c-0.2,0-0.4-0.1-0.7-0.1C48.6,28.5,48.7,28.5,48.7,28.5z M39.8,28.8C39.8,28.8,39.8,28.8,39.8,28.8
			C39.8,28.7,39.9,28.7,39.8,28.8c0.2,0,0.3,0,0.4-0.1c-0.2,0-0.4,0.1-0.6,0.1C39.6,28.8,39.7,28.8,39.8,28.8z M15.4,65.5
			C15.4,65.5,15.4,65.5,15.4,65.5C15.4,65.5,15.4,65.5,15.4,65.5z M16.4,64.3c-0.1,0.1-0.1,0.2-0.2,0.2c0,0,0,0,0,0
			C16.3,64.4,16.3,64.4,16.4,64.3z M5.8,89.9c0.2,0.3,0.5,0.6,0.7,0.9C6.2,90.5,6,90.2,5.8,89.9z M15.9,81.9
			C15.9,81.9,15.9,81.9,15.9,81.9C15.9,81.9,15.9,81.9,15.9,81.9z"/>
		<path class="st1" d="M37.3,29.4c-0.4,0.1-0.8,0.3-1.2,0.4c0.5-0.2,0.9-0.3,1.4-0.4c0.2,0,0.3-0.1,0.5-0.1c-0.2,0-0.3,0.1-0.5,0.1
			C37.4,29.4,37.3,29.4,37.3,29.4z"/>
		<path class="st1" d="M33.3,31c-0.3,0.1-0.5,0.3-0.8,0.4c0.5-0.3,1-0.5,1.5-0.8C33.8,30.7,33.5,30.8,33.3,31z"/>
	</g>
	<path d="M96.7,25h-10v10c0,1.8-1.5,3.3-3.3,3.3c-1.8,0-3.3-1.5-3.3-3.3V25H70c-1.8,0-3.3-1.5-3.3-3.3c0-1.8,1.5-3.3,3.3-3.3h10v-10
		C80,6.5,81.5,5,83.3,5c1.8,0,3.3,1.5,3.3,3.3v10h10c1.8,0,3.3,1.5,3.3,3.3C100,23.5,98.5,25,96.7,25z M58.5,61.6l-10.7-8.7
		C46.4,52.3,45,51.2,45,50l0-0.3c0-0.4,0-0.9,0.1-1.3l1.5-20c0-1.8,1.5-3.3,3.3-3.3s3.3,1.5,3.3,3.3l1.4,18.1l8.5,10.4
		c1.3,1.3,1.3,3.4,0,4.7C61.9,62.9,59.8,62.9,58.5,61.6z M61.4,8.2L61.4,8.2C57.8,7.2,54,6.7,50,6.7C26.1,6.7,6.7,26.1,6.7,50
		c0,23.9,19.4,43.3,43.3,43.3S93.3,73.9,93.3,50c0-2.2-0.2-4.4-0.5-6.5l0.1,0c-0.1-0.3-0.1-0.5-0.1-0.8c0-1.8,1.4-3.4,3.3-3.4
		c1.8,0,3.4,1.4,3.4,3.3c0,0,0,0.1,0,0.1c0.4,2.4,0.6,4.8,0.6,7.3c0,27.6-22.4,50-50,50S0,77.6,0,50C0,22.4,22.4,0,50,0
		c4.3,0,8.4,0.6,12.4,1.6c0.3,0,0.7,0.1,1,0.2c1.7,0.7,2.5,2.7,1.8,4.4C64.5,7.7,63,8.5,61.4,8.2z"/>
	<path d="M50,0C22.4,0,0,22.4,0,50c0,27.6,22.4,50,50,50c27.6,0,50-22.4,50-50C100,22.4,77.6,0,50,0z M68.6,81.4L45.2,55.3L43.1,50
		V24.5h10.7v24.4l22.8,25.4L68.6,81.4z"/>
	<g>
		<path class="st1" d="M77.4,32.5c0,15.9-12.9,28.7-28.7,28.7C32.8,61.2,20,48.4,20,32.5C20,16.7,32.8,3.8,48.7,3.8
			C64.5,3.8,77.4,16.7,77.4,32.5z"/>
		<path class="st1" d="M100,96.2c-7.8-24.4-29.9-32.7-29.9-32.7c-7,7.5-21.9,8.1-21.9,8.1S34.5,71,27.5,63.5c0,0-19.7,8.3-27.5,32.7
			h47.7H100z"/>
	</g>
	<g>
		<g class="st1">
			<path d="M49.9,22.7c-27.7,0-50,12.3-50,27.3c0,14.9,22.1,27.3,50,27.3c27.8,0,50-12.3,50-27.3C99.9,35.1,77.6,22.7,49.9,22.7z
				 M49.9,75.9C24.4,75.9,2.5,64.1,2.5,50c0-14.1,22.3-26.1,47.3-26.1c25.4,0,47.3,12.1,47.3,26.1S75.2,75.9,49.9,75.9z"/>
			<path d="M87.6,46.6c-1.5,0.3-3,0.8-4.4,1.2c-0.9,0.3-1.9,0.5-2.9,0.7l-0.4,0l0.2-0.3c0.1-0.1,0.3-0.3,0.4-0.4
				c1.5-1.4,3.1-2.7,4.7-4.1c0.5-0.6,1.5-1,1.2-2c-0.3-0.2-1.2,0.2-1.6,0.4c-3,1.5-5.7,3.3-8.2,5.7c-0.1,0.1-0.1,0.1-0.2,0.2
				c-1.4,1.1-1.7,3.6-3.8,3.4c-1.4-0.1-1.6-0.1-2.1-0.3c2.2-1.7,6.4-7.3,6.8-8.6c0,0,0.4-1.2-0.1-1.2c-2,0.7-3.9,2.4-5.4,3.8
				c0.1-0.7,1.2-2,0.7-2.7c-3.5,0.7-8.3,5.4-8.4,5.4c-0.9,0.6-1.3,2.6-2.7,2.3c-0.9-0.1-2-0.1-2.5-0.4c0.9-0.6,1.8-1.2,2.7-1.8
				c2-1.5,3.9-3.3,5.7-5c0.1-0.2,0.7-0.5,0.4-0.9c-0.6-0.5-1.3,0.2-2,0.3c-3,1.3-5,3.1-7,5.5c-0.4,0.5-0.9,1-1.3,1.6
				c-1.4-0.2-2.2-0.1-2.9-0.5c0.4-0.3,0.9-0.7,1.3-1c2.3-1.8,4.7-3.6,6.4-6.3c-0.2-0.9-1.1-0.2-1.5,0c-3.1,1.6-5.7,3.5-7.7,6.5
				c-0.1,0.2-0.2,0.4-0.4,0.6c-1.4,0-2.6-0.3-3.8-0.6c0,0-0.1,0-0.1,0l0-0.1c3-1.5,5.7-4.2,7.8-7.3c0,0,1.7-3-2.1-0.5
				c-2.8,1.8-5.4,4.2-7.2,7.6c0,0-1.9,0.1-1.9-0.1c1.8-2.2,4-5.1,5-8.1c0.1-0.5,0.4-1.4-0.3-1.5c-2.5,1.1-4.2,4.1-5.6,6.9
				c-0.4,0.8-0.6,1.9-1,2.6c-1.7-0.1-2.9,0.1-4.5-0.4c2.1-1.8,4.3-3.3,6.2-5.4c0.3-0.6,2.4-2,2.4-3.9c-0.7-0.4-1.3,0.1-1.7,0.4
				l-5.8,4.6l-0.3,0c0.9-1.6,2.9-4,3.7-5.7c0.3-0.6,0.6-1.1,0.6-1.8l-0.5-0.2c-4.2,1.8-7.7,5.9-9.1,11.1c-0.3,0.5-0.5,1.4-1.2,1.1
				c-0.1-1.4-0.5-2.8-1-4c-1.8-3.7-4.3-6.4-7.6-8.4c-0.5-0.3-0.8,0.3-0.7,0.7c0.5,2.6,2.1,4.3,3.2,6.3c1.3,2.1,3.1,3.9,4.6,5.8
				c-0.5,0.2-12.3,3-14.4,4.7c-1.1,0.6-2.9,2-2.8,5.1c0.1,0.9,0.7,1.8,1.5,2.1c0.8,0.1,1.3,0.2,1.8-0.2c2.2-2.8,4.7-5.3,7.5-7
				c1.9-1,3.4-2,5.6-2.3c0.9,0.9,1.5,2,2.8,3c2.5,2.2,4.6,3.8,8,4.3l0.3-0.1l-0.1-0.3c-1.8-2.6-4.5-4.3-7.3-5.6
				c-0.5-0.4-1.6-1-1.7-1.7c1.7-0.6,4-0.7,6.1-0.2c2.5,4.3,5.2,9,9.2,11.8c0.3,0.1,0.5-0.3,0.4-0.6c-2.8-6.7-4.5-7.3-7.3-10.4
				c-0.2-0.2-0.4-0.8,0-0.9l2.6,0c0.9,0.1,2-0.1,2.2,0.2c0.1,4.4,3,7.8,4.7,11.2c0,0,0.6,0.3,0.5-0.3l0,0c-0.7-7.8-3.6-9.6-4.1-11
				c0.5,0,0.9,0,1.3,0.2c1.9,3.8,4.4,6.6,7.7,8.8c0.1,0,0.5,0.1,0.2-0.5c-1-3.2-4-4.9-5.9-7.4l-0.3-0.6l0.4-0.1
				c0.8,0.2,2,0.4,2.6,0.8c1.1,2.1,2.6,3.8,4.2,5.3c1.3,1.2,2.4,2.6,4.4,3l0.2,0l0.1-0.2l-0.1-0.3c-1.2-3.2-4.5-4.6-6.9-6.8
				c-0.2-0.1-0.5-0.7,0-0.8l3.8,0.5c5.7,7.6,7.9,7.3,7.9,7.3s1.7,0.4,0.9-0.9c-1.8-1.9-3.5-2.8-5.7-4.6c-0.4-0.4-1.4-1-1.3-1.7
				c0.8,0.1,0.9,0.1,2.6,0.3c0.5,0.1,1.2,0.2,1.6,0.3c3,1.3,3.2,5.5,10.4,6.3c0.3,0,0.3-0.3,0.1-0.5c-2.1-1.6-7.4-5.2-7.7-5.6
				c0.7,0.1,3.6,0.5,4,0.7c3.6,2,5.8,3.4,11,2.7c0.4-0.7-0.3-0.9-0.9-1.2l-2.9-1.1c-0.4-0.1-2-0.4-2.6-0.6c3.1-1,7.2-2.1,9.9-3.8
				c0.4-0.3,0.9-0.6,1.4-1c0.3-0.3,0.5-0.6,0.7-1C88.4,46.4,87.6,46.6,87.6,46.6z M35.6,47.1c-0.3-0.2-0.1-0.6,0-0.8
				c0.1-0.1,1.2-2.1,2.2-1.6C38,45.3,36.3,47.3,35.6,47.1z M69.7,47.9c-0.5,0.9-0.2,2.2-0.9,3L64,50.2c2.8-1,5.1-2.9,6.4-3.7
				L69.7,47.9z M74.9,51.6c0-0.5,0.6-1,0.9-1.3c1.6-1.3,1.9,0,1.9,0C77,50.8,75.9,51.5,74.9,51.6z"/>
		</g>
	</g>
	<g>
		<g class="st1">
			<rect x="19.7" y="7.7" width="64.8" height="8.5"/>
		</g>
		<g class="st1">
			<rect x="90.1" y="7.7" width="9.9" height="8.5"/>
		</g>
		<g class="st1">
			<rect x="33.8" y="33.1" width="50.7" height="8.5"/>
		</g>
		<g class="st1">
			<rect x="90.1" y="33.1" width="9.9" height="8.5"/>
		</g>
		<g class="st1">
			<rect x="11.3" y="58.5" width="73.2" height="8.5"/>
		</g>
		<g class="st1">
			<rect x="90.1" y="58.5" width="9.9" height="8.5"/>
		</g>
		<g class="st1">
			<rect x="11.3" y="83.8" width="39.4" height="8.5"/>
		</g>
		<polygon class="st1" points="0,7.7 0,58.9 24.7,33.3 		"/>
	</g>
	<g>
		<g class="st1">
			<path class="st2" d="M35.1,78.2c-0.8,0-1.5-0.2-2.2-0.7c-9-5.8-14.4-15.7-14.4-26.4c0-17.4,14.1-31.5,31.5-31.5
				c17.4,0,31.5,14.1,31.5,31.5c0,10.7-5.4,20.6-14.4,26.4c-1.9,1.2-4.4,0.7-5.7-1.2c-1.2-1.9-0.7-4.4,1.2-5.7
				c6.6-4.3,10.6-11.6,10.6-19.5c0-12.8-10.4-23.3-23.3-23.3S26.7,38.4,26.7,51.2c0,7.9,4,15.2,10.6,19.5c1.9,1.2,2.4,3.8,1.2,5.7
				C37.7,77.6,36.4,78.2,35.1,78.2z"/>
		</g>
		<g class="st1">
			<path class="st2" d="M20.1,90c-1.1,0-2.2-0.4-3-1.1C6.2,79.3-0.1,65.6-0.1,51.2c0-27.6,22.4-50,50-50c27.6,0,50,22.4,50,50
				c0,14.4-6.2,28.2-17.1,37.7c-1.9,1.7-4.8,1.5-6.5-0.4c-1.7-1.9-1.5-4.8,0.4-6.5c8.9-7.8,14-19,14-30.7
				c0-22.5-18.3-40.8-40.8-40.8S9.2,28.7,9.2,51.2c0,11.8,5.1,23,14,30.7c1.9,1.7,2.1,4.6,0.4,6.5C22.7,89.4,21.4,90,20.1,90z"/>
		</g>
		<path class="st3" d="M70.4,98.8L51.7,68.8h-4.1L29.5,98.8H70.4z"/>
		<path class="st3" d="M61.5,51.7c0,6.4-5.2,11.6-11.6,11.6c-6.4,0-11.6-5.2-11.6-11.6c0-6.4,5.2-11.6,11.6-11.6
			C56.3,40,61.5,45.2,61.5,51.7z"/>
	</g>
	<g>
		<path class="st1" d="M25.9,8.4c0-1.5,2.4-3.6,3.9-3.6h40.4c1.5,0,3.3,2.1,3.3,3.6v13.1h4.8V8.4c0-4.6-3.5-8.4-8.1-8.4H29.7
			c-4.6,0-8.7,3.8-8.7,8.4v13.1h4.8V8.4z"/>
		<path class="st1" d="M85.9,26.6H14.1c-5.2,0-9.5,4.3-9.5,9.5v28.2c0,5.2,4.3,9.5,9.5,9.5h4c1.1,0,2.1-0.1,3-0.4v17
			c0,4.9,3.8,9.6,8.7,9.6H70c4.9,0,8.2-4.7,8.2-9.6V73.2c1.1,0.3,2.3,0.5,3.5,0.5h4.1c5.2,0,9.5-4.3,9.5-9.5V36.1
			C95.4,30.8,91.1,26.6,85.9,26.6z M70,92.9H29.8c-1.2,0-1.6-1.3-1.6-2.5V64c1.4-2.7,4.8-4.6,8.9-4.6h25.6c3.6,0,6.8,1.5,8.4,3.8
			v27.2C71.1,91.6,71.2,92.9,70,92.9z M84.1,44.7c-3,0-5.4-2.4-5.4-5.4c0-3,2.4-5.4,5.4-5.4c3,0,5.4,2.4,5.4,5.4S87,44.7,84.1,44.7z
			"/>
		<rect x="33" y="76.2" class="st1" width="26.2" height="7.1"/>
		<rect x="33" y="64.3" class="st1" width="33.3" height="7.1"/>
	</g>
	<g>
		<path class="st1" d="M89.2,13.3V0h-8.3v13.3H19.2V0h-8.3v13.3H2.5V100h95V13.3H89.2z M89.2,90H10.8V35h78.3V90z"/>
		<g class="st1">
			<path d="M30.5,51.8h-0.1l-7.1,3.4l-1.4-6.5l9.9-4.6H39v37.3h-8.4L30.5,51.8L30.5,51.8z"/>
			<path d="M78,44v5.5L62.7,81.3h-9.2l15.4-30v-0.1H51.7V44H78z"/>
		</g>
	</g>
	<g>
		<path class="st1" d="M50,100C22.4,100,0,77.6,0,50C0,22.4,22.4,0,50,0s50,22.4,50,50C100,77.6,77.6,100,50,100z M50,25.8
			c-13.4,0-24.3,10.9-24.3,24.2c0,13.4,10.9,24.3,24.3,24.3c13.4,0,24.2-10.9,24.2-24.3C74.2,36.6,63.4,25.8,50,25.8z"/>
	</g>
	<path d="M100,50c0,27.6-22.4,50-50,50C22.4,100,0,77.6,0,50C0,22.4,22.4,0,50,0C77.6,0,100,22.4,100,50z"/>
	<path d="M96.6,79.6L72.4,60c2.7-5.2,4.2-11.1,4.2-17.4c0-21.1-17.2-38.3-38.3-38.3C17.2,4.3,0,21.5,0,42.6
		c0,21.1,17.2,38.3,38.3,38.3c8.3,0,16-2.7,22.3-7.2l24.7,20c1.7,1.4,3.7,2,5.7,2c2.6,0,5.2-1.1,7-3.4
		C101.1,88.5,100.5,82.8,96.6,79.6z M38.3,68.4c-14.4,0-26-11.6-26-26c0-14.4,11.6-26,26-26c14.3,0,26,11.6,26,26
		C64.3,56.7,52.7,68.4,38.3,68.4z"/>
	<g>
		<path class="st1" d="M1.7,2.4c0,0,91.1-4.5,98.3,91.6H81.6c0,0,3.6-70-79.9-76.3L1.7,2.4L1.7,2.4z"/>
		<path class="st1" d="M1.7,34.3c0,0,53.4-1.8,63.8,59.7H47c0,0-2.2-36.4-45.4-44.5L1.7,34.3L1.7,34.3z"/>
		<path class="st1" d="M11.7,74.3c6.4,0,11.7,5.2,11.7,11.7c0,6.4-5.2,11.7-11.7,11.7C5.2,97.7,0,92.4,0,86
			C0,79.5,5.2,74.3,11.7,74.3z"/>
	</g>
	<path d="M81.3,64.9c-4.5,0-8.7,1.7-11.8,4.6L36,52.4c0.1-0.9,0.2-1.8,0.2-2.7c0-0.5,0-1-0.1-1.5L70,30.9c3.1,2.6,7,4.2,11.3,4.2
		c9.7,0,17.5-7.9,17.5-17.5C98.9,7.9,91,0,81.3,0S63.8,7.9,63.8,17.5c0,0.5,0,1.1,0.1,1.6L30,36.4c-3.1-2.6-7-4.2-11.4-4.2
		C9,32.2,1.1,40,1.1,49.7c0,9.7,7.9,17.5,17.5,17.5c3.9,0,7.5-1.3,10.4-3.5l34.7,17.7c0,0.3,0,0.6,0,0.9c0,9.7,7.9,17.5,17.5,17.5
		s17.5-7.9,17.5-17.5C98.9,72.8,91,64.9,81.3,64.9"/>
	<path d="M52.9,0v25.6h25.4v16.1H52.9v33.1c0,0-0.5,18.4,28.3,5.7v15.7c0,0-10,3.8-26.1,3.8c-16.1,0-23.5-8.4-23.5-18.4
		c0-10,0-40.2,0-40.2H18.8V28.6c0,0,20.7-7.5,20.8-28.6L52.9,0L52.9,0z"/>
	<path d="M100,19c-3.7,1.6-7.6,2.7-11.8,3.2c4.2-2.5,7.5-6.6,9-11.4c-4,2.4-8.4,4.1-13,5c-3.7-4-9.1-6.5-15-6.5
		c-11.3,0-20.5,9.2-20.5,20.5c0,1.6,0.2,3.2,0.5,4.7c-17-0.9-32.2-9-42.3-21.4c-1.8,3-2.8,6.6-2.8,10.3c0,7.1,3.6,13.4,9.1,17.1
		c-3.4-0.1-6.5-1-9.3-2.6c0,0.1,0,0.2,0,0.3c0,9.9,7.1,18.2,16.5,20.1c-1.7,0.5-3.5,0.7-5.4,0.7c-1.3,0-2.6-0.1-3.9-0.4
		c2.6,8.1,10.2,14.1,19.2,14.2c-7,5.5-15.9,8.8-25.5,8.8c-1.7,0-3.3-0.1-4.9-0.3c9.1,5.8,19.9,9.2,31.4,9.2
		c37.7,0,58.4-31.3,58.4-58.4c0-0.9,0-1.8-0.1-2.7C93.8,26.7,97.3,23.1,100,19z"/>
	<polygon points="25.8,0 25.8,100 74.2,50 	"/>
	<path class="st1" d="M99.1,29.1c0,0-0.2-13.1-15.3-13.6c-15.1-0.5-32.2-0.6-32.2-0.6h-3.1c0,0-17.1,0-32.2,0.6
		C1.1,16,0.9,29.2,0.9,29.2s-2,21.6-0.2,37.9c1.4,12.3,4,16.4,18.4,17.1c14.4,0.7,29.3,0.9,29.3,0.9h3.1c0,0,15-0.2,29.3-0.9
		c14.4-0.7,17-4.8,18.4-17.1C101.1,50.8,99.1,29.1,99.1,29.1z M38.5,63.7V35.3l26.9,14.4L38.5,63.7z"/>
</g>
<g class="st0">
	<path class="st1" d="M2.7,91.7h22.2c0.3,0,1.3,0,1.6,0l34.8-7c0.5,0,1.1-0.5,1.1-1.3V22.2c0-0.5-0.5-1.3-1.1-1.3l-28.9-7h40.1V89
		c0,1.6,1.3,2.7,2.7,2.7h22.2c1.6,0,2.7-1.3,2.7-2.7c0-1.6-1.3-2.7-2.7-2.7H77.8V11c0-1.6-1.3-2.7-2.7-2.7h-50
		c-1.6,0-2.7,1.3-2.7,2.7v75.1H2.7c-1.6,0-2.7,1.3-2.7,2.7C0,90.6,1.3,91.7,2.7,91.7z M59.9,82.4l-32.1,6.4V15.5l32.1,7.8V82.4z"/>
	<path class="st1" d="M54.3,59.9c2.4,0,4.3-1.9,4.3-4.3c0-2.4-1.9-4.3-4.3-4.3c-2.4,0-4.3,1.9-4.3,4.3C50,58,52.1,59.9,54.3,59.9z
		 M54.3,54.3c0.8,0,1.3,0.5,1.3,1.3c0,0.8-0.5,1.3-1.3,1.3c-0.8,0-1.3-0.5-1.3-1.3C52.9,55.1,53.5,54.3,54.3,54.3z"/>
</g>
<path class="st0" d="M23.1,45.8c-3.5,0-6.2-2.7-6.2-6.2s2.7-6.2,6.2-6.2s6.2,2.7,6.2,6.2S26.5,45.8,23.1,45.8z M23.1,48.5
	c-5.9,0-10.7,4.8-10.7,10.7h21.4C33.8,53.4,29,48.5,23.1,48.5z M90.9,85.5H9.1c-5.1,0-9.1-4-9.1-9.1V23.6c0-5.1,4-9.1,9.1-9.1h81.8
	c5.1,0,9.1,4,9.1,9.1v52.8C100,81.5,96,85.5,90.9,85.5z M9.1,18.8c-2.7,0-4.8,2.1-4.8,4.8v52.8c0,2.7,2.1,4.8,4.8,4.8h81.8
	c2.7,0,4.8-2.1,4.8-4.8V23.6c0-2.7-2.1-4.8-4.8-4.8C90.9,18.8,9.1,18.8,9.1,18.8z M87.4,35.9c0-1.3-1.1-2.1-2.1-2.1H41.6
	c-1.3,0-2.1,1.1-2.1,2.1c0,1.3,1.1,2.1,2.1,2.1h44C86.6,38.1,87.4,37,87.4,35.9z M87.4,49.9c0-1.3-1.1-2.1-2.1-2.1H41.6
	c-1.3,0-2.1,1.1-2.1,2.1c0,1.3,1.1,2.1,2.1,2.1h44C86.6,52,87.4,51.2,87.4,49.9z M87.4,64.1c0-1.3-1.1-2.1-2.1-2.1h-33
	c-1.3,0-2.1,1.1-2.1,2.1c0,1.1,1.1,2.1,2.1,2.1h33C86.6,66.5,87.4,65.4,87.4,64.1z"/>
<path class="st0" d="M89.8,61.4L89.8,61.4L89.8,61.4c0-4.3-0.2-5.9-3-5.9h-1.9v-0.8c9.5-2.7,16-12,15-22.5
	c-1.1-9.5-8.4-17.1-17.9-18.5c-9.9-1.5-18.5,4-22.3,12.2C57.5,12.7,45.1,3.3,31.2,5.4C20.4,7.1,12,15.7,10.5,26.2
	c-1.9,12,4.8,22.5,14.8,26.8v2.5h-1.7c-1.3,0-2.5,0.8-3,1.9L5.1,53.6C2.3,53,0,54.9,0,57.8v16.2c0,2.5,2.1,4.2,4.6,3.6l11-3.4
	c2.3-0.8,4.8,1.1,4.8,3.6l0,0l0,0c0,9.5,7.8,17.1,17.1,17.1H86c1.7,0,3.4-1.5,3.8-3.2V61.4z M36.5,35.7c-4,0.8-7.4-2.7-6.7-6.7
	c0.4-2.3,2.3-4,4.4-4.4c4-0.8,7.4,2.7,6.7,6.7C40.5,33.4,38.6,35.3,36.5,35.7z M66,55.5H46.2c-0.6-0.4-1.1-0.8-1.1-1.7
	c0-1.1,0.8-1.9,1.9-1.9h17.9c1.1,0,1.9,0.8,1.9,1.9C66.8,54.7,66.6,55.3,66,55.5z M80.9,39.1c-2.7,0.6-5.1-1.7-4.4-4.4
	c0.2-1.3,1.3-2.3,2.5-2.5c2.7-0.6,5.1,1.7,4.4,4.4C83.2,37.8,82.2,38.9,80.9,39.1z"/>
<path class="st0" d="M31.2,7.7C29.4,0.3,42.7,0,42.7,0c0.7,0,1.9,0,2.8,0c0,0,13.1,0.3,11.5,7.7c-1.8,7.4-4.2,10.4-4.2,10.4
	c-0.4,0.6-1.5,0.9-2.2,0.9c0,0-2.5-0.4-6.4-0.4c-3.9,0-6.4,0.4-6.4,0.4c-0.7,0.1-1.8-0.3-2.2-0.9C35.4,18.2,32.8,15.3,31.2,7.7z
	 M51.5,24.1c-0.1-1.2-1-2.1-2.2-2.2l0,0c-1.5-0.1-3.3-0.3-5.2-0.3c-1.8,0-3.7,0.1-5.1,0.3c-1.2,0-2.4,1-2.5,2.2l-7,60.2
	c-0.1,1.2,0.4,3,1.3,3.9l11.6,11.2c0.9,0.9,2.4,0.9,3.3,0l11.6-11.2c0.9-0.9,1.5-2.7,1.3-3.9L51.5,24.1z M70.4,72.5
	c-4-10-8-20.1-12.1-30.1c-0.7-1.9-1.5-3.7-2.2-5.7l0,0c-0.7-1.8-0.7-1-0.6-0.4c0,0.1,0,0.4,0.1,0.6l0,0l0,0c0.4,3,0.9,6,1.2,8.9
	c0.9,6,1.6,11.8,2.5,17.7c0.6,4.2,1.2,8.2,1.8,12.4c0,0.4,0.4,0.9,0.7,1c1.9,0.7,3.9,1.5,6,2.2c0.9-1.6,1.6-3.3,2.5-4.9
	C70.7,73.9,70.7,73.3,70.4,72.5z"/>
<g class="st0">
	<g class="st1">
		<g>
			<g>
				<path d="M97.9,18.3H74.7l-7-3.7c-0.2-0.5-0.7-0.7-1.2-0.7H50.1c0,0,0,0-0.2,0l0,0H33.4c-0.5,0-0.9,0.2-1.4,0.5l-7,3.7h-23
					C0.9,18.3,0,19.3,0,20.4V84c0,1.2,0.9,2.1,2.1,2.1h95.8c1.2,0,2.1-0.9,2.1-2.1V20.2C100,19.3,99.3,18.3,97.9,18.3z M95.8,81.7
					H4.2V22.3h21.6c0.7,0,1.4-0.5,1.9-0.9l6.5-3.5h15.8l0,0c0,0,0,0,0.2,0h15.5l6.5,3.5c0.2,0.5,0.9,0.9,1.9,0.9h22L95.8,81.7
					L95.8,81.7z"/>
			</g>
		</g>
	</g>
	<g class="st1">
		<path d="M50.1,72.9c-11.8,0-21.3-9.5-21.3-21.3s9.5-21.3,21.3-21.3s21.3,9.5,21.3,21.3S61.9,72.9,50.1,72.9z M50.1,40.4
			c-6,0-11.1,5.1-11.1,11.1s5.1,11.1,11.1,11.1s11.1-5.1,11.1-11.1S56.1,40.4,50.1,40.4z"/>
	</g>
	<path class="st1" d="M15.1,37.6h-0.7c-1.9,0-3.2-1.6-3.2-3.2v-0.7c0-1.9,1.4-3.5,3.2-3.5h0.7c1.9,0,3.5,1.6,3.5,3.5v0.7
		C18.6,36,16.9,37.6,15.1,37.6z"/>
</g>
<path class="st0" d="M98.4,33.4l-47-29c-0.9-0.6-1.9-0.6-2.8,0l-47,28.7l0,0l-0.3,0.3C0.6,33.7,0,34.7,0,35.6v57.6
	C0,94.8,1.2,96,2.8,96h94.4c1.6,0,2.8-1.2,2.8-2.8V35.6C99.7,34.7,99.4,33.7,98.4,33.4z M49.8,10l42.1,25.5l-12.1,7.5v-7.5
	c0-1.6-1.2-2.8-2.8-2.8H22.7c-1.6,0-2.8,1.2-2.8,2.8v7.5L7.5,35.6L49.8,10z M74.5,38.4v8.1L49.8,61.1l-24.3-15v-7.8H74.5z
	 M94.4,90.4H5.3V40.6l16.2,9.7l27.1,16.5c0.3,0.3,0.9,0.3,1.2,0.3c0.3,0,0.9,0,1.2-0.3l27.1-16.5l16.2-9.7V90.4L94.4,90.4z"/>
<path class="st0" d="M97.2,15c-3.7-3.7-10.5-3.7-14.2,0L33,64.4l-16-16c-3.7-3.7-10.5-3.7-14.2,0c-3.7,3.7-3.7,10.5,0,14.2
	l22.8,22.2c1.9,1.9,4.9,3.1,7.4,3.1c2.5,0,5.6-0.6,7.4-3.1l56.8-55.6C100.9,25.5,100.9,18.7,97.2,15z"/>
<g class="st0">
	<path class="st1" d="M35,61.7H21.1c-0.6,0-1.1-0.6-1.1-1.1v-1.7c0-0.6,0.6-1.1,1.1-1.1h13.3c0.6,0,1.1,0.6,1.1,1.1v1.7
		C35.6,60.6,35.6,61.7,35,61.7z"/>
	<path class="st1" d="M51.7,70H21.1c-0.6,0-1.1-0.6-1.1-1.1v-1.7c0-0.6,0.6-1.1,1.1-1.1h30c0.6,0,1.1,0.6,1.1,1.1v1.7
		C52.2,68.9,52.2,70,51.7,70z"/>
	<path class="st1" d="M64.4,70h-7.8c-0.6,0-1.1-0.6-1.1-1.1v-1.7c0-0.6,0.6-1.1,1.1-1.1h7.8c0.6,0,1.1,0.6,1.1,1.1v1.7
		C65.6,68.9,65.6,70,64.4,70z"/>
	<path class="st1" d="M78.3,70h-7.8c-0.6,0-1.1-0.6-1.1-1.1v-1.7c0-0.6,0.6-1.1,1.1-1.1h7.8c0.6,0,1.1,0.6,1.1,1.1v1.7
		C79.4,69.4,78.9,70,78.3,70z"/>
	<path class="st1" d="M56.7,61.7H42.8c-0.6,0-1.1-0.6-1.1-1.1v-1.7c0-0.6,0.6-1.1,1.1-1.1h13.3c0.6,0,1.1,0.6,1.1,1.1v1.7
		C57.2,60.6,57.2,61.7,56.7,61.7z"/>
	<path class="st1" d="M35,78.9H21.1c-0.6,0-1.1-0.6-1.1-1.1v-1.7c0-0.6,0.6-1.1,1.1-1.1h13.3c0.6,0,1.1,0.6,1.1,1.1v1.7
		C35.6,77.8,35.6,78.9,35,78.9z"/>
	<path class="st1" d="M56.7,78.9H42.8c-0.6,0-1.1-0.6-1.1-1.1v-1.7c0-0.6,0.6-1.1,1.1-1.1h13.3c0.6,0,1.1,0.6,1.1,1.1v1.7
		C57.2,77.8,57.2,78.9,56.7,78.9z"/>
	<path class="st1" d="M78.3,61.7H65c-0.6,0-1.1-0.6-1.1-1.1v-1.7c0-0.6,0.6-1.1,1.1-1.1h13.3c0.6,0,1.1,0.6,1.1,1.1v1.7
		C79.4,61.1,78.9,61.7,78.3,61.7z"/>
	<path class="st1" d="M7.8,5.6v88.9c0,2.8,2.2,5.6,5.6,5.6h73.3c2.8,0,5.6-2.2,5.6-5.6V5.6C92.2,2.8,90,0,86.7,0H13.3
		C10,0,7.8,2.2,7.8,5.6z M82.2,95.6H17.8c-2.8,0-5.6-2.2-5.6-5.6V10c0-2.8,2.2-5.6,5.6-5.6h64.4c2.8,0,5.6,2.2,5.6,5.6v80
		C87.8,92.8,85,95.6,82.2,95.6z"/>
	<path class="st1" d="M25.6,15h48.9c2.8,0,5.6,2.2,5.6,5.6v25.6c0,2.8-2.2,5.6-5.6,5.6H25.6c-2.8,0-5.6-2.2-5.6-5.6V20.6
		C20,17.2,22.2,15,25.6,15z"/>
</g>
<path class="st0" d="M100,40.5c-0.7-7.3-8.9-11-15.5-8c-3.3,1.5-7.3,3.7-10.6,6.2c-1.1,0.7-2.6,0-2.6-1.1l0,0
	c0-7-5.5-12.8-12.8-12.8H12.8C5.9,24.8,0,30.6,0,37.6v24.9c0,7,5.9,12.8,12.8,12.8h45.7c7,0,12.8-5.9,12.8-12.8l0,0
	c0-1.1,1.5-1.8,2.2-1.1c3.3,2.6,8,4.8,11,6.6c5.1,2.6,11.7,0.7,14.3-4.4c0.7-1.5,1.2-3.3,1.2-4.8C100,58.8,100,40.9,100,40.5z"/>
<g class="st0">
	<path class="st1" d="M97.9,18.2H74.7l-7-3.7c-0.2-0.2-0.9-0.5-1.4-0.5H49.9c0,0,0,0-0.2,0H33.2c-0.5,0-0.9,0.2-1.4,0.5l-7,3.7H2.1
		c-1.2,0-2.1,0.9-2.1,2.1v63.6C0,85,0.9,86,2.1,86h95.8c1.2,0,2.1-0.9,2.1-2.1V20.3C100,19.1,99.1,18.2,97.9,18.2z M95.6,81.8H4.2
		V22.4h21.6c0.7,0,1.4-0.5,1.9-0.9l6.5-3.5h15.8c0,0,0,0,0.2,0h15.5l6.5,3.5c0.2,0.5,0.9,0.9,1.9,0.9h22L95.6,81.8z"/>
	<path class="st1" d="M70.8,46.2l-2,2.2c-0.3-5.6-3.2-11-8-14.7l0,0c-4.2-3-9.6-4.2-14.7-3.3c-5.1,0.9-9.4,3.8-12.3,8.1
		c-0.5,0.9-0.2,2.5,0.8,3.1c0.5,0.4,1.1,0.5,1.7,0.4c0.7-0.1,1.3-0.5,1.6-1.1l0.1-0.2v-0.1c2.2-2.9,5.4-4.9,9.2-5.5
		c3.9-0.6,7.7,0.2,10.8,2.4c3.8,2.7,6,6.8,6.1,11.3l-2.3-1.9c-0.4-0.4-1.1-0.7-1.7-0.7h0c-0.7,0-1.3,0.3-1.7,0.7
		c-0.4,0.4-0.7,1.1-0.7,1.7c0,0.7,0.3,1.3,0.7,1.8l6.7,6c0.4,0.5,0.9,0.7,1.4,0.7c0.2,0,0.4,0,0.6-0.1c0.8-0.1,1.2-0.5,1.5-0.8
		l6-6.7c0.5-0.5,0.7-1.2,0.6-1.9c-0.1-0.6-0.4-1.2-0.9-1.5C73.3,45.3,71.7,45.3,70.8,46.2z"/>
	<path class="st1" d="M65.4,58.5c-0.2-0.4-0.6-0.7-1.1-0.8c-0.7-0.2-1.5,0.1-2.1,0.7l-0.1,0.1c-4.7,6.6-13.7,8.2-20.4,3.7
		c-3.8-2.7-6-6.8-6.1-11.2l2.3,2.1c0.4,0.4,1.1,0.7,1.7,0.7c0,0,0,0,0,0c0.7,0,1.3-0.3,1.7-0.7c0.9-0.9,0.9-2.6-0.1-3.6l-6.9-6
		c-0.2-0.2-0.9-0.9-2-0.6c-0.8,0.1-1.2,0.5-1.5,0.8l-6,6.7c-0.5,0.5-0.7,1.2-0.6,1.9c0.1,0.6,0.4,1.2,0.9,1.5c0.4,0.4,1,0.6,1.6,0.6
		c0,0,0,0,0,0c0.7,0,1.3-0.3,1.8-0.7l2.1-2.3c0.3,5.9,3.3,11.4,8.2,14.8c3.3,2.3,7.2,3.6,11.2,3.6c1.2,0,2.3-0.1,3.5-0.3
		c5.1-0.9,9.4-3.8,12.3-8.1c0.3-0.5,0.3-1.2,0.1-1.9C65.9,59.1,65.7,58.8,65.4,58.5z"/>
</g>
<g>
	<path d="M64.8,0H35.2c-7.1,0-13,5.8-13,13V87c0,7.1,5.8,13,13,13h29.5c7.2,0,12.9-5.6,13.2-12.8V13C77.8,5.8,72,0,64.8,0z
		 M75.8,87.2C75.7,93.3,70.7,98,64.6,98H35.2c-6.1,0-11-4.9-11-11V13c0-6.1,4.9-11,11-11h29.7c6.1,0,11,4.9,11,11V87.2z"/>
	<rect x="42.6" y="5.9" width="14.5" height="2"/>
	<path d="M49.9,81.9c-2.7,0-4.9,2.2-4.9,4.9s2.2,4.9,4.9,4.9c2.7,0,4.9-2.2,4.9-4.9S52.6,81.9,49.9,81.9z M49.9,89.8
		c-1.6,0-2.9-1.3-2.9-2.9c0-1.6,1.3-2.9,2.9-2.9s2.9,1.3,2.9,2.9C52.8,88.5,51.5,89.8,49.9,89.8z"/>
</g>
</svg>
