<?xml version="1.0" encoding="utf-8"?>
<!-- Generator: Adobe Illustrator 19.1.1, SVG Export Plug-In . SVG Version: 6.00 Build 0)  -->
<svg version="1.1" id="Calque_1" xmlns="http://www.w3.org/2000/svg" xmlns:xlink="http://www.w3.org/1999/xlink" x="0px" y="0px"
	 viewBox="0 0 100 100" style="enable-background:new 0 0 100 100;" xml:space="preserve">
<g>
	<g>
		<path d="M68.6,100H39.7C32.2,100,26,93.9,26,86.3V13.7C26,6,32,0,39.7,0h29.1c7.5,0,13.7,6.1,13.7,13.7v72.8
			C82.2,94.1,76.1,100,68.6,100z M39.7,3.9c-5.5,0-9.8,4.3-9.8,9.8v72.6c0,5.4,4.4,9.8,9.8,9.8h28.9c5.5,0,9.9-4.3,10-9.7V13.7
			c0-5.4-4.4-9.8-9.8-9.8C68.8,3.9,39.7,3.9,39.7,3.9z"/>
	</g>
	<g>
		<rect x="47" y="5.8" width="14.3" height="3.9"/>
	</g>
	<g>
		<path d="M54.1,91.9c-3.2,0-5.8-2.6-5.8-5.8c0-3.2,2.6-5.8,5.8-5.8s5.8,2.6,5.8,5.8C59.9,89.3,57.3,91.9,54.1,91.9z M54.1,84.2
			c-1.1,0-1.9,0.9-1.9,1.9c0,1.1,0.9,1.9,1.9,1.9s1.9-0.9,1.9-1.9C56.1,85.1,55.2,84.2,54.1,84.2z"/>
	</g>
</g>
</svg>
