<?xml version="1.0" encoding="utf-8"?>
<!-- Generator: Adobe Illustrator 19.2.0, SVG Export Plug-In . SVG Version: 6.00 Build 0)  -->
<svg version="1.1" id="Calque_1" xmlns="http://www.w3.org/2000/svg" xmlns:xlink="http://www.w3.org/1999/xlink" x="0px" y="0px"
	 viewBox="0 0 100 100" style="enable-background:new 0 0 100 100;" xml:space="preserve">
<path d="M99.1,29.1c0,0-0.2-13.1-15.3-13.6s-32.2-0.6-32.2-0.6h-3.1c0,0-17.1,0-32.2,0.6C1.1,16,0.9,29.2,0.9,29.2s-2,21.6-0.2,37.9
	c1.4,12.3,4,16.4,18.4,17.1s29.3,0.9,29.3,0.9h3.1c0,0,15-0.2,29.3-0.9c14.4-0.7,17-4.8,18.4-17.1C101.1,50.8,99.1,29.1,99.1,29.1z
	 M38.5,63.7V35.3l26.9,14.4L38.5,63.7z"/>
</svg>
