<?xml version="1.0" encoding="utf-8"?>
<!-- Generator: Adobe Illustrator 19.2.0, SVG Export Plug-In . SVG Version: 6.00 Build 0)  -->
<svg version="1.1" id="Calque_1" xmlns="http://www.w3.org/2000/svg" xmlns:xlink="http://www.w3.org/1999/xlink" x="0px" y="0px"
	 viewBox="0 0 100 100" style="enable-background:new 0 0 100 100;" xml:space="preserve">
<path d="M50,0C35,0,10,2.2,10,10.6v17.8l0,0l0,0c0,3.9,5.6,6.7,12.8,8.3L10,97.2c0,1.1,0.6,2.2,1.7,2.8c0,0,0,0,0.6,0
	c1.1,0,1.7-0.6,2.2-1.7l12.8-61.1c6.7,1.1,14.4,1.7,20.6,1.7v36.7c0,1.1,1.1,2.2,2.2,2.2s2.2-1.1,2.2-2.2V38.9
	c6.7,0,13.9-0.6,20-1.7L85,98.3c0,1.1,1.1,1.7,2.2,1.7c0,0,0,0,0.6,0c1.1,0,1.7-1.1,1.7-2.8L76.7,36.7c5.6-1.1,9.4-2.8,11.7-5
	c1.1-1.1,1.7-2.2,1.7-3.3l0,0V10.6C90,2.2,65,0,50,0z M50,4.4c22.2,0,34.4,3.9,35.6,6.1c-1.1,1.7-13.3,6.1-35.6,6.1
	s-34.4-4.4-35.6-6.1l0,0C15.6,8.3,27.8,4.4,50,4.4z M73.9,32.2L73.9,32.2c-0.6,0-0.6,0-0.6,0c-6.1,1.1-13.9,1.7-23.3,1.7
	c-10,0.6-18.3-0.6-23.9-1.7l0,0l0,0C18.9,31.1,15,29.4,15,28.3V16.1c8.3,3.9,24.4,5,35.6,5s27.8-1.1,35.6-5v12.2
	C85,29.4,81.1,31.1,73.9,32.2z"/>
</svg>
