<?xml version="1.0" encoding="UTF-8" standalone="no"?>
<!-- Generator: Adobe Illustrator 19.1.0, SVG Export Plug-In . SVG Version: 6.00 Build 0)  -->

<svg
   xmlns:dc="http://purl.org/dc/elements/1.1/"
   xmlns:cc="http://creativecommons.org/ns#"
   xmlns:rdf="http://www.w3.org/1999/02/22-rdf-syntax-ns#"
   xmlns:svg="http://www.w3.org/2000/svg"
   xmlns="http://www.w3.org/2000/svg"
   xmlns:sodipodi="http://sodipodi.sourceforge.net/DTD/sodipodi-0.dtd"
   xmlns:inkscape="http://www.inkscape.org/namespaces/inkscape"
   version="1.1"
   id="Calque_1"
   x="0px"
   y="0px"
   viewBox="0 0 100 100"
   style="enable-background:new 0 0 100 100;"
   xml:space="preserve"
   inkscape:version="0.91 r13725"
   sodipodi:docname="Photo.svg"><metadata
     id="metadata4739"><rdf:RDF><cc:Work
         rdf:about=""><dc:format>image/svg+xml</dc:format><dc:type
           rdf:resource="http://purl.org/dc/dcmitype/StillImage" /></cc:Work></rdf:RDF></metadata><defs
     id="defs4737" /><sodipodi:namedview
     pagecolor="#ffffff"
     bordercolor="#666666"
     borderopacity="1"
     objecttolerance="10"
     gridtolerance="10"
     guidetolerance="10"
     inkscape:pageopacity="0"
     inkscape:pageshadow="2"
     inkscape:window-width="701"
     inkscape:window-height="480"
     id="namedview4735"
     showgrid="false"
     inkscape:zoom="2.36"
     inkscape:cx="50"
     inkscape:cy="50"
     inkscape:window-x="0"
     inkscape:window-y="0"
     inkscape:window-maximized="0"
     inkscape:current-layer="Calque_1" /><style
     type="text/css"
     id="style4721">
	.st0{fill:none;stroke:#000000;stroke-width:3;stroke-miterlimit:10;}
</style><g
     id="g4725"
     style="fill:#b2b2b2;fill-opacity:1"><polygon
       points="67.1,57.7 63.1,57.7 63.1,55.4 64.2,55.4 64.2,39.5 38.6,39.5 38.6,36.6 67.1,36.6  "
       id="polygon4727"
       style="fill:#b2b2b2;fill-opacity:1" /><path
       d="M61.9,63.4h-29v-21h29V63.4z M35.8,60.5h23.9V45.2H35.8V60.5z"
       id="path4729"
       style="fill:#b2b2b2;fill-opacity:1" /><path
       d="M42.3,48.9c0,1.2-1,2.1-2.1,2.1c-1.2,0-2.1-1-2.1-2.1c0-1.2,1-2.1,2.1-2.1C41.4,46.7,42.3,47.7,42.3,48.9"
       id="path4731"
       style="fill:#b2b2b2;fill-opacity:1" /><polygon
       points="42.6,58.8 58,58.8 58,51.2 54.8,47.1 50.3,52.5 47.7,51  "
       id="polygon4733"
       style="fill:#b2b2b2;fill-opacity:1" /></g></svg>