<?xml version="1.0" encoding="utf-8"?>
<!-- Generator: Adobe Illustrator 16.0.0, SVG Export Plug-In . SVG Version: 6.00 Build 0)  -->
<!DOCTYPE svg PUBLIC "-//W3C//DTD SVG 1.1//EN" "http://www.w3.org/Graphics/SVG/1.1/DTD/svg11.dtd">
<svg version="1.1" id="Calque_1" xmlns="http://www.w3.org/2000/svg" xmlns:xlink="http://www.w3.org/1999/xlink" x="0px" y="0px"
	 width="33px" height="23px" viewBox="0 0 33 23" enable-background="new 0 0 33 23" xml:space="preserve">
<path fill="#999999" d="M16.498,0.594c-4.386,0-7.957,3.671-7.957,8.264c0,1.122,0.205,2.245,0.613,3.266
	c0,0,0.918,1.733,1.427,2.243l5.917,7.04l5.815-6.835c0.612-0.611,1.53-2.448,1.53-2.448c0.406-1.021,0.612-2.144,0.612-3.266
	C24.559,4.265,20.886,0.594,16.498,0.594 M16.498,11.103c-1.632,0-2.959-1.328-2.959-2.96c0-1.633,1.326-2.959,2.959-2.959
	c1.633,0,2.959,1.326,2.959,2.959C19.457,9.775,18.131,11.103,16.498,11.103"/>
</svg>
