<?xml version="1.0" encoding="utf-8"?>
<!-- Generator: Adobe Illustrator 19.1.0, SVG Export Plug-In . SVG Version: 6.00 Build 0)  -->
<svg version="1.1" id="Calque_1" xmlns="http://www.w3.org/2000/svg" xmlns:xlink="http://www.w3.org/1999/xlink" x="0px" y="0px"
	 viewBox="0 0 18.5 18" style="enable-background:new 0 0 18.5 18;" xml:space="preserve">
<path d="M18.1,2.1L12.3,0c-0.1,0-0.2,0-0.3,0L6.3,2L0.7,0C0.5,0,0.3,0,0.2,0.1C0.1,0.2,0,0.4,0,0.5v14.4c0,0.2,0.1,0.4,0.3,0.5
	l5.8,2.6c0.1,0.1,0.3,0.1,0.4,0l5.6-2.5l5.6,2.5c0.1,0,0.1,0,0.2,0c0.1,0,0.2,0,0.3-0.1c0.1-0.1,0.2-0.2,0.2-0.4V2.6
	C18.5,2.4,18.3,2.2,18.1,2.1z M6.1,16.8L1,14.6V1.2L6.1,3V16.8z M11.9,14.4l-5.3,2.3V3l5.3-1.9L11.9,14.4z M17.5,16.7l-5.1-2.2V1.2
	l5.1,1.8V16.7z"/>
</svg>
