<?xml version="1.0" encoding="utf-8"?>
<!-- Generator: Adobe Illustrator 16.0.0, SVG Export Plug-In . SVG Version: 6.00 Build 0)  -->
<!DOCTYPE svg PUBLIC "-//W3C//DTD SVG 1.1//EN" "http://www.w3.org/Graphics/SVG/1.1/DTD/svg11.dtd">
<svg version="1.1" id="Calque_1" xmlns="http://www.w3.org/2000/svg" xmlns:xlink="http://www.w3.org/1999/xlink" x="0px" y="0px"
	 width="52px" height="49px" viewBox="0 0 52 49" enable-background="new 0 0 52 49" xml:space="preserve">
<g>
	<g>
		<path fill="#B1B0B1" d="M51.043,14.8c-0.199,0-0.6-0.2-0.799-0.4c-5.201-8-13.801-12.6-24.401-12.6c-10.6,0-19,4.6-24.2,12.6
			c-0.2,0.4-0.8,0.6-1.2,0.2c-0.4-0.2-0.6-0.8-0.2-1.2c5.6-8.6,14.8-13.4,25.8-13.4c11,0,20.201,4.8,25.8,13.4
			c0.199,0.4,0.199,1-0.201,1.2C51.443,14.8,51.244,14.8,51.043,14.8z"/>
	</g>
	<g>
		<path fill="#B1B0B1" d="M8.843,21c-0.2,0-0.4,0-0.4-0.2c-0.6-0.2-0.6-0.8-0.4-1.2c4-6,10.2-9.2,18-9.2c7.8,0,14,3.4,17.8,9.2
			c0.199,0.4,0.199,1-0.201,1.2c-0.398,0.2-1,0.2-1.199-0.2c-3.6-5.399-9.4-8.6-16.4-8.6c-7,0-12.8,3-16.4,8.4
			C9.443,20.8,9.043,21,8.843,21z"/>
	</g>
	<g>
		<path fill="#B1B0B1" d="M35.844,27.4c-0.201,0-0.6-0.2-0.801-0.4c-2-3-5.199-4.6-9-4.6c-3.8,0-7,1.6-9,4.6
			c-0.2,0.4-0.8,0.6-1.2,0.2c-0.4-0.2-0.6-0.8-0.2-1.2c2.2-3.4,6-5.4,10.6-5.4c4.399,0,8.2,2,10.6,5.4c0.199,0.4,0.199,1-0.201,1.2
			C36.043,27.4,35.844,27.4,35.844,27.4z"/>
	</g>
	<g>
		<path fill="#B1B0B1" d="M25.843,36c-2.4,0-4.2-1.8-4.2-4.2c0-2.399,1.8-4.2,4.2-4.2c2.401,0,4.2,1.801,4.2,4.2
			C30.043,34.2,28.043,36,25.843,36z M25.843,29.4c-1.4,0-2.4,1.199-2.4,2.399c0,1.4,1.2,2.4,2.4,2.4c1.401,0,2.401-1.2,2.401-2.4
			C28.244,30.4,27.043,29.4,25.843,29.4z"/>
	</g>
</g>
</svg>
