<?xml version="1.0" encoding="utf-8"?>
<!-- Generator: Adobe Illustrator 16.0.0, SVG Export Plug-In . SVG Version: 6.00 Build 0)  -->
<!DOCTYPE svg PUBLIC "-//W3C//DTD SVG 1.1//EN" "http://www.w3.org/Graphics/SVG/1.1/DTD/svg11.dtd">
<svg version="1.1" id="Calque_1" xmlns="http://www.w3.org/2000/svg" xmlns:xlink="http://www.w3.org/1999/xlink" x="0px" y="0px"
	 width="178px" height="13.8px" viewBox="0 0 178 13.8" enable-background="new 0 0 178 13.8" xml:space="preserve">
<g id="g236" transform="translate(-4.4902713e-6,-182.9)">
	<g id="g238">
		<path id="path240"  fill="#C8A461" d="M2.948,185.737v2.997h5.718v1.845H2.948v5.135H0.853
			v-11.844h7.975v1.867H2.948z"/>
		<path id="path242"  fill="#C8A461" d="M11.136,195.714v-11.844h8.151v1.867h-6.092v2.997h5.914
			v1.845h-5.914v3.25h6.091v1.885H11.136z"/>
		<path id="path244"  fill="#C8A461" d="M26.105,195.855c-2.857,0-4.759-0.711-4.759-3.445h2.096
			c0,1.189,0.568,1.561,2.702,1.561c2.29,0,2.661-0.564,2.661-1.861c0-1.152-0.444-1.315-1.331-1.385
			c-2.61-0.195-6.127,0.534-6.127-3.375c0-2.75,1.598-3.605,4.724-3.605c2.861,0,4.706,0.728,4.706,3.445h-2.058
			c0-1.402-0.888-1.56-2.682-1.56c-2.361,0-2.594,0.442-2.594,1.685c0,1.101,0.497,1.245,1.333,1.314
			c2.61,0.213,6.142-0.553,6.125,3.391C30.881,194.683,29.318,195.855,26.105,195.855z"/>
		<path id="path246"  fill="#C8A461" d="M37.595,185.737v9.977h-2.096v-9.977h-3.605v-1.867h9.304
			v1.867H37.595z"/>
		<path id="path248"  fill="#C8A461" d="M42.871,195.714v-11.844h2.093v11.844H42.871z"/>
		<path id="path250"  fill="#C8A461" d="M52.85,195.714h-2.061l-4.423-11.844h2.239l3.25,9.195
			l3.25-9.195h2.203L52.85,195.714z"/>
		<path id="path252"  fill="#C8A461" d="M65.523,195.714l-1.099-3.021h-4.618l-1.083,3.021h-2.184
			l4.581-11.844h2.149l4.545,11.844H65.523L65.523,195.714z M62.133,186.195l-1.668,4.688h3.321L62.133,186.195z"/>
		<path id="path254"  fill="#C8A461" d="M69.308,195.714v-11.844h2.095v9.959h5.878v1.885H69.308
			L69.308,195.714z"/>
		<path id="path256"  fill="#C8A461" d="M91.467,194.115c-0.851,1.26-2.128,1.6-4.333,1.6H82.73
			v-11.844h4.388c2.201,0,3.479,0.354,4.331,1.614c0.623,0.926,0.782,1.988,0.782,4.315
			C92.231,192.127,92.091,193.191,91.467,194.115L91.467,194.115z M87.01,185.737h-2.217v8.092h2.234c2.38,0,3.11-0.125,3.11-4.029
			C90.137,185.895,89.391,185.737,87.01,185.737z"/>
		<path id="path258"  fill="#C8A461" d="M94.717,195.714v-11.844h8.151v1.867h-6.089v2.997h5.911
			v1.845h-5.911v3.25h6.089v1.885H94.717z"/>
		<path id="path260"  fill="#C8A461" d="M116.452,187.189c0-1.188-0.496-1.542-2.535-1.542
			c-2.381,0-2.754,0.764-2.754,4.154c0,3.389,0.354,4.137,2.734,4.137c2.042,0,2.537-0.338,2.537-1.527h2.062
			c0,2.684-1.738,3.445-4.438,3.445c-4.957,0-4.988-2.682-4.988-6.07c0-3.393,0.05-6.04,5.008-6.04c2.695,0,4.436,0.764,4.436,3.445
			L116.452,187.189L116.452,187.189z"/>
		<path id="path262"  fill="#C8A461" d="M128.386,195.714l-1.1-3.021h-4.618l-1.084,3.021h-2.183
			l4.582-11.844h2.148l4.546,11.844H128.386z M124.994,186.195l-1.668,4.688h3.32L124.994,186.195L124.994,186.195z"/>
		<path id="path264"  fill="#C8A461" d="M139.04,195.714l-4.917-8.506v8.506h-1.954v-11.844h2.132
			l4.937,8.434v-8.434h1.951v11.844H139.04L139.04,195.714z"/>
		<path id="path266"  fill="#C8A461" d="M151.649,195.714l-4.92-8.506v8.506h-1.951v-11.844h2.129
			l4.937,8.434v-8.434h1.952v11.844H151.649L151.649,195.714z"/>
		<path id="path268"  fill="#C8A461" d="M157.388,195.714v-11.844h8.146v1.867h-6.09v2.997h5.915
			v1.845h-5.915v3.25h6.09v1.885H157.388z"/>
		<path id="path270"  fill="#C8A461" d="M172.359,195.855c-2.86,0-4.763-0.711-4.763-3.445h2.096
			c0,1.189,0.569,1.561,2.697,1.561c2.29,0,2.665-0.564,2.665-1.861c0-1.152-0.442-1.315-1.333-1.385
			c-2.61-0.195-6.125,0.534-6.125-3.375c0-2.75,1.598-3.605,4.724-3.605c2.857,0,4.705,0.728,4.705,3.445h-2.061
			c0-1.402-0.887-1.56-2.679-1.56c-2.362,0-2.594,0.442-2.594,1.685c0,1.101,0.496,1.245,1.329,1.314
			c2.612,0.213,6.148-0.553,6.126,3.391C177.133,194.683,175.569,195.855,172.359,195.855z"/>
	</g>
</g>
</svg>
