<?xml version="1.0" encoding="utf-8"?>
<!-- Generator: Adobe Illustrator 16.0.0, SVG Export Plug-In . SVG Version: 6.00 Build 0)  -->
<!DOCTYPE svg PUBLIC "-//W3C//DTD SVG 1.1//EN" "http://www.w3.org/Graphics/SVG/1.1/DTD/svg11.dtd">
<svg version="1.1" id="Calque_1" xmlns="http://www.w3.org/2000/svg" xmlns:xlink="http://www.w3.org/1999/xlink" x="0px" y="0px"
	 width="95px" height="48.9px" viewBox="0 0 95 48.9" enable-background="new 0 0 95 48.9" xml:space="preserve">
<g>
	<g>
		<g>
			<path fill="#FFFFFF" d="M94.354,21.707v1.619h-3.369v7.114h-2.271v-7.116h-3.368v-1.617H94.354z"/>
			<path fill="#FFFFFF" d="M86.314,28.82v1.619h-7.218v-8.733h2.269v7.114H86.314z"/>
			<path fill="#FFFFFF" d="M42.588,28.82v1.619h-7.583v-8.733h7.441v1.619h-5.169v1.918H42v1.565h-4.723v2.012H42.588z"/>
			<g>
				<path fill="#FFFFFF" d="M30.935,27.194c0.972-0.528,1.574-1.566,1.574-2.655c0-0.908-0.265-1.614-0.82-2.076
					c-0.646-0.535-1.531-0.758-3.024-0.758h-5.208l-0.093,0.527c0,0,0.093,0.157,0.2,0.346c0.161,0.279,0.148,0.361,0.148,0.545
					v7.315h2.272v-2.797c0,0,1.992,0,2.823,0l1.514,2.797h2.501L30.935,27.194z M29.787,25.777c-0.174,0.17-0.382,0.252-0.704,0.252
					h-3.098v-2.661h2.447c0.729,0,1.117,0.082,1.38,0.296c0.258,0.205,0.381,0.518,0.381,0.981
					C30.194,25.125,30.066,25.51,29.787,25.777z"/>
			</g>
		</g>
		<path fill="#FFFFFF" d="M52.1,21.705v5.793c-0.53-0.667-1.086-1.311-2.026-2.344c-0.765-0.84-2.359-2.563-3.178-3.448h-2.193
			l-0.091,0.527c0,0,0.093,0.157,0.2,0.346c0.121,0.208,0.146,0.307,0.149,0.419c0,0.009-0.001,7.441-0.001,7.441L47,30.433v-5.785
			c0.408,0.542,1.134,1.377,1.616,1.902c0.964,1.042,2.419,2.667,3.552,3.889h1.962v-8.732L52.1,21.705z"/>
		<path fill="#FFFFFF" d="M74.339,21.707v5.339c0,0.596-0.12,0.951-0.409,1.222c-0.367,0.342-0.974,0.507-1.853,0.507
			c-0.89,0-1.513-0.164-1.879-0.507c-0.291-0.271-0.409-0.627-0.409-1.222v-5.339h-2.528l-0.092,0.527c0,0,0.094,0.157,0.2,0.346
			c0.114,0.2,0.141,0.298,0.146,0.407c0,0.014,0.002,4.143,0.002,4.143c0,2.283,1.546,3.445,4.528,3.445h0.063
			c2.985,0,4.451-1.13,4.451-3.445v-5.423H74.339z"/>
		<path fill="#FFFFFF" d="M62.463,21.707h-2.838c-0.86,1.778-2.357,5.057-3.76,8.733h2.278c0.183-0.496,0.375-1.005,0.569-1.513
			h4.662c0.195,0.508,0.388,1.017,0.568,1.513h2.281C64.82,26.764,63.322,23.484,62.463,21.707z M59.364,27.28
			c0.598-1.487,1.196-2.895,1.678-3.985c0.482,1.09,1.084,2.498,1.681,3.985H59.364z"/>
	</g>
	<g>
		
			<linearGradient id="SVGID_2_" gradientUnits="userSpaceOnUse" x1="392.7148" y1="-259.8413" x2="392.7148" y2="-240.335" gradientTransform="matrix(1 0 0 -1 -383.5 -223.9502)">
			<stop  offset="0" style="stop-color:#E5E5E5"/>
			<stop  offset="0.6866" style="stop-color:#FFFFFF"/>
			<stop  offset="1" style="stop-color:#929191"/>
		</linearGradient>
		<path fill="url(#SVGID_2_)" d="M16.835,25.759c-0.345-0.73-1.155-2.313-1.978-3.807c-1.157-2.104-2.97-5.101-3.156-5.357
			c-0.05-0.069-0.09-0.115-0.133-0.146c-0.023-0.017-0.046-0.028-0.071-0.037c-0.046-0.015-0.148-0.005-0.224,0.002
			c-0.041,0.003-0.092,0.002-0.131,0.001c-0.386-0.016-1.163-0.032-1.929-0.032c-0.941,0-2.075,0.028-2.222,0.043
			c-0.076,0.008-0.105,0.021-0.134,0.035c-0.038,0.021-0.076,0.042-0.137,0.132c-0.177,0.263-1.996,3.253-3.153,5.357
			c-0.822,1.492-1.632,3.076-1.977,3.806c-0.092,0.193-0.104,0.32-0.104,0.381c0,0.104,0.035,0.232,0.104,0.381
			c0.345,0.729,1.157,2.312,1.977,3.805c1.157,2.104,2.969,5.101,3.157,5.357c0.029,0.039,0.055,0.071,0.079,0.098
			c0.042,0.044,0.08,0.07,0.125,0.084c0.047,0.014,0.138,0.005,0.213-0.002c0.041-0.005,0.092-0.004,0.13-0.001
			c0.466,0.015,1.184,0.031,1.941,0.031c0.941,0,2.04-0.023,2.206-0.044l0.027-0.002c0.062-0.007,0.098-0.017,0.118-0.025
			c0.038-0.016,0.07-0.047,0.148-0.154c0.186-0.257,1.99-3.238,3.147-5.342c0.822-1.492,1.631-3.075,1.977-3.805
			c0.092-0.195,0.105-0.346,0.105-0.405C16.939,26.009,16.905,25.906,16.835,25.759z M11.493,26.534
			c-0.775,1.735-1.325,2.819-2.141,4.388c-0.046,0.091-0.085,0.149-0.139,0.15c-0.054,0-0.091-0.06-0.139-0.15
			c-0.815-1.568-1.366-2.651-2.14-4.388c-0.068-0.148-0.115-0.26-0.115-0.398c0.003-0.135,0.049-0.247,0.115-0.393
			c0.775-1.736,1.324-2.82,2.14-4.389c0.048-0.091,0.084-0.149,0.138-0.15l0,0l0,0h0.001c0.053,0,0.092,0.06,0.14,0.15
			c0.815,1.569,1.366,2.651,2.14,4.389c0.068,0.148,0.113,0.259,0.113,0.399C11.605,26.281,11.557,26.39,11.493,26.534z"/>
		<defs>
			<filter id="Adobe_OpacityMaskFilter" filterUnits="userSpaceOnUse" x="1.487" y="16.385" width="15.454" height="19.507">
				<feColorMatrix  type="matrix" values="1 0 0 0 0  0 1 0 0 0  0 0 1 0 0  0 0 0 1 0"/>
			</filter>
		</defs>
		<mask maskUnits="userSpaceOnUse" x="1.487" y="16.385" width="15.454" height="19.507" id="SVGID_3_">
			<g filter="url(#Adobe_OpacityMaskFilter)">
				
					<linearGradient id="SVGID_4_" gradientUnits="userSpaceOnUse" x1="392.4678" y1="-261.2349" x2="392.4678" y2="-250.2388" gradientTransform="matrix(1 0 0 -1 -383.5 -223.9502)">
					<stop  offset="0.8545" style="stop-color:#FFFFFF"/>
					<stop  offset="1" style="stop-color:#010101"/>
				</linearGradient>
				<rect x="-0.956" y="26.289" fill="url(#SVGID_4_)" width="19.848" height="10.996"/>
			</g>
		</mask>
		
			<radialGradient id="SVGID_5_" cx="5642.9424" cy="-4612.2334" r="159.0876" gradientTransform="matrix(0.0611 0 0 -0.0614 -336.5515 -261.777)" gradientUnits="userSpaceOnUse">
			<stop  offset="0.401" style="stop-color:#FFFFFF"/>
			<stop  offset="1" style="stop-color:#929191"/>
		</radialGradient>
		<path mask="url(#SVGID_3_)" fill="url(#SVGID_5_)" d="M16.835,25.759c-0.345-0.73-1.155-2.313-1.978-3.807
			c-1.157-2.104-2.97-5.101-3.156-5.357c-0.05-0.069-0.09-0.115-0.133-0.146c-0.023-0.017-0.046-0.028-0.071-0.037
			c-0.046-0.015-0.148-0.005-0.224,0.002c-0.041,0.003-0.092,0.002-0.131,0.001c-0.386-0.016-1.163-0.032-1.929-0.032
			c-0.941,0-2.075,0.028-2.222,0.043c-0.076,0.008-0.105,0.021-0.134,0.035c-0.038,0.021-0.076,0.042-0.137,0.132
			c-0.177,0.263-1.996,3.253-3.153,5.357c-0.822,1.492-1.632,3.076-1.977,3.806c-0.092,0.193-0.104,0.32-0.104,0.381
			c0,0.104,0.035,0.232,0.104,0.381c0.345,0.729,1.157,2.312,1.977,3.805c1.157,2.104,2.969,5.101,3.157,5.357
			c0.029,0.039,0.055,0.071,0.079,0.098c0.042,0.044,0.08,0.07,0.125,0.084c0.047,0.014,0.138,0.005,0.213-0.002
			c0.041-0.005,0.092-0.004,0.13-0.001c0.466,0.015,1.184,0.031,1.941,0.031c0.941,0,2.04-0.023,2.206-0.044l0.027-0.002
			c0.062-0.007,0.098-0.017,0.118-0.025c0.038-0.016,0.07-0.047,0.148-0.154c0.186-0.257,1.99-3.238,3.147-5.342
			c0.822-1.492,1.631-3.075,1.977-3.805c0.092-0.195,0.105-0.346,0.105-0.405C16.939,26.009,16.905,25.906,16.835,25.759z
			 M11.493,26.534c-0.775,1.735-1.325,2.819-2.141,4.388c-0.046,0.091-0.085,0.149-0.139,0.15c-0.054,0-0.091-0.06-0.139-0.15
			c-0.815-1.568-1.366-2.651-2.14-4.388c-0.068-0.148-0.115-0.26-0.115-0.398c0.003-0.135,0.049-0.247,0.115-0.393
			c0.775-1.736,1.324-2.82,2.14-4.389c0.048-0.091,0.084-0.149,0.138-0.15l0,0l0,0h0.001c0.053,0,0.092,0.06,0.14,0.15
			c0.815,1.569,1.366,2.651,2.14,4.389c0.068,0.148,0.113,0.259,0.113,0.399C11.605,26.281,11.557,26.39,11.493,26.534z"/>
		<g>
			
				<linearGradient id="SVGID_6_" gradientUnits="userSpaceOnUse" x1="388.8574" y1="-259.7476" x2="388.8574" y2="-250.1359" gradientTransform="matrix(1 0 0 -1 -383.5 -223.9502)">
				<stop  offset="0.0104" style="stop-color:#E5E5E5"/>
				<stop  offset="0.3385" style="stop-color:#A7A6A6"/>
				<stop  offset="0.6941" style="stop-color:#333333"/>
				<stop  offset="0.8452" style="stop-color:#1A1A1A"/>
				<stop  offset="0.948" style="stop-color:#131313"/>
				<stop  offset="0.9623" style="stop-color:#161616"/>
				<stop  offset="0.9728" style="stop-color:#1D1D1D"/>
				<stop  offset="0.9821" style="stop-color:#2D2E2D"/>
				<stop  offset="0.9907" style="stop-color:#454545"/>
				<stop  offset="0.9987" style="stop-color:#616262"/>
				<stop  offset="1" style="stop-color:#676767"/>
			</linearGradient>
			<path fill="url(#SVGID_6_)" d="M6.342,26.771c0,0-0.228-0.426-0.236-0.594c-0.001-0.021-0.002-0.028,0-0.052
				c0.003-0.043-0.013-0.027-0.05,0.007c-0.068,0.064-0.185,0.126-0.471,0.126c-0.254,0-2.415-0.003-3.444-0.003
				c-0.151,0-0.354-0.011-0.354,0.228c0,0.142,0.121,0.424,0.372,0.912c1.367,2.672,2.885,5.342,4.512,7.951
				c0,0,0.249,0.399,0.274,0.433C6.97,35.812,7,35.826,7.061,35.825c0,0,1.032-1.89,1.866-3.95
				C7.998,30.162,7.143,28.473,6.342,26.771z"/>
			
				<linearGradient id="SVGID_7_" gradientUnits="userSpaceOnUse" x1="390.5615" y1="-259.7734" x2="390.5617" y2="-259.7734" gradientTransform="matrix(1 0 0 -1 -383.5 -223.9502)">
				<stop  offset="0.0104" style="stop-color:#E5E5E5"/>
				<stop  offset="0.3385" style="stop-color:#A7A6A6"/>
				<stop  offset="0.6941" style="stop-color:#333333"/>
				<stop  offset="0.8452" style="stop-color:#1A1A1A"/>
				<stop  offset="0.948" style="stop-color:#131313"/>
				<stop  offset="0.9623" style="stop-color:#161616"/>
				<stop  offset="0.9728" style="stop-color:#1D1D1D"/>
				<stop  offset="0.9821" style="stop-color:#2D2E2D"/>
				<stop  offset="0.9907" style="stop-color:#454545"/>
				<stop  offset="0.9987" style="stop-color:#616262"/>
				<stop  offset="1" style="stop-color:#676767"/>
			</linearGradient>
			<path fill="url(#SVGID_7_)" d="M7.06,35.823C7.06,35.823,7.061,35.823,7.06,35.823C7.061,35.823,7.061,35.823,7.06,35.823z"/>
		</g>
		
			<linearGradient id="SVGID_8_" gradientUnits="userSpaceOnUse" x1="395.4805" y1="-259.7466" x2="395.4805" y2="-250.1291" gradientTransform="matrix(1 0 0 -1 -383.5 -223.9502)">
			<stop  offset="0.0104" style="stop-color:#E5E5E5"/>
			<stop  offset="0.3385" style="stop-color:#A7A6A6"/>
			<stop  offset="0.6941" style="stop-color:#333333"/>
			<stop  offset="0.8452" style="stop-color:#1A1A1A"/>
			<stop  offset="0.9538" style="stop-color:#131313"/>
			<stop  offset="0.9665" style="stop-color:#161616"/>
			<stop  offset="0.9758" style="stop-color:#1D1D1D"/>
			<stop  offset="0.9841" style="stop-color:#2D2E2D"/>
			<stop  offset="0.9917" style="stop-color:#454545"/>
			<stop  offset="0.9988" style="stop-color:#616262"/>
			<stop  offset="1" style="stop-color:#676767"/>
		</linearGradient>
		<path fill="url(#SVGID_8_)" d="M16.749,26.163c-0.036,0.038-0.141,0.094-0.373,0.094c-0.083,0-2.001,0-2.837,0
			c-1.301,0-1.169-0.035-1.507,0.654c-0.15,0.307-0.306,0.667-0.464,0.963c-1.135,2.375-3.908,7.158-4.281,7.75
			c-0.141,0.223-0.162,0.236-0.06,0.236c0,0,0.941,0.034,1.987,0.034c1.635,0,2.219-0.046,2.219-0.046
			c0.948-1.476,3.209-5.217,4.825-8.458c0.372-0.745,0.558-1.07,0.54-1.23C16.793,26.129,16.765,26.148,16.749,26.163z"/>
		
			<linearGradient id="SVGID_9_" gradientUnits="userSpaceOnUse" x1="392.2939" y1="-250.0239" x2="392.2939" y2="-240.3438" gradientTransform="matrix(1 0 0 -1 -383.5 -223.9502)">
			<stop  offset="0" style="stop-color:#333333"/>
			<stop  offset="0.0088" style="stop-color:#292929"/>
			<stop  offset="0.0237" style="stop-color:#1E1E1E"/>
			<stop  offset="0.04" style="stop-color:#1A1A1A"/>
			<stop  offset="0.1225" style="stop-color:#171617"/>
			<stop  offset="0.2256" style="stop-color:#070707"/>
			<stop  offset="0.2521" style="stop-color:#010101"/>
		</linearGradient>
		<path fill="url(#SVGID_9_)" d="M11.357,16.454c-0.07-0.002-0.12,0.05-0.217,0.199c-0.802,1.243-3.57,6.46-4.702,8.893
			C6.3,25.844,6.23,25.988,6.23,26.133l0.589,0.002c0-0.002,0,0.001,0,0c0.003-0.134,0.049-0.246,0.115-0.392
			c0.775-1.736,1.324-2.82,2.14-4.389c0.048-0.091,0.084-0.149,0.138-0.15l0,0l0.229-0.668
			C10.24,18.547,11.357,16.454,11.357,16.454z"/>
		
			<linearGradient id="SVGID_10_" gradientUnits="userSpaceOnUse" x1="394.2031" y1="-250.0923" x2="394.2031" y2="-244.4873" gradientTransform="matrix(1 0 0 -1 -383.5 -223.9502)">
			<stop  offset="0" style="stop-color:#747474"/>
			<stop  offset="0.1485" style="stop-color:#6F6F6F"/>
			<stop  offset="0.3324" style="stop-color:#5E5F5F"/>
			<stop  offset="0.5348" style="stop-color:#464646"/>
			<stop  offset="0.7493" style="stop-color:#222222"/>
			<stop  offset="0.7954" style="stop-color:#1A1A1A"/>
			<stop  offset="0.9207" style="stop-color:#010101"/>
		</linearGradient>
		<path fill="url(#SVGID_10_)" d="M12.193,26.143c0-0.145-0.068-0.287-0.207-0.582c-0.781-1.662-1.599-3.279-2.544-5.023
			l-0.229,0.668l0,0h0.001c0.054,0,0.092,0.059,0.14,0.15c0.815,1.568,1.366,2.651,2.14,4.388c0.066,0.147,0.111,0.258,0.111,0.398
			c0,0.001,0-0.003,0,0H12.193z"/>
		
			<linearGradient id="SVGID_11_" gradientUnits="userSpaceOnUse" x1="391.2217" y1="-255.7031" x2="391.2217" y2="-250.0947" gradientTransform="matrix(1 0 0 -1 -383.5 -223.9502)">
			<stop  offset="0.3571" style="stop-color:#C0BFBF"/>
			<stop  offset="0.4744" style="stop-color:#BBBBBB"/>
			<stop  offset="0.6097" style="stop-color:#ADADAD"/>
			<stop  offset="0.7539" style="stop-color:#969595"/>
			<stop  offset="0.9034" style="stop-color:#767677"/>
			<stop  offset="0.9631" style="stop-color:#676767"/>
			<stop  offset="1" style="stop-color:#333333"/>
		</linearGradient>
		<path fill="url(#SVGID_11_)" d="M9.213,31.072L9.213,31.072c-0.054,0-0.091-0.06-0.139-0.15c-0.815-1.568-1.366-2.651-2.14-4.388
			c-0.068-0.148-0.115-0.26-0.115-0.398l0,0L6.23,26.135c0,0.146,0.066,0.291,0.207,0.589l0,0c0.781,1.661,1.595,3.275,2.542,5.02
			L9.213,31.072z"/>
		
			<linearGradient id="SVGID_12_" gradientUnits="userSpaceOnUse" x1="393.4248" y1="-253.8027" x2="388.3218" y2="-251.5009" gradientTransform="matrix(1 0 0 -1 -383.5 -223.9502)">
			<stop  offset="0.0132" style="stop-color:#F3F3F3;stop-opacity:0.8"/>
			<stop  offset="0.1096" style="stop-color:#EDEDED;stop-opacity:0"/>
		</linearGradient>
		<path fill="url(#SVGID_12_)" d="M9.213,31.072L9.213,31.072c-0.054,0-0.091-0.06-0.139-0.15c-0.815-1.568-1.366-2.651-2.14-4.388
			c-0.068-0.148-0.115-0.26-0.115-0.398c0,0,0,0,0-0.001L6.23,26.133c0,0.146,0.066,0.293,0.207,0.591l0,0
			c0.781,1.661,1.595,3.275,2.542,5.02L9.213,31.072z"/>
		
			<linearGradient id="SVGID_13_" gradientUnits="userSpaceOnUse" x1="393.126" y1="-259.7114" x2="393.126" y2="-250.0298" gradientTransform="matrix(1 0 0 -1 -383.5 -223.9502)">
			<stop  offset="0" style="stop-color:#FFFFFF"/>
			<stop  offset="0.2163" style="stop-color:#F8F9FA"/>
			<stop  offset="0.5116" style="stop-color:#E7E7E7"/>
			<stop  offset="0.8508" style="stop-color:#CBCBCB"/>
			<stop  offset="0.9693" style="stop-color:#C0BFBF"/>
			<stop  offset="0.9913" style="stop-color:#747474"/>
		</linearGradient>
		<path fill="url(#SVGID_13_)" d="M7.06,35.823c0.065,0.004,0.143-0.076,0.232-0.213c0.024-0.037,0.056-0.09,0.094-0.154
			c0.605-1.029,3.518-6.407,4.595-8.724c0.139-0.298,0.211-0.446,0.211-0.591h-0.587l0,0c0,0.139-0.049,0.246-0.113,0.392
			c-0.775,1.735-1.325,2.819-2.141,4.388c-0.046,0.091-0.085,0.149-0.139,0.15L8.979,31.74C8.137,33.852,7.06,35.823,7.06,35.823z"
			/>
		
			<linearGradient id="SVGID_14_" gradientUnits="userSpaceOnUse" x1="387.4551" y1="-260.0962" x2="387.4551" y2="-250.0894" gradientTransform="matrix(1 0 0 -1 -383.5 -223.9502)">
			<stop  offset="0" style="stop-color:#676767"/>
			<stop  offset="0.1851" style="stop-color:#5E5F5F"/>
			<stop  offset="0.584" style="stop-color:#525252"/>
			<stop  offset="0.9698" style="stop-color:#4E4E4E"/>
			<stop  offset="0.9879" style="stop-color:#767677"/>
			<stop  offset="1" style="stop-color:#8C8C8C"/>
		</linearGradient>
		<path fill="url(#SVGID_14_)" d="M6.805,35.78c-0.024-0.025-0.05-0.058-0.079-0.098c-0.187-0.256-1.998-3.254-3.157-5.357
			c-0.822-1.492-1.632-3.075-1.977-3.805c-0.07-0.148-0.104-0.275-0.104-0.381H1.106c0,0.129,0.028,0.298,0.142,0.545
			c0.269,0.582,1.022,2.067,1.987,3.825c1.055,1.917,2.968,5.106,3.182,5.398c0.087,0.119,0.164,0.193,0.234,0.238L6.805,35.78z"/>
		
			<linearGradient id="SVGID_15_" gradientUnits="userSpaceOnUse" x1="390.791" y1="-258.8877" x2="394.645" y2="-261.1128" gradientTransform="matrix(1 0 0 -1 -383.5 -223.9502)">
			<stop  offset="0.0193" style="stop-color:#676767"/>
			<stop  offset="0.0407" style="stop-color:#4B4B4B"/>
			<stop  offset="0.0625" style="stop-color:#373636"/>
			<stop  offset="0.0841" style="stop-color:#292929"/>
			<stop  offset="0.105" style="stop-color:#252525"/>
		</linearGradient>
		<path fill="url(#SVGID_15_)" d="M6.652,36.146c0.103,0.065,0.197,0.073,0.313,0.083c0.286,0.026,1.531,0.047,2.249,0.047
			s2.064-0.028,2.249-0.047c0.088-0.008,0.169-0.016,0.251-0.052l-0.151-0.355c-0.019,0.01-0.055,0.019-0.118,0.025l-0.025,0.001
			c-0.166,0.021-1.265,0.043-2.206,0.044c-0.757,0-1.475-0.017-1.941-0.031c-0.04-0.001-0.091-0.003-0.13,0.001
			c-0.076,0.007-0.167,0.016-0.213,0.002c-0.044-0.015-0.083-0.039-0.125-0.084L6.652,36.146z"/>
		
			<linearGradient id="SVGID_16_" gradientUnits="userSpaceOnUse" x1="393.709" y1="-242.8022" x2="402.2517" y2="-247.4792" gradientTransform="matrix(1 0 0 -1 -383.5 -223.9502)">
			<stop  offset="0" style="stop-color:#5A5A5A"/>
			<stop  offset="1" style="stop-color:#747474"/>
		</linearGradient>
		<path fill="url(#SVGID_16_)" d="M17.322,26.139c0-0.105-0.023-0.297-0.143-0.545c-0.288-0.601-1.21-2.415-1.987-3.825
			c-1.041-1.886-2.959-5.1-3.181-5.399c-0.119-0.157-0.207-0.231-0.296-0.27l-0.146,0.35c0.042,0.031,0.083,0.077,0.132,0.146
			c0.187,0.256,1.999,3.253,3.157,5.357c0.822,1.492,1.631,3.076,1.977,3.806c0.07,0.147,0.105,0.251,0.105,0.356L17.322,26.139z"/>
		
			<linearGradient id="SVGID_17_" gradientUnits="userSpaceOnUse" x1="394.9814" y1="-240.8584" x2="390.3563" y2="-239.5321" gradientTransform="matrix(1 0 0 -1 -383.5 -223.9502)">
			<stop  offset="0.0096" style="stop-color:#5A5A5A"/>
			<stop  offset="0.0254" style="stop-color:#767677"/>
			<stop  offset="0.0442" style="stop-color:#919090"/>
			<stop  offset="0.0609" style="stop-color:#A19F9F"/>
			<stop  offset="0.0738" style="stop-color:#A7A6A6"/>
			<stop  offset="0.5011" style="stop-color:#BFBEBE"/>
			<stop  offset="1" style="stop-color:#C0BFBF"/>
		</linearGradient>
		<path fill="url(#SVGID_17_)" d="M6.708,16.101l0.15,0.362c0.029-0.014,0.057-0.027,0.134-0.035
			c0.147-0.015,1.28-0.043,2.222-0.043c0.766,0,1.543,0.016,1.929,0.032c0.039,0.001,0.09,0.002,0.131-0.001
			c0.076-0.008,0.178-0.017,0.224-0.003c0.024,0.008,0.048,0.021,0.071,0.037l0.146-0.35c-0.084-0.038-0.167-0.042-0.263-0.05
			c-0.296-0.027-1.571-0.046-2.239-0.046c-0.587,0-1.952,0.015-2.272,0.048C6.843,16.059,6.77,16.075,6.708,16.101z"/>
		
			<linearGradient id="SVGID_18_" gradientUnits="userSpaceOnUse" x1="383.3125" y1="-246.7163" x2="391.5634" y2="-243.549" gradientTransform="matrix(1 0 0 -1 -383.5 -223.9502)">
			<stop  offset="0" style="stop-color:#8C8C8C"/>
			<stop  offset="0.9868" style="stop-color:#747474"/>
			<stop  offset="1" style="stop-color:#C0BFBF"/>
		</linearGradient>
		<path fill="url(#SVGID_18_)" d="M6.708,16.101c-0.12,0.051-0.192,0.139-0.303,0.285c-0.222,0.288-2.139,3.523-3.169,5.383
			c-0.726,1.308-1.879,3.577-1.988,3.825c-0.109,0.249-0.141,0.415-0.141,0.546h0.381c0-0.06,0.014-0.188,0.104-0.381
			c0.345-0.729,1.157-2.313,1.977-3.806c1.157-2.104,2.976-5.094,3.153-5.356c0.061-0.091,0.099-0.111,0.137-0.132L6.708,16.101z"/>
		
			<linearGradient id="SVGID_19_" gradientUnits="userSpaceOnUse" x1="397.9424" y1="-260.1265" x2="397.9424" y2="-250.064" gradientTransform="matrix(1 0 0 -1 -383.5 -223.9502)">
			<stop  offset="0.019" style="stop-color:#252525"/>
			<stop  offset="0.2159" style="stop-color:#2E2E2E"/>
			<stop  offset="0.5991" style="stop-color:#3C3C3B"/>
			<stop  offset="0.9698" style="stop-color:#404040"/>
			<stop  offset="0.9856" style="stop-color:#5D5D5D"/>
			<stop  offset="1" style="stop-color:#747474"/>
		</linearGradient>
		<path fill="url(#SVGID_19_)" d="M11.714,36.177c0.092-0.041,0.187-0.117,0.296-0.269c0.207-0.287,2.27-3.73,3.181-5.398
			c0.912-1.669,1.881-3.589,1.987-3.825c0.131-0.295,0.142-0.439,0.142-0.546l-0.381-0.024c0,0.059-0.014,0.21-0.104,0.405
			c-0.345,0.73-1.155,2.312-1.978,3.806c-1.157,2.104-2.961,5.085-3.146,5.343c-0.078,0.106-0.11,0.138-0.148,0.153c0,0,0.001,0,0,0
			L11.714,36.177z"/>
		<path fill="#FFFFFF" d="M11.274,16.416c0.007-0.001,0.014-0.001,0.021-0.002c0,0-0.097,0.074-0.343,0.073
			c-0.295-0.001-0.904-0.012-1.391-0.017c-0.898-0.005-1.971,0.012-2.472,0.036c-0.264,0.012-0.281,0.042-0.45,0.223l0,0
			l0.083-0.132c0.061-0.091,0.099-0.11,0.137-0.132c0.029-0.014,0.057-0.027,0.134-0.035c0.147-0.015,1.28-0.043,2.222-0.043
			c0.766,0,1.543,0.016,1.929,0.032C11.182,16.418,11.233,16.419,11.274,16.416"/>
		<g>
			<g>
				<defs>
					<path id="SVGID_20_" d="M17.323,26.139c0-0.093-0.019-0.288-0.142-0.546c-0.295-0.614-1.211-2.419-1.989-3.827
						c-0.061-0.109-0.124-0.222-0.189-0.34c-0.838-0.505-1.822-0.798-2.875-0.798c-1.046,0-2.026,0.29-2.865,0.793
						c0.072,0.138,0.644,1.229,1.166,2.298c0.488,1.002,0.917,1.964,0.964,2.069c0.064,0.143,0.104,0.238,0.104,0.354
						c0,0.111-0.039,0.196-0.101,0.34l-0.004,0.008c-0.003,0.01-0.451,1.018-0.967,2.076c-0.463,0.947-0.967,1.916-1.161,2.288
						l-0.009,0.018c-0.019,0.036-0.035,0.062-0.043,0.062c-0.006,0-0.023-0.025-0.042-0.062c-0.002-0.005-0.012-0.025-0.029-0.055
						c-0.546-1.045-0.923-1.801-1.143-2.253c-0.494-1.011-0.933-2-0.965-2.074l-0.004-0.009c-0.055-0.132-0.099-0.235-0.099-0.346
						s0.051-0.231,0.104-0.347c0.003-0.007,0.012-0.025,0.026-0.058c0.312-0.709,0.627-1.387,0.936-2.013
						c0.448-0.909,0.951-1.881,1.118-2.204c-1.541,0.997-2.56,2.734-2.56,4.709c0,3.091,2.497,5.598,5.578,5.598
						c0.993,0,1.924-0.261,2.732-0.716c0.121-0.215,0.233-0.415,0.332-0.596c0.888-1.623,1.874-3.571,1.988-3.826
						C17.306,26.405,17.323,26.257,17.323,26.139z"/>
				</defs>
				<clipPath id="SVGID_21_">
					<use xlink:href="#SVGID_20_"  overflow="visible"/>
				</clipPath>
				<g clip-path="url(#SVGID_21_)">
					<defs>
						<filter id="Adobe_OpacityMaskFilter_1_" filterUnits="userSpaceOnUse" x="6.571" y="20.627" width="11.195" height="11.195">
							<feColorMatrix  type="matrix" values="1 0 0 0 0  0 1 0 0 0  0 0 1 0 0  0 0 0 1 0"/>
						</filter>
					</defs>
					<mask maskUnits="userSpaceOnUse" x="6.571" y="20.627" width="11.195" height="11.195" id="SVGID_1_">
						<g id="XMLID_2_" filter="url(#Adobe_OpacityMaskFilter_1_)">
							
								<radialGradient id="SVGID_22_" cx="5679.8164" cy="-4690.5938" r="27.1885" gradientTransform="matrix(0.0614 0 0 -0.0614 -336.5688 -261.777)" gradientUnits="userSpaceOnUse">
								<stop  offset="0.1664" style="stop-color:#FFFFFF"/>
								<stop  offset="0.1876" style="stop-color:#EBEBEB"/>
								<stop  offset="0.2456" style="stop-color:#BBBBBB"/>
								<stop  offset="0.3083" style="stop-color:#8F8F8E"/>
								<stop  offset="0.3742" style="stop-color:#686969"/>
								<stop  offset="0.4441" style="stop-color:#484848"/>
								<stop  offset="0.5193" style="stop-color:#2D2E2D"/>
								<stop  offset="0.6017" style="stop-color:#191919"/>
								<stop  offset="0.6951" style="stop-color:#0D0D0D"/>
								<stop  offset="0.8088" style="stop-color:#040404"/>
								<stop  offset="1" style="stop-color:#010101"/>
							</radialGradient>
							<circle fill="url(#SVGID_22_)" cx="12.186" cy="26.225" r="1.669"/>
						</g>
					</mask>
					
						<radialGradient id="SVGID_23_" cx="5679.5273" cy="-4690.5859" r="91.2833" gradientTransform="matrix(0.0614 0 0 -0.0614 -336.5688 -261.777)" gradientUnits="userSpaceOnUse">
						<stop  offset="0" style="stop-color:#FFFFFF"/>
						<stop  offset="0.5897" style="stop-color:#FFFFFF;stop-opacity:0"/>
					</radialGradient>
					<circle mask="url(#SVGID_1_)" fill="url(#SVGID_23_)" cx="12.169" cy="26.225" r="5.597"/>
				</g>
			</g>
		</g>
		<path fill="#010101" d="M11.494,25.743c-0.031-0.07-0.467-1.052-0.967-2.073c-0.542-1.111-1.148-2.268-1.173-2.314
			c-0.049-0.091-0.088-0.15-0.14-0.15s-0.087,0.052-0.14,0.15c-0.025,0.047-0.646,1.239-1.177,2.315
			c-0.528,1.071-0.937,2.014-0.963,2.072c-0.055,0.119-0.115,0.258-0.115,0.393s0.052,0.252,0.113,0.398
			c0.029,0.069,0.469,1.058,0.969,2.079c0.543,1.112,1.149,2.264,1.172,2.309c0.046,0.09,0.085,0.15,0.139,0.15
			c0.053,0,0.092-0.06,0.139-0.15c0.024-0.048,0.628-1.197,1.171-2.309c0.498-1.018,0.937-2.006,0.97-2.079
			c0.067-0.155,0.113-0.257,0.113-0.392C11.605,26.005,11.561,25.896,11.494,25.743z M11.396,26.482l-0.003,0.008
			c-0.003,0.01-0.451,1.018-0.967,2.076c-0.463,0.947-0.967,1.916-1.161,2.288l-0.009,0.018c-0.019,0.036-0.035,0.062-0.043,0.062
			c-0.006,0-0.023-0.025-0.042-0.062c-0.002-0.005-0.012-0.025-0.029-0.055c-0.546-1.045-0.923-1.801-1.143-2.253
			c-0.494-1.011-0.933-2-0.965-2.074l-0.004-0.009c-0.055-0.132-0.099-0.235-0.099-0.346s0.051-0.231,0.104-0.347
			c0.003-0.007,0.012-0.025,0.026-0.058c0.312-0.709,0.627-1.387,0.936-2.013c0.544-1.104,1.17-2.303,1.176-2.313
			c0.018-0.033,0.033-0.063,0.043-0.063s0.026,0.031,0.044,0.064c0.004,0.009,0.616,1.173,1.172,2.312
			c0.488,1.002,0.917,1.964,0.964,2.069c0.062,0.143,0.103,0.238,0.103,0.354C11.498,26.253,11.458,26.339,11.396,26.482z"/>
		<path fill="#010101" d="M17.181,25.593c-0.295-0.614-1.211-2.419-1.989-3.827c-1.065-1.93-2.965-5.109-3.182-5.398
			c-0.212-0.286-0.331-0.297-0.529-0.319l-0.029-0.002C11.165,16.015,9.946,16,9.214,16c-0.628,0-1.963,0.016-2.273,0.048
			c-0.292,0.028-0.372,0.118-0.539,0.337c-0.229,0.298-2.162,3.566-3.169,5.383c-0.728,1.312-1.882,3.581-1.988,3.825
			c-0.097,0.221-0.142,0.394-0.142,0.547c0,0.162,0.045,0.335,0.142,0.546c0.242,0.524,0.97,1.975,1.988,3.827
			c1.062,1.929,2.978,5.12,3.182,5.397c0.214,0.294,0.355,0.305,0.548,0.322c0.295,0.026,1.568,0.047,2.249,0.047
			c0.735,0,2.065-0.029,2.25-0.047c0.181-0.016,0.339-0.029,0.548-0.322c0.194-0.269,2.256-3.705,3.181-5.397
			c0.888-1.624,1.874-3.572,1.989-3.827c0.125-0.28,0.142-0.429,0.142-0.546C17.323,26.047,17.305,25.852,17.181,25.593z
			 M17.081,26.64c-0.113,0.253-1.097,2.198-1.984,3.818c-0.924,1.69-2.983,5.12-3.173,5.386c-0.181,0.252-0.297,0.262-0.47,0.278
			c-0.182,0.016-1.506,0.045-2.239,0.045c-0.68,0-1.946-0.019-2.239-0.045c-0.184-0.017-0.285-0.025-0.47-0.279
			c-0.203-0.275-2.115-3.458-3.174-5.387c-1.017-1.847-1.744-3.295-1.984-3.817c-0.091-0.196-0.133-0.354-0.133-0.499
			c0-0.136,0.042-0.296,0.132-0.502c0.107-0.243,1.258-2.506,1.984-3.816c1.006-1.813,2.932-5.072,3.16-5.369
			c0.16-0.208,0.217-0.269,0.462-0.294c0.306-0.031,1.635-0.047,2.261-0.047c0.73,0,1.943,0.014,2.228,0.046l0.029,0.002
			c0.185,0.02,0.268,0.029,0.454,0.277c0.215,0.288,2.11,3.458,3.173,5.385c0.775,1.406,1.69,3.207,1.985,3.82
			c0.114,0.237,0.131,0.414,0.131,0.498C17.212,26.245,17.196,26.378,17.081,26.64z"/>
	</g>
</g>
</svg>
