<?xml version="1.0" encoding="utf-8"?>
<!-- Generator: Adobe Illustrator 16.0.0, SVG Export Plug-In . SVG Version: 6.00 Build 0)  -->
<!DOCTYPE svg PUBLIC "-//W3C//DTD SVG 1.1//EN" "http://www.w3.org/Graphics/SVG/1.1/DTD/svg11.dtd">
<svg version="1.1" id="Calque_1" xmlns="http://www.w3.org/2000/svg" xmlns:xlink="http://www.w3.org/1999/xlink" x="0px" y="0px"
	 width="200px" height="13.8px" viewBox="0 0 200 13.8" enable-background="new 0 0 200 13.8" xml:space="preserve">
<g id="g236" transform="translate(-4.4902713e-6,-182.9)">
	<g id="g238">
		<path id="path240"   fill="#C8A461" d="M3.716,185.245v3.361h6.41v2.068h-6.41v5.756H1.367
			v-13.278h8.939v2.093H3.716z"/>
		<path id="path242"   fill="#C8A461" d="M12.895,196.43v-13.278h9.137v2.093h-6.829v3.361h6.629
			v2.068h-6.629v3.644h6.829v2.112H12.895z"/>
		<path id="path244"   fill="#C8A461" d="M29.675,196.588c-3.203,0-5.335-0.796-5.335-3.862h2.35
			c0,1.334,0.637,1.751,3.028,1.751c2.567,0,2.983-0.635,2.983-2.089c0-1.293-0.498-1.473-1.492-1.553
			c-2.926-0.22-6.869,0.597-6.869-3.782c0-3.084,1.792-4.042,5.295-4.042c3.208,0,5.275,0.816,5.275,3.862h-2.308
			c0-1.572-0.996-1.749-3.006-1.749c-2.646,0-2.907,0.496-2.907,1.889c0,1.234,0.557,1.395,1.494,1.473
			c2.925,0.239,6.885-0.619,6.866,3.803C35.03,195.275,33.278,196.588,29.675,196.588z"/>
		<path id="path246"   fill="#C8A461" d="M42.556,185.245v11.185h-2.349v-11.185h-4.041v-2.093
			h10.43v2.093H42.556z"/>
		<path id="path248"   fill="#C8A461" d="M48.47,196.43v-13.278h2.346v13.278H48.47z"/>
		<path id="path250"   fill="#C8A461" d="M59.658,196.43h-2.311l-4.958-13.278h2.51l3.643,10.31
			l3.644-10.31h2.469L59.658,196.43z"/>
		<path id="path252"   fill="#C8A461" d="M73.865,196.43l-1.232-3.386h-5.177l-1.214,3.386h-2.449
			l5.135-13.278h2.41l5.095,13.278H73.865L73.865,196.43z M70.064,185.759l-1.87,5.255h3.723L70.064,185.759z"/>
		<path id="path254"   fill="#C8A461" d="M78.107,196.43v-13.278h2.349v11.166h6.59v2.112H78.107
			L78.107,196.43z"/>
		<path id="path256"   fill="#C8A461" d="M102.949,194.636c-0.954,1.414-2.387,1.794-4.857,1.794
			h-4.937v-13.278h4.918c2.468,0,3.901,0.397,4.855,1.81c0.698,1.038,0.878,2.229,0.878,4.839
			C103.807,192.408,103.647,193.6,102.949,194.636L102.949,194.636z M97.953,185.245h-2.486v9.073h2.505
			c2.669,0,3.485-0.14,3.485-4.517C101.457,185.422,100.621,185.245,97.953,185.245z"/>
		<path id="path258"   fill="#C8A461" d="M106.593,196.43v-13.278h9.138v2.093h-6.826v3.361h6.627
			v2.068h-6.627v3.644h6.826v2.112H106.593z"/>
		<path id="path260"   fill="#C8A461" d="M130.959,186.873c0-1.331-0.557-1.729-2.844-1.729
			c-2.668,0-3.086,0.856-3.086,4.658c0,3.798,0.396,4.636,3.064,4.636c2.289,0,2.845-0.377,2.845-1.711h2.312
			c0,3.008-1.951,3.862-4.977,3.862c-5.556,0-5.592-3.006-5.592-6.805c0-3.804,0.057-6.771,5.613-6.771
			c3.022,0,4.975,0.856,4.975,3.862L130.959,186.873L130.959,186.873z"/>
		<path id="path262"   fill="#C8A461" d="M144.336,196.43l-1.232-3.386h-5.178l-1.213,3.386h-2.448
			l5.136-13.278h2.408l5.096,13.278H144.336z M140.534,185.759l-1.871,5.255h3.724L140.534,185.759L140.534,185.759z"/>
		<path id="path264"   fill="#C8A461" d="M156.279,196.43l-5.511-9.536v9.536h-2.192v-13.278h2.39
			l5.536,9.456v-9.456h2.188v13.278H156.279L156.279,196.43z"/>
		<path id="path266"   fill="#C8A461" d="M170.414,196.43l-5.514-9.536v9.536h-2.189v-13.278h2.39
			l5.534,9.456v-9.456h2.188v13.278H170.414L170.414,196.43z"/>
		<path id="path268"   fill="#C8A461" d="M176.847,196.43v-13.278h9.134v2.093h-6.826v3.361h6.629
			v2.068h-6.629v3.644h6.826v2.112H176.847z"/>
		<path id="path270"   fill="#C8A461" d="M193.631,196.588c-3.207,0-5.338-0.796-5.338-3.862h2.35
			c0,1.334,0.637,1.751,3.023,1.751c2.568,0,2.986-0.635,2.986-2.089c0-1.293-0.496-1.473-1.492-1.553
			c-2.927-0.22-6.867,0.597-6.867-3.782c0-3.084,1.791-4.042,5.295-4.042c3.203,0,5.274,0.816,5.274,3.862h-2.31
			c0-1.572-0.994-1.749-3.004-1.749c-2.648,0-2.906,0.496-2.906,1.889c0,1.234,0.557,1.395,1.49,1.473
			c2.928,0.239,6.891-0.619,6.867,3.803C198.982,195.275,197.23,196.588,193.631,196.588z"/>
	</g>
</g>
</svg>
