<?xml version="1.0" encoding="utf-8"?>
<!-- Generator: Adobe Illustrator 19.1.0, SVG Export Plug-In . SVG Version: 6.00 Build 0)  -->
<svg version="1.1" id="Calque_1" xmlns="http://www.w3.org/2000/svg" xmlns:xlink="http://www.w3.org/1999/xlink" x="0px" y="0px"
	 viewBox="0 0 16.3 21.2" style="enable-background:new 0 0 16.3 21.2;" xml:space="preserve">
<path d="M0,0v21.2h16.3v-7V0H0z M12.9,18.5H3.4c-0.4,0-0.8-0.4-0.8-0.8c0-0.4,0.4-0.8,0.8-0.8h9.5c0.4,0,0.8,0.4,0.8,0.8
	C13.7,18.2,13.3,18.5,12.9,18.5z M12.9,15H3.4c-0.4,0-0.8-0.4-0.8-0.8c0-0.4,0.4-0.8,0.8-0.8h9.5c0.4,0,0.8,0.4,0.8,0.8
	C13.7,14.6,13.3,15,12.9,15z M12.9,11.4H3.4c-0.4,0-0.8-0.4-0.8-0.8S3,9.8,3.4,9.8h9.5c0.4,0,0.8,0.4,0.8,0.8S13.3,11.4,12.9,11.4z
	 M12.9,7.9H3.4C3,7.9,2.7,7.5,2.7,7.1S3,6.3,3.4,6.3h9.5c0.4,0,0.8,0.4,0.8,0.8S13.3,7.9,12.9,7.9z M12.9,4.3H3.4
	C3,4.3,2.7,3.9,2.7,3.5c0-0.4,0.4-0.8,0.8-0.8h9.5c0.4,0,0.8,0.4,0.8,0.8C13.7,3.9,13.3,4.3,12.9,4.3z"/>
</svg>
