<?xml version="1.0" encoding="UTF-8" standalone="no"?>
<!-- Generator: Adobe Illustrator 15.1.0, SVG Export Plug-In . SVG Version: 6.00 Build 0)  -->

<svg
   xmlns:dc="http://purl.org/dc/elements/1.1/"
   xmlns:cc="http://creativecommons.org/ns#"
   xmlns:rdf="http://www.w3.org/1999/02/22-rdf-syntax-ns#"
   xmlns:svg="http://www.w3.org/2000/svg"
   xmlns="http://www.w3.org/2000/svg"
   xmlns:sodipodi="http://sodipodi.sourceforge.net/DTD/sodipodi-0.dtd"
   xmlns:inkscape="http://www.inkscape.org/namespaces/inkscape"
   version="1.1"
   id="Calque_1"
   x="0px"
   y="0px"
   width="85.635px"
   height="60px"
   viewBox="0 0 85.635 60"
   enable-background="new 0 0 85.635 60"
   xml:space="preserve"
   inkscape:version="0.48.4 r9939"
   sodipodi:docname="langue.svgz"><metadata
   id="metadata43"><rdf:RDF><cc:Work
       rdf:about=""><dc:format>image/svg+xml</dc:format><dc:type
         rdf:resource="http://purl.org/dc/dcmitype/StillImage" /><dc:title></dc:title></cc:Work></rdf:RDF></metadata><defs
   id="defs41" /><sodipodi:namedview
   pagecolor="#ffffff"
   bordercolor="#666666"
   borderopacity="1"
   objecttolerance="10"
   gridtolerance="10"
   guidetolerance="10"
   inkscape:pageopacity="0"
   inkscape:pageshadow="2"
   inkscape:window-width="640"
   inkscape:window-height="480"
   id="namedview39"
   showgrid="false"
   inkscape:zoom="3.9333333"
   inkscape:cx="42.817501"
   inkscape:cy="30"
   inkscape:window-x="0"
   inkscape:window-y="0"
   inkscape:window-maximized="0"
   inkscape:current-layer="Calque_1" />
<g
   id="g3">
	<g
   id="g5">
		<rect
   x="7731"
   y="25"
   fill="#C8A461"
   width="55"
   height="5"
   id="rect7" />
	</g>
	<g
   id="g9">
		<rect
   x="7731"
   y="39"
   fill="#C8A461"
   width="55"
   height="5"
   id="rect11" />
	</g>
	<g
   id="g13">
		<rect
   x="7731"
   y="53"
   fill="#C8A461"
   width="55"
   height="5"
   id="rect15" />
	</g>
	<g
   id="g17">
		<rect
   x="7731"
   y="67"
   fill="#C8A461"
   width="27"
   height="5"
   id="rect19" />
	</g>
</g>
<g
   id="g21">
	<g
   id="g23">
		<path
   fill-rule="evenodd"
   clip-rule="evenodd"
   d="M17.63,10.709c0.534,0.377,1.775,0.532,3.084,0.355    C20.014,11.521,17.928,11.435,17.63,10.709z"
   id="path25" fill="#fff" />
		<path
   fill-rule="evenodd"
   clip-rule="evenodd"
   d="M21.544,6.677c1.11,0.137,2.217,0.294,3.321,0.475    c-0.098,1.115-3.119,1.401-3.558,2.253c0.027,0.151,0.354,0.155,0.355,0c0.071,0.126-2.387,1.063-0.712,0.949    c-0.748,0.199-1.499,0.199-2.252,0c-0.031-0.263,0.358-0.448,0.592-0.475c0.196-0.972-1.355-0.118-1.66-0.356    c-0.092-0.563-0.037,0.039-0.474-0.711c0.226-0.144,0.384-0.341,0.474-0.593c0.968,0.03,1.66,2.174,2.728,1.067    c-0.325-0.188-0.772-0.256-1.067-0.474c0.275-0.279,1.118,0.011,1.424-0.237c-0.698-0.393-1.449-0.591-2.253-0.594    C19.161,7.46,20.669,6.677,21.544,6.677C22.853,6.784,21.465,6.677,21.544,6.677z"
   id="path27" fill="#fff" />
		<path
   fill-rule="evenodd"
   clip-rule="evenodd"
   d="M30.559,6.677c0.8,0,2.799,0.017,3.677,0.592    c-0.969,0.219-1.955,0.418-2.609,0.949c0.591,0.29,4.537-0.116,5.219-0.355c-1.479,1.382-2.604,1.336-1.543,3.439    c-0.329-0.077-0.448,0.003-0.354,0.237c-0.629,0.97-2.461-0.562-0.238,1.187c0.233-0.461-1.314,0.39-1.186,0.355    c0.21,0.271,0.485,0.351,0.83,0.238c-0.758,0.595-2.845,0.023-2.966,1.423c-1.664-0.075-1.313,1.698-2.372,2.372    c-1.076-0.514-2.23-3.459-1.604-4.153c1.181-1.307-3.569-2.145-4.089-2.371c0.083-0.604,1.11-0.569-0.593-0.711    c0.801-0.066,1.434-0.421,1.898-1.067c0.053-0.194-0.646-0.194-0.594,0C26.066,7.02,29.343,7.941,30.559,6.677    C30.637,6.677,30.442,6.798,30.559,6.677z"
   id="path29" fill="#fff" />
		<path
   fill-rule="evenodd"
   clip-rule="evenodd"
   d="M50.839,14.504c0.365,0.085,5.582-0.399,5.931-0.592    c0.07-0.419-1.117-2.026,0.593-1.779c-0.291,1.667-0.084,1.483-0.83,2.372c-0.063,1.367,1.559-0.48,1.661-0.592    c0.252,0.322,0.568,0.559,0.948,0.712c0.07-1.226-1.911-0.892-1.187-2.253c0.188,0.396,0.503,0.593,0.95,0.592    c-1.063-0.174,1.567,0.181,1.186,0.237c0.617-0.737-0.824-0.926-0.476-1.424c2.42,0.041,4.621-1.758,7.591-1.186    c0.001,0.316-0.157,0.514-0.474,0.593c0.292,0.999,1.752,0.704,2.404,0.731c3.961,0.164-0.021,0.615,2.577,1.167    c0.843-0.824,2.992-0.747,3.32-0.355c1.586-0.745,9.504,1.283,10.675,2.135c-1.366,0.34-2.014,0.153-3.321,0.355    c0.139,0.391,0.377,0.707,0.713,0.949c-1.031,0.289-2.33,0.542-3.211,0.852c-1.042,0.367-0.813,3.26-2.245,3.063    c-0.735-2.301,2.011-2.39,2.016-3.914c-1.469,0.306-5.968,1.156-7.116,2.965c0.466,1.19,2.26,0.799,0.525,3.096    c-0.33,0.775-0.904,1.174-1.724,1.2c-0.612,0.69-0.126,2.049-0.581,2.346c-0.334-1.168-1.224-2.79-2.491-1.186    c-0.006,0.339,0.79,1.926,0.949,3.083c-0.612,1.897-2.738,1.523-3.913,2.729c0.625,0.63,1.487,2.593,0,2.965    c-0.276-1.187-0.751-1.384-1.424-0.593c-0.765-2.028-0.581-1.42-1.898-3.32c-1.868,0.612-2.979,2.096-3.202,4.031    c-1.533-1.502-0.753-3.607-2.21-4.345c-0.785-0.398-4.181-2.029-5.024-1.941c-0.113,0.776,1.341,3.284,1.897,1.542    c1.075,2.088-0.673,2.688-2.847,3.439c-0.527-1.528-1.096-3.822-2.608-4.743c-1.294,2.156,2.914,5.335,4.27,5.455    c0.074,2.694-3.648,3.015-2.739,6.059c0.335,1.123-1.644,5.486-2.606,6.37c-4.243,3.892-3.344-10.066-5.438-10.72    c-2.496-0.776-4.181,0.653-5.583-2.657c0.62-1.214-0.198-2.249,0.821-3.362c0.483-0.529,1.67-2.145,1.788-2.805    c3.767,0.814,2.956-0.692,5.931,1.541c1.107-0.024,4.777,0.209,4.27-2.252c-1.224,0.285-2.333,0.436-2.136-0.83    c1.059-1.079,2.457,0.183,3.559-0.594c0.005-0.464-0.718-1.304-0.83-1.778c-1.546-0.31-2.118,1.643-3.796,2.253    c0.175,0.302,0.214,0.618,0.119,0.949c-0.575-0.776-1.34-2.265-2.491-2.847c-0.661,0.727,0.59,1.419,0.949,1.898    c-1.704,0.17-1.832-2.608-3.688-0.339c-1.301,1.59-2.479,1.959-2.479-0.609c1.021,0.387,2.897-0.558,1.303-1.542    c0.664-0.299,3-1.636,3.085-2.373c1.522,1.089,2.914-0.493,3.677-0.711c-0.004-0.321-0.043-0.638-0.118-0.949    c0.544,0.122,1.018,0.003,1.423-0.356c-0.622-0.236-1.254-0.276-1.897-0.118c-0.039-0.75,0.236-1.343,0.83-1.778    c-0.033-0.224-0.152-0.382-0.355-0.475c-0.841,0.684-2.377,3.083-2.491,3.914c-0.284-0.451-0.521-0.925-0.712-1.424    c-0.294,0.292-0.649,0.451-1.067,0.475c0.38-2.729,5.585-7.193,8.184-3.202c-0.605,0.159-1.199,0.119-1.778-0.12    C47.578,16.533,50.518,15.677,50.839,14.504C51.853,14.742,50.645,15.211,50.839,14.504z"
   id="path31" fill="#fff" />
		<path
   fill-rule="evenodd"
   clip-rule="evenodd"
   d="M24.628,22.332c-2.813,0.041-4.093,4.003-4.034,6.286    c-0.87-0.221-0.17-1.353-1.306-1.429c-1.275-0.088-0.291,0.368-1.958,0.268c-1.533-0.093-1.157,2.109-0.744,2.827    c0.909,1.577,1.421-0.337,2.348-0.362c-0.217,0.721,0.605,3.553,1.66,3.559c-0.731,0.122-3.742-2.04-4.658-2.416    c-1.619-0.665-2.491-2.736-3.406-4.225c-0.418,0.332,0.491,2.101,0.622,2.101c-1.524,0.002-3.458-6.348-2.521-7.083    c-0.756-3.094-4.292-5.139-6.76-4.507c-0.963-0.438-0.131,0.661-1.779,1.067c0.777,0.252-1.808-1.736-1.778-1.661    c0.503-0.362,0.86-0.836,1.068-1.422c-0.63,0.394-1.104,0.274-1.424-0.356c0.435,0.013,0.87,0.013,1.304,0    c-0.305-0.441-0.66-0.837-1.067-1.187c2.468-1.915,5.48-0.071,7.472,0.712c0.706,0.072,4.734-1.809,6.168,0.238    c0.041-0.849,2.805-1.105,3.439-1.186c0.041-0.185-0.166-0.577-0.118-0.831c0.481,0.07,1.693,1.534,1.778,1.778    c0.437-0.176,0.673-0.492,0.712-0.948c1.534-0.115-0.341,1.493-1.305,1.541c-0.073,0.636-1.175,1.18-1.304,2.609    c1.087,0.869,2.741,2.707,3.676,3.083c0.545-1.376,0.743-2.798,0.593-4.269c1.495-0.723,1.556,0.953,2.016,1.542    c0.415-0.046,0.73-0.244,0.949-0.593c0.834,1.156,1.185,1.378,1.067,2.253c0.313,0.144,0.629,0.144,0.949,0    c0.068,0.193,0.107,0.391,0.118,0.595c-0.938,0.476-3.181,0.063-3.439,1.541c0.426-0.182,0.862-0.339,1.306-0.475    c-0.169,0.081,0.144,1.229,0.118,1.423C24.069,22.699,24.662,22.542,24.628,22.332C23.849,22.343,24.662,22.542,24.628,22.332z"
   id="path33" fill="#fff" />
		<path
   fill-rule="evenodd"
   clip-rule="evenodd"
   d="M21.782,49.967c0.304-1.759,2.581-7.85,0.61-9.155    c-3.036-2.015,0.138-6.285-1.441-7.331c0.71-2.135,6.246,0.714,6.167,2.966c1.573,0.921,4.815-0.56,3.62,2.789    c-0.465,1.3-3.163,7.226-4.925,6.698c-0.138,1.163-0.04,1.715-1.778,2.017c-0.088,1.534-0.729,2.646-1.304,4.27    C22.085,51.569,22.522,50.186,21.782,49.967C21.805,49.832,22.087,50.057,21.782,49.967z"
   id="path35" fill="#fff" />
		<path
   fill-rule="evenodd"
   clip-rule="evenodd"
   d="M73.256,45.46c-1.29-0.228-3.582,0.924-5.338,0.712    c-0.047-3.169-1.493-2.46,1.151-4.571c1.5-1.198,1.938-0.872,2.763-2.308c1.978,0.372-0.104,1.414,1.896,2.016    c0.382-0.573,0.579-1.206,0.595-1.898c1.519,2.429,3.138,4.291,1.832,7.167C75.41,48.219,72.826,47.145,73.256,45.46    C72.728,45.367,73.017,46.397,73.256,45.46z"
   id="path37" fill="#fff" />
	</g>
</g>
</svg>