<?xml version="1.0" encoding="UTF-8" standalone="no"?>
<!-- Generator: Adobe Illustrator 17.0.0, SVG Export Plug-In . SVG Version: 6.00 Build 0)  -->

<svg
   xmlns:dc="http://purl.org/dc/elements/1.1/"
   xmlns:cc="http://creativecommons.org/ns#"
   xmlns:rdf="http://www.w3.org/1999/02/22-rdf-syntax-ns#"
   xmlns:svg="http://www.w3.org/2000/svg"
   xmlns="http://www.w3.org/2000/svg"
   xmlns:sodipodi="http://sodipodi.sourceforge.net/DTD/sodipodi-0.dtd"
   xmlns:inkscape="http://www.inkscape.org/namespaces/inkscape"
   version="1.1"
   x="0px"
   y="0px"
   width="50px"
   height="50px"
   viewBox="0 0 50 50"
   enable-background="new 0 0 50 50"
   xml:space="preserve"
   id="svg2"
   inkscape:version="0.48.4 r9939"
   sodipodi:docname="Link.svgz"><metadata
   id="metadata727"><rdf:RDF><cc:Work
       rdf:about=""><dc:format>image/svg+xml</dc:format><dc:type
         rdf:resource="http://purl.org/dc/dcmitype/StillImage" /><dc:title></dc:title></cc:Work></rdf:RDF></metadata><defs
   id="defs725" /><sodipodi:namedview
   pagecolor="#c8a461"
   bordercolor="#666666"
   borderopacity="1"
   objecttolerance="10"
   gridtolerance="10"
   guidetolerance="10"
   inkscape:pageopacity="0"
   inkscape:pageshadow="2"
   inkscape:window-width="640"
   inkscape:window-height="480"
   id="namedview723"
   showgrid="false"
   inkscape:zoom="4.72"
   inkscape:cx="25"
   inkscape:cy="25"
   inkscape:window-x="0"
   inkscape:window-y="0"
   inkscape:window-maximized="0"
   inkscape:current-layer="svg2" />
<g
   id="Calque_1">
	<rect
   x="-503"
   y="-769"
   width="454"
   height="978"
   id="rect5" />
	<g
   id="g7">
		<path
   fill="#C8A461"
   d="M-291.504-602.879c-12.854,0-23.312-10.456-23.312-23.31c0-12.856,10.459-23.311,23.312-23.311    c12.853,0,23.31,10.455,23.31,23.311C-268.194-613.335-278.65-602.879-291.504-602.879z M-291.504-637.494    c-6.234,0-11.307,5.07-11.307,11.305c0,6.232,5.072,11.306,11.307,11.306c6.234,0,11.303-5.074,11.303-11.306    C-280.201-632.424-285.27-637.494-291.504-637.494z"
   id="path9" />
	</g>
	<path
   fill="#c8a461"
   d="M-229.956-623.852c0,6.427-5.216,11.642-11.639,11.642c-6.428,0-11.641-5.215-11.641-11.642   c0-6.428,5.213-11.642,11.641-11.642C-235.172-635.494-229.956-630.28-229.956-623.852z"
   id="path11" />
	<g
   id="g13">
		<polygon
   fill="#C8A461"
   points="-206.696,-616.688 -218.08,-628.076 -215.248,-630.904 -206.696,-622.349 -198.134,-630.904     -195.306,-628.076   "
   id="polygon15" />
	</g>
	<g
   id="g17">
		<polygon
   fill="#C8A461"
   points="-166.236,-620.072 -174.786,-628.63 -183.341,-620.072 -186.174,-622.9 -174.786,-634.287     -163.403,-622.9   "
   id="polygon19" />
	</g>
	<g
   id="g21">
		<g
   id="g23">
			<polygon
   fill="#C8A461"
   points="-171,-684 -178,-684 -178,-688 -176,-688 -176,-716 -221,-716 -221,-721 -171,-721    "
   id="polygon25" />
		</g>
		<g
   id="g27">
			<g
   id="g29">
				<path
   fill="#C8A461"
   d="M-180-674h-51v-37h51V-674z M-226-679h42v-27h-42V-679z"
   id="path31" />
			</g>
			<circle
   fill="#C8A461"
   cx="-218.291"
   cy="-699.452"
   r="3.767"
   id="circle33" />
			<polygon
   fill="#C8A461"
   points="-214.106,-682 -187,-682 -187,-695.411 -192.58,-702.568 -200.495,-693.132 -205.024,-695.812         "
   id="polygon35" />
		</g>
	</g>
	<polygon
   fill="#C8A461"
   points="-271,-720.875 -271,-674.25 -248.465,-697.562  "
   id="polygon37" />
	<g
   id="g39">
		<g
   id="g41">
			<rect
   x="-134"
   y="-721"
   fill="#C8A461"
   width="36"
   height="5"
   id="rect43" />
		</g>
		<g
   id="g45">
			<rect
   x="-95"
   y="-721"
   fill="#C8A461"
   width="5"
   height="5"
   id="rect47" />
		</g>
		<g
   id="g49">
			<rect
   x="-126"
   y="-707"
   fill="#C8A461"
   width="28"
   height="5"
   id="rect51" />
		</g>
		<g
   id="g53">
			<rect
   x="-95"
   y="-707"
   fill="#C8A461"
   width="5"
   height="5"
   id="rect55" />
		</g>
		<g
   id="g57">
			<rect
   x="-139"
   y="-693"
   fill="#C8A461"
   width="41"
   height="5"
   id="rect59" />
		</g>
		<g
   id="g61">
			<rect
   x="-95"
   y="-693"
   fill="#C8A461"
   width="5"
   height="5"
   id="rect63" />
		</g>
		<g
   id="g65">
			<rect
   x="-139"
   y="-679"
   fill="#C8A461"
   width="22"
   height="5"
   id="rect67" />
		</g>
		<polygon
   fill="#C8A461"
   points="-145,-721 -145,-692.75 -131.346,-706.875   "
   id="polygon69" />
	</g>
	<g
   id="g71">
		<path
   fill="#C8A461"
   d="M-419-715v-6h-4v6h-29v-6h-4v6h-4v41h45v-41H-419z M-419-679h-37v-26h37V-679z"
   id="path73" />
		<g
   id="g75">
			<path
   fill="#C8A461"
   d="M-446.629-696.719h-0.054l-3.354,1.596l-0.677-3.084l4.68-2.164h3.382v17.583h-3.977V-696.719z"
   id="path77" />
			<path
   fill="#C8A461"
   d="M-424.258-700.371v2.597l-7.249,14.986h-4.355l7.249-14.147v-0.054h-8.061v-3.381H-424.258z"
   id="path79" />
		</g>
	</g>
	<g
   id="g81">
		<path
   fill="#c8a461"
   d="M-273-191v-6h-4v6h-29v-6h-4v6h-4v41h45v-41H-273z M-273-155h-37v-26h37V-155z"
   id="path83" />
		<g
   id="g85">
			<path
   fill="#c8a461"
   d="M-300.629-172.719h-0.054l-3.354,1.596l-0.677-3.084l4.68-2.164h3.382v17.583h-3.977V-172.719z"
   id="path87" />
			<path
   fill="#c8a461"
   d="M-278.258-176.371v2.598l-7.249,14.985h-4.355l7.249-14.147v-0.054h-8.061v-3.382H-278.258z"
   id="path89" />
		</g>
	</g>
	<g
   id="g91">
		<g
   id="g93">
			<rect
   x="-349"
   y="-721"
   fill="#C8A461"
   width="55"
   height="5"
   id="rect95" />
		</g>
		<g
   id="g97">
			<rect
   x="-349"
   y="-707"
   fill="#C8A461"
   width="55"
   height="5"
   id="rect99" />
		</g>
		<g
   id="g101">
			<rect
   x="-349"
   y="-693"
   fill="#C8A461"
   width="55"
   height="5"
   id="rect103" />
		</g>
		<g
   id="g105">
			<rect
   x="-349"
   y="-679"
   fill="#C8A461"
   width="27"
   height="5"
   id="rect107" />
		</g>
	</g>
	<g
   id="g109">
		<polygon
   fill="#C8A461"
   points="-149.359,-614.1 -152.19,-616.93 -143.629,-625.486 -152.19,-634.043 -149.359,-636.873     -137.973,-625.486   "
   id="polygon111" />
	</g>
	<g
   id="g113">
		<g
   id="g115">
			<path
   fill="#C8A461"
   d="M-371.165-650c-23.744,0-42.82,10.563-42.82,23.36c0,12.796,18.885,23.355,42.82,23.355     c23.794,0,42.814-10.558,42.814-23.355C-328.351-639.437-347.465-650-371.165-650z M-371.21-604.5     c-21.844,0-40.536-10.112-40.536-22.152c0-12.04,19.121-22.374,40.536-22.374c21.794,0,40.512,10.334,40.512,22.374     C-330.698-614.612-349.512-604.5-371.21-604.5z"
   id="path117" />
			<path
   fill="#C8A461"
   d="M-338.881-629.549c-1.318,0.269-2.542,0.69-3.796,1.064c-0.808,0.242-1.628,0.463-2.496,0.612     l-0.355-0.005l0.155-0.234c0.121-0.126,0.244-0.25,0.369-0.373c1.253-1.229,2.673-2.29,3.983-3.482     c0.411-0.481,1.312-0.847,1.022-1.72c-0.268-0.139-0.989,0.152-1.335,0.306c-2.55,1.316-4.896,2.795-7.051,4.851     c-0.062,0.06-0.125,0.12-0.188,0.18c-1.224,0.924-1.448,3.063-3.28,2.94c-1.161-0.107-1.328-0.095-1.775-0.253     c1.867-1.442,5.461-6.209,5.782-7.348c0,0,0.322-1.031-0.123-0.997c-1.713,0.623-3.329,2.074-4.663,3.247     c0.125-0.578,1.062-1.683,0.605-2.35c-2.965,0.625-7.146,4.592-7.166,4.605c-0.795,0.526-1.088,2.22-2.324,1.968     c-0.774-0.105-1.705-0.116-2.161-0.377c0.796-0.474,1.557-1.004,2.295-1.571c1.712-1.315,3.302-2.826,4.923-4.281     c0.092-0.213,0.626-0.424,0.322-0.745c-0.517-0.414-1.123,0.196-1.684,0.295c-2.567,1.125-4.302,2.639-5.997,4.73     c-0.316,0.392-0.789,0.894-1.071,1.345c-1.21-0.142-1.855-0.078-2.447-0.462c0.36-0.298,0.727-0.59,1.096-0.883     c1.976-1.565,3.99-3.108,5.497-5.429c-0.152-0.788-0.944-0.156-1.325-0.006c-2.695,1.331-4.911,2.972-6.609,5.572     c-0.104,0.16-0.206,0.325-0.303,0.496c-1.187-0.032-2.213-0.265-3.238-0.498c-0.021-0.005-0.044-0.01-0.065-0.015l0.009-0.11     c2.585-1.321,4.887-3.589,6.668-6.27c0,0,1.479-2.594-1.765-0.45c-2.421,1.557-4.626,3.612-6.172,6.534     c0,0-1.628,0.061-1.628-0.116c1.568-1.925,3.388-4.408,4.309-6.943c0.088-0.396,0.328-1.224-0.253-1.312     c-2.181,0.915-3.62,3.478-4.788,5.88c-0.356,0.706-0.552,1.596-0.869,2.268c-1.458-0.072-2.466,0.056-3.865-0.361     c1.755-1.54,3.671-2.81,5.27-4.659c0.27-0.504,2.067-1.735,2.022-3.323c-0.56-0.343-1.122,0.062-1.465,0.314l-4.923,3.924     l-0.259,0.014c0.786-1.405,2.499-3.46,3.202-4.91c0.237-0.488,0.529-0.93,0.508-1.522l-0.435-0.141     c-3.56,1.531-6.628,5.02-7.832,9.519c-0.294,0.417-0.438,1.214-1.043,0.977c-0.077-1.222-0.456-2.361-0.875-3.466     c-1.527-3.191-3.717-5.519-6.518-7.201c-0.456-0.261-0.72,0.232-0.569,0.613c0.393,2.246,1.78,3.656,2.736,5.361     c1.136,1.757,2.679,3.346,3.976,4.933c-0.442,0.15-10.567,2.562-12.368,4.02c-0.944,0.521-2.457,1.728-2.434,4.377     c0.079,0.78,0.625,1.548,1.316,1.779c0.655,0.094,1.117,0.151,1.548-0.143c1.866-2.378,4.029-4.554,6.44-6.001     c1.654-0.866,2.869-1.715,4.77-1.954c0.782,0.731,1.29,1.692,2.36,2.578c2.105,1.918,3.954,3.219,6.859,3.695l0.29-0.097     l-0.106-0.267c-1.536-2.234-3.885-3.644-6.288-4.812c-0.41-0.311-1.407-0.837-1.462-1.469c1.479-0.496,3.451-0.64,5.229-0.213     c2.126,3.691,4.47,7.744,7.877,10.067c0.253,0.06,0.431-0.294,0.304-0.525c-2.362-5.752-3.872-6.27-6.293-8.913     c-0.13-0.196-0.312-0.654,0.034-0.807l2.262,0.036c0.728,0.1,1.724-0.107,1.901,0.213c0.109,3.804,2.559,6.712,4.036,9.604     c0,0,0.476,0.274,0.45-0.223l0.015-0.032c-0.604-6.698-3.113-8.24-3.493-9.379c0.387-0.027,0.811-0.003,1.127,0.171     c1.592,3.241,3.755,5.687,6.602,7.523c0.061,0.04,0.417,0.083,0.186-0.433c-0.828-2.784-3.387-4.208-5.044-6.306l-0.291-0.542     l0.336-0.044c0.711,0.141,1.67,0.302,2.193,0.642c0.946,1.814,2.224,3.215,3.584,4.513c1.127,1.02,2.091,2.21,3.793,2.543     l0.181-0.026l0.053-0.147l-0.053-0.216c-1.053-2.755-3.893-3.914-5.898-5.857c-0.136-0.123-0.387-0.624-0.012-0.702l3.228,0.469     c4.857,6.484,6.735,6.227,6.735,6.227s1.458,0.338,0.791-0.729c-1.584-1.646-2.964-2.401-4.858-3.902     c-0.34-0.325-1.191-0.898-1.102-1.479c0.693,0.106,0.81,0.098,2.224,0.258c0.445,0.063,1.047,0.141,1.388,0.293     c2.536,1.132,2.757,4.68,8.913,5.426c0.22,0.02,0.267-0.275,0.114-0.468c-1.759-1.37-6.344-4.444-6.625-4.798     c0.587,0.053,3.053,0.406,3.441,0.587c3.096,1.672,4.991,2.918,9.421,2.332c0.38-0.557-0.237-0.782-0.761-0.988l-2.495-0.97     c-0.323-0.102-1.708-0.374-2.207-0.534c2.652-0.836,6.149-1.802,8.483-3.218c0.37-0.29,0.808-0.512,1.169-0.831     c0.245-0.216,0.453-0.48,0.581-0.84C-338.27-629.719-338.881-629.549-338.881-629.549z M-383.453-629.086     c-0.279-0.172-0.058-0.513,0.028-0.652c0.083-0.103,1.035-1.814,1.875-1.374C-381.4-630.69-382.857-628.991-383.453-629.086z      M-354.245-628.481c-0.467,0.767-0.132,1.862-0.743,2.576l-4.136-0.533c2.4-0.854,4.352-2.495,5.506-3.163L-354.245-628.481z      M-349.783-625.293c-0.034-0.446,0.479-0.842,0.801-1.145c1.391-1.138,1.6-0.03,1.6-0.03     C-348.016-625.972-348.912-625.384-349.783-625.293z"
   id="path119" />
		</g>
	</g>
	<path
   fill="#c8a461"
   d="M-443.796-501.901c0,0-4.519,0-7.514,0c-4.464,0-9.423,1.871-9.423,8.33c0.022,2.248,0,4.403,0,6.828h-5.16   v8.199h5.32v23.605h9.774v-23.763h6.453l0.584-8.065h-7.206c0,0,0.02-3.59,0-4.631c0-2.551,2.661-2.406,2.817-2.406   c1.271,0,3.728,0.003,4.361,0v-8.099h-0.008V-501.901z"
   id="path121" />
	<path
   fill="#C8A461"
   d="M-443.796-414.901c0,0-4.519,0-7.514,0c-4.464,0-9.423,1.871-9.423,8.33c0.022,2.248,0,4.403,0,6.828h-5.16   v8.199h5.32v23.605h9.774v-23.762h6.453l0.584-8.065h-7.206c0,0,0.02-3.59,0-4.631c0-2.551,2.661-2.406,2.817-2.406   c1.271,0,3.728,0.003,4.361,0v-8.099h-0.008V-414.901z"
   id="path123" />
	<path
   fill="#999999"
   d="M-443.796-328.9c0,0-4.519,0-7.514,0c-4.464,0-9.423,1.87-9.423,8.329c0.022,2.248,0,4.403,0,6.827h-5.16   v8.199h5.32v23.605h9.774v-23.762h6.453l0.584-8.065h-7.206c0,0,0.02-3.591,0-4.631c0-2.551,2.661-2.405,2.817-2.405   c1.271,0,3.728,0.003,4.361,0v-8.1h-0.008V-328.9z"
   id="path125" />
	<path
   fill="#c8a461"
   d="M-377.493-501.902h-34.603c-3.224,0-5.836,2.614-5.836,5.836v35.022c0,3.224,2.612,5.836,5.836,5.836   h34.603c3.224,0,5.836-2.612,5.836-5.836v-35.022C-371.657-499.289-374.27-501.902-377.493-501.902z M-385.274-478.554   c0,5.25-4.272,9.522-9.52,9.522c-5.25,0-9.522-4.272-9.522-9.522c0-1.579,0.393-3.064,1.075-4.377   c1.588-3.051,4.773-5.145,8.446-5.145c3.671,0,6.857,2.092,8.445,5.145C-385.667-481.62-385.274-480.133-385.274-478.554z    M-376.869-462.811c0,1.321-1.071,2.393-2.393,2.393h-30.861c-1.321,0-2.393-1.071-2.393-2.393v-20.121h3.947   c-0.439,1.382-0.682,2.851-0.682,4.377c0,7.97,6.483,14.453,14.453,14.453c7.969,0,14.452-6.483,14.452-14.453   c0-1.526-0.241-2.995-0.682-4.377h4.155v20.121H-376.869z M-376.869-490.467c0,1.321-1.071,2.393-2.393,2.393h-3.624   c-1.321,0-2.394-1.071-2.394-2.393v-3.955c0-1.049,0.68-1.93,1.62-2.253h4.396c1.32,0,2.392,1.072,2.392,2.393v3.815H-376.869z"
   id="path127" />
	<path
   fill="#C8A461"
   d="M-377.493-414.768h-34.603c-3.224,0-5.836,2.614-5.836,5.836v35.022c0,3.224,2.612,5.836,5.836,5.836   h34.603c3.224,0,5.836-2.612,5.836-5.836v-35.022C-371.657-412.154-374.27-414.768-377.493-414.768z M-385.274-391.42   c0,5.25-4.272,9.521-9.52,9.521c-5.25,0-9.522-4.271-9.522-9.521c0-1.579,0.393-3.064,1.075-4.377   c1.588-3.051,4.773-5.145,8.446-5.145c3.671,0,6.857,2.092,8.445,5.145C-385.667-394.485-385.274-392.999-385.274-391.42z    M-376.869-375.678c0,1.322-1.071,2.393-2.393,2.393h-30.861c-1.321,0-2.393-1.07-2.393-2.393v-20.121h3.947   c-0.439,1.382-0.682,2.85-0.682,4.377c0,7.97,6.483,14.453,14.453,14.453c7.969,0,14.452-6.483,14.452-14.453   c0-1.526-0.241-2.995-0.682-4.377h4.155v20.121H-376.869z M-376.869-403.332c0,1.321-1.071,2.393-2.393,2.393h-3.624   c-1.321,0-2.394-1.071-2.394-2.393v-3.955c0-1.049,0.68-1.93,1.62-2.253h4.396c1.32,0,2.392,1.072,2.392,2.393v3.815H-376.869z"
   id="path129" />
	<path
   fill="#999999"
   d="M-377.493-328.768h-34.603c-3.224,0-5.836,2.613-5.836,5.836v35.021c0,3.224,2.612,5.836,5.836,5.836   h34.603c3.224,0,5.836-2.612,5.836-5.836v-35.021C-371.657-326.154-374.27-328.768-377.493-328.768z M-385.274-305.42   c0,5.25-4.272,9.521-9.52,9.521c-5.25,0-9.522-4.271-9.522-9.521c0-1.579,0.393-3.065,1.075-4.377   c1.588-3.051,4.773-5.145,8.446-5.145c3.671,0,6.857,2.092,8.445,5.145C-385.667-308.485-385.274-306.999-385.274-305.42z    M-376.869-289.678c0,1.322-1.071,2.393-2.393,2.393h-30.861c-1.321,0-2.393-1.07-2.393-2.393v-20.121h3.947   c-0.439,1.383-0.682,2.852-0.682,4.377c0,7.971,6.483,14.453,14.453,14.453c7.969,0,14.452-6.483,14.452-14.453   c0-1.525-0.241-2.994-0.682-4.377h4.155v20.121H-376.869z M-376.869-317.332c0,1.32-1.071,2.392-2.393,2.392h-3.624   c-1.321,0-2.394-1.072-2.394-2.392v-3.955c0-1.049,0.68-1.93,1.62-2.254h4.396c1.32,0,2.392,1.072,2.392,2.393v3.815H-376.869z"
   id="path131" />
	<path
   fill="#c8a461"
   d="M-334.327-501.9v12.066h11.99v7.57h-11.99v15.589c0,0-0.226,8.693,13.34,2.697v7.419   c0,0-4.722,1.8-12.291,1.8c-7.57,0-11.092-3.974-11.092-8.694c0-4.722,0-18.963,0-18.963h-5.996v-5.996   c0,0,9.744-3.523,9.817-13.49h6.222V-501.9z"
   id="path133" />
	<path
   fill="#C8A461"
   d="M-334.327-414.99v12.066h11.99v7.57h-11.99v15.589c0,0-0.226,8.692,13.34,2.696v7.42   c0,0-4.722,1.799-12.291,1.799c-7.57,0-11.092-3.974-11.092-8.693c0-4.723,0-18.963,0-18.963h-5.996v-5.996   c0,0,9.744-3.523,9.817-13.49h6.222V-414.99z"
   id="path135" />
	<path
   fill="#999999"
   d="M-334.327-328.99v12.066h11.99v7.57h-11.99v15.589c0,0-0.226,8.692,13.34,2.696v7.42   c0,0-4.722,1.799-12.291,1.799c-7.57,0-11.092-3.974-11.092-8.693c0-4.723,0-18.963,0-18.963h-5.996v-5.996   c0,0,9.744-3.523,9.817-13.49h6.222V-328.99z"
   id="path137" />
	<path
   fill="#c8a461"
   d="M-241.773-496.34c-2.128,0.944-4.413,1.582-6.816,1.869c2.452-1.468,4.332-3.795,5.219-6.565   c-2.291,1.36-4.831,2.348-7.538,2.88c-2.164-2.306-5.249-3.746-8.663-3.746c-6.552,0-11.865,5.311-11.865,11.868   c0,0.929,0.105,1.835,0.306,2.705c-9.863-0.496-18.608-5.22-24.461-12.399c-1.022,1.753-1.607,3.792-1.607,5.967   c0,4.116,2.096,7.749,5.279,9.876c-1.945-0.061-3.774-0.595-5.376-1.484c0,0.049,0,0.099,0,0.15c0,5.751,4.09,10.546,9.52,11.636   c-0.997,0.273-2.044,0.416-3.127,0.416c-0.766,0-1.508-0.072-2.234-0.209c1.511,4.713,5.894,8.144,11.085,8.241   c-4.062,3.184-9.18,5.082-14.738,5.082c-0.957,0-1.903-0.057-2.832-0.169c5.253,3.368,11.489,5.334,18.191,5.334   c21.828,0,33.766-18.083,33.766-33.766c0-0.515-0.011-1.026-0.035-1.535C-245.377-491.87-243.364-493.96-241.773-496.34z"
   id="path139" />
	<path
   fill="#C8A461"
   d="M-241.773-409.367c-2.128,0.944-4.413,1.582-6.816,1.869c2.452-1.468,4.332-3.795,5.219-6.565   c-2.291,1.36-4.831,2.348-7.538,2.88c-2.164-2.306-5.249-3.746-8.663-3.746c-6.552,0-11.865,5.311-11.865,11.868   c0,0.929,0.105,1.835,0.306,2.705c-9.863-0.496-18.608-5.22-24.461-12.399c-1.022,1.753-1.607,3.792-1.607,5.967   c0,4.116,2.096,7.749,5.279,9.876c-1.945-0.061-3.774-0.595-5.376-1.484c0,0.049,0,0.099,0,0.15c0,5.751,4.09,10.546,9.52,11.636   c-0.997,0.273-2.044,0.416-3.127,0.416c-0.766,0-1.508-0.072-2.234-0.209c1.511,4.713,5.894,8.144,11.085,8.241   c-4.062,3.184-9.18,5.082-14.738,5.082c-0.957,0-1.903-0.057-2.832-0.169c5.253,3.368,11.489,5.335,18.191,5.335   c21.828,0,33.766-18.084,33.766-33.767c0-0.515-0.011-1.026-0.035-1.535C-245.377-404.897-243.364-406.986-241.773-409.367z"
   id="path141" />
	<path
   fill="#999999"
   d="M-241.773-323.365c-2.128,0.943-4.413,1.582-6.816,1.869c2.452-1.469,4.332-3.796,5.219-6.566   c-2.291,1.361-4.831,2.349-7.538,2.881c-2.164-2.307-5.249-3.746-8.663-3.746c-6.552,0-11.865,5.311-11.865,11.867   c0,0.929,0.105,1.835,0.306,2.705c-9.863-0.496-18.608-5.221-24.461-12.399c-1.022,1.753-1.607,3.792-1.607,5.968   c0,4.115,2.096,7.748,5.279,9.876c-1.945-0.062-3.774-0.595-5.376-1.483c0,0.049,0,0.099,0,0.149c0,5.751,4.09,10.546,9.52,11.636   c-0.997,0.273-2.044,0.416-3.127,0.416c-0.766,0-1.508-0.072-2.234-0.209c1.511,4.714,5.894,8.145,11.085,8.241   c-4.062,3.184-9.18,5.082-14.738,5.082c-0.957,0-1.903-0.057-2.832-0.169c5.253,3.368,11.489,5.335,18.191,5.335   c21.828,0,33.766-18.084,33.766-33.767c0-0.515-0.011-1.025-0.035-1.535C-245.377-318.896-243.364-320.985-241.773-323.365z"
   id="path143" />
	<path
   fill="#c8a461"
   d="M-156.109-492.496c0,0-0.122-8.767-10.217-9.129c-10.095-0.365-21.559-0.375-21.559-0.375h-2.089   c0,0-11.464,0.009-21.559,0.375c-10.095,0.365-10.216,9.186-10.216,9.186s-1.338,14.446-0.122,25.334   c0.919,8.228,2.676,11.009,12.284,11.494c9.607,0.487,19.627,0.612,19.627,0.612h2.059c0,0,10.02-0.14,19.628-0.626   c9.608-0.487,11.364-3.21,12.284-11.438C-154.773-477.952-156.109-492.496-156.109-492.496z M-196-469.392v-18.969l18.001,9.608   L-196-469.392z"
   id="path145" />
	<path
   fill="#C8A461"
   d="M-156.109-405.418c0,0-0.122-8.806-10.217-9.168c-10.095-0.365-21.559-0.414-21.559-0.414h-2.089   c0,0-11.464,0.049-21.559,0.414c-10.095,0.364-10.216,9.206-10.216,9.206s-1.338,14.456-0.122,25.343   c0.919,8.229,2.676,10.975,12.284,11.46c9.607,0.486,19.627,0.577,19.627,0.577h2.059c0,0,10.02-0.1,19.628-0.587   c9.608-0.487,11.364-3.19,12.284-11.419C-154.773-390.893-156.109-405.418-156.109-405.418z M-196-382.312v-18.969l18.001,9.608   L-196-382.312z"
   id="path147" />
	<path
   fill="#999999"
   d="M-156.109-319.338c0,0-0.122-8.806-10.217-9.168c-10.095-0.365-21.559-0.414-21.559-0.414h-2.089   c0,0-11.464,0.049-21.559,0.414c-10.095,0.364-10.216,9.205-10.216,9.205s-1.338,14.456-0.122,25.344   c0.919,8.229,2.676,10.975,12.284,11.46c9.607,0.486,19.627,0.577,19.627,0.577h2.059c0,0,10.02-0.1,19.628-0.587   s11.364-3.19,12.284-11.419C-154.773-304.812-156.109-319.338-156.109-319.338z M-196-296.232v-18.969l18.001,9.608L-196-296.232z"
   id="path149" />
	<path
   fill="#c8a461"
   d="M-93.247-501.902l-9.829,2.037v14.557c-2.239-2.862-5.351-4.23-9.394-4.23   c-4.23,0-8.025,1.555-11.136,4.604c-3.483,3.36-5.35,7.652-5.35,12.442c0,5.226,1.99,9.705,5.848,13.126   c2.924,2.613,6.407,3.919,10.451,3.919c3.981,0,6.967-1.058,9.891-3.919v3.733h9.519V-501.902z M-110.479-464.344   c-5.04,0-8.647-3.546-8.647-8.212c0-4.479,3.607-8.274,8.273-8.274c4.604,0,8.149,3.608,8.149,8.398   C-102.703-467.828-106.249-464.344-110.479-464.344"
   id="path151" />
	<path
   fill="#C8A461"
   d="M-93.247-414.728l-9.829,2.037v14.557c-2.239-2.862-5.351-4.23-9.394-4.23   c-4.23,0-8.025,1.555-11.136,4.604c-3.483,3.36-5.35,7.652-5.35,12.442c0,5.226,1.99,9.705,5.848,13.126   c2.924,2.613,6.407,3.919,10.451,3.919c3.981,0,6.967-1.057,9.891-3.919v3.733h9.519V-414.728z M-110.479-377.169   c-5.04,0-8.647-3.546-8.647-8.212c0-4.479,3.607-8.274,8.273-8.274c4.604,0,8.149,3.608,8.149,8.398   C-102.703-380.652-106.249-377.169-110.479-377.169"
   id="path153" />
	<path
   fill="#999999"
   d="M-93.247-328.648l-9.829,2.037v14.557c-2.239-2.861-5.351-4.23-9.394-4.23   c-4.23,0-8.025,1.555-11.136,4.604c-3.483,3.359-5.35,7.652-5.35,12.442c0,5.226,1.99,9.705,5.848,13.126   c2.924,2.613,6.407,3.919,10.451,3.919c3.981,0,6.967-1.057,9.891-3.919v3.733h9.519V-328.648z M-110.479-291.09   c-5.04,0-8.647-3.546-8.647-8.212c0-4.479,3.607-8.274,8.273-8.274c4.604,0,8.149,3.609,8.149,8.398   C-102.703-294.573-106.249-291.09-110.479-291.09"
   id="path155" />
	<polygon
   fill="#14100A"
   points="-98.988,-633.644 -102.253,-636.908 -110.451,-628.71 -118.649,-636.908 -121.914,-633.644    -113.716,-625.445 -121.914,-617.247 -118.649,-613.982 -110.451,-622.18 -102.253,-613.982 -98.988,-617.248 -107.186,-625.445     "
   id="polygon157" />
	<g
   id="g159">
		<path
   fill="#c8a461"
   d="M-398.714-182.794c0,8.114-6.586,14.699-14.696,14.699c-8.116,0-14.698-6.585-14.698-14.699    c0-8.116,6.582-14.7,14.698-14.7C-405.3-197.494-398.714-190.91-398.714-182.794z"
   id="path161" />
		<path
   fill="#c8a461"
   d="M-387.148-150c-3.998-13-15.321-16.828-15.321-16.828c-3.576,3.845-11.196,4.088-11.196,4.088    s-6.99-0.225-10.566-4.069c0,0-10.102,3.81-14.1,16.81h24.41H-387.148z"
   id="path163" />
	</g>
	<path
   fill="#c8a461"
   d="M-468.76-197.494c-12.963,0-23.476,10.515-23.476,23.477c0,12.96,10.513,23.477,23.476,23.477   c12.952,0,23.471-10.517,23.471-23.477C-445.289-186.98-455.808-197.494-468.76-197.494z M-460.025-159.27l-11.01-12.27L-472-174   v-12h5v11.472l10.696,11.919L-460.025-159.27z"
   id="path165" />
	<path
   fill="#c8a461"
   d="M-236.028-197.078c-9.956,0-18.03,8.322-18.03,18.579c0,2.6,0.523,5.077,1.459,7.323   c0,0,2.111,3.879,3.266,5.181l13.268,15.827l13.048-15.496c1.379-1.481,3.558-5.512,3.558-5.512   c0.938-2.246,1.462-4.724,1.462-7.323C-217.999-188.756-226.077-197.078-236.028-197.078z M-236.086-173.352   c-3.696,0-6.693-2.998-6.693-6.692c0-3.696,2.997-6.694,6.693-6.694c3.692,0,6.691,2.998,6.691,6.694   C-229.395-176.35-232.394-173.352-236.086-173.352z"
   id="path167" />
	<path
   fill="#c8a461"
   d="M-328.28-158.738l-12.502-10.117c1.381-2.695,2.165-5.743,2.165-8.973c0-10.891-8.858-19.748-19.747-19.748   c-10.89,0-19.75,8.857-19.75,19.748c0,10.89,8.86,19.748,19.75,19.748c4.289,0,8.259-1.378,11.5-3.71l12.722,10.296   c0.863,0.698,1.899,1.037,2.929,1.037c1.358,0,2.704-0.591,3.625-1.729C-325.97-154.186-326.279-157.119-328.28-158.738z    M-358.359-164.537c-7.402,0-13.406-6.006-13.406-13.406c0-7.402,6.004-13.407,13.406-13.407c7.395,0,13.403,6.005,13.403,13.407   C-344.956-170.543-350.964-164.537-358.359-164.537z"
   id="path169" />
	<g
   id="g171">
		
			<rect
   x="-176.709"
   y="-194.439"
   transform="matrix(0.7277 0.6859 -0.6859 0.7277 -176.531 65.5331)"
   fill="#c8a461"
   width="11.805"
   height="9.721"
   id="rect173" />
		<path
   fill="#c8a461"
   d="M-180.816-187.564l-25.453,27.007l-1.345,10.032l9.935-1.936l25.454-27.008L-180.816-187.564z     M-180.671-182.655l3.538,3.334l-22.306,23.666l-0.138,0.027l-3.419-3.222l0.02-0.139L-180.671-182.655z"
   id="path175" />
	</g>
	<g
   id="g177">
		<g
   id="g179">
			<path
   fill-rule="evenodd"
   clip-rule="evenodd"
   fill="#c8a461"
   d="M-127.381-192.879c0.546,0.386,1.813,0.544,3.151,0.363     C-124.945-192.05-127.077-192.138-127.381-192.879z"
   id="path181" />
			<path
   fill-rule="evenodd"
   clip-rule="evenodd"
   fill="#c8a461"
   d="M-123.381-197c1.135,0.14,2.266,0.301,3.394,0.485     c-0.1,1.14-3.188,1.432-3.636,2.303c0.027,0.154,0.361,0.158,0.363,0c0.072,0.129-2.439,1.087-0.728,0.97     c-0.765,0.203-1.531,0.203-2.302,0c-0.032-0.268,0.366-0.458,0.604-0.485c0.2-0.993-1.385-0.12-1.696-0.364     c-0.095-0.575-0.038,0.04-0.484-0.727c0.23-0.146,0.393-0.349,0.484-0.606c0.989,0.031,1.696,2.222,2.787,1.091     c-0.332-0.191-0.789-0.262-1.091-0.484c0.281-0.285,1.143,0.011,1.455-0.242c-0.713-0.401-1.48-0.604-2.303-0.607     C-125.817-196.199-124.275-197-123.381-197C-122.044-196.891-123.462-197-123.381-197z"
   id="path183" />
			<path
   fill-rule="evenodd"
   clip-rule="evenodd"
   fill="#c8a461"
   d="M-114.169-197c0.817,0,2.86,0.018,3.758,0.605     c-0.99,0.224-1.998,0.427-2.667,0.97c0.604,0.296,4.637-0.118,5.333-0.363c-1.511,1.413-2.661,1.365-1.576,3.515     c-0.337-0.078-0.458,0.003-0.362,0.242c-0.643,0.991-2.516-0.574-0.244,1.213c0.239-0.472-1.343,0.398-1.211,0.363     c0.214,0.276,0.496,0.358,0.848,0.243c-0.774,0.607-2.907,0.023-3.03,1.454c-1.7-0.077-1.343,1.735-2.424,2.424     c-1.1-0.525-2.279-3.535-1.639-4.244c1.207-1.336-3.647-2.192-4.179-2.423c0.085-0.617,1.135-0.582-0.606-0.726     c0.818-0.067,1.465-0.431,1.939-1.091c0.055-0.198-0.66-0.198-0.606,0C-118.76-196.649-115.411-195.708-114.169-197     C-114.089-197-114.288-196.876-114.169-197z"
   id="path185" />
			<path
   fill-rule="evenodd"
   clip-rule="evenodd"
   fill="#c8a461"
   d="M-93.443-189.001c0.373,0.087,5.704-0.408,6.061-0.605     c0.072-0.428-1.142-2.07,0.606-1.818c-0.298,1.703-0.086,1.516-0.849,2.424c-0.064,1.396,1.593-0.491,1.697-0.605     c0.258,0.329,0.581,0.571,0.97,0.727c0.071-1.253-1.953-0.911-1.213-2.303c0.191,0.405,0.514,0.606,0.971,0.605     c-1.086-0.178,1.603,0.185,1.212,0.242c0.631-0.753-0.843-0.946-0.486-1.455c2.474,0.042,4.723-1.797,7.758-1.212     c0.001,0.323-0.161,0.525-0.484,0.607c0.299,1.021,1.791,0.719,2.457,0.747c4.048,0.167-0.021,0.628,2.634,1.192     c0.861-0.842,3.059-0.764,3.394-0.363c1.621-0.761,9.713,1.312,10.909,2.182c-1.397,0.348-2.058,0.156-3.395,0.363     c0.142,0.399,0.386,0.723,0.729,0.97c-1.054,0.295-2.381,0.554-3.281,0.87c-1.064,0.375-0.83,3.332-2.294,3.13     c-0.752-2.352,2.055-2.442,2.059-4c-1.501,0.312-6.099,1.182-7.272,3.03c0.477,1.217,2.31,0.816,0.537,3.164     c-0.338,0.792-0.924,1.2-1.762,1.227c-0.626,0.705-0.129,2.094-0.594,2.397c-0.341-1.194-1.25-2.852-2.546-1.212     c-0.006,0.347,0.808,1.969,0.97,3.15c-0.625,1.939-2.798,1.557-3.999,2.788c0.639,0.644,1.521,2.65,0,3.03     c-0.282-1.213-0.768-1.414-1.455-0.605c-0.781-2.073-0.594-1.451-1.939-3.393c-1.909,0.626-3.044,2.142-3.272,4.12     c-1.567-1.535-0.77-3.686-2.259-4.44c-0.803-0.407-4.272-2.073-5.135-1.983c-0.116,0.793,1.37,3.355,1.939,1.575     c1.099,2.134-0.688,2.747-2.909,3.515c-0.539-1.561-1.12-3.906-2.666-4.847c-1.322,2.203,2.979,5.453,4.363,5.574     c0.076,2.754-3.729,3.081-2.8,6.192c0.343,1.148-1.68,5.607-2.663,6.51c-4.337,3.977-3.417-10.288-5.558-10.955     c-2.552-0.794-4.272,0.667-5.706-2.716c0.634-1.24-0.202-2.299,0.839-3.436c0.494-0.54,1.707-2.191,1.828-2.866     c3.849,0.832,3.021-0.707,6.061,1.574c1.132-0.024,4.882,0.214,4.363-2.302c-1.25,0.291-2.384,0.445-2.183-0.849     c1.082-1.103,2.511,0.188,3.637-0.607c0.005-0.475-0.733-1.333-0.849-1.817c-1.579-0.316-2.164,1.679-3.879,2.303     c0.179,0.309,0.219,0.632,0.122,0.97c-0.588-0.793-1.369-2.314-2.546-2.909c-0.676,0.742,0.603,1.45,0.97,1.939     c-1.741,0.174-1.872-2.665-3.769-0.347c-1.329,1.625-2.534,2.002-2.534-0.623c1.043,0.395,2.962-0.57,1.332-1.575     c0.679-0.306,3.065-1.672,3.152-2.425c1.556,1.113,2.979-0.504,3.758-0.727c-0.004-0.328-0.044-0.651-0.121-0.97     c0.556,0.124,1.04,0.003,1.454-0.364c-0.636-0.241-1.281-0.282-1.939-0.121c-0.04-0.767,0.242-1.372,0.849-1.817     c-0.034-0.229-0.155-0.391-0.363-0.485c-0.859,0.699-2.429,3.15-2.546,4c-0.29-0.461-0.533-0.945-0.728-1.455     c-0.301,0.299-0.664,0.461-1.091,0.485c0.389-2.788,5.708-7.351,8.363-3.273c-0.619,0.163-1.226,0.122-1.817-0.122     C-96.775-186.928-93.772-187.802-93.443-189.001C-92.407-188.758-93.642-188.278-93.443-189.001z"
   id="path187" />
			<path
   fill-rule="evenodd"
   clip-rule="evenodd"
   fill="#c8a461"
   d="M-120.23-181.001c-2.875,0.042-4.183,4.091-4.122,6.424     c-0.889-0.226-0.174-1.382-1.335-1.46c-1.303-0.09-0.297,0.377-2.001,0.273c-1.566-0.095-1.183,2.156-0.76,2.89     c0.929,1.611,1.452-0.345,2.399-0.37c-0.222,0.736,0.619,3.631,1.696,3.637c-0.747,0.124-3.824-2.085-4.761-2.47     c-1.654-0.68-2.546-2.796-3.48-4.317c-0.427,0.339,0.502,2.147,0.636,2.147c-1.558,0.002-3.533-6.487-2.576-7.238     c-0.773-3.162-4.386-5.252-6.908-4.606c-0.984-0.447-0.134,0.676-1.818,1.091c0.794,0.258-1.848-1.774-1.817-1.697     c0.515-0.37,0.879-0.855,1.092-1.453c-0.643,0.402-1.128,0.28-1.455-0.364c0.444,0.014,0.889,0.014,1.333,0     c-0.312-0.451-0.675-0.855-1.091-1.213c2.522-1.957,5.601-0.072,7.636,0.727c0.721,0.073,4.838-1.849,6.304,0.243     c0.042-0.867,2.866-1.13,3.515-1.212c0.041-0.189-0.17-0.59-0.121-0.849c0.492,0.071,1.73,1.567,1.817,1.817     c0.446-0.18,0.688-0.503,0.728-0.969c1.567-0.117-0.349,1.525-1.333,1.575c-0.075,0.649-1.201,1.206-1.333,2.666     c1.111,0.888,2.801,2.767,3.757,3.151c0.558-1.406,0.76-2.859,0.607-4.362c1.527-0.739,1.59,0.974,2.06,1.575     c0.424-0.047,0.746-0.249,0.97-0.606c0.853,1.182,1.211,1.408,1.091,2.303c0.32,0.146,0.644,0.146,0.97,0     c0.069,0.197,0.109,0.399,0.12,0.607c-0.958,0.486-3.251,0.064-3.515,1.575c0.436-0.186,0.881-0.347,1.334-0.485     c-0.173,0.083,0.147,1.256,0.121,1.454C-120.801-180.626-120.195-180.787-120.23-181.001     C-121.026-180.989-120.195-180.787-120.23-181.001z"
   id="path189" />
			<path
   fill-rule="evenodd"
   clip-rule="evenodd"
   fill="#c8a461"
   d="M-123.139-152.76c0.311-1.797,2.638-8.021,0.624-9.355     c-3.103-2.06,0.141-6.424-1.473-7.492c0.726-2.182,6.383,0.73,6.303,3.03c1.607,0.941,4.921-0.571,3.699,2.851     c-0.475,1.328-3.232,7.385-5.033,6.846c-0.142,1.189-0.041,1.752-1.817,2.061c-0.09,1.568-0.745,2.705-1.333,4.363     C-122.828-151.122-122.382-152.536-123.139-152.76C-123.115-152.898-122.826-152.668-123.139-152.76z"
   id="path191" />
			<path
   fill-rule="evenodd"
   clip-rule="evenodd"
   fill="#c8a461"
   d="M-70.534-157.365c-1.318-0.232-3.661,0.944-5.455,0.728     c-0.048-3.238-1.526-2.514,1.177-4.672c1.533-1.225,1.981-0.891,2.823-2.358c2.021,0.381-0.106,1.445,1.939,2.061     c0.39-0.586,0.592-1.232,0.607-1.94c1.552,2.482,3.207,4.385,1.872,7.324C-68.333-154.546-70.974-155.644-70.534-157.365     C-71.074-157.46-70.778-156.407-70.534-157.365z"
   id="path193" />
		</g>
	</g>
	<g
   id="g195">
		<path
   fill="#c8a461"
   d="M-476.533-91.092c0,0,44.525-2.191,48.034,44.744h-8.992c0,0,1.756-34.215-39.042-37.287V-91.092    L-476.533-91.092z"
   id="path197" />
		<path
   fill="#c8a461"
   d="M-476.533-75.517c0,0,26.102-0.88,31.145,29.169h-8.991c0,0-1.095-17.764-22.154-21.717V-75.517    L-476.533-75.517z"
   id="path199" />
		<path
   fill="#c8a461"
   d="M-471.646-55.95c3.147,0,5.703,2.551,5.703,5.704c0,3.146-2.557,5.702-5.703,5.702    c-3.151,0-5.704-2.554-5.704-5.702C-477.35-53.398-474.797-55.95-471.646-55.95z"
   id="path201" />
	</g>
	<g
   id="g203">
		<g
   id="g205">
			<path
   fill="#c8a461"
   d="M-385.965-53.177c-0.367,0-0.737-0.103-1.068-0.318c-4.306-2.796-6.875-7.523-6.875-12.646     c0-8.311,6.761-15.071,15.07-15.071c8.311,0,15.071,6.761,15.071,15.071c0,5.122-2.57,9.85-6.875,12.646     c-0.911,0.592-2.129,0.333-2.721-0.578c-0.592-0.912-0.332-2.13,0.578-2.721c3.184-2.068,5.084-5.562,5.084-9.347     c0-6.143-4.997-11.14-11.138-11.14s-11.139,4.997-11.139,11.14c0,3.785,1.901,7.278,5.086,9.347     c0.909,0.591,1.169,1.808,0.577,2.721C-384.69-53.494-385.32-53.177-385.965-53.177z"
   id="path207" />
		</g>
		<g
   id="g209">
			<path
   fill="#c8a461"
   d="M-393.127-47.561c-0.517,0-1.035-0.18-1.452-0.546c-5.213-4.553-8.204-11.128-8.204-18.039     c0-13.204,10.742-23.945,23.945-23.945c13.204,0,23.945,10.741,23.945,23.945c0,6.913-2.991,13.486-8.204,18.039     c-0.919,0.804-2.314,0.708-3.118-0.212c-0.803-0.919-0.709-2.315,0.212-3.117c4.251-3.713,6.69-9.075,6.69-14.71     c0-10.766-8.76-19.525-19.525-19.525c-10.767,0-19.524,8.76-19.524,19.525c0,5.635,2.439,10.997,6.689,14.71     c0.918,0.802,1.015,2.198,0.212,3.117C-391.898-47.818-392.513-47.561-393.127-47.561z"
   id="path211" />
		</g>
		<path
   fill="#c8a461"
   d="M-369.061-43.318l-8.918-14.405h-1.939l-8.697,14.405H-369.061z"
   id="path213" />
		<circle
   fill="#c8a461"
   cx="-378.866"
   cy="-65.91"
   r="5.561"
   id="circle215" />
	</g>
	<path
   fill="#c8a461"
   d="M-333-91v47h26v-47H-333z M-320.058-46.783c-1.034,0-1.874-0.839-1.874-1.874   c0-1.033,0.84-1.873,1.874-1.873c1.033,0,1.872,0.84,1.872,1.873C-318.186-47.622-319.024-46.783-320.058-46.783z M-310-53h-20v-35   h20V-53z"
   id="path217" />
	<g
   id="g219">
		<g
   id="g221">
			<g
   id="g223">
				<path
   fill="#C8A461"
   d="M-376-705.285v6.208c0,1.312-1.697,6.077-7.466,6.077c-5.765,0-7.534-4.963-7.534-6.275v-6.009v-0.396      v-8.718c0-1.313,1.769-6.276,7.534-6.276c5.768,0,7.466,4.765,7.466,6.078v8.917V-705.285z"
   id="path225" />
			</g>
		</g>
		<g
   id="g227">
			<rect
   x="-392"
   y="-679"
   fill="#C8A461"
   width="18"
   height="5"
   id="rect229" />
		</g>
		<g
   id="g231">
			<g
   id="g233">
				<path
   fill="#C8A461"
   d="M-383.44-684c-11.083,0-15.56-8.027-15.56-11.374V-699h4v3.626c0.031,0.915,2.496,7.374,11.56,7.374      c9.02,0,11.416-6.199,11.44-7.081V-699h4v3.921C-368-691.818-372.442-684-383.44-684z"
   id="path235" />
			</g>
		</g>
	</g>
</g>
<g
   id="Calque_2">
</g>
<g
   id="Calque_3">
	<g
   id="g239">
		<path
   fill="none"
   d="M-270.526-59.939c-0.081,0.197-0.148,0.399-0.202,0.606C-270.674-59.539-270.607-59.742-270.526-59.939    c0.117-0.283,0.262-0.554,0.433-0.81c0.15-0.225,0.322-0.437,0.513-0.637c-0.19,0.2-0.362,0.412-0.513,0.637    C-270.264-60.492-270.408-60.221-270.526-59.939z"
   id="path241" />
		<path
   fill="none"
   d="M-270.092-55.516c0.15,0.225,0.322,0.437,0.513,0.637C-269.77-55.078-269.942-55.291-270.092-55.516    c-0.171-0.256-0.316-0.527-0.433-0.81c-0.081-0.197-0.149-0.399-0.203-0.606c0.054,0.207,0.121,0.409,0.202,0.606    C-270.408-56.043-270.264-55.772-270.092-55.516z"
   id="path243" />
		<path
   fill="none"
   d="M-274.723-54.828c-0.053-0.139-0.104-0.279-0.15-0.42C-274.826-55.107-274.776-54.967-274.723-54.828z"
   id="path245" />
		<path
   fill="none"
   d="M-275.333-58.132c0-0.23,0.008-0.458,0.025-0.685C-275.325-58.59-275.333-58.362-275.333-58.132z"
   id="path247" />
		<path
   fill="none"
   d="M-275.309-57.447c-0.017-0.227-0.025-0.455-0.025-0.685C-275.333-57.902-275.325-57.674-275.309-57.447z"
   id="path249" />
		<path
   fill="none"
   d="M-274.873-55.248c-0.07-0.212-0.132-0.427-0.186-0.644C-275.005-55.675-274.943-55.46-274.873-55.248z"
   id="path251" />
		<path
   fill="none"
   d="M-267.971-53.77c-0.283-0.117-0.554-0.262-0.81-0.433c-0.128-0.086-0.252-0.178-0.372-0.277    c0.12,0.099,0.244,0.191,0.372,0.277C-268.524-54.032-268.253-53.888-267.971-53.77z"
   id="path253" />
		<path
   fill="none"
   d="M-264.805-49.062c0.149-0.022,0.297-0.048,0.443-0.077c0.294-0.058,0.583-0.131,0.868-0.217    c-0.285,0.086-0.575,0.159-0.868,0.217C-264.508-49.109-264.656-49.084-264.805-49.062z"
   id="path255" />
		<path
   fill="none"
   d="M-272.963-51.979c-0.204-0.225-0.396-0.459-0.575-0.7C-273.36-52.438-273.168-52.205-272.963-51.979z"
   id="path257" />
		<path
   fill="none"
   d="M-261.458-50.258c0.128-0.077,0.254-0.157,0.379-0.24c0.124-0.083,0.247-0.17,0.368-0.259    c-0.121,0.09-0.243,0.176-0.368,0.259C-261.204-50.415-261.33-50.335-261.458-50.258z"
   id="path259" />
		<path
   fill="none"
   d="M-265.836-71.39c0.176-0.153,0.355-0.3,0.541-0.438C-265.481-71.69-265.66-71.542-265.836-71.39z"
   id="path261" />
		<path
   fill="none"
   d="M-275.059-60.372c0.036-0.145,0.076-0.288,0.119-0.431C-274.984-60.661-275.023-60.517-275.059-60.372z"
   id="path263" />
		<path
   fill="none"
   d="M-263.943-53.967c0.109-0.058,0.215-0.122,0.319-0.189C-263.728-54.089-263.834-54.025-263.943-53.967z"
   id="path265" />
		<polygon
   fill="none"
   points="-254.94,-56.389 -258.09,-56.382 -254.94,-56.389   "
   id="polygon267" />
		<path
   fill="none"
   d="M-260.012-51.333c-0.225,0.204-0.459,0.396-0.7,0.575C-260.47-50.936-260.237-51.128-260.012-51.333z"
   id="path269" />
		<path
   fill="none"
   d="M-265.479-48.987c-0.227,0.017-0.455,0.025-0.685,0.025C-265.934-48.962-265.706-48.971-265.479-48.987z"
   id="path271" />
		<path
   fill="none"
   d="M-264.805-49.062c-0.223,0.033-0.448,0.058-0.675,0.074C-265.253-49.004-265.028-49.029-264.805-49.062z"
   id="path273" />
		<path
   fill="none"
   d="M-271.616-50.757c-0.185-0.138-0.365-0.285-0.541-0.438C-271.981-51.042-271.802-50.895-271.616-50.757z"
   id="path275" />
		<path
   fill="none"
   d="M-254.391-71.827c0.241,0.179,0.475,0.371,0.7,0.575C-253.916-71.456-254.15-71.648-254.391-71.827z"
   id="path277" />
		<path
   fill="none"
   d="M-256.332-72.929c0.137,0.057,0.273,0.117,0.408,0.181C-256.059-72.812-256.195-72.872-256.332-72.929z"
   id="path279" />
		<path
   fill="none"
   d="M-256.049-67.258c0.046,0.062,0.091,0.125,0.133,0.189c0.171,0.256,0.316,0.527,0.433,0.81    c-0.117-0.283-0.262-0.554-0.433-0.81C-255.958-67.133-256.002-67.196-256.049-67.258z"
   id="path281" />
		<path
   fill="none"
   d="M-257.617-73.351c0.439,0.109,0.868,0.25,1.285,0.423C-256.749-73.101-257.178-73.242-257.617-73.351z"
   id="path283" />
		<path
   fill="none"
   d="M-252.209-69.537c-0.25-0.373-0.528-0.73-0.835-1.068C-252.738-70.267-252.459-69.91-252.209-69.537    L-252.209-69.537z"
   id="path285" />
		<path
   fill="none"
   d="M-254.391-71.827c-0.121-0.09-0.243-0.176-0.368-0.259c-0.187-0.125-0.377-0.243-0.572-0.353    c0.194,0.11,0.385,0.228,0.572,0.353C-254.634-72.003-254.512-71.917-254.391-71.827z"
   id="path287" />
		<path
   d="M-261.961-68.67c-0.146,0.074-0.289,0.155-0.427,0.244C-262.25-68.515-262.108-68.596-261.961-68.67z"
   id="path289" />
		<path
   d="M-262.515-68.342c-0.108,0.075-0.214,0.153-0.317,0.237C-262.73-68.188-262.624-68.267-262.515-68.342z"
   id="path291" />
		<path
   d="M-252.246-59.688c-0.134,0.069-0.269,0.135-0.405,0.198C-252.515-59.552-252.38-59.618-252.246-59.688z"
   id="path293" />
		<path
   d="M-252.832-59.41c-0.244,0.105-0.492,0.2-0.744,0.283C-253.324-59.21-253.076-59.305-252.832-59.41z"
   id="path295" />
		<path
   d="M-257.596-58.735c-0.15-0.018-0.298-0.04-0.446-0.066C-257.894-58.776-257.746-58.754-257.596-58.735z"
   id="path297" />
		<path
   d="M-253.476-77.493L-253.476-77.493c0.063-0.063,0.128-0.124,0.195-0.183C-253.348-77.617-253.413-77.556-253.476-77.493z"
   id="path299" />
		<path
   d="M-252.561-78.208c0.132-0.079,0.267-0.151,0.405-0.217C-252.294-78.359-252.43-78.287-252.561-78.208z"
   id="path301" />
		<path
   d="M-260.754-73.578c0.15-0.015,0.302-0.026,0.453-0.033C-260.453-73.604-260.604-73.592-260.754-73.578z"
   id="path303" />
		<path
   d="M-248.123-78.425c0.138,0.065,0.273,0.138,0.405,0.217C-247.85-78.287-247.985-78.359-248.123-78.425z"
   id="path305" />
		<path
   d="M-259.344-59.127c-0.283-0.093-0.56-0.2-0.832-0.321C-259.904-59.327-259.627-59.22-259.344-59.127z"
   id="path307" />
		<path
   d="M-260.176-59.447c-0.204-0.09-0.404-0.188-0.601-0.294C-260.581-59.636-260.38-59.538-260.176-59.447z"
   id="path309" />
		<path
   d="M-254.909-58.796c-0.138,0.023-0.276,0.044-0.415,0.061C-255.185-58.752-255.047-58.773-254.909-58.796z"
   id="path311" />
		<path
   d="M-261.646-73.446c0.22-0.044,0.443-0.079,0.667-0.107c-0.075,0.009-0.149,0.019-0.224,0.03    C-261.351-73.501-261.499-73.475-261.646-73.446c-0.073,0.015-0.147,0.03-0.22,0.046c-0.146,0.033-0.291,0.069-0.434,0.109    c-0.056,0.015-0.111,0.032-0.166,0.048C-262.197-73.323-261.923-73.391-261.646-73.446z"
   id="path313" />
		<path
   d="M-249.977-61.352L-249.977-61.352c-0.62,0.62-1.313,1.139-2.059,1.551C-251.289-60.213-250.596-60.732-249.977-61.352z"
   id="path315" />
		<path
   d="M-246.57-77.24c-0.075-0.086-0.152-0.171-0.233-0.253c-0.111-0.111-0.227-0.217-0.348-0.315    c0.12,0.099,0.236,0.204,0.348,0.315C-246.722-77.411-246.645-77.326-246.57-77.24z"
   id="path317" />
		<path
   d="M-241.485-71.115c-0.031,0.088-0.063,0.176-0.096,0.263C-241.547-70.939-241.516-71.027-241.485-71.115z"
   id="path319" />
		<path
   d="M-264.465-63.356L-264.465-63.356c0.407,0.725,0.917,1.4,1.521,2.004c0.649,0.649,1.379,1.189,2.167,1.611    c-0.788-0.421-1.517-0.961-2.167-1.611C-263.549-61.956-264.058-62.63-264.465-63.356z"
   id="path321" />
		<path
   d="M-242.093-69.751c-0.041,0.074-0.082,0.148-0.125,0.221C-242.176-69.604-242.134-69.677-242.093-69.751z"
   id="path323" />
		<path
   d="M-259.159-73.597c-0.227-0.017-0.455-0.025-0.685-0.025c0.306,0,0.61,0.015,0.911,0.044    C-259.008-73.585-259.083-73.592-259.159-73.597z"
   id="path325" />
		<path
   d="M-258.04-73.446c0.142,0.028,0.283,0.06,0.423,0.095C-257.757-73.386-257.898-73.418-258.04-73.446    c-0.147-0.029-0.295-0.055-0.443-0.077c-0.074-0.011-0.149-0.021-0.224-0.03C-258.483-73.525-258.261-73.49-258.04-73.446z"
   id="path327" />
		<path
   d="M-241.91-70.103c-0.028,0.057-0.056,0.113-0.086,0.169C-241.967-69.99-241.938-70.047-241.91-70.103z"
   id="path329" />
		<path
   fill="#c8a461"
   d="M-241.07-72.797c-0.022,0.149-0.048,0.297-0.077,0.443C-241.117-72.5-241.092-72.648-241.07-72.797z"
   id="path331" />
		<path
   fill="#c8a461"
   d="M-248.78-83.226c0.149,0.022,0.297,0.048,0.443,0.077C-248.484-83.179-248.632-83.204-248.78-83.226z"
   id="path333" />
		<path
   fill="#c8a461"
   d="M-241.244-71.916c-0.036,0.145-0.076,0.288-0.119,0.431C-241.32-71.628-241.281-71.771-241.244-71.916z"
   id="path335" />
		<path
   fill="#c8a461"
   d="M-241.581-70.852c-0.098,0.255-0.208,0.504-0.329,0.749C-241.789-70.348-241.679-70.598-241.581-70.852z"
   id="path337" />
		<path
   fill="#c8a461"
   d="M-241.363-71.485c-0.038,0.124-0.078,0.247-0.121,0.37C-241.442-71.238-241.401-71.361-241.363-71.485z"
   id="path339" />
		<path
   fill="#c8a461"
   d="M-247.045-82.793c0.77,0.275,1.501,0.654,2.175,1.13C-245.544-82.139-246.275-82.517-247.045-82.793z"
   id="path341" />
		<path
   fill="#c8a461"
   d="M-242.153-78.669c-0.404-0.713-0.908-1.376-1.503-1.971c-0.379-0.379-0.785-0.72-1.214-1.023    c0.429,0.303,0.835,0.644,1.214,1.023C-243.061-80.045-242.557-79.382-242.153-78.669z"
   id="path343" />
		<path
   fill="#c8a461"
   d="M-241.146-75.959c0.029,0.147,0.055,0.295,0.077,0.443C-241.092-75.664-241.117-75.812-241.146-75.959z"
   id="path345" />
		<path
   fill="#c8a461"
   d="M-241.363-76.827c0.043,0.142,0.083,0.286,0.119,0.431C-241.281-76.541-241.32-76.685-241.363-76.827z"
   id="path347" />
		<path
   fill="#c8a461"
   d="M-241.503-77.251c0.05,0.14,0.097,0.281,0.14,0.424C-241.407-76.97-241.453-77.111-241.503-77.251z"
   id="path349" />
		<path
   fill="#c8a461"
   d="M-242.153-78.669c0.074,0.13,0.144,0.261,0.211,0.394C-242.009-78.408-242.079-78.539-242.153-78.669z"
   id="path351" />
		<path
   fill="#c8a461"
   d="M-247.899-83.052c0.217,0.054,0.432,0.116,0.644,0.186C-247.468-82.935-247.682-82.997-247.899-83.052z"
   id="path353" />
		<path
   fill="#c8a461"
   d="M-248.337-83.15c0.147,0.029,0.293,0.062,0.437,0.098C-248.044-83.088-248.19-83.121-248.337-83.15z"
   id="path355" />
		<path
   fill="#c8a461"
   d="M-241.996-69.935c-0.032,0.061-0.065,0.122-0.098,0.183C-242.06-69.812-242.028-69.873-241.996-69.935z"
   id="path357" />
		<path
   fill="#c8a461"
   d="M-254.22-58.94c-0.145,0.036-0.291,0.069-0.437,0.098C-254.511-58.871-254.365-58.904-254.22-58.94z"
   id="path359" />
		<path
   fill="#c8a461"
   d="M-243.656-67.672c0.564-0.564,1.044-1.188,1.437-1.858C-242.611-68.861-243.092-68.236-243.656-67.672    L-243.656-67.672z"
   id="path361" />
		<path
   fill="#c8a461"
   d="M-252.652-59.49c-0.06,0.027-0.12,0.054-0.181,0.08C-252.772-59.436-252.712-59.462-252.652-59.49z"
   id="path363" />
		<path
   fill="#c8a461"
   d="M-252.036-59.8c-0.07,0.039-0.14,0.076-0.211,0.113C-252.176-59.724-252.105-59.762-252.036-59.8z"
   id="path365" />
		<path
   fill="#c8a461"
   d="M-253.576-59.127c-0.212,0.07-0.427,0.132-0.644,0.186C-254.003-58.994-253.788-59.057-253.576-59.127z"
   id="path367" />
		<path
   fill="#c8a461"
   d="M-241.942-78.275c0.134,0.266,0.254,0.538,0.361,0.815C-241.688-77.738-241.808-78.009-241.942-78.275z"
   id="path369" />
		<path
   fill="#c8a461"
   d="M-254.658-58.842c-0.084,0.017-0.168,0.032-0.252,0.046C-254.825-58.811-254.741-58.826-254.658-58.842z"
   id="path371" />
		<path
   fill="#c8a461"
   d="M-245.444-73.688c-0.023,0.232-0.062,0.461-0.118,0.684C-245.507-73.227-245.467-73.455-245.444-73.688z"
   id="path373" />
		<path
   fill="#c8a461"
   d="M-253.295-64.337c-0.29,0.263-0.607,0.486-0.944,0.667C-253.901-63.851-253.584-64.074-253.295-64.337z"
   id="path375" />
		<path
   fill="#c8a461"
   d="M-260.626-65.614c0.217,0.405,0.495,0.781,0.829,1.115c0.613,0.613,1.364,1.036,2.184,1.241    c-0.819-0.205-1.571-0.628-2.184-1.241C-260.131-64.833-260.409-65.209-260.626-65.614z"
   id="path377" />
		<path
   fill="#c8a461"
   d="M-261.028-66.648c0.035,0.137,0.076,0.272,0.124,0.405C-260.952-66.376-260.993-66.511-261.028-66.648    L-261.028-66.648z"
   id="path379" />
		<path
   fill="#c8a461"
   d="M-255.308-63.258c-0.149,0.037-0.3,0.067-0.453,0.09C-255.608-63.191-255.457-63.221-255.308-63.258z"
   id="path381" />
		<path
   fill="#c8a461"
   d="M-245.562-73.004c-0.037,0.149-0.082,0.296-0.133,0.44C-245.644-72.708-245.6-72.855-245.562-73.004z"
   id="path383" />
		<path
   fill="#c8a461"
   d="M-253.281-77.676c0.109-0.097,0.22-0.189,0.336-0.275C-253.061-77.865-253.173-77.773-253.281-77.676z"
   id="path385" />
		<path
   fill="#c8a461"
   d="M-245.975-71.935c-0.181,0.338-0.404,0.655-0.667,0.944C-246.378-71.28-246.155-71.597-245.975-71.935z"
   id="path387" />
		<path
   fill="#c8a461"
   d="M-245.562-75.309c0.037,0.149,0.067,0.3,0.09,0.453C-245.495-75.009-245.525-75.16-245.562-75.309z"
   id="path389" />
		<path
   fill="#c8a461"
   d="M-246.57-77.24c0.232,0.267,0.432,0.556,0.596,0.862C-246.138-76.684-246.339-76.973-246.57-77.24z"
   id="path391" />
		<path
   fill="#c8a461"
   d="M-256.929-63.14c-0.232-0.023-0.461-0.062-0.684-0.118C-257.39-63.202-257.161-63.163-256.929-63.14z"
   id="path393" />
		<path
   fill="#c8a461"
   d="M-241.07-75.516c-0.939-6.359-8.333-9.828-13.826-6.484c-1.413,0.86-2.542,2.174-3.703,3.335    c-0.981,0.981-1.962,1.962-2.943,2.943c1.392-0.207,2.823-0.159,4.196,0.148c0.178,0.04,1.448,0.502,1.513,0.437    c0.137-0.137,0.275-0.275,0.412-0.412c0.843-0.843,1.664-1.867,2.664-2.536c2.179-1.458,5.205-0.792,6.606,1.406    c1.191,1.868,0.864,4.341-0.689,5.894c-1.8,1.8-3.6,3.6-5.4,5.4c-0.837,0.837-1.618,1.676-2.792,2.048    c-2.538,0.803-5.33-0.726-5.997-3.311c-0.924,0.502-1.656,1.511-2.394,2.249c-0.338,0.338-0.676,0.676-1.014,1.014    c-0.32,0.32,1.975,2.493,2.255,2.717c3.632,2.91,8.973,2.548,12.24-0.72c1.73-1.73,3.46-3.46,5.191-5.191    c0.761-0.761,1.56-1.498,2.173-2.39C-241.268-70.869-240.732-73.233-241.07-75.516z"
   id="path395" />
		<path
   fill="#c8a461"
   d="M-258.708-73.553c0.075,0.009,0.149,0.019,0.224,0.03c-0.223-0.033-0.448-0.058-0.675-0.074    c0.076,0.006,0.151,0.012,0.226,0.019C-258.857-73.57-258.782-73.562-258.708-73.553z"
   id="path397" />
		<path
   fill="#c8a461"
   d="M-257.617-73.351c-0.14-0.035-0.281-0.066-0.423-0.095c-0.147-0.029-0.295-0.055-0.443-0.077    c0.149,0.022,0.297,0.048,0.443,0.077C-257.898-73.418-257.757-73.386-257.617-73.351z"
   id="path399" />
		<path
   fill="#c8a461"
   d="M-262.3-73.291c-0.072,0.02-0.143,0.041-0.215,0.062c0.016-0.005,0.032-0.009,0.048-0.014    C-262.411-73.259-262.356-73.276-262.3-73.291z"
   id="path401" />
		<path
   fill="#c8a461"
   d="M-262.3-73.291c0.144-0.04,0.288-0.076,0.434-0.109C-262.011-73.367-262.156-73.331-262.3-73.291z"
   id="path403" />
		<path
   fill="#c8a461"
   d="M-263.18-67.789c2.331-2.332,6.433-1.523,7.698,1.53c0.875-0.876,1.749-1.752,2.624-2.628    c0.549-0.55,0.787-0.514,0.253-1.197c-0.744-0.952-1.674-1.759-2.725-2.355c-2.066-1.172-4.57-1.486-6.865-0.879    c-1.967,0.52-3.444,1.695-4.852,3.103c-1.534,1.534-3.069,3.069-4.603,4.603c-1.42,1.42-2.691,2.833-3.29,4.81    c-0.752,2.483-0.408,5.241,0.949,7.454c2.897,4.721,9.527,5.806,13.752,2.217c1.88-1.597,3.556-3.512,5.3-5.256    c-2.082,0.004-4.164,0.008-6.246,0.013c-0.266,0.001-0.743,0.681-0.922,0.86c-0.458,0.458-0.899,0.95-1.44,1.312    c-1.884,1.26-4.472,0.96-6.032-0.675c-1.639-1.719-1.731-4.491-0.184-6.303c0.666-0.78,1.448-1.472,2.173-2.197    C-266.12-64.848-264.65-66.319-263.18-67.789z"
   id="path405" />
		<path
   d="M-261.343-68.928c-0.104,0.034-0.206,0.072-0.307,0.114C-261.549-68.856-261.447-68.894-261.343-68.928z"
   id="path407" />
		<path
   d="M-262.515-73.229c-0.142,0.043-0.284,0.09-0.424,0.14c0.156-0.056,0.313-0.107,0.472-0.154    C-262.482-73.238-262.499-73.234-262.515-73.229z"
   id="path409" />
		<path
   fill="#c8a461"
   d="M-261.203-73.523c-0.149,0.022-0.297,0.048-0.443,0.077c-0.073,0.015-0.147,0.03-0.22,0.046    c0.073-0.016,0.146-0.032,0.22-0.046C-261.499-73.475-261.351-73.501-261.203-73.523z"
   id="path411" />
		<path
   fill="#c8a461"
   d="M-261.038-66.683c0.003,0.012,0.007,0.023,0.01,0.035l0,0C-261.031-66.66-261.035-66.671-261.038-66.683z"
   id="path413" />
		<path
   fill="#c8a461"
   d="M-264.414-72.406L-264.414-72.406c-0.174,0.101-0.346,0.207-0.514,0.319    C-264.76-72.199-264.588-72.305-264.414-72.406L-264.414-72.406z"
   id="path415" />
		<path
   fill="#c8a461"
   d="M-258.1-53.228l-1.58,1.58c-0.108,0.108-0.219,0.213-0.331,0.316c0.113-0.102,0.223-0.207,0.331-0.316    L-258.1-53.228l1.58-1.58l1.58-1.58l0,0l-1.58,1.58L-258.1-53.228z"
   id="path417" />
		<path
   fill="#c8a461"
   d="M-272.963-51.979c0.102,0.113,0.207,0.223,0.316,0.331c0.158,0.158,0.323,0.308,0.491,0.453    c-0.168-0.145-0.332-0.295-0.491-0.453C-272.756-51.756-272.861-51.867-272.963-51.979z"
   id="path419" />
		<path
   fill="#c8a461"
   d="M-263.625-72.811c-0.09,0.041-0.179,0.083-0.267,0.126c-0.088,0.044-0.176,0.089-0.263,0.135    C-263.981-72.643-263.804-72.73-263.625-72.811z"
   id="path421" />
		<path
   fill="#c8a461"
   d="M-263.175-54.48c-0.12,0.099-0.244,0.191-0.372,0.277c-0.025,0.017-0.05,0.032-0.076,0.048    c0.025-0.016,0.051-0.031,0.076-0.048C-263.42-54.289-263.295-54.382-263.175-54.48z"
   id="path423" />
		<path
   fill="#c8a461"
   d="M-261.248-56.376l3.157-0.006L-261.248-56.376l-1.58,1.58c-0.056,0.056-0.113,0.11-0.17,0.162    c0.058-0.053,0.115-0.107,0.171-0.162L-261.248-56.376z"
   id="path425" />
		<path
   fill="#c8a461"
   d="M-266.621-48.974c-0.152-0.007-0.303-0.018-0.453-0.033C-266.924-48.992-266.773-48.981-266.621-48.974z"
   id="path427" />
		<path
   fill="#c8a461"
   d="M-270.728-59.333c-0.024,0.09-0.045,0.181-0.064,0.273C-270.773-59.152-270.752-59.242-270.728-59.333z"
   id="path429" />
		<polygon
   fill="#c8a461"
   points="-252.209,-69.537 -252.209,-69.537 -255.482,-66.259   "
   id="polygon431" />
		<path
   fill="#c8a461"
   d="M-265.236-53.504c0.302-0.06,0.596-0.149,0.879-0.266C-264.64-53.653-264.934-53.564-265.236-53.504z"
   id="path433" />
		<path
   fill="#c8a461"
   d="M-265.929-53.419c0.234-0.011,0.466-0.04,0.692-0.085C-265.463-53.459-265.694-53.431-265.929-53.419z"
   id="path435" />
	</g>
	<g
   id="g437">
		<path
   fill="none"
   d="M13.474,31.061c-0.081,0.197-0.148,0.399-0.203,0.606C13.326,31.461,13.393,31.258,13.474,31.061    c0.117-0.283,0.262-0.554,0.433-0.81c0.15-0.225,0.322-0.437,0.513-0.637c-0.19,0.199-0.362,0.412-0.513,0.637    C13.736,30.508,13.592,30.779,13.474,31.061z"
   id="path439" />
		<path
   fill="none"
   d="M13.908,35.484c0.15,0.225,0.322,0.437,0.513,0.637C14.23,35.922,14.058,35.709,13.908,35.484    c-0.171-0.256-0.316-0.527-0.433-0.81c-0.081-0.197-0.149-0.399-0.203-0.606c0.054,0.207,0.121,0.409,0.203,0.606    C13.592,34.957,13.736,35.228,13.908,35.484z"
   id="path441" />
		<path
   fill="none"
   d="M9.277,36.172c-0.053-0.139-0.104-0.279-0.15-0.42C9.174,35.893,9.224,36.033,9.277,36.172z"
   id="path443" />
		<path
   fill="none"
   d="M8.667,32.868c0-0.23,0.008-0.458,0.025-0.685C8.675,32.41,8.667,32.638,8.667,32.868z"
   id="path445" />
		<path
   fill="none"
   d="M8.692,33.553c-0.017-0.227-0.025-0.455-0.025-0.685C8.667,33.098,8.675,33.326,8.692,33.553z"
   id="path447" />
		<path
   fill="none"
   d="M9.127,35.752c-0.07-0.212-0.132-0.427-0.186-0.644C8.995,35.325,9.057,35.54,9.127,35.752z"
   id="path449" />
		<path
   fill="none"
   d="M16.029,37.23c-0.283-0.117-0.554-0.262-0.81-0.433c-0.128-0.086-0.252-0.178-0.373-0.277    c0.12,0.099,0.244,0.191,0.373,0.277C15.476,36.968,15.747,37.112,16.029,37.23z"
   id="path451" />
		<path
   fill="none"
   d="M19.195,41.938c0.149-0.022,0.297-0.048,0.443-0.077c0.294-0.058,0.583-0.131,0.868-0.217    c-0.285,0.086-0.575,0.159-0.868,0.217C19.492,41.891,19.344,41.916,19.195,41.938z"
   id="path453" />
		<path
   fill="none"
   d="M11.037,39.021c-0.204-0.225-0.396-0.459-0.575-0.7C10.64,38.562,10.832,38.795,11.037,39.021z"
   id="path455" />
		<path
   fill="none"
   d="M22.542,40.742c0.128-0.077,0.254-0.157,0.379-0.24c0.124-0.083,0.247-0.17,0.368-0.259    c-0.121,0.09-0.243,0.176-0.368,0.259C22.796,40.585,22.67,40.665,22.542,40.742z"
   id="path457" />
		<path
   fill="none"
   d="M18.164,19.61c0.176-0.153,0.355-0.3,0.541-0.438C18.519,19.31,18.34,19.458,18.164,19.61z"
   id="path459" />
		<path
   fill="none"
   d="M8.941,30.628c0.036-0.145,0.076-0.288,0.119-0.431C9.016,30.339,8.977,30.483,8.941,30.628z"
   id="path461" />
		<path
   fill="none"
   d="M20.057,37.033c0.109-0.058,0.215-0.122,0.319-0.189C20.272,36.911,20.166,36.975,20.057,37.033z"
   id="path463" />
		<polygon
   fill="none"
   points="29.06,34.611 25.91,34.618 29.06,34.611   "
   id="polygon465" />
		<path
   fill="none"
   d="M23.988,39.667c-0.225,0.204-0.459,0.396-0.7,0.575C23.53,40.064,23.763,39.872,23.988,39.667z"
   id="path467" />
		<path
   fill="none"
   d="M18.521,42.013c-0.227,0.017-0.455,0.025-0.685,0.025C18.066,42.038,18.294,42.029,18.521,42.013z"
   id="path469" />
		<path
   fill="none"
   d="M19.195,41.938c-0.223,0.033-0.448,0.058-0.675,0.074C18.747,41.996,18.972,41.971,19.195,41.938z"
   id="path471" />
		<path
   fill="none"
   d="M12.384,40.243c-0.185-0.138-0.365-0.285-0.541-0.438C12.019,39.958,12.198,40.105,12.384,40.243z"
   id="path473" />
		<path
   fill="none"
   d="M29.609,19.173c0.241,0.179,0.475,0.371,0.7,0.575C30.084,19.544,29.85,19.352,29.609,19.173z"
   id="path475" />
		<path
   fill="none"
   d="M27.668,18.071c0.137,0.057,0.273,0.117,0.408,0.181C27.941,18.188,27.805,18.128,27.668,18.071z"
   id="path477" />
		<path
   fill="none"
   d="M27.951,23.742c0.046,0.062,0.091,0.125,0.133,0.189c0.171,0.256,0.316,0.527,0.433,0.81    c-0.117-0.283-0.262-0.554-0.433-0.81C28.042,23.867,27.998,23.804,27.951,23.742z"
   id="path479" />
		<path
   fill="none"
   d="M26.383,17.649c0.439,0.109,0.868,0.25,1.285,0.423C27.251,17.899,26.822,17.758,26.383,17.649z"
   id="path481" />
		<path
   fill="none"
   d="M31.791,21.463c-0.25-0.373-0.528-0.73-0.835-1.068C31.262,20.733,31.541,21.09,31.791,21.463L31.791,21.463z    "
   id="path483" />
		<path
   fill="none"
   d="M29.609,19.173c-0.121-0.09-0.243-0.176-0.368-0.259c-0.187-0.125-0.377-0.243-0.572-0.353    c0.194,0.11,0.385,0.228,0.572,0.353C29.366,18.997,29.488,19.083,29.609,19.173z"
   id="path485" />
		<path
   d="M22.039,22.33c-0.146,0.074-0.289,0.155-0.427,0.244C21.75,22.485,21.892,22.404,22.039,22.33z"
   id="path487" />
		<path
   d="M21.485,22.658c-0.108,0.075-0.214,0.153-0.317,0.237C21.27,22.812,21.376,22.733,21.485,22.658z"
   id="path489" />
		<path
   d="M31.754,31.312c-0.134,0.069-0.269,0.135-0.405,0.198C31.485,31.448,31.62,31.382,31.754,31.312z"
   id="path491" />
		<path
   d="M31.168,31.59c-0.244,0.105-0.492,0.2-0.744,0.283C30.676,31.79,30.924,31.695,31.168,31.59z"
   id="path493" />
		<path
   d="M26.404,32.265c-0.15-0.018-0.298-0.04-0.446-0.066C26.106,32.224,26.254,32.246,26.404,32.265z"
   id="path495" />
		<path
   d="M30.524,13.507L30.524,13.507c0.063-0.063,0.128-0.124,0.195-0.183C30.652,13.383,30.587,13.444,30.524,13.507z"
   id="path497" />
		<path
   d="M31.439,12.792c0.132-0.079,0.267-0.151,0.405-0.217C31.706,12.641,31.57,12.713,31.439,12.792z"
   id="path499" />
		<path
   d="M23.246,17.422c0.15-0.015,0.302-0.026,0.453-0.033C23.547,17.396,23.396,17.408,23.246,17.422z"
   id="path501" />
		<path
   d="M35.877,12.575c0.138,0.065,0.273,0.138,0.405,0.217C36.15,12.713,36.015,12.641,35.877,12.575z"
   id="path503" />
		<path
   d="M24.656,31.873c-0.283-0.093-0.56-0.2-0.832-0.321C24.096,31.673,24.373,31.78,24.656,31.873z"
   id="path505" />
		<path
   d="M23.824,31.553c-0.204-0.09-0.404-0.188-0.601-0.294C23.419,31.364,23.62,31.462,23.824,31.553z"
   id="path507" />
		<path
   d="M29.091,32.204c-0.138,0.023-0.276,0.044-0.415,0.061C28.815,32.248,28.953,32.227,29.091,32.204z"
   id="path509" />
		<path
   d="M22.354,17.554c0.22-0.044,0.443-0.079,0.667-0.107c-0.075,0.009-0.149,0.019-0.224,0.03    C22.649,17.499,22.501,17.525,22.354,17.554c-0.073,0.015-0.147,0.03-0.22,0.046c-0.146,0.033-0.291,0.069-0.434,0.109    c-0.056,0.015-0.111,0.032-0.166,0.048C21.803,17.677,22.077,17.609,22.354,17.554z"
   id="path511" />
		<path
   d="M34.023,29.648L34.023,29.648c-0.62,0.62-1.313,1.139-2.059,1.551C32.711,30.787,33.404,30.268,34.023,29.648z"
   id="path513" />
		<path
   d="M37.43,13.76c-0.075-0.086-0.152-0.171-0.233-0.253c-0.111-0.111-0.227-0.217-0.348-0.315    c0.12,0.099,0.236,0.204,0.348,0.315C37.278,13.589,37.355,13.674,37.43,13.76z"
   id="path515" />
		<path
   d="M42.515,19.885c-0.031,0.088-0.063,0.176-0.096,0.263C42.453,20.061,42.484,19.973,42.515,19.885z"
   id="path517" />
		<path
   d="M19.535,27.644L19.535,27.644c0.407,0.725,0.917,1.4,1.521,2.004c0.649,0.649,1.379,1.189,2.167,1.611    c-0.788-0.421-1.517-0.961-2.167-1.611C20.451,29.044,19.942,28.37,19.535,27.644z"
   id="path519" />
		<path
   d="M41.907,21.249c-0.041,0.074-0.082,0.148-0.125,0.221C41.824,21.396,41.866,21.323,41.907,21.249z"
   id="path521" />
		<path
   d="M24.841,17.403c-0.227-0.017-0.455-0.025-0.685-0.025c0.306,0,0.61,0.015,0.911,0.044    C24.992,17.415,24.917,17.408,24.841,17.403z"
   id="path523" />
		<path
   d="M25.959,17.554c0.142,0.028,0.283,0.06,0.423,0.095C26.243,17.614,26.102,17.582,25.959,17.554    c-0.147-0.029-0.295-0.055-0.443-0.077c-0.074-0.011-0.149-0.021-0.224-0.03C25.517,17.475,25.739,17.51,25.959,17.554z"
   id="path525" />
		<path
   d="M42.09,20.897c-0.028,0.057-0.056,0.113-0.086,0.169C42.033,21.01,42.062,20.953,42.09,20.897z"
   id="path527" />
		<path
   fill="#c8a461"
   d="M42.93,18.203c-0.022,0.149-0.048,0.297-0.077,0.443C42.883,18.5,42.908,18.352,42.93,18.203z"
   id="path529" />
		<path
   fill="#c8a461"
   d="M35.22,7.774c0.149,0.022,0.297,0.048,0.443,0.077C35.516,7.821,35.368,7.796,35.22,7.774z"
   id="path531" />
		<path
   fill="#c8a461"
   d="M42.756,19.084c-0.036,0.145-0.076,0.288-0.119,0.431C42.68,19.372,42.719,19.229,42.756,19.084z"
   id="path533" />
		<path
   fill="#c8a461"
   d="M42.419,20.148c-0.098,0.255-0.208,0.504-0.329,0.749C42.211,20.652,42.321,20.402,42.419,20.148z"
   id="path535" />
		<path
   fill="#c8a461"
   d="M42.637,19.515c-0.038,0.124-0.078,0.247-0.121,0.37C42.558,19.762,42.599,19.639,42.637,19.515z"
   id="path537" />
		<path
   fill="#c8a461"
   d="M36.955,8.207c0.77,0.275,1.501,0.654,2.175,1.13C38.456,8.861,37.725,8.483,36.955,8.207z"
   id="path539" />
		<path
   fill="#c8a461"
   d="M41.847,12.331c-0.404-0.713-0.908-1.376-1.503-1.971c-0.379-0.379-0.785-0.72-1.214-1.023    c0.429,0.303,0.835,0.644,1.214,1.023C40.939,10.955,41.443,11.618,41.847,12.331z"
   id="path541" />
		<path
   fill="#c8a461"
   d="M42.854,15.041c0.029,0.147,0.055,0.295,0.077,0.443C42.908,15.336,42.883,15.188,42.854,15.041z"
   id="path543" />
		<path
   fill="#c8a461"
   d="M42.637,14.173c0.043,0.142,0.083,0.286,0.119,0.431C42.719,14.459,42.68,14.315,42.637,14.173z"
   id="path545" />
		<path
   fill="#c8a461"
   d="M42.497,13.749c0.05,0.14,0.097,0.281,0.14,0.424C42.593,14.03,42.547,13.889,42.497,13.749z"
   id="path547" />
		<path
   fill="#c8a461"
   d="M41.847,12.331c0.074,0.13,0.144,0.261,0.211,0.394C41.991,12.592,41.921,12.461,41.847,12.331z"
   id="path549" />
		<path
   fill="#c8a461"
   d="M36.101,7.948c0.217,0.054,0.432,0.116,0.644,0.186C36.532,8.065,36.318,8.003,36.101,7.948z"
   id="path551" />
		<path
   fill="#c8a461"
   d="M35.663,7.85c0.147,0.029,0.293,0.062,0.437,0.098C35.956,7.912,35.81,7.879,35.663,7.85z"
   id="path553" />
		<path
   fill="#c8a461"
   d="M42.004,21.065c-0.032,0.061-0.065,0.122-0.098,0.183C41.94,21.188,41.972,21.127,42.004,21.065z"
   id="path555" />
		<path
   fill="#c8a461"
   d="M29.78,32.06c-0.145,0.036-0.291,0.069-0.437,0.098C29.489,32.129,29.635,32.096,29.78,32.06z"
   id="path557" />
		<path
   fill="#c8a461"
   d="M40.344,23.328c0.564-0.564,1.044-1.188,1.437-1.858C41.389,22.139,40.908,22.764,40.344,23.328    L40.344,23.328z"
   id="path559" />
		<path
   fill="#c8a461"
   d="M31.348,31.51c-0.06,0.027-0.12,0.054-0.181,0.08C31.228,31.564,31.288,31.538,31.348,31.51z"
   id="path561" />
		<path
   fill="#c8a461"
   d="M31.964,31.2c-0.07,0.039-0.14,0.076-0.211,0.113C31.824,31.276,31.895,31.238,31.964,31.2z"
   id="path563" />
		<path
   fill="#c8a461"
   d="M30.424,31.873c-0.212,0.07-0.427,0.132-0.644,0.186C29.997,32.006,30.212,31.943,30.424,31.873z"
   id="path565" />
		<path
   fill="#c8a461"
   d="M42.058,12.725c0.134,0.266,0.254,0.538,0.361,0.815C42.312,13.262,42.192,12.991,42.058,12.725z"
   id="path567" />
		<path
   fill="#c8a461"
   d="M29.342,32.158c-0.084,0.017-0.168,0.032-0.252,0.046C29.175,32.189,29.259,32.174,29.342,32.158z"
   id="path569" />
		<path
   fill="#c8a461"
   d="M38.556,17.312c-0.023,0.232-0.062,0.461-0.118,0.684C38.493,17.773,38.533,17.545,38.556,17.312z"
   id="path571" />
		<path
   fill="#c8a461"
   d="M30.705,26.663c-0.29,0.263-0.607,0.486-0.944,0.667C30.099,27.149,30.416,26.926,30.705,26.663z"
   id="path573" />
		<path
   fill="#c8a461"
   d="M23.374,25.386c0.217,0.405,0.495,0.781,0.829,1.115c0.613,0.613,1.364,1.036,2.184,1.241    c-0.819-0.205-1.571-0.628-2.184-1.241C23.869,26.167,23.591,25.791,23.374,25.386z"
   id="path575" />
		<path
   fill="#c8a461"
   d="M22.972,24.352c0.035,0.137,0.076,0.272,0.124,0.405C23.048,24.624,23.007,24.489,22.972,24.352    L22.972,24.352z"
   id="path577" />
		<path
   fill="#c8a461"
   d="M28.692,27.742c-0.149,0.037-0.3,0.067-0.453,0.09C28.392,27.809,28.543,27.779,28.692,27.742z"
   id="path579" />
		<path
   fill="#c8a461"
   d="M38.438,17.996c-0.037,0.149-0.082,0.296-0.133,0.44C38.356,18.292,38.4,18.145,38.438,17.996z"
   id="path581" />
		<path
   fill="#c8a461"
   d="M30.719,13.324c0.109-0.097,0.22-0.189,0.336-0.275C30.939,13.135,30.827,13.227,30.719,13.324z"
   id="path583" />
		<path
   fill="#c8a461"
   d="M38.025,19.065c-0.181,0.338-0.404,0.655-0.667,0.944C37.622,19.72,37.845,19.403,38.025,19.065z"
   id="path585" />
		<path
   fill="#c8a461"
   d="M38.438,15.691c0.037,0.149,0.067,0.3,0.09,0.453C38.505,15.991,38.475,15.84,38.438,15.691z"
   id="path587" />
		<path
   fill="#c8a461"
   d="M37.43,13.76c0.232,0.267,0.432,0.556,0.596,0.862C37.862,14.316,37.662,14.027,37.43,13.76z"
   id="path589" />
		<path
   fill="#c8a461"
   d="M27.071,27.86c-0.232-0.023-0.461-0.062-0.684-0.118C26.61,27.798,26.839,27.837,27.071,27.86z"
   id="path591" />
		<path
   fill="#c8a461"
   d="M42.93,15.484C41.991,9.125,34.597,5.656,29.104,9c-1.413,0.86-2.542,2.174-3.703,3.335    c-0.981,0.981-1.962,1.962-2.943,2.943c1.392-0.207,2.823-0.159,4.196,0.148c0.178,0.04,1.448,0.502,1.513,0.437    c0.137-0.137,0.275-0.275,0.412-0.412c0.843-0.843,1.664-1.867,2.664-2.536c2.179-1.458,5.205-0.792,6.606,1.406    c1.191,1.868,0.864,4.341-0.689,5.894c-1.8,1.8-3.6,3.6-5.4,5.4c-0.837,0.837-1.618,1.676-2.792,2.048    c-2.538,0.803-5.33-0.726-5.997-3.311c-0.924,0.502-1.656,1.511-2.394,2.249c-0.338,0.338-0.676,0.676-1.014,1.014    c-0.32,0.32,1.975,2.493,2.255,2.717c3.632,2.91,8.973,2.548,12.24-0.72c1.73-1.73,3.46-3.46,5.191-5.191    c0.761-0.761,1.56-1.498,2.173-2.39C42.732,20.131,43.268,17.767,42.93,15.484z"
   id="path593" />
		<path
   fill="#c8a461"
   d="M25.292,17.447c0.075,0.009,0.149,0.019,0.224,0.03c-0.223-0.033-0.448-0.058-0.675-0.074    c0.076,0.006,0.151,0.012,0.226,0.019C25.143,17.43,25.218,17.438,25.292,17.447z"
   id="path595" />
		<path
   fill="#c8a461"
   d="M26.383,17.649c-0.14-0.035-0.281-0.066-0.423-0.095c-0.147-0.029-0.295-0.055-0.443-0.077    c0.149,0.022,0.297,0.048,0.443,0.077C26.102,17.582,26.243,17.614,26.383,17.649z"
   id="path597" />
		<path
   fill="#c8a461"
   d="M21.7,17.709c-0.072,0.02-0.143,0.041-0.215,0.062c0.016-0.005,0.032-0.009,0.048-0.014    C21.589,17.741,21.644,17.724,21.7,17.709z"
   id="path599" />
		<path
   fill="#c8a461"
   d="M21.7,17.709c0.144-0.04,0.288-0.076,0.434-0.109C21.989,17.633,21.844,17.669,21.7,17.709z"
   id="path601" />
		<path
   fill="#c8a461"
   d="M20.82,23.211c2.331-2.332,6.433-1.523,7.698,1.53c0.875-0.876,1.749-1.752,2.624-2.628    c0.549-0.55,0.787-0.514,0.253-1.197c-0.744-0.952-1.674-1.759-2.725-2.355c-2.066-1.172-4.57-1.486-6.865-0.879    c-1.967,0.52-3.444,1.695-4.852,3.103c-1.534,1.534-3.069,3.069-4.603,4.603c-1.42,1.42-2.691,2.833-3.29,4.81    c-0.752,2.483-0.408,5.241,0.949,7.454c2.897,4.721,9.527,5.806,13.752,2.217c1.88-1.597,3.556-3.512,5.3-5.256    c-2.082,0.004-4.164,0.008-6.246,0.013c-0.266,0.001-0.743,0.681-0.922,0.86c-0.458,0.458-0.899,0.95-1.44,1.312    c-1.884,1.26-4.472,0.96-6.032-0.675c-1.639-1.719-1.731-4.491-0.184-6.303c0.666-0.78,1.448-1.472,2.173-2.197    C17.88,26.152,19.35,24.681,20.82,23.211z"
   id="path603" />
		<path
   d="M22.657,22.072c-0.104,0.034-0.206,0.072-0.307,0.114C22.451,22.144,22.553,22.106,22.657,22.072z"
   id="path605" />
		<path
   d="M21.485,17.771c-0.142,0.043-0.284,0.09-0.424,0.14c0.156-0.056,0.313-0.107,0.472-0.154    C21.518,17.762,21.501,17.766,21.485,17.771z"
   id="path607" />
		<path
   fill="#c8a461"
   d="M22.797,17.477c-0.149,0.022-0.297,0.048-0.443,0.077c-0.073,0.015-0.147,0.03-0.219,0.046    c0.073-0.016,0.146-0.032,0.22-0.046C22.501,17.525,22.649,17.499,22.797,17.477z"
   id="path609" />
		<path
   fill="#c8a461"
   d="M22.962,24.317c0.003,0.012,0.007,0.023,0.01,0.035l0,0C22.969,24.34,22.965,24.329,22.962,24.317z"
   id="path611" />
		<path
   fill="#c8a461"
   d="M19.586,18.594L19.586,18.594c-0.174,0.101-0.346,0.207-0.514,0.319    C19.24,18.801,19.412,18.695,19.586,18.594L19.586,18.594z"
   id="path613" />
		<path
   fill="#c8a461"
   d="M25.9,37.772l-1.58,1.58c-0.108,0.108-0.219,0.213-0.331,0.316c0.113-0.102,0.223-0.207,0.331-0.316    L25.9,37.772l1.58-1.58l1.58-1.58h0l-1.58,1.58L25.9,37.772z"
   id="path615" />
		<path
   fill="#c8a461"
   d="M11.037,39.021c0.102,0.113,0.207,0.223,0.316,0.331c0.158,0.158,0.323,0.308,0.491,0.453    c-0.168-0.145-0.332-0.295-0.491-0.453C11.244,39.244,11.139,39.133,11.037,39.021z"
   id="path617" />
		<path
   fill="#c8a461"
   d="M20.375,18.189c-0.09,0.041-0.179,0.083-0.267,0.126c-0.088,0.044-0.176,0.089-0.263,0.135    C20.019,18.357,20.196,18.27,20.375,18.189z"
   id="path619" />
		<path
   fill="#c8a461"
   d="M20.825,36.52c-0.12,0.099-0.244,0.191-0.373,0.277c-0.025,0.017-0.05,0.032-0.076,0.048    c0.025-0.016,0.051-0.031,0.076-0.048C20.58,36.711,20.705,36.618,20.825,36.52z"
   id="path621" />
		<path
   fill="#c8a461"
   d="M22.752,34.624l3.157-0.006L22.752,34.624l-1.58,1.58c-0.056,0.056-0.113,0.11-0.17,0.162    c0.058-0.053,0.115-0.107,0.17-0.162L22.752,34.624z"
   id="path623" />
		<path
   fill="#c8a461"
   d="M17.379,42.026c-0.152-0.007-0.303-0.018-0.453-0.033C17.076,42.008,17.227,42.019,17.379,42.026z"
   id="path625" />
		<path
   fill="#c8a461"
   d="M13.272,31.667c-0.024,0.09-0.045,0.181-0.064,0.273C13.227,31.848,13.248,31.758,13.272,31.667z"
   id="path627" />
		<polygon
   fill="#c8a461"
   points="31.791,21.463 31.791,21.463 28.518,24.741   "
   id="polygon629" />
		<path
   fill="#c8a461"
   d="M18.764,37.496c0.302-0.06,0.596-0.149,0.879-0.266C19.36,37.347,19.066,37.436,18.764,37.496z"
   id="path631" />
		<path
   fill="#c8a461"
   d="M18.071,37.581c0.234-0.011,0.466-0.04,0.692-0.085C18.537,37.541,18.306,37.569,18.071,37.581z"
   id="path633" />
	</g>
	<g
   id="g635">
		<path
   fill="#c8a461"
   d="M-185-76h-2v-5.485c0-0.646-0.754-1.515-1.401-1.515h-16.967c-0.646,0-1.633,0.869-1.633,1.515V-76h-2    v-5.485c0-1.938,1.695-3.515,3.633-3.515h16.967c1.938,0,3.401,1.577,3.401,3.515V-76z"
   id="path637" />
		<g
   id="g639">
			<path
   fill="#c8a461"
   d="M-211.936-73.845c-2.2,0-4,1.8-4,4v11.825c0,2.2,1.8,4,4,4h1.663c2.2,0,4-1.36,4-3.023     c0-1.663,1.8-3.023,4-3.023h10.748c2.2,0,4,1.36,4,3.023c0,1.663,1.8,3.023,4,3.023h1.741c2.2,0,4-1.8,4-4v-11.825     c0-2.2-1.8-4-4-4H-211.936z M-182.546-66.245c-1.242,0-2.25-1.007-2.25-2.25s1.007-2.25,2.25-2.25s2.25,1.007,2.25,2.25     S-181.304-66.245-182.546-66.245z"
   id="path641" />
		</g>
		<path
   fill="#c8a461"
   d="M-206-60v12.964c0,0.508,0.156,1.036,0.664,1.036h16.873c0.508,0,0.463-0.528,0.463-1.036V-60h3v12.964    c0,2.067-1.396,4.036-3.463,4.036h-16.873c-2.067,0-3.664-1.969-3.664-4.036V-60H-206z"
   id="path643" />
		<rect
   x="-204"
   y="-53"
   fill="#c8a461"
   width="11"
   height="3"
   id="rect645" />
		<rect
   x="-204"
   y="-58"
   fill="#c8a461"
   width="14"
   height="3"
   id="rect647" />
	</g>
	<g
   id="g649">
		<path
   fill="#c8a461"
   d="M163,30h-2v-5.151c0-0.646-0.421-1.849-1.067-1.849h-16.967C142.32,23,141,24.202,141,24.849V30h-2v-5.151    c0-1.938,2.028-3.849,3.966-3.849h16.967c1.938,0,3.067,1.91,3.067,3.849V30z"
   id="path651" />
		<g
   id="g653">
			<path
   fill="#c8a461"
   d="M136.397,32.488c-2.2,0-4,1.8-4,4v11.825c0,2.2,1.8,4,4,4h1.663c2.2,0,4-1.36,4-3.023     c0-1.663,1.8-3.023,4-3.023h10.748c2.2,0,4,1.36,4,3.023c0,1.663,1.8,3.023,4,3.023h1.741c2.2,0,4-1.8,4-4V36.488     c0-2.2-1.8-4-4-4H136.397z M165.787,40.088c-1.242,0-2.25-1.007-2.25-2.25s1.007-2.25,2.25-2.25s2.25,1.007,2.25,2.25     S167.03,40.088,165.787,40.088z"
   id="path655" />
		</g>
		<path
   fill="#c8a461"
   d="M142,46v13.297c0,0.508,0.489,0.703,0.997,0.703h16.873c0.508,0,0.13-0.195,0.13-0.703V46h3v13.297    c0,2.067-1.062,3.703-3.13,3.703h-16.873C140.93,63,139,61.365,139,59.297V46H142z"
   id="path657" />
		<rect
   x="144"
   y="53"
   fill="#c8a461"
   width="11"
   height="3"
   id="rect659" />
		<rect
   x="144"
   y="48"
   fill="#c8a461"
   width="14"
   height="3"
   id="rect661" />
	</g>
	<path
   fill="#c8a461"
   d="M-910-74h-314v-210h314V-74z M-1204-94h274v-170h-274V-94z"
   id="path663" />
	<g
   id="g665">
		<polygon
   fill="#c8a461"
   points="-1051.615,-166.506 -927.689,-80.776 -916.311,-97.224 -1034.426,-178.933   "
   id="polygon667" />
		<polygon
   fill="#c8a461"
   points="-1221.859,-91.104 -1210.141,-74.896 -1084.13,-165.998 -1101.574,-178.067   "
   id="polygon669" />
		<polygon
   fill="#c8a461"
   points="-1208.311,-276.224 -1219.689,-259.776 -1101.574,-178.067 -1084.385,-190.494   "
   id="polygon671" />
		<polygon
   fill="#c8a461"
   points="-914.141,-265.896 -925.859,-282.104 -1051.87,-191.002 -1034.426,-178.933   "
   id="polygon673" />
		<polygon
   fill="#c8a461"
   points="-1084.13,-165.998 -1067.873,-154.752 -1051.615,-166.506 -1067.873,-177.752   "
   id="polygon675" />
		<polygon
   fill="#c8a461"
   points="-1051.87,-191.002 -1068.127,-179.248 -1084.385,-190.494 -1101.574,-178.067 -1084.13,-165.998     -1067.873,-177.752 -1051.615,-166.506 -1034.426,-178.933   "
   id="polygon677" />
	</g>
	<g
   id="g679">
		<path
   fill="#c8a461"
   d="M-109-51h-44v-31h44V-51z M-151-54h40v-26h-40V-54z"
   id="path681" />
		<g
   id="g683">
			<polygon
   fill="none"
   points="-131.903,-66.774 -131.088,-66.162 -130.273,-66.774 -131.088,-67.386    "
   id="polygon685" />
			<path
   fill="#c8a461"
   d="M-131.088-66.162l-0.408-0.306l-0.408-0.306l-0.827,0.621l-0.827,0.621c0,0,0.895,0.744,1.234,0.927     c0.276,0.149,0.832,0.299,1.218,0.299s0.967-0.148,1.251-0.299c0.341-0.181,1.234-0.927,1.234-0.927l-0.827-0.621l-0.827-0.621     l-0.408,0.306L-131.088-66.162z"
   id="path687" />
			<polygon
   fill="#c8a461"
   points="-109.506,-79.882 -110.698,-81.47 -128.619,-68.016 -126.965,-66.774    "
   id="polygon689" />
			<polygon
   fill="#c8a461"
   points="-151.477,-81.47 -152.669,-79.882 -135.21,-66.774 -133.557,-68.016    "
   id="polygon691" />
			<polygon
   fill="#c8a461"
   points="-152.669,-53.666 -151.477,-52.078 -133.557,-65.532 -135.21,-66.774    "
   id="polygon693" />
			<polygon
   fill="#c8a461"
   points="-128.619,-65.532 -110.698,-52.078 -109.506,-53.666 -126.965,-66.774    "
   id="polygon695" />
			<polygon
   fill="#c8a461"
   points="-133.557,-68.016 -135.21,-66.774 -133.557,-65.532 -131.903,-66.774    "
   id="polygon697" />
			<polygon
   fill="#c8a461"
   points="-128.619,-68.016 -130.273,-66.774 -128.619,-65.532 -126.965,-66.774    "
   id="polygon699" />
		</g>
	</g>
	<g
   id="g701">
		<path
   fill="#c8a461"
   d="M175-44h-44v-31h44V-44z M133-47h40v-26h-40V-47z"
   id="path703" />
		<g
   id="g705">
			<polygon
   fill="none"
   points="152.431,-60.107 153.246,-59.495 154.061,-60.107 153.246,-60.719    "
   id="polygon707" />
			<path
   fill="#c8a461"
   d="M153.246-59.495l-0.408-0.306l-0.408-0.306l-0.827,0.621l-0.827,0.621c0,0,0.895,0.744,1.234,0.927     c0.276,0.149,0.832,0.299,1.218,0.299s0.967-0.148,1.251-0.299c0.341-0.181,1.234-0.927,1.234-0.927l-0.827-0.621l-0.827-0.621     l-0.408,0.306L153.246-59.495z"
   id="path709" />
			<polygon
   fill="#c8a461"
   points="174.827,-73.215 173.635,-74.803 155.715,-61.349 157.368,-60.107    "
   id="polygon711" />
			<polygon
   fill="#c8a461"
   points="132.856,-74.803 131.664,-73.215 149.123,-60.107 150.777,-61.349    "
   id="polygon713" />
			<polygon
   fill="#c8a461"
   points="131.664,-46.999 132.856,-45.411 150.777,-58.866 149.123,-60.107    "
   id="polygon715" />
			<polygon
   fill="#c8a461"
   points="155.715,-58.866 173.635,-45.411 174.827,-46.999 157.368,-60.107    "
   id="polygon717" />
			<polygon
   fill="#c8a461"
   points="150.777,-61.349 149.123,-60.107 150.777,-58.866 152.431,-60.107    "
   id="polygon719" />
			<polygon
   fill="#c8a461"
   points="155.715,-61.349 154.061,-60.107 155.715,-58.866 157.368,-60.107    "
   id="polygon721" />
		</g>
	</g>
</g>
</svg>