<?xml version="1.0" encoding="utf-8"?>
<!-- Generator: Adobe Illustrator 16.0.0, SVG Export Plug-In . SVG Version: 6.00 Build 0)  -->
<!DOCTYPE svg PUBLIC "-//W3C//DTD SVG 1.1//EN" "http://www.w3.org/Graphics/SVG/1.1/DTD/svg11.dtd">
<svg version="1.1" id="Calque_1" xmlns="http://www.w3.org/2000/svg" xmlns:xlink="http://www.w3.org/1999/xlink" x="0px" y="0px"
	 width="72px" height="40px" viewBox="0 0 72 40" enable-background="new 0 0 72 40" xml:space="preserve">
<g id="g21">
	<g id="g23">
		<path id="path25" fill="#FFFFFF" d="M36.003-0.135C16.04-0.135,0,8.941,0,19.934C0,30.929,15.876,40,36.003,40
			C56.007,40,72,30.929,72,19.934C72,8.941,55.931-0.135,36.003-0.135z M35.965,38.956c-18.367,0-34.083-8.687-34.083-19.031
			c0-10.343,16.077-19.222,34.083-19.222c18.323,0,34.062,8.877,34.062,19.222C70.027,30.269,54.209,38.956,35.965,38.956z"/>
		<path id="path27" fill="#FFFFFF" d="M63.148,17.436c-1.109,0.231-2.139,0.592-3.191,0.913c-0.681,0.208-1.372,0.399-2.1,0.526
			l-0.299-0.005l0.13-0.2c0.102-0.108,0.205-0.216,0.311-0.321c1.054-1.054,2.247-1.967,3.349-2.99
			c0.345-0.413,1.105-0.729,0.858-1.479c-0.226-0.119-0.833,0.13-1.125,0.263c-2.141,1.131-4.114,2.401-5.926,4.168
			c-0.053,0.052-0.105,0.104-0.159,0.156c-1.027,0.794-1.217,2.63-2.757,2.526c-0.977-0.092-1.116-0.084-1.492-0.219
			c1.57-1.238,4.591-5.334,4.861-6.313c0,0,0.272-0.885-0.104-0.855c-1.438,0.536-2.797,1.781-3.92,2.789
			c0.104-0.496,0.895-1.445,0.509-2.019c-2.492,0.537-6.006,3.945-6.025,3.956c-0.667,0.453-0.914,1.909-1.953,1.692
			c-0.65-0.091-1.435-0.1-1.815-0.325c0.667-0.407,1.309-0.862,1.929-1.35c1.438-1.129,2.775-2.427,4.139-3.676
			c0.078-0.183,0.526-0.365,0.271-0.641c-0.435-0.356-0.944,0.169-1.417,0.254c-2.157,0.966-3.613,2.269-5.04,4.063
			c-0.266,0.337-0.664,0.768-0.9,1.155c-1.018-0.122-1.56-0.066-2.059-0.396c0.304-0.257,0.612-0.508,0.921-0.76
			c1.663-1.344,3.355-2.67,4.624-4.664c-0.127-0.676-0.795-0.134-1.115-0.005c-2.267,1.144-4.13,2.554-5.556,4.787
			c-0.089,0.138-0.174,0.278-0.257,0.426c-0.999-0.027-1.86-0.228-2.722-0.428c-0.018-0.005-0.036-0.01-0.054-0.014l0.006-0.094
			c2.176-1.135,4.11-3.083,5.608-5.388c0,0,1.245-2.228-1.482-0.386c-2.037,1.338-3.892,3.104-5.19,5.613
			c0,0-1.369,0.054-1.369-0.098c1.318-1.656,2.85-3.789,3.623-5.967c0.074-0.339,0.276-1.051-0.212-1.126
			c-1.834,0.786-3.045,2.988-4.027,5.052c-0.298,0.607-0.463,1.373-0.73,1.949c-1.226-0.061-2.073,0.048-3.25-0.31
			c1.476-1.324,3.087-2.415,4.431-4.003c0.228-0.433,1.739-1.49,1.701-2.855c-0.472-0.294-0.945,0.053-1.233,0.269l-4.139,3.372
			l-0.217,0.012c0.659-1.207,2.102-2.972,2.691-4.219c0.2-0.418,0.445-0.798,0.428-1.306l-0.365-0.122
			c-2.995,1.315-5.574,4.313-6.587,8.179c-0.247,0.356-0.368,1.043-0.876,0.839c-0.064-1.05-0.384-2.027-0.735-2.978
			c-1.284-2.742-3.125-4.743-5.48-6.188c-0.384-0.225-0.605,0.198-0.479,0.526c0.332,1.928,1.498,3.139,2.301,4.605
			c0.956,1.51,2.252,2.875,3.344,4.239c-0.374,0.128-8.885,2.201-10.4,3.453c-0.793,0.447-2.065,1.485-2.046,3.76
			c0.067,0.672,0.527,1.332,1.107,1.529c0.551,0.083,0.938,0.131,1.301-0.122c1.569-2.043,3.388-3.91,5.415-5.153
			c1.392-0.747,2.413-1.477,4.011-1.681c0.657,0.629,1.084,1.453,1.984,2.213c1.771,1.649,3.326,2.767,5.768,3.177l0.243-0.084
			l-0.088-0.229c-1.292-1.92-3.267-3.132-5.288-4.136c-0.345-0.268-1.183-0.721-1.229-1.262c1.244-0.426,2.903-0.55,4.397-0.184
			c1.788,3.172,3.76,6.655,6.623,8.648c0.214,0.053,0.363-0.251,0.255-0.45c-1.985-4.942-3.256-5.387-5.29-7.657
			c-0.111-0.168-0.264-0.562,0.026-0.694l1.902,0.031c0.614,0.086,1.451-0.091,1.6,0.183c0.092,3.268,2.152,5.764,3.392,8.251
			c0,0,0.402,0.234,0.379-0.192l0.012-0.026c-0.507-5.756-2.616-7.081-2.935-8.059c0.325-0.022,0.681-0.002,0.947,0.147
			c1.338,2.783,3.157,4.887,5.552,6.463c0.051,0.034,0.348,0.07,0.154-0.374c-0.695-2.391-2.847-3.613-4.24-5.417l-0.244-0.466
			l0.281-0.037c0.599,0.121,1.406,0.259,1.846,0.553c0.794,1.558,1.868,2.761,3.014,3.876c0.946,0.875,1.757,1.899,3.188,2.184
			l0.15-0.021l0.045-0.126l-0.045-0.186c-0.884-2.367-3.271-3.361-4.955-5.03c-0.116-0.107-0.328-0.537-0.011-0.604l2.715,0.403
			c4.084,5.57,5.661,5.351,5.661,5.351s1.228,0.29,0.663-0.626c-1.331-1.416-2.489-2.063-4.082-3.355
			c-0.286-0.275-1.001-0.77-0.926-1.269c0.582,0.09,0.681,0.085,1.869,0.222c0.373,0.055,0.881,0.12,1.169,0.251
			c2.13,0.973,2.316,4.021,7.492,4.662c0.185,0.019,0.225-0.236,0.095-0.402c-1.478-1.177-5.333-3.818-5.568-4.122
			c0.493,0.045,2.565,0.349,2.894,0.506c2.603,1.435,4.194,2.506,7.918,2.001c0.321-0.478-0.197-0.671-0.638-0.848l-2.1-0.833
			c-0.27-0.088-1.435-0.32-1.855-0.459c2.231-0.718,5.172-1.549,7.133-2.765c0.312-0.25,0.68-0.439,0.983-0.714
			c0.207-0.187,0.38-0.414,0.49-0.723C63.661,17.29,63.148,17.436,63.148,17.436z M25.67,17.834
			c-0.234-0.148-0.048-0.441,0.025-0.561c0.069-0.09,0.87-1.559,1.577-1.18C27.396,16.456,26.171,17.915,25.67,17.834z
			 M50.229,18.354c-0.395,0.659-0.114,1.599-0.626,2.213l-3.479-0.457c2.02-0.734,3.661-2.144,4.632-2.718L50.229,18.354z
			 M53.979,21.093c-0.027-0.384,0.405-0.725,0.676-0.985c1.169-0.978,1.344-0.025,1.344-0.025
			C55.467,20.509,54.712,21.014,53.979,21.093z"/>
	</g>
</g>
</svg>
