<?xml version="1.0" encoding="UTF-8" standalone="no"?>
<!-- Generator: Adobe Illustrator 15.1.0, SVG Export Plug-In . SVG Version: 6.00 Build 0)  -->

<svg
   xmlns:dc="http://purl.org/dc/elements/1.1/"
   xmlns:cc="http://creativecommons.org/ns#"
   xmlns:rdf="http://www.w3.org/1999/02/22-rdf-syntax-ns#"
   xmlns:svg="http://www.w3.org/2000/svg"
   xmlns="http://www.w3.org/2000/svg"
   xmlns:sodipodi="http://sodipodi.sourceforge.net/DTD/sodipodi-0.dtd"
   xmlns:inkscape="http://www.inkscape.org/namespaces/inkscape"
   version="1.1"
   id="Calque_1"
   x="0px"
   y="0px"
   width="85.635px"
   height="60px"
   viewBox="0 0 85.635 60"
   enable-background="new 0 0 85.635 60"
   xml:space="preserve"
   inkscape:version="0.48.4 r9939"
   sodipodi:docname="puce-big.svgz"><metadata
   id="metadata29"><rdf:RDF><cc:Work
       rdf:about=""><dc:format>image/svg+xml</dc:format><dc:type
         rdf:resource="http://purl.org/dc/dcmitype/StillImage" /><dc:title></dc:title></cc:Work></rdf:RDF></metadata><defs
   id="defs27" /><sodipodi:namedview
   pagecolor="#ffffff"
   bordercolor="#666666"
   borderopacity="1"
   objecttolerance="10"
   gridtolerance="10"
   guidetolerance="10"
   inkscape:pageopacity="0"
   inkscape:pageshadow="2"
   inkscape:window-width="640"
   inkscape:window-height="480"
   id="namedview25"
   showgrid="false"
   inkscape:zoom="3.9333333"
   inkscape:cx="42.817501"
   inkscape:cy="30"
   inkscape:window-x="0"
   inkscape:window-y="0"
   inkscape:window-maximized="0"
   inkscape:current-layer="Calque_1" />
<g
   id="g3">
	<g
   id="g5">
		<rect
   x="7731"
   y="25"
   fill="#C8A461"
   width="55"
   height="5"
   id="rect7" />
	</g>
	<g
   id="g9">
		<rect
   x="7731"
   y="39"
   fill="#C8A461"
   width="55"
   height="5"
   id="rect11" />
	</g>
	<g
   id="g13">
		<rect
   x="7731"
   y="53"
   fill="#C8A461"
   width="55"
   height="5"
   id="rect15" />
	</g>
	<g
   id="g17">
		<rect
   x="7731"
   y="67"
   fill="#C8A461"
   width="27"
   height="5"
   id="rect19" />
	</g>
</g>
<g
   id="g21">
	<path
   d="M42.79,60.024c-16.503,0-29.931-13.427-29.931-29.929c0-16.506,13.428-29.929,29.931-29.929S72.718,13.59,72.718,30.096   C72.718,46.598,59.293,60.024,42.79,60.024z M42.79,15.581c-8.004,0-14.517,6.51-14.517,14.515c0,8.002,6.513,14.517,14.517,14.517   c8.005,0,14.512-6.515,14.512-14.517C57.302,22.091,50.795,15.581,42.79,15.581z"
   id="path23" fill="#C8A461" />
</g>
</svg>