<?xml version="1.0" encoding="UTF-8" standalone="no"?>
<!-- Generator: Adobe Illustrator 17.0.0, SVG Export Plug-In . SVG Version: 6.00 Build 0)  -->

<svg
   xmlns:dc="http://purl.org/dc/elements/1.1/"
   xmlns:cc="http://creativecommons.org/ns#"
   xmlns:rdf="http://www.w3.org/1999/02/22-rdf-syntax-ns#"
   xmlns:svg="http://www.w3.org/2000/svg"
   xmlns="http://www.w3.org/2000/svg"
   xmlns:sodipodi="http://sodipodi.sourceforge.net/DTD/sodipodi-0.dtd"
   xmlns:inkscape="http://www.inkscape.org/namespaces/inkscape"
   version="1.1"
   id="Calque_1"
   x="0px"
   y="0px"
   width="924.37px"
   height="900.36px"
   viewBox="191.597 1895.535 924.37 900.36"
   enable-background="new 191.597 1895.535 924.37 900.36"
   xml:space="preserve"
   inkscape:version="0.48.4 r9939"
   sodipodi:docname="Lireplustard.svgz"><metadata
   id="metadata9"><rdf:RDF><cc:Work
       rdf:about=""><dc:format>image/svg+xml</dc:format><dc:type
         rdf:resource="http://purl.org/dc/dcmitype/StillImage" /><dc:title></dc:title></cc:Work></rdf:RDF></metadata><defs
   id="defs7" /><sodipodi:namedview
   pagecolor="#ffffff"
   bordercolor="#666666"
   borderopacity="1"
   objecttolerance="10"
   gridtolerance="10"
   guidetolerance="10"
   inkscape:pageopacity="0"
   inkscape:pageshadow="2"
   inkscape:window-width="640"
   inkscape:window-height="480"
   id="namedview5"
   showgrid="false"
   inkscape:zoom="0.26211738"
   inkscape:cx="462.185"
   inkscape:cy="450.17999"
   inkscape:window-x="0"
   inkscape:window-y="0"
   inkscape:window-maximized="0"
   inkscape:current-layer="Calque_1" />
<path
   d="M1011.8,2153.4H935v76.8c0,14.131-11.469,25.6-25.6,25.6s-25.6-11.469-25.6-25.6v-76.8H807c-14.131,0-25.6-11.469-25.6-25.6  c0-14.131,11.469-25.6,25.6-25.6h76.8v-76.8c0-14.131,11.469-25.6,25.6-25.6s25.6,11.469,25.6,25.6v76.8h76.8  c14.131,0,25.6,11.469,25.6,25.6C1037.4,2141.931,1025.931,2153.4,1011.8,2153.4z M718.949,2434.347l-81.843-66.957  c-11.354-4.454-22.106-12.595-22.106-21.99l0.179-2.394c-0.32-3.2,0.064-6.733,0.794-10.317L627.8,2179  c0-14.131,11.469-25.6,25.6-25.6c14.131,0,25.6,11.469,25.6,25.6l10.701,139.162l65.446,80c9.997,9.997,9.997,26.202,0,36.198  C745.163,2444.344,728.946,2444.344,718.949,2434.347z M741.093,2024.274l-0.115,0.358c-27.955-7.616-57.216-12.032-87.578-12.032  c-183.795,0-332.8,149.005-332.8,332.8c0,183.795,149.005,332.8,332.8,332.8s332.8-149.005,332.8-332.8  c0-16.973-1.677-33.51-4.122-49.805l0.627-0.09c-0.576-2.01-0.973-4.083-1.024-6.272c-0.32-14.131,10.88-25.856,25.024-26.176  c14.131-0.32,25.856,10.88,26.163,25.024c0.013,0.358-0.077,0.691-0.077,1.037c2.726,18.419,4.608,37.107,4.608,56.282  c0,212.07-171.93,384-384,384s-384-171.929-384-384c0-212.083,171.93-384,384-384c32.845,0,64.55,4.608,94.963,12.416  c2.534,0.218,5.082,0.704,7.59,1.728c13.069,5.402,19.277,20.378,13.875,33.434C765.054,2020.51,752.856,2026.667,741.093,2024.274z  "
   id="path3" />
</svg>