<?xml version="1.0" encoding="utf-8"?>
<!-- Generator: Adobe Illustrator 16.0.0, SVG Export Plug-In . SVG Version: 6.00 Build 0)  -->
<!DOCTYPE svg PUBLIC "-//W3C//DTD SVG 1.1//EN" "http://www.w3.org/Graphics/SVG/1.1/DTD/svg11.dtd">
<svg version="1.1" id="Calque_1" xmlns="http://www.w3.org/2000/svg" xmlns:xlink="http://www.w3.org/1999/xlink" x="0px" y="0px"
	 width="33px" height="23px" viewBox="0 0 33 23" enable-background="new 0 0 33 23" xml:space="preserve">
<path fill="#999999" d="M8.794,0C3.946,0,0,4.058,0,9.132c0,1.24,0.226,2.481,0.677,3.608c0,0,1.015,1.916,1.578,2.48L8.794,23
	l6.426-7.555c0.678-0.676,1.692-2.705,1.692-2.705c0.449-1.127,0.677-2.368,0.677-3.608C17.701,4.058,13.642,0,8.794,0
	 M8.794,11.613c-1.804,0-3.27-1.467-3.27-3.27c0-1.805,1.466-3.27,3.27-3.27s3.269,1.465,3.269,3.27
	C12.063,10.146,10.599,11.613,8.794,11.613"/>
</svg>
