<?xml version="1.0" encoding="utf-8"?>
<!-- Generator: Adobe Illustrator 16.0.0, SVG Export Plug-In . SVG Version: 6.00 Build 0)  -->
<!DOCTYPE svg PUBLIC "-//W3C//DTD SVG 1.1//EN" "http://www.w3.org/Graphics/SVG/1.1/DTD/svg11.dtd">
<svg version="1.1" id="Calque_1" xmlns="http://www.w3.org/2000/svg" xmlns:xlink="http://www.w3.org/1999/xlink" x="0px" y="0px"
	 width="52px" height="49px" viewBox="0 0 52 49" enable-background="new 0 0 52 49" xml:space="preserve">
<g>
	<g>
		<g>
			<g>
				<path fill="#B1B0B1" d="M50.928,2.144H38.866l-3.485-1.876C35.113,0,34.846,0,34.577,0H26l0,0l0,0h-8.845
					c-0.268,0-0.536,0-0.536,0.268l-3.752,1.876H1.072C0.536,2.144,0,2.68,0,3.216v32.969c0,0.804,0.536,1.34,1.072,1.34h49.855
					c0.536,0,1.072-0.536,1.072-1.071V3.216C52,2.68,51.464,2.144,50.928,2.144z M49.588,35.113H2.145V4.289h11.257
					c0.536,0,0.804-0.268,0.804-0.536l3.217-1.876h8.041l0,0l0,0h8.042l4.02,1.876c0.269,0.268,0.537,0.536,0.805,0.536h11.525
					L49.588,35.113L49.588,35.113z"/>
			</g>
		</g>
	</g>
	<g>
		<path fill="#B1B0B1" d="M26,30.557c-6.165,0-10.99-5.093-10.99-10.989c0-5.897,5.093-10.99,10.99-10.99
			c5.896,0,10.99,5.093,10.99,10.99C36.99,25.464,32.165,30.557,26,30.557z M26,13.67c-3.216,0-5.897,2.681-5.897,5.897
			c0,3.216,2.681,5.896,5.897,5.896c3.217,0,5.896-2.681,5.896-5.896C31.896,16.351,29.217,13.67,26,13.67z"/>
	</g>
	<path fill="#B1B0B1" d="M7.773,12.33H7.505c-1.072,0-1.608-0.804-1.608-1.608v-0.536c0-1.072,0.804-1.608,1.608-1.608h0.268
		c1.072,0,1.608,0.804,1.608,1.608v0.268C9.649,11.525,8.845,12.33,7.773,12.33z"/>
</g>
</svg>
