<?xml version="1.0" encoding="utf-8"?>
<!-- Generator: Adobe Illustrator 16.0.0, SVG Export Plug-In . SVG Version: 6.00 Build 0)  -->
<!DOCTYPE svg PUBLIC "-//W3C//DTD SVG 1.1//EN" "http://www.w3.org/Graphics/SVG/1.1/DTD/svg11.dtd">
<svg version="1.1" id="Calque_1" xmlns="http://www.w3.org/2000/svg" xmlns:xlink="http://www.w3.org/1999/xlink" x="0px" y="0px"
	 width="52px" height="49px" viewBox="0 0 52 49" enable-background="new 0 0 52 49" xml:space="preserve">
<g>
	<path fill="#B1B0B1" d="M19.5,35.979H9.382V1.288H19.5V35.979z M10.827,34.531h7.228V2.734h-7.228V34.531z"/>
	<rect x="11.86" y="29.164" fill="#B1B0B1" width="5.162" height="1.443"/>
	<rect x="11.86" y="26.066" fill="#B1B0B1" width="5.162" height="1.445"/>
	<rect x="11.86" y="6.451" fill="#B1B0B1" width="5.162" height="1.445"/>
	<path fill="#B1B0B1" d="M31.063,35.979H20.945V1.288h10.119V35.979z M22.392,34.531h7.227V2.734h-7.227V34.531z"/>
	<rect x="23.423" y="29.164" fill="#B1B0B1" width="5.162" height="1.443"/>
	<rect x="23.423" y="26.066" fill="#B1B0B1" width="5.162" height="1.445"/>
	<rect x="23.423" y="6.451" fill="#B1B0B1" width="5.162" height="1.445"/>
	<g>
		<path fill="#B1B0B1" d="M35.193,36.184L30.649,1.701l10.118-1.652l4.542,34.277L35.193,36.184z M32.304,2.94l4.128,31.386
			l7.227-1.24l-4.13-31.385L32.304,2.94z"/>
		
			<rect x="38.631" y="26.668" transform="matrix(0.1565 0.9877 -0.9877 0.1565 62.0828 -14.1997)" fill="#B1B0B1" width="1.448" height="5.161"/>
		
			<rect x="38.271" y="23.665" transform="matrix(0.171 0.9853 -0.9853 0.171 58.1865 -16.6607)" fill="#B1B0B1" width="1.445" height="5.162"/>
		
			<rect x="35.686" y="4.093" transform="matrix(0.1581 0.9874 -0.9874 0.1581 37.241 -30.3317)" fill="#B1B0B1" width="1.445" height="5.164"/>
	</g>
</g>
</svg>
