<?xml version="1.0" encoding="utf-8"?>
<!-- Generator: Adobe Illustrator 16.0.0, SVG Export Plug-In . SVG Version: 6.00 Build 0)  -->
<!DOCTYPE svg PUBLIC "-//W3C//DTD SVG 1.1//EN" "http://www.w3.org/Graphics/SVG/1.1/DTD/svg11.dtd">
<svg version="1.1" id="Calque_1" xmlns="http://www.w3.org/2000/svg" xmlns:xlink="http://www.w3.org/1999/xlink" x="0px" y="0px"
	 width="52px" height="49px" viewBox="0 0 52 49" enable-background="new 0 0 52 49" xml:space="preserve">
<path fill="#D0D1D0" d="M43.82,5.083L32.516,0.99c-0.193,0-0.39,0-0.584,0L20.823,4.887L9.909,0.99c-0.39,0-0.78,0-0.975,0.195
	c-0.195,0.194-0.39,0.584-0.39,0.779v28.063c0,0.391,0.195,0.78,0.584,0.976l11.304,5.066c0.195,0.195,0.585,0.195,0.779,0
	l10.914-4.872l10.914,4.872c0.195,0,0.195,0,0.39,0c0.195,0,0.391,0,0.585-0.194c0.195-0.195,0.39-0.39,0.39-0.779V6.057
	C44.6,5.667,44.21,5.277,43.82,5.083z M20.433,33.731l-9.939-4.288V3.329l9.939,3.508V33.731z M31.736,29.055l-10.329,4.481v-26.7
	l10.329-3.703V29.055z M42.651,33.536l-9.94-4.287V3.329l9.94,3.508V33.536z"/>
</svg>
