<?xml version="1.0" encoding="utf-8"?>
<!-- Generator: Adobe Illustrator 19.1.0, SVG Export Plug-In . SVG Version: 6.00 Build 0)  -->
<svg version="1.1" id="Calque_1" xmlns="http://www.w3.org/2000/svg" xmlns:xlink="http://www.w3.org/1999/xlink" x="0px" y="0px"
	 viewBox="0 0 24 17.1" style="enable-background:new 0 0 24 17.1;" xml:space="preserve">
<path d="M22.3,0H1.7C0.8,0,0,0.8,0,1.7v13.8c0,0.9,0.8,1.7,1.7,1.7h20.6c0.9,0,1.7-0.8,1.7-1.7V1.7C24,0.8,23.2,0,22.3,0z
	 M10.2,13.9H3.5c-0.4,0-0.8-0.4-0.8-0.8c0-0.4,0.4-0.8,0.8-0.8h6.7c0.4,0,0.8,0.4,0.8,0.8C10.9,13.6,10.6,13.9,10.2,13.9z M10.2,9.3
	H3.5C3.1,9.3,2.7,9,2.7,8.6c0-0.4,0.4-0.8,0.8-0.8h6.7c0.4,0,0.8,0.4,0.8,0.8C10.9,9,10.6,9.3,10.2,9.3z M10.2,4.7H3.5
	C3.1,4.7,2.7,4.4,2.7,4s0.4-0.8,0.8-0.8h6.7c0.4,0,0.8,0.4,0.8,0.8S10.6,4.7,10.2,4.7z M21.3,10.5c0,0.4-0.4,0.8-0.8,0.8h-5.6
	c-0.4,0-0.8-0.4-0.8-0.8V4c0-0.4,0.4-0.8,0.8-0.8h5.6c0.4,0,0.8,0.4,0.8,0.8L21.3,10.5L21.3,10.5z"/>
</svg>
