<?xml version="1.0" encoding="utf-8"?>
<!-- Generator: Adobe Illustrator 16.0.0, SVG Export Plug-In . SVG Version: 6.00 Build 0)  -->
<!DOCTYPE svg PUBLIC "-//W3C//DTD SVG 1.1//EN" "http://www.w3.org/Graphics/SVG/1.1/DTD/svg11.dtd">
<svg version="1.1" id="Calque_1" xmlns="http://www.w3.org/2000/svg" xmlns:xlink="http://www.w3.org/1999/xlink" x="0px" y="0px"
	 width="33px" height="23px" viewBox="0 0 33 23" enable-background="new 0 0 33 23" xml:space="preserve">
<g>
	<path fill="#999999" d="M11.425,0.074C5.065,0.074-0.001,5.14-0.001,11.5c0,6.252,5.066,11.426,11.426,11.426
		c6.36,0,11.426-5.065,11.426-11.426C22.742,5.14,17.677,0.074,11.425,0.074z M11.425,20.123c-4.851,0-8.731-3.881-8.731-8.731
		c0-4.85,3.88-8.73,8.731-8.73s8.73,3.88,8.73,8.73C20.048,16.242,16.167,20.123,11.425,20.123z"/>
	<path fill="#999999" d="M12.287,7.296c-0.323,0-0.539,0.108-0.754,0.324c-0.216,0.215-0.324,0.431-0.324,0.646
		c0,0.216,0.107,0.539,0.324,0.647c0.215,0.107,0.431,0.323,0.754,0.323c0.324,0,0.539-0.108,0.754-0.323
		c0.216-0.216,0.323-0.431,0.323-0.647c0-0.215-0.215-0.431-0.432-0.646C12.718,7.404,12.502,7.296,12.287,7.296z"/>
	<path fill="#999999" d="M12.502,14.841c-0.215,0-0.431,0-0.431-0.107c-0.108-0.107-0.108-0.216-0.108-0.431
		c0-0.108,0-0.217,0-0.324c0-0.106,0.108-0.323,0.108-0.432l0.431-1.508c0-0.107,0.108-0.324,0.108-0.432s0-0.323,0-0.323
		c0-0.324-0.108-0.539-0.324-0.755c-0.215-0.215-0.539-0.323-0.971-0.323c-0.215,0-0.431,0-0.754,0.107
		c-0.324,0.108-0.539,0.108-0.862,0.215L9.592,10.96c0.108,0,0.216-0.107,0.324-0.107s0.216,0,0.323,0c0.215,0,0.431,0,0.431,0.107
		c0,0.108,0.108,0.215,0.108,0.431c0,0.108,0,0.216,0,0.323c0,0.108-0.108,0.324-0.108,0.433l-0.431,1.508
		c0,0.108-0.107,0.323-0.107,0.431c0,0.108,0,0.217,0,0.324c0,0.323,0.107,0.539,0.323,0.755c0.216,0.215,0.54,0.323,0.971,0.323
		c0.323,0,0.539,0,0.754-0.108s0.432-0.215,0.862-0.322l0.108-0.432c-0.108,0-0.108,0.107-0.323,0.107
		C12.718,14.841,12.611,14.841,12.502,14.841z"/>
</g>
</svg>
