<?xml version="1.0" encoding="utf-8"?>
<!-- Generator: Adobe Illustrator 16.0.0, SVG Export Plug-In . SVG Version: 6.00 Build 0)  -->
<!DOCTYPE svg PUBLIC "-//W3C//DTD SVG 1.1//EN" "http://www.w3.org/Graphics/SVG/1.1/DTD/svg11.dtd">
<svg version="1.1" id="Calque_1" xmlns="http://www.w3.org/2000/svg" xmlns:xlink="http://www.w3.org/1999/xlink" x="0px" y="0px"
	 width="33px" height="23px" viewBox="0 0 33 23" enable-background="new 0 0 33 23" xml:space="preserve">
<g>
	<path fill="#999999" d="M16.499,1.356c-5.647,0-10.145,4.497-10.145,10.145c0,5.552,4.497,10.144,10.145,10.144
		S26.645,17.148,26.645,11.5C26.547,5.853,22.051,1.356,16.499,1.356z M16.499,19.158c-4.307,0-7.752-3.447-7.752-7.754
		c0-4.306,3.445-7.751,7.752-7.751s7.75,3.445,7.75,7.751C24.155,15.711,20.709,19.158,16.499,19.158z"/>
	<path fill="#999999" d="M17.265,7.768c-0.287,0-0.479,0.095-0.669,0.288c-0.192,0.191-0.288,0.382-0.288,0.573
		c0,0.192,0.095,0.479,0.288,0.575c0.19,0.095,0.382,0.286,0.669,0.286c0.286,0,0.479-0.096,0.67-0.286
		c0.191-0.193,0.286-0.383,0.286-0.575c0-0.19-0.191-0.382-0.383-0.573C17.647,7.864,17.456,7.768,17.265,7.768z"/>
	<path fill="#999999" d="M17.456,14.467c-0.191,0-0.383,0-0.383-0.096c-0.097-0.094-0.097-0.191-0.097-0.383
		c0-0.096,0-0.193,0-0.287s0.097-0.285,0.097-0.383l0.383-1.337c0-0.097,0.095-0.289,0.095-0.386c0-0.095,0-0.285,0-0.285
		c0-0.288-0.095-0.479-0.286-0.671c-0.19-0.192-0.479-0.287-0.862-0.287c-0.191,0-0.382,0-0.669,0.095
		c-0.288,0.098-0.479,0.098-0.765,0.192l-0.098,0.381c0.098,0,0.193-0.095,0.288-0.095c0.097,0,0.192,0,0.288,0
		c0.191,0,0.383,0,0.383,0.095c0,0.097,0.095,0.191,0.095,0.383c0,0.095,0,0.191,0,0.286c0,0.095-0.095,0.287-0.095,0.384
		l-0.383,1.338c0,0.098-0.095,0.287-0.095,0.383s0,0.191,0,0.289c0,0.283,0.095,0.477,0.286,0.668
		c0.192,0.191,0.48,0.287,0.862,0.287c0.286,0,0.478,0,0.669-0.096c0.19-0.098,0.382-0.191,0.766-0.285l0.095-0.383
		c-0.095,0-0.095,0.092-0.285,0.092C17.647,14.467,17.551,14.467,17.456,14.467z"/>
</g>
</svg>
