<?xml version="1.0" encoding="utf-8"?>
<!-- Generator: Adobe Illustrator 16.0.0, SVG Export Plug-In . SVG Version: 6.00 Build 0)  -->
<!DOCTYPE svg PUBLIC "-//W3C//DTD SVG 1.1//EN" "http://www.w3.org/Graphics/SVG/1.1/DTD/svg11.dtd">
<svg version="1.1" id="Calque_1" xmlns="http://www.w3.org/2000/svg" xmlns:xlink="http://www.w3.org/1999/xlink" x="0px" y="0px"
	 width="52px" height="49px" viewBox="0 0 52 49" enable-background="new 0 0 52 49" xml:space="preserve">
<g>
	<path fill="#C19E5E" d="M37.084,10.267v4.2h2.566V9.1c0-0.467-0.234-0.934-0.467-1.167l-8.634-7.7C30.316,0.233,29.85,0,29.383,0
		h-24.5C3.95,0,3.25,0.7,3.25,1.633v45.734C3.25,48.3,3.95,49,4.883,49h33.133c0.934,0,1.634-0.7,1.634-1.633v-7.234h-2.566v6.301
		H5.817V2.567h23.099v7.466h8.168V10.267z"/>
	<g>
		<path fill="#C19E5E" d="M24.017,15.867c-0.233,0-0.7,0-1.4,0h-0.934v2.566h0.934c0.7,0,1.167,0,1.4-0.233
			c0.233,0,0.467-0.233,0.467-0.467c0.233-0.233,0.233-0.467,0.233-0.7s0-0.7-0.233-0.7C24.483,15.867,24.25,15.867,24.017,15.867z"
			/>
		<path fill="#C19E5E" d="M33.35,16.333c-0.232-0.233-0.467-0.467-0.934-0.467c-0.232,0-0.699,0-1.399,0h-0.933v6.066h1.399
			c0.467,0,0.933,0,1.167,0c0.232,0,0.467-0.233,0.699-0.466c0.234-0.467,0.467-0.7,0.467-1.167
			c0.233-0.466,0.233-0.933,0.233-1.633c0-0.7,0-1.167-0.233-1.633C33.816,16.8,33.584,16.333,33.35,16.333z"/>
		<path fill="#C19E5E" d="M46.184,9.8H16.55c-1.633,0-2.8,1.167-2.8,2.567v12.6c0,1.4,1.167,2.566,2.566,2.566H45.95
			c1.399,0,2.566-1.166,2.566-2.566v-12.6C48.75,10.967,47.584,9.8,46.184,9.8z M26.584,18.433c-0.234,0.233-0.467,0.7-0.701,0.934
			c-0.467,0-0.7,0.233-0.933,0.233c-0.467,0-1.167,0.233-1.867,0.233h-1.4v3.5H20.05v-9.1h3.034c1.167,0,1.867,0,2.1,0.233
			c0.467,0.233,0.934,0.466,1.401,0.933c0,0.233,0.232,0.934,0.232,1.633C26.816,17.5,26.816,17.967,26.584,18.433z M35.684,20.767
			c-0.233,0.7-0.467,1.167-0.934,1.633c-0.233,0.233-0.7,0.467-1.166,0.7c-0.467,0.233-0.934,0.233-1.634,0.233h-3.5v-9.1h3.267
			c0.699,0,1.4,0,1.633,0.233c0.467,0.233,0.934,0.466,1.4,0.933s0.7,0.934,0.934,1.4c0.232,0.467,0.232,1.167,0.232,2.1
			C35.916,19.6,35.916,20.067,35.684,20.767z M43.15,15.633h-4.434v2.1h3.733v1.633h-3.733v3.967H36.85v-9.1h6.301V15.633z"/>
	</g>
</g>
</svg>
