<?xml version="1.0" encoding="utf-8"?>
<!-- Generator: Adobe Illustrator 19.1.0, SVG Export Plug-In . SVG Version: 6.00 Build 0)  -->
<svg version="1.1" id="Calque_1" xmlns="http://www.w3.org/2000/svg" xmlns:xlink="http://www.w3.org/1999/xlink" x="0px" y="0px"
	 viewBox="0 0 19.5 21" style="enable-background:new 0 0 19.5 21;" xml:space="preserve">
<g>
	<path d="M14.5,4.4v1.8h1.1V3.9c0-0.2-0.1-0.4-0.2-0.5l-3.7-3.3C11.6,0.1,11.4,0,11.2,0H0.7C0.3,0,0,0.3,0,0.7v19.6
		C0,20.7,0.3,21,0.7,21h14.2c0.4,0,0.7-0.3,0.7-0.7v-3.1h-1.1v2.7H1.1V1.1H11v3.2H14.5z"/>
	<g>
		<path d="M8.9,6.8c-0.1,0-0.3,0-0.6,0H7.9v1.1h0.4c0.3,0,0.5,0,0.6-0.1c0.1,0,0.2-0.1,0.2-0.2c0.1-0.1,0.1-0.2,0.1-0.3
			c0-0.1,0-0.3-0.1-0.3C9.1,6.8,9,6.8,8.9,6.8z"/>
		<path d="M12.9,7c-0.1-0.1-0.2-0.2-0.4-0.2c-0.1,0-0.3,0-0.6,0h-0.4v2.6h0.6c0.2,0,0.4,0,0.5,0c0.1,0,0.2-0.1,0.3-0.2
			C13,9,13.1,8.9,13.1,8.7c0.1-0.2,0.1-0.4,0.1-0.7s0-0.5-0.1-0.7C13.1,7.2,13,7,12.9,7z"/>
		<path d="M18.4,4.2H5.7C5,4.2,4.5,4.7,4.5,5.3v5.4c0,0.6,0.5,1.1,1.1,1.1h12.7c0.6,0,1.1-0.5,1.1-1.1V5.3C19.5,4.7,19,4.2,18.4,4.2
			z M10,7.9C9.9,8,9.8,8.2,9.7,8.3C9.5,8.3,9.4,8.4,9.3,8.4c-0.2,0-0.5,0.1-0.8,0.1H7.9V10H7.2V6.1h1.3c0.5,0,0.8,0,0.9,0.1
			c0.2,0.1,0.4,0.2,0.6,0.4C10,6.7,10.1,7,10.1,7.3C10.1,7.5,10.1,7.7,10,7.9z M13.9,8.9c-0.1,0.3-0.2,0.5-0.4,0.7
			c-0.1,0.1-0.3,0.2-0.5,0.3c-0.2,0.1-0.4,0.1-0.7,0.1h-1.5V6.1h1.4c0.3,0,0.6,0,0.7,0.1c0.2,0.1,0.4,0.2,0.6,0.4
			c0.2,0.2,0.3,0.4,0.4,0.6C14,7.4,14,7.7,14,8.1C14,8.4,14,8.6,13.9,8.9z M17.1,6.7h-1.9v0.9h1.6v0.7h-1.6V10h-0.8V6.1h2.7V6.7z"/>
	</g>
</g>
</svg>
