<?xml version="1.0" encoding="utf-8"?>
<!-- Generator: Adobe Illustrator 19.1.0, SVG Export Plug-In . SVG Version: 6.00 Build 0)  -->
<svg version="1.1" id="Calque_1" xmlns="http://www.w3.org/2000/svg" xmlns:xlink="http://www.w3.org/1999/xlink" x="0px" y="0px"
	 viewBox="0 0 23.1 18.7" style="enable-background:new 0 0 23.1 18.7;" xml:space="preserve">
<g>
	<g>
		<polygon points="15.2,6.5 11.2,11.9 8.6,10.2 8.6,10.2 4.6,13.2 4.6,14.2 9.9,14.2 15.2,14.2 17.9,14.2 20.6,14.2 20.6,12.9 
			18.6,8.5 		"/>
		<path d="M7.6,7c0.9,0,1.6-0.7,1.6-1.6c0-0.9-0.7-1.6-1.6-1.6C6.7,3.8,6,4.5,6,5.4C6,6.3,6.7,7,7.6,7z"/>
		<path d="M23.1,16.4l0-0.5v-15c0-0.4-0.3-0.7-0.6-0.7h-0.7C21.6,0.1,21.4,0,21.2,0l-3.1,0.2H2.7C2.3,0.2,2,0.6,2,0.9v0.5L0.6,1.5
			C0.3,1.6,0,1.9,0,2.3l1.2,15.8c0,0.4,0.4,0.7,0.7,0.6l20.5-1.5C22.8,17.1,23.1,16.8,23.1,16.4z M3.2,2.5v-1h12.5h5.2h0.9v12.6v1.3
			H3.2V2.5z M1.1,2.7L2,2.6V15L1.1,2.7z M2.1,16.5c0.1,0.2,0.3,0.3,0.5,0.3h9.1l-9.6,0.7L2.1,16.5z"/>
	</g>
</g>
</svg>
