<?xml version="1.0" encoding="utf-8"?>
<!-- Generator: Adobe Illustrator 16.0.0, SVG Export Plug-In . SVG Version: 6.00 Build 0)  -->
<!DOCTYPE svg PUBLIC "-//W3C//DTD SVG 1.1//EN" "http://www.w3.org/Graphics/SVG/1.1/DTD/svg11.dtd">
<svg version="1.1" id="Calque_1" xmlns="http://www.w3.org/2000/svg" xmlns:xlink="http://www.w3.org/1999/xlink" x="0px" y="0px"
	 width="52px" height="49px" viewBox="0 0 52 49" enable-background="new 0 0 52 49" xml:space="preserve">
<path fill="#B1B0B1" d="M37.389,8.841h-8.591l6.592-6.593c0.401-0.4,0.401-1.199,0-1.798c-0.398-0.4-1.197-0.4-1.798,0l-7.193,7.193
	l-4.595-4.596c-0.399-0.4-1.198-0.4-1.798,0c-0.4,0.4-0.4,1.199,0,1.798l3.797,3.797H15.61c-2.398,0-4.596,2.198-4.596,4.795v15.185
	c0,2.599,1.999,4.599,4.596,4.599h2.797v1.997c0,0.6,0.4,0.999,0.999,0.999h14.188c0.599,0,1-0.399,1-0.999V33.22h2.795
	c2.6,0,4.598-2,4.598-4.599V13.437C41.984,10.84,39.986,8.841,37.389,8.841z M39.586,28.621c0,1.201-0.999,2.201-2.198,2.201H15.81
	c-1.199,0-2.198-1-2.198-2.201V13.437c0-1.199,0.999-2.197,2.198-2.197h21.579c1.198,0,2.197,0.999,2.197,2.197V28.621
	L39.586,28.621z"/>
</svg>
