<?xml version="1.0" encoding="utf-8"?>
<!-- Generator: Adobe Illustrator 16.0.0, SVG Export Plug-In . SVG Version: 6.00 Build 0)  -->
<!DOCTYPE svg PUBLIC "-//W3C//DTD SVG 1.1//EN" "http://www.w3.org/Graphics/SVG/1.1/DTD/svg11.dtd">
<svg version="1.1" id="Calque_1" xmlns="http://www.w3.org/2000/svg" xmlns:xlink="http://www.w3.org/1999/xlink" x="0px" y="0px"
	 width="52px" height="49px" viewBox="0 0 52 49" enable-background="new 0 0 52 49" xml:space="preserve">
<path fill="#B1B0B1" d="M37.198,9.437h-9.181l7.046-7.045c0.428-0.427,0.428-1.282,0-1.921c-0.426-0.428-1.28-0.428-1.923,0
	l-7.687,7.687l-4.91-4.912c-0.427-0.427-1.28-0.427-1.922,0c-0.427,0.427-0.427,1.282,0,1.922l4.058,4.057h-8.755
	c-2.562,0-4.911,2.349-4.911,5.124v16.227c0,2.777,2.136,4.914,4.911,4.914h2.989v2.135c0,0.642,0.427,1.067,1.067,1.067h15.161
	c0.641,0,1.069-0.426,1.069-1.067v-2.135h2.986c2.779,0,4.913-2.137,4.913-4.915V14.349C42.109,11.573,39.974,9.437,37.198,9.437z
	 M40.421,31.061c0,1.379-1.146,2.526-2.521,2.526H13.135c-1.376,0-2.523-1.147-2.523-2.526V13.634c0-1.376,1.146-2.521,2.523-2.521
	h24.765c1.376,0,2.521,1.147,2.521,2.521V31.061L40.421,31.061z"/>
</svg>
