<?xml version="1.0" encoding="utf-8"?>
<!-- Generator: Adobe Illustrator 19.1.0, SVG Export Plug-In . SVG Version: 6.00 Build 0)  -->
<svg version="1.1" id="Calque_1" xmlns="http://www.w3.org/2000/svg" xmlns:xlink="http://www.w3.org/1999/xlink" x="0px" y="0px"
	 viewBox="0 0 23.4 23.4" style="enable-background:new 0 0 23.4 23.4;" xml:space="preserve">
<path d="M9.8,7.6c-0.1-0.1-0.2-0.1-0.3,0C9.4,7.6,9.3,7.8,9.3,7.9v7.7c0,0.1,0.1,0.2,0.2,0.3c0,0,0.1,0,0.2,0c0.1,0,0.1,0,0.2,0
	L16,12c0.1-0.1,0.2-0.2,0.2-0.3s-0.1-0.2-0.2-0.3L9.8,7.6z M9.9,15V8.4l5.3,3.3L9.9,15z M11.7,0C5.2,0,0,5.2,0,11.7
	s5.2,11.7,11.7,11.7s11.7-5.2,11.7-11.7S18.2,0,11.7,0z M11.7,22.8c-6.1,0-11.1-5-11.1-11.1c0-6.1,5-11.1,11.1-11.1
	c6.1,0,11.1,5,11.1,11.1C22.8,17.8,17.8,22.8,11.7,22.8z"/>
</svg>
