<?xml version="1.0" encoding="utf-8"?>
<!-- Generator: Adobe Illustrator 16.0.0, SVG Export Plug-In . SVG Version: 6.00 Build 0)  -->
<!DOCTYPE svg PUBLIC "-//W3C//DTD SVG 1.1//EN" "http://www.w3.org/Graphics/SVG/1.1/DTD/svg11.dtd">
<svg version="1.1" id="Calque_1" xmlns="http://www.w3.org/2000/svg" xmlns:xlink="http://www.w3.org/1999/xlink" x="0px" y="0px"
	 width="52px" height="49px" viewBox="0 0 52 49" enable-background="new 0 0 52 49" xml:space="preserve">
<path fill="#B1B0B1" d="M37.48-0.038c-1.453,0-2.699,0.415-3.736,1.038l0,0l0,0c-2.283,1.246-3.945,3.737-3.945,6.644
	c0,0.208,0,0.623,0,0.831L12.358,19.479c-0.415,0.208-0.415,0.623-0.208,0.831l1.246,2.076c-1.454,0.831-4.983,3.114-6.437,5.605
	c-2.284,3.945-0.623,7.683,0.623,10.797c0.416,1.038,0.831,2.076,1.039,2.906c0.623,2.699,0,4.984-1.869,6.229
	c-0.208,0.208-0.208,0.623-0.208,0.831c0.208,0.207,0.208,0.207,0.416,0.207s0.208,0,0.415-0.207
	c2.284-1.662,3.115-4.361,2.284-7.475c-0.208-0.831-0.623-1.869-1.038-3.115c-1.246-2.906-2.492-6.229-0.623-9.551
	c1.246-2.283,4.568-4.36,5.813-5.19l1.454,2.284c0,0.207,0.208,0.207,0.415,0.207h0.208c0.207,0,0.207,0,0.207-0.207l10.174-6.437
	v13.911h-7.475c-0.83,0-1.66,0.415-1.869,1.246c0,0.207-0.207,0.207-0.207,0.414v0.416c0,0.207,0,0.207,0.207,0.415
	c0.209,0.831,1.039,1.245,1.869,1.245h19.518c0.83,0,1.66-0.414,1.867-1.245c0-0.208,0.209-0.208,0.209-0.415v-0.416
	c0-0.207,0-0.207-0.209-0.414c-0.207-0.623-1.037-1.246-1.867-1.246h-7.475V16.78l3.529-2.284l0,0
	c1.037,0.416,2.076,0.623,3.113,0.623c1.662,0,3.115-0.415,4.361-1.453l0,0l0,0c1.869-1.454,3.113-3.737,3.113-6.229
	C45.164,3.284,41.635-0.038,37.48-0.038z M41.842,12.419L34.99,1.623C35.82,1.208,36.65,1,37.689,1c3.529,0,6.436,2.907,6.436,6.437
	C43.918,9.513,43.088,11.174,41.842,12.419z M33.328,13.873l-2.49,1.453l-0.623,0.416l-0.623,0.415l-2.285,1.454l-0.621,0.415H26.27
	l-10.381,6.644l-1.246-2.076c0-0.208,0-0.208,0-0.208c0-0.208-0.208-0.208-0.208-0.208l-1.038-2.077L30.215,9.513l0.207-0.208
	l0.83,1.246l0.83,1.246L33.328,13.873L33.328,13.873z M39.143,35.051c0,0.415-0.416,0.623-0.83,0.623H18.794
	c-0.415,0-0.83-0.208-0.83-0.623s0.415-0.622,0.83-0.622h8.098h3.322h8.098C38.727,34.429,38.936,34.636,39.143,35.051z
	 M29.592,33.183h-2.285V18.856l2.285-1.454V33.183z M34.16,13.042l-2.908-4.568c0-0.208,0-0.623,0-0.831
	c0-2.284,1.039-4.152,2.908-5.398l6.852,11.004c-1.039,0.623-2.076,1.038-3.322,1.038C36.236,14.081,34.99,13.666,34.16,13.042z"/>
</svg>
