<?xml version="1.0" encoding="utf-8"?>
<!-- Generator: Adobe Illustrator 16.0.0, SVG Export Plug-In . SVG Version: 6.00 Build 0)  -->
<!DOCTYPE svg PUBLIC "-//W3C//DTD SVG 1.1//EN" "http://www.w3.org/Graphics/SVG/1.1/DTD/svg11.dtd">
<svg version="1.1" id="Calque_1" xmlns="http://www.w3.org/2000/svg" xmlns:xlink="http://www.w3.org/1999/xlink" x="0px" y="0px"
	 width="33px" height="23px" viewBox="0 0 33 23" enable-background="new 0 0 33 23" xml:space="preserve">
<path fill="#999999" d="M14.672,15.898l6.281-6.282c1.826,0.8,4.11,0.457,5.596-1.027c1.712-1.712,1.94-4.226,0.685-6.281
	l-0.914,2.513l-1.711,1.712l-2.627-0.571l0,0L21.41,3.45l1.714-1.713l2.513-0.914c-1.941-1.255-4.568-1.027-6.281,0.686
	c-1.484,1.485-1.827,3.769-1.027,5.596l-6.281,6.28c-1.827-0.8-4.11-0.457-5.596,1.026c-1.712,1.714-1.941,4.341-0.686,6.281
	l0.914-2.514l1.827-1.826l2.627,0.571l0,0l0.571,2.627l-1.712,1.713l-2.627,0.914c1.941,1.255,4.568,1.025,6.28-0.686
	C15.243,20.009,15.471,17.839,14.672,15.898z"/>
</svg>
