<?xml version="1.0" encoding="utf-8"?>
<!-- Generator: Adobe Illustrator 16.0.0, SVG Export Plug-In . SVG Version: 6.00 Build 0)  -->
<!DOCTYPE svg PUBLIC "-//W3C//DTD SVG 1.1//EN" "http://www.w3.org/Graphics/SVG/1.1/DTD/svg11.dtd">
<svg version="1.1" id="Calque_1" xmlns="http://www.w3.org/2000/svg" xmlns:xlink="http://www.w3.org/1999/xlink" x="0px" y="0px"
	 width="52px" height="49px" viewBox="0 0 52 49" enable-background="new 0 0 52 49" xml:space="preserve">
<path fill="#B1B0B1" d="M25.775,0c-5.421,0-14.458,0.803-14.458,3.815v6.426l0,0l0,0c0,1.405,2.008,2.409,4.619,3.012l-4.619,21.889
	c0,0.401,0.201,0.803,0.603,1.004c0,0,0,0,0.2,0c0.402,0,0.603-0.201,0.804-0.603l4.619-22.089c2.41,0.401,5.221,0.602,7.43,0.602
	V27.31c0,0.401,0.4,0.803,0.803,0.803s0.803-0.401,0.803-0.803V14.056c2.41,0,5.021-0.201,7.229-0.602l4.618,22.089
	c0,0.401,0.401,0.603,0.803,0.603c0,0,0,0,0.201,0c0.402,0,0.602-0.401,0.602-1.004l-4.618-21.889
	c2.01-0.401,3.414-1.004,4.217-1.807c0.401-0.402,0.603-0.803,0.603-1.205l0,0V3.815C40.232,0.803,31.196,0,25.775,0z M25.775,1.606
	c8.033,0,12.451,1.405,12.852,2.208c-0.401,0.603-4.819,2.209-12.852,2.209c-8.032,0-12.45-1.606-12.852-2.209l0,0
	C13.325,3.012,17.743,1.606,25.775,1.606z M34.409,11.646L34.409,11.646c-0.2,0-0.2,0-0.2,0c-2.208,0.402-5.021,0.602-8.434,0.602
	c-3.614,0.201-6.626-0.2-8.634-0.602l0,0l0,0c-2.611-0.401-4.017-1.003-4.017-1.405V5.824C16.136,7.229,21.96,7.63,25.976,7.63
	s10.04-0.402,12.852-1.807v4.417C38.426,10.643,37.021,11.246,34.409,11.646z"/>
</svg>
