<?xml version="1.0" encoding="utf-8"?>
<!-- Generator: Adobe Illustrator 19.2.0, SVG Export Plug-In . SVG Version: 6.00 Build 0)  -->
<svg version="1.1" id="Calque_1" xmlns="http://www.w3.org/2000/svg" xmlns:xlink="http://www.w3.org/1999/xlink" x="0px" y="0px"
	 viewBox="0 0 100 100" style="enable-background:new 0 0 100 100;" xml:space="preserve">
<g>
	<g>
		<g>
			<path d="M64.6,33v13.3c0,2.8-3.4,13-15.8,13S32.9,48.7,32.9,45.9V33v-0.8V13.4C32.9,10.6,36.5,0,48.8,0c12.4,0,15.8,10.2,15.8,13
				v19.1V33z"/>
		</g>
	</g>
	<g>
		<rect x="31.2" y="90" width="38.4" height="10"/>
	</g>
	<g>
		<g>
			<path d="M50.3,78.6C26.6,78.6,17,61.4,17,54.2v-7.8h8.6v7.8c0.1,2,5.3,15.8,24.8,15.8c19.3,0,24.5-13.3,24.5-15.2v-8.4h8.6v8.4
				C83.4,61.8,73.8,78.6,50.3,78.6z"/>
		</g>
	</g>
</g>
</svg>
