<?xml version="1.0" encoding="utf-8"?>
<!-- Generator: Adobe Illustrator 19.2.0, SVG Export Plug-In . SVG Version: 6.00 Build 0)  -->
<svg version="1.1" id="Calque_1" xmlns="http://www.w3.org/2000/svg" xmlns:xlink="http://www.w3.org/1999/xlink" x="0px" y="0px"
	 viewBox="0 0 100 100" style="enable-background:new 0 0 100 100;" xml:space="preserve">
<g>
	<path d="M46.5,68.9c4.4,0,7.9,3.5,7.9,7.9s-3.5,7.9-7.9,7.9s-7.9-3.5-7.9-7.9S42.1,68.9,46.5,68.9 M46.5,64.5
		c-6.6,0-12.3,5.3-12.3,12.3S39.5,89,46.5,89s12.3-5.3,12.3-12.3S53.1,64.5,46.5,64.5L46.5,64.5z"/>
	<path d="M28.5,24.1v15.4H7V24.1H28.5 M28.1,20.2H7c-2.2,0-3.9,1.8-3.9,3.9v15.4c0,2.2,1.8,3.9,3.9,3.9h21.1c2.2,0,3.9-1.8,3.9-3.9
		V24.1C32.5,21.9,30.7,20.2,28.1,20.2L28.1,20.2z"/>
	<path d="M60.5,24.1v15.4h-21V24.1H60.5 M60.5,20.2h-21c-2.2,0-3.9,1.8-3.9,3.9v15.4c0,2.2,1.8,3.9,3.9,3.9h21.1
		c2.2,0,3.9-1.8,3.9-3.9V24.1C64.9,21.9,62.7,20.2,60.5,20.2L60.5,20.2z"/>
	<path d="M82,24.1l4,21.1v21.1H72V24.1H82 M82,20.2H71.9c-2.2,0-3.9,1.8-3.9,3.9v42.5c0,2.2,1.8,3.9,3.9,3.9h14
		c2.2,0,3.9-1.8,3.9-3.9V45.2c0-0.4,0-0.4,0-0.9L86,23.2C85.5,21.5,83.8,20.2,82,20.2L82,20.2z"/>
	<path d="M93,20.2c-0.9-5.3-4.8-9.2-10.1-9.2H0v3.9h3.9H7h75.9c3.1,0,5.7,3.1,6.1,5.7l6.1,29.8v19.7c0,1.3-0.9,2.2-2.2,2.2H65.4
		C63.6,63.2,55.7,57,46.5,57s-16.7,6.6-18.9,15.8H7H3.9H0v3.9h31.6c0-7.9,7-15.4,15.4-15.4s15.4,7,15.4,15.4H94
		c3.5,0,6.1-2.6,6.1-6.1c0-1.8,0-20.2,0-20.2L93,20.2z"/>
</g>
</svg>
