<?xml version="1.0" encoding="utf-8"?>
<!-- Generator: Adobe Illustrator 19.2.0, SVG Export Plug-In . SVG Version: 6.00 Build 0)  -->
<svg version="1.1" id="Calque_1" xmlns="http://www.w3.org/2000/svg" xmlns:xlink="http://www.w3.org/1999/xlink" x="0px" y="0px"
	 viewBox="0 0 100 100" style="enable-background:new 0 0 100 100;" xml:space="preserve">
<path d="M100,40.5c-0.7-7.3-8.9-11-15.5-8c-3.3,1.5-7.3,3.7-10.6,6.2c-1.1,0.7-2.6,0-2.6-1.1l0,0c0-7-5.5-12.8-12.8-12.8H12.8
	C5.9,24.8,0,30.6,0,37.6v24.9c0,7,5.9,12.8,12.8,12.8h45.7c7,0,12.8-5.9,12.8-12.8l0,0c0-1.1,1.5-1.8,2.2-1.1c3.3,2.6,8,4.8,11,6.6
	c5.1,2.6,11.7,0.7,14.3-4.4c0.7-1.5,1.2-3.3,1.2-4.8C100,58.8,100,40.9,100,40.5z"/>
</svg>
