<?xml version="1.0" encoding="utf-8"?>
<!-- Generator: Adobe Illustrator 19.1.1, SVG Export Plug-In . SVG Version: 6.00 Build 0)  -->
<svg version="1.1" id="Calque_1" xmlns="http://www.w3.org/2000/svg" xmlns:xlink="http://www.w3.org/1999/xlink" x="0px" y="0px"
	 viewBox="0 0 100 100" style="enable-background:new 0 0 100 100;" xml:space="preserve">
<style type="text/css">
	.st0{fill:#010202;}
</style>
<g>
	<g>
		<path class="st0" d="M51,59.1h-1.9c-4.1,0-7.4-3.3-7.4-7.4v-5c0-4.1,3.3-7.4,7.4-7.4H51c4.1,0,7.4,3.3,7.4,7.4v5
			C58.4,55.8,55.1,59.1,51,59.1z M49.1,42.8c-2.1,0-4,1.8-4,4v5c0,2.1,1.8,3.9,4,3.9H51c2.1,0,3.9-1.8,3.9-3.9v-5c0-2.1-1.8-4-3.9-4
			H49.1z"/>
	</g>
	<g>
		<path class="st0" d="M26.7,68.7c-1.4,0-2.9-0.2-4.3-0.8c-6.6-2.6-8.2-13.7-6.9-23.5c0.4-3,2-12.8,6.8-13.3
			c6.3-0.7,21.7,8.9,23.4,10l-1.8,2.9c-6.2-3.9-17.4-10-21.2-9.5c-0.7,0.1-2.9,3.2-3.8,10.4c-1.1,8.5,0.2,18,4.8,19.8
			c8.7,3.5,19.7-9.7,19.9-9.8l2.6,2.2C45.7,57.6,36.4,68.7,26.7,68.7z"/>
	</g>
	<g>
		<path class="st0" d="M17.3,57.2H6c-3.4,0-6-2.6-6-6v-3.3c0-3.4,2.6-6,6-6h11.2v3.4H6c-1.4,0-2.6,1.1-2.6,2.6v3.3
			c0,1.4,1.1,2.6,2.6,2.6h11.3V57.2z"/>
	</g>
	<g>
		<path class="st0" d="M73.6,68.7c-9.7,0-19-11.1-19.4-11.6l2.6-2.2C56.9,55,68,68.2,76.7,64.7c4.6-1.8,5.9-11.4,4.8-19.8
			c-0.9-7.2-3.1-10.3-3.8-10.4c-3.8-0.4-15,5.6-21.2,9.5l-1.8-2.9c1.7-1.1,17.2-10.8,23.4-10c4.8,0.6,6.4,10.3,6.8,13.3
			c1.3,9.8-0.4,20.9-6.9,23.5C76.5,68.5,75,68.7,73.6,68.7z"/>
	</g>
	<g>
		<path class="st0" d="M93.9,57.2H82.8v-3.4h11.2c1.4,0,2.6-1.1,2.6-2.6v-1.5c0-2.3-2-4.3-4.3-4.3h-9.6v-3.4h9.6
			c4.2,0,7.7,3.5,7.7,7.7v1.5C100,54.6,97.3,57.2,93.9,57.2z"/>
	</g>
</g>
</svg>
