<?xml version="1.0" encoding="utf-8"?>
<!-- Generator: Adobe Illustrator 16.0.0, SVG Export Plug-In . SVG Version: 6.00 Build 0)  -->
<!DOCTYPE svg PUBLIC "-//W3C//DTD SVG 1.1//EN" "http://www.w3.org/Graphics/SVG/1.1/DTD/svg11.dtd">
<svg version="1.1" id="Calque_1" xmlns="http://www.w3.org/2000/svg" xmlns:xlink="http://www.w3.org/1999/xlink" x="0px" y="0px"
	 width="130px" height="78px" viewBox="0 0 130 78" enable-background="new 0 0 130 78" xml:space="preserve">
<g>
	<path d="M80.479,0.204c-0.022-0.044-0.045-0.085-0.066-0.126L18.463,34.982c0.024,0.041,0.049,0.081,0.072,0.123
		c2.074,3.678,0.771,8.34-2.909,10.413c-0.042,0.026-0.084,0.046-0.126,0.07l14.083,24.992c0.044-0.024,0.083-0.051,0.124-0.072
		c3.678-2.073,8.343-0.769,10.417,2.912l61.943-34.904c-2.075-3.681-0.773-8.344,2.906-10.417L90.893,3.11
		C87.214,5.185,82.552,3.882,80.479,0.204 M100.844,27.299c-2.454,2.596-3.478,6.266-2.725,9.758L40.918,69.285
		c-2.63-2.484-6.369-3.508-9.899-2.692L19.654,46.424c2.561-2.634,3.621-6.427,2.795-10.007L79.573,4.231
		c2.596,2.526,6.325,3.593,9.865,2.826L100.844,27.299z"/>
	<path d="M78.227,7.553L25.986,36.99c0.491,3.186-0.434,6.504-2.504,8.979l9.905,17.583c3.172-0.496,6.391,0.381,8.873,2.415
		l52.326-29.482c-0.448-3.125,0.438-6.292,2.439-8.732l-9.958-17.67C83.891,10.539,80.68,9.622,78.227,7.553 M45.41,51.553
		l-5.208-0.605l-2.182,4.768l-1.04-5.136l-5.208-0.604l4.568-2.575l-1.036-5.14l3.861,3.549l4.567-2.573l-2.183,4.768L45.41,51.553z
		 M59.766,43.465l-5.208-0.604l-2.183,4.768l-1.037-5.14l-5.208-0.604l4.568-2.574l-1.036-5.14l3.86,3.551l4.568-2.576l-2.184,4.767
		L59.766,43.465z M74.12,35.375l-5.209-0.603l-2.183,4.767l-1.037-5.138l-5.208-0.603l4.568-2.577l-1.037-5.139l3.86,3.548
		l4.57-2.575l-2.187,4.768L74.12,35.375z M88.477,27.287l-5.208-0.605l-2.184,4.769L80.05,26.31l-5.207-0.601l4.564-2.575
		l-1.034-5.141l3.858,3.546l4.565-2.573l-2.179,4.768L88.477,27.287z"/>
	<path d="M108.239,34.02c0-0.047,0.003-0.092,0.003-0.14h-6.109c-0.145,1.061-0.034,2.161,0.356,3.206h2.983
		c1.025,3.478,3.749,6.23,7.204,7.305v23.233c-3.407,1.058-6.105,3.757-7.165,7.164H39.863c-0.008-0.023-0.018-0.045-0.024-0.072
		l-0.093,0.049l-0.485-0.86c-1.177-2.092-3.405-3.394-5.807-3.394c-0.547,0-1.092,0.07-1.618,0.206
		c3.076,0.992,5.304,3.874,5.304,7.283h71.098c0-4.228,3.424-7.649,7.647-7.649V41.669C111.661,41.667,108.239,38.242,108.239,34.02
		"/>
	<polygon points="80.029,52.069 77.53,53.474 79.571,53.474 	"/>
	<path d="M102.494,39.585h-1.496l0.35,0.62L81.582,51.342l0.755,2.324h4.838l-3.916,2.843l1.497,4.6l-3.917-2.843l-3.912,2.843
		l1.492-4.6l-2.62-1.907l-7.071,3.98l0.821,2.526l-2.317-1.68L44.406,72.288h58.139c1.122-2.893,3.412-5.183,6.308-6.305V46.021
		C105.908,44.878,103.6,42.542,102.494,39.585 M101.911,61.541l-4.243-3.08l-4.24,3.08l1.619-4.985l-4.24-3.079h5.242l1.619-4.987
		l1.622,4.987h5.242l-4.242,3.079L101.911,61.541z"/>
</g>
</svg>
