<?xml version="1.0" encoding="utf-8"?>
<!-- Generator: Adobe Illustrator 19.2.0, SVG Export Plug-In . SVG Version: 6.00 Build 0)  -->
<svg version="1.1" id="Calque_1" xmlns="http://www.w3.org/2000/svg" xmlns:xlink="http://www.w3.org/1999/xlink" x="0px" y="0px"
	 viewBox="0 0 100 100" style="enable-background:new 0 0 100 100;" xml:space="preserve">
<g>
	<path d="M50,0C22.2,0,0,22.2,0,50c0,27.4,22.2,50,50,50s50-22.2,50-50C99.5,22.2,77.4,0,50,0z M50,87.7c-21.2,0-38.2-17-38.2-38.2
		s17-38.2,38.2-38.2s38.2,17,38.2,38.2C87.7,70.8,70.8,87.7,50,87.7z"/>
	<path d="M53.8,31.6c-1.4,0-2.4,0.5-3.3,1.4c-0.9,0.9-1.4,1.9-1.4,2.8c0,0.9,0.5,2.4,1.4,2.8c0.9,0.5,1.9,1.4,3.3,1.4
		c1.4,0,2.4-0.5,3.3-1.4c0.9-0.9,1.4-1.9,1.4-2.8c0-0.9-0.9-1.9-1.9-2.8C55.7,32.1,54.7,31.6,53.8,31.6z"/>
	<path d="M54.7,64.6c-0.9,0-1.9,0-1.9-0.5c-0.5-0.5-0.5-0.9-0.5-1.9c0-0.5,0-0.9,0-1.4s0.5-1.4,0.5-1.9l1.9-6.6
		c0-0.5,0.5-1.4,0.5-1.9s0-1.4,0-1.4c0-1.4-0.5-2.4-1.4-3.3c-0.9-0.9-2.4-1.4-4.2-1.4c-0.9,0-1.9,0-3.3,0.5
		c-1.4,0.5-2.4,0.5-3.8,0.9L42,47.6c0.5,0,0.9-0.5,1.4-0.5s0.9,0,1.4,0c0.9,0,1.9,0,1.9,0.5s0.5,0.9,0.5,1.9c0,0.5,0,0.9,0,1.4
		s-0.5,1.4-0.5,1.9l-1.9,6.6c0,0.5-0.5,1.4-0.5,1.9s0,0.9,0,1.4c0,1.4,0.5,2.4,1.4,3.3s2.4,1.4,4.2,1.4c1.4,0,2.4,0,3.3-0.5
		c0.9-0.5,1.9-0.9,3.8-1.4l0.5-1.9c-0.5,0-0.5,0.5-1.4,0.5C55.7,64.6,55.2,64.6,54.7,64.6z"/>
</g>
</svg>
