<?xml version="1.0" encoding="utf-8"?>
<!-- Generator: Adobe Illustrator 19.2.0, SVG Export Plug-In . SVG Version: 6.00 Build 0)  -->
<svg version="1.1" id="Calque_1" xmlns="http://www.w3.org/2000/svg" xmlns:xlink="http://www.w3.org/1999/xlink" x="0px" y="0px"
	 viewBox="0 0 100 100" style="enable-background:new 0 0 100 100;" xml:space="preserve">
<path d="M98.4,33.4l-47-29c-0.9-0.6-1.9-0.6-2.8,0l-47,28.7l0,0l-0.3,0.3C0.6,33.7,0,34.7,0,35.6v57.6C0,94.8,1.2,96,2.8,96h94.4
	c1.6,0,2.8-1.2,2.8-2.8V35.6C99.7,34.7,99.4,33.7,98.4,33.4z M49.8,10l42.1,25.5L79.8,43v-7.5c0-1.6-1.2-2.8-2.8-2.8H22.7
	c-1.6,0-2.8,1.2-2.8,2.8V43L7.5,35.6L49.8,10z M74.5,38.4v8.1L49.8,61.1l-24.3-15v-7.8h49V38.4z M94.4,90.4H5.3V40.6l16.2,9.7
	l27.1,16.5c0.3,0.3,0.9,0.3,1.2,0.3s0.9,0,1.2-0.3l27.1-16.5l16.2-9.7L94.4,90.4L94.4,90.4z"/>
</svg>
