<?xml version="1.0" encoding="utf-8"?>
<!-- Generator: Adobe Illustrator 16.0.0, SVG Export Plug-In . SVG Version: 6.00 Build 0)  -->
<!DOCTYPE svg PUBLIC "-//W3C//DTD SVG 1.1//EN" "http://www.w3.org/Graphics/SVG/1.1/DTD/svg11.dtd">
<svg version="1.1" id="Calque_1" xmlns="http://www.w3.org/2000/svg" xmlns:xlink="http://www.w3.org/1999/xlink" x="0px" y="0px"
	 width="156px" height="87px" viewBox="0 0 156 87" enable-background="new 0 0 156 87" xml:space="preserve">
<path d="M20.75,1.75v83.468h118.394V1.75H20.75z M68.581,42.714L26.078,74.562V10.748L68.581,42.714z M127.66,77.049H31.761
	l41.319-31.02c0,0,2.368,2.012,3.315,2.486c0.71,0.355,2.25,0.829,3.316,0.829c1.064,0,2.604-0.355,3.313-0.829
	c0.948-0.475,3.315-2.486,3.315-2.486L127.66,77.049z M77.46,42.714l-4.499-3.315L30.103,7.078h99.214L86.34,39.399l-4.498,3.315
	c0,0-0.948,0.711-2.249,0.711C78.289,43.425,77.46,42.714,77.46,42.714 M90.839,42.714l42.978-32.203v64.525L90.839,42.714z"/>
</svg>
