<?xml version="1.0" encoding="utf-8"?>
<!-- Generator: Adobe Illustrator 19.1.0, SVG Export Plug-In . SVG Version: 6.00 Build 0)  -->
<svg version="1.1" id="Calque_1" xmlns="http://www.w3.org/2000/svg" xmlns:xlink="http://www.w3.org/1999/xlink" x="0px" y="0px"
	 viewBox="0 0 100 100" style="enable-background:new 0 0 100 100;" xml:space="preserve">
<style type="text/css">
	.st0{fill:#FFFFFF;}
</style>
<g>
	<path class="st0" d="M39.9,23.6c-1.3-1.3-3.3-1.3-4.5,0L23.8,35c-1.3,1.3-1.3,3.3,0,4.5l36.6,36.6c1.3,1.3,3.3,1.3,4.5,0l11.5-11.5
		c1.3-1.3,1.3-3.3,0-4.5L39.9,23.6z"/>
	<path class="st0" d="M92.2,7.8C82.8-1.6,68.6-2.9,57.9,6.1l36,36C102.9,31.4,101.6,17.2,92.2,7.8z"/>
	<path class="st0" d="M49.3,26.2l24.5,24.5c4.7,1.2,11.2-1.3,16.3-5.1L54.5,9.8C50.6,14.9,48.2,21.4,49.3,26.2z"/>
	<path class="st0" d="M0.8,86.1c-1.1,1.3-1,3.2,0.2,4.4l8.5,8.5c1.2,1.2,3.1,1.3,4.4,0.2l33.6-29.4l-17-17L0.8,86.1z"/>
</g>
</svg>
