<?xml version="1.0" encoding="utf-8"?>
<!-- Generator: Adobe Illustrator 16.0.0, SVG Export Plug-In . SVG Version: 6.00 Build 0)  -->
<!DOCTYPE svg PUBLIC "-//W3C//DTD SVG 1.1//EN" "http://www.w3.org/Graphics/SVG/1.1/DTD/svg11.dtd">
<svg version="1.1" id="Calque_1" xmlns="http://www.w3.org/2000/svg" xmlns:xlink="http://www.w3.org/1999/xlink" x="0px" y="0px"
	 width="130px" height="78px" viewBox="0 0 130 78" enable-background="new 0 0 130 78" xml:space="preserve">
<rect x="0.495" y="26.38" width="77.328" height="51.284"/>
<rect x="12.231" y="32.649" fill="#FFFFFF" width="56.107" height="7.396"/>
<polygon fill="#050505" points="0.495,0.577 0.495,16.091 16.089,16.091 16.089,12.266 5.599,0.336 "/>
<polygon fill="#050505" points="17.375,0.336 21.394,10.866 26.699,16.091 41.811,16.091 41.811,12.266 31.361,0.537 "/>
<path fill="#050505" d="M30.438,0.858"/>
<polygon fill="#050505" points="41.811,0.537 47.236,10.745 53.547,16.091 67.654,16.091 67.654,10.906 57.205,0.537 "/>
<path fill="#050505" d="M44.811,5.641"/>
<polygon fill="#050505" points="67.654,0.336 77.822,0.537 77.822,16.091 73.807,9.071 67.654,2.346 "/>
</svg>
