<?xml version="1.0" encoding="utf-8"?>
<!-- Generator: Adobe Illustrator 16.0.0, SVG Export Plug-In . SVG Version: 6.00 Build 0)  -->
<!DOCTYPE svg PUBLIC "-//W3C//DTD SVG 1.1//EN" "http://www.w3.org/Graphics/SVG/1.1/DTD/svg11.dtd">
<svg version="1.1" id="Calque_1" xmlns="http://www.w3.org/2000/svg" xmlns:xlink="http://www.w3.org/1999/xlink" x="0px" y="0px"
	 width="130px" height="78px" viewBox="0 0 130 78" enable-background="new 0 0 130 78" xml:space="preserve">
<g>
	<g>
		<path d="M65.011,1C29.561,1,1.022,16.894,1.022,36.278c0,19.254,28.283,35.278,63.989,35.278
			c35.578,0,63.989-15.894,63.989-35.278C129,17.024,100.459,1,65.011,1z M65.011,69.748c-32.633,0-60.661-15.249-60.661-33.47
			c0-18.22,28.539-33.728,60.533-33.728c32.508,0,60.534,15.636,60.534,33.728S97.391,69.748,65.011,69.748z"/>
		<path d="M113.258,31.885c-1.918,0.388-3.838,1.034-5.631,1.55c-1.151,0.388-2.431,0.646-3.711,0.905h-0.511l0.256-0.388
			c0.128-0.129,0.383-0.388,0.512-0.517c1.919-1.809,3.967-3.489,6.014-5.297c0.642-0.775,1.92-1.293,1.538-2.585
			c-0.385-0.258-1.538,0.259-2.048,0.518c-3.839,1.937-7.295,4.264-10.496,7.365c-0.127,0.129-0.127,0.129-0.256,0.258
			c-1.791,1.421-2.176,4.652-4.862,4.393c-1.792-0.129-2.048-0.129-2.688-0.388c2.814-2.196,8.191-9.433,8.702-11.112
			c0,0,0.512-1.552-0.129-1.552c-2.558,0.905-4.99,3.103-6.91,4.912c0.128-0.906,1.535-2.584,0.896-3.49
			c-4.479,0.906-10.621,6.979-10.751,6.979c-1.151,0.775-1.662,3.359-3.454,2.973c-1.153-0.13-2.561-0.13-3.201-0.518
			c1.153-0.775,2.304-1.55,3.457-2.325c2.558-1.938,4.99-4.265,7.294-6.461c0.129-0.259,0.896-0.647,0.513-1.164
			c-0.77-0.646-1.665,0.259-2.56,0.389c-3.839,1.679-6.4,4.006-8.96,7.107c-0.51,0.646-1.151,1.292-1.664,2.067
			c-1.791-0.258-2.814-0.129-3.711-0.646c0.514-0.388,1.152-0.904,1.664-1.292c2.944-2.326,6.015-4.652,8.19-8.141
			c-0.256-1.163-1.408-0.259-1.92,0c-3.968,2.067-7.294,4.523-9.854,8.399c-0.129,0.258-0.256,0.517-0.515,0.775
			c-1.789,0-3.325-0.388-4.86-0.775h-0.128v-0.129c3.841-1.938,7.294-5.427,9.983-9.433c0,0,2.175-3.876-2.688-0.646
			c-3.583,2.325-6.91,5.426-9.214,9.821c0,0-2.431,0.129-2.431-0.129c2.303-2.843,5.119-6.591,6.398-10.467
			c0.128-0.646,0.513-1.81-0.384-1.939c-3.199,1.422-5.375,5.298-7.167,8.917c-0.512,1.034-0.767,2.455-1.279,3.359
			c-2.177-0.129-3.712,0.129-5.76-0.517c2.688-2.326,5.503-4.264,7.934-6.978c0.385-0.776,3.072-2.585,3.072-5.04
			c-0.896-0.517-1.664,0.13-2.175,0.517l-7.422,5.945h-0.385c1.152-2.069,3.712-5.17,4.736-7.367
			c0.384-0.775,0.767-1.42,0.767-2.326l-0.639-0.258c-5.376,2.326-9.854,7.625-11.646,14.345c-0.384,0.646-0.641,1.809-1.536,1.421
			c-0.129-1.809-0.641-3.619-1.28-5.169c-2.304-4.782-5.503-8.271-9.727-10.855c-0.641-0.387-1.024,0.389-0.896,0.905
			c0.641,3.36,2.688,5.557,4.096,8.141c1.664,2.715,3.968,5.04,5.887,7.496c-0.64,0.258-15.742,3.877-18.428,6.074
			c-1.409,0.774-3.713,2.583-3.583,6.589c0.127,1.164,0.895,2.326,1.919,2.715c1.023,0.13,1.664,0.261,2.303-0.259
			c2.815-3.618,6.014-6.85,9.598-9.045c2.432-1.293,4.351-2.586,7.167-2.973c1.153,1.162,1.92,2.584,3.583,3.876
			c3.2,2.843,5.887,4.911,10.238,5.557l0.384-0.13l-0.127-0.386c-2.305-3.361-5.76-5.558-9.343-7.237
			c-0.64-0.518-2.047-1.293-2.175-2.197c2.175-0.775,5.12-0.905,7.806-0.258c3.201,5.557,6.656,11.63,11.774,15.25
			c0.384,0.13,0.64-0.389,0.512-0.776c-3.583-8.658-5.759-9.434-9.343-13.44c-0.254-0.258-0.512-1.033,0-1.163h3.329
			c1.151,0.13,2.559-0.129,2.815,0.258c0.128,5.687,3.839,10.08,6.015,14.474c0,0,0.768,0.388,0.64-0.39l0,0
			c-0.896-10.078-4.607-12.405-5.247-14.213c0.64,0,1.152,0,1.664,0.258c2.431,4.911,5.63,8.53,9.855,11.372
			c0.127,0,0.639,0.13,0.256-0.646c-1.28-4.135-5.12-6.333-7.552-9.562l-0.382-0.775l0.51-0.13c1.024,0.259,2.558,0.517,3.329,1.034
			c1.406,2.713,3.326,4.909,5.373,6.849c1.664,1.55,3.073,3.36,5.632,3.876h0.256l0.127-0.259l-0.127-0.387
			c-1.535-4.136-5.76-5.943-8.83-8.786c-0.255-0.131-0.641-0.906,0-1.036l4.862,0.647c7.297,9.82,10.111,9.435,10.111,9.435
			s2.175,0.517,1.152-1.164c-2.304-2.456-4.479-3.618-7.296-5.943c-0.511-0.519-1.793-1.293-1.664-2.198
			c1.025,0.129,1.153,0.129,3.328,0.389c0.639,0.129,1.536,0.259,2.047,0.387c3.84,1.681,4.098,7.108,13.312,8.142
			c0.383,0,0.383-0.388,0.128-0.646c-2.688-2.067-9.471-6.721-9.854-7.237c0.895,0.13,4.605,0.646,5.119,0.904
			c4.607,2.585,7.423,4.395,14.077,3.488c0.512-0.903-0.386-1.161-1.15-1.551l-3.714-1.42c-0.511-0.129-2.558-0.518-3.327-0.776
			c3.967-1.291,9.215-2.713,12.672-4.91c0.511-0.388,1.148-0.775,1.789-1.292c0.386-0.388,0.642-0.775,0.896-1.292
			C114.281,31.626,113.258,31.885,113.258,31.885z M46.71,32.531c-0.384-0.258-0.128-0.775,0-1.034
			c0.128-0.129,1.536-2.714,2.815-2.067C49.781,30.206,47.606,32.79,46.71,32.531z M90.352,33.565
			c-0.641,1.163-0.257,2.843-1.152,3.875l-6.143-0.903c3.583-1.292,6.526-3.748,8.19-4.781L90.352,33.565z M97.006,38.346
			c0-0.646,0.769-1.292,1.151-1.68c2.047-1.68,2.432,0,2.432,0C99.693,37.312,98.284,38.217,97.006,38.346z"/>
	</g>
</g>
</svg>
