<?xml version="1.0" encoding="utf-8"?>
<!-- Generator: Adobe Illustrator 19.2.0, SVG Export Plug-In . SVG Version: 6.00 Build 0)  -->
<svg version="1.1" id="Calque_1" xmlns="http://www.w3.org/2000/svg" xmlns:xlink="http://www.w3.org/1999/xlink" x="0px" y="0px"
	 viewBox="0 0 100 100" style="enable-background:new 0 0 100 100;" xml:space="preserve">
<path d="M41.9,32.5c-0.4-0.4-0.9-0.4-1.3,0c-0.4,0-0.9,0.9-0.9,1.3v32.9c0,0.4,0.4,0.9,0.9,1.3c0,0,0.4,0,0.9,0c0.4,0,0.4,0,0.9,0
	l26.1-16.7c0.4-0.4,0.9-0.9,0.9-1.3s-0.4-0.9-0.9-1.3L41.9,32.5z M42.3,64.1V35.9L65,50L42.3,64.1z M50,0C22.2,0,0,22.2,0,50
	s22.2,50,50,50s50-22.2,50-50S77.8,0,50,0z M50,97.4C23.9,97.4,2.6,76.1,2.6,50S23.9,2.6,50,2.6S97.4,23.9,97.4,50
	S76.1,97.4,50,97.4z"/>
</svg>
