<?xml version="1.0" encoding="utf-8"?>
<!-- Generator: Adobe Illustrator 19.2.0, SVG Export Plug-In . SVG Version: 6.00 Build 0)  -->
<svg version="1.1" id="Calque_1" xmlns="http://www.w3.org/2000/svg" xmlns:xlink="http://www.w3.org/1999/xlink" x="0px" y="0px"
	 viewBox="0 0 100 100" style="enable-background:new 0 0 100 100;" xml:space="preserve">
<g>
	<path d="M72.9,63.8c-4.6,0-8.4,3.8-8.4,8.4c0,4.6,3.8,8.4,8.4,8.4c4.6,0,8.4-3.8,8.4-8.4C81.3,67.5,77.5,63.8,72.9,63.8z
		 M72.9,79.1c-3.9,0-7-3.1-7-7c0-3.9,3.1-7,7-7s7,3.1,7,7C79.9,76,76.8,79.1,72.9,79.1z"/>
	<path d="M72.9,68.5c-2,0-3.6,1.6-3.6,3.6s1.6,3.6,3.6,3.6s3.6-1.6,3.6-3.6S74.9,68.5,72.9,68.5z M72.9,74.4c-1.2,0-2.2-1-2.2-2.2
		c0-1.2,1-2.2,2.2-2.2c1.2,0,2.2,1,2.2,2.2C75.1,73.4,74.1,74.4,72.9,74.4z"/>
	<path d="M98.1,48.2c-1.5-1.2-3.2-0.9-3.1-0.9H73.2c-1.5,0-2.8-0.8-3.7-2l-1.1-1.7c-2.5-4-6.3-10-8.2-13.6c-3.1-5.7-6.9-5.4-7.5-5.3
		h-4v-2c0-1.8-1.4-3.2-3.2-3.2c-1.8,0-3.2,1.4-3.2,3.2v2H0.4V26h52.2l0.1,0c0.1,0,3.3-0.6,6.1,4.5c1.9,3.6,5.8,9.7,8.3,13.7l1.1,1.8
		c1.2,1.7,3,2.7,4.9,2.7l21.9,0c0,0,1.2-0.2,2.1,0.6c0.9,0.8,1.4,2.2,1.4,4.2v13.8c0,2.4-1.9,4.3-4.3,4.3h-5.9
		c-0.2-4.3-2.1-8.2-5.1-10.9h0.8v-2.8h2.8v2.9h2.9v-2.9H87V55h-2.9v2.8h-2.9V55h-2.9v2.6c-0.9-0.3-1.9-0.6-2.9-0.8V55h-2.9v1.7
		c-1,0-1.9,0.1-2.8,0.3v-2h-2.9v2.9h0.1c0,0,0,0-0.1,0v0h-2.8V55h-2.9v2.9h2.8v1.7c-3.7,2.7-6,6.9-6.3,11.8H1.1v1.4h57.7v-0.7
		C58.8,64.2,65,58,72.9,58C80.7,58,87,64.4,87,72.1V73h7.3c3.2,0,5.7-2.6,5.7-5.7V53.4C100,51,99.4,49.2,98.1,48.2z"/>
	<path d="M30,49.4h37.6l-11-17.8c-0.1-0.2-2.8-4.1-6.9-3.8H30h-5.7H0.4v1.4l23.9,0V48H0.4v1.4h23.9H30z M49.8,29.1
		c3.3-0.2,5.6,3.1,5.6,3.2L65.1,48H30V29.1L49.8,29.1z M25.7,29.1h2.9V48h-2.9V29.1z"/>
	<rect x="46.4" y="57.9" width="2.9" height="2.9"/>
	<rect y="57.9" width="2.9" height="2.9"/>
	<polygon points="5.9,55 2.9,55 2.9,57.9 5.7,57.9 5.7,60.8 8.7,60.8 8.7,57.9 5.9,57.9 	"/>
	<rect x="8.7" y="55" width="2.9" height="2.9"/>
	<rect x="11.6" y="57.9" width="2.9" height="2.9"/>
	<polygon points="17.5,55 14.5,55 14.5,57.9 17.3,57.9 17.3,60.8 20.3,60.8 20.3,57.9 17.5,57.9 	"/>
	<rect x="20.3" y="55" width="2.9" height="2.9"/>
	<rect x="23.2" y="57.9" width="2.9" height="2.9"/>
	<polygon points="29.1,55 26.1,55 26.1,57.9 28.9,57.9 28.9,60.8 31.8,60.8 31.8,57.9 29.1,57.9 	"/>
	<rect x="31.8" y="55" width="2.9" height="2.9"/>
	<rect x="34.8" y="57.9" width="2.9" height="2.9"/>
	<polygon points="40.6,55 37.7,55 37.7,57.9 40.5,57.9 40.5,60.8 43.4,60.8 43.4,57.9 40.6,57.9 	"/>
	<rect x="43.4" y="55" width="2.9" height="2.9"/>
	<polygon points="52.2,55 49.3,55 49.3,57.9 52.1,57.9 52.1,60.8 55,60.8 55,57.9 52.2,57.9 	"/>
	<rect x="55" y="55" width="2.9" height="2.9"/>
	<rect x="58" y="57.9" width="2.9" height="2.9"/>
	<rect x="89.8" y="55" width="2.9" height="2.9"/>
</g>
</svg>
