<?xml version="1.0" encoding="utf-8"?>
<!-- Generator: Adobe Illustrator 19.2.0, SVG Export Plug-In . SVG Version: 6.00 Build 0)  -->
<svg version="1.1" id="Calque_1" xmlns="http://www.w3.org/2000/svg" xmlns:xlink="http://www.w3.org/1999/xlink" x="0px" y="0px"
	 viewBox="0 0 100 100" style="enable-background:new 0 0 100 100;" xml:space="preserve">
<path d="M89.7,99.8c-0.9,0-1.8-0.3-2.4-0.9L57.5,69.1c-6,3.9-13,6-20.3,6c-10,0-19.4-3.9-26.4-10.9C3.8,57,0,47.9,0,37.8
	c0-10,3.8-19.2,10.9-26.6c7.3-7,16.7-10.9,26.6-10.9c10,0,19.4,4,26.6,11.1c7,7,10.9,16.4,10.9,26.4c0,7.2-2,14.1-5.8,20l29.8,29.8
	c0.6,0.6,0.9,1.5,0.9,2.5c-0.1,1.2-0.7,2.4-1.7,3.2l-5.1,5.1C92.1,99.3,90.9,99.8,89.7,99.8z M57.8,66L89,97.2
	c0.4,0.4,1.6,0.3,2.6-0.5l5.1-5.1c0.6-0.5,0.9-1.1,0.9-1.6c0-0.2,0-0.5-0.2-0.7L66.3,58.1l0.5-0.8c3.9-5.7,5.9-12.4,5.9-19.5
	c0-9.4-3.6-18.2-10.2-24.7c-6.7-6.7-15.6-10.4-25-10.4c-9.3,0-18.2,3.6-25,10.2c-6.7,6.9-10.2,15.5-10.2,25
	c0,9.5,3.5,18.1,10.2,24.7c6.6,6.6,15.4,10.2,24.7,10.2c7.1,0,14-2.1,19.7-6.1L57.8,66z M37.5,65.2c-15.3,0-27.7-12.3-27.7-27.4
	c0-15.3,12.4-27.7,27.7-27.7C52.7,10.1,65,22.5,65,37.8C65,52.9,52.7,65.2,37.5,65.2z M37.5,12.4c-14,0-25.3,11.4-25.3,25.3
	c0,13.8,11.4,25.1,25.3,25.1c13.8,0,25.1-11.3,25.1-25.1C62.6,23.8,51.4,12.4,37.5,12.4z"/>
</svg>
