<?xml version="1.0" encoding="utf-8"?>
<!-- Generator: Adobe Illustrator 19.2.0, SVG Export Plug-In . SVG Version: 6.00 Build 0)  -->
<svg version="1.1" id="Calque_1" xmlns="http://www.w3.org/2000/svg" xmlns:xlink="http://www.w3.org/1999/xlink" x="0px" y="0px"
	 viewBox="0 0 100 100" style="enable-background:new 0 0 100 100;" xml:space="preserve">
<g>
	<g>
		<path d="M98.2,43.8c-0.4,0-1.2-0.4-1.5-0.8c-10-15.4-26.6-24.3-47-24.3s-36.6,9-46.6,24.4c-0.4,0.8-1.5,1.2-2.3,0.4
			C0,43.1-0.4,42,0.4,41.2c10.8-16.6,28.5-25.8,49.7-25.8S89,24.6,99.7,41.1c0.4,0.8,0.4,1.9-0.4,2.3C99,43.8,98.6,43.8,98.2,43.8z"
			/>
	</g>
	<g>
		<path d="M17,55.8c-0.4,0-0.8,0-0.8-0.4C15,55,15,53.8,15.4,53.1C23.1,41.6,35,35.4,50,35.4s27,6.5,34.3,17.7
			c0.4,0.8,0.4,1.9-0.4,2.3S82,55.8,81.7,55c-6.9-10.4-18.1-16.6-31.6-16.6s-24.6,5.8-31.6,16.2C18.1,55.4,17.4,55.8,17,55.8z"/>
	</g>
	<g>
		<path d="M68.9,68.1c-0.4,0-1.2-0.4-1.5-0.8c-3.8-5.8-10-8.9-17.3-8.9s-13.5,3.1-17.3,8.9c-0.4,0.8-1.5,1.2-2.3,0.4
			c-0.8-0.4-1.2-1.5-0.4-2.3C34.3,58.9,41.6,55,50.5,55c8.5,0,15.8,3.8,20.4,10.4c0.4,0.8,0.4,1.9-0.4,2.3
			C69.3,68.1,68.9,68.1,68.9,68.1z"/>
	</g>
	<g>
		<path d="M49.7,84.6c-4.6,0-8.1-3.5-8.1-8.1s3.5-8.1,8.1-8.1s8.1,3.5,8.1,8.1S53.9,84.6,49.7,84.6z M49.7,71.9
			c-2.7,0-4.6,2.3-4.6,4.6c0,2.7,2.3,4.6,4.6,4.6c2.7,0,4.6-2.3,4.6-4.6C54.3,73.9,52,71.9,49.7,71.9z"/>
	</g>
</g>
</svg>
