<?xml version="1.0" encoding="utf-8"?>
<!-- Generator: Adobe Illustrator 19.1.0, SVG Export Plug-In . SVG Version: 6.00 Build 0)  -->
<svg version="1.1" id="Calque_1" xmlns="http://www.w3.org/2000/svg" xmlns:xlink="http://www.w3.org/1999/xlink" x="0px" y="0px"
	 viewBox="0 0 24.2 18.5" style="enable-background:new 0 0 24.2 18.5;" xml:space="preserve">
<style type="text/css">
	.st0{fill:none;stroke:#C9A562;stroke-miterlimit:10;}
	.st1{fill:#C9A562;}
</style>
<path class="st0" d="M22.4,18H1.8c-0.7,0-1.3-0.6-1.3-1.3V1.8c0-0.7,0.6-1.3,1.3-1.3h20.6c0.7,0,1.3,0.6,1.3,1.3v14.9
	C23.7,17.4,23.1,18,22.4,18z"/>
<path class="st0" d="M11,12.2H4.7c-0.7,0-1.2-0.6-1.2-1.2V4.7c0-0.7,0.6-1.2,1.2-1.2H11c0.7,0,1.2,0.6,1.2,1.2V11
	C12.2,11.7,11.7,12.2,11,12.2z"/>
<path class="st1" d="M20,6.2h-4.5c-0.4,0-0.8-0.4-0.8-0.8v0c0-0.4,0.4-0.8,0.8-0.8H20c0.4,0,0.8,0.4,0.8,0.8v0
	C20.8,5.9,20.5,6.2,20,6.2z"/>
<path class="st1" d="M20,8.6h-4.5c-0.4,0-0.8-0.4-0.8-0.8v0c0-0.4,0.4-0.8,0.8-0.8H20c0.4,0,0.8,0.4,0.8,0.8v0
	C20.8,8.3,20.5,8.6,20,8.6z"/>
<path class="st1" d="M18.8,11.1h-3.3c-0.4,0-0.8-0.4-0.8-0.8v0c0-0.4,0.4-0.8,0.8-0.8h3.3c0.4,0,0.8,0.4,0.8,0.8v0
	C19.5,10.7,19.2,11.1,18.8,11.1z"/>
</svg>
