<?xml version="1.0" encoding="utf-8"?>
<!-- Generator: Adobe Illustrator 19.1.0, SVG Export Plug-In . SVG Version: 6.00 Build 0)  -->
<svg version="1.1" id="Calque_1" xmlns="http://www.w3.org/2000/svg" xmlns:xlink="http://www.w3.org/1999/xlink" x="0px" y="0px"
	 viewBox="0 0 37.5 31.2" style="enable-background:new 0 0 37.5 31.2;" xml:space="preserve">
<g>
	<path d="M1,31.2h8.3c0.1,0,0.5,0,0.6,0l13-2.6c0.2,0,0.4-0.2,0.4-0.5V5.2c0-0.2-0.2-0.5-0.4-0.5L12.1,2.1h15v28.1c0,0.6,0.5,1,1,1
		h8.3c0.6,0,1-0.5,1-1c0-0.6-0.5-1-1-1h-7.3V1c0-0.6-0.5-1-1-1H9.4c-0.6,0-1,0.5-1,1v28.1H1c-0.6,0-1,0.5-1,1
		C0,30.8,0.5,31.2,1,31.2z M22.4,27.7l-12,2.4V2.7l12,2.9V27.7z"/>
	<path d="M20.3,19.3c0.9,0,1.6-0.7,1.6-1.6c0-0.9-0.7-1.6-1.6-1.6s-1.6,0.7-1.6,1.6C18.7,18.6,19.5,19.3,20.3,19.3z M20.3,17.2
		c0.3,0,0.5,0.2,0.5,0.5c0,0.3-0.2,0.5-0.5,0.5s-0.5-0.2-0.5-0.5C19.8,17.5,20,17.2,20.3,17.2z"/>
</g>
</svg>
