<?xml version="1.0" encoding="utf-8"?>
<!-- Generator: Adobe Illustrator 19.1.0, SVG Export Plug-In . SVG Version: 6.00 Build 0)  -->
<svg version="1.1" id="Calque_1" xmlns="http://www.w3.org/2000/svg" xmlns:xlink="http://www.w3.org/1999/xlink" x="0px" y="0px"
	 viewBox="0 0 86 50.3" style="enable-background:new 0 0 86 50.3;" xml:space="preserve">
<style type="text/css">
	.st0{fill:none;stroke:#C9A562;stroke-miterlimit:10;}
</style>
<line class="st0" x1="58.1" y1="43.9" x2="0.5" y2="43.9"/>
<path class="st0" d="M0.5,0.5h72.3c0,0,3.9-0.4,6.4,5.2c2.5,5.6,6.4,12.5,6.4,15.6s0,17.5,0,17.5s0.2,5-4.2,5c-4.4,0-4.4,0-4.4,0"/>
<path class="st0" d="M11.6,20.9H3.9c-1.9,0-3.4-1.5-3.4-3.4V9.9C0.5,8,2,6.5,3.9,6.5l7.7,0C13.4,6.5,15,8,15,9.9v7.7
	C15,19.4,13.4,20.9,11.6,20.9z"/>
<path class="st0" d="M30,20.9h-7.7c-1.9,0-3.4-1.5-3.4-3.4V9.9c0-1.9,1.5-3.4,3.4-3.4l7.7,0c1.9,0,3.4,1.5,3.4,3.4v7.7
	C33.3,19.4,31.8,20.9,30,20.9z"/>
<path class="st0" d="M48.4,20.9h-7.7c-1.9,0-3.4-1.5-3.4-3.4V9.9c0-1.9,1.5-3.4,3.4-3.4l7.7,0c1.9,0,3.4,1.5,3.4,3.4v7.7
	C51.8,19.4,50.3,20.9,48.4,20.9z"/>
<path class="st0" d="M76.2,20.9H63.7c-1.9,0-3.4-1.5-3.4-3.4V9.9c0-1.9,1.5-3.4,3.4-3.4l7.7,0c1.9,0,4.4,1.7,4.8,2.8l3.4,8.3
	C79.6,19.4,78,20.9,76.2,20.9z"/>
<path class="st0" d="M58.1,44.3c0-5.2,4.2-9.5,9.5-9.5c5.2,0,9.5,4.2,9.5,9.5"/>
<circle class="st0" cx="67.6" cy="44.3" r="5.5"/>
<circle class="st0" cx="67.6" cy="44.3" r="2.1"/>
</svg>
