<?xml version="1.0" encoding="utf-8"?>
<!-- Generator: Adobe Illustrator 16.0.0, SVG Export Plug-In . SVG Version: 6.00 Build 0)  -->
<!DOCTYPE svg PUBLIC "-//W3C//DTD SVG 1.1//EN" "http://www.w3.org/Graphics/SVG/1.1/DTD/svg11.dtd">
<svg version="1.1" id="Calque_1" xmlns="http://www.w3.org/2000/svg" xmlns:xlink="http://www.w3.org/1999/xlink" x="0px" y="0px"
	 width="595.279px" height="841.891px" viewBox="0 0 595.279 841.891" enable-background="new 0 0 595.279 841.891"
	 xml:space="preserve">
<path fill="none" stroke="#B0B0B0" stroke-width="23" stroke-miterlimit="10" d="M168.193,74.581
	C151.774,14.854,273.583,12.44,273.583,12.44c6.848,0,17.804,0,26.013,0c0,0,120.447,2.415,105.389,62.141
	c-16.421,59.764-38.328,83.685-38.328,83.685c-4.107,4.792-13.676,7.169-20.525,7.169c0,0-23.267-3.584-58.873-3.584
	c-35.583,0-58.854,3.584-58.854,3.584c-6.825,1.208-16.416-2.377-20.522-7.169C206.521,158.265,183.251,135.552,168.193,74.581z
	 M354.341,206.068c-1.384-9.583-9.593-16.752-20.547-17.921l0,0c-13.676-1.207-30.094-2.416-47.896-2.416
	c-16.42,0-34.223,1.208-46.537,2.416c-10.956,0-21.886,8.338-23.269,17.921l-64.317,482.827c-1.384,9.544,4.104,23.922,12.313,31.09
	l106.75,89.606c8.208,7.168,21.907,7.168,30.117,0l106.772-89.606c8.209-7.168,13.676-21.546,12.315-31.09L354.341,206.068z
	 M528.151,594.496c-36.945-80.101-73.888-161.369-110.854-241.433c-6.847-15.544-13.676-29.882-20.524-45.427l0,0
	c-6.849-14.337-6.849-8.336-5.486-3.584c0,1.208,0,3.584,1.382,4.792l0,0l0,0c4.104,23.921,8.209,47.803,10.953,71.725
	c8.21,47.804,15.038,94.398,23.243,142.204c5.491,33.465,10.959,65.723,16.445,99.191c0,3.583,4.105,7.167,6.849,8.375
	c17.782,5.961,35.584,11.96,54.75,17.921c8.207-13.129,15.032-26.296,23.242-39.427
	C530.896,605.249,530.896,600.457,528.151,594.496z"/>
</svg>
