<?xml version="1.0" encoding="utf-8"?>
<!-- Generator: Adobe Illustrator 19.1.0, SVG Export Plug-In . SVG Version: 6.00 Build 0)  -->
<svg version="1.1" id="Calque_1" xmlns="http://www.w3.org/2000/svg" xmlns:xlink="http://www.w3.org/1999/xlink" x="0px" y="0px"
	 viewBox="-282 385.8 30.7 70.1" style="enable-background:new -282 385.8 30.7 70.1;" xml:space="preserve">
<style type="text/css">
	.st0{fill:none;stroke:#B0B0B0;stroke-width:3;stroke-miterlimit:10;}
</style>
<path class="st0" d="M-279.3,392.5c-1.2-5,7.7-5.2,7.7-5.2c0.5,0,1.3,0,1.9,0c0,0,8.8,0.2,7.7,5.2c-1.2,5-2.8,7-2.8,7
	c-0.3,0.4-1,0.6-1.5,0.6c0,0-1.7-0.3-4.3-0.3c-2.6,0-4.3,0.3-4.3,0.3c-0.5,0.1-1.2-0.2-1.5-0.6
	C-276.5,399.5-278.2,397.6-279.3,392.5z M-265.7,403.5c-0.1-0.8-0.7-1.4-1.5-1.5l0,0c-1-0.1-2.2-0.2-3.5-0.2c-1.2,0-2.5,0.1-3.4,0.2
	c-0.8,0-1.6,0.7-1.7,1.5l-4.7,40.4c-0.1,0.8,0.3,2,0.9,2.6l7.8,7.5c0.6,0.6,1.6,0.6,2.2,0l7.8-7.5c0.6-0.6,1-1.8,0.9-2.6
	L-265.7,403.5z M-253,436c-2.7-6.7-5.4-13.5-8.1-20.2c-0.5-1.3-1-2.5-1.5-3.8l0,0c-0.5-1.2-0.5-0.7-0.4-0.3c0,0.1,0,0.3,0.1,0.4l0,0
	l0,0c0.3,2,0.6,4,0.8,6c0.6,4,1.1,7.9,1.7,11.9c0.4,2.8,0.8,5.5,1.2,8.3c0,0.3,0.3,0.6,0.5,0.7c1.3,0.5,2.6,1,4,1.5
	c0.6-1.1,1.1-2.2,1.7-3.3C-252.8,436.9-252.8,436.5-253,436z"/>
</svg>
