<?xml version="1.0" encoding="utf-8"?>
<!-- Generator: Adobe Illustrator 16.0.0, SVG Export Plug-In . SVG Version: 6.00 Build 0)  -->
<!DOCTYPE svg PUBLIC "-//W3C//DTD SVG 1.1//EN" "http://www.w3.org/Graphics/SVG/1.1/DTD/svg11.dtd">
<svg version="1.1" id="Calque_1" xmlns="http://www.w3.org/2000/svg" xmlns:xlink="http://www.w3.org/1999/xlink" x="0px" y="0px"
	 width="595.279px" height="841.891px" viewBox="0 0 595.279 841.891" enable-background="new 0 0 595.279 841.891"
	 xml:space="preserve">
<path fill="none" stroke="#B0B0B0" stroke-width="11" stroke-miterlimit="10" d="M495.547,446.189h67.527
	c14.545,0,25.973-11.428,25.973-25.973v-9.35c0-19.739-16.622-36.361-36.361-36.361h-58.178"/>
<path fill="none" stroke="#B0B0B0" stroke-width="11" stroke-miterlimit="10" d="M303.353,457.617h-11.428
	c-18.699,0-34.283-15.583-34.283-34.283v-30.128c0-18.7,15.584-34.283,34.283-34.283h11.428c18.7,0,34.283,15.583,34.283,34.283
	v30.128C337.636,442.034,322.053,457.617,303.353,457.617z"/>
<path fill="none" stroke="#B0B0B0" stroke-width="11" stroke-miterlimit="10" d="M265.954,368.273c0,0-99.733-63.372-135.055-59.216
	c-35.322,4.156-58.178,178.688,3.116,203.621c61.294,24.934,131.938-62.333,131.938-62.333"/>
<path fill="none" stroke="#B0B0B0" stroke-width="11" stroke-miterlimit="10" d="M99.732,446.189H31.166
	c-14.544,0-25.972-11.428-25.972-25.973v-19.738c0-14.544,11.428-25.972,25.972-25.972h67.527"/>
<path fill="none" stroke="#B0B0B0" stroke-width="11" stroke-miterlimit="10" d="M330.364,368.273c0,0,99.733-63.372,135.055-59.216
	c35.322,4.156,57.139,178.688-3.116,202.582c-60.255,23.895-131.938-62.333-131.938-62.333"/>
</svg>
