<?xml version="1.0" encoding="utf-8"?>
<!-- Generator: Adobe Illustrator 15.1.0, SVG Export Plug-In . SVG Version: 6.00 Build 0)  -->
<!DOCTYPE svg PUBLIC "-//W3C//DTD SVG 1.1//EN" "http://www.w3.org/Graphics/SVG/1.1/DTD/svg11.dtd">
<svg version="1.1" id="Calque_1" xmlns="http://www.w3.org/2000/svg" xmlns:xlink="http://www.w3.org/1999/xlink" x="0px" y="0px"
	 width="551px" height="800px" viewBox="0 0 551 800" enable-background="new 0 0 551 800" xml:space="preserve">
<path fill="none" stroke="#B0B0B0" stroke-width="3" stroke-miterlimit="10" d="M133.034,75.177
	c-13.694-57.061,87.875-59.344,87.875-59.344c5.706,0,14.836,0,21.683,0c0,0,100.428,2.283,87.875,59.344
	c-13.695,57.062-31.955,79.887-31.955,79.887c-3.424,4.564-11.412,6.848-17.117,6.848c0,0-19.402-3.424-49.073-3.424
	c-29.672,0-49.073,3.424-49.073,3.424c-5.706,1.141-13.695-2.283-17.118-6.848C164.988,155.063,145.587,133.38,133.034,75.177z
	 M288.24,200.712c-1.141-9.129-7.988-15.977-17.118-17.118l0,0c-11.412-1.142-25.106-2.282-39.943-2.282
	c-13.695,0-28.531,1.141-38.802,2.282c-9.13,0-18.26,7.989-19.401,17.118l-53.638,461.056c-1.141,9.13,3.423,22.825,10.271,29.673
	l89.016,85.592c6.847,6.848,18.26,6.848,25.107,0l89.016-85.592c6.848-6.848,11.412-20.543,10.271-29.673L288.24,200.712z
	 M433.176,571.61c-30.812-76.462-61.625-154.064-92.439-230.527c-5.705-14.836-11.412-28.531-17.117-43.367l0,0
	c-5.707-13.694-5.707-7.988-4.565-3.423c0,1.142,0,3.423,1.142,4.565l0,0l0,0c3.424,22.824,6.848,45.648,9.129,68.473
	c6.848,45.649,12.555,90.157,19.402,135.807c4.564,31.953,9.129,62.768,13.693,94.721c0,3.424,3.424,6.848,5.707,7.989
	c14.836,5.706,29.672,11.413,45.648,17.118c6.848-12.553,12.555-25.107,19.4-37.66C435.459,581.882,435.459,577.317,433.176,571.61z
	"/>
</svg>
