<?xml version="1.0" encoding="utf-8"?>
<!-- Generator: Adobe Illustrator 16.0.0, SVG Export Plug-In . SVG Version: 6.00 Build 0)  -->
<!DOCTYPE svg PUBLIC "-//W3C//DTD SVG 1.1//EN" "http://www.w3.org/Graphics/SVG/1.1/DTD/svg11.dtd">
<svg version="1.1" id="Calque_1" xmlns="http://www.w3.org/2000/svg" xmlns:xlink="http://www.w3.org/1999/xlink" x="0px" y="0px"
	 width="595.279px" height="841.891px" viewBox="0 0 595.279 841.891" enable-background="new 0 0 595.279 841.891"
	 xml:space="preserve">
<path fill="#B0B0B0" d="M195.463,63.038c-13.05-47.477,83.774-49.396,83.774-49.396c5.442,0,14.153,0,20.679,0
	c0,0,95.74,1.92,83.771,49.396c-13.054,47.505-30.465,66.52-30.465,66.52c-3.267,3.809-10.873,5.699-16.316,5.699
	c0,0-18.495-2.849-46.799-2.849c-28.284,0-46.78,2.849-46.78,2.849c-5.426,0.959-13.05-1.89-16.315-5.699
	C225.932,129.557,207.433,111.502,195.463,63.038z M343.43,167.555c-1.099-7.618-7.625-13.316-16.33-14.246l0,0
	c-10.872-0.959-23.923-1.92-38.073-1.92c-13.053,0-27.205,0.96-36.994,1.92c-8.706,0-17.395,6.628-18.496,14.246l-51.125,383.791
	c-1.098,7.588,3.264,19.017,9.789,24.714l84.854,71.228c6.524,5.699,17.414,5.699,23.939,0l84.872-71.228
	c6.524-5.697,10.872-17.126,9.788-24.714L343.43,167.555z M481.592,476.31c-29.369-63.669-58.733-128.269-88.118-191.911
	c-5.441-12.356-10.871-23.752-16.314-36.108l0,0c-5.442-11.397-5.442-6.626-4.36-2.85c0,0.961,0,2.85,1.099,3.809l0,0l0,0
	c3.262,19.015,6.524,37.998,8.707,57.014c6.526,37.999,11.954,75.036,18.476,113.036c4.364,26.602,8.712,52.241,13.07,78.845
	c0,2.848,3.264,5.695,5.445,6.655c14.135,4.738,28.285,9.507,43.521,14.247c6.523-10.438,11.948-20.902,18.476-31.341
	C483.772,484.857,483.772,481.05,481.592,476.31z"/>
</svg>
