<?xml version="1.0" encoding="utf-8"?>
<!-- Generator: Adobe Illustrator 19.1.0, SVG Export Plug-In . SVG Version: 6.00 Build 0)  -->
<svg version="1.1" id="Calque_1" xmlns="http://www.w3.org/2000/svg" xmlns:xlink="http://www.w3.org/1999/xlink" x="0px" y="0px"
	 viewBox="0 0 57.3 21" style="enable-background:new 0 0 57.3 21;" xml:space="preserve">
<style type="text/css">
	.st0{fill:none;stroke:#FFFFFF;stroke-miterlimit:10;}
</style>
<path class="st0" d="M47.7,13.7h6.5c1.4,0,2.5-1.1,2.5-2.5v-0.9c0-1.9-1.6-3.5-3.5-3.5h-5.6"/>
<path class="st0" d="M29.2,14.8h-1.1c-1.8,0-3.3-1.5-3.3-3.3V8.6c0-1.8,1.5-3.3,3.3-3.3h1.1c1.8,0,3.3,1.5,3.3,3.3v2.9
	C32.5,13.3,31,14.8,29.2,14.8z"/>
<path class="st0" d="M25.6,6.2c0,0-9.6-6.1-13-5.7S7,17.7,12.9,20.1s12.7-6,12.7-6"/>
<path class="st0" d="M9.6,13.7H3c-1.4,0-2.5-1.1-2.5-2.5V9.3c0-1.4,1.1-2.5,2.5-2.5h6.5"/>
<path class="st0" d="M31.8,6.2c0,0,9.6-6.1,13-5.7s5.5,17.2-0.3,19.5s-12.7-6-12.7-6"/>
</svg>
