<?xml version="1.0" encoding="utf-8"?>
<!-- Generator: Adobe Illustrator 16.0.0, SVG Export Plug-In . SVG Version: 6.00 Build 0)  -->
<!DOCTYPE svg PUBLIC "-//W3C//DTD SVG 1.1//EN" "http://www.w3.org/Graphics/SVG/1.1/DTD/svg11.dtd">
<svg version="1.1" id="Calque_1" xmlns="http://www.w3.org/2000/svg" xmlns:xlink="http://www.w3.org/1999/xlink" x="0px" y="0px"
	 width="551px" height="800px" viewBox="0 0 551 800" enable-background="new 0 0 551 800" xml:space="preserve">
<path fill="none" stroke="#B0B0B0" stroke-width="3" stroke-miterlimit="10" d="M183.546,50.185C171.965,1.931,257.859,0,257.859,0
	c4.825,0,12.546,0,18.337,0c0,0,84.929,1.931,74.313,50.185c-11.582,48.256-27.023,67.559-27.023,67.559
	c-2.896,3.859-9.651,5.791-14.476,5.791c0,0-16.408-2.896-41.499-2.896c-25.094,0-41.5,2.896-41.5,2.896
	c-4.826,0.965-11.582-1.931-14.477-5.791C210.568,117.743,194.161,99.406,183.546,50.185z M314.8,156.347
	c-0.965-7.72-6.756-13.511-14.477-14.476l0,0c-9.651-0.966-21.232-1.93-33.778-1.93c-11.582,0-24.128,0.965-32.814,1.93
	c-7.721,0-15.441,6.756-16.406,14.476l-45.36,389.902c-0.966,7.723,2.894,19.303,8.687,25.096l75.277,72.382
	c5.791,5.791,15.441,5.791,21.232,0l75.278-72.382c5.791-5.793,9.65-17.373,8.687-25.096L314.8,156.347z M437.367,470.006
	c-26.057-64.661-52.114-130.288-78.173-194.951c-4.824-12.546-9.65-24.128-14.476-36.674l0,0c-4.826-11.581-4.826-6.755-3.86-2.895
	c0,0.966,0,2.895,0.967,3.861l0,0l0,0c2.895,19.301,5.791,38.603,7.72,57.905c5.791,38.604,10.616,76.244,16.408,114.848
	c3.859,27.021,7.72,53.082,11.578,80.104c0,2.895,2.897,5.791,4.827,6.755c12.546,4.825,25.093,9.652,38.603,14.477
	c5.792-10.615,10.618-21.231,16.406-31.848C439.299,478.692,439.299,474.832,437.367,470.006z"/>
</svg>
