<?xml version="1.0" encoding="utf-8"?>
<!-- Generator: Adobe Illustrator 16.0.0, SVG Export Plug-In . SVG Version: 6.00 Build 0)  -->
<!DOCTYPE svg PUBLIC "-//W3C//DTD SVG 1.1//EN" "http://www.w3.org/Graphics/SVG/1.1/DTD/svg11.dtd">
<svg version="1.1" id="Calque_1" xmlns="http://www.w3.org/2000/svg" xmlns:xlink="http://www.w3.org/1999/xlink" x="0px" y="0px"
	 width="27px" height="21px" viewBox="0 0 27 21" enable-background="new 0 0 27 21" xml:space="preserve">
<g>
	<path fill="#CAA663" d="M10.548,0.202C4.816,0.202,0.25,4.769,0.25,10.5c0,5.636,4.566,10.298,10.298,10.298
		c5.732,0,10.298-4.566,10.298-10.298C20.749,4.769,16.183,0.202,10.548,0.202z M10.548,18.272c-4.371,0-7.869-3.498-7.869-7.87
		c0-4.372,3.498-7.869,7.869-7.869c4.372,0,7.869,3.497,7.869,7.869C18.32,14.774,14.822,18.272,10.548,18.272z"/>
	<path fill="#CAA663" d="M11.325,6.711c-0.292,0-0.485,0.097-0.68,0.292c-0.195,0.194-0.292,0.388-0.292,0.583
		s0.097,0.486,0.292,0.583c0.195,0.097,0.388,0.292,0.68,0.292s0.485-0.097,0.68-0.292c0.195-0.194,0.292-0.389,0.292-0.583
		s-0.195-0.389-0.39-0.583C11.714,6.809,11.52,6.711,11.325,6.711z"/>
	<path fill="#CAA663" d="M11.52,13.511c-0.195,0-0.389,0-0.389-0.096c-0.098-0.098-0.098-0.195-0.098-0.389c0-0.098,0-0.195,0-0.293
		c0-0.096,0.098-0.291,0.098-0.389l0.389-1.359c0-0.098,0.097-0.291,0.097-0.389c0-0.097,0-0.291,0-0.291
		c0-0.291-0.097-0.485-0.292-0.68c-0.194-0.195-0.485-0.292-0.875-0.292c-0.194,0-0.388,0-0.679,0.097
		C9.479,9.528,9.285,9.528,8.993,9.626l-0.096,0.389c0.096,0,0.194-0.098,0.291-0.098c0.098,0,0.195,0,0.292,0
		c0.195,0,0.389,0,0.389,0.098c0,0.097,0.097,0.193,0.097,0.388c0,0.098,0,0.194,0,0.292s-0.097,0.291-0.097,0.389l-0.389,1.359
		c0,0.098-0.097,0.291-0.097,0.389s0,0.195,0,0.293c0,0.291,0.097,0.486,0.292,0.68s0.485,0.291,0.874,0.291
		c0.292,0,0.486,0,0.68-0.098c0.194-0.098,0.389-0.193,0.777-0.291l0.097-0.389c-0.097,0-0.097,0.098-0.292,0.098
		C11.714,13.511,11.617,13.511,11.52,13.511z"/>
</g>
</svg>
