<?xml version="1.0" encoding="utf-8"?>
<!-- Generator: Adobe Illustrator 16.0.0, SVG Export Plug-In . SVG Version: 6.00 Build 0)  -->
<!DOCTYPE svg PUBLIC "-//W3C//DTD SVG 1.1//EN" "http://www.w3.org/Graphics/SVG/1.1/DTD/svg11.dtd">
<svg version="1.1" id="Calque_1" xmlns="http://www.w3.org/2000/svg" xmlns:xlink="http://www.w3.org/1999/xlink" x="0px" y="0px"
	 width="22px" height="21px" viewBox="0 0 22 21" enable-background="new 0 0 22 21" xml:space="preserve">
<g>
	<path fill="#CBA764" d="M10.946,0.017c-6.021,0-10.818,4.65-10.818,10.484c0,5.738,4.797,10.485,10.818,10.485
		s10.818-4.648,10.818-10.485C21.662,4.667,16.866,0.017,10.946,0.017z M10.894,19.184c-5.062,0-9.112-3.925-9.112-8.832
		c0-4.908,4.05-8.833,9.112-8.833c5.064,0,9.114,3.924,9.114,8.833C19.896,15.259,15.844,19.184,10.894,19.184z"/>
	<path fill="#CBA764" d="M11.72,14.526c-0.177,0-0.355,0-0.355-0.124c-0.089-0.13-0.089-0.252-0.089-0.506c0-0.127,0-0.25,0-0.38
		c0-0.124,0.089-0.376,0.089-0.503l0.355-1.76c0-0.127,0.09-0.378,0.09-0.504c0-0.125,0-0.376,0-0.376
		c0-0.377-0.09-0.627-0.267-0.88c-0.179-0.253-0.445-0.378-0.802-0.378c-0.178,0-0.355,0-0.622,0.125
		C9.852,9.366,9.674,9.366,9.406,9.494L9.318,9.999c0.088,0,0.178-0.127,0.267-0.127c0.09,0,0.178,0,0.268,0
		c0.179,0,0.356,0,0.356,0.127c0,0.124,0.088,0.249,0.088,0.501c0,0.128,0,0.253,0,0.379c0,0.127-0.088,0.377-0.088,0.504
		l-0.356,1.761c0,0.127-0.089,0.376-0.089,0.503c0,0.126,0,0.251,0,0.379c0,0.377,0.089,0.629,0.268,0.88
		c0.179,0.253,0.445,0.377,0.801,0.377c0.267,0,0.445,0,0.622-0.127c0.179-0.126,0.358-0.25,0.714-0.377l0.088-0.503
		c-0.088,0-0.088,0.127-0.268,0.127C11.898,14.526,11.811,14.526,11.72,14.526z"/>
	<ellipse fill="#CBA764" cx="11.851" cy="6.812" rx="1.063" ry="1.031"/>
</g>
</svg>
