<?xml version="1.0" encoding="utf-8"?>
<!-- Generator: Adobe Illustrator 16.0.0, SVG Export Plug-In . SVG Version: 6.00 Build 0)  -->
<!DOCTYPE svg PUBLIC "-//W3C//DTD SVG 1.1//EN" "http://www.w3.org/Graphics/SVG/1.1/DTD/svg11.dtd">
<svg version="1.1" id="Calque_1" xmlns="http://www.w3.org/2000/svg" xmlns:xlink="http://www.w3.org/1999/xlink" x="0px" y="0px"
	 width="595.279px" height="841.891px" viewBox="0 0 595.279 841.891" enable-background="new 0 0 595.279 841.891"
	 xml:space="preserve">
<g>
	<path fill="#C9A562" d="M292.551,123.305C129.716,123.305,7,258.021,7,420.855c0,160.075,122.716,287.551,285.551,287.551
		c181.503,0,292.551-116.379,292.551-292.551C582.566,266.353,471.069,123.305,292.551,123.305z M299.551,641.649
		c-124.197,0-223.554-99.357-223.554-223.553c0-124.196,99.357-223.553,223.554-223.553c124.195,0,223.553,99.357,223.553,223.553
		C520.344,542.292,420.987,641.649,299.551,641.649z"/>
	<path fill="#C9A562" d="M321.63,313.219c-8.28,0-13.8,2.76-19.32,8.279c-5.519,5.52-8.279,11.04-8.279,16.56
		c0,5.52,2.76,13.799,8.279,16.559c5.521,2.76,11.04,8.28,19.32,8.28c8.279,0,13.8-2.76,19.319-8.28
		c5.521-5.52,8.279-11.04,8.279-16.559c0-5.52-5.52-11.04-11.039-16.56C332.669,315.979,327.15,313.219,321.63,313.219z"/>
	<path fill="#C9A562" d="M327.15,506.412c-5.52,0-11.04,0-11.04-2.76c-2.76-2.759-2.76-5.519-2.76-11.039c0-2.76,0-5.52,0-8.279
		s2.76-8.28,2.76-11.04l11.04-38.639c0-2.76,2.76-8.28,2.76-11.04s0-8.279,0-8.279c0-8.28-2.76-13.8-8.279-19.319
		c-5.521-5.52-13.8-8.28-24.839-8.28c-5.52,0-11.04,0-19.32,2.76c-8.28,2.76-13.8,2.76-22.079,5.519l-2.76,11.04
		c2.76,0,5.52-2.76,8.279-2.76c2.76,0,5.52,0,8.28,0c5.52,0,11.04,0,11.04,2.76s2.76,5.52,2.76,11.04c0,2.76,0,5.52,0,8.279
		c0,2.761-2.76,8.28-2.76,11.04l-11.04,38.639c0,2.76-2.76,8.28-2.76,11.04s0,5.52,0,8.28c0,8.278,2.76,13.799,8.28,19.318
		c5.52,5.521,13.8,8.28,24.839,8.28c8.28,0,13.8,0,19.319-2.76c5.521-2.761,11.04-5.521,22.08-8.28l2.76-11.039
		c-2.76,0-2.76,2.759-8.279,2.759C332.669,506.412,329.909,506.412,327.15,506.412z"/>
</g>
</svg>
