<?xml version="1.0" encoding="utf-8"?>
<!-- Generator: Adobe Illustrator 16.0.0, SVG Export Plug-In . SVG Version: 6.00 Build 0)  -->
<!DOCTYPE svg PUBLIC "-//W3C//DTD SVG 1.1//EN" "http://www.w3.org/Graphics/SVG/1.1/DTD/svg11.dtd">
<svg version="1.1" id="Calque_1" xmlns="http://www.w3.org/2000/svg" xmlns:xlink="http://www.w3.org/1999/xlink" x="0px" y="0px"
	 width="595.279px" height="841.891px" viewBox="0 0 595.279 841.891" enable-background="new 0 0 595.279 841.891"
	 xml:space="preserve">
<g>
	<path fill="#C9A562" d="M299.051,123.305C132.598,123.305,0,255.903,0,422.355c0,163.632,132.598,299.051,299.051,299.051
		c166.452,0,299.051-132.598,299.051-299.051C595.28,255.903,462.682,123.305,299.051,123.305z M299.051,648.055
		c-126.956,0-228.521-101.564-228.521-228.52s101.564-228.52,228.521-228.52c126.955,0,228.52,101.564,228.52,228.52
		C524.749,546.49,423.185,648.055,299.051,648.055z"/>
	<path fill="#C9A562" d="M321.62,312.328c-8.464,0-14.106,2.821-19.749,8.463c-5.642,5.643-8.463,11.285-8.463,16.928
		s2.821,14.106,8.463,16.927c5.643,2.821,11.285,8.464,19.749,8.464s14.106-2.821,19.749-8.464s8.463-11.285,8.463-16.927
		s-5.642-11.285-11.284-16.928C332.906,315.149,327.263,312.328,321.62,312.328z"/>
	<path fill="#C9A562" d="M327.263,509.813c-5.643,0-11.285,0-11.285-2.821c-2.821-2.82-2.821-5.642-2.821-11.284
		c0-2.821,0-5.643,0-8.464s2.821-8.464,2.821-11.285l11.285-39.497c0-2.821,2.821-8.464,2.821-11.285s0-8.463,0-8.463
		c0-8.464-2.821-14.106-8.464-19.749c-5.643-5.643-14.106-8.464-25.391-8.464c-5.643,0-11.285,0-19.749,2.821
		s-14.106,2.821-22.569,5.642l-2.821,11.285c2.821,0,5.643-2.821,8.463-2.821c2.821,0,5.643,0,8.464,0
		c5.643,0,11.285,0,11.285,2.821s2.821,5.643,2.821,11.285c0,2.821,0,5.643,0,8.464s-2.821,8.464-2.821,11.285l-11.285,39.497
		c0,2.821-2.821,8.464-2.821,11.285s0,5.643,0,8.464c0,8.463,2.821,14.105,8.464,19.748s14.106,8.464,25.391,8.464
		c8.464,0,14.106,0,19.749-2.821s11.285-5.643,22.57-8.464l2.821-11.284c-2.821,0-2.821,2.82-8.464,2.82
		C332.906,509.813,330.084,509.813,327.263,509.813z"/>
</g>
</svg>
