<?xml version="1.0" encoding="utf-8"?>
<!-- Generator: Adobe Illustrator 19.1.0, SVG Export Plug-In . SVG Version: 6.00 Build 0)  -->
<svg version="1.1" id="Calque_1" xmlns="http://www.w3.org/2000/svg" xmlns:xlink="http://www.w3.org/1999/xlink" x="0px" y="0px"
	 viewBox="0 0 32 29.5" style="enable-background:new 0 0 32 29.5;" xml:space="preserve">
<path d="M31.6,9.4L16.5,0.1c-0.3-0.2-0.6-0.2-0.9,0L0.5,9.3c0,0,0,0,0,0L0.4,9.4C0.2,9.5,0,9.8,0,10.1v18.5c0,0.5,0.4,0.9,0.9,0.9
	h30.3c0.5,0,0.9-0.4,0.9-0.9V10.1C32,9.8,31.9,9.5,31.6,9.4z M16,1.9l13.5,8.2l-3.9,2.4v-2.4c0-0.5-0.4-0.9-0.9-0.9H7.3
	c-0.5,0-0.9,0.4-0.9,0.9v2.4l-4-2.4L16,1.9z M23.9,11v2.6L16,18.3l-7.8-4.8V11H23.9z M30.3,27.7H1.7V11.7l5.2,3.1l8.7,5.3
	c0.1,0.1,0.3,0.1,0.4,0.1s0.3,0,0.4-0.1l8.7-5.3l5.2-3.1L30.3,27.7L30.3,27.7z"/>
</svg>
