<?xml version="1.0" encoding="utf-8"?>
<!-- Generator: Adobe Illustrator 16.0.0, SVG Export Plug-In . SVG Version: 6.00 Build 0)  -->
<!DOCTYPE svg PUBLIC "-//W3C//DTD SVG 1.1//EN" "http://www.w3.org/Graphics/SVG/1.1/DTD/svg11.dtd">
<svg version="1.1" id="Calque_1" xmlns="http://www.w3.org/2000/svg" xmlns:xlink="http://www.w3.org/1999/xlink" x="0px" y="0px"
	 width="595.279px" height="841.891px" viewBox="0 0 595.279 841.891" enable-background="new 0 0 595.279 841.891"
	 xml:space="preserve">
<g>
	<path fill="#C9A562" d="M192.016,546.703H93.46c-3.942,0-7.885-3.941-7.885-7.884v-11.827c0-3.942,3.942-7.885,7.885-7.885h94.613
		c3.942,0,7.885,3.942,7.885,7.885v11.827C199.901,542.762,195.958,546.703,192.016,546.703z"/>
	<path fill="#C9A562" d="M310.283,605.837H93.46c-3.942,0-7.885-3.941-7.885-7.884v-11.827c0-3.942,3.942-7.885,7.885-7.885h212.881
		c3.942,0,7.885,3.942,7.885,7.885v11.827C318.168,601.896,314.226,605.837,310.283,605.837z"/>
	<path fill="#C9A562" d="M400.955,605.837h-55.191c-3.942,0-7.885-3.941-7.885-7.884v-11.827c0-3.942,3.942-7.885,7.885-7.885
		h55.191c3.942,0,7.885,3.942,7.885,7.885v11.827C412.782,601.896,408.84,605.837,400.955,605.837z"/>
	<path fill="#C9A562" d="M499.512,605.837h-55.191c-3.942,0-7.885-3.941-7.885-7.884v-11.827c0-3.942,3.942-7.885,7.885-7.885
		h55.191c3.942,0,7.884,3.942,7.884,7.885v11.827C507.396,601.896,503.454,605.837,499.512,605.837z"/>
	<path fill="#C9A562" d="M345.764,546.703h-98.557c-3.941,0-7.884-3.941-7.884-7.884v-11.827c0-3.942,3.942-7.885,7.884-7.885
		h94.614c3.942,0,7.885,3.942,7.885,7.885v11.827C353.649,542.762,349.706,546.703,345.764,546.703z"/>
	<path fill="#C9A562" d="M192.016,668.913H93.46c-3.942,0-7.885-3.942-7.885-7.884v-11.827c0-3.942,3.942-7.885,7.885-7.885h94.613
		c3.942,0,7.885,3.942,7.885,7.885v11.827C199.901,664.971,195.958,668.913,192.016,668.913z"/>
	<path fill="#C9A562" d="M345.764,668.913h-98.557c-3.941,0-7.884-3.942-7.884-7.884v-11.827c0-3.942,3.942-7.885,7.884-7.885
		h94.614c3.942,0,7.885,3.942,7.885,7.885v11.827C353.649,664.971,349.706,668.913,345.764,668.913z"/>
	<path fill="#C9A562" d="M499.512,546.703h-94.614c-3.942,0-7.885-3.941-7.885-7.884v-11.827c0-3.942,3.942-7.885,7.885-7.885
		h94.614c3.942,0,7.884,3.942,7.884,7.885v11.827C507.396,542.762,503.454,546.703,499.512,546.703z"/>
	<path fill="#C9A562" d="M0,107.536v630.761c0,19.711,15.769,39.422,39.422,39.422H559.8c19.711,0,39.422-15.769,39.422-39.422
		V107.536c0-19.711-15.769-39.423-39.422-39.423H39.422C15.769,68.113,0,83.882,0,107.536z M528.262,746.181H70.96
		c-19.711,0-39.422-15.769-39.422-39.422V139.074c0-19.711,15.769-39.423,39.422-39.423h457.302
		c19.711,0,39.422,15.769,39.422,39.423v567.685C567.684,726.47,547.973,746.181,528.262,746.181z"/>
	<path fill="#C9A562" d="M126.153,174.554h346.918c19.711,0,39.422,15.769,39.422,39.422V395.32
		c0,19.711-15.769,39.423-39.422,39.423H126.153c-19.712,0-39.423-15.769-39.423-39.423V213.977
		C86.73,190.323,102.498,174.554,126.153,174.554z"/>
</g>
</svg>
