<?xml version="1.0" encoding="utf-8"?>
<!-- Generator: Adobe Illustrator 16.0.0, SVG Export Plug-In . SVG Version: 6.00 Build 0)  -->
<!DOCTYPE svg PUBLIC "-//W3C//DTD SVG 1.1//EN" "http://www.w3.org/Graphics/SVG/1.1/DTD/svg11.dtd">
<svg version="1.1" id="Calque_1" xmlns="http://www.w3.org/2000/svg" xmlns:xlink="http://www.w3.org/1999/xlink" x="0px" y="0px"
	 width="27px" height="21px" viewBox="0 0 27 21" enable-background="new 0 0 27 21" xml:space="preserve">
<g>
	<path fill="#CAA663" d="M5.899,13.73H3.015c-0.117,0-0.231-0.115-0.231-0.23v-0.346c0-0.115,0.114-0.232,0.231-0.232h2.769
		c0.116,0,0.23,0.117,0.23,0.232V13.5C6.129,13.615,6.013,13.73,5.899,13.73z"/>
	<path fill="#CAA663" d="M9.36,15.461H3.015c-0.117,0-0.231-0.115-0.231-0.23v-0.348c0-0.113,0.114-0.23,0.231-0.23h6.229
		c0.116,0,0.231,0.117,0.231,0.23v0.348C9.59,15.346,9.476,15.461,9.36,15.461z"/>
	<path fill="#CAA663" d="M12.013,15.461h-1.614c-0.116,0-0.232-0.115-0.232-0.23v-0.348c0-0.113,0.116-0.23,0.232-0.23h1.614
		c0.116,0,0.232,0.117,0.232,0.23v0.348C12.361,15.346,12.245,15.461,12.013,15.461z"/>
	<path fill="#CAA663" d="M14.898,15.461h-1.616c-0.116,0-0.23-0.115-0.23-0.23v-0.348c0-0.113,0.114-0.23,0.23-0.23h1.616
		c0.114,0,0.23,0.117,0.23,0.23v0.348C15.129,15.346,15.013,15.461,14.898,15.461z"/>
	<path fill="#CAA663" d="M10.399,13.73H7.514c-0.116,0-0.23-0.115-0.23-0.23v-0.346c0-0.115,0.114-0.232,0.23-0.232h2.769
		c0.116,0,0.23,0.117,0.23,0.232V13.5C10.63,13.615,10.513,13.73,10.399,13.73z"/>
	<path fill="#CAA663" d="M5.899,17.307H3.015c-0.117,0-0.231-0.115-0.231-0.23V16.73c0-0.115,0.114-0.23,0.231-0.23h2.769
		c0.116,0,0.23,0.115,0.23,0.23v0.346C6.129,17.191,6.013,17.307,5.899,17.307z"/>
	<path fill="#CAA663" d="M10.399,17.307H7.514c-0.116,0-0.23-0.115-0.23-0.23V16.73c0-0.115,0.114-0.23,0.23-0.23h2.769
		c0.116,0,0.23,0.115,0.23,0.23v0.346C10.63,17.191,10.513,17.307,10.399,17.307z"/>
	<path fill="#CAA663" d="M14.898,13.73h-2.77c-0.116,0-0.23-0.115-0.23-0.23v-0.346c0-0.115,0.114-0.232,0.23-0.232h2.77
		c0.114,0,0.23,0.117,0.23,0.232V13.5C15.129,13.615,15.013,13.73,14.898,13.73z"/>
	<path fill="#CAA663" d="M0.188,1.27v18.459c0,0.578,0.461,1.156,1.154,1.156H16.57c0.577,0,1.154-0.463,1.154-1.156V1.27
		c0-0.577-0.461-1.154-1.154-1.154H1.341C0.649,0.116,0.188,0.577,0.188,1.27z M15.648,19.961H2.265
		c-0.578,0-1.154-0.461-1.154-1.154V2.193c0-0.578,0.46-1.154,1.154-1.154h13.384c0.576,0,1.153,0.461,1.153,1.154v16.614
		C16.802,19.383,16.225,19.961,15.648,19.961z"/>
	<path fill="#CAA663" d="M3.88,3.231h10.152c0.577,0,1.153,0.461,1.153,1.154v5.307c0,0.577-0.46,1.154-1.153,1.154H3.88
		c-0.577,0-1.154-0.462-1.154-1.154V4.385C2.726,3.692,3.187,3.231,3.88,3.231z"/>
</g>
</svg>
