<?xml version="1.0" encoding="utf-8"?>
<!-- Generator: Adobe Illustrator 16.0.0, SVG Export Plug-In . SVG Version: 6.00 Build 0)  -->
<!DOCTYPE svg PUBLIC "-//W3C//DTD SVG 1.1//EN" "http://www.w3.org/Graphics/SVG/1.1/DTD/svg11.dtd">
<svg version="1.1" id="Calque_1" xmlns="http://www.w3.org/2000/svg" xmlns:xlink="http://www.w3.org/1999/xlink" x="0px" y="0px"
	 width="595.279px" height="841.891px" viewBox="0 0 595.279 841.891" enable-background="new 0 0 595.279 841.891"
	 xml:space="preserve">
<g>
	<path fill="#B0B0B0" d="M244.177,102.706c-20.987,0-37.901,16.918-37.901,37.895v151.6H54.679
		c-20.989,0-37.896,16.894-37.896,37.893v113.695c0,20.998,16.906,37.906,37.896,37.906h151.598v151.599
		c0,20.988,16.914,37.896,37.901,37.896H357.88c20.986,0,37.895-16.906,37.895-37.896V481.695h151.599
		c20.988,0,37.907-16.908,37.907-37.906V330.094c0-21-16.919-37.893-37.907-37.893H395.76v-151.6
		c0-20.977-16.894-37.895-37.894-37.895H244.177z"/>
</g>
</svg>
