<?xml version="1.0" encoding="utf-8"?>
<!-- Generator: Adobe Illustrator 19.1.0, SVG Export Plug-In . SVG Version: 6.00 Build 0)  -->
<svg version="1.1" id="Calque_1" xmlns="http://www.w3.org/2000/svg" xmlns:xlink="http://www.w3.org/1999/xlink" x="0px" y="0px"
	 viewBox="0 0 15.7 20.4" style="enable-background:new 0 0 15.7 20.4;" xml:space="preserve">
<style type="text/css">
	.st0{fill:#C9A562;}
</style>
<path class="st0" d="M7.8,0C3.5,0,0,3.6,0,8.1c0,1.1,0.2,2.2,0.6,3.2c0,0,0.9,1.7,1.4,2.2l5.8,6.9l5.7-6.7c0.6-0.6,1.5-2.4,1.5-2.4
	c0.4-1,0.6-2.1,0.6-3.2C15.7,3.6,12.1,0,7.8,0 M7.8,10.3c-1.6,0-2.9-1.3-2.9-2.9c0-1.6,1.3-2.9,2.9-2.9c1.6,0,2.9,1.3,2.9,2.9
	C10.7,9,9.4,10.3,7.8,10.3"/>
</svg>
