<?xml version="1.0" encoding="utf-8"?>
<!-- Generator: Adobe Illustrator 16.0.0, SVG Export Plug-In . SVG Version: 6.00 Build 0)  -->
<!DOCTYPE svg PUBLIC "-//W3C//DTD SVG 1.1//EN" "http://www.w3.org/Graphics/SVG/1.1/DTD/svg11.dtd">
<svg version="1.1"
	 id="Calque_1" xmlns:dc="http://purl.org/dc/elements/1.1/" xmlns:cc="http://creativecommons.org/ns#" xmlns:rdf="http://www.w3.org/1999/02/22-rdf-syntax-ns#" xmlns:svg="http://www.w3.org/2000/svg" xmlns:sodipodi="http://sodipodi.sourceforge.net/DTD/sodipodi-0.dtd" xmlns:inkscape="http://www.inkscape.org/namespaces/inkscape" sodipodi:docname="Lireplustard.svgz" inkscape:version="0.48.4 r9939"
	 xmlns="http://www.w3.org/2000/svg" xmlns:xlink="http://www.w3.org/1999/xlink" x="0px" y="0px" width="924.369px"
	 height="900.36px" viewBox="0 0 924.369 900.36" enable-background="new 0 0 924.369 900.36" xml:space="preserve">
<sodipodi:namedview  inkscape:cy="450.17999" inkscape:cx="462.185" inkscape:zoom="0.26211738" showgrid="false" guidetolerance="10" gridtolerance="10" objecttolerance="10" borderopacity="1" pagecolor="#ffffff" bordercolor="#666666" id="namedview5" inkscape:current-layer="Calque_1" inkscape:window-maximized="0" inkscape:window-y="0" inkscape:window-x="0" inkscape:window-height="480" inkscape:window-width="640" inkscape:pageshadow="2" inkscape:pageopacity="0">
	</sodipodi:namedview>
<path id="path3" fill="#C8A970" d="M527.734,553.125l-81.843-66.957c-11.354-4.453-22.106-12.594-22.106-21.988l0.18-2.395
	c-0.32-3.201,0.063-6.732,0.794-10.316l11.827-153.689c0-14.131,11.469-25.6,25.6-25.6s25.6,11.469,25.6,25.6l10.701,139.162
	l65.446,80c9.997,9.996,9.997,26.201,0,36.197C553.948,563.124,537.731,563.124,527.734,553.125z M549.878,143.053l-0.115,0.357
	c-27.955-7.615-57.216-12.031-87.578-12.031c-183.795,0-332.8,149.006-332.8,332.801s149.005,332.799,332.8,332.799
	s332.8-149.004,332.8-332.799c0-16.973-1.677-33.51-4.122-49.805l0.627-0.092c-0.575-2.01-0.973-4.082-1.023-6.271
	c-0.32-14.131,10.88-25.855,25.023-26.176c14.132-0.32,25.856,10.881,26.163,25.023c0.014,0.359-0.076,0.691-0.076,1.037
	c2.726,18.42,4.607,37.107,4.607,56.283c0,212.07-171.93,384-384,384s-384-171.93-384-384c0-212.084,171.93-384,384-384
	c32.845,0,64.55,4.607,94.963,12.416c2.534,0.217,5.082,0.703,7.59,1.727c13.069,5.402,19.277,20.379,13.875,33.436
	C573.839,139.29,561.641,145.446,549.878,143.053z"/>
<circle fill="none" stroke="#C8A970" stroke-width="65" stroke-miterlimit="10" cx="462.184" cy="464.18" r="358.536"/>
</svg>
