<?xml version="1.0" encoding="utf-8"?>
<!-- Generator: Adobe Illustrator 19.1.0, SVG Export Plug-In . SVG Version: 6.00 Build 0)  -->
<svg version="1.1" id="Calque_1" xmlns="http://www.w3.org/2000/svg" xmlns:xlink="http://www.w3.org/1999/xlink" x="0px" y="0px"
	 viewBox="0 0 43.1 31.1" style="enable-background:new 0 0 43.1 31.1;" xml:space="preserve">
<style type="text/css">
	.st0{fill:#FFFFFF;}
</style>
<g>
	<g>
		<g>
			<path class="st0" d="M42.2,1.9h-10l-3-1.6C29.1,0.1,28.9,0,28.7,0h-7.1c0,0,0,0-0.1,0h0h-7.1c-0.2,0-0.4,0.1-0.6,0.2l-3,1.6H0.9
				C0.4,1.9,0,2.3,0,2.8v27.4c0,0.5,0.4,0.9,0.9,0.9h41.3c0.5,0,0.9-0.4,0.9-0.9V2.7C43.1,2.3,42.8,1.9,42.2,1.9z M41.3,29.2H1.8
				V3.6h9.3c0.3,0,0.6-0.2,0.8-0.4l2.8-1.5h6.8h0c0,0,0,0,0.1,0h6.7l2.8,1.5c0.1,0.2,0.4,0.4,0.8,0.4h9.5L41.3,29.2L41.3,29.2z"/>
		</g>
	</g>
</g>
<path class="st0" d="M6.5,10.2H6.2c-0.8,0-1.4-0.7-1.4-1.4V8.5C4.8,7.7,5.4,7,6.2,7h0.3C7.3,7,8,7.7,8,8.5v0.3
	C8,9.5,7.3,10.2,6.5,10.2z"/>
<g>
	<path class="st0" d="M28.5,23.1c-0.8,0.8-2.2,0.8-3,0l-3.9-3.9l-3.9,3.9c-0.8,0.8-2.2,0.8-3,0c-0.8-0.8-0.8-2.2,0-3l3.9-3.9
		l-3.9-3.9c-0.8-0.8-0.8-2.2,0-3c0.8-0.8,2.2-0.8,3,0l3.9,3.9l3.9-3.9c0.8-0.8,2.2-0.8,3,0c0.8,0.8,0.8,2.2,0,3l-3.9,3.9l3.9,3.9
		C29.4,20.9,29.4,22.3,28.5,23.1z"/>
</g>
</svg>
