<?xml version="1.0" encoding="utf-8"?>
<!-- Generator: Adobe Illustrator 16.0.0, SVG Export Plug-In . SVG Version: 6.00 Build 0)  -->
<!DOCTYPE svg PUBLIC "-//W3C//DTD SVG 1.1//EN" "http://www.w3.org/Graphics/SVG/1.1/DTD/svg11.dtd">
<svg version="1.1" id="Calque_1" xmlns="http://www.w3.org/2000/svg" xmlns:xlink="http://www.w3.org/1999/xlink" x="0px" y="0px"
	 width="595.279px" height="841.891px" viewBox="0 0 595.279 841.891" enable-background="new 0 0 595.279 841.891"
	 xml:space="preserve">
<g>
	<g>
		<g>
			<path fill="#B0B0B0" d="M582.85,232.417H444.734l-41.435-22.099c-1.382-2.762-4.144-4.143-6.906-4.143H298.33c0,0,0,0-1.381,0
				l0,0h-98.062c-2.762,0-5.524,1.381-8.287,2.762l-41.435,22.099H12.431C5.525,232.417,0,237.941,0,244.847v378.438
				c0,6.905,5.524,12.431,12.431,12.431H582.85c6.905,0,12.431-5.525,12.431-12.431V243.466
				C595.28,237.941,591.137,232.417,582.85,232.417z M570.419,609.474H24.861V255.896h128.448c4.144,0,8.287-2.763,11.049-5.525
				l38.673-20.717h93.919l0,0c0,0,0,0,1.381,0h92.538l38.672,20.717c1.382,2.762,5.525,5.525,11.05,5.525H571.8L570.419,609.474
				L570.419,609.474z"/>
		</g>
	</g>
</g>
<path fill="#B0B0B0" d="M89.776,347.053h-4.144c-11.05,0-19.336-9.668-19.336-19.336v-4.144c0-11.049,8.286-20.717,19.336-20.717
	h4.144c11.049,0,20.717,9.668,20.717,20.717v4.144C110.492,337.385,100.824,347.053,89.776,347.053z"/>
<g>
	<path fill="#B0B0B0" d="M393.63,525.223c-11.049,11.049-30.385,11.049-41.435,0l-53.865-53.865l-53.865,53.865
		c-11.049,11.049-30.385,11.049-41.435,0c-11.049-11.049-11.049-30.386,0-41.435l53.865-53.865l-53.865-53.866
		c-11.049-11.049-11.049-30.385,0-41.435c11.05-11.049,30.386-11.049,41.435,0l53.865,53.865l53.865-53.865
		c11.05-11.049,30.386-11.049,41.435,0c11.05,11.049,11.05,30.385,0,41.435l-53.865,53.866l53.865,53.865
		C406.061,494.837,406.061,514.174,393.63,525.223z"/>
</g>
</svg>
