<?xml version="1.0" encoding="utf-8"?>
<!-- Generator: Adobe Illustrator 15.1.0, SVG Export Plug-In . SVG Version: 6.00 Build 0)  -->
<!DOCTYPE svg PUBLIC "-//W3C//DTD SVG 1.1//EN" "http://www.w3.org/Graphics/SVG/1.1/DTD/svg11.dtd">
<svg version="1.1" id="Calque_1" xmlns="http://www.w3.org/2000/svg" xmlns:xlink="http://www.w3.org/1999/xlink" x="0px" y="0px"
	 width="551px" height="800px" viewBox="0 0 551 800" enable-background="new 0 0 551 800" xml:space="preserve">
<g>
	<g>
		<g>
			<g>
				<path fill="#B0B0B0" d="M539.494,223.896H411.651l-38.353-20.455c-1.278-1.278-5.113-2.557-7.67-2.557H274.86c0,0,0,0-1.278,0
					l0,0h-90.768c-2.557,0-5.114,1.278-7.67,2.557l-38.353,20.455H11.505C5.113,223.896,0,229.009,0,235.401v350.287
					c0,6.393,5.113,11.506,11.505,11.506h527.989c6.392,0,11.506-5.113,11.506-11.506V235.401
					C551,229.009,545.886,223.896,539.494,223.896z M526.71,574.183H23.011V246.907h118.894c3.835,0,7.67-2.557,10.227-5.114
					l35.796-19.176h86.933l0,0c0,0,0,0,1.278,0h85.654l35.796,19.176c1.278,2.557,5.114,5.114,10.228,5.114h121.45L526.71,574.183
					L526.71,574.183z"/>
			</g>
		</g>
	</g>
	<g>
		<path fill="#B0B0B0" stroke="#B0B0B0" stroke-miterlimit="10" d="M331.111,314.663c-44.745-31.96-108.666-21.733-139.348,24.29
			l0,0l0,0l0,0l0,0l0,0c-1.278,2.557,0,7.671,2.557,8.949c2.557,2.557,7.67,1.278,8.949-1.278l0,0c0,0,0,0,0-1.278
			c26.847-38.353,81.819-47.302,120.171-20.455c26.847,19.177,39.631,49.858,35.796,80.541l-23.012-19.177
			c-2.557-2.557-7.67-2.557-10.228,0c-2.557,2.557-2.557,7.671,0,10.228l37.074,33.239c1.279,1.278,2.558,2.557,5.114,1.278
			c2.557,0,3.835-1.278,5.113-2.558l33.239-37.074l0,0c2.557-2.557,1.278-7.67-1.278-8.948c-2.557-2.558-7.671-2.558-10.228,0
			l-23.012,25.568C377.135,373.471,361.793,337.675,331.111,314.663z"/>
		<path fill="#B0B0B0" stroke="#B0B0B0" stroke-miterlimit="10" d="M347.73,450.176L347.73,450.176L347.73,450.176
			c-28.125,39.631-81.819,48.58-121.45,21.733c-26.847-19.177-39.631-49.858-35.795-80.54l23.011,20.454
			c2.557,2.557,7.671,2.557,10.228,0s2.557-7.67,0-10.228l-38.353-33.238c-1.278-1.279-2.557-2.558-5.114-1.279
			c-2.557,0-3.835,1.279-5.114,2.558l-33.239,37.074l0,0c-2.557,2.557-1.279,7.67,1.278,8.948c2.557,2.558,7.67,2.558,10.227,0
			l23.012-25.568c-3.835,34.518,10.228,71.592,42.188,93.325c44.745,31.961,108.666,21.733,139.348-24.29l0,0l0,0l0,0l0,0l0,0
			c1.278-2.557,0-7.671-2.557-8.949C354.123,446.341,350.287,447.619,347.73,450.176z"/>
	</g>
</g>
</svg>
