<?xml version="1.0" encoding="utf-8"?>
<!-- Generator: Adobe Illustrator 19.1.0, SVG Export Plug-In . SVG Version: 6.00 Build 0)  -->
<svg version="1.1" id="Calque_1" xmlns="http://www.w3.org/2000/svg" xmlns:xlink="http://www.w3.org/1999/xlink" x="0px" y="0px"
	 viewBox="0 0 71.6 43.7" style="enable-background:new 0 0 71.6 43.7;" xml:space="preserve">
<style type="text/css">
	.st0{fill:none;stroke:#C9A562;stroke-miterlimit:10;}
	.st1{fill:#C9A562;}
	.st2{fill:none;}
</style>
<circle class="st0" cx="52.2" cy="37.7" r="5.5"/>
<circle class="st0" cx="52.2" cy="37.7" r="2.1"/>
<path class="st0" d="M0.3,20.9h47.2l-7.4-12c0,0-1.8-2.7-4.5-2.5H0.3"/>
<line class="st0" x1="42.1" y1="37.7" x2="0.8" y2="37.7"/>
<path class="st0" d="M0.3,4.2h37.4c0,0,2.7-0.6,4.9,3.5c1.6,3,5,8.3,6.7,11c0.7,1,1.8,1.7,3.1,1.7H68c0,0,3.1-0.6,3.1,3.9v9.9
	c0,2-1.6,3.6-3.6,3.6h-5.2"/>
<g>
	<path class="st1" d="M34.8,4.1V2.3c0-1.3-1-2.3-2.3-2.3s-2.3,1-2.3,2.3v1.9c0,0,0,0,0,0L34.8,4.1C34.8,4.2,34.8,4.2,34.8,4.1z"/>
</g>
<rect x="17.9" y="6.4" class="st0" width="3.1" height="14.5"/>
<path class="st0" d="M62.8,37.7c0-5.8-4.7-10.6-10.6-10.6s-10.6,4.7-10.6,10.6"/>
<rect x="33.2" y="27.5" class="st1" width="2.1" height="2.1"/>
<g>
	<path class="st2" d="M48.3,27.5h-0.5v0.2C47.9,27.6,48.1,27.5,48.3,27.5z"/>
	<path class="st2" d="M58.1,28.4v-0.9h-1.9C56.9,27.7,57.5,28,58.1,28.4z"/>
	<rect y="27.5" class="st1" width="2.1" height="2.1"/>
	<rect x="2.1" y="25.4" class="st1" width="2.1" height="2.1"/>
	<rect x="4.1" y="27.5" class="st1" width="2.1" height="2.1"/>
	<rect x="6.2" y="25.4" class="st1" width="2.1" height="2.1"/>
	<rect x="8.3" y="27.5" class="st1" width="2.1" height="2.1"/>
	<rect x="10.4" y="25.4" class="st1" width="2.1" height="2.1"/>
	<rect x="12.4" y="27.5" class="st1" width="2.1" height="2.1"/>
	<rect x="14.5" y="25.4" class="st1" width="2.1" height="2.1"/>
	<rect x="16.6" y="27.5" class="st1" width="2.1" height="2.1"/>
	<rect x="18.7" y="25.4" class="st1" width="2.1" height="2.1"/>
	<rect x="20.7" y="27.5" class="st1" width="2.1" height="2.1"/>
	<rect x="22.8" y="25.4" class="st1" width="2.1" height="2.1"/>
	<rect x="24.9" y="27.5" class="st1" width="2.1" height="2.1"/>
	<rect x="27" y="25.4" class="st1" width="2.1" height="2.1"/>
	<rect x="29" y="27.5" class="st1" width="2.1" height="2.1"/>
	<rect x="31.1" y="25.4" class="st1" width="2.1" height="2.1"/>
	<rect x="35.3" y="25.4" class="st1" width="2.1" height="2.1"/>
	<rect x="37.3" y="27.5" class="st1" width="2.1" height="2.1"/>
	<rect x="39.4" y="25.4" class="st1" width="2.1" height="2.1"/>
	<rect x="41.5" y="27.5" class="st1" width="2.1" height="2.1"/>
	<rect x="43.6" y="25.4" class="st1" width="2.1" height="2.1"/>
	<path class="st1" d="M47.7,27.5h-2.1v1.5c0.6-0.5,1.3-0.9,2.1-1.2V27.5z"/>
	<path class="st1" d="M49.8,27v-1.6h-2.1v2.1h0.5C48.8,27.3,49.3,27.1,49.8,27z"/>
	<path class="st1" d="M53.9,26.9v-1.5h-2.1v1.3c0.1,0,0.3,0,0.4,0C52.8,26.7,53.4,26.8,53.9,26.9z"/>
	<path class="st1" d="M58.1,27.5v-2.1H56v2c0.1,0,0.1,0.1,0.2,0.1H58.1z"/>
	<path class="st1" d="M58.1,28.4c0.5,0.3,1,0.7,1.5,1.1h0.6v-2.1h-2.1V28.4z"/>
	<rect x="60.2" y="25.4" class="st1" width="2.1" height="2.1"/>
	<rect x="62.2" y="27.5" class="st1" width="2.1" height="2.1"/>
	<rect x="64.3" y="25.4" class="st1" width="2.1" height="2.1"/>
</g>
</svg>
