<?xml version="1.0" encoding="utf-8"?>
<!-- Generator: Adobe Illustrator 19.1.0, SVG Export Plug-In . SVG Version: 6.00 Build 0)  -->
<svg version="1.1" id="Calque_1" xmlns="http://www.w3.org/2000/svg" xmlns:xlink="http://www.w3.org/1999/xlink" x="0px" y="0px"
	 viewBox="0 0 28.2 50.9" style="enable-background:new 0 0 28.2 50.9;" xml:space="preserve">
<style type="text/css">
	.st0{fill:none;stroke:#FFFFFF;stroke-miterlimit:10;}
</style>
<path class="st0" d="M21.6,50.4H6.6c-3.3,0-6.1-2.7-6.1-6.1V6.6c0-3.3,2.7-6.1,6.1-6.1h15.1c3.3,0,6.1,2.7,6.1,6.1v37.8
	C27.7,47.7,25,50.4,21.6,50.4z"/>
<line class="st0" x1="10.4" y1="3.5" x2="17.8" y2="3.5"/>
<path class="st0" d="M14.1,46.2L14.1,46.2c-1.1,0-2-0.9-2-2v0c0-1.1,0.9-2,2-2h0c1.1,0,2,0.9,2,2v0C16.1,45.3,15.2,46.2,14.1,46.2z"
	/>
</svg>
