<?xml version="1.0" encoding="utf-8"?>
<!-- Generator: Adobe Illustrator 16.0.0, SVG Export Plug-In . SVG Version: 6.00 Build 0)  -->
<!DOCTYPE svg PUBLIC "-//W3C//DTD SVG 1.1//EN" "http://www.w3.org/Graphics/SVG/1.1/DTD/svg11.dtd">
<svg version="1.1" id="Calque_1" xmlns="http://www.w3.org/2000/svg" xmlns:xlink="http://www.w3.org/1999/xlink" x="0px" y="0px"
	 width="595.279px" height="841.891px" viewBox="0 0 595.279 841.891" enable-background="new 0 0 595.279 841.891"
	 xml:space="preserve">
<path fill="#B0B0B0" stroke="#FFFFFF" stroke-miterlimit="10" d="M390.749,624.274H203.284c-41.243,0-76.237-33.743-76.237-76.235
	V76.879c0-41.242,33.744-76.236,76.237-76.236h188.713c41.242,0,76.236,33.744,76.236,76.236v472.41
	C466.981,590.531,433.239,624.274,390.749,624.274z"/>
<line fill="none" stroke="#FFFFFF" stroke-width="9" stroke-linecap="round" stroke-miterlimit="10" x1="250.774" y1="38.136" x2="343.255" y2="38.136"/>
<path fill="#FFFFFF" stroke="#B0B0B0" stroke-miterlimit="10" d="M297.016,579.792L297.016,579.792
	c-13.748,0-24.995-11.248-24.995-24.995l0,0c0-13.747,11.247-24.995,24.995-24.995l0,0c13.747,0,24.995,11.248,24.995,24.995l0,0
	C322.011,568.544,310.763,579.792,297.016,579.792z"/>
<rect x="145.337" y="74.147" fill="#FFFFFF" stroke="#B0B0B0" stroke-miterlimit="10" width="303.357" height="425.001"/>
</svg>
