<?xml version="1.0" encoding="utf-8"?>
<!-- Generator: Adobe Illustrator 19.1.0, SVG Export Plug-In . SVG Version: 6.00 Build 0)  -->
<svg version="1.1" id="Calque_1" xmlns="http://www.w3.org/2000/svg" xmlns:xlink="http://www.w3.org/1999/xlink" x="0px" y="0px"
	 viewBox="0 0 84.1 40.6" style="enable-background:new 0 0 84.1 40.6;" xml:space="preserve">
<style type="text/css">
	.st0{fill:none;stroke:#C9A562;stroke-miterlimit:10;}
</style>
<path class="st0" d="M0.5,0.5h44.8c0,0,6.2-0.2,12.8,3.9s26,17.5,25.4,24.8c-0.6,7.4-25.4,5.4-25.4,5.4H0.5"/>
<path class="st0" d="M0.5,22.7V7.5h31.4c0,0,7.1-0.5,14.8,5.5s8,6.3,8,7.7s-0.6,2-2.5,2C50.3,22.7,0.5,22.7,0.5,22.7z"/>
<path class="st0" d="M65.3,16.5c0,0-10-5.5-7.8-9.1C59.7,3.9,69.1,12,69.1,12s10,7.2,8,8.9C75.2,22.5,65.3,16.5,65.3,16.5z"/>
<path class="st0" d="M31.7,28.1h16.4c0,0,7.2-0.1,10,6.6H4.4c0,0,0.6-2.8,2.3-4.4s2.6-2.2,7.3-2.2S31.7,28.1,31.7,28.1z"/>
<path class="st0" d="M4.4,34.8c0,2.9,2.4,5.3,5.3,5.3s5.3-2.4,5.3-5.3"/>
<path class="st0" d="M16.2,34.8c0,2.9,2.4,5.3,5.3,5.3s5.3-2.4,5.3-5.3"/>
<path class="st0" d="M35.2,34.9c0,2.9,2.4,5.3,5.3,5.3s5.3-2.4,5.3-5.3"/>
<path class="st0" d="M47.2,34.9c0,2.9,2.4,5.3,5.3,5.3c2.9,0,5.3-2.4,5.3-5.3"/>
</svg>
