<?xml version="1.0" encoding="utf-8"?>
<!-- Generator: Adobe Illustrator 16.0.0, SVG Export Plug-In . SVG Version: 6.00 Build 0)  -->
<!DOCTYPE svg PUBLIC "-//W3C//DTD SVG 1.1//EN" "http://www.w3.org/Graphics/SVG/1.1/DTD/svg11.dtd">
<svg version="1.1" id="Calque_1" xmlns="http://www.w3.org/2000/svg" xmlns:xlink="http://www.w3.org/1999/xlink" x="0px" y="0px"
	 width="228px" height="91px" viewBox="0 0 228 91" enable-background="new 0 0 228 91" xml:space="preserve">
<path d="M167.724,89.973H83.276c-8.7,0-15.776-7.077-15.776-15.66V29.768c0-8.7,7.076-15.776,15.776-15.776h14.037
	c2.319,0,4.292-1.972,4.292-4.292c0-5.22,4.524-8.7,11.252-8.7h26.681c6.379,0,9.859,3.132,9.859,8.7
	c0,2.32,1.972,4.292,4.292,4.292h14.035c8.7,0,15.776,7.076,15.776,15.776v44.427C183.5,82.896,176.424,89.973,167.724,89.973z
	 M83.276,15.848c-7.656,0-13.92,6.264-13.92,13.92v44.427c0,7.656,6.264,13.92,13.92,13.92h84.448c7.656,0,13.92-6.264,13.92-13.92
	V29.768c0-7.656-6.264-13.92-13.92-13.92h-14.035c-3.363,0-6.148-2.784-6.148-6.148c0-4.523-2.668-6.843-8.003-6.843h-26.681
	c-4.408,0-9.396,1.739-9.396,6.843c0,3.364-2.784,6.148-6.147,6.148H83.276z"/>
</svg>
