<?xml version="1.0" encoding="utf-8"?>
<!-- Generator: Adobe Illustrator 19.2.0, SVG Export Plug-In . SVG Version: 6.00 Build 0)  -->
<svg version="1.1" id="Calque_1" xmlns="http://www.w3.org/2000/svg" xmlns:xlink="http://www.w3.org/1999/xlink" x="0px" y="0px"
	 viewBox="0 0 100 100" style="enable-background:new 0 0 100 100;" xml:space="preserve">
<path d="M88.4,0L67.3,4.4v31.3c-4.8-6.2-11.5-9.1-20.2-9.1c-9.1,0-17.3,3.3-24,9.9C15.6,43.8,11.6,53,11.6,63.3
	c0,11.2,4.3,20.9,12.6,28.3c6.3,5.6,13.8,8.4,22.5,8.4c8.6,0,15-2.3,21.3-8.4v8h20.5L88.4,0L88.4,0z M51.3,80.8
	c-10.8,0-18.6-7.6-18.6-17.7c0-9.6,7.8-17.8,17.8-17.8c9.9,0,17.5,7.8,17.5,18.1C68.1,73.3,60.4,80.8,51.3,80.8"/>
</svg>
