<?xml version="1.0" encoding="utf-8"?>
<!-- Generator: Adobe Illustrator 16.0.0, SVG Export Plug-In . SVG Version: 6.00 Build 0)  -->
<!DOCTYPE svg PUBLIC "-//W3C//DTD SVG 1.1//EN" "http://www.w3.org/Graphics/SVG/1.1/DTD/svg11.dtd">
<svg version="1.1" id="Calque_1" xmlns="http://www.w3.org/2000/svg" xmlns:xlink="http://www.w3.org/1999/xlink" x="0px" y="0px"
	 width="130px" height="78px" viewBox="0 0 130 78" enable-background="new 0 0 130 78" xml:space="preserve">
<path d="M50.102,13.286c-0.537,0-1.058-0.26-1.383-0.741L45.4,7.567c-0.368-0.558-0.368-1.292,0-1.849l3.319-4.978
	c0.504-0.763,1.534-0.969,2.3-0.465c0.763,0.508,0.969,1.543,0.461,2.3l-2.702,4.059L51.48,10.7
	c0.507,0.756,0.302,1.792-0.461,2.293C50.74,13.196,50.424,13.286,50.102,13.286"/>
<path d="M76.652,8.307h-26.55c-0.912,0-1.659-0.746-1.659-1.659s0.747-1.66,1.659-1.66h26.55c0.916,0,1.658,0.747,1.658,1.66
	S77.568,8.307,76.652,8.307"/>
<path d="M76.652,13.286c-0.314,0-0.631-0.09-0.916-0.279c-0.764-0.505-0.971-1.541-0.465-2.3l2.703-4.059l-2.703-4.059
	c-0.506-0.759-0.305-1.795,0.465-2.3c0.76-0.511,1.795-0.308,2.297,0.462l3.318,4.978c0.371,0.557,0.371,1.291,0,1.849l-3.318,4.978
	C77.714,13.026,77.186,13.286,76.652,13.286"/>
<path d="M85.07,78H66.324c-7.881,0-13.487-12.173-18.436-22.904c-1.865-4.054-3.624-7.869-5.091-9.937
	c-2.157-3.041-2.05-6.781,0.262-9.101c2.473-2.462,6.761-2.556,9.16-0.156l4.521,4.752V18.098c0-3.511,3.04-6.471,6.637-6.471
	c3.663,0,6.64,2.871,6.64,6.406v9.773c0.974-0.544,2.108-0.86,3.315-0.86c2.858,0,5.362,1.869,6.276,4.397
	c1.054-0.681,2.319-1.078,3.681-1.078c2.858,0,5.362,1.869,6.276,4.397c1.052-0.68,2.318-1.079,3.68-1.079
	c3.597,0,6.638,2.967,6.638,6.472v17.954c0,13.897-13.604,19.63-14.177,19.865C85.503,77.954,85.29,78,85.07,78 M47.783,37.399
	c-0.873,0-1.736,0.36-2.38,1.008c-1.334,1.336-0.89,3.448,0.1,4.835c1.643,2.31,3.385,6.093,5.396,10.458
	c4.078,8.854,9.664,20.979,15.417,20.979h18.41c1.867-0.856,11.834-5.884,11.834-16.67V40.059c0-1.712-1.521-3.149-3.318-3.149
	c-1.799,0-3.319,1.414-3.319,3.083c0,0.916-0.743,1.658-1.659,1.658c-0.912,0-1.658-0.742-1.658-1.658v-3.248
	c0-1.714-1.521-3.15-3.317-3.15c-1.802,0-3.32,1.414-3.32,3.083c0,0.917-0.741,1.66-1.657,1.66c-0.914,0-1.658-0.743-1.658-1.66
	v-3.249c0-1.712-1.521-3.148-3.32-3.148s-3.318,1.413-3.318,3.082c0,0.916-0.744,1.66-1.66,1.66c-0.912,0-1.658-0.744-1.658-1.66
	V18.035c0-1.673-1.521-3.09-3.319-3.09c-1.797,0-3.317,1.451-3.317,3.156V44.8c0,0.681-0.416,1.294-1.04,1.544
	c-0.631,0.244-1.347,0.09-1.819-0.396l-7.36-7.725C49.323,37.696,48.579,37.399,47.783,37.399"/>
</svg>
