<?xml version="1.0" encoding="utf-8"?>
<!-- Generator: Adobe Illustrator 19.2.0, SVG Export Plug-In . SVG Version: 6.00 Build 0)  -->
<svg version="1.1" id="Calque_1" xmlns="http://www.w3.org/2000/svg" xmlns:xlink="http://www.w3.org/1999/xlink" x="0px" y="0px"
	 viewBox="0 0 100 100" style="enable-background:new 0 0 100 100;" xml:space="preserve">
<g>
	<polygon points="90.8,61.1 88.5,58.9 95.3,51.9 88.5,45.1 90.8,42.9 100,51.9 	"/>
	<polygon points="9,42.9 11.5,45.1 4.5,51.9 11.5,58.9 9,61.1 0,51.9 	"/>
	<g>
		<path d="M44.3,32.6c1.7,0,3,1.4,3,3.1v2.1c0-1.9,1.6-3.3,3.5-3.3s3.5,1.6,3.5,3.3v2.6c0-1.9,1.6-3.3,3.5-3.3s3.5,1.6,3.5,3.3v1.7
			c0-1.4,1.2-2.6,2.6-2.6s2.6,1.2,2.6,2.6c0,0,0,5,0,10.4s-5.4,11.1-5.4,14.8c-4.5,0-14.2,0-17.4,0c0-3.3-8.7-9.7-8.7-13.5V42
			c0-1.9,1.6-3.3,3.5-3.3v6.8c0,0.5,0.5,1,1.4,1s1.4-0.5,1.4-1v-9.7C41.3,34,42.7,32.6,44.3,32.6 M44.3,30c-3.1,0-5.6,2.6-5.6,5.7
			V36l0,0c-3.3,0-6.1,2.6-6.1,5.9v11.8c0,3,2.6,5.9,5.2,9c1.2,1.4,3.3,3.6,3.5,4.5V70h2.6h17.4h2.6v-2.6c0-1,1-3,1.9-4.7
			c1.6-3,3.3-6.4,3.3-10.1c0-5.4,0-10.4,0-10.4c0-2.8-2.3-5.2-5.2-5.2c-0.3,0-0.7,0-1,0.2c-1-1.6-3-2.8-5-2.8
			c-0.7,0-1.2,0.2-1.7,0.2c-1-1.7-3-2.8-5.2-2.8c-0.7,0-1.4,0.2-2.1,0.3C47.7,30.9,46,30,44.3,30L44.3,30z"/>
	</g>
</g>
</svg>
