<?xml version="1.0" encoding="utf-8"?>
<!-- Generator: Adobe Illustrator 19.2.0, SVG Export Plug-In . SVG Version: 6.00 Build 0)  -->
<svg version="1.1" id="Calque_1" xmlns="http://www.w3.org/2000/svg" xmlns:xlink="http://www.w3.org/1999/xlink" x="0px" y="0px"
	 viewBox="0 0 100 100" style="enable-background:new 0 0 100 100;" xml:space="preserve">
<g>
	<path d="M50,100C22.4,100,0,77.6,0,50C0,22.4,22.4,0,50,0s50,22.4,50,50C100,77.6,77.6,100,50,100z M50,4.8
		C25.1,4.8,4.8,25.1,4.8,50S25.1,95.2,50,95.2S95.2,74.9,95.2,50S74.9,4.8,50,4.8z"/>
	<path d="M70.5,44.8H55.2V28.6c0-2.9-2.4-5.2-5.2-5.2c-2.9,0.5-5.2,2.4-5.2,5.2V49v0.5V50c0,2.9,2.4,5.2,5.2,5.2h20.5
		c2.9,0,5.2-2.4,5.2-5.2S73.3,44.8,70.5,44.8z"/>
</g>
</svg>
