<?xml version="1.0" encoding="utf-8"?>
<!-- Generator: Adobe Illustrator 19.2.0, SVG Export Plug-In . SVG Version: 6.00 Build 0)  -->
<svg version="1.1" id="Calque_1" xmlns="http://www.w3.org/2000/svg" xmlns:xlink="http://www.w3.org/1999/xlink" x="0px" y="0px"
	 viewBox="0 0 100 100" style="enable-background:new 0 0 100 100;" xml:space="preserve">
<path d="M87.1,0H12.9C6,0,0.4,5.6,0.4,12.5v75C0.4,94.4,6,100,12.9,100H87c6.9,0,12.5-5.6,12.5-12.5v-75C99.6,5.6,94,0,87.1,0z
	 M70.4,50c0,11.2-9.1,20.4-20.4,20.4c-11.2,0-20.4-9.1-20.4-20.4c0-3.4,0.8-6.6,2.3-9.4c3.4-6.5,10.2-11,18.1-11s14.7,4.5,18.1,11
	C69.5,43.4,70.4,46.6,70.4,50z M88.4,83.7c0,2.8-2.3,5.1-5.1,5.1H17.2c-2.8,0-5.1-2.3-5.1-5.1V40.6h8.5c-0.9,3-1.5,6.1-1.5,9.4
	c0,17.1,13.9,31,31,31s31-13.9,31-31c0-3.3-0.5-6.4-1.5-9.4h8.9L88.4,83.7L88.4,83.7L88.4,83.7z M88.4,24.5c0,2.8-2.3,5.1-5.1,5.1
	h-7.8c-2.8,0-5.1-2.3-5.1-5.1V16c0-2.2,1.5-4.1,3.5-4.8h9.4c2.8,0,5.1,2.3,5.1,5.1V24.5L88.4,24.5z"/>
</svg>
