<?xml version="1.0" encoding="utf-8"?>
<!-- Generator: Adobe Illustrator 16.0.0, SVG Export Plug-In . SVG Version: 6.00 Build 0)  -->
<!DOCTYPE svg PUBLIC "-//W3C//DTD SVG 1.1//EN" "http://www.w3.org/Graphics/SVG/1.1/DTD/svg11.dtd">
<svg version="1.1" id="Calque_1" xmlns="http://www.w3.org/2000/svg" xmlns:xlink="http://www.w3.org/1999/xlink" x="0px" y="0px"
	 width="156px" height="87px" viewBox="0 0 156 87" enable-background="new 0 0 156 87" xml:space="preserve">
<g>
	<g>
		<path d="M31.885,9.776c0.929,0.619,3.251,0.928,5.573,0.619C36.219,11.324,32.504,11.169,31.885,9.776z"/>
		<path d="M39.004,2.5c2.014,0.311,4.025,0.465,6.037,0.929c-0.154,2.012-5.572,2.477-6.346,4.024c0,0.311,0.62,0.311,0.62,0
			c0.154,0.155-4.334,1.858-1.24,1.703c-1.393,0.311-2.631,0.311-4.023,0c0-0.464,0.619-0.773,1.083-0.928
			c0.309-1.703-2.478-0.155-2.94-0.62c-0.156-1.083,0,0-0.929-1.238c0.463-0.31,0.618-0.619,0.929-1.084
			c1.703,0,2.94,3.87,4.953,1.857c-0.619-0.309-1.393-0.463-1.858-0.928c0.465-0.464,2.012,0,2.632-0.464
			c-1.239-0.775-2.632-1.083-4.023-1.083C34.672,4.049,37.458,2.5,39.004,2.5C41.328,2.811,38.85,2.5,39.004,2.5z"/>
		<path d="M55.257,2.5c1.393,0,5.108,0,6.655,1.083c-1.703,0.465-3.56,0.774-4.643,1.703c1.083,0.465,8.203-0.155,9.442-0.618
			c-2.631,2.476-4.644,2.476-2.787,6.191c-0.619-0.155-0.774,0-0.619,0.464c-1.083,1.703-4.488-1.084-0.464,2.167
			c0.464-0.773-2.321,0.774-2.167,0.619c0.309,0.464,0.928,0.62,1.548,0.464c-1.394,1.084-5.108,0-5.418,2.632
			c-2.942-0.155-2.322,3.095-4.334,4.334c-2.013-0.929-4.024-6.192-2.941-7.43c2.167-2.321-6.5-3.87-7.429-4.333
			c0.154-1.084,2.012-1.084-1.083-1.238c1.392-0.155,2.63-0.773,3.404-1.857c0.156-0.31-1.239-0.31-1.084,0
			C47.054,3.121,53.09,4.824,55.257,2.5C55.412,2.5,54.948,2.811,55.257,2.5z"/>
		<path d="M91.786,16.74c0.619,0.157,10.062-0.773,10.682-1.083c0.154-0.775-2.014-3.715,1.083-3.25
			c-0.467,2.94-0.154,2.63-1.547,4.333c-0.155,2.478,2.784-0.928,2.939-1.083c0.464,0.619,1.083,1.083,1.702,1.239
			c0.154-2.168-3.404-1.549-2.167-4.025c0.31,0.774,0.929,1.083,1.702,1.083c-1.855-0.309,2.786,0.31,2.168,0.465
			c1.083-1.393-1.549-1.702-0.93-2.631c4.336,0,8.359-3.251,13.776-2.167c0,0.619-0.31,0.928-0.928,1.083
			c0.462,1.858,3.094,1.239,4.334,1.393c7.118,0.311,0,1.084,4.642,2.167c1.55-1.547,5.417-1.393,6.036-0.619
			c3.096-1.548,17.339,2.167,19.504,3.715c-2.476,0.619-3.559,0.309-6.035,0.619c0.308,0.774,0.618,1.238,1.236,1.703
			c-1.858,0.463-4.178,0.928-5.728,1.546c-1.856,0.619-1.393,5.882-4.021,5.573c-1.394-4.179,3.559-4.333,3.712-7.119
			c-2.629,0.618-10.833,2.011-12.845,5.417c0.773,2.167,4.022,1.393,0.927,5.573c-0.617,1.393-1.703,2.167-3.096,2.167
			c-1.084,1.237-0.154,3.715-1.084,4.178c-0.618-2.166-2.164-5.107-4.488-2.166c0,0.619,1.395,3.405,1.703,5.571
			c-1.081,3.405-4.953,2.788-7.12,4.955c1.082,1.084,2.633,4.643,0,5.417c-0.464-2.168-1.391-2.479-2.633-1.085
			c-1.391-3.714-1.081-2.631-3.405-6.037c-3.405,1.084-5.415,3.715-5.726,7.277c-2.784-2.787-1.393-6.502-4.023-7.895
			c-1.395-0.774-7.584-3.715-9.133-3.56c-0.155,1.393,2.479,5.883,3.406,2.786c2.011,3.715-1.24,4.798-5.108,6.191
			c-0.928-2.787-2.012-6.964-4.643-8.513c-2.323,3.869,5.262,9.598,7.738,9.909c0.155,4.794-6.656,5.416-4.951,10.986
			c0.616,2.014-2.945,9.907-4.646,11.455c-7.736,6.964-6.035-18.11-9.905-19.347c-4.489-1.395-7.584,1.236-10.062-4.8
			c1.085-2.167-0.309-4.024,1.55-6.036c0.928-0.929,2.94-3.871,3.25-5.109c6.812,1.394,5.263-1.238,10.679,2.788
			c2.015,0,8.672,0.309,7.74-4.025c-2.168,0.465-4.179,0.775-3.869-1.548c1.857-2.012,4.491,0.311,6.502-1.083
			c0-0.774-1.237-2.322-1.55-3.25c-2.786-0.618-3.868,2.941-6.809,4.024c0.31,0.62,0.31,1.083,0.153,1.703
			c-1.083-1.394-2.478-4.025-4.489-5.108c-1.236,1.238,1.083,2.631,1.703,3.405c-3.095,0.309-3.249-4.643-6.655-0.62
			c-2.322,2.942-4.49,3.561-4.49-1.083c1.858,0.774,5.263-1.083,2.323-2.785c1.237-0.465,5.417-2.942,5.572-4.335
			c2.785,2.012,5.262-0.928,6.655-1.239c0-0.617-0.155-1.083-0.155-1.701c0.929,0.155,1.856,0,2.631-0.62
			c-1.084-0.465-2.32-0.465-3.403-0.155c0-1.394,0.464-2.476,1.546-3.25c0-0.466-0.31-0.621-0.618-0.929
			c-1.546,1.238-4.334,5.572-4.49,7.12c-0.464-0.774-0.93-1.703-1.238-2.632c-0.463,0.466-1.236,0.775-1.857,0.93
			c0.621-4.954,10.061-13.002,14.704-5.726c-1.083,0.309-2.166,0.154-3.25-0.157C85.903,20.3,91.322,18.753,91.786,16.74
			C93.644,17.051,91.478,17.979,91.786,16.74z"/>
		<path d="M44.578,30.826c-5.108,0-7.43,7.275-7.276,11.3c-1.547-0.465-0.31-2.478-2.321-2.632
			c-2.323-0.155-0.465,0.619-3.561,0.464c-2.786-0.154-2.013,3.869-1.394,5.108c1.703,2.788,2.631-0.619,4.18-0.619
			c-0.465,1.237,1.083,6.347,2.94,6.502c-1.393,0.153-6.811-3.717-8.358-4.337c-2.941-1.235-4.488-4.951-6.191-7.582
			c-0.774,0.618,0.928,3.87,1.083,3.87c-2.785,0-6.191-11.455-4.489-12.848c-1.393-5.572-7.739-9.287-12.228-8.204
			c-1.703-0.773-0.309,1.24-3.25,1.858c1.394,0.465-3.251-3.095-3.251-2.941c0.93-0.619,1.548-1.547,1.859-2.63
			C1.393,18.909,0.619,18.753,0,17.514c0.773,0,1.547,0,2.322,0c-0.62-0.774-1.24-1.547-1.859-2.167
			c4.49-3.405,9.907-0.154,13.466,1.238c1.238,0.155,8.514-3.249,11.145,0.465c0-1.548,5.108-2.013,6.192-2.168
			c0-0.309-0.31-1.083-0.155-1.546c0.928,0.154,3.096,2.786,3.25,3.249c0.774-0.309,1.238-0.928,1.238-1.703
			c2.788-0.153-0.618,2.632-2.321,2.787c-0.155,1.084-2.167,2.168-2.321,4.645c2.012,1.547,4.953,4.952,6.656,5.571
			c0.928-2.476,1.392-5.107,1.083-7.739c2.632-1.237,2.786,1.702,3.715,2.786c0.773-0.154,1.394-0.464,1.703-1.084
			c1.548,2.013,2.167,2.478,1.858,4.025c0.619,0.31,1.083,0.31,1.703,0c0.155,0.31,0.155,0.774,0.155,1.083
			c-1.703,0.928-5.727,0.154-6.192,2.787c0.774-0.31,1.547-0.62,2.322-0.93c-0.31,0.155,0.31,2.167,0.155,2.631
			C43.493,31.445,44.578,31.136,44.578,30.826C43.184,30.826,44.578,31.136,44.578,30.826z"/>
		<path d="M39.47,80.666c0.619-3.249,4.643-14.24,1.084-16.561c-5.418-3.562,0.309-11.3-2.632-13.156
			c1.237-3.871,11.299,1.236,11.144,5.416c2.786,1.703,8.668-1.082,6.5,5.106c-0.774,2.324-5.727,13.003-8.822,12.075
			c-0.31,2.166,0,3.097-3.252,3.714c-0.154,2.788-1.392,4.8-2.32,7.739C39.933,83.607,40.708,81.132,39.47,80.666
			C39.47,80.512,39.933,80.822,39.47,80.666z"/>
		<path d="M132.339,72.619c-2.32-0.466-6.501,1.701-9.597,1.235c-0.153-5.725-2.631-4.489,2.014-8.203
			c2.632-2.166,3.56-1.546,4.952-4.18c3.561,0.622-0.155,2.478,3.406,3.717c0.618-1.083,1.083-2.167,1.083-3.405
			c2.787,4.334,5.729,7.741,3.251,13C136.21,77.57,131.565,75.559,132.339,72.619C131.412,72.463,131.876,74.32,132.339,72.619z"/>
	</g>
</g>
</svg>
