<?xml version="1.0" encoding="utf-8"?>
<!-- Generator: Adobe Illustrator 19.2.0, SVG Export Plug-In . SVG Version: 6.00 Build 0)  -->
<svg version="1.1" id="Calque_1" xmlns="http://www.w3.org/2000/svg" xmlns:xlink="http://www.w3.org/1999/xlink" x="0px" y="0px"
	 viewBox="0 0 100 100" style="enable-background:new 0 0 100 100;" xml:space="preserve">
<g>
	<g>
		<path d="M49.9,22.7c-27.7,0-50,12.3-50,27.3c0,14.9,22.1,27.3,50,27.3c27.8,0,50-12.3,50-27.3C99.9,35.1,77.6,22.7,49.9,22.7z
			 M49.9,75.9C24.4,75.9,2.5,64.1,2.5,50s22.3-26.1,47.3-26.1C75.2,23.9,97.1,36,97.1,50S75.2,75.9,49.9,75.9z"/>
		<path d="M87.6,46.6c-1.5,0.3-3,0.8-4.4,1.2c-0.9,0.3-1.9,0.5-2.9,0.7h-0.4l0.2-0.3c0.1-0.1,0.3-0.3,0.4-0.4
			c1.5-1.4,3.1-2.7,4.7-4.1c0.5-0.6,1.5-1,1.2-2c-0.3-0.2-1.2,0.2-1.6,0.4c-3,1.5-5.7,3.3-8.2,5.7c-0.1,0.1-0.1,0.1-0.2,0.2
			c-1.4,1.1-1.7,3.6-3.8,3.4c-1.4-0.1-1.6-0.1-2.1-0.3c2.2-1.7,6.4-7.3,6.8-8.6c0,0,0.4-1.2-0.1-1.2c-2,0.7-3.9,2.4-5.4,3.8
			c0.1-0.7,1.2-2,0.7-2.7c-3.5,0.7-8.3,5.4-8.4,5.4c-0.9,0.6-1.3,2.6-2.7,2.3c-0.9-0.1-2-0.1-2.5-0.4c0.9-0.6,1.8-1.2,2.7-1.8
			c2-1.5,3.9-3.3,5.7-5c0.1-0.2,0.7-0.5,0.4-0.9c-0.6-0.5-1.3,0.2-2,0.3c-3,1.3-5,3.1-7,5.5c-0.4,0.5-0.9,1-1.3,1.6
			c-1.4-0.2-2.2-0.1-2.9-0.5c0.4-0.3,0.9-0.7,1.3-1c2.3-1.8,4.7-3.6,6.4-6.3c-0.2-0.9-1.1-0.2-1.5,0c-3.1,1.6-5.7,3.5-7.7,6.5
			c-0.1,0.2-0.2,0.4-0.4,0.6c-1.4,0-2.6-0.3-3.8-0.6h-0.1V48c3-1.5,5.7-4.2,7.8-7.3c0,0,1.7-3-2.1-0.5c-2.8,1.8-5.4,4.2-7.2,7.6
			c0,0-1.9,0.1-1.9-0.1c1.8-2.2,4-5.1,5-8.1c0.1-0.5,0.4-1.4-0.3-1.5c-2.5,1.1-4.2,4.1-5.6,6.9c-0.4,0.8-0.6,1.9-1,2.6
			c-1.7-0.1-2.9,0.1-4.5-0.4c2.1-1.8,4.3-3.3,6.2-5.4c0.3-0.6,2.4-2,2.4-3.9c-0.7-0.4-1.3,0.1-1.7,0.4L40,42.9h-0.3
			c0.9-1.6,2.9-4,3.7-5.7c0.3-0.6,0.6-1.1,0.6-1.8l-0.5-0.2c-4.2,1.8-7.7,5.9-9.1,11.1c-0.3,0.5-0.5,1.4-1.2,1.1
			c-0.1-1.4-0.5-2.8-1-4c-1.8-3.7-4.3-6.4-7.6-8.4c-0.5-0.3-0.8,0.3-0.7,0.7c0.5,2.6,2.1,4.3,3.2,6.3c1.3,2.1,3.1,3.9,4.6,5.8
			c-0.5,0.2-12.3,3-14.4,4.7c-1.1,0.6-2.9,2-2.8,5.1c0.1,0.9,0.7,1.8,1.5,2.1c0.8,0.1,1.3,0.2,1.8-0.2c2.2-2.8,4.7-5.3,7.5-7
			c1.9-1,3.4-2,5.6-2.3c0.9,0.9,1.5,2,2.8,3c2.5,2.2,4.6,3.8,8,4.3l0.3-0.1l-0.1-0.3c-1.8-2.6-4.5-4.3-7.3-5.6
			c-0.5-0.4-1.6-1-1.7-1.7c1.7-0.6,4-0.7,6.1-0.2c2.5,4.3,5.2,9,9.2,11.8c0.3,0.1,0.5-0.3,0.4-0.6c-2.8-6.7-4.5-7.3-7.3-10.4
			c-0.2-0.2-0.4-0.8,0-0.9h2.6c0.9,0.1,2-0.1,2.2,0.2c0.1,4.4,3,7.8,4.7,11.2c0,0,0.6,0.3,0.5-0.3l0,0c-0.7-7.8-3.6-9.6-4.1-11
			c0.5,0,0.9,0,1.3,0.2c1.9,3.8,4.4,6.6,7.7,8.8c0.1,0,0.5,0.1,0.2-0.5c-1-3.2-4-4.9-5.9-7.4l-0.3-0.6l0.4-0.1
			c0.8,0.2,2,0.4,2.6,0.8c1.1,2.1,2.6,3.8,4.2,5.3c1.3,1.2,2.4,2.6,4.4,3H62l0.1-0.2L62,58.6c-1.2-3.2-4.5-4.6-6.9-6.8
			c-0.2-0.1-0.5-0.7,0-0.8l3.8,0.5c5.7,7.6,7.9,7.3,7.9,7.3s1.7,0.4,0.9-0.9c-1.8-1.9-3.5-2.8-5.7-4.6c-0.4-0.4-1.4-1-1.3-1.7
			c0.8,0.1,0.9,0.1,2.6,0.3c0.5,0.1,1.2,0.2,1.6,0.3c3,1.3,3.2,5.5,10.4,6.3c0.3,0,0.3-0.3,0.1-0.5c-2.1-1.6-7.4-5.2-7.7-5.6
			c0.7,0.1,3.6,0.5,4,0.7c3.6,2,5.8,3.4,11,2.7c0.4-0.7-0.3-0.9-0.9-1.2l-2.9-1.1c-0.4-0.1-2-0.4-2.6-0.6c3.1-1,7.2-2.1,9.9-3.8
			c0.4-0.3,0.9-0.6,1.4-1c0.3-0.3,0.5-0.6,0.7-1C88.4,46.4,87.6,46.6,87.6,46.6z M35.6,47.1c-0.3-0.2-0.1-0.6,0-0.8
			c0.1-0.1,1.2-2.1,2.2-1.6C38,45.3,36.3,47.3,35.6,47.1z M69.7,47.9c-0.5,0.9-0.2,2.2-0.9,3L64,50.2c2.8-1,5.1-2.9,6.4-3.7
			L69.7,47.9z M74.9,51.6c0-0.5,0.6-1,0.9-1.3c1.6-1.3,1.9,0,1.9,0C77,50.8,75.9,51.5,74.9,51.6z"/>
	</g>
</g>
</svg>
