<?xml version="1.0" encoding="utf-8"?>
<!-- Generator: Adobe Illustrator 20.1.0, SVG Export Plug-In . SVG Version: 6.00 Build 0)  -->
<svg version="1.1" id="Calque_1" xmlns="http://www.w3.org/2000/svg" xmlns:xlink="http://www.w3.org/1999/xlink" x="0px" y="0px"
	 viewBox="0 0 100 100" style="enable-background:new 0 0 100 100;" xml:space="preserve">
<g>
	<path d="M91,46.8C86,38.3,73.2,38,72.7,38H0.1v1h72.7c0.1,0,8.7,0.2,14.4,4.8c-3.1-0.4-9.5-1-11.7,0.9c-0.5,0.4-0.8,1-0.8,1.7
		c0,0.6,0.3,1.1,0.7,1.5c1,0.8,2.9,1.1,5.2,1.1c4.1,0,9-0.9,10.2-1.2c1.1,0.3,8.2,2.7,8.2,6.7c0,4.5-9.7,9.6-25.9,10.3
		c-3.2,0.1-6.1,0.3-9,0.5C50.9,66.2,37.3,67,0.2,62.8l-0.1,1C21.9,66.3,35.7,67,46,67c7.2,0,12.8-0.4,18.2-0.7
		c2.9-0.2,5.9-0.4,9-0.5c17.5-0.8,26.7-6.3,26.7-11.4C99.9,49.8,92.4,47.2,91,46.8z M76,47.1c-0.3-0.2-0.4-0.4-0.4-0.7
		c0-0.4,0.1-0.6,0.4-0.9c2-1.7,9.4-0.9,12.3-0.4c0.6,0.6,1.1,1.2,1.5,1.9C86.1,47.6,78,48.7,76,47.1z"/>
	<path d="M42.1,47.1c-0.3-0.9-1-1.7-1.9-2.1c-1.8-0.9-3.8-0.3-4.8,1.3c-3.2-1.5-5.3-2.3-5.3-2.4H11.7c-0.9,0-1.9,1.8-2.7,4.2
		c-0.1-2-1.7-3.5-3.7-3.5s-3.7,1.7-3.7,3.7S3.3,52,5.3,52c1.2,0,2.2-0.6,2.9-1.4c-0.8,2.8-1.5,5.9-1.9,7.8l1,0.2
		c1.5-7.2,3.5-13.5,4.4-13.7h18.1c1.3,0.5,16.8,7,27.4,14.9l0.6-0.8C53,55.4,47.1,52.1,42,49.5C42.3,48.8,42.4,47.9,42.1,47.1z
		 M5.4,51c-1.5,0-2.7-1.2-2.7-2.7s1.2-2.7,2.7-2.7s2.7,1.2,2.7,2.7S6.8,51,5.4,51z M36.4,46.8c0.3-0.5,0.8-0.9,1.4-1
		c0.7-0.2,1.4-0.2,2.1,0.2c0.6,0.3,1.1,0.9,1.3,1.6c0.2,0.5,0.2,1.1,0,1.6C39.4,48.2,37.8,47.4,36.4,46.8z"/>
	<path d="M53.4,48.3c0-2-1.7-3.7-3.7-3.7S46,46.3,46,48.3s1.7,3.7,3.7,3.7C51.8,52,53.4,50.4,53.4,48.3z M47,48.3
		c0-1.5,1.2-2.7,2.7-2.7s2.7,1.2,2.7,2.7S51.2,51,49.7,51S47,49.8,47,48.3z"/>
	<path d="M63.3,48.3c0-2-1.7-3.7-3.7-3.7s-3.7,1.7-3.7,3.7s1.7,3.7,3.7,3.7C61.7,52,63.3,50.4,63.3,48.3z M56.9,48.3
		c0-1.5,1.2-2.7,2.7-2.7s2.7,1.2,2.7,2.7S61.1,51,59.6,51S56.9,49.8,56.9,48.3z"/>
</g>
</svg>
