<?xml version="1.0" encoding="utf-8"?>
<!-- Generator: Adobe Illustrator 19.2.0, SVG Export Plug-In . SVG Version: 6.00 Build 0)  -->
<svg version="1.1" id="Calque_1" xmlns="http://www.w3.org/2000/svg" xmlns:xlink="http://www.w3.org/1999/xlink" x="0px" y="0px"
	 viewBox="0 0 100 100" style="enable-background:new 0 0 100 100;" xml:space="preserve">
<path d="M96.7,25h-10v10c0,1.8-1.5,3.3-3.3,3.3s-3.3-1.5-3.3-3.3V25H70c-1.8,0-3.3-1.5-3.3-3.3s1.5-3.3,3.3-3.3h10v-10
	C80,6.5,81.5,5,83.3,5s3.3,1.5,3.3,3.3v10h10c1.8,0,3.3,1.5,3.3,3.3C100,23.5,98.5,25,96.7,25z M58.5,61.6l-10.7-8.7
	C46.4,52.3,45,51.2,45,50v-0.3c0-0.4,0-0.9,0.1-1.3l1.5-20c0-1.8,1.5-3.3,3.3-3.3s3.3,1.5,3.3,3.3l1.4,18.1l8.5,10.4
	c1.3,1.3,1.3,3.4,0,4.7C61.9,62.9,59.8,62.9,58.5,61.6z M61.4,8.2L61.4,8.2C57.8,7.2,54,6.7,50,6.7C26.1,6.7,6.7,26.1,6.7,50
	S26.1,93.3,50,93.3S93.3,73.9,93.3,50c0-2.2-0.2-4.4-0.5-6.5h0.1c-0.1-0.3-0.1-0.5-0.1-0.8c0-1.8,1.4-3.4,3.3-3.4
	c1.8,0,3.4,1.4,3.4,3.3v0.1c0.4,2.4,0.6,4.8,0.6,7.3c0,27.6-22.4,50-50,50S0,77.6,0,50S22.4,0,50,0c4.3,0,8.4,0.6,12.4,1.6
	c0.3,0,0.7,0.1,1,0.2c1.7,0.7,2.5,2.7,1.8,4.4C64.5,7.7,63,8.5,61.4,8.2z"/>
</svg>
