<?xml version="1.0" encoding="utf-8"?>
<!-- Generator: Adobe Illustrator 19.2.0, SVG Export Plug-In . SVG Version: 6.00 Build 0)  -->
<svg version="1.1" id="Calque_1" xmlns="http://www.w3.org/2000/svg" xmlns:xlink="http://www.w3.org/1999/xlink" x="0px" y="0px"
	 viewBox="0 0 100 100" style="enable-background:new 0 0 100 100;" xml:space="preserve">
<g>
	<path d="M1.7,2.4c0,0,91.1-4.5,98.3,91.6H81.6c0,0,3.6-70-79.9-76.3L1.7,2.4L1.7,2.4z"/>
	<path d="M1.7,34.3c0,0,53.4-1.8,63.8,59.7H47c0,0-2.2-36.4-45.4-44.5L1.7,34.3L1.7,34.3z"/>
	<path d="M11.7,74.3c6.4,0,11.7,5.2,11.7,11.7c0,6.4-5.2,11.7-11.7,11.7S0,92.4,0,86C0,79.5,5.2,74.3,11.7,74.3z"/>
</g>
</svg>
