<?xml version="1.0" encoding="utf-8"?>
<!-- Generator: Adobe Illustrator 20.1.0, SVG Export Plug-In . SVG Version: 6.00 Build 0)  -->
<svg version="1.1" id="Calque_1" xmlns="http://www.w3.org/2000/svg" xmlns:xlink="http://www.w3.org/1999/xlink" x="0px" y="0px"
	 viewBox="0 0 100 100" style="enable-background:new 0 0 100 100;" xml:space="preserve">
<style type="text/css">
	.st0{fill:#8C3131;}
	.st1{fill:#FFFFFF;}
	.st2{fill:none;}
</style>
<g>
	<g>
		<path class="st0" d="M99.5,60.4L63.2,7.6c-0.5-0.8-1.4-1.2-2.3-1.2c-0.9,0-1.8,0.4-2.3,1.2L13.3,68.7l-0.6-0.8
			c-0.9-1.3-2.7-1.6-4-0.7l-7.6,5.2c-0.6,0.4-1,1.1-1.2,1.8c-0.1,0.7,0,1.5,0.5,2.1l12.4,18c0.4,0.6,1.1,1,1.8,1.2
			c0.2,0,0.3,0,0.5,0c0.6,0,1.1-0.2,1.6-0.5l7.6-5.2c1.3-0.9,1.6-2.7,0.7-4l-0.6-0.8l14.3-4l1.7,6c0.4,1.2,1.5,2.1,2.7,2.1
			c0.3,0,0.5,0,0.8-0.1l17.1-4.9c1.5-0.4,2.4-2,1.9-3.5l-1.7-5.9l36.3-10.1c0.9-0.2,1.6-0.9,1.9-1.8C100.1,62.1,100,61.1,99.5,60.4
			 M45.4,82.9l-0.9-3.3l11.7-3.2l0.9,3.2L45.4,82.9z"/>
	</g>
	<g>
		<path class="st1" d="M58.9,24.7c-1.1-0.8-2.6-0.6-3.4,0.4L22.6,68c-0.8,1.1-0.6,2.6,0.4,3.4c0.4,0.3,1,0.5,1.5,0.5
			c0.7,0,1.4-0.3,1.9-0.9l33-42.8C60.2,27.1,60,25.6,58.9,24.7"/>
	</g>
	<line class="st2" x1="5.5" y1="74.4" x2="5.4" y2="74.4"/>
	<path class="st1" d="M8.3,78.7c0,0-1.1-1.4-0.9-1.9c0.2-0.5,3-2.3,3.6-2.4c0.6-0.1,1.4,1.2,1.4,1.2l4.9,7.5c0,0,0.8,1,0.6,1.4
		C17.6,85,15,87,14.4,87c-0.5,0.1-1.3-1.3-1.3-1.3L8.3,78.7z"/>
</g>
</svg>
