<?xml version="1.0" encoding="utf-8"?>
<!-- Generator: Adobe Illustrator 19.2.0, SVG Export Plug-In . SVG Version: 6.00 Build 0)  -->
<svg version="1.1" id="Calque_1" xmlns="http://www.w3.org/2000/svg" xmlns:xlink="http://www.w3.org/1999/xlink" x="0px" y="0px"
	 viewBox="0 0 100 100" style="enable-background:new 0 0 100 100;" xml:space="preserve">
<path d="M97.1,100H2.9c-1.2,0-2.7,0-2.7-2.5c0.3-8.9,1.8-16.9,15.5-16.9c18.6,0,24-6.9,24.2-11.2C34.9,64.2,29.4,58,26.9,50.7
	c-0.3-0.7-0.7-1.2-1.3-1.4c-3.8-1.9-5.4-12.7-4.1-17.1c0.1-0.3,0.1-0.8,0.1-1c-0.2-1.2-0.2-2.3-0.2-3.6c0-6.4,2.2-12.5,6.1-17.2
	c2.5-3.1,5.8-5.7,9.6-7.5c2.7-1.5,5.8-2.4,9.2-2.8C47.4,0,48.6,0,49.6,0H50c1.1,0,2.2,0,3.4,0.2c3.4,0.6,6.4,1.5,9.1,2.7
	c3.7,1.9,7.1,4.5,9.6,7.5c4,4.9,6.1,10.9,6.1,17.1c0,1.3,0,2.6-0.2,3.7c0,0.1,0,0.5,0.1,0.7l0.1,0.2c1.1,4.2-0.2,15.1-4,17.1
	c-0.6,0.3-1,0.7-1.4,1.5c-2.7,7.8-8.7,14.3-13.1,18.6c0.3,4.3,5.6,11.2,24.2,11.2c13.5,0,15.1,7.3,15.9,16.9
	C99.5,99.8,98.6,100,97.1,100z M49.6,1.8c-1.1,0-2.1,0-3.1,0.2c-3.2,0.4-6.1,1.2-8.6,2.6c-3.5,1.8-6.6,4.2-9,7.1
	c-3.7,4.4-5.7,10-5.7,16c0,1.2,0,2.3,0.2,3.4c0,0.6,0,1.2-0.3,1.8c-1.1,3.8,0.6,13.5,3.2,14.8c1,0.4,1.7,1.2,2.2,2.4
	c2.5,7.1,8,13.2,13,18.2l0.3,0.3V69c0,10.6-16.4,13.4-26,13.4c-12.2,0-13.4,6.3-13.7,15.2c0,0.5,0.1,0.7,0.1,0.7c0.1,0,0.5,0,0.8,0
	h94.1c0.3,0,0.7,0,0.8,0l0,0c0,0,0.1-0.2,0.1-0.8c-0.7-9-2.1-15.1-14.1-15.1c-20.5,0-26-8.4-26-13.4v-0.4l0.3-0.3
	c4.3-4.1,10.4-10.5,13-18.2c0.5-1.3,1.3-2.1,2.3-2.5c2.5-1.2,4.1-10.7,3.1-14.9c-0.2-0.5-0.2-1.1-0.2-1.5c0.2-1.1,0.2-2.4,0.2-3.6
	c0-5.9-2-11.4-5.7-16c-2.4-2.9-5.5-5.3-9-7.1c-2.5-1.2-5.5-2.1-8.7-2.6c-1-0.2-2-0.2-3.1-0.2H49.6z"/>
</svg>
