<?xml version="1.0" encoding="utf-8"?>
<!-- Generator: Adobe Illustrator 16.0.0, SVG Export Plug-In . SVG Version: 6.00 Build 0)  -->
<!DOCTYPE svg PUBLIC "-//W3C//DTD SVG 1.1//EN" "http://www.w3.org/Graphics/SVG/1.1/DTD/svg11.dtd">
<svg version="1.1" id="Calque_1" xmlns="http://www.w3.org/2000/svg" xmlns:xlink="http://www.w3.org/1999/xlink" x="0px" y="0px"
	 width="110px" height="110px" viewBox="0 0 110 110" enable-background="new 0 0 110 110" xml:space="preserve">
<path fill="#FFFFFF" d="M83.05,8.8v93.06c0,4.511-3.63,8.141-8.14,8.141H35.64c-4.51,0-8.14-3.63-8.14-8.141V36.19h-0.11
	c-0.22,0-0.33-0.11-0.33-0.33v-3.3c0-0.22,0.11-0.33,0.33-0.33h0.11v-5.72h-0.11c-0.22,0-0.33-0.11-0.33-0.33v-3.3
	c0-0.22,0.11-0.33,0.33-0.33h0.11V17.6h-0.44c-0.11,0-0.11-0.11-0.11-0.11v-4.73c0-0.11,0.11-0.11,0.11-0.11h0.44V8.8
	c0-4.51,3.63-8.14,8.14-8.14h29.15V0.11c0,0,0-0.11,0.11-0.11h8.58c0.109,0,0.22,0.11,0.22,0.11v0.44h1.21
	C79.42,0.55,83.05,4.29,83.05,8.8z M55.33,94.93c-2.97,0-5.39,2.42-5.39,5.391c0,2.97,2.42,5.39,5.39,5.39
	c2.97,0,5.391-2.42,5.391-5.39C60.721,97.35,58.3,94.93,55.33,94.93z M51.7,11h7.92c0.771,0,1.319-0.33,1.319-1.1
	s-0.549-1.1-1.319-1.1H51.7c-0.77,0-1.32,0.33-1.32,1.1S50.93,11,51.7,11z M45.87,11.22c0.77,0,1.32-0.55,1.32-1.32
	s-0.55-1.32-1.32-1.32s-1.32,0.55-1.32,1.32S45.21,11.22,45.87,11.22z M31.68,18.7v72.6h47.3V18.7H31.68z M62.37,55.99
	c-0.22,3.63-3.521,6.38-7.26,6.38c-4.07,0-7.48-3.3-7.48-7.48c0-4.07,3.3-7.48,7.48-7.48c2.09,0,4.07,0.88,5.39,2.31l1.21-1.21
	l0.22,4.4l-4.4-0.22l1.211-1.21c-0.881-0.88-2.09-1.54-3.41-1.54c-2.53,0-4.62,2.09-4.62,4.73c0,2.53,2.09,4.73,4.62,4.73
	c2.199,0,4.07-1.541,4.62-3.631h2.42V55.99z"/>
</svg>
