<?xml version="1.0" encoding="UTF-8" standalone="no"?>
<!-- Generator: Adobe Illustrator 15.1.0, SVG Export Plug-In . SVG Version: 6.00 Build 0)  -->

<svg
   xmlns:dc="http://purl.org/dc/elements/1.1/"
   xmlns:cc="http://creativecommons.org/ns#"
   xmlns:rdf="http://www.w3.org/1999/02/22-rdf-syntax-ns#"
   xmlns:svg="http://www.w3.org/2000/svg"
   xmlns="http://www.w3.org/2000/svg"
   xmlns:sodipodi="http://sodipodi.sourceforge.net/DTD/sodipodi-0.dtd"
   xmlns:inkscape="http://www.inkscape.org/namespaces/inkscape"
   version="1.1"
   id="Calque_1"
   x="0px"
   y="0px"
   width="85.635px"
   height="60px"
   viewBox="0 0 85.635 60"
   enable-background="new 0 0 85.635 60"
   xml:space="preserve"
   inkscape:version="0.48.4 r9939"
   sodipodi:docname="dailymotion.svgz"><metadata
   id="metadata27"><rdf:RDF><cc:Work
       rdf:about=""><dc:format>image/svg+xml</dc:format><dc:type
         rdf:resource="http://purl.org/dc/dcmitype/StillImage" /><dc:title></dc:title></cc:Work></rdf:RDF></metadata><defs
   id="defs25" /><sodipodi:namedview
   pagecolor="#ffffff"
   bordercolor="#666666"
   borderopacity="1"
   objecttolerance="10"
   gridtolerance="10"
   guidetolerance="10"
   inkscape:pageopacity="0"
   inkscape:pageshadow="2"
   inkscape:window-width="640"
   inkscape:window-height="480"
   id="namedview23"
   showgrid="false"
   inkscape:zoom="3.9333333"
   inkscape:cx="42.817501"
   inkscape:cy="30"
   inkscape:window-x="0"
   inkscape:window-y="0"
   inkscape:window-maximized="0"
   inkscape:current-layer="Calque_1" />
<g
   id="g3">
  <g
   id="g5">
    <rect
   x="7731"
   y="25"
   fill="#C8A461"
   width="55"
   height="5"
   id="rect7" />
  </g>
  <g
   id="g9">
    <rect
   x="7731"
   y="39"
   fill="#C8A461"
   width="55"
   height="5"
   id="rect11" />
  </g>
  <g
   id="g13">
    <rect
   x="7731"
   y="53"
   fill="#C8A461"
   width="55"
   height="5"
   id="rect15" />
  </g>
  <g
   id="g17">
    <rect
   x="7731"
   y="67"
   fill="#C8A461"
   width="27"
   height="5"
   id="rect19" />
  </g>
</g>
<path
   d="M65.783,0.242L53.14,2.862v18.726c-2.881-3.681-6.883-5.442-12.084-5.442c-5.441,0-10.323,2-14.324,5.922  c-4.481,4.321-6.882,9.844-6.882,16.006c0,6.722,2.56,12.484,7.522,16.885C31.133,58.319,35.614,60,40.815,60  c5.122,0,8.962-1.361,12.724-5.042v4.801h12.244V0.242z M43.617,48.556c-6.483,0-11.124-4.561-11.124-10.563  c0-5.762,4.641-10.644,10.643-10.644c5.922,0,10.483,4.643,10.483,10.804C53.619,44.074,49.058,48.556,43.617,48.556"
   id="path21" fill="#999" />
</svg>