<?xml version="1.0" encoding="utf-8"?>
<!-- Generator: Adobe Illustrator 19.1.0, SVG Export Plug-In . SVG Version: 6.00 Build 0)  -->
<svg version="1.1" id="Calque_1" xmlns="http://www.w3.org/2000/svg" xmlns:xlink="http://www.w3.org/1999/xlink" x="0px" y="0px"
	 viewBox="0 0 23.9 15.6" style="enable-background:new 0 0 23.9 15.6;" xml:space="preserve">
<style type="text/css">
	.st0{fill:#C9A562;}
</style>
<g>
	<circle class="st0" cx="4.6" cy="2.1" r="2.1"/>
	<circle class="st0" cx="12" cy="2.1" r="2.1"/>
	<path class="st0" d="M23,8.5C23,8.5,23,8.5,23,8.5L23,8.5c-0.3-0.4-0.6-0.8-0.9-1.1l-1.9-2.2c-0.4-0.5-1.1-0.5-1.6,0l-2.8,3.2
		c-0.1,0.1-0.1,0.2-0.1,0.2l0,0c0-0.1-0.1-0.2-0.1-0.3l-2.8-3.2C12.5,5.1,12.2,5,12,5c-0.3,0-0.5,0.1-0.7,0.4L8.4,8.5
		C8.4,8.6,8.3,8.7,8.3,8.7l0,0c0-0.1-0.1-0.2-0.1-0.2L5.3,5.3c-0.4-0.5-1.1-0.5-1.6,0L1.8,7.5C1.5,7.7,1.2,8.1,1,8.5l0,0
		c0,0,0,0,0,0C0.4,9.4,0,10.5,0,11.3v0.9c0,1.8,1.5,3.4,3.4,3.4H12h8.6c1.8,0,3.4-1.5,3.4-3.4v-0.9C23.9,10.5,23.6,9.4,23,8.5z"/>
	<circle class="st0" cx="19.3" cy="2.1" r="2.1"/>
</g>
</svg>
