<?xml version="1.0" encoding="utf-8"?>
<!-- Generator: Adobe Illustrator 16.0.0, SVG Export Plug-In . SVG Version: 6.00 Build 0)  -->
<!DOCTYPE svg PUBLIC "-//W3C//DTD SVG 1.1//EN" "http://www.w3.org/Graphics/SVG/1.1/DTD/svg11.dtd">
<svg version="1.1" id="Calque_1" xmlns="http://www.w3.org/2000/svg" xmlns:xlink="http://www.w3.org/1999/xlink" x="0px" y="0px"
	 width="82px" height="48.9px" viewBox="0 0 82 48.9" enable-background="new 0 0 82 48.9" xml:space="preserve">
<g id="g10" transform="matrix(1.25,0,0,-1.25,-222.04703,565.00236)">
	<g id="g12" transform="scale(0.24,0.24)">
		<path id="path22" fill="#FFFFFF" d="M920.02,1844.909c-0.101-0.034-11.257-4.502-22.253-11.927
			c-5.192-3.49-9.538-7.095-12.988-10.728c-1.178,0.145-2.337,0.427-3.464,0.793c2.165,1.185,3.724,2.515,4.668,3.338
			c2.839,2.459,4.479,5.788,4.479,8.734c0,2.702-0.745,4.79-2.314,6.445c-3.109,3.311-8.219,3.107-8.724,3.089
			c-0.501,0.018-5.614,0.221-8.732-3.089c-1.564-1.655-2.293-3.744-2.293-6.445c0-2.946,1.629-6.274,4.466-8.734
			c0.946-0.823,2.495-2.153,4.658-3.333c-1.117-0.371-2.274-0.653-3.46-0.798c-3.441,3.633-7.798,7.238-12.979,10.728
			c-11.008,7.419-22.16,11.893-22.256,11.927l-1.035,0.415l0.145-1.19c0.01-0.172,0.524-4.292,3.426-9.087
			c2.676-4.414,7.959-10.246,17.988-12.969c5.716-1.556,10.444-1.812,14.268-1.39c0.664-0.721,1.278-1.44,1.872-2.166
			c1.227-1.505,2.314-3.029,3.21-4.535c-2.013-3.87-2.829-7.729-2.848-11.662c0.01-0.177,0.12-4.085,1.488-5.703
			c0.697-0.853,1.24-1.087,2.083-1.087c0.846,0,1.37,0.234,2.074,1.087c1.377,1.621,1.497,5.526,1.497,5.703
			c-0.029,3.932-0.853,7.791-2.855,11.662c0.915,1.506,1.969,3.029,3.21,4.535c0.592,0.726,1.217,1.436,1.881,2.166
			c3.822-0.422,8.542-0.166,14.255,1.39c10.033,2.723,15.322,8.555,17.988,12.969c2.91,4.788,3.411,8.914,3.431,9.087l0.143,1.19
			L920.02,1844.909L920.02,1844.909z M859.675,1823.501c-9.618,2.614-14.653,8.167-17.204,12.349
			c-1.802,2.99-2.616,5.714-2.983,7.209c3.089-1.317,12.043-5.353,20.902-11.339c4.694-3.146,8.674-6.38,11.893-9.631
			C868.409,1821.834,864.117,1822.288,859.675,1823.501 M873.61,1827.449c-2.506,2.188-3.955,5.199-3.955,7.669
			c0,2.259,0.594,4.108,1.882,5.47c2.777,2.946,7.819,2.669,7.858,2.669l0.029,0.498l0.02-0.498c0.052,0,5.091,0.277,7.848-2.669
			c1.289-1.362,1.882-3.211,1.882-5.47c0-2.471-1.429-5.482-3.942-7.664c-1.621-1.395-3.613-2.708-5.807-3.672
			C877.221,1824.746,875.24,1826.059,873.61,1827.449 M882.321,1802.088c0-0.062-0.039-6.221-2.897-6.221
			c-2.866,0-2.907,6.159-2.907,6.221c0.031,3.493,0.996,7.059,2.907,10.609C881.316,1809.147,882.302,1805.581,882.321,1802.088
			 M882.374,1819.513c-1.159-1.418-2.132-2.812-2.949-4.207c-0.824,1.395-1.8,2.796-2.948,4.207
			c-0.382,0.465-0.784,0.931-1.196,1.408c1.519,0.265,2.907,0.685,4.144,1.206c1.227-0.521,2.627-0.941,4.137-1.206
			C883.158,1820.444,882.745,1819.979,882.374,1819.513 M916.381,1835.849c-2.559-4.181-7.588-9.735-17.217-12.349
			c-4.437-1.213-8.73-1.667-12.604-1.413c3.229,3.25,7.204,6.484,11.891,9.631c8.854,5.98,17.829,10.023,20.905,11.339
			C919.004,1841.564,918.171,1838.839,916.381,1835.849"/>
		<path id="path24" fill="#FFFFFF" d="M874.203,1835.993c0-1.007,0.483-0.166,1.65-0.166c1.237,0,1.66-0.841,1.67,0.166
			c-0.01,1.007-0.744,1.828-1.67,1.828C874.939,1837.82,874.203,1837,874.203,1835.993"/>
		<path id="path26" fill="#FFFFFF" d="M882.836,1835.827c1.217,0,1.66-0.841,1.66,0.166s-0.736,1.828-1.66,1.828
			s-1.66-0.82-1.66-1.828S881.657,1835.827,882.836,1835.827"/>
		<path id="path28" fill="#FFFFFF" d="M882.898,1841.082c-2.656,0.099-3.551-1.357-3.551-1.357v-1.107l0.01,0.011v-0.371
			c0.02,0.039,1.146,1.45,3.177,1.45c2.425,0,3.512-1.782,3.512-4.004c0-2.974-2.386-6.8-6.699-8.46
			c-4.308,1.672-6.703,5.487-6.703,8.46c0,2.227,1.087,4.004,3.532,4.004c2.021,0,3.138-1.418,3.171-1.45v0.365v1.102
			c0,0-0.876,1.457-3.543,1.357c-2.897-0.099-4.372-2.824-4.372-5.316c0-3.573,3.135-8.119,7.915-9.585
			c4.769,1.466,7.907,6.012,7.907,9.585C887.253,1838.258,885.785,1840.983,882.898,1841.082"/>
		<path id="path30" fill="#FFFFFF" d="M878.448,1833.59c0-0.82,0.544-2.305,0.898-2.305l0,0c0.361,0,0.895,1.484,0.895,2.305
			c0,0.807-0.404,1.086-0.895,1.086l0,0C878.861,1834.676,878.448,1834.398,878.448,1833.59"/>
		<path id="path32" fill="#FFFFFF" d="M768.259,1751.841c-2.848,0-4.523,0.97-6.714,4.297l-3.574,5.4
			c-1.782,2.708-3.529,3.857-7.394,3.864l-7.754-0.006v-13.555h-3.024v30.234h3.024v-13.594h5.571c3.654,0,5.397,1.501,7.534,4.573
			l6.243,9.02h3.773l-6.66-9.622c-1.668-2.438-2.795-3.76-4.704-4.847v-0.046c2.92-0.635,4.38-1.969,6.13-4.567l3.284-4.844
			c1.52-2.259,2.619-3.206,4.266-3.206h0.894l-0.28-3.102H768.259L768.259,1751.841L768.259,1751.841z M791.381,1751.841
			l0.011,30.234h23.854l0.327-3.079H794.4v-10.381h20.007v-3.346H794.4v-10.088h22.668l-0.563-3.34H791.381L791.381,1751.841z
			 M870.25,1751.841c-2.808,0-4.478,0.97-6.675,4.297l-1.842,2.884c-1.82,2.809-3.566,3.971-7.358,3.971h-9.352l-0.005-11.152
			h-3.039v30.234h13.844c6.891,0,10.705-3.955,10.705-9.369c0.01-4.408-2.687-7.145-6.117-8.307v-0.042
			c1.598-0.684,2.731-1.995,3.944-3.805l1.644-2.402c1.525-2.295,2.616-3.206,4.282-3.206h0.934l-0.347-3.102H870.25
			L870.25,1751.841z M855.822,1778.996h-10.801v-12.881h10.806c4.341,0,7.43,2.21,7.43,6.465
			C863.257,1776.75,860.088,1778.996,855.822,1778.996 M893.793,1782.075h3.018v-30.234l-3.018,0.006V1782.075L893.793,1782.075z
			 M951.521,1751.841l-25.394,25.557h-0.068v-25.557h-3.031v30.234h2.809l25.394-25.576h0.081v25.576h3.018v-30.234H951.521z
			 M996.403,1750.972c-13.21,0-19.225,7.493-19.225,16.081c0,8.688,6.165,15.915,18.662,15.915c4.518,0,8.965-0.957,12.969-2.803
			v-3.46c-3.893,1.966-8.392,3.177-13.018,3.174c-10.345,0-15.335-5.853-15.322-12.913c-0.013-7.217,5.299-12.907,15.934-12.907
			c4.268,0,8.21,1.038,10.697,2.285v7.52h-11.41l0.371,3.102h14.085l0.01-12.669
			C1006.625,1752.332,1001.817,1750.972,996.403,1750.972"/>
	</g>
</g>
</svg>
