<?xml version="1.0" encoding="utf-8"?>
<!-- Generator: Adobe Illustrator 16.0.0, SVG Export Plug-In . SVG Version: 6.00 Build 0)  -->
<!DOCTYPE svg PUBLIC "-//W3C//DTD SVG 1.1//EN" "http://www.w3.org/Graphics/SVG/1.1/DTD/svg11.dtd">
<svg version="1.1" id="Calque_1" xmlns="http://www.w3.org/2000/svg" xmlns:xlink="http://www.w3.org/1999/xlink" x="0px" y="0px"
	 width="84px" height="48.9px" viewBox="0 0 84 48.9" enable-background="new 0 0 84 48.9" xml:space="preserve">
<g id="g8">
	<path id="path12" fill="#FFFFFF" d="M16.923,13.674h-1.011c-3.859-0.027-13.47,0.772-13.47,6.416c0,2.848,2.955,4.046,5.43,4.046
		c0.346,0,0.719-0.026,1.092-0.054c1.837-2.369,4.019-4.471,6.522-6.148c2.423-1.651,6.416-3.887,9.45-3.887
		c0.746,0,1.677,0.533,1.677,1.358c0,2.741-5.83,6.335-8.172,7.32c-2.316,0.985-4.899,1.65-7.401,1.97
		c-1.411,1.996-3.167,4.445-3.167,6.975c0,0.877,0.719,1.357,1.543,1.357c3.381,0,8.466-3.061,8.466-6.842
		c0-0.691-0.532-1.064-1.171-1.064c-2.502,0-5.245,2.396-6.389,4.498l-0.16-0.025c0.718-2.637,4.019-5.164,6.708-5.164
		c1.145,0,2.077,0.852,2.077,2.022c0,0.959-0.373,1.81-0.772,2.636c1.012-0.506,2.023-1.039,3.008-1.598l3.487-4.18l2.157-2.582
		c1.065-1.251,3.647-4.367,5.458-4.367c0.399,0,0.639,0.347,0.639,0.719c0,3.674-6.283,7.8-9.238,9.344l-0.372,0.479
		c1.091-0.479,2.183-1.064,3.38-1.064c0.586,0,1.198,0.398,1.198,1.038c0,0.373-0.134,0.746-0.346,1.039l-3.301,4.685
		c-0.053,0.08-0.133,0.186-0.133,0.291c0,0.055,0.08,0.135,0.16,0.135c1.011,0,3.088-1.758,3.86-2.422
		c1.225-2.211,3.833-4.766,6.522-4.766c1.012,0,1.784,0.666,1.784,1.703c0,0.719-0.266,1.357-0.585,1.971
		c2.555-1.332,5.031-3.035,6.815-5.297l1.676-2.13l1.705,0.026L42,27.33c0.879-0.611,2.024-1.304,3.141-1.304
		c0.479,0,0.959,0.452,0.959,0.931c0,0.213-0.107,0.427-0.213,0.613l-3.275,4.791c-0.053,0.053-0.08,0.133-0.08,0.186
		c0,0.133,0.107,0.215,0.214,0.215c1.25,0,2.633-1.332,3.594-2.076c1.516-2.184,3.887-4.846,6.787-4.846
		c0.931,0,1.678,0.479,2.023,1.331l0.771-1.091h1.704L53.1,32.334c-0.079,0.08-0.133,0.213-0.133,0.32
		c0,0.16,0.133,0.213,0.267,0.213c1.756,0,5.83-5.031,6.495-6.709c-0.213-0.132-0.293-0.293-0.293-0.531
		c0-0.666,0.56-1.73,1.358-1.73c0.426,0,0.586,0.505,0.586,0.851c0,0.347-0.081,0.666-0.188,1.012c0.56,0,1.838,0,1.838,0.826
		c0,0.318-0.134,0.611-0.32,0.852l-3.168,4.631c-0.106,0.135-0.213,0.318-0.213,0.506c0,0.16,0.133,0.24,0.293,0.24
		c1.837,0,3.754-1.971,4.897-3.275c1.278-1.836,3.249-3.859,5.672-3.859c0.957,0,1.623,0.666,1.862,1.57l8.679-11.447l1.73,0.027
		L70.563,31.535c-0.186,0.24-0.426,0.561-0.426,0.879c0,0.188,0.133,0.348,0.319,0.348c1.757,0,4.152-3.062,5.085-4.393l0.213,0.08
		c-1.119,2.023-3.461,5.217-6.069,5.217c-0.64,0-1.065-0.506-1.065-1.145c0-0.133,0.027-0.293,0.054-0.426
		c-1.038,0.691-2.131,1.465-3.408,1.465c-0.825,0-1.65-0.48-1.65-1.385c0-0.293,0.054-0.613,0.134-0.906
		c-1.305,0.986-2.981,2.131-4.686,2.131c-0.585,0-1.091-0.373-1.091-0.986c0-0.559,0.266-1.01,0.585-1.463l2.822-3.994
		c0.079-0.105,0.213-0.238,0.213-0.345c0-0.187-0.4-0.187-0.533-0.187c-0.053,0-0.106,0-0.158,0c-1.305,2.315-5.405,7.16-8.254,7.16
		c-0.558,0-1.091-0.398-1.091-0.984c0-0.16,0.026-0.346,0.054-0.506c-1.172,0.719-2.424,1.49-3.833,1.49
		c-1.092,0-1.598-0.799-1.598-1.781V31.75c-1.064,0.744-2.582,1.863-3.94,1.863c-0.666,0-1.198-0.453-1.198-1.145
		c0-0.533,0.266-1.039,0.586-1.49l2.634-3.567c0.081-0.106,0.16-0.239,0.16-0.347c0-0.053-0.026-0.106-0.08-0.106
		c-1.596,0-5.19,3.993-6.096,5.165l-5.111,6.574l-1.89-0.025l8.358-10.596c-1.411,1.012-2.955,1.756-4.472,2.557
		c-1.411,1.516-3.328,2.98-5.511,2.98c-0.878,0-1.677-0.613-1.677-1.545c0-0.213,0.026-0.451,0.053-0.664l-0.718,0.506
		c-1.118,0.744-2.556,1.889-3.94,1.889c-0.479,0-0.825-0.426-0.825-0.904c0-0.559,0.32-1.039,0.613-1.465l3.114-4.365
		c0.08-0.079,0.106-0.212,0.106-0.318c0-0.107-0.106-0.188-0.213-0.188c-1.305,0-3.807,2.211-4.765,2.982l-3.009,4.047h-2.289
		l3.807-4.553c-0.826,0.426-1.625,0.824-2.449,1.223c-1.97,1.891-4.232,3.621-7.081,3.621c-2.183,0-3.7-1.41-3.7-3.592
		c0-1.998,0.825-3.834,1.89-5.484c-0.186,0.025-0.399,0.025-0.585,0.025c-2.795,0-6.416-1.358-6.416-4.686
		c0-5.43,8.013-6.921,12.059-6.921c1.145,0,2.263,0.106,3.381,0.266L16.923,13.674z M11.652,23.79
		c2.476-0.32,4.951-1.145,7.188-2.29c1.704-0.852,6.602-4.073,6.602-6.362c0-0.213-0.266-0.293-0.425-0.293
		c-2.237,0-5.777,2.476-7.481,3.647C15.326,19.983,13.409,21.767,11.652,23.79z M24.856,24.828c1.97-1.118,7.374-5.377,7.374-7.587
		c0-0.053-0.053-0.106-0.106-0.106C30.34,17.135,25.921,23.417,24.856,24.828z M33.854,30.393c-0.107-0.188-0.186-0.373-0.186-0.613
		c0-0.984,0.905-1.438,1.756-1.518c0.187-0.346,0.4-0.719,0.4-1.117c0-0.373-0.373-0.48-0.666-0.48c-2.05,0-6.016,3.781-6.016,5.777
		c0,0.32,0.186,0.586,0.505,0.586C31.298,33.027,32.922,31.643,33.854,30.393z M54.404,27.356c0-0.479-0.319-0.825-0.824-0.825
		c-1.997,0-5.91,3.887-5.91,5.938c0,0.266,0.213,0.506,0.479,0.506C50.146,32.975,54.404,29.406,54.404,27.356z M71.309,27.171
		c0-0.373-0.186-0.825-0.639-0.825c-2.05,0-5.67,4.152-5.67,6.043C65,32.734,65.266,33,65.612,33
		C67.449,33,71.309,29.061,71.309,27.171L71.309,27.171z"/>
</g>
</svg>
