<?xml version="1.0" encoding="utf-8"?>
<!-- Generator: Adobe Illustrator 16.0.0, SVG Export Plug-In . SVG Version: 6.00 Build 0)  -->
<!DOCTYPE svg PUBLIC "-//W3C//DTD SVG 1.1//EN" "http://www.w3.org/Graphics/SVG/1.1/DTD/svg11.dtd">
<svg version="1.1"
	 id="svg2" xmlns:dc="http://purl.org/dc/elements/1.1/" xmlns:rdf="http://www.w3.org/1999/02/22-rdf-syntax-ns#" xmlns:svg="http://www.w3.org/2000/svg" xmlns:cc="http://creativecommons.org/ns#"
	 xmlns="http://www.w3.org/2000/svg" xmlns:xlink="http://www.w3.org/1999/xlink" x="0px" y="0px" width="300px" height="95.117px"
	 viewBox="0 0 300 95.117" enable-background="new 0 0 300 95.117" xml:space="preserve">
<g id="g10" transform="matrix(1.25,0,0,-1.25,-222.04703,565.00236)">
	<g id="g12" transform="scale(0.24,0.24)">
		<path id="path22" fill="#FFFFFF" d="M1406.766,1881.943c-0.378-0.127-41.608-15.122-82.305-40.083
			c-19.196-11.698-35.273-23.835-48.034-36.035c-4.355,0.485-8.643,1.431-12.799,2.661c7.979,3.981,13.747,8.462,17.24,11.213
			c10.501,8.268,16.563,19.453,16.563,29.346c0.013,9.071-2.738,16.094-8.555,21.657c-11.478,11.115-30.41,10.449-32.275,10.397
			c-1.852,0.052-20.755,0.718-32.295-10.397c-5.783-5.563-8.491-12.572-8.491-21.657c0-9.893,6.043-21.078,16.525-29.346
			c3.53-2.751,9.241-7.231,17.233-11.195c-4.128-1.248-8.41-2.194-12.809-2.679c-12.72,12.201-28.836,24.338-47.985,36.035
			c-40.734,24.941-81.978,39.956-82.334,40.083l-3.825,1.398l0.547-3.997c0.037-0.57,1.934-14.425,12.666-30.532
			c9.899-14.834,29.435-34.43,66.54-43.59c21.144-5.226,38.621-6.078,52.743-4.676c2.498-2.417,4.766-4.828,6.961-7.264
			c4.538-5.065,8.548-10.169,11.868-15.239c-7.432-13.013-10.465-25.962-10.534-39.18c0.02-0.609,0.436-13.737,5.501-19.178
			c2.588-2.839,4.587-3.626,7.689-3.626c3.135,0,5.081,0.768,7.673,3.626c5.085,5.461,5.547,18.569,5.547,19.178
			c-0.117,13.218-3.151,26.167-10.566,39.18c3.382,5.072,7.305,10.174,11.881,15.239c2.194,2.437,4.515,4.828,6.94,7.264
			c14.134-1.4,31.615-0.55,52.754,4.676c37.096,9.16,56.667,28.756,66.54,43.59c10.742,16.079,12.614,29.963,12.679,30.532
			l0.492,3.997L1406.766,1881.943L1406.766,1881.943z M1183.565,1810.019c-35.573,8.787-54.214,27.441-63.651,41.491
			c-6.662,10.041-9.67,19.191-11.024,24.219c11.424-4.419,44.551-17.995,77.331-38.094c17.349-10.581,32.069-21.447,43.962-32.376
			C1215.866,1804.409,1199.992,1805.934,1183.565,1810.019 M1235.105,1823.278c-9.274,7.35-14.621,17.461-14.621,25.767
			c0,7.598,2.2,13.818,6.956,18.392c10.259,9.907,28.903,8.968,29.072,8.968l0.104,1.672l0.091-1.672
			c0.176,0,18.796,0.939,29.017-8.968c4.766-4.573,6.973-10.794,6.973-18.392c0-8.306-5.319-18.416-14.596-25.749
			c-6.006-4.684-13.359-9.093-21.501-12.334C1248.466,1814.202,1241.13,1818.611,1235.105,1823.278 M1267.339,1738.058
			c0-0.213-0.15-20.9-10.739-20.9c-10.596,0-10.739,20.687-10.739,20.9c0.098,11.738,3.691,23.706,10.739,35.651
			C1263.628,1761.764,1267.242,1749.796,1267.339,1738.058 M1267.518,1796.626c-4.274-4.771-7.887-9.456-10.902-14.154
			c-3.06,4.688-6.683,9.398-10.905,14.154c-1.406,1.545-2.884,3.122-4.421,4.714c5.612,0.879,10.742,2.314,15.309,4.067
			c4.561-1.753,9.704-3.188,15.322-4.067c-1.501-1.592-3.034-3.169-4.401-4.714 M1393.283,1851.51
			c-9.401-14.05-28.031-32.703-63.659-41.491c-16.419-4.085-32.292-5.61-46.621-4.761c11.927,10.929,26.654,21.795,43.978,32.376
			c32.77,20.081,65.938,33.675,77.334,38.094C1403.029,1870.701,1399.937,1861.551,1393.283,1851.51"/>
		<path id="path24" fill="#FFFFFF" d="M1237.313,1852c0-3.392,1.76-0.584,6.097-0.584c4.557,0,6.143-2.808,6.162,0.584
			c-0.02,3.372-2.747,6.115-6.162,6.13C1240.023,1858.13,1237.313,1855.373,1237.313,1852"/>
		<path id="path26" fill="#FFFFFF" d="M1269.231,1851.416c4.508,0,6.12-2.808,6.12,0.584c0,3.372-2.692,6.115-6.12,6.115
			c-3.411,0-6.149-2.742-6.149-6.115C1263.108,1848.608,1264.869,1851.416,1269.231,1851.416"/>
		<path id="path28" fill="#FFFFFF" d="M1269.468,1869.087c-9.837,0.337-13.164-4.552-13.164-4.552v-3.711l0.039,0.015v-1.24
			c0.098,0.129,4.245,4.875,11.758,4.875c8.991,0,13.001-5.996,13.001-13.46c0-9.987-8.822-22.837-24.798-28.425
			c-15.91,5.617-24.777,18.438-24.777,28.425c-0.011,7.484,4.033,13.46,13.065,13.46c7.49,0,11.634-4.761,11.738-4.875l-0.023,1.226
			v3.711c0,0-3.232,4.889-13.105,4.552c-10.692-0.334-16.151-9.489-16.151-17.861c0-12.012,11.593-27.287,29.279-32.2
			c17.65,4.914,29.258,20.189,29.258,32.2C1285.588,1859.598,1280.132,1868.753,1269.468,1869.087"/>
		<path id="path30" fill="#FFFFFF" d="M1253.016,1843.927c0-2.775,1.982-7.746,3.314-7.746l0,0c1.322,0,3.301,4.971,3.301,7.746
			c0,2.703-1.471,3.644-3.327,3.644l0,0C1254.507,1847.571,1253.016,1846.621,1253.016,1843.927"/>
		<path id="path32" fill="#FFFFFF" d="M845.425,1569.222c-10.539,0-16.72,3.242-24.831,14.447l-13.215,18.128
			c-6.6,9.098-13.066,12.979-27.358,12.992l-28.685-0.013v-45.55h-11.18v101.585h11.18v-45.657h20.607
			c13.519,0,19.966,5.013,27.887,15.365l23.078,30.293h13.965l-24.637-32.347c-6.172-8.161-10.339-12.614-17.396-16.283v-0.143
			c10.796-2.145,16.198-6.611,22.664-15.335l12.155-16.289c5.617-7.594,9.679-10.788,15.775-10.788h3.312l-1.045-10.4h-2.277
			V1569.222z M930.972,1569.222l0.013,101.589h88.241l1.208-10.345h-78.32v-34.893h74.005v-11.224h-74.005v-33.896h83.836
			l-2.072-11.23H930.972L930.972,1569.222z M1222.684,1569.222c-10.392,0-16.554,3.242-24.709,14.447l-6.816,9.684
			c-6.719,9.45-13.197,13.35-27.222,13.35h-34.587l-0.015-37.48h-11.219v101.589h51.198c25.496,0,39.59-13.288,39.59-31.484
			c0.023-14.818-9.945-24.01-22.612-27.93v-0.137c5.915-2.279,10.088-6.673,14.577-12.77l6.077-8.076
			c5.645-7.702,9.688-10.788,15.827-10.788h3.46l-1.279-10.404H1222.684L1222.684,1569.222z M1169.315,1660.465h-39.964v-43.281
			h39.974c16.056,0,27.492,7.435,27.492,21.725C1196.817,1652.9,1185.092,1660.465,1169.315,1660.465 M1309.748,1670.81h11.159
			v-101.589l-11.159,0.02V1670.81L1309.748,1670.81z M1523.29,1569.222l-93.916,85.872h-0.28v-85.872h-11.169v101.589h10.358
			l93.932-85.95h0.286v85.95h11.146v-101.589H1523.29z M1689.312,1566.286c-48.874,0-71.126,25.182-71.126,54.043
			c0,29.212,22.809,53.49,69.017,53.49c16.712,0,33.144-3.229,47.982-9.43v-11.624c-14.414,6.602-31.032,10.69-48.145,10.664
			c-38.242,0-56.699-19.681-56.686-43.376c-0.013-24.274,19.635-43.405,58.958-43.405c15.788,0,30.358,3.519,39.538,7.686v25.293
			h-42.174l1.328,10.426h52.135l0.02-42.607C1727.102,1570.856,1709.312,1566.286,1689.312,1566.286"/>
	</g>
</g>
</svg>
