<?xml version="1.0" encoding="utf-8"?>
<!-- Generator: Adobe Illustrator 16.0.0, SVG Export Plug-In . SVG Version: 6.00 Build 0)  -->
<!DOCTYPE svg PUBLIC "-//W3C//DTD SVG 1.1//EN" "http://www.w3.org/Graphics/SVG/1.1/DTD/svg11.dtd">
<svg version="1.1" id="LOGO_1_" xmlns="http://www.w3.org/2000/svg" xmlns:xlink="http://www.w3.org/1999/xlink" x="0px" y="0px"
	 width="80px" height="17.395px" viewBox="0 0 80 17.395" enable-background="new 0 0 80 17.395" xml:space="preserve">
<g>
	<g>
		<g>
			<path d="M80,4.896v1.388h-2.89v6.104h-1.949V6.283h-2.889V4.896H80z" fill="#fff"/>
			<path d="M73.104,10.999v1.389h-6.193V4.896h1.947v6.103H73.104z" fill="#fff"/>
			<path d="M35.59,10.999v1.389h-6.506V4.896h6.384v1.388h-4.435V7.93h4.052v1.343h-4.052v1.726H35.59z"  fill="#fff"/>
			<g>
				<path d="M25.593,9.604c0.834-0.453,1.35-1.344,1.35-2.278c0-0.779-0.227-1.384-0.704-1.781c-0.554-0.459-1.313-0.65-2.594-0.65
					h-4.468l-0.08,0.452c0,0,0.08,0.135,0.172,0.297c0.138,0.239,0.127,0.309,0.127,0.468v6.275h1.949V9.988c0,0,1.709,0,2.422,0
					l1.299,2.399h2.146L25.593,9.604z M24.608,8.388c-0.149,0.146-0.328,0.217-0.604,0.217h-2.658V6.322h2.1
					c0.625,0,0.958,0.07,1.184,0.253c0.221,0.176,0.327,0.445,0.327,0.842C24.957,7.828,24.847,8.158,24.608,8.388z"  fill="#fff"/>
			</g>
		</g>
		<path d="M43.75,4.895v4.969c-0.455-0.572-0.932-1.124-1.738-2.01c-0.656-0.721-2.024-2.199-2.727-2.958h-1.881l-0.079,0.452
			c0,0,0.08,0.135,0.172,0.297c0.104,0.178,0.125,0.263,0.128,0.359c0,0.008-0.001,6.384-0.001,6.384l1.751-0.006V7.419
			c0.35,0.466,0.972,1.182,1.387,1.632c0.827,0.894,2.075,2.288,3.047,3.336h1.683V4.896L43.75,4.895z"  fill="#fff"/>
		<path d="M62.829,4.896v4.581c0,0.511-0.102,0.815-0.351,1.048c-0.315,0.293-0.836,0.434-1.589,0.434
			c-0.763,0-1.298-0.14-1.612-0.434c-0.249-0.233-0.351-0.538-0.351-1.048V4.896h-2.169l-0.079,0.452c0,0,0.081,0.135,0.171,0.297
			c0.099,0.172,0.122,0.256,0.126,0.349c0,0.012,0.001,3.555,0.001,3.555c0,1.958,1.327,2.955,3.886,2.955h0.054
			c2.561,0,3.818-0.969,3.818-2.955V4.896H62.829z"  fill="#fff"/>
		<path d="M52.641,4.896h-2.435c-0.738,1.525-2.023,4.339-3.226,7.492h1.956c0.156-0.426,0.321-0.862,0.488-1.298h3.999
			c0.168,0.436,0.333,0.872,0.488,1.298h1.957C54.663,9.235,53.378,6.421,52.641,4.896z M49.983,9.678
			c0.512-1.276,1.026-2.483,1.439-3.419c0.414,0.936,0.93,2.143,1.441,3.419H49.983z"  fill="#fff"/>
	</g>
	<g>
		<linearGradient id="SVGID_1_" gradientUnits="userSpaceOnUse" x1="6.9575" y1="17.0669" x2="6.9575" y2="0.3301">
			<stop  offset="0" style="stop-color:#E5E5E5"/>
			<stop  offset="0.6866" style="stop-color:#FFFFFF"/>
			<stop  offset="1" style="stop-color:#919191"/>
		</linearGradient>
		<path fill="url(#SVGID_1_)" d="M13.496,8.372C13.2,7.745,12.505,6.388,11.8,5.107c-0.993-1.805-2.548-4.376-2.708-4.596
			c-0.043-0.06-0.078-0.099-0.114-0.125c-0.02-0.015-0.04-0.024-0.061-0.031C8.878,0.342,8.79,0.35,8.725,0.357
			C8.69,0.36,8.646,0.359,8.613,0.358C8.281,0.344,7.615,0.33,6.958,0.33c-0.807,0-1.78,0.025-1.906,0.037
			c-0.065,0.007-0.09,0.019-0.115,0.031C4.905,0.416,4.872,0.434,4.82,0.511C4.668,0.737,3.108,3.302,2.115,5.107
			c-0.705,1.28-1.4,2.638-1.696,3.264c-0.079,0.166-0.09,0.276-0.09,0.327c0,0.09,0.03,0.2,0.09,0.327
			c0.296,0.626,0.992,1.984,1.696,3.264c0.993,1.805,2.547,4.376,2.708,4.596c0.025,0.034,0.047,0.062,0.068,0.084
			c0.036,0.038,0.069,0.061,0.107,0.072c0.04,0.012,0.118,0.004,0.183-0.002c0.035-0.004,0.079-0.003,0.112-0.001
			c0.4,0.013,1.015,0.028,1.665,0.028c0.807,0,1.75-0.021,1.892-0.038l0.023-0.002c0.054-0.006,0.084-0.014,0.101-0.022
			c0.033-0.014,0.06-0.04,0.127-0.132c0.16-0.22,1.707-2.778,2.7-4.583c0.705-1.28,1.399-2.638,1.696-3.264
			c0.079-0.167,0.09-0.296,0.09-0.348C13.586,8.587,13.556,8.499,13.496,8.372z M8.913,9.037c-0.665,1.49-1.137,2.419-1.837,3.765
			c-0.04,0.078-0.073,0.128-0.119,0.129c-0.046,0-0.078-0.051-0.119-0.129c-0.7-1.346-1.172-2.274-1.836-3.765
			C4.944,8.91,4.904,8.815,4.904,8.696C4.906,8.58,4.946,8.484,5.002,8.359c0.665-1.49,1.136-2.419,1.836-3.765
			c0.041-0.078,0.072-0.128,0.118-0.129h0h0c0,0,0.001,0,0.001,0c0.046,0,0.079,0.051,0.12,0.129c0.7,1.346,1.172,2.274,1.836,3.765
			C8.971,8.487,9.01,8.581,9.01,8.701S8.968,8.913,8.913,9.037z"/>
		<defs>
			<filter id="Adobe_OpacityMaskFilter" filterUnits="userSpaceOnUse" x="0.329" y="0.33" width="13.258" height="16.737">
				
					<feColorMatrix  type="matrix" values="-1 0 0 0 1  0 -1 0 0 1  0 0 -1 0 1  0 0 0 1 0" color-interpolation-filters="sRGB" result="source"/>
				<feFlood  style="flood-color:white;flood-opacity:1" result="back"/>
				<feBlend  in="source" in2="back" mode="normal"/>
			</filter>
		</defs>
		<mask maskUnits="userSpaceOnUse" x="0.329" y="0.33" width="13.258" height="16.737" id="SVGID_2_">
			<g filter="url(#Adobe_OpacityMaskFilter)">
				<linearGradient id="SVGID_3_" gradientUnits="userSpaceOnUse" x1="6.7471" y1="18.2607" x2="6.7471" y2="8.8271">
					<stop  offset="0.8545" style="stop-color:#FFFFFF"/>
					<stop  offset="1" style="stop-color:#000000"/>
				</linearGradient>
				<rect x="-1.767" y="8.827" fill="url(#SVGID_3_)" width="17.028" height="9.434"/>
			</g>
		</mask>
		
			<radialGradient id="SVGID_4_" cx="-514.6328" cy="-57.3247" r="136.4838" gradientTransform="matrix(0.0611 0 0 0.0614 37.5596 8.1647)" gradientUnits="userSpaceOnUse">
			<stop  offset="0.401" style="stop-color:#FFFFFF"/>
			<stop  offset="1" style="stop-color:#919191"/>
		</radialGradient>
		<path mask="url(#SVGID_2_)" fill="url(#SVGID_4_)" d="M13.496,8.372C13.2,7.745,12.505,6.388,11.8,5.107
			c-0.993-1.805-2.548-4.376-2.708-4.596c-0.043-0.06-0.078-0.099-0.114-0.125c-0.02-0.015-0.04-0.024-0.061-0.031
			C8.878,0.342,8.79,0.35,8.725,0.357C8.69,0.36,8.646,0.359,8.613,0.358C8.281,0.344,7.615,0.33,6.958,0.33
			c-0.807,0-1.78,0.025-1.906,0.037c-0.065,0.007-0.09,0.019-0.115,0.031C4.905,0.416,4.872,0.434,4.82,0.511
			C4.668,0.737,3.108,3.302,2.115,5.107c-0.705,1.28-1.4,2.638-1.696,3.264c-0.079,0.166-0.09,0.276-0.09,0.327
			c0,0.09,0.03,0.2,0.09,0.327c0.296,0.626,0.992,1.984,1.696,3.264c0.993,1.805,2.547,4.376,2.708,4.596
			c0.025,0.034,0.047,0.062,0.068,0.084c0.036,0.038,0.069,0.061,0.107,0.072c0.04,0.012,0.118,0.004,0.183-0.002
			c0.035-0.004,0.079-0.003,0.112-0.001c0.4,0.013,1.015,0.028,1.665,0.028c0.807,0,1.75-0.021,1.892-0.038l0.023-0.002
			c0.054-0.006,0.084-0.014,0.101-0.022c0.033-0.014,0.06-0.04,0.127-0.132c0.16-0.22,1.707-2.778,2.7-4.583
			c0.705-1.28,1.399-2.638,1.696-3.264c0.079-0.167,0.09-0.296,0.09-0.348C13.586,8.587,13.556,8.499,13.496,8.372z M8.913,9.037
			c-0.665,1.49-1.137,2.419-1.837,3.765c-0.04,0.078-0.073,0.128-0.119,0.129c-0.046,0-0.078-0.051-0.119-0.129
			c-0.7-1.346-1.172-2.274-1.836-3.765C4.944,8.91,4.904,8.815,4.904,8.696C4.906,8.58,4.946,8.484,5.002,8.359
			c0.665-1.49,1.136-2.419,1.836-3.765c0.041-0.078,0.072-0.128,0.118-0.129h0h0c0,0,0.001,0,0.001,0
			c0.046,0,0.079,0.051,0.12,0.129c0.7,1.346,1.172,2.274,1.836,3.765C8.971,8.487,9.01,8.581,9.01,8.701S8.968,8.913,8.913,9.037z"
			/>
		<g>
			<linearGradient id="SVGID_5_" gradientUnits="userSpaceOnUse" x1="3.6484" y1="16.9844" x2="3.6484" y2="8.7399">
				<stop  offset="0.0104" style="stop-color:#E5E5E5"/>
				<stop  offset="0.3385" style="stop-color:#A6A6A6"/>
				<stop  offset="0.6941" style="stop-color:#333333"/>
				<stop  offset="0.8452" style="stop-color:#1A1A1A"/>
				<stop  offset="0.948" style="stop-color:#111111"/>
				<stop  offset="0.9623" style="stop-color:#141414"/>
				<stop  offset="0.9728" style="stop-color:#1D1D1D"/>
				<stop  offset="0.9821" style="stop-color:#2D2D2D"/>
				<stop  offset="0.9907" style="stop-color:#444444"/>
				<stop  offset="0.9987" style="stop-color:#616161"/>
				<stop  offset="1" style="stop-color:#666666"/>
			</linearGradient>
			<path fill="url(#SVGID_5_)" d="M4.494,9.241c0,0-0.195-0.365-0.203-0.509c-0.001-0.019-0.002-0.025,0-0.044
				C4.294,8.651,4.28,8.664,4.248,8.694C4.19,8.748,4.09,8.801,3.844,8.801c-0.218,0-2.072-0.002-2.955-0.002
				c-0.129,0-0.303-0.01-0.303,0.195c0,0.121,0.104,0.364,0.319,0.783c1.172,2.292,2.475,4.583,3.871,6.821
				c0,0,0.213,0.343,0.235,0.371s0.048,0.04,0.1,0.039c0,0,0.885-1.621,1.601-3.389C5.915,12.15,5.181,10.7,4.494,9.241z"/>
			<linearGradient id="SVGID_6_" gradientUnits="userSpaceOnUse" x1="5.1108" y1="17.0073" x2="5.1108" y2="17.0073">
				<stop  offset="0.0104" style="stop-color:#E5E5E5"/>
				<stop  offset="0.3385" style="stop-color:#A6A6A6"/>
				<stop  offset="0.6941" style="stop-color:#333333"/>
				<stop  offset="0.8452" style="stop-color:#1A1A1A"/>
				<stop  offset="0.948" style="stop-color:#111111"/>
				<stop  offset="0.9623" style="stop-color:#141414"/>
				<stop  offset="0.9728" style="stop-color:#1D1D1D"/>
				<stop  offset="0.9821" style="stop-color:#2D2D2D"/>
				<stop  offset="0.9907" style="stop-color:#444444"/>
				<stop  offset="0.9987" style="stop-color:#616161"/>
				<stop  offset="1" style="stop-color:#666666"/>
			</linearGradient>
			<path fill="url(#SVGID_6_)" d="M5.11,17.007C5.11,17.007,5.111,17.007,5.11,17.007C5.111,17.007,5.111,17.007,5.11,17.007z"/>
		</g>
		<linearGradient id="SVGID_7_" gradientUnits="userSpaceOnUse" x1="9.3311" y1="16.9844" x2="9.3311" y2="8.7327">
			<stop  offset="0.0104" style="stop-color:#E5E5E5"/>
			<stop  offset="0.3385" style="stop-color:#A6A6A6"/>
			<stop  offset="0.6941" style="stop-color:#333333"/>
			<stop  offset="0.8452" style="stop-color:#1A1A1A"/>
			<stop  offset="0.9538" style="stop-color:#111111"/>
			<stop  offset="0.9665" style="stop-color:#141414"/>
			<stop  offset="0.9758" style="stop-color:#1D1D1D"/>
			<stop  offset="0.9841" style="stop-color:#2D2D2D"/>
			<stop  offset="0.9917" style="stop-color:#444444"/>
			<stop  offset="0.9988" style="stop-color:#616161"/>
			<stop  offset="1" style="stop-color:#666666"/>
		</linearGradient>
		<path fill="url(#SVGID_7_)" d="M13.422,8.719C13.391,8.752,13.301,8.8,13.102,8.8c-0.071,0-1.717,0-2.434,0
			c-1.116,0-1.003-0.03-1.293,0.561c-0.129,0.263-0.262,0.572-0.398,0.826c-0.974,2.038-3.353,6.141-3.673,6.649
			c-0.121,0.191-0.139,0.202-0.051,0.202c0,0,0.807,0.03,1.705,0.03c1.403,0,1.904-0.039,1.904-0.039
			c0.813-1.266,2.753-4.476,4.139-7.256c0.319-0.64,0.479-0.919,0.463-1.056C13.46,8.69,13.436,8.706,13.422,8.719z"/>
		<linearGradient id="SVGID_8_" gradientUnits="userSpaceOnUse" x1="6.5977" y1="8.6436" x2="6.5977" y2="0.3374">
			<stop  offset="0" style="stop-color:#333333"/>
			<stop  offset="0.0088" style="stop-color:#292929"/>
			<stop  offset="0.0237" style="stop-color:#1E1E1E"/>
			<stop  offset="0.04" style="stop-color:#1A1A1A"/>
			<stop  offset="0.1225" style="stop-color:#151515"/>
			<stop  offset="0.2256" style="stop-color:#050505"/>
			<stop  offset="0.2521" style="stop-color:#000000"/>
		</linearGradient>
		<path fill="url(#SVGID_8_)" d="M8.797,0.39c-0.06-0.002-0.103,0.043-0.186,0.171C7.923,1.627,5.548,6.103,4.577,8.19
			c-0.119,0.256-0.179,0.38-0.179,0.504l0.506,0.001c0-0.001,0,0.001,0,0C4.906,8.58,4.946,8.484,5.002,8.359
			c0.665-1.49,1.136-2.419,1.836-3.765c0.041-0.078,0.072-0.128,0.118-0.129h0l0.197-0.573C7.838,2.186,8.797,0.39,8.797,0.39z"/>
		<linearGradient id="SVGID_9_" gradientUnits="userSpaceOnUse" x1="8.2354" y1="8.7012" x2="8.2354" y2="3.8931">
			<stop  offset="0" style="stop-color:#737373"/>
			<stop  offset="0.1485" style="stop-color:#6E6E6E"/>
			<stop  offset="0.3324" style="stop-color:#5E5E5E"/>
			<stop  offset="0.5348" style="stop-color:#454545"/>
			<stop  offset="0.7493" style="stop-color:#222222"/>
			<stop  offset="0.7954" style="stop-color:#1A1A1A"/>
			<stop  offset="0.9207" style="stop-color:#000000"/>
		</linearGradient>
		<path fill="url(#SVGID_9_)" d="M9.514,8.701c0-0.124-0.058-0.246-0.177-0.499C8.667,6.777,7.965,5.389,7.154,3.893L6.957,4.466h0
			c0,0,0.001,0,0.001,0c0.046,0,0.079,0.051,0.12,0.129c0.7,1.346,1.172,2.274,1.836,3.765C8.971,8.487,9.01,8.581,9.01,8.701
			c0,0.001,0-0.002,0,0H9.514z"/>
		<linearGradient id="SVGID_10_" gradientUnits="userSpaceOnUse" x1="5.6772" y1="13.5142" x2="5.6772" y2="8.7036">
			<stop  offset="0.3571" style="stop-color:#BFBFBF"/>
			<stop  offset="0.4744" style="stop-color:#BABABA"/>
			<stop  offset="0.6097" style="stop-color:#ACACAC"/>
			<stop  offset="0.7539" style="stop-color:#959595"/>
			<stop  offset="0.9034" style="stop-color:#757575"/>
			<stop  offset="0.9631" style="stop-color:#666666"/>
			<stop  offset="1" style="stop-color:#333333"/>
		</linearGradient>
		<path fill="url(#SVGID_10_)" d="M6.957,12.931C6.957,12.931,6.957,12.931,6.957,12.931c-0.046,0-0.078-0.051-0.119-0.129
			c-0.7-1.346-1.172-2.274-1.836-3.765C4.944,8.91,4.904,8.815,4.904,8.696c0,0,0,0,0,0L4.398,8.695c0,0.125,0.057,0.25,0.177,0.505
			v0c0.67,1.425,1.369,2.81,2.181,4.306L6.957,12.931z"/>
		<linearGradient id="SVGID_11_" gradientUnits="userSpaceOnUse" x1="7.5669" y1="11.8833" x2="3.1898" y2="9.9089">
			<stop  offset="0.0132" style="stop-color:#F2F2F2;stop-opacity:0.8"/>
			<stop  offset="0.1096" style="stop-color:#EDEDED;stop-opacity:0"/>
		</linearGradient>
		<path fill="url(#SVGID_11_)" d="M6.957,12.931C6.957,12.931,6.957,12.931,6.957,12.931c-0.046,0-0.078-0.051-0.119-0.129
			c-0.7-1.346-1.172-2.274-1.836-3.765C4.944,8.91,4.904,8.815,4.904,8.696c0,0,0,0,0-0.001L4.398,8.694
			c0,0.125,0.057,0.251,0.177,0.506v0c0.67,1.425,1.369,2.81,2.181,4.306L6.957,12.931z"/>
		<linearGradient id="SVGID_12_" gradientUnits="userSpaceOnUse" x1="7.3125" y1="16.9546" x2="7.3125" y2="8.6475">
			<stop  offset="0" style="stop-color:#FFFFFF"/>
			<stop  offset="0.2163" style="stop-color:#F9F9F9"/>
			<stop  offset="0.5116" style="stop-color:#E7E7E7"/>
			<stop  offset="0.8508" style="stop-color:#CBCBCB"/>
			<stop  offset="0.9693" style="stop-color:#BFBFBF"/>
			<stop  offset="0.9913" style="stop-color:#737373"/>
		</linearGradient>
		<path fill="url(#SVGID_12_)" d="M5.11,17.007c0.056,0.003,0.122-0.065,0.199-0.183c0.021-0.032,0.048-0.077,0.081-0.132
			c0.519-0.883,3.018-5.497,3.942-7.485c0.119-0.255,0.181-0.383,0.181-0.507H9.01c0,0,0,0,0,0c0,0.12-0.042,0.212-0.097,0.336
			c-0.665,1.49-1.137,2.419-1.837,3.765c-0.04,0.078-0.073,0.128-0.119,0.129l-0.2,0.574C6.034,15.316,5.11,17.007,5.11,17.007z"/>
		<linearGradient id="SVGID_13_" gradientUnits="userSpaceOnUse" x1="2.4463" y1="17.2837" x2="2.4463" y2="8.6987">
			<stop  offset="0" style="stop-color:#666666"/>
			<stop  offset="0.1851" style="stop-color:#5E5E5E"/>
			<stop  offset="0.584" style="stop-color:#515151"/>
			<stop  offset="0.9698" style="stop-color:#4D4D4D"/>
			<stop  offset="0.9879" style="stop-color:#757575"/>
			<stop  offset="1" style="stop-color:#8C8C8C"/>
		</linearGradient>
		<path fill="url(#SVGID_13_)" d="M4.891,16.97c-0.021-0.022-0.043-0.05-0.068-0.084c-0.16-0.22-1.714-2.791-2.708-4.596
			c-0.705-1.28-1.4-2.638-1.696-3.264c-0.06-0.127-0.09-0.237-0.09-0.327H0.002c0,0.111,0.024,0.255,0.122,0.467
			c0.231,0.5,0.877,1.775,1.705,3.282c0.905,1.645,2.546,4.381,2.73,4.631c0.075,0.103,0.14,0.166,0.201,0.205L4.891,16.97z"/>
		<linearGradient id="SVGID_14_" gradientUnits="userSpaceOnUse" x1="5.3091" y1="16.2456" x2="8.615" y2="18.1543">
			<stop  offset="0.0193" style="stop-color:#666666"/>
			<stop  offset="0.0407" style="stop-color:#4A4A4A"/>
			<stop  offset="0.0625" style="stop-color:#363636"/>
			<stop  offset="0.0841" style="stop-color:#292929"/>
			<stop  offset="0.105" style="stop-color:#252525"/>
		</linearGradient>
		<path fill="url(#SVGID_14_)" d="M4.76,17.284c0.088,0.056,0.169,0.063,0.269,0.072c0.245,0.022,1.314,0.04,1.929,0.04
			s1.771-0.025,1.929-0.04c0.076-0.007,0.145-0.014,0.216-0.045l-0.13-0.305c-0.016,0.008-0.047,0.016-0.101,0.022L8.85,17.029
			c-0.142,0.017-1.085,0.037-1.892,0.038c-0.65,0-1.265-0.015-1.665-0.028c-0.034-0.001-0.078-0.002-0.112,0.001
			c-0.065,0.006-0.143,0.014-0.183,0.002c-0.038-0.012-0.071-0.034-0.107-0.072L4.76,17.284z"/>
		<linearGradient id="SVGID_15_" gradientUnits="userSpaceOnUse" x1="7.812" y1="2.4468" x2="15.1401" y2="6.4588">
			<stop  offset="0" style="stop-color:#595959"/>
			<stop  offset="1" style="stop-color:#737373"/>
		</linearGradient>
		<path fill="url(#SVGID_15_)" d="M13.914,8.698c0-0.09-0.02-0.254-0.122-0.467c-0.247-0.516-1.038-2.072-1.705-3.282
			c-0.893-1.618-2.539-4.375-2.729-4.631C9.256,0.183,9.18,0.119,9.104,0.086l-0.125,0.3c0.036,0.026,0.071,0.066,0.114,0.125
			c0.16,0.22,1.714,2.791,2.708,4.596c0.705,1.28,1.399,2.638,1.696,3.264c0.06,0.127,0.09,0.216,0.09,0.306L13.914,8.698z"/>
		<linearGradient id="SVGID_16_" gradientUnits="userSpaceOnUse" x1="8.9053" y1="0.7798" x2="4.9354" y2="-0.3586">
			<stop  offset="0.0096" style="stop-color:#595959"/>
			<stop  offset="0.0254" style="stop-color:#757575"/>
			<stop  offset="0.0442" style="stop-color:#909090"/>
			<stop  offset="0.0609" style="stop-color:#A0A0A0"/>
			<stop  offset="0.0738" style="stop-color:#A6A6A6"/>
			<stop  offset="0.5011" style="stop-color:#BEBEBE"/>
			<stop  offset="1" style="stop-color:#BFBFBF"/>
		</linearGradient>
		<path fill="url(#SVGID_16_)" d="M4.808,0.087l0.129,0.311c0.025-0.012,0.049-0.024,0.115-0.031C5.178,0.355,6.15,0.33,6.958,0.33
			c0.657,0,1.324,0.014,1.655,0.028C8.646,0.359,8.69,0.36,8.725,0.357C8.79,0.35,8.878,0.342,8.917,0.354
			c0.021,0.007,0.041,0.017,0.061,0.031l0.125-0.3C9.031,0.053,8.96,0.049,8.878,0.042c-0.254-0.023-1.348-0.04-1.921-0.04
			c-0.504,0-1.675,0.013-1.949,0.041C4.924,0.051,4.861,0.065,4.808,0.087z"/>
		<linearGradient id="SVGID_17_" gradientUnits="userSpaceOnUse" x1="-1.1089" y1="5.8052" x2="5.9695" y2="3.088">
			<stop  offset="0" style="stop-color:#8C8C8C"/>
			<stop  offset="0.9868" style="stop-color:#737373"/>
			<stop  offset="1" style="stop-color:#BFBFBF"/>
		</linearGradient>
		<path fill="url(#SVGID_17_)" d="M4.808,0.087c-0.103,0.044-0.165,0.119-0.26,0.244C4.358,0.578,2.713,3.354,1.829,4.949
			C1.206,6.072,0.217,8.018,0.123,8.231C0.03,8.445,0.002,8.587,0.002,8.699h0.327c0-0.051,0.012-0.161,0.09-0.327
			c0.296-0.626,0.992-1.984,1.696-3.264c0.993-1.805,2.553-4.37,2.705-4.596c0.052-0.078,0.085-0.095,0.117-0.113L4.808,0.087z"/>
		<linearGradient id="SVGID_18_" gradientUnits="userSpaceOnUse" x1="11.4434" y1="17.3101" x2="11.4434" y2="8.6777">
			<stop  offset="0.019" style="stop-color:#252525"/>
			<stop  offset="0.2159" style="stop-color:#2E2E2E"/>
			<stop  offset="0.5991" style="stop-color:#3B3B3B"/>
			<stop  offset="0.9698" style="stop-color:#3F3F3F"/>
			<stop  offset="0.9856" style="stop-color:#5C5C5C"/>
			<stop  offset="1" style="stop-color:#737373"/>
		</linearGradient>
		<path fill="url(#SVGID_18_)" d="M9.103,17.31c0.079-0.035,0.16-0.101,0.254-0.231c0.177-0.246,1.947-3.2,2.729-4.631
			s1.614-3.079,1.705-3.282c0.113-0.253,0.122-0.377,0.122-0.468l-0.327-0.021c0,0.051-0.012,0.181-0.09,0.348
			C13.2,9.652,12.505,11.009,11.8,12.29c-0.993,1.805-2.541,4.363-2.7,4.583c-0.067,0.092-0.094,0.118-0.127,0.132c0,0,0.001,0,0,0
			L9.103,17.31z"/>
		<path fill="#FFFFFF" d="M8.725,0.357c0.006-0.001,0.012-0.001,0.018-0.002c0,0-0.083,0.063-0.294,0.062
			C8.196,0.416,7.674,0.406,7.256,0.403c-0.771-0.005-1.691,0.009-2.121,0.03C4.908,0.444,4.894,0.469,4.749,0.624l0,0L4.82,0.511
			c0.052-0.078,0.085-0.095,0.117-0.113c0.025-0.012,0.049-0.024,0.115-0.031C5.178,0.355,6.15,0.33,6.958,0.33
			c0.657,0,1.324,0.014,1.655,0.028C8.646,0.359,8.69,0.36,8.725,0.357"/>
		<g>
			<defs>
				<path id="SVGID_19_" d="M13.915,8.698c0-0.08-0.016-0.247-0.122-0.468c-0.253-0.527-1.039-2.075-1.706-3.283
					c-0.052-0.094-0.106-0.191-0.162-0.292C11.206,4.221,10.362,3.97,9.459,3.97c-0.898,0-1.739,0.249-2.458,0.681
					c0.062,0.118,0.552,1.053,1,1.971c0.419,0.86,0.787,1.685,0.827,1.776C8.883,8.52,8.917,8.602,8.917,8.701
					c0,0.096-0.033,0.169-0.086,0.292L8.827,9C8.824,9.008,8.44,9.873,7.997,10.781c-0.397,0.813-0.829,1.644-0.996,1.963
					l-0.008,0.015c-0.016,0.031-0.03,0.054-0.037,0.054c-0.006,0-0.02-0.022-0.036-0.054c-0.002-0.004-0.011-0.021-0.025-0.047
					c-0.468-0.896-0.792-1.545-0.98-1.932C5.491,9.912,5.114,9.064,5.087,9L5.083,8.992C5.036,8.879,4.998,8.79,4.998,8.696
					c0-0.095,0.044-0.199,0.089-0.297c0.003-0.006,0.01-0.023,0.022-0.05C5.377,7.74,5.647,7.159,5.912,6.622
					c0.384-0.78,0.816-1.614,0.959-1.89C5.55,5.587,4.675,7.077,4.675,8.772c0,2.652,2.142,4.802,4.785,4.802
					c0.852,0,1.651-0.223,2.344-0.614c0.104-0.184,0.2-0.356,0.285-0.511c0.762-1.392,1.608-3.064,1.706-3.283
					C13.9,8.927,13.915,8.8,13.915,8.698z"/>
			</defs>
			<clipPath id="SVGID_20_">
				<use xlink:href="#SVGID_19_"  overflow="visible"/>
			</clipPath>
			<g clip-path="url(#SVGID_20_)">
				<defs>
					<filter id="Adobe_OpacityMaskFilter_1_" filterUnits="userSpaceOnUse" x="4.691" y="3.971" width="9.604" height="9.604">
						<feColorMatrix  type="matrix" values="1 0 0 0 0  0 1 0 0 0  0 0 1 0 0  0 0 0 1 0"/>
					</filter>
				</defs>
				<mask maskUnits="userSpaceOnUse" x="4.691" y="3.971" width="9.604" height="9.604" id="SVGID_21_">
					<g id="XMLID_1_" filter="url(#Adobe_OpacityMaskFilter_1_)">
						
							<radialGradient id="SVGID_22_" cx="-456.8374" cy="9.9038" r="23.3276" gradientTransform="matrix(0.0614 0 0 0.0614 37.5453 8.1647)" gradientUnits="userSpaceOnUse">
							<stop  offset="0.1664" style="stop-color:#FFFFFF"/>
							<stop  offset="0.1876" style="stop-color:#EBEBEB"/>
							<stop  offset="0.2456" style="stop-color:#BABABA"/>
							<stop  offset="0.3083" style="stop-color:#8E8E8E"/>
							<stop  offset="0.3742" style="stop-color:#686868"/>
							<stop  offset="0.4441" style="stop-color:#474747"/>
							<stop  offset="0.5193" style="stop-color:#2D2D2D"/>
							<stop  offset="0.6017" style="stop-color:#191919"/>
							<stop  offset="0.6951" style="stop-color:#0B0B0B"/>
							<stop  offset="0.8088" style="stop-color:#030303"/>
							<stop  offset="1" style="stop-color:#000000"/>
						</radialGradient>
						<circle fill="url(#SVGID_22_)" cx="9.508" cy="8.772" r="1.432"/>
					</g>
				</mask>
				
					<radialGradient id="SVGID_23_" cx="-457.0835" cy="9.9038" r="78.2407" gradientTransform="matrix(0.0614 0 0 0.0614 37.5453 8.1647)" gradientUnits="userSpaceOnUse">
					<stop  offset="0" style="stop-color:#FFFFFF"/>
					<stop  offset="0.5897" style="stop-color:#FFFFFF;stop-opacity:0"/>
				</radialGradient>
				<circle mask="url(#SVGID_21_)" fill="url(#SVGID_23_)" cx="9.493" cy="8.772" r="4.802"/>
			</g>
		</g>
		<path d="M8.914,8.359c-0.027-0.06-0.401-0.903-0.829-1.779C7.62,5.627,7.1,4.635,7.078,4.595c-0.042-0.078-0.075-0.129-0.12-0.129
			c-0.045,0-0.075,0.045-0.12,0.129c-0.022,0.041-0.555,1.063-1.01,1.986C5.375,7.5,5.025,8.309,5.002,8.359
			C4.955,8.461,4.904,8.58,4.904,8.696s0.044,0.216,0.097,0.341c0.025,0.06,0.402,0.908,0.831,1.785
			c0.466,0.954,0.986,1.941,1.006,1.98c0.039,0.077,0.073,0.129,0.119,0.129c0.046,0,0.079-0.051,0.119-0.129
			c0.021-0.041,0.539-1.027,1.005-1.98c0.427-0.874,0.804-1.721,0.832-1.785C8.97,8.905,9.01,8.818,9.01,8.701
			C9.01,8.583,8.971,8.489,8.914,8.359z M8.83,8.993L8.827,9C8.824,9.008,8.44,9.873,7.997,10.781
			c-0.397,0.813-0.829,1.644-0.996,1.963l-0.008,0.015c-0.016,0.031-0.03,0.054-0.037,0.054c-0.006,0-0.02-0.022-0.036-0.054
			c-0.002-0.004-0.011-0.021-0.025-0.047c-0.468-0.896-0.792-1.545-0.98-1.932C5.491,9.912,5.114,9.064,5.087,9L5.083,8.992
			C5.036,8.879,4.998,8.79,4.998,8.696c0-0.095,0.044-0.199,0.089-0.297c0.003-0.006,0.01-0.023,0.022-0.05
			C5.377,7.74,5.647,7.159,5.912,6.622c0.467-0.947,1.004-1.975,1.009-1.984C6.936,4.61,6.949,4.583,6.958,4.583
			S6.98,4.61,6.996,4.639C7,4.647,7.525,5.645,8.002,6.622c0.419,0.86,0.787,1.685,0.827,1.776C8.883,8.52,8.917,8.602,8.917,8.701
			C8.917,8.796,8.884,8.87,8.83,8.993z"/>
		<path d="M13.793,8.23c-0.253-0.527-1.039-2.075-1.706-3.283c-0.914-1.656-2.544-4.383-2.73-4.631
			C9.175,0.071,9.073,0.061,8.903,0.042L8.878,0.04C8.632,0.013,7.586,0,6.958,0C6.419,0,5.274,0.014,5.008,0.041
			C4.757,0.066,4.689,0.143,4.546,0.33C4.349,0.586,2.691,3.39,1.827,4.948C1.203,6.074,0.213,8.021,0.122,8.23
			C0.039,8.419,0,8.568,0,8.699c0,0.139,0.039,0.288,0.122,0.468c0.207,0.45,0.832,1.695,1.705,3.283
			c0.911,1.656,2.555,4.393,2.73,4.631c0.184,0.252,0.305,0.262,0.471,0.277c0.253,0.022,1.345,0.04,1.929,0.04
			c0.631,0,1.772-0.025,1.93-0.04c0.156-0.014,0.291-0.026,0.471-0.277c0.166-0.23,1.935-3.178,2.729-4.631
			c0.762-1.392,1.608-3.064,1.706-3.283c0.107-0.24,0.122-0.367,0.122-0.468C13.915,8.619,13.899,8.452,13.793,8.23z M13.707,9.128
			c-0.097,0.217-0.941,1.886-1.702,3.276c-0.793,1.45-2.559,4.392-2.723,4.621c-0.155,0.215-0.254,0.224-0.403,0.238
			c-0.156,0.014-1.292,0.039-1.921,0.039c-0.583,0-1.67-0.017-1.921-0.039c-0.157-0.014-0.244-0.022-0.403-0.239
			c-0.174-0.237-1.814-2.967-2.723-4.621c-0.872-1.585-1.496-2.828-1.702-3.276C0.131,8.959,0.095,8.823,0.095,8.699
			c0-0.117,0.036-0.253,0.113-0.43C0.3,8.06,1.287,6.118,1.91,4.994c0.863-1.555,2.516-4.351,2.711-4.606
			c0.137-0.179,0.186-0.231,0.396-0.252c0.263-0.026,1.403-0.04,1.94-0.04c0.627,0,1.667,0.012,1.911,0.039l0.025,0.002
			c0.159,0.017,0.23,0.024,0.389,0.237c0.185,0.247,1.811,2.967,2.723,4.62c0.665,1.206,1.45,2.751,1.703,3.278
			c0.098,0.204,0.113,0.355,0.113,0.427C13.82,8.789,13.806,8.904,13.707,9.128z"/>
	</g>
</g>
</svg>
