<?xml version="1.0" encoding="utf-8"?>
<!-- Generator: Adobe Illustrator 16.0.0, SVG Export Plug-In . SVG Version: 6.00 Build 0)  -->
<!DOCTYPE svg PUBLIC "-//W3C//DTD SVG 1.1//EN" "http://www.w3.org/Graphics/SVG/1.1/DTD/svg11.dtd">
<svg version="1.1" id="Calque_1" xmlns="http://www.w3.org/2000/svg" xmlns:xlink="http://www.w3.org/1999/xlink" x="0px" y="0px"
	 width="22px" height="20px" viewBox="0 0 22 20" enable-background="new 0 0 22 20" xml:space="preserve">
<g>
	<path fill="#010101" d="M0.587,19.152h4.869c0.059,0,0.293,0,0.352,0l7.626-1.525c0.117,0,0.235-0.117,0.235-0.293V3.898
		c0-0.117-0.118-0.293-0.235-0.293L7.099,2.08h8.8v16.485c0,0.353,0.293,0.587,0.587,0.587h4.869c0.353,0,0.587-0.294,0.587-0.587
		c0-0.353-0.293-0.587-0.587-0.587h-4.282V1.435c0-0.352-0.293-0.586-0.587-0.586H5.515c-0.352,0-0.586,0.293-0.586,0.586V17.92
		H0.587C0.235,17.92,0,18.213,0,18.507C0,18.918,0.293,19.152,0.587,19.152z M13.141,17.099l-7.039,1.408V2.432l7.039,1.701V17.099z
		"/>
	<path fill="#010101" d="M11.909,12.171c0.528,0,0.938-0.411,0.938-0.938c0-0.528-0.41-0.939-0.938-0.939s-0.938,0.411-0.938,0.939
		C10.971,11.76,11.439,12.171,11.909,12.171z M11.909,10.938c0.177,0,0.294,0.118,0.294,0.294s-0.117,0.293-0.294,0.293
		c-0.176,0-0.293-0.117-0.293-0.293C11.616,11.115,11.733,10.938,11.909,10.938z"/>
</g>
</svg>
