<?xml version="1.0" encoding="utf-8"?>
<!-- Generator: Adobe Illustrator 19.1.0, SVG Export Plug-In . SVG Version: 6.00 Build 0)  -->
<svg version="1.1" id="Calque_1" xmlns="http://www.w3.org/2000/svg" xmlns:xlink="http://www.w3.org/1999/xlink" x="0px" y="0px"
	 viewBox="0 0 100 29" style="enable-background:new 0 0 100 29;" xml:space="preserve">
<style type="text/css">
	.st0{fill:none;stroke:#C9A562;stroke-miterlimit:10;}
</style>
<path class="st0" d="M0.1,0.5h72.7c0,0,13.2,0.2,18,8.7c0,0,8.7,2.5,8.7,7.2s-9.2,10.1-26.4,10.8s-27.6,3.2-73.1-2"/>
<path class="st0" d="M6.9,20.5c0,0,2.9-14.1,4.9-14.1s18.2,0,18.2,0s16.4,6.7,27.6,15"/>
<path class="st0" d="M88.8,6.5c0,0-13.6-2.3-13.6,1.8s15.7,0.9,15.7,0.9"/>
<circle class="st0" cx="5.4" cy="10.3" r="3.2"/>
<path class="st0" d="M35.8,8.8c0.8-1.6,2.7-2.2,4.3-1.4c1.6,0.8,2.2,2.7,1.4,4.3"/>
<circle class="st0" cx="49.8" cy="10.3" r="3.2"/>
<circle class="st0" cx="59.7" cy="10.3" r="3.2"/>
</svg>
