<?xml version="1.0" encoding="utf-8"?>
<!-- Generator: Adobe Illustrator 19.1.0, SVG Export Plug-In . SVG Version: 6.00 Build 0)  -->
<svg version="1.1" id="Calque_1" xmlns="http://www.w3.org/2000/svg" xmlns:xlink="http://www.w3.org/1999/xlink" x="0px" y="0px"
	 viewBox="0 0 20.3 18.9" style="enable-background:new 0 0 20.3 18.9;" xml:space="preserve">
<style type="text/css">
	.st0{fill:#C9A562;}
</style>
<g>
	<path class="st0" d="M6.5,14.5v-2.3H3.9v2.3H6.5z"/>
	<path class="st0" d="M6.5,7.1V4.8H3.9v2.3H6.5z"/>
	<path class="st0" d="M11.4,7.1V4.8H8.8v2.3H11.4z"/>
	<path class="st0" d="M16.4,14.5v-2.3h-2.6v2.3H16.4z"/>
	<path class="st0" d="M16.4,7.1V4.8h-2.6v2.3H16.4z"/>
	<path class="st0" d="M0,0v1.2h0.6v8.2v1.2v8.2h7.6h3.9h7.6v-8.2V9.5V1.2h0.6V0H0z M11.3,17.7H9v-3.6h2.3V17.7z M18.4,17.7h-6.3
		v-4.4H8.2v4.4H1.9v-7h16.5V17.7z M1.9,9.5v-7h16.5v7H1.9z"/>
</g>
</svg>
