<?xml version="1.0" encoding="utf-8"?>
<!-- Generator: Adobe Illustrator 19.1.0, SVG Export Plug-In . SVG Version: 6.00 Build 0)  -->
<svg version="1.1" id="Calque_1" xmlns="http://www.w3.org/2000/svg" xmlns:xlink="http://www.w3.org/1999/xlink" x="0px" y="0px"
	 viewBox="0 0 27.4 13.8" style="enable-background:new 0 0 27.4 13.8;" xml:space="preserve">
<style type="text/css">
	.st0{fill:#C9A562;}
</style>
<path class="st0" d="M27.4,4.3c-0.2-2-2.5-3-4.3-2.2c-0.9,0.4-2,1-2.9,1.7c-0.3,0.2-0.7,0-0.7-0.3v0C19.5,1.6,18,0,16,0H3.5
	C1.6,0,0,1.6,0,3.5v6.8c0,1.9,1.6,3.5,3.5,3.5H16c1.9,0,3.5-1.6,3.5-3.5v0c0-0.3,0.4-0.5,0.6-0.3c0.9,0.7,2.2,1.3,3,1.8
	c1.4,0.7,3.2,0.2,3.9-1.2c0.2-0.4,0.3-0.9,0.3-1.3V4.6C27.4,4.5,27.4,4.4,27.4,4.3z"/>
</svg>
