<?xml version="1.0" encoding="utf-8"?>
<!-- Generator: Adobe Illustrator 16.0.0, SVG Export Plug-In . SVG Version: 6.00 Build 0)  -->
<!DOCTYPE svg PUBLIC "-//W3C//DTD SVG 1.1//EN" "http://www.w3.org/Graphics/SVG/1.1/DTD/svg11.dtd">
<svg version="1.1" id="Calque_1" xmlns="http://www.w3.org/2000/svg" xmlns:xlink="http://www.w3.org/1999/xlink" x="0px" y="0px"
	 width="595.279px" height="841.891px" viewBox="0 0 595.279 841.891" enable-background="new 0 0 595.279 841.891"
	 xml:space="preserve">
<path fill="#B0B0B0" d="M585.498,648.717L403.84,467.059c23.756-34.935,36.332-76.855,36.332-120.174
	c0-57.292-22.358-111.79-62.882-152.313c-41.921-41.921-96.419-64.279-153.711-64.279s-111.79,22.358-153.711,62.881
	C29.345,235.095,6.987,288.195,6.987,346.884c0,58.69,22.358,111.79,62.882,152.314c40.524,40.523,95.021,62.882,152.313,62.882
	c43.318,0,85.239-12.577,121.571-37.729l181.658,181.658c5.59,5.59,16.769,4.192,25.152-2.795l30.742-30.742
	C589.691,665.485,591.088,654.307,585.498,648.717z M223.579,503.39c-86.637,0-157.903-69.868-157.903-156.505
	s71.267-157.903,157.903-157.903s156.506,71.266,156.506,157.903S310.216,503.39,223.579,503.39z"/>
</svg>
