<?xml version="1.0" encoding="utf-8"?>
<!-- Generator: Adobe Illustrator 19.1.0, SVG Export Plug-In . SVG Version: 6.00 Build 0)  -->
<svg version="1.1" id="Calque_1" xmlns="http://www.w3.org/2000/svg" xmlns:xlink="http://www.w3.org/1999/xlink" x="0px" y="0px"
	 viewBox="0 0 19.6 14.7" style="enable-background:new 0 0 19.6 14.7;" xml:space="preserve">
<style type="text/css">
	.st0{fill:#C9A562;}
</style>
<g>
	<path class="st0" d="M17.8,5.2l-1.5-3.5c-1.6-2.1-1.6-1.4-3.7-1.6H9.8H7C4.9,0.3,4.9-0.5,3.3,1.6L1.8,5.2C0.8,5.7,0,6.8,0,8v0.7
		c0,1.6,1.3,3,2.9,3.1c0,0.1,0,0.1,0,0.2v1.3c0,0.7,0.6,1.3,1.3,1.3s1.3-0.6,1.3-1.3V12c0-0.1,0-0.1,0-0.2h4.3h4.3
		c0,0.1,0,0.1,0,0.2v1.3c0,0.7,0.6,1.3,1.3,1.3s1.3-0.6,1.3-1.3V12c0-0.1,0-0.1,0-0.2c1.6-0.1,2.9-1.5,2.9-3.1V8
		C19.6,6.8,18.8,5.7,17.8,5.2z M4.2,9.7c-0.7,0-1.3-0.6-1.3-1.3C2.8,7.6,3.4,7,4.2,7c0.7,0,1.3,0.6,1.3,1.3C5.5,9.1,4.9,9.7,4.2,9.7
		z M3.8,4.9l0.8-1.8c1.3-1.6,1.3-1,3-1.3h2.2H12c1.7,0.2,1.7-0.4,3,1.3l0.8,1.8h-6H3.8z M15.4,9.7c-0.7,0-1.3-0.6-1.3-1.3
		c0-0.7,0.6-1.3,1.3-1.3c0.7,0,1.3,0.6,1.3,1.3C16.8,9.1,16.2,9.7,15.4,9.7z"/>
</g>
</svg>
