<?xml version="1.0" encoding="utf-8"?>
<!-- Generator: Adobe Illustrator 19.1.0, SVG Export Plug-In . SVG Version: 6.00 Build 0)  -->
<svg version="1.1" id="Calque_1" xmlns="http://www.w3.org/2000/svg" xmlns:xlink="http://www.w3.org/1999/xlink" x="0px" y="0px"
	 viewBox="0 0 89.8 46.2" style="enable-background:new 0 0 89.8 46.2;" xml:space="preserve">
<style type="text/css">
	.st0{fill:none;stroke:#C9A562;stroke-miterlimit:10;}
</style>
<circle class="st0" cx="61.3" cy="37.3" r="8.4"/>
<circle class="st0" cx="61.3" cy="37.3" r="4.8"/>
<path class="st0" d="M72.9,37.3c0-6.4-5.2-11.5-11.5-11.5s-11.5,5.2-11.5,11.5V40H0.5V16.8h11.1L10,4.4H0.5V0.5h15.9
	c0,0,10.8,0.3,15.8,2.8s20,12.9,24.3,13.3c4.3,0.4,20,2.8,28.3,8c0,0,2.3,1.5,2.7,3.2h1.9v6.7h-2.3v2.9H72.9z"/>
<path class="st0" d="M14.3,4.3l2.2,12.9h22.1v-4.7C38.5,12.6,31.9,2.9,14.3,4.3z"/>
<polygon class="st0" points="16.7,21.4 22.8,21.4 22.8,23.6 19.1,23.6 "/>
<path class="st0" d="M82.5,28c0,0-1.8-1.2-1.3-2.4c0.4-1.3,4.1,1,3.8,2.4S82.5,28,82.5,28z"/>
</svg>
