<?xml version="1.0" encoding="UTF-8" standalone="no"?>
<!-- Generator: Adobe Illustrator 19.1.0, SVG Export Plug-In . SVG Version: 6.00 Build 0)  -->

<svg
   xmlns:dc="http://purl.org/dc/elements/1.1/"
   xmlns:cc="http://creativecommons.org/ns#"
   xmlns:rdf="http://www.w3.org/1999/02/22-rdf-syntax-ns#"
   xmlns:svg="http://www.w3.org/2000/svg"
   xmlns="http://www.w3.org/2000/svg"
   xmlns:sodipodi="http://sodipodi.sourceforge.net/DTD/sodipodi-0.dtd"
   xmlns:inkscape="http://www.inkscape.org/namespaces/inkscape"
   version="1.1"
   id="Calque_1"
   x="0px"
   y="0px"
   viewBox="0 0 100 100"
   style="enable-background:new 0 0 100 100;"
   xml:space="preserve"
   inkscape:version="0.91 r13725"
   sodipodi:docname="Audio.svg"><metadata
     id="metadata4178"><rdf:RDF><cc:Work
         rdf:about=""><dc:format>image/svg+xml</dc:format><dc:type
           rdf:resource="http://purl.org/dc/dcmitype/StillImage" /></cc:Work></rdf:RDF></metadata><defs
     id="defs4176" /><sodipodi:namedview
     pagecolor="#ffffff"
     bordercolor="#666666"
     borderopacity="1"
     objecttolerance="10"
     gridtolerance="10"
     guidetolerance="10"
     inkscape:pageopacity="0"
     inkscape:pageshadow="2"
     inkscape:window-width="1920"
     inkscape:window-height="1017"
     id="namedview4174"
     showgrid="false"
     inkscape:zoom="4.72"
     inkscape:cx="84.327201"
     inkscape:cy="10.371909"
     inkscape:window-x="-8"
     inkscape:window-y="-8"
     inkscape:window-maximized="1"
     inkscape:current-layer="g4166" /><style
     type="text/css"
     id="style4162">
	.st0{fill:none;stroke:#000000;stroke-width:3;stroke-miterlimit:10;}
</style><g
     id="g4166"><path
       d="M55.6,44v4.7c0,1-1.3,4.6-5.6,4.6c-4.3,0-5.6-3.7-5.6-4.7V44v-0.3v-6.5c0-1,1.3-4.7,5.6-4.7c4.3,0,5.6,3.6,5.6,4.6v6.7V44z   "
       id="path4168"
       style="fill:#b2b2b2;fill-opacity:1" /><rect
       x="43.6"
       y="63.8"
       width="13.5"
       height="3.7"
       id="rect4170"
       style="fill:#b2b2b2;fill-opacity:1" /><path
       d="M50,60c-8.3,0-11.7-6-11.7-8.5v-2.7h3v2.7c0,0.7,1.9,5.5,8.7,5.5c6.8,0,8.6-4.6,8.6-5.3v-2.9h3v2.9   C61.6,54.1,58.3,60,50,60"
       id="path4172"
       style="fill:#b2b2b2;fill-opacity:1" /></g></svg>