<?xml version="1.0" encoding="utf-8"?>
<!-- Generator: Adobe Illustrator 19.1.0, SVG Export Plug-In . SVG Version: 6.00 Build 0)  -->
<svg version="1.1" id="Calque_1" xmlns="http://www.w3.org/2000/svg" xmlns:xlink="http://www.w3.org/1999/xlink" x="0px" y="0px"
	 viewBox="0 0 100 100" style="enable-background:new 0 0 100 100;" xml:space="preserve">
<style type="text/css">
	.st0{fill:none;stroke:#000000;stroke-width:3;stroke-miterlimit:10;}
</style>
<circle class="st0" cx="50" cy="50" r="48.4"/>
<g>
	<path d="M55.6,44v4.7c0,1-1.3,4.6-5.6,4.6c-4.3,0-5.6-3.7-5.6-4.7V44v-0.3v-6.5c0-1,1.3-4.7,5.6-4.7c4.3,0,5.6,3.6,5.6,4.6v6.7V44z
		"/>
	<rect x="43.6" y="63.8" width="13.5" height="3.7"/>
	<path d="M50,60c-8.3,0-11.7-6-11.7-8.5v-2.7h3v2.7c0,0.7,1.9,5.5,8.7,5.5c6.8,0,8.6-4.6,8.6-5.3v-2.9h3v2.9
		C61.6,54.1,58.3,60,50,60"/>
</g>
</svg>
