<?xml version="1.0" encoding="utf-8"?>
<!-- Generator: Adobe Illustrator 19.1.0, SVG Export Plug-In . SVG Version: 6.00 Build 0)  -->
<svg version="1.1" id="Calque_1" xmlns="http://www.w3.org/2000/svg" xmlns:xlink="http://www.w3.org/1999/xlink" x="0px" y="0px"
	 viewBox="0 0 100 100" style="enable-background:new 0 0 100 100;" xml:space="preserve">
<style type="text/css">
	.st0{fill:none;stroke:#000000;stroke-width:3;stroke-miterlimit:10;}
</style>
<circle class="st0" cx="50" cy="50" r="48.4"/>
<g>
	<polygon points="67.1,57.7 63.1,57.7 63.1,55.4 64.2,55.4 64.2,39.5 38.6,39.5 38.6,36.6 67.1,36.6 	"/>
	<path d="M61.9,63.4h-29v-21h29V63.4z M35.8,60.5h23.9V45.2H35.8V60.5z"/>
	<path d="M42.3,48.9c0,1.2-1,2.1-2.1,2.1c-1.2,0-2.1-1-2.1-2.1c0-1.2,1-2.1,2.1-2.1C41.4,46.7,42.3,47.7,42.3,48.9"/>
	<polygon points="42.6,58.8 58,58.8 58,51.2 54.8,47.1 50.3,52.5 47.7,51 	"/>
</g>
</svg>
