<svg id="Calque_1" data-name="Calque 1" xmlns="http://www.w3.org/2000/svg" viewBox="0 0 283.4 94.1"><defs><style>.cls-1{fill:#fff;}</style></defs><title>L1-#LOGO-KERING-01-300x95px</title><path class="cls-1" d="M39.6,29.6c-3,0-4.7-.9-7-4.1l-3.7-5.2c-1.9-2.6-3.7-3.7-7.8-3.7H13V29.5H9.8V.8H13V13.7h5.8c3.8,0,5.7-1.4,7.9-4.4L33.2.7h4l-7,9.2c-1.8,2.3-2.9,3.6-4.9,4.6h0c3.1.6,4.6,1.9,6.4,4.4l3.4,4.6c1.6,2.1,2.8,3.1,4.5,3.1h1l-.3,2.9h-.7Zm24.3,0V.8h25l.3,2.9H67v9.9H88v3.2H67v9.6H90.8l-.6,3.2Zm82.7,0c-2.9,0-4.7-.9-7-4.1l-1.9-2.8c-1.9-2.7-3.7-3.8-7.7-3.8h-9.8V29.5H117V.8h14.5c7.2,0,11.2,3.8,11.2,8.9,0,4.2-2.8,6.8-6.4,7.9h0a8.78,8.78,0,0,1,4.1,3.6l1.7,2.3c1.6,2.2,2.7,3.1,4.5,3.1h1l-.3,2.9h-.7ZM131.4,3.7H120.1V16h11.3c4.5,0,7.8-2.1,7.8-6.1S135.9,3.7,131.4,3.7Zm39.8,25.9V.8h3.2V29.6Zm60.6,0L205.2,5.3h-.1V29.6h-3.2V.8h2.9l26.6,24.4h.1V.8h3.2V29.6Zm47,.8c-13.9,0-20.2-7.1-20.2-15.3S265.1-.1,278.2-.1a34.75,34.75,0,0,1,13.6,2.7V5.9a32.6,32.6,0,0,0-13.6-3c-10.8,0-16.1,5.6-16.1,12.3,0,6.9,5.6,12.3,16.7,12.3A28.1,28.1,0,0,0,290,25.3V18.1H278l.4-2.9h14.8V27.3A33.37,33.37,0,0,1,278.8,30.4Z" transform="translate(-9.8 0.1)"/><path class="cls-1" d="M147.4,56.7c0,.9.5.1,1.7.1s1.7.8,1.7-.1a1.75,1.75,0,0,0-1.7-1.7,1.69,1.69,0,0,0-1.7,1.7" transform="translate(-9.8 0.1)"/><path class="cls-1" d="M157.9,56.7c0,.9-.5.1-1.7.1s-1.7.8-1.7-.1a1.75,1.75,0,0,1,1.7-1.7,1.63,1.63,0,0,1,1.7,1.7" transform="translate(-9.8 0.1)"/><path class="cls-1" d="M149.4,53.1a3.49,3.49,0,0,0-3.7,3.8c0,2.8,2.5,6.4,6.9,7.9,4.4-1.6,6.9-5.2,6.9-7.9a3.49,3.49,0,0,0-3.7-3.8,3.88,3.88,0,0,0-3.2,1.4,3.88,3.88,0,0,0-3.2-1.4m3.3.1s.9-1.4,3.6-1.3c3,.1,4.4,2.6,4.4,4.9,0,3.3-3.2,7.5-8.1,8.9-4.9-1.3-8.1-5.6-8.1-8.9a4.66,4.66,0,0,1,4.4-4.9c2.9-.1,3.8,1.3,3.8,1.3" transform="translate(-9.8 0.1)"/><path class="cls-1" d="M152.7,57.9h0a.87.87,0,0,1,.9,1c0,.8-.5,2.1-.9,2.1s-.9-1.4-.9-2.1.4-1,.9-1" transform="translate(-9.8 0.1)"/><path class="cls-1" d="M152.7,69.5a18.49,18.49,0,0,0,4.2,1.1c-.4.4-.8.9-1.2,1.3a25.48,25.48,0,0,0-3,3.9,25.48,25.48,0,0,0-3-3.9c-.4-.4-.8-.9-1.2-1.3a18.49,18.49,0,0,0,4.2-1.1m0,23.9c-2.9,0-2.8-5.2-2.8-5.2a18.67,18.67,0,0,1,2.8-9.9,19.62,19.62,0,0,1,2.8,9.9s.1,5.2-2.8,5.2m0-43.5s5.2-.2,8.1,2.5a6.86,6.86,0,0,1,1.9,5.1c0,2.3-1.5,5.1-4,7.1a26,26,0,0,1-5.9,3.4,24,24,0,0,1-5.9-3.4,9.56,9.56,0,0,1-4-7.1,6.86,6.86,0,0,1,1.9-5.1c2.6-2.7,7.9-2.5,7.9-2.5m7.2,19.7A82.57,82.57,0,0,1,172,60.7a142.72,142.72,0,0,1,21.4-10.5,24.69,24.69,0,0,1-3,6.7c-2.6,3.9-7.7,9-17.6,11.5a49.62,49.62,0,0,1-12.9,1.2m-27.3-1.3c-9.8-2.4-15-7.6-17.6-11.5a21.86,21.86,0,0,1-3-6.7,147.67,147.67,0,0,1,21.4,10.5,77.51,77.51,0,0,1,12.1,8.9,41.71,41.71,0,0,1-12.9-1.2m20.1-19.7s-5.7-.2-8.9,2.9a7.83,7.83,0,0,0-2.4,6c0,2.7,1.7,5.8,4.6,8.1a26.71,26.71,0,0,0,4.8,3.1,19.72,19.72,0,0,1-3.5.7,79.37,79.37,0,0,0-13.3-10,147.42,147.42,0,0,0-22.7-11.1l-1-.4.1,1.1a20.12,20.12,0,0,0,3.5,8.4c2.7,4.1,8.1,9.5,18.4,12a43.91,43.91,0,0,0,14.6,1.3c.7.7,1.3,1.3,1.9,2a40.33,40.33,0,0,1,3.3,4.2,21.92,21.92,0,0,0-2.9,10.8c0,.2.1,3.8,1.5,5.3a2.49,2.49,0,0,0,2.1,1,2.38,2.38,0,0,0,2.1-1c1.4-1.5,1.5-5.1,1.5-5.3a21.92,21.92,0,0,0-2.9-10.8,30.26,30.26,0,0,1,3.3-4.2c.6-.7,1.2-1.3,1.9-2a41.57,41.57,0,0,0,14.6-1.3c10.3-2.5,15.6-7.9,18.4-12a21.19,21.19,0,0,0,3.5-8.4l.1-1.1-1,.4a137.29,137.29,0,0,0-22.7,11.1,78.1,78.1,0,0,0-13.3,10,19.72,19.72,0,0,1-3.5-.7,26.71,26.71,0,0,0,4.8-3.1c2.9-2.3,4.6-5.4,4.6-8.1a8,8,0,0,0-2.4-6c-3.4-3.1-9.1-2.9-9.1-2.9" transform="translate(-9.8 0.1)"/></svg>