<?xml version="1.0" encoding="utf-8"?>
<!-- Generator: Adobe Illustrator 19.0.0, SVG Export Plug-In . SVG Version: 6.00 Build 0)  -->
<svg version="1.1" id="Calque_1" xmlns="http://www.w3.org/2000/svg" xmlns:xlink="http://www.w3.org/1999/xlink" x="0px" y="0px"
	 viewBox="0 0 349.1 159" style="enable-background:new 0 0 349.1 159;" xml:space="preserve">
<style type="text/css">
	.st0{fill:#FFFFFF;}
</style>
<rect class="st0" width="349.1" height="159"/>
<g>
	<g>
		<path class="st0" d="M62.6,61.6c-3,0-4.7-0.9-7-4.1l-3.7-5.2c-1.9-2.6-3.7-3.7-7.8-3.7H36v12.9h-3.2V32.8H36v12.9h5.8
			c3.8,0,5.7-1.4,7.9-4.4l6.5-8.6h4l-7,9.2c-1.8,2.3-2.9,3.6-4.9,4.6v0c3.1,0.6,4.6,1.9,6.4,4.4l3.4,4.6c1.6,2.1,2.8,3.1,4.5,3.1h1
			l-0.3,2.9H62.6z M86.9,61.6V32.8h25l0.3,2.9H90v9.9h21v3.2H90v9.6h23.8l-0.6,3.2H86.9z M169.6,61.6c-2.9,0-4.7-0.9-7-4.1l-1.9-2.8
			c-1.9-2.7-3.7-3.8-7.7-3.8h-9.8v10.6h-3.2V32.8h14.5c7.2,0,11.2,3.8,11.2,8.9c0,4.2-2.8,6.8-6.4,7.9v0c1.7,0.6,2.9,1.9,4.1,3.6
			l1.7,2.3c1.6,2.2,2.7,3.1,4.5,3.1h1l-0.3,2.9H169.6z M154.4,35.7h-11.3V48h11.3c4.5,0,7.8-2.1,7.8-6.1
			C162.2,37.9,158.9,35.7,154.4,35.7z M194.2,61.6V32.8h3.2v28.8H194.2z M254.8,61.6l-26.6-24.3h-0.1v24.3h-3.2V32.8h2.9l26.6,24.4
			h0.1V32.8h3.2v28.8H254.8z M301.8,62.4c-13.9,0-20.2-7.1-20.2-15.3c0-8.3,6.5-15.2,19.6-15.2c4.7,0,9.4,0.9,13.6,2.7v3.3
			c-4.1-1.9-8.8-3-13.6-3c-10.8,0-16.1,5.6-16.1,12.3c0,6.9,5.6,12.3,16.7,12.3c4.5,0,8.6-1,11.2-2.2v-7.2h-12l0.4-2.9h14.8v12.1
			C312.5,61.1,307.5,62.4,301.8,62.4z"/>
	</g>
</g>
<g>
	<path class="st0" d="M170.4,88.7c0,0.9,0.5,0.1,1.7,0.1c1.3,0,1.7,0.8,1.7-0.1c0-0.9-0.8-1.7-1.7-1.7
		C171.2,87,170.4,87.7,170.4,88.7"/>
	<path class="st0" d="M180.9,88.7c0,0.9-0.5,0.1-1.7,0.1c-1.3,0-1.7,0.8-1.7-0.1c0-0.9,0.8-1.7,1.7-1.7
		C180.2,87,180.9,87.7,180.9,88.7"/>
	<path class="st0" d="M172.4,85.1c-2.5,0-3.7,1.7-3.7,3.8c0,2.8,2.5,6.4,6.9,7.9c4.4-1.6,6.9-5.2,6.9-7.9c0-2.1-1.2-3.8-3.7-3.8
		c-2.1,0-3.2,1.3-3.2,1.4C175.6,86.4,174.5,85.1,172.4,85.1 M175.7,85.2c0,0,0.9-1.4,3.6-1.3c3,0.1,4.4,2.6,4.4,4.9
		c0,3.3-3.2,7.5-8.1,8.9c-4.9-1.3-8.1-5.6-8.1-8.9c0-2.3,1.5-4.8,4.4-4.9C174.8,83.8,175.7,85.2,175.7,85.2"/>
	<path class="st0" d="M175.7,89.9L175.7,89.9c0.5,0,0.9,0.3,0.9,1c0,0.8-0.5,2.1-0.9,2.1c-0.4,0-0.9-1.4-0.9-2.1
		C174.8,90.1,175.2,89.9,175.7,89.9"/>
	<path class="st0" d="M175.7,101.5c1.3,0.5,2.7,0.9,4.2,1.1c-0.4,0.4-0.8,0.9-1.2,1.3c-1.2,1.3-2.2,2.6-3,3.9
		c-0.8-1.3-1.8-2.6-3-3.9c-0.4-0.4-0.8-0.9-1.2-1.3C173,102.4,174.4,102,175.7,101.5 M175.7,125.4c-2.9,0-2.8-5.2-2.8-5.2
		c0-3.3,0.8-6.6,2.8-9.9c1.9,3.3,2.8,6.6,2.8,9.9C178.5,120.2,178.6,125.4,175.7,125.4 M175.7,81.9c0,0,5.2-0.2,8.1,2.5
		c1.3,1.3,1.9,3,1.9,5.1c0,2.3-1.5,5.1-4,7.1c-1.7,1.3-3.7,2.5-5.9,3.4c-2.2-0.9-4.3-2.1-5.9-3.4c-2.6-2-4-4.8-4-7.1
		c0-2.1,0.6-3.8,1.9-5.1C170.4,81.7,175.7,81.9,175.7,81.9 M182.9,101.6c3.3-3,7.4-6,12.1-8.9c9.1-5.5,18.2-9.3,21.4-10.5
		c-0.4,1.4-1.2,3.9-3,6.7c-2.6,3.9-7.7,9-17.6,11.5C191.2,101.4,186.8,101.8,182.9,101.6 M155.6,100.3c-9.8-2.4-15-7.6-17.6-11.5
		c-1.8-2.8-2.7-5.3-3-6.7c3.1,1.2,12.3,5,21.4,10.5c4.8,2.9,8.8,5.9,12.1,8.9C164.5,101.8,160.1,101.4,155.6,100.3 M175.7,80.6
		c0,0-5.7-0.2-8.9,2.9c-1.6,1.5-2.4,3.5-2.4,6c0,2.7,1.7,5.8,4.6,8.1c1,0.8,2.6,2,4.8,3.1c-1.1,0.3-2.3,0.6-3.5,0.7
		c-3.5-3.4-8-6.7-13.3-10c-11.2-6.9-22.6-11-22.7-11.1l-1-0.4l0.1,1.1c0,0.2,0.5,4,3.5,8.4c2.7,4.1,8.1,9.5,18.4,12
		c5.8,1.4,10.7,1.7,14.6,1.3c0.7,0.7,1.3,1.3,1.9,2c1.3,1.4,2.3,2.8,3.3,4.2c-2,3.6-2.9,7.2-2.9,10.8c0,0.2,0.1,3.8,1.5,5.3
		c0.7,0.8,1.3,1,2.1,1c0.9,0,1.4-0.2,2.1-1c1.4-1.5,1.5-5.1,1.5-5.3c0-3.6-0.9-7.2-2.9-10.8c0.9-1.4,2-2.8,3.3-4.2
		c0.6-0.7,1.2-1.3,1.9-2c3.9,0.4,8.7,0.2,14.6-1.3c10.3-2.5,15.6-7.9,18.4-12c3-4.5,3.5-8.3,3.5-8.4l0.1-1.1l-1,0.4
		c-0.1,0-11.5,4.2-22.7,11.1c-5.3,3.2-9.7,6.6-13.3,10c-1.2-0.1-2.4-0.4-3.5-0.7c2.2-1.1,3.8-2.3,4.8-3.1c2.9-2.3,4.6-5.4,4.6-8.1
		c0-2.5-0.8-4.4-2.4-6C181.4,80.4,175.7,80.6,175.7,80.6"/>
</g>
</svg>
