<?xml version="1.0" encoding="utf-8"?>
<!-- Generator: Adobe Illustrator 19.1.0, SVG Export Plug-In . SVG Version: 6.00 Build 0)  -->
<svg version="1.1" id="Calque_1" xmlns="http://www.w3.org/2000/svg" xmlns:xlink="http://www.w3.org/1999/xlink" x="0px" y="0px"
	 viewBox="0 0 57.6 23" style="enable-background:new 0 0 57.6 23;" xml:space="preserve">
<g>
	<polygon points="52.3,17.9 51,16.6 54.9,12.6 51,8.7 52.3,7.4 57.6,12.6 	" fill="#C8A461"/>
	<polygon points="5.2,7.4 6.6,8.7 2.6,12.6 6.6,16.6 5.2,17.9 0,12.6 	" fill="#C8A461"/>
	<g>
		<path d="M25.5,1.5c1,0,1.7,0.8,1.7,1.8v1.2c0-1.1,0.9-1.9,2-1.9c1.1,0,2,0.9,2,1.9v1.5c0-1.1,0.9-1.9,2-1.9s2,0.9,2,1.9v1
			c0-0.8,0.7-1.5,1.5-1.5c0.8,0,1.5,0.7,1.5,1.5c0,0,0,2.9,0,6c0,3.1-3.1,6.4-3.1,8.5c-2.6,0-8.2,0-10,0c0-1.9-5-5.6-5-7.8
			c0,0,0-6.8,0-6.8c0-1.1,0.9-1.9,2-1.9v3.9c0,0.3,0.3,0.6,0.8,0.6s0.8-0.3,0.8-0.6V3.3C23.8,2.3,24.6,1.5,25.5,1.5 M25.5,0
			c-1.8,0-3.2,1.5-3.2,3.3v0.2h0c-1.9,0-3.5,1.5-3.5,3.4l0,6.8c0,1.7,1.5,3.4,3,5.2c0.7,0.8,1.9,2.1,2,2.6V23h1.5h10h1.5v-1.5
			c0-0.6,0.6-1.7,1.1-2.7c0.9-1.7,1.9-3.7,1.9-5.8c0-3.1,0-6,0-6c0-1.6-1.3-3-3-3c-0.2,0-0.4,0-0.6,0.1c-0.6-0.9-1.7-1.6-2.9-1.6
			c-0.4,0-0.7,0.1-1,0.1c-0.6-1-1.7-1.6-3-1.6c-0.4,0-0.8,0.1-1.2,0.2C27.5,0.5,26.5,0,25.5,0L25.5,0z" fill="#C8A461" />
	</g>
</g>
</svg>
