<?xml version="1.0" encoding="utf-8"?>
<!-- Generator: Adobe Illustrator 19.2.0, SVG Export Plug-In . SVG Version: 6.00 Build 0)  -->
<svg version="1.1" id="Calque_1" xmlns="http://www.w3.org/2000/svg" xmlns:xlink="http://www.w3.org/1999/xlink" x="0px" y="0px"
	 viewBox="0 0 100 100" style="enable-background:new 0 0 100 100;" xml:space="preserve">
<g>
	<path d="M2.7,91.7h22.2c0.3,0,1.3,0,1.6,0l34.8-7c0.5,0,1.1-0.5,1.1-1.3V22.2c0-0.5-0.5-1.3-1.1-1.3l-28.9-7h40.1V89
		c0,1.6,1.3,2.7,2.7,2.7h22.2c1.6,0,2.7-1.3,2.7-2.7c0-1.6-1.3-2.7-2.7-2.7H77.8V11c0-1.6-1.3-2.7-2.7-2.7h-50
		c-1.6,0-2.7,1.3-2.7,2.7v75.1H2.7c-1.6,0-2.7,1.3-2.7,2.7C0,90.6,1.3,91.7,2.7,91.7z M59.9,82.4l-32.1,6.4V15.5l32.1,7.8V82.4z"/>
	<path d="M54.3,59.9c2.4,0,4.3-1.9,4.3-4.3c0-2.4-1.9-4.3-4.3-4.3c-2.4,0-4.3,1.9-4.3,4.3S52.1,59.9,54.3,59.9z M54.3,54.3
		c0.8,0,1.3,0.5,1.3,1.3s-0.5,1.3-1.3,1.3S53,56.4,53,55.6C52.9,55.1,53.5,54.3,54.3,54.3z"/>
</g>
</svg>
