<?xml version="1.0" encoding="utf-8"?>
<!-- Generator: Adobe Illustrator 19.1.1, SVG Export Plug-In . SVG Version: 6.00 Build 0)  -->
<svg version="1.1" id="Calque_1" xmlns="http://www.w3.org/2000/svg" xmlns:xlink="http://www.w3.org/1999/xlink" x="0px" y="0px"
	 viewBox="0 0 100 100" style="enable-background:new 0 0 100 100;" xml:space="preserve">
<style type="text/css">
	.st0{fill:#010202;}
</style>
<g>
	<path class="st0" d="M34.8,77c-0.4,0-0.8-0.1-1.2-0.3c-0.9-0.5-1.5-1.5-1.5-2.6V26c0-1.2,0.7-2.3,1.7-2.8c0.8-0.4,1.8-0.3,2.5,0.3
		l36.4,24c0.8,0.5,1.3,1.5,1.3,2.5c0,1-0.5,2-1.3,2.5l0,0L36.2,76.6C35.7,76.9,35.3,77,34.8,77z M34.7,24.9c-0.1,0-0.1,0-0.2,0
		c-0.3,0.1-0.6,0.5-0.6,1v48.1c0,0.5,0.2,0.8,0.5,0.9c0.1,0.1,0.4,0.1,0.6,0l36.4-24.1c0.3-0.2,0.4-0.5,0.4-0.9
		c0-0.4-0.2-0.7-0.4-0.9L35,25C34.9,25,34.8,24.9,34.7,24.9z"/>
</g>
<g>
	<path class="st0" d="M50,100C22.4,100,0,77.6,0,50C0,22.4,22.4,0,50,0c27.6,0,50,22.4,50,50C100,77.6,77.6,100,50,100z M50,2
		C23.5,2,2,23.5,2,50s21.6,48,48,48s48-21.6,48-48S76.5,2,50,2z"/>
</g>
</svg>
