<?xml version="1.0" encoding="utf-8"?>
<!-- Generator: Adobe Illustrator 19.2.0, SVG Export Plug-In . SVG Version: 6.00 Build 0)  -->
<svg version="1.1" id="Calque_1" xmlns="http://www.w3.org/2000/svg" xmlns:xlink="http://www.w3.org/1999/xlink" x="0px" y="0px"
	 viewBox="0 0 100 100" style="enable-background:new 0 0 100 100;" xml:space="preserve">
<g>
	<path d="M100,65.9V45.5c0-2.8-2.4-7.7-4.9-12.8c-0.9-1.8-1.8-3.8-2.6-5.5c-3-6.8-7.8-6.4-8-6.4h-84V22l84,0c0.2,0,4.2-0.3,6.8,5.7
		c0.8,1.8,1.7,3.7,2.6,5.5c2.3,4.8,4.8,9.8,4.8,12.3v20.3c0,0,0.1,2.6-1.4,4.1c-0.7,0.7-1.7,1.1-2.9,1.1h-4.5
		c-0.6-5.9-5.5-10.5-11.6-10.5c-6.1,0-11,4.7-11.6,10.6H0.6v1.2h66.9v-0.1h0.6c0-5.8,4.7-10.5,10.5-10.5S89,66.5,89,72.2h0.5h0.7
		h4.4c1.6,0,2.8-0.5,3.8-1.5C100.1,68.9,100,66,100,65.9z"/>
	<path d="M4.5,45.7h8.9c2.5,0,4.5-2,4.5-4.4v-8.9c0-2.5-2.1-4.5-4.5-4.5H4.5c-2.5,0-4.5,2-4.5,4.5v8.8C0,43.7,2,45.7,4.5,45.7z
		 M1.2,32.3c0-1.9,1.5-3.4,3.4-3.4h8.9c1.8,0,3.4,1.5,3.4,3.4v8.9c0,1.7-1.6,3.3-3.4,3.3H4.5c-1.9,0-3.4-1.5-3.4-3.4V32.3z"/>
	<path d="M34.8,45.7c2.4,0,4.4-2,4.5-4.4v-8.9c0-2.5-2-4.5-4.5-4.5h-8.9c-2.5,0-4.5,2-4.5,4.5v8.8c0,2.5,2,4.5,4.5,4.5H34.8z
		 M22.5,41.1v-8.8c0-1.9,1.5-3.4,3.4-3.4h8.9c1.9,0,3.4,1.5,3.4,3.4l0,8.9c-0.1,1.8-1.6,3.3-3.4,3.3h-8.9C24,44.5,22.5,43,22.5,41.1
		z"/>
	<path d="M56.2,45.7c2.5,0,4.5-2,4.5-4.4v-8.9c0-2.5-2-4.5-4.5-4.5h-8.9c-2.5,0-4.5,2-4.5,4.5v8.8c0,2.5,2,4.5,4.5,4.5H56.2z
		 M43.9,41.1v-8.8c0-1.9,1.5-3.4,3.4-3.4h8.9c1.9,0,3.4,1.5,3.4,3.4v8.9c0,1.8-1.5,3.3-3.4,3.3h-8.9C45.4,44.5,43.9,43,43.9,41.1z"
		/>
	<path d="M74,45.7h14.5c2.5,0,4.5-2,4.5-4.4l-4-9.8c-0.6-1.6-3.7-3.6-6.1-3.6H74c-2.5,0-4.5,2-4.5,4.5v8.8
		C69.5,43.7,71.4,45.7,74,45.7z M70.6,32.3c0-1.9,1.5-3.4,3.4-3.4h8.9c2,0,4.7,1.8,5,2.9l3.9,9.5c-0.1,1.7-1.6,3.1-3.4,3.1H74
		c-1.9,0-3.4-1.5-3.4-3.4V32.3z"/>
	<path d="M78.5,65.3c-3.8,0-7,3.1-7,7c0,3.8,3.1,7,7,7s7-3.1,7-7C85.5,68.4,82.4,65.3,78.5,65.3z M78.5,78.1c-3.2,0-5.8-2.6-5.8-5.8
		c0-3.2,2.6-5.8,5.8-5.8s5.8,2.6,5.8,5.8C84.3,75.4,81.7,78.1,78.5,78.1z"/>
	<path d="M78.5,69.2c-1.7,0-3,1.4-3,3c0,1.7,1.4,3,3,3s3-1.4,3-3C81.5,70.6,80.2,69.2,78.5,69.2z M78.5,74.1c-1,0-1.9-0.8-1.9-1.9
		c0-1,0.8-1.9,1.9-1.9c1,0,1.9,0.8,1.9,1.9C80.4,73.3,79.5,74.1,78.5,74.1z"/>
</g>
</svg>
