<?xml version="1.0" encoding="utf-8"?>
<!-- Generator: Adobe Illustrator 19.1.0, SVG Export Plug-In . SVG Version: 6.00 Build 0)  -->
<svg version="1.1" id="Calque_1" xmlns="http://www.w3.org/2000/svg" xmlns:xlink="http://www.w3.org/1999/xlink" x="0px" y="0px"
	 viewBox="0 0 100 100" style="enable-background:new 0 0 100 100;" xml:space="preserve">
<style type="text/css">
	.st0{fill:#B0B0B0;}
</style>
<g>
	<path class="st0" d="M84.4,42.5H79c-0.7,0-1.4-0.6-1.4-1.4V28.1C77.6,13.2,66,0.6,51.1,0C35.5-0.5,22.6,12,22.6,27.6v13.6
		c0,0.7-0.6,1.4-1.4,1.4h-5.5c-2.1,0-3.8,1.7-3.8,3.8v49.8c0,2.1,1.7,3.8,3.8,3.8h68.6c2.1,0,3.8-1.7,3.8-3.8V46.3
		C88.2,44.2,86.6,42.5,84.4,42.5z M31.2,27.6c0-10.8,9-19.5,20-19c10.3,0.6,18.1,9.3,18.1,19.5v13.1c0,0.7-0.6,1.4-1.4,1.4H32.4
		c-0.7,0-1.4-0.6-1.4-1.4V27.6H31.2z"/>
</g>
</svg>
