<?xml version="1.0" encoding="utf-8"?>
<!-- Generator: Adobe Illustrator 19.2.0, SVG Export Plug-In . SVG Version: 6.00 Build 0)  -->
<svg version="1.1" id="Calque_1" xmlns="http://www.w3.org/2000/svg" xmlns:xlink="http://www.w3.org/1999/xlink" x="0px" y="0px"
	 viewBox="0 0 100 100" style="enable-background:new 0 0 100 100;" xml:space="preserve">
<path d="M89.8,61.4L89.8,61.4L89.8,61.4c0-4.3-0.2-5.9-3-5.9h-1.9v-0.8c9.5-2.7,16-12,15-22.5c-1.1-9.5-8.4-17.1-17.9-18.5
	c-9.9-1.5-18.5,4-22.3,12.2C57.5,12.7,45.1,3.3,31.2,5.4C20.4,7.1,12,15.7,10.5,26.2c-1.9,12,4.8,22.5,14.8,26.8v2.5h-1.7
	c-1.3,0-2.5,0.8-3,1.9L5.1,53.6C2.3,53,0,54.9,0,57.8V74c0,2.5,2.1,4.2,4.6,3.6l11-3.4c2.3-0.8,4.8,1.1,4.8,3.6l0,0l0,0
	c0,9.5,7.8,17.1,17.1,17.1H86c1.7,0,3.4-1.5,3.8-3.2V61.4z M36.5,35.7c-4,0.8-7.4-2.7-6.7-6.7c0.4-2.3,2.3-4,4.4-4.4
	c4-0.8,7.4,2.7,6.7,6.7C40.5,33.4,38.6,35.3,36.5,35.7z M66,55.5H46.2c-0.6-0.4-1.1-0.8-1.1-1.7c0-1.1,0.8-1.9,1.9-1.9h17.9
	c1.1,0,1.9,0.8,1.9,1.9C66.8,54.7,66.6,55.3,66,55.5z M80.9,39.1c-2.7,0.6-5.1-1.7-4.4-4.4c0.2-1.3,1.3-2.3,2.5-2.5
	c2.7-0.6,5.1,1.7,4.4,4.4C83.2,37.8,82.2,38.9,80.9,39.1z"/>
</svg>
