<?xml version="1.0" encoding="utf-8"?>
<!-- Generator: Adobe Illustrator 19.2.0, SVG Export Plug-In . SVG Version: 6.00 Build 0)  -->
<svg version="1.1" id="Calque_1" xmlns="http://www.w3.org/2000/svg" xmlns:xlink="http://www.w3.org/1999/xlink" x="0px" y="0px"
	 viewBox="0 0 100 100" style="enable-background:new 0 0 100 100;" xml:space="preserve">
<g>
	<path d="M28.2,99.4H0v-96h28.2V99.4z M4,95.4h20.1v-88H4V95.4z"/>
	<rect x="6.9" y="80.6" width="14.4" height="4"/>
	<rect x="6.9" y="72" width="14.4" height="4"/>
	<rect x="6.9" y="17.7" width="14.4" height="4"/>
	<path d="M60.3,99.4H32.2v-96h28.2v96H60.3z M36.2,95.4h20.1v-88H36.2V95.4z"/>
	<rect x="39.1" y="80.6" width="14.4" height="4"/>
	<rect x="39.1" y="72" width="14.4" height="4"/>
	<rect x="39.1" y="17.7" width="14.4" height="4"/>
	<g>
		<path d="M71.8,100L59.2,4.6L87.4,0L100,94.9L71.8,100z M63.8,8l11.5,86.9l20.1-3.4L83.9,4.6L63.8,8z"/>
		<polygon points="90.2,77.7 90.8,81.7 76.7,83.9 76,80 		"/>
		<polygon points="89.1,69.3 89.8,73.3 75.7,75.7 75,71.8 		"/>
		<polygon points="82,15.2 82.6,19.2 68.4,21.4 67.8,17.5 		"/>
	</g>
</g>
</svg>
