<?xml version="1.0" encoding="utf-8"?>
<!-- Generator: Adobe Illustrator 19.1.1, SVG Export Plug-In . SVG Version: 6.00 Build 0)  -->
<svg version="1.1" id="Calque_1" xmlns="http://www.w3.org/2000/svg" xmlns:xlink="http://www.w3.org/1999/xlink" x="0px" y="0px"
	 viewBox="0 0 100 100" style="enable-background:new 0 0 100 100;" xml:space="preserve">
<style type="text/css">
	.st0{fill:#010202;}
</style>
<g>
	<polygon class="st0" points="89.2,65.3 80.8,65.3 80.8,60.6 82.7,60.6 82.7,27.2 29.6,27.2 29.6,21.6 89.2,21.6 	"/>
</g>
<g>
	<g>
		<path class="st0" d="M77.3,88.2H0V32.3h77.3V88.2z M7.1,81h64.2V39.4H7.1V81z"/>
	</g>
	<circle class="st0" cx="18.8" cy="49.5" r="5.7"/>
	<polygon class="st0" points="25.2,76.3 66.6,76.3 66.6,55.7 58,44.8 45.9,59.1 39,55.2 	"/>
</g>
<g>
	<polygon class="st0" points="99.9,49 92.7,49 92.7,45 94.3,45 94.3,16.3 48.8,16.3 48.8,11.5 99.9,11.5 	"/>
</g>
</svg>
