<?xml version="1.0" encoding="utf-8"?>
<!-- Generator: Adobe Illustrator 19.2.0, SVG Export Plug-In . SVG Version: 6.00 Build 0)  -->
<svg version="1.1" id="Calque_1" xmlns="http://www.w3.org/2000/svg" xmlns:xlink="http://www.w3.org/1999/xlink" x="0px" y="0px"
	 viewBox="0 0 100 100" style="enable-background:new 0 0 100 100;" xml:space="preserve">
<g>
	<g>
		<g>
			<g>
				<path d="M97.9,18.3H74.7l-7-3.7c-0.2-0.5-0.7-0.7-1.2-0.7H50.1c0,0,0,0-0.2,0l0,0H33.4c-0.5,0-0.9,0.2-1.4,0.5l-7,3.7H2
					c-1.1,0.2-2,1.2-2,2.3V84c0,1.2,0.9,2.1,2.1,2.1h95.8c1.2,0,2.1-0.9,2.1-2.1V20.2C100,19.3,99.3,18.3,97.9,18.3z M95.8,81.7H4.2
					V22.3h21.6c0.7,0,1.4-0.5,1.9-0.9l6.5-3.5H50l0,0c0,0,0,0,0.2,0h15.5l6.5,3.5c0.2,0.5,0.9,0.9,1.9,0.9h22L95.8,81.7L95.8,81.7z"
					/>
			</g>
		</g>
	</g>
	<g>
		<path d="M50.1,72.9c-11.8,0-21.3-9.5-21.3-21.3s9.5-21.3,21.3-21.3s21.3,9.5,21.3,21.3S61.9,72.9,50.1,72.9z M50.1,40.4
			c-6,0-11.1,5.1-11.1,11.1s5.1,11.1,11.1,11.1s11.1-5.1,11.1-11.1S56.1,40.4,50.1,40.4z"/>
	</g>
	<path d="M15.1,37.6h-0.7c-1.9,0-3.2-1.6-3.2-3.2v-0.7c0-1.9,1.4-3.5,3.2-3.5h0.7c1.9,0,3.5,1.6,3.5,3.5v0.7
		C18.6,36,16.9,37.6,15.1,37.6z"/>
</g>
</svg>
