<?xml version="1.0" encoding="utf-8"?>
<!-- Generator: Adobe Illustrator 19.2.0, SVG Export Plug-In . SVG Version: 6.00 Build 0)  -->
<svg version="1.1" id="Calque_1" xmlns="http://www.w3.org/2000/svg" xmlns:xlink="http://www.w3.org/1999/xlink" x="0px" y="0px"
	 viewBox="0 0 100 100" style="enable-background:new 0 0 100 100;" xml:space="preserve">
<g>
	<rect x="19.2" y="63.8" width="12.8" height="11.3"/>
	<rect x="19.2" y="27.3" width="12.8" height="11.3"/>
	<rect x="43.3" y="27.3" width="12.8" height="11.3"/>
	<rect x="68" y="63.8" width="12.8" height="11.3"/>
	<rect x="68" y="27.3" width="12.8" height="11.3"/>
	<path d="M0,3.7v5.9h3V50v5.9v40.4h37.4h19.2H97V55.9v-5.4V9.6h3V3.7H0z M55.7,90.9H44.3V73.2h11.3V90.9z M90.6,90.9h-31V69.2H40.4
		v21.7h-31V56.4h81.3V90.9z M90.6,50.5H9.4V16h81.3V50.5z"/>
</g>
</svg>
