<?xml version="1.0" encoding="UTF-8" standalone="no"?>
<!-- Generator: Adobe Illustrator 15.1.0, SVG Export Plug-In . SVG Version: 6.00 Build 0)  -->

<svg
   xmlns:dc="http://purl.org/dc/elements/1.1/"
   xmlns:cc="http://creativecommons.org/ns#"
   xmlns:rdf="http://www.w3.org/1999/02/22-rdf-syntax-ns#"
   xmlns:svg="http://www.w3.org/2000/svg"
   xmlns="http://www.w3.org/2000/svg"
   xmlns:sodipodi="http://sodipodi.sourceforge.net/DTD/sodipodi-0.dtd"
   xmlns:inkscape="http://www.inkscape.org/namespaces/inkscape"
   version="1.1"
   id="Calque_1"
   x="0px"
   y="0px"
   width="85.635px"
   height="60px"
   viewBox="0 0 85.635 60"
   enable-background="new 0 0 85.635 60"
   xml:space="preserve"
   inkscape:version="0.48.4 r9939"
   sodipodi:docname="instagram.svgz"><metadata
   id="metadata27"><rdf:RDF><cc:Work
       rdf:about=""><dc:format>image/svg+xml</dc:format><dc:type
         rdf:resource="http://purl.org/dc/dcmitype/StillImage" /><dc:title></dc:title></cc:Work></rdf:RDF></metadata><defs
   id="defs25" /><sodipodi:namedview
   pagecolor="#ffffff"
   bordercolor="#666666"
   borderopacity="1"
   objecttolerance="10"
   gridtolerance="10"
   guidetolerance="10"
   inkscape:pageopacity="0"
   inkscape:pageshadow="2"
   inkscape:window-width="640"
   inkscape:window-height="480"
   id="namedview23"
   showgrid="false"
   inkscape:zoom="3.9333333"
   inkscape:cx="42.817501"
   inkscape:cy="30"
   inkscape:window-x="0"
   inkscape:window-y="0"
   inkscape:window-maximized="0"
   inkscape:current-layer="Calque_1" />
<g
   id="g3">
	<g
   id="g5">
		<rect
   x="7731"
   y="25"
   fill="#C8A461"
   width="55"
   height="5"
   id="rect7" />
	</g>
	<g
   id="g9">
		<rect
   x="7731"
   y="39"
   fill="#C8A461"
   width="55"
   height="5"
   id="rect11" />
	</g>
	<g
   id="g13">
		<rect
   x="7731"
   y="53"
   fill="#C8A461"
   width="55"
   height="5"
   id="rect15" />
	</g>
	<g
   id="g17">
		<rect
   x="7731"
   y="67"
   fill="#C8A461"
   width="27"
   height="5"
   id="rect19" />
	</g>
</g>
<path
   d="M64.867,0.414H20.767c-4.108,0-7.438,3.331-7.438,7.438v44.633c0,4.11,3.329,7.438,7.438,7.438h44.101  c4.108,0,7.438-3.328,7.438-7.438V7.851C72.306,3.745,68.976,0.414,64.867,0.414z M54.951,30.169  c0,6.692-5.443,12.137-12.132,12.137c-6.692,0-12.136-5.444-12.136-12.137c0-2.011,0.501-3.904,1.37-5.578  c2.024-3.888,6.084-6.557,10.766-6.557c4.678,0,8.738,2.666,10.763,6.557C54.45,26.264,54.951,28.158,54.951,30.169z M65.663,50.233  c0,1.685-1.364,3.05-3.049,3.05H23.282c-1.684,0-3.049-1.365-3.049-3.05V24.59h5.03c-0.561,1.761-0.869,3.633-0.869,5.578  c0,10.157,8.263,18.42,18.42,18.42s18.42-8.263,18.42-18.42c0-1.945-0.308-3.817-0.869-5.578h5.296v25.644H65.663z M65.663,14.988  c0,1.684-1.364,3.049-3.049,3.049h-4.618c-1.685,0-3.051-1.365-3.051-3.049v-5.04c0-1.336,0.866-2.459,2.063-2.872h5.604  c1.684,0,3.049,1.366,3.049,3.05v4.862H65.663z"
   id="path21" fill="#fff" />
</svg>