<?xml version="1.0" encoding="utf-8"?>
<!-- Generator: Adobe Illustrator 19.1.0, SVG Export Plug-In . SVG Version: 6.00 Build 0)  -->
<svg version="1.1" id="Calque_1" xmlns="http://www.w3.org/2000/svg" xmlns:xlink="http://www.w3.org/1999/xlink" x="0px" y="0px"
	 viewBox="0 0 100 100" style="enable-background:new 0 0 100 100;" xml:space="preserve">
<style type="text/css">
	.st0{fill:#C9A45E;}
</style>
<g>
	<path class="st0" d="M75.5,57.7h24.3c0.2-1.7,0.3-3.4,0.3-5.2c0-8.2-2.2-16-6.1-22.6c4-10.6,3.9-19.6-1.5-25
		c-5.1-5.1-18.7-4.2-34.2,2.6c-1.1-0.1-2.3-0.1-3.5-0.1c-21.2,0-39,14.6-43.9,34.2c6.6-8.5,13.6-14.7,23-19.2
		c-0.8,0.8-5.8,5.7-6.6,6.6C2.6,53.6-5.1,85.7,3.2,94.1c6.4,6.4,17.9,5.3,31.1-1.2c6.1,3.1,13.1,4.9,20.5,4.9
		c19.9,0,36.7-12.8,42.8-30.6H73.1c-3.4,6.2-9.9,10.4-17.5,10.4s-14.1-4.2-17.5-10.4c-1.5-2.8-2.4-6-2.4-9.4v-0.1L75.5,57.7
		L75.5,57.7z M35.8,45.8c0.6-10,8.9-17.9,19-17.9c10.1,0,18.4,8,19,17.9L35.8,45.8L35.8,45.8z M92.2,9.9c3.4,3.5,3.4,9.9,0.4,17.9
		C87.6,20.1,80.2,14,71.6,10.6C80.8,6.6,88.4,6.1,92.2,9.9z M9.6,92.5c-4.4-4.4-3.1-13.6,2.6-24.8c3.5,9.9,10.4,18.2,19.3,23.6
		C21.7,95.8,13.6,96.5,9.6,92.5z"/>
</g>
</svg>
