<?xml version="1.0" encoding="utf-8"?>
<!-- Generator: Adobe Illustrator 19.2.0, SVG Export Plug-In . SVG Version: 6.00 Build 0)  -->
<svg version="1.1" id="Calque_1" xmlns="http://www.w3.org/2000/svg" xmlns:xlink="http://www.w3.org/1999/xlink" x="0px" y="0px"
	 viewBox="0 0 100 100" style="enable-background:new 0 0 100 100;" xml:space="preserve">
<g>
	<path d="M35,61.7H21.1c-0.6,0-1.1-0.6-1.1-1.1v-1.7c0-0.6,0.6-1.1,1.1-1.1h13.3c0.6,0,1.1,0.6,1.1,1.1v1.7
		C35.6,60.6,35.6,61.7,35,61.7z"/>
	<path d="M51.7,70H21.1c-0.6,0-1.1-0.6-1.1-1.1v-1.7c0-0.6,0.6-1.1,1.1-1.1h30c0.6,0,1.1,0.6,1.1,1.1v1.7C52.2,68.9,52.2,70,51.7,70
		z"/>
	<path d="M64.4,70h-7.8c-0.6,0-1.1-0.6-1.1-1.1v-1.7c0-0.6,0.6-1.1,1.1-1.1h7.8c0.6,0,1.1,0.6,1.1,1.1v1.7
		C65.6,68.9,65.6,70,64.4,70z"/>
	<path d="M78.3,70h-7.8c-0.6,0-1.1-0.6-1.1-1.1v-1.7c0-0.6,0.6-1.1,1.1-1.1h7.8c0.6,0,1.1,0.6,1.1,1.1v1.7
		C79.4,69.4,78.9,70,78.3,70z"/>
	<path d="M56.7,61.7H42.8c-0.6,0-1.1-0.6-1.1-1.1v-1.7c0-0.6,0.6-1.1,1.1-1.1h13.3c0.6,0,1.1,0.6,1.1,1.1v1.7
		C57.2,60.6,57.2,61.7,56.7,61.7z"/>
	<path d="M35,78.9H21.1c-0.6,0-1.1-0.6-1.1-1.1v-1.7c0-0.6,0.6-1.1,1.1-1.1h13.3c0.6,0,1.1,0.6,1.1,1.1v1.7
		C35.6,77.8,35.6,78.9,35,78.9z"/>
	<path d="M56.7,78.9H42.8c-0.6,0-1.1-0.6-1.1-1.1v-1.7c0-0.6,0.6-1.1,1.1-1.1h13.3c0.6,0,1.1,0.6,1.1,1.1v1.7
		C57.2,77.8,57.2,78.9,56.7,78.9z"/>
	<path d="M78.3,61.7H65c-0.6,0-1.1-0.6-1.1-1.1v-1.7c0-0.6,0.6-1.1,1.1-1.1h13.3c0.6,0,1.1,0.6,1.1,1.1v1.7
		C79.4,61.1,78.9,61.7,78.3,61.7z"/>
	<path d="M7.8,5.6v88.9c0,2.8,2.2,5.6,5.6,5.6h73.3c2.8,0,5.6-2.2,5.6-5.6V5.6C92.2,2.8,90,0,86.7,0H13.3C10,0,7.8,2.2,7.8,5.6z
		 M82.2,95.6H17.8c-2.8,0-5.6-2.2-5.6-5.6V10c0-2.8,2.2-5.6,5.6-5.6h64.4c2.8,0,5.6,2.2,5.6,5.6v80C87.8,92.8,85,95.6,82.2,95.6z"/>
	<path d="M25.6,15h48.9c2.8,0,5.6,2.2,5.6,5.6v25.6c0,2.8-2.2,5.6-5.6,5.6H25.6c-2.8,0-5.6-2.2-5.6-5.6V20.6
		C20,17.2,22.2,15,25.6,15z"/>
</g>
</svg>
