<?xml version="1.0" encoding="utf-8"?>
<!-- Generator: Adobe Illustrator 19.1.0, SVG Export Plug-In . SVG Version: 6.00 Build 0)  -->
<svg version="1.1" id="Calque_1" xmlns="http://www.w3.org/2000/svg" xmlns:xlink="http://www.w3.org/1999/xlink" x="0px" y="0px"
	 viewBox="0 0 100 100" style="enable-background:new 0 0 100 100;" xml:space="preserve">
<style type="text/css">
	.st0{fill:#CCA460;}
</style>
<g>
	<path class="st0" d="M72.4,63C85.1,45,80.9,20.1,63,7.4C45-5.4,20.1-1.2,7.4,16.8c-12.8,17.9-8.6,42.8,9.4,55.6
		c13.8,9.8,32.4,9.8,46.2,0L88.7,98c2.6,2.6,6.8,2.6,9.4,0c2.6-2.6,2.6-6.8,0-9.4L72.4,63z M39.9,68.3c-15.7,0-28.5-12.8-28.5-28.5
		c0-15.7,12.8-28.5,28.5-28.5c15.7,0,28.5,12.7,28.5,28.5C68.3,55.6,55.6,68.3,39.9,68.3z"/>
	<polygon class="st0" points="43.9,24.8 35.9,24.8 35.9,35.9 24.8,35.9 24.8,43.9 35.9,43.9 35.9,54.9 43.9,54.9 43.9,43.9 
		54.9,43.9 54.9,35.9 43.9,35.9 	"/>
</g>
</svg>
