<?xml version="1.0" encoding="utf-8"?>
<!-- Generator: Adobe Illustrator 19.2.0, SVG Export Plug-In . SVG Version: 6.00 Build 0)  -->
<svg version="1.1" id="Calque_1" xmlns="http://www.w3.org/2000/svg" xmlns:xlink="http://www.w3.org/1999/xlink" x="0px" y="0px"
	 viewBox="0 0 100 100" style="enable-background:new 0 0 100 100;" xml:space="preserve">
<g>
	<path d="M25.3,48.6c-0.9-0.9-2.2-1.3-3.5-1.3s-2.4,0.4-3.5,1.3l-6.6,6.6c-2,2-2,5.1,0,6.8c0.9,0.9,2.2,1.3,3.5,1.3s2.4-0.4,3.5-1.3
		l6.6-6.6C27.3,53.4,27.3,50.3,25.3,48.6z"/>
	<path d="M37,52.5c-0.9-0.9-2.2-1.3-3.5-1.3s-2.4,0.4-3.5,1.3l-8.8,8.8c-2,2-2,5.1,0,6.8c0.9,0.9,2.2,1.5,3.5,1.5s2.4-0.4,3.5-1.5
		l8.8-8.8C39,57.4,39,54.3,37,52.5z"/>
	<path d="M44.7,60.3c-0.9-0.9-2.2-1.3-3.3-1.3s-2.4,0.4-3.3,1.3L31,67.3c-1.8,1.8-1.8,4.9,0,6.6c0.9,0.9,2.2,1.3,3.3,1.3
		s2.4-0.4,3.3-1.3l7.1-7.1C46.5,65.1,46.5,62,44.7,60.3z"/>
	<path d="M50.9,68.4c-0.9-0.9-1.8-1.1-2.9-1.1s-2,0.4-2.9,1.1l-5.5,5.3c-1.5,1.5-1.5,4.2,0,5.7c0.9,0.9,1.8,1.1,2.9,1.1
		s2-0.4,2.9-1.1l5.5-5.3C52.4,72.6,52.4,70,50.9,68.4z"/>
	<path d="M64.3,39.1c-1.3-1.5-2.4-2.6-3.3-3.7c-0.4-0.7-1.8-2-2-2c-0.4,0-2.2,0.7-3.3,1.8c-1.8,1.5-4,2.2-8.2,5.3
		c-1.3,1.1-3.5,2-5.7,2c-2.9,0-5.5,0.7-7.3-1.1C33,39.5,32.8,38,33,36.7c0.2-1.5,1.3-3.1,2.6-4c1.3-0.9,9.7-6.4,14.3-12.1
		c0.2-0.2,0.4-0.4,0.4-0.7c-1.3-1.1-3.5-1.8-6.2-1.8c-4.4,0-9.7,1.3-14.1,2.9c-1.8,0.4-3.5,0.9-5.3,0.9c-5.1-0.2-9-2-11-2.9
		c-0.2,0-0.4-0.2-0.4-0.2c-0.4-0.2-0.9-0.2-1.5-0.2c-0.4,0.2-1.1,0.7-1.3,1.1L0.2,41.3c-0.4,1.1,0,2.2,0.9,2.6
		c1.1,0.7,4.2,3.7,7.1,6.6c1.8,1.8,4.4,1.8,6.2,0l2.9-2.9c0.9-0.9,2-1.5,3.3-1.8c2-0.4,4.2,0.2,5.5,1.8c1.3,1.3,2,3.3,1.8,5.1l0,0
		c0.7-0.7,2.6-2.4,3.7-2.6c2.2-0.7,4.6,0,6.2,1.5c1.5,1.5,2.2,4.4,1.8,6.4c0.9-0.4,0.7-0.4,1.8-0.4c1.5,0,3.1,0.7,4.2,1.8
		c1.5,1.5,1.5,4.9,0.9,6.8C46.7,66,47.4,66,48,66c1.5,0,3.1,0.7,4.2,2c1.8,2.2,1.3,5.3-0.7,7.3l-5.3,5.1c1.1,1.1,2.6,1.5,4.2,1.5
		c1.8,0,3.3-0.7,4.4-2c0.9-0.9,1.5-2.2,1.8-3.5l0,0c0.7,0.2,1.5,0.4,2.4,0.4c1.8,0,3.3-0.7,4.4-2c1.1-1.1,1.8-2.6,1.8-4.2l0,0
		c0.9,0.4,2,0.7,2.9,0.7c1.8,0,3.3-0.7,4.6-2c1.1-1.1,1.8-2.6,1.8-4.4l0,0c0.7,0.2,1.5,0.4,2.4,0.4c1.8,0,3.3-0.7,4.6-2
		c1.1-1.1,2-2.9,2-4.6c0-1.3-0.2-2.6-0.9-3.7C76.9,53.6,69.8,45.3,64.3,39.1z"/>
	<path d="M99.8,42L92.1,19c-0.2-0.7-0.7-0.9-1.3-0.9c-0.2,0-0.4,0-0.7,0.2c-1.5,0.7-8.6,3.3-14.3,3.3c-1.8,0-3.7-0.2-5.5-0.9
		c-5.1-1.5-6.6-2.6-10.4-2.6c-2,0-6.2,0-8.6,2.6c-0.2,0.2-0.2,0.2-0.4,0.4c-4.6,5.7-13,11.5-14.8,12.6c-1.8,0.9-3.3,4-0.7,6.6
		c1.5,1.5,4,0.7,6.4,0.7c1.8,0,3.7-0.7,5.1-1.8c8.4-6,10.4-7.3,12.1-7.3c0.9,0,1.5,0.7,3.1,2.2c4,4.4,11.7,14.3,18.1,18.5
		c2,1.3,3.7,2,5.3,2c1.1,0,2.2-0.4,3.3-1.3c2.9-2.9,8.6-8.6,10.4-9.7C99.8,43.5,100.3,42.6,99.8,42z"/>
</g>
</svg>
