<?xml version="1.0" encoding="utf-8"?>
<!-- Generator: Adobe Illustrator 19.2.0, SVG Export Plug-In . SVG Version: 6.00 Build 0)  -->
<svg version="1.1" id="Calque_1" xmlns="http://www.w3.org/2000/svg" xmlns:xlink="http://www.w3.org/1999/xlink" x="0px" y="0px"
	 viewBox="0 0 100 100" style="enable-background:new 0 0 100 100;" xml:space="preserve">
<path d="M49.9,0c-21,0-38.2,17.6-38.2,39.7c0,5.4,1,10.8,2.9,15.7c0,0,4.4,8.3,6.9,10.8L49.9,100l27.9-32.8
	c2.9-2.9,7.4-11.8,7.4-11.8c2-4.9,2.9-10.3,2.9-15.7C88.7,17.6,71,0,49.9,0 M49.9,50.5c-7.8,0-14.2-6.4-14.2-14.2
	s6.4-14.2,14.2-14.2s14.2,6.4,14.2,14.2C64.2,44.1,57.8,50.5,49.9,50.5"/>
</svg>
