<?xml version="1.0" encoding="utf-8"?>
<!-- Generator: Adobe Illustrator 19.2.0, SVG Export Plug-In . SVG Version: 6.00 Build 0)  -->
<svg version="1.1" id="Calque_1" xmlns="http://www.w3.org/2000/svg" xmlns:xlink="http://www.w3.org/1999/xlink" x="0px" y="0px"
	 viewBox="0 0 100 100" style="enable-background:new 0 0 100 100;" xml:space="preserve">
<g>
	<path d="M21.5,100L21.5,100C15,100,10,95,10,88.5v-77C10,5,15,0,21.5,0l0,0C28,0,33,5,33,11.5v77C33,95,27.5,100,21.5,100z"/>
	<path d="M78.5,100L78.5,100C72,100,67,95,67,88.5v-77C67,5,72,0,78.5,0l0,0C85,0,90,5,90,11.5v77C90,95,85,100,78.5,100z"/>
</g>
</svg>
