<?xml version="1.0" encoding="utf-8"?>
<!-- Generator: Adobe Illustrator 19.2.0, SVG Export Plug-In . SVG Version: 6.00 Build 0)  -->
<svg version="1.1" id="Calque_1" xmlns="http://www.w3.org/2000/svg" xmlns:xlink="http://www.w3.org/1999/xlink" x="0px" y="0px"
	 viewBox="0 0 100 100" style="enable-background:new 0 0 100 100;" xml:space="preserve">
<g>
	<path d="M72.8,21v8.6H78v-11c0-1-0.5-1.9-1-2.4L59.5,0.5C59,0.5,58.1,0,57.1,0h-50C5.2,0,3.8,1.4,3.8,3.3v93.3
		c0,1.9,1.4,3.3,3.3,3.3h67.6c1.9,0,3.3-1.4,3.3-3.3V81.9h-5.2v12.9H9V5.2h47.1v15.2h16.7V21z"/>
	<g>
		<path d="M46.2,32.4c-0.5,0-1.4,0-2.9,0h-1.9v5.2h1.9c1.4,0,2.4,0,2.9-0.5c0.5,0,1-0.5,1-1c0.5-0.5,0.5-1,0.5-1.4
			c0-0.5,0-1.4-0.5-1.4C47.1,32.4,46.6,32.4,46.2,32.4z"/>
		<path d="M65.2,33.3c-0.5-0.5-1-1-1.9-1c-0.5,0-1.4,0-2.9,0h-1.9v12.4h2.9c1,0,1.9,0,2.4,0s1-0.5,1.4-1c0.5-1,1-1.4,1-2.4
			c0.5-1,0.5-1.9,0.5-3.3s0-2.4-0.5-3.3C66.2,34.3,65.7,33.3,65.2,33.3z"/>
		<path d="M91.4,20H30.9c-3.3,0-5.7,2.4-5.7,5.2V51c0,2.9,2.4,5.2,5.2,5.2h60.5c2.9,0,5.2-2.4,5.2-5.2V25.2
			C96.6,22.4,94.3,20,91.4,20z M51.4,37.6c-0.5,0.5-1,1.4-1.4,1.9c-1,0-1.4,0.5-1.9,0.5c-1,0-2.4,0.5-3.8,0.5h-2.9v7.1h-3.3V29h6.2
			c2.4,0,3.8,0,4.3,0.5c1,0.5,1.9,1,2.9,1.9c0,0.5,0.5,1.9,0.5,3.3C51.9,35.7,51.9,36.7,51.4,37.6z M70,42.4c-0.5,1.4-1,2.4-1.9,3.3
			c-0.5,0.5-1.4,1-2.4,1.4c-1,0.5-1.9,0.5-3.3,0.5h-7.1V29H62c1.4,0,2.9,0,3.3,0.5c1,0.5,1.9,1,2.9,1.9c1,1,1.4,1.9,1.9,2.9
			s0.5,2.4,0.5,4.3C70.4,40,70.4,41,70,42.4z M85.2,31.9h-9v4.3h7.6v3.3h-7.6v8.1h-3.8V29h12.9L85.2,31.9L85.2,31.9z"/>
	</g>
</g>
</svg>
