<?xml version="1.0" encoding="utf-8"?>
<!-- Generator: Adobe Illustrator 19.2.0, SVG Export Plug-In . SVG Version: 6.00 Build 0)  -->
<svg version="1.1" id="Calque_1" xmlns="http://www.w3.org/2000/svg" xmlns:xlink="http://www.w3.org/1999/xlink" x="0px" y="0px"
	 viewBox="0 0 100 100" style="enable-background:new 0 0 100 100;" xml:space="preserve">
<path d="M80.2,24.1H56.4L74.7,5.8c1.1-1.1,1.1-3.3,0-5c-1.1-1.1-3.3-1.1-5,0l-20,20L37,8c-1.1-1.1-3.3-1.1-5,0c-1.1,1.1-1.1,3.3,0,5
	l10.5,10.5H19.8c-6.6,0-12.7,6.1-12.7,13.3v42.1c0,7.2,5.5,12.7,12.7,12.7h7.8v5.5c0,1.7,1.1,2.8,2.8,2.8h39.3
	c1.7,0,2.8-1.1,2.8-2.8v-5.5h7.8c7.2,0,12.7-5.5,12.7-12.7V36.8C92.9,29.6,87.4,24.1,80.2,24.1z M86.3,78.9c0,3.3-2.8,6.1-6.1,6.1
	H20.4c-3.3,0-6.1-2.8-6.1-6.1V36.8c0-3.3,2.8-6.1,6.1-6.1h59.8c3.3,0,6.1,2.8,6.1,6.1L86.3,78.9L86.3,78.9z"/>
</svg>
