<?xml version="1.0" encoding="utf-8"?>
<!-- Generator: Adobe Illustrator 19.2.0, SVG Export Plug-In . SVG Version: 6.00 Build 0)  -->
<svg version="1.1" id="Calque_1" xmlns="http://www.w3.org/2000/svg" xmlns:xlink="http://www.w3.org/1999/xlink" x="0px" y="0px"
	 viewBox="0 0 100 100" style="enable-background:new 0 0 100 100;" xml:space="preserve">
<g>
	<path d="M90.8,39l-7.7-17.9C75,10.5,75,14,64.3,13H50H35.7C25,14,25,9.9,16.8,20.7L9.2,39C4.1,41.6,0,47.2,0,53.3v3.6
		c0,8.2,6.6,15.3,14.8,15.8c0,0.5,0,0.5,0,1v6.6c0,3.6,3.1,6.6,6.6,6.6s6.6-3.1,6.6-6.6v-6.6c0-0.5,0-0.5,0-1H50h21.9
		c0,0.5,0,0.5,0,1v6.6c0,3.6,3.1,6.6,6.6,6.6c3.6,0,6.6-3.1,6.6-6.6v-6.6c0-0.5,0-0.5,0-1c8.2-0.5,14.8-7.7,14.8-15.8v-3.6
		C100,47.2,95.9,41.6,90.8,39z M21.4,62c-3.6,0-6.6-3.1-6.6-6.6c-0.5-4.1,2.6-7.1,6.6-7.1c3.6,0,6.6,3.1,6.6,6.6
		C28.1,58.9,25,62,21.4,62z M19.4,37.5l4.1-9.2c6.6-8.2,6.6-5.1,15.3-6.6H50h11.2c8.7,1,8.7-2,15.3,6.6l4.1,9.2H50H19.4z M78.6,62
		c-3.6,0-6.6-3.1-6.6-6.6c0-3.6,3.1-6.6,6.6-6.6c3.6,0,6.6,3.1,6.6,6.6C85.7,58.9,82.7,62,78.6,62z"/>
</g>
</svg>
