<?xml version="1.0" encoding="utf-8"?>
<!-- Generator: Adobe Illustrator 16.0.0, SVG Export Plug-In . SVG Version: 6.00 Build 0)  -->
<!DOCTYPE svg PUBLIC "-//W3C//DTD SVG 1.1//EN" "http://www.w3.org/Graphics/SVG/1.1/DTD/svg11.dtd">
<svg version="1.1" id="Calque_1" xmlns="http://www.w3.org/2000/svg" xmlns:xlink="http://www.w3.org/1999/xlink" x="0px" y="0px"
	 width="50px" height="50px" viewBox="0 0 50 50" enable-background="new 0 0 50 50" xml:space="preserve">
<g>
	<defs>
		<rect id="SVGID_1_" y="2.69" width="50" height="44.62"/>
	</defs>
	<clipPath id="SVGID_2_">
		<use xlink:href="#SVGID_1_"  overflow="visible"/>
	</clipPath>
	<path clip-path="url(#SVGID_2_)" d="M49.749,29.682L31.591,3.306c-0.261-0.379-0.688-0.608-1.147-0.615
		c-0.463-0.018-0.895,0.207-1.168,0.577L6.672,33.87l-0.29-0.422c-0.445-0.646-1.331-0.81-1.977-0.364l-3.789,2.607
		c-0.311,0.214-0.524,0.542-0.593,0.912c-0.068,0.371,0.013,0.754,0.227,1.065l6.214,9.024c0.214,0.311,0.542,0.524,0.914,0.593
		c0.085,0.016,0.172,0.023,0.258,0.023c0.286,0,0.568-0.087,0.807-0.251l3.787-2.607c0.646-0.446,0.81-1.332,0.364-1.979l-0.29-0.42
		l7.172-1.995l0.87,3.025c0.18,0.622,0.749,1.029,1.366,1.029c0.129,0,0.262-0.019,0.393-0.057l8.554-2.457
		c0.755-0.217,1.19-1.005,0.975-1.761l-0.841-2.927l18.167-5.055c0.442-0.122,0.798-0.451,0.955-0.884
		C50.071,30.541,50.01,30.06,49.749,29.682 M8,43.908l-4.601-6.682l1.447-0.995l0.103,0.15l4.388,6.374l0.108,0.157L8,43.908z
		 M22.688,40.93l-0.471-1.635l5.835-1.624l0.456,1.584L22.688,40.93z M29.493,34.319L19.312,37.15l-8.714,2.424l-0.5,0.14
		l-2.03-2.949l0.308-0.417L30.379,6.561l15.897,23.091L29.493,34.319z"/>
	<path clip-path="url(#SVGID_2_)" fill="#FFFFFF" d="M29.473,11.874c-0.529-0.407-1.291-0.309-1.699,0.222l-16.496,21.42
		c-0.408,0.53-0.309,1.291,0.221,1.699c0.221,0.168,0.48,0.251,0.739,0.251c0.363,0,0.722-0.162,0.96-0.472l16.496-21.421
		C30.102,13.043,30.002,12.283,29.473,11.874"/>
	<polygon clip-path="url(#SVGID_2_)" points="8.069,36.765 30.379,6.561 46.276,29.652 10.099,39.714 	"/>
	
		<rect x="5.545" y="36.014" transform="matrix(-0.8239 0.5667 -0.5667 -0.8239 34.4221 69.4444)" clip-path="url(#SVGID_2_)" width="1.756" height="8.112"/>
	<line clip-path="url(#SVGID_2_)" x1="22.217" y1="39.295" x2="28.052" y2="37.671"/>
</g>
</svg>
