<?xml version="1.0" encoding="utf-8"?>
<!-- Generator: Adobe Illustrator 19.2.0, SVG Export Plug-In . SVG Version: 6.00 Build 0)  -->
<svg version="1.1" id="Calque_1" xmlns="http://www.w3.org/2000/svg" xmlns:xlink="http://www.w3.org/1999/xlink" x="0px" y="0px"
	 viewBox="0 0 100 100" style="enable-background:new 0 0 100 100;" xml:space="preserve">
<g>
	<path d="M89.7,45.5c-2.6-2.6-6.1-5.2-7.1-5.9c-0.2-0.2-3-2.6-6.1-4.4c-3.8-2.7-6.7-4.4-7-4.7c-7.9-4.9-15.3-4.7-15.5-4.7H0.6V27
		l53.3,0c0.1,0,7.3-0.2,14.9,4.6c0.7,0.4,1.5,0.9,2.3,1.5c-0.4-0.1-0.9-0.1-1.2,0c-0.9,0.1-1.6,0.6-2,1.3c-0.5,0.8-0.6,1.7-0.3,2.6
		c1.1,4.2,9.3,8.8,9.8,9.1c1.8,1.1,9.5,5.6,13.2,5.6c0.6,0,1.2-0.1,1.5-0.4c0.3-0.3,0.5-0.7,0.5-1.1c3.8,3.9,6.4,7.7,6.1,10.5
		c-0.5,6.7-21,6.5-29.3,5.9c-3.6-7.8-12.2-7.7-12.2-7.8H16.7c-5.6,0-6.9,0.7-9.1,2.8c-1.6,1.5-2.4,3.9-2.8,5H0.6v1.2l3.9,0l0,0.1
		h0.2c0.2,3.6,3.2,6.4,6.9,6.4s6.6-2.8,6.9-6.4h0.3c0.2,3.6,3.2,6.4,6.9,6.4s6.6-2.8,6.9-6.4h8.9c0.2,3.6,3.2,6.5,6.9,6.5
		s6.7-2.9,6.9-6.5h0.5c0.2,3.6,3.2,6.5,6.9,6.5c3.7,0,6.7-2.9,6.9-6.5h0.7l0-0.1c1.4,0.1,4.1,0.2,7.5,0.2c9,0,22-1.1,22.5-7.3
		C100.3,56.3,95.6,50.7,89.7,45.5z M91.4,50.2c-1.2,1-7.7-1.9-13.4-5.3l0,0c-0.1,0-8.3-4.6-9.3-8.3c-0.2-0.6-0.1-1.2,0.2-1.7
		c0.3-0.4,0.6-0.7,1.2-0.7c0.1,0,0.3,0,0.4,0c1.4,0,3.3,0.9,5.3,2c4.3,3,9.3,6.8,13.5,10.6c1.3,1.3,2.1,2.4,2.2,3.2
		C91.5,50.1,91.5,50.1,91.4,50.2z M8.4,62.3c1.9-1.8,2.9-2.5,8.3-2.5h40.6c0.1,0,7.5,0,10.9,6.5H6.1C6.4,65.3,7.1,63.5,8.4,62.3z
		 M11.5,72.9c-2.9,0-5.4-2.4-5.7-5.2h11.3C17,70.6,14.5,72.9,11.5,72.9z M25.6,72.9c-2.9,0-5.4-2.4-5.7-5.2h11.3
		C31,70.6,28.5,72.9,25.6,72.9z M48.2,73c-3,0-5.5-2.4-5.7-5.4h11.4C53.7,70.6,51.2,73,48.2,73z M62.5,73c-3,0-5.5-2.4-5.7-5.4h11.4
		C68,70.6,65.5,73,62.5,73z"/>
	<path d="M65.7,50.4c0-2-0.4-2.3-9.8-9.6c-9.2-7.2-17.7-6.7-18-6.7H0v19.3h62.1C64.6,53.4,65.7,52.5,65.7,50.4z M1.2,35.3l36.8,0
		c0.1,0,8.3-0.5,17.2,6.4c9,7,9.3,7.4,9.3,8.7c0,1.2-0.3,1.8-2.4,1.8H1.2V35.3z"/>
</g>
</svg>
