<?xml version="1.0" encoding="utf-8"?>
<!-- Generator: Adobe Illustrator 19.2.0, SVG Export Plug-In . SVG Version: 6.00 Build 0)  -->
<svg version="1.1" id="Calque_1" xmlns="http://www.w3.org/2000/svg" xmlns:xlink="http://www.w3.org/1999/xlink" x="0px" y="0px"
	 viewBox="0 0 100 100" style="enable-background:new 0 0 100 100;" xml:space="preserve">
<g>
	<path d="M68.2,55.9c-5.5,0-9.9,4.4-9.9,9.9s4.4,9.9,9.9,9.9c5.5,0,9.9-4.4,9.9-9.9S73.6,55.9,68.2,55.9z M68.2,74.6
		c-4.8,0-8.8-3.9-8.8-8.8s3.9-8.8,8.8-8.8c4.8,0,8.8,3.9,8.8,8.8S73,74.6,68.2,74.6z"/>
	<path d="M68.2,59.9c-3.3,0-5.9,2.6-5.9,5.9c0,3.3,2.6,5.9,5.9,5.9c3.3,0,5.9-2.6,5.9-5.9C74.1,62.5,71.4,59.9,68.2,59.9z
		 M68.2,70.6c-2.6,0-4.8-2.1-4.8-4.8c0-2.6,2.1-4.8,4.8-4.8s4.8,2.1,4.8,4.8C73,68.4,70.8,70.6,68.2,70.6z"/>
	<path d="M97.7,54.7c-0.7-1.9-3-3.4-3.1-3.5c-9.2-5.8-26.4-8.5-31.7-9c-3-0.3-11.5-5.5-18.2-9.7c-3.6-2.2-6.7-4.1-8.6-5.1
		c-5.6-2.8-17.3-3.2-17.8-3.2H0v5.5h10.6l1.6,12.7H0v26.9h56.1v-3.6c0-6.7,5.5-12.2,12.2-12.2S80.5,59,80.5,65.8v0.7h16.9v-3.2h2.6
		v-8.6H97.7z M98.9,62.1h-2.6v3.2H81.6c-0.2-7.2-6.1-12.9-13.3-12.9c-7.4,0-13.3,6-13.3,13.3v2.4H1.1V43.5h12.4l-1.9-14.9H1.1v-3.2
		h17.1c0.1,0,12,0.4,17.3,3.1c1.9,0.9,4.9,2.8,8.5,5c7.2,4.5,15.4,9.5,18.7,9.8C68,43.8,85,46.5,94,52.1c0.7,0.4,2.4,1.8,2.8,3.2
		l0.1,0.4h2V62.1z"/>
	<path d="M15.9,28.5l-0.6,0L17.9,44h25.6v-7.1L43,37.4C40,34.1,31.8,27.3,15.9,28.5z M42.4,42.9H18.8l-2.3-13.3
		c15.4-1,23.1,5.8,25.7,8.8c0,0,0.1,0.1,0.1,0.1V42.9z"/>
	<path d="M21,51.1h4.9v-3.6h-8.8L21,51.1z M24.8,50h-3.3L20,48.7h4.8V50z"/>
	<path d="M91.6,51.9c-1.4-0.4-1.8,0.5-1.8,0.7c-0.7,1.7,1.6,3.3,1.7,3.3l0,0c0.2,0.2,1.3,0.8,2.2,0.8c0.2,0,0.4,0,0.6-0.1
		c0.3-0.1,0.7-0.4,0.8-1C95.4,54,93,52.3,91.6,51.9z M93.9,55.6c-0.3,0.1-1.3-0.2-1.8-0.6c-0.1-0.1-1.6-1.1-1.2-2.1
		c0.1-0.1,0.8,0,1.8,0.6c1,0.7,1.5,1.4,1.4,1.8C94,55.5,93.9,55.5,93.9,55.6z"/>
</g>
</svg>
