<?xml version="1.0" encoding="utf-8"?>
<!-- Generator: Adobe Illustrator 16.0.0, SVG Export Plug-In . SVG Version: 6.00 Build 0)  -->
<!DOCTYPE svg PUBLIC "-//W3C//DTD SVG 1.1//EN" "http://www.w3.org/Graphics/SVG/1.1/DTD/svg11.dtd">
<svg version="1.1" id="Calque_1" xmlns="http://www.w3.org/2000/svg" xmlns:xlink="http://www.w3.org/1999/xlink" x="0px" y="0px"
	 width="75px" height="48.9px" viewBox="0 0 75 48.9" enable-background="new 0 0 75 48.9" xml:space="preserve">
<path id="path11" fill="#CDAC6C" d="M27.838,31.373h-2.6v4.129h0.781V33.76h1.819c1.256,0,1.715-0.65,1.715-1.225
	C29.553,31.869,28.909,31.373,27.838,31.373z M27.573,33.281h-1.554V31.85h1.585c0.645,0,1.144,0.168,1.144,0.691
	C28.748,33.098,28.273,33.281,27.573,33.281z"/>
<path id="path13" fill="#CDAC6C" d="M41.356,35.471h-0.882l-1.179-1.674c-0.015-0.021-0.044-0.033-0.073-0.037h0.038
	c-0.013-0.002-0.025-0.004-0.038,0H37.64v1.742h-0.781v-4.129h2.601c1.07,0,1.715,0.494,1.715,1.162c0,0.475-0.315,1-1.134,1.168
	L41.356,35.471L41.356,35.471z M37.64,33.281h1.554c0.7,0,1.176-0.184,1.176-0.74c0-0.523-0.499-0.691-1.144-0.691H37.64V33.281z"/>
<path id="path15" fill="#CDAC6C" d="M32.166,31.373l-2.406,4.129h0.892l0.668-1.201h2.567l0.633,1.201h0.945l-2.317-4.129H32.166z
	 M31.587,33.805l1.025-1.816h0.017l0.946,1.816H31.587L31.587,33.805z"/>
<path id="path17" fill="#CDAC6C" d="M48.848,33.277l-1.591-0.271c-0.326-0.057-0.659-0.172-0.659-0.523
	c0-0.625,0.799-0.723,1.272-0.723c0.629,0,1.343,0.201,1.381,0.838h0.706c-0.03-0.453-0.225-1.316-2.173-1.316
	c-1.351,0-1.918,0.633-1.918,1.277c0,0.719,0.823,0.908,1.188,0.971l1.142,0.197c0.916,0.16,1.188,0.299,1.188,0.729
	c0,0.594-0.915,0.695-1.459,0.695c-0.714,0-1.537-0.217-1.537-0.965h-0.706c0,0.385,0.093,0.73,0.566,1.047
	c0.248,0.166,0.652,0.396,1.685,0.396c0.955,0,2.182-0.271,2.182-1.248C50.113,33.727,49.569,33.404,48.848,33.277L48.848,33.277z"
	/>
<rect id="rect19" x="43.186" y="31.352" fill="#CDAC6C" width="0.741" height="0.74"/>
<rect id="rect21" x="43.19" y="32.527" fill="#CDAC6C" width="0.74" height="2.951"/>
<polygon id="polygon25" fill="#CDAC6C" points="49.892,18.293 40.652,18.293 40.652,28.627 49.892,28.627 49.892,27.5 42.237,27.5 
	42.237,23.888 47.985,23.888 47.985,22.746 42.237,22.746 42.237,19.419 49.892,19.419 "/>
<polygon id="polygon27" fill="#CDAC6C" points="44.202,18.03 48.129,16.625 45.453,16.625 "/>
<polygon id="polygon29" fill="#CDAC6C" points="73.298,28.627 73.298,27.5 65.402,27.5 65.402,18.293 63.957,18.293 63.957,28.627 
	"/>
<path id="path31" fill="#CDAC6C" d="M55.878,18.293l-5.253,10.333H52.4l1.345-2.674h6.301l1.356,2.674h1.757l-5.258-10.333H55.878z
	 M54.41,24.66l2.475-4.937l2.506,4.937H54.41L54.41,24.66z"/>
<path id="path33" fill="#CDAC6C" d="M35.639,24.307c2.367-0.632,2.597-2.395,2.585-3.023c-0.141-1.846-1.385-2.991-3.62-2.991
	h-6.512v10.333h1.485v-4.333h4.239l3.119,4.333h1.87C38.807,28.627,36.562,25.711,35.639,24.307z M34.401,23.071h-4.824v-3.554
	h4.993c1.148,0,1.794,0.537,2.028,1.218c0.154,0.468,0.056,1.081-0.198,1.499C35.982,22.925,35.19,23.071,34.401,23.071
	L34.401,23.071z"/>
<path id="path35" fill="#CDAC6C" d="M19.169,16.545c-4.19,0-7.046,2.954-7.046,6.532c0,3.765,3.155,6.423,7.046,6.423
	c3.891,0,7.044-2.619,7.044-6.423C26.214,19.499,23.322,16.545,19.169,16.545z M19.12,28.217c-2.899,0-5.289-2.33-5.289-5.137
	c0-2.805,2.277-5.246,5.4-5.246c3.048,0,5.287,2.441,5.287,5.246C24.52,25.887,22.019,28.217,19.12,28.217L19.12,28.217z"/>
<polygon id="polygon37" fill="#CDAC6C" points="11.4,18.293 9.835,18.293 8.384,21.949 9.456,21.949 "/>
<polygon id="polygon39" fill="#CDAC6C" points="11.042,28.627 11.042,27.5 3.147,27.5 3.147,18.293 1.702,18.293 1.702,28.627 "/>
</svg>
